<?xml version="1.0" encoding="utf-8"?>
<!-- Generator: Adobe Illustrator 16.0.0, SVG Export Plug-In . SVG Version: 6.00 Build 0)  -->
<!DOCTYPE svg PUBLIC "-//W3C//DTD SVG 1.1//EN" "http://www.w3.org/Graphics/SVG/1.1/DTD/svg11.dtd" [
	<!ENTITY ns_extend "http://ns.adobe.com/Extensibility/1.0/">
	<!ENTITY ns_ai "http://ns.adobe.com/AdobeIllustrator/10.0/">
	<!ENTITY ns_graphs "http://ns.adobe.com/Graphs/1.0/">
	<!ENTITY ns_vars "http://ns.adobe.com/Variables/1.0/">
	<!ENTITY ns_imrep "http://ns.adobe.com/ImageReplacement/1.0/">
	<!ENTITY ns_sfw "http://ns.adobe.com/SaveForWeb/1.0/">
	<!ENTITY ns_custom "http://ns.adobe.com/GenericCustomNamespace/1.0/">
	<!ENTITY ns_adobe_xpath "http://ns.adobe.com/XPath/1.0/">
]>
<svg version="1.1" id="Layer_1" xmlns:x="&ns_extend;" xmlns:i="&ns_ai;" xmlns:graph="&ns_graphs;"
	 xmlns="http://www.w3.org/2000/svg" xmlns:xlink="http://www.w3.org/1999/xlink" x="0px" y="0px" width="595.279px"
	 height="841.89px" viewBox="0 0 595.279 841.89" enable-background="new 0 0 595.279 841.89" xml:space="preserve">
<metadata><?xpacket begin="﻿" id="W5M0MpCehiHzreSzNTczkc9d"?>
<x:xmpmeta xmlns:x="adobe:ns:meta/" x:xmptk="Adobe XMP Core 5.3-c011 66.145661, 2012/02/06-14:56:27        ">
   <rdf:RDF xmlns:rdf="http://www.w3.org/1999/02/22-rdf-syntax-ns#">
      <rdf:Description rdf:about=""
            xmlns:dc="http://purl.org/dc/elements/1.1/">
         <dc:format>image/svg+xml</dc:format>
         <dc:title>
            <rdf:Alt>
               <rdf:li xml:lang="x-default">Print</rdf:li>
            </rdf:Alt>
         </dc:title>
      </rdf:Description>
      <rdf:Description rdf:about=""
            xmlns:xmp="http://ns.adobe.com/xap/1.0/"
            xmlns:xmpGImg="http://ns.adobe.com/xap/1.0/g/img/">
         <xmp:MetadataDate>2018-09-05T11:35:22-03:00</xmp:MetadataDate>
         <xmp:ModifyDate>2018-09-05T11:35:22-03:00</xmp:ModifyDate>
         <xmp:CreateDate>2018-09-05T11:35:22-03:00</xmp:CreateDate>
         <xmp:CreatorTool>Adobe Illustrator CS6 (Macintosh)</xmp:CreatorTool>
         <xmp:Thumbnails>
            <rdf:Alt>
               <rdf:li rdf:parseType="Resource">
                  <xmpGImg:width>108</xmpGImg:width>
                  <xmpGImg:height>256</xmpGImg:height>
                  <xmpGImg:format>JPEG</xmpGImg:format>
                  <xmpGImg:image>/9j/4AAQSkZJRgABAgEASABIAAD/7QAsUGhvdG9zaG9wIDMuMAA4QklNA+0AAAAAABAASAAAAAEA&#xA;AQBIAAAAAQAB/+4ADkFkb2JlAGTAAAAAAf/bAIQABgQEBAUEBgUFBgkGBQYJCwgGBggLDAoKCwoK&#xA;DBAMDAwMDAwQDA4PEA8ODBMTFBQTExwbGxscHx8fHx8fHx8fHwEHBwcNDA0YEBAYGhURFRofHx8f&#xA;Hx8fHx8fHx8fHx8fHx8fHx8fHx8fHx8fHx8fHx8fHx8fHx8fHx8fHx8fHx8f/8AAEQgBAABsAwER&#xA;AAIRAQMRAf/EAaIAAAAHAQEBAQEAAAAAAAAAAAQFAwIGAQAHCAkKCwEAAgIDAQEBAQEAAAAAAAAA&#xA;AQACAwQFBgcICQoLEAACAQMDAgQCBgcDBAIGAnMBAgMRBAAFIRIxQVEGE2EicYEUMpGhBxWxQiPB&#xA;UtHhMxZi8CRygvElQzRTkqKyY3PCNUQnk6OzNhdUZHTD0uIIJoMJChgZhJRFRqS0VtNVKBry4/PE&#xA;1OT0ZXWFlaW1xdXl9WZ2hpamtsbW5vY3R1dnd4eXp7fH1+f3OEhYaHiImKi4yNjo+Ck5SVlpeYmZ&#xA;qbnJ2en5KjpKWmp6ipqqusra6voRAAICAQIDBQUEBQYECAMDbQEAAhEDBCESMUEFURNhIgZxgZEy&#xA;obHwFMHR4SNCFVJicvEzJDRDghaSUyWiY7LCB3PSNeJEgxdUkwgJChgZJjZFGidkdFU38qOzwygp&#xA;0+PzhJSktMTU5PRldYWVpbXF1eX1RlZmdoaWprbG1ub2R1dnd4eXp7fH1+f3OEhYaHiImKi4yNjo&#xA;+DlJWWl5iZmpucnZ6fkqOkpaanqKmqq6ytrq+v/aAAwDAQACEQMRAD8A9U4q7FXYq7FXYq7FXYq8&#xA;3/Ov83rb8vdFiFvGl1r+ochYWr14Kq/amlpQ8VrQD9o/TRSA+PfM/nzzh5ouXuNd1a4veZ5CF3Ih&#xA;X2SFaRoPkuKUpsNS1HTrhbnT7qazuF3WaCRonFPBkIOKXuf5U/8AOTmt6deQaV51lOoaTIRGNVIr&#xA;c29dg0nEfvk8f2+9T0xQQ+qba5t7q3iubaRZredFkhmjIZHRxyVlYbEEGoOLFUxV2KuxV2KuxVLP&#xA;MnmfQfLWlS6rrl5HZWMWzSyHcseiooqzseyqK4q8Y1n8/vN+quy+UtGh06wJITUtX5NLIv8AMltG&#xA;Rw9uTGuarVdsYMRq+KXl+vk7XTdj5souuEebH38+fnK8nqf4wSIE1MKaZaFB7VYFvxzWn2k7of7L&#xA;9jsh7O/0/wDY/tTXS/zr/M/SXU6rZWPmKzWgkNuGs7v3YfbiP+rx3zLwdvYZmpXH7nEz9hZoC41L&#xA;73if5yeeD5z8+Xmrok0NmscVvZ21woWWKONByRlBYA+qznr3zdRkCLHJ05iYmjzYRkkOxV2KvqL/&#xA;AJxQ/MOe9srvyXqEpeSwT61pTOan0CwEsQr2R2DKPAnsMWJfQ2KHYqh9R1LT9Nspb7ULmK0s4F5T&#xA;XE7rHGi+LMxAGKvK7/8A5yj/ACptL36tHPeXiA0a6t7c+kN6f7saNz9C4ppmmg/mf5F17Q7vW9M1&#xA;aKax0+Jp7+vJJYI0UsxkiYBxsp3pQ9q4op88axruo+fdePmbWFZdPjJHl7Sn+xbwV2lZehlkoGJ/&#xA;gFpyvbPahs4sZ/rH9H63qux+zAAMsx7h+n9SJzmXo3Yq7FWNeb/KFvrNu08CiPUox+7k6CQD9h/4&#xA;Htm37M7Ulglwy3xn7PMOq7S7NjnjxDbIPt8i8kkjeORo5FKuhKup2II2IOdwCCLDxZBBorcKHYq9&#xA;B/ILUJ7H83PLzwn++me3kHYpNE6GvyrX6MUF9z4sXYq+MP8AnIb80L7zV5tudGtZ2Xy9o0zQQQIS&#xA;Emnj+GSdx+18VVTwXp9o4sgHk2KUy8vQ3Fzq0FjDK8SXrCG5EbFecJIZ1ahFRRa0PhmPq83hYpT7&#xA;g36XD4mWMO8vblVUUKoCqoooGwAGecEkmy+hAVsF2BK13REZ3IVFBZmOwAG5JwxBJoIJAFl5T5m8&#xA;96jqE7w2ErWtgpIXgSryD+ZmG4B8M7Xs/sfHiiDMcU/sHu/W8dr+1p5ZEQPDD7Sm35VSStLqYLEq&#xA;RExrv8RL7/PML2jAqHx/Q5ns+Tc/h+l6D+X3kbyb5h/MPUtE8waetzDqVgL+0mV3ikjngkEcio0b&#xA;L9tX5MDUbZndhZzPBR/hNOF25hEM1j+IW8p/NPyjF5S8/axoMAcWltKGs+Z5H0JUEsfxftUV6V9s&#xA;3LpwxTFL07/nHDQ5dV/NnSnVSYdNWa+uCOyxxlEP/I2RBigvtrFi7FX5sySPJI0kjFnclnY9SSak&#xA;4s1uKsn8jafepq9jqr27/o76y1oLkikZneB2CBu7Ab07beOa3tYE6add36Q7DsogamF/jYvW84F7&#xA;p2KpF53nkg8q6g8ZoxRYz/qySKjfg2bLsiAlqYA/igS67tWZjppkfiyA8hsrG7vbhbe0iaaZ+iIK&#xA;n5nwHuc7rLljjjxSNB4rFilklwxFl695Q8u/oPTPSkIa7mPqXDDoDSgUey5wvamu/MZLH0jl+t7X&#xA;s3Rfl8dH6jzZr+VqtJ+cWmKi1MGmXksp8EZkQH/gts3fs5E8Ez5um9oSOOA8is/5y38jSOmnedLR&#xA;KiICw1Og6KWLQSH/AGTMhPuozo3nQ+aMWT6l/wCcQfLlvFoGteY23ubq5FhHX9mKBFlan+u0wr/q&#xA;jFiX0Hih2Kvgv84PJlz5S/MDVdOeMrZzStd6c/ZradiyU8eG6H3GLIMLxS9a/LRb3zF+WnmXy5ag&#xA;yan5fng8y6NENyzQ1juUAG5rHSijqxyvJjE4mJ5EUyx5DCQkOYK+H8w/KzhOdy0bMAWDRyHiSOhI&#xA;U5xU+w9SLoX8Q9nHtrTnma+BTyy1CxvofWs50nj6Fo2BofA+B+ea3NgnjNTBiXYYs0MguBBCXa5r&#xA;XlyLlpupOszSgc7RUaVuoYcggNOx3zN0Oi1MyJ4hVdeTiavV4I/u8hu+nP7kJZ+a/JlmnpQSJZqd&#xA;/T9CSKtO/wBgA5fn7L1kjcgZf5wP6WnF2jpIConh/wA0j9CrJ530EjjZySX1wQeFvbxuzH7wAMjh&#xA;7E1MzRjwj8dzOfa2CvSTI9wBemf84y6BqN9cax591FPT+vj9HaXGDUCCJw0pB7r6iqoI7q2dhpNL&#xA;HBjEI9HkNZqZZshlL+wPbtZ0fTtZ0q70rUoRcWF7G0NxC37SMKHcbgjqCOhzJcR8Yfmf+Q/m3ybf&#xA;Tz2ttLqnl4ktb6hAhdo0rstwqiqMP5qcT49gsgWVf84t/mSuja3L5Pvg7WWtSiSxkQFhFd8eJDAf&#xA;syooHLsVHYkhUvrHFi7FWH/mX+WHl7z/AKL9Q1MGC7hq1hqMagywOetK05I1PiQnf2NCFbfGn5jf&#xA;ll5m8hastjrEQa3n5NY38VTDOinfiT0Zajkp3HyoSsmf/wDOJIn/AOVlXpj/ALsaTP63+r68FP8A&#xA;hqYqUy/Pf/nH2/069ufM/lC0NxpMxMt9pcC1ktnJqzxRr1hPXiv2PDj0VBYn5Mg0zS/LVxe208d1&#xA;cNGZ7oqfslELLGRsRx365xvassmbURhIGMbofE83r+zIY8WnM4kSlVn4dFDy1oGo60IbbThdavdX&#xA;CreajY2cBBeV6uguLokBIt1FOn051wyQxjgjvwjkP1teHs793HLmyCGOfqN85dfefczLU9BXy15r&#xA;ni1PUY7m6TTYpddcsot7e6mlZ0t0r0WOJVpyNTWvfJaUnxJGR3oX+p235yGXT8VcMOM8N9Ygcz7y&#xA;35S0qb8zNYn0LRJlstAtOD65qIKrM8TkgRW8f2v3nAguRQfg2RkyXsHmNf2kJAwx8upfUGlaXp+k&#xA;6bbaZp0K29jZxrDbwJ0VEFAN9z8z1yl0aKxV2KrViiR3dUVXkpzYAAtTpU98VXYq7FXYq8t/5yL8&#xA;mar5r8hRWmj2LX2qW19DNbxR8Q/Eq8b7sVAWj774pC38hvyfk8g6PcXWqMknmHVAn1oR0ZIIkqVh&#xA;V/2jU1cjYmgH2alUl6pih51+YP5UflPqUVxrWvwxaNLQ/WNXt5hZMeQNfUNRE7N/lqScBiDzZRkR&#xA;yfOeueX/AC/d38MH5fahq19b2pEf6avTFBDGqfCohdYo5pOI26L92HweM3TuNHl1k48MJEQ+xFw+&#xA;S9A0iwl1HWnfU5YA088sxZkLdSRESQSenxVrmRHDGAdpLSxjHjzE5DEdf0BJ5fPnmXSdbtvMPl+H&#xA;9C3y2TrFxAnea0kHwmWPiYlRSvIc+mx32yEzbp9dLxSDw8O3xI/Q9Y8if85RtLo8Ka/ol3cNYJHH&#xA;qesWrRyVJBBneHjFxrxqwWtMrALro4JSBkBYHN75peqafqunW+padOl1Y3aCW3uIzVXRhUEYGpFY&#xA;q7FUDZa7ol9d3FnZahbXV3aNxureGaOSSJh2kRSWU/PFUdirsVdirsVSHzz5z0nyb5bute1Tm1vb&#xA;0VIoxV5JXNEjXtVj3PTFXxD+Y35jeZvPWs/pLWHMdsOQ0+wQkQQx1pRAftNt8T9T8gAFnVIDyv5u&#xA;1LQLkNExls2P760Y/C3uv8re+ThMxczSa2eE7bx7no/mXXtO1fyFqF5YzBoyiK6nZ0YyKOLjsf15&#xA;fKQMdne6rUQy6aUon8WhvzKhmbStK0uBJX+sXMcIWBSzNxXiqLGCOTEn4Vr2yObk09sHhxRj5oe+&#xA;0i+8r2dprNh5fvtK0u2eOLVJ7y5R2ukkPAl7QV4NvsQaDKYyouk0mpOKYN7dR5Pbf+cZ/MFvNo+t&#xA;+XIphLb6Vdi500g7fU74GRFX/UkV+XgTQ4JDdhqYRjM8P09Pc9owOOxr8zNZvdF/L/X9VsZVhvbS&#xA;yle3lYV4ycaKR/lAn4ffFQ+IdQTV9EmsLiNZba8grNBqUMbQMzlRJzW45FpCCd9h7ZOQpzs+IwAB&#xA;Hxqr+PV9Rf8AK2PNH/Qvn+OPqq/p30vR58D6XL6z9W+tcKdKfHSlK+2QcKt3sOKHYq7FWE/nTomm&#xA;av8Alh5hh1AlYrWzlvYpFpyWa1QzR0rtuy8adwaYqHzxp3lbTNR8madp97EP950dJFoHjeQcyVb5&#xA;tv45liAMQHr8WkhPTxjIdHl3mfypqWgXXp3A9S2c/uLpRRHHgf5W9sxpwMXntXo54ZUeXQpZazTq&#xA;Wt0kZYrkqkyAkK4DhgGHswrkQ48JHl0L1X8zL6a0fRZLfe4t7hrxF/5hgHr9GZGbo7/treMR7z8n&#xA;rHn2yj1ryDq0UQ9RZrNp4AP2mjAmjp82QZQ8yHk//OMHmNtL/NC3sZHIt9YtprMgn4Q6j14z8+UX&#xA;Ef62BmX2Zixea/8AORGqRWf5W6lZ8wL3V5LewsYu8kkkyMyjr/utGOIZwiSaDwbzzpk2pLoHl+3h&#xA;LDUdQgtUmFPgLfu1AHieZ+45k5uT0fbJrFEVtb68+oWX1H6h6KfUvT9H6vT4PT48eFPCm2YzzKvi&#xA;rsVdirzv/nIHUGs/yn1pIzSe+9CyhHiZ50Vh/wAByxZRFmnlcMSxQxxL9mNQq/JRTM57yIoUxXU/&#xA;Nei3un3dpdWZu5HuZbO209fjknMRA9RaCqLX9rtTKzMEOuy6zHOJjIXuYiPfXXyQflL8vLTTP9ye&#xA;rBXul/eRwMQY4AN6sx2Zh49B+OCGKty1aPs2OP1z5/cwfzt5lOsa9JPbuRaQKYLYioqm4dv9nU/R&#xA;lOSVl1Gv1Xi5CR9I2H483uPk/wDMnyfB5E0kaxqtvDOlqtvPbFi8v7msPxRoGf4glem+RdcQ8P8A&#xA;K8k2l+YTrums00Xl+eK+jkAK80iuUpsafaSpoe1cQLcjHiMoyI/hH6X3frvmvQNC8vy+YNTu0g0q&#xA;OMS+ud+YcVQIOrM9fhA64HHfOuqa1q/nfzIvmjWYmtbG2Vk8v6Q5r6ETfamlHT1ZOvt9AzIxY+pe&#xA;k7L0Bj+8nz6D9KbflZok3m7z/ba1EnLy35Xd2F0fsXF+6cVSPxEIbkWHenjkMs7NOF2rqxkkIx5R&#xA;+99FZU6h2KuxV2KvH/8AnIy7Elp5U0UH4r3VlumUftR2UTMw+VZFyUBZDl6GHFmiPP7t3lGreZZ3&#xA;u20jQY1vNUG00p/uLYHblKw7/wCT/tZkmfQc3ps2qJlwYhxT+we9V8teUbDREaWv1jUZame8cAEl&#xA;jUhB+ytcMIAMtLoo4t+cjzKC1u4m17Uz5dsnKWcNG1m6Tsva3U/zN+1/tjIyPEaDVnkc0/Cj9I+o&#xA;/oYV+YHkq10Upf2MgWznfh9Vc1dGIJ+Cu7Lt8xlWTHW4dT2loBi9UfpPRheVOqZp5D1rQoLDUtI1&#xA;Glu+ooy/W2+wV4FQh8KVJBy3HIUQXa9n58YjKE9uLqzjRbjXfM+laNe+Zrkyado9tDBo+m1pAq28&#xA;YjFzKD9uRqV5HtksWPqXJ7M0AoZJ/D9afeWfLmt/mPfvZaTI1j5VgbhquuAENNv8UFnUUZj+03Qf&#xA;cGcmXoGHaHad+jHy6n9T6P0HQdJ0DSLXR9Jt1tdPs09OCFOgFakkncsxJLE7k75Q6FH4q7FXYq7F&#xA;XzH/AM5P+ZLmHzxptnaKzyafpUjJKnSGW/l9EsT2PCMU+YyUTTk6aZgTIc6+V7KGi6PZ6Rp8dnao&#xA;AqgepJ+1I9Pidj3JzLjGg9jgwRxREQgPM+tXFqIdM00CTWdQqlsvaNf2pn8FXBOXQc2jV5zGoQ/v&#xA;JcvLzReiaPa6Lpq26NyIrJdXL/akkO7yMT/nTDGNBt0+COKFfM/peQeePMza7rDPGx+o29Y7RfEV&#xA;+J6eLn8KZi5J2XmNfqvGybfSOSB0Ty3q2tC5NhF6n1VOb1NKkmgRa/tHcj5YIxJ5NODSzy3wjkls&#xA;kckcjRyKUkQlXRhQgjYgg5FoIINF6V5Mt/MOtabpPlu4kZbfXr6Cxs2/3atmDW6ceKKgoPavamW8&#xA;R4XZnPkjpqlykaHu6/B9p6Zpmn6Xp9vp2nQJa2Nqgit7eMUVEXoBlTqETirsVdirsVdir5r/ADJ0&#xA;+1u/zd8y2epRepHc2mnTWyNUViiSjFSDWglHbLsIBt3fY8IT44y35fj7kt1/XbLRdOkvbph8IpFF&#xA;X4pH7Kv+e2XylQd7qNRHFDikxz8ury31Y6hq87+prEsnCcHpHD1jSMdk/iMrxG9+rg9mTGTimfrv&#xA;5DpSH/NDzP8AU7IaPavS5u1rcsOqQ/y/N/1fPHLOtmHa2r4Y+GOZ5+79ryy3t5rmeOCBDJNKwSNF&#xA;6lmNABmMA85GJkaHMvePKvl+HQtHislo0x+O5kH7UjdfoHQe2ZkI0HstJphhxiPXr70Hd/l/pnm7&#xA;8w/L2jSlrQaml79cu4AvqUtoPUiJDbH49vGhyrMOTp+24RBjIDc3+h7d+Xf5KWflTVk1rUdVl1zV&#xA;7eE21jK8KW0NvEw4n0oUL0cr8Jbl0ykkl0+XPPJXEbp6VgaXYq7FXYq7FXYq8r/P7y15Ul8rT+a9&#xA;SkubPVtHhMenXdjIIp5HmPGO2aqvyRpGr0qNyO9SDTZjySibiaL581j8vr688urcS3E175gVUkb1&#xA;pCw6fHCgOw6/SR75fLGSPN6DP2bKWKyTLL5n7Et8q6x5b8r2skl3Hdxa56bJcW0iMgarBlAU/CKU&#xA;+0d+uRhIR97Ro8+LTi5cXidQwnU9RudRv5765blNO5dvAeAHsBsMqJs26nLlM5GR5l6D+Vnlalde&#xA;u061SxU/c0n/ABqPpy7DDq7rsjSf5SXw/W9JzId8jPy6iE/5z6RsCbTTb2fc7jmVir/w2Y2bmHne&#xA;3D6ojyfROUuidirsVdirsVdirsVeHfn5qjaj5s8t+VFNba0V9b1BOxKEw2tfk/PbLMYsuw7Mw8eY&#xA;XyG7G8y3r1C8sbK9hMN3BHcRH9iRQw/HARbGeOMxUhYY/wD8q38o/WfX+pmla+j6j+nX5Vr9FaZD&#xA;wouD/JeC7r7WSxRRxRrFEoSNAFRFFAANgABljsAABQXYqmP5VTwQ/nSouGCG60KaGyDAfHKtyksg&#xA;U+IjSvyzGzc3mu2wfEHdw/pL6Eyl0rsVdirsVdirsVdir5u83zm8/N7zZcMaraLY2UFeoVbcSOPp&#xA;d8vwdXoOw4/Ufd+lTzId+7FXYq04YowU8WIIVqVofGmKlisfmm+0wXljryp9ftoJLm0uEBWK6RFJ&#xA;ooPRxTcZVxkbF1w1csfFHJ9QFg9JftRM+p6nZ6doXnCKMDVNGeDUXijqA0bAfWIt6kK0ZNfbBkFx&#xA;tp1+I5dOJn6gL/W+r9N1C01LT7XULOQS2l5Ek9vIOjRyKGU/SDmM8uiMVdirsVdirsVdir5w862r&#xA;6d+cHmS3kHFdUhtNStK/tIIhbyn/AJGR5fgPN33Ycxco+5RzIehdirsVdirH/O3l5da0OWNF/wBM&#xA;twZbRu/ID4k/2Y2+7IZI2HC1+m8XGQPqHL8eaO0W+tNY0K3uFQehcxcZIuwNODp9BBGGJsN2DJHL&#xA;jB6EPUf+cdtaml8qXvlq6Yvc+WbtrWNyalrWastux+gstPADMOQo08dqcPh5DHuL1bA0OxV2KuxV&#xA;2KuxV5L+f3la6l02x856ZCZb/wAuljexJ9qXT5P78e5j+2PD4slGVG3J0mc4sgk8/tLq3u7aK5t3&#xA;EkEyh43HQgiuZgNvaQmJAEciq4WTsVdirsVYxon+4nzNf6MdrW+rqFh4AttMg+ncDwyuOxp1+D91&#xA;mlj6S9Q/S9P/AOcfVk/xd5+Y19MtpIXw5C3l5frGUZfqLoe1f8Yl8PuD23K3XOxV2KuxV2KuxVpl&#xA;V1KOAysKMp3BB6gjFXyz+YFjYflp57Okwlv8M6tF9ftY6EixaSVkeMf8Vcxt4V++3HkrY8ncdm6/&#xA;w/TL6PuTFHR0V0YMjAFWBqCDuCCMynpwbbxV2KuxVjnnW3ljs7fWrZa3Wjyi4AHVoT8MyfIrufll&#xA;eQde5wdfEiIyDnA38Or1D/nG4xXY83avCeUN3qEEUb77iG3Ujr7S5jTNl5nXZBPNKQ5PaMi4jsVd&#xA;irsVdirsVdirx/8A5yP8sC58v2PmqKD6w+gSML+ClfU0+6pHOCO/A8WHhucMTRb9PlEJgncdfc8Z&#xA;triTys8f7w3PlS6INvcVLtaF9wCdyYmrse368kHh/qvSRkdPXXCeR/m/sZfHJHJGskbB43AZHUgg&#xA;g7ggjLXaAgiwuxV2KrZI45Y3jkUNG4Kup6EEUIOKkAiiy/8A5xia10/RPMPlkbXum6m1w9erwXMS&#xA;CGT6RCQcwZCjTxGqwnHkMe57Rgcd2KuxV2KuxV2KuxVRvbO1vrOeyu4lmtbqN4biFt1eORSrqfYq&#xA;aYq+Pp4ZfIvmrU/Iuv8A73Skf/cfdSiqGCf4o+dduLg0P8rVGXY59C7vs3WgDw5/Qfx8l5W88oyG&#xA;SEPd+WHJZo1q8tny35L3aL9X67Pp9zsalpjY9WH7Y/sZVbXVvdW8dxbSLLBKOUciGoIywG3ZQmJC&#xA;xuFXCl2KqnkvVf8AD/5saLelitnr8b6PeDt6jfvLVqfzGReNfDMfMOrz3beHcT+D6Ryh0LsVdirs&#xA;VdirsVdirsVeQf8AOQvkFtX0q280WFl9d1DRgY76zVSz3OnSH97GAOrRE+ovhuetMINN2DIISsix&#xA;1Hk8Q8p+YbCDURoS3gvNNuFrpjyf3sf81tKDvt+zX+wZEJC6ei0epiJeGJcUD9P/ABJ/QjbqwvvL&#xA;FxJqGkRtcaNIS9/pineLuZYB+tf8wSOHccm2eOWnPFAXj6x7vMfj9kksL+01C0ju7SQS28oqjj9R&#xA;8CO4ywG3Px5IziJRNgojCzSPzfcGy0611VTxfS76zvEatCGjnUVrQ/zZVlHpdd2tG8B8iP1PrHMV&#xA;5F2KuxV2KuxV2KuxV2Ksd88efPL/AJM0c6lrEpq54WlnFRri4l7RwpUcjvv2HfFIBOwfNPmfTdV8&#xA;9apP5i1eGDRrxwTplnZoivCa8ke5nCiSaSo3r07U6ZfHD3u+03ZB4bkal08kT5Y1uTUbaS3vF9LV&#xA;rFvRv4P8odHX/JfqMthK/e7bSagzFS2nHY/jzSu+hfyrqR1S1H+4O9kA1K2HSCRjQTxjsK/aH9lI&#xA;n0m+jj5I/l58cf7uX1Du8wy4EEAg1B3BGWuyY9+YAB8n6lUV+BP+Ti5Xk+kuF2l/cS/HV9bZiPGu&#xA;xV2KuxV2KuxV2KrLi4ht4JLidxHBCjSSyMaKqKKsxPgAMVfLX6UufOPmG7856mC6zyPFoVs9SttZ&#xA;IxVOKno8n2mP9cyMUOr0vZOjAj4khueSZkgAkmgG5Jy93SR6V5K84eal1Lz55ZiX6vplLaxtSpD6&#xA;okTH6xxNR9nomxqRTqMxZZPVYeX1HaFZ+OHIbe9XstR0jzDp00FOSurQ3tlJVJYz9lkddmUg98vB&#xA;Eg7/ABZseohtuDzCZQQxwQxwxikcShEFSaKooNzknIjEAUEk87QG70QacoJfULq1tYwOpaSdNhsf&#xA;DIZfpcDtWVYD51976zzEeQdirsVdirsVdirsVecfn/rs2m/l1c2Fq/C+8wTRaRbEeFyf31fb0Vcf&#xA;ThAtsxQM5CI6l5ZaW0Vraw20I4xQIscY8FUUGZoFPcwgIgAcghY9H1Dzj5kg8m6W7RRyKJ9evl/4&#xA;97OoqoP+/JfsqP4ZTln0dP2treEeHHmeb6Z0nStP0jTLXTNOhW3sbONYbeFOiogoPmfE98x3mmI+&#xA;dvyb8m+a7k6jLFJpmuU+HV9Pb0ZyR09TYpJ0H2hWmwIxBpnDJKJsGi851D8nvzW0kkabe6f5jtVH&#xA;w+vysbs+23OE/MtlozF2mLtnLHaVSVfKn5U+fNS816TqPmiyt9J0fRbhL5bZLhbmae5iBMNDGOCo&#xA;r7mvy+Qnk4mrW9onOAKoPesrda7FXYq7FXYq7FXYq8J/PHUDf/mL5e0UGsOk2U+qTr2Mlw3oRV91&#xA;9MkfPLMQuTtOyMXFmv8Am7sO13VX0+1QW8RudRu3W306zQVeaeQ0RQBv165kTlQeh1mpGGHEefR7&#xA;l+VH5ep5M8uelcsLjXtRb61rd4N+c56Ip/kiB4r9J75hk28bkmZyJPMs1xYOxV2KuxV2KuxV2Kux&#xA;V2KuxV2KvmTzLqcF5+ZXnTWZZB9VtJorBJSfhRbKECYVH+XUnL8PIl6HsaIjCUzyZZ+R3kybV9QP&#xA;5hazCViKtD5XtJBukB2e7IPR5ei/5PiOJyucuIur12rOad/wjk9vyDhOxV2KuxV2KuxV2KuxV2Ku&#xA;xV2KvPfzc/M1PKmnJpek0ufNuqq0emWoofSB2NzMD9lE6iv2j7A0IFtmLFLJIRjzLxXyD5El8267&#xA;H5Y9R5tC0txeebNRq3K5uHbmLbn15SP9reoA61G9kzQ4Q7PW5RigMEDy+rzL6pgghghjggRYoYlC&#xA;RRoAqqqiiqoHQAZU6hfirsVdirsVdirsVdirsVdirsVYv+Z/mu48p+Q9Y1+2jEt1aRKtsjCo9aeR&#xA;YIyR3CvICRikC3zZfRX+nW9xqc8r6p5x1yVLcXT7vLdXB4xxxg7Ki9lFBQfKmTQgPN6bwo6PCZfx&#xA;na/N9Lfl15JsvJvlSz0W3o86j1dQuf2p7qQAyysTuanYV6KAMxnmSbNslxQ7FXYq7FXYq7FXYq7F&#xA;XYq7FXYq8u/5yO1O2h/LafSOVdR1u6tLbToRuWeO5jnY068VWI1PuPHCGzFEykAObC/yq0M+ZfzN&#xA;fUpV5aV5Rjqld1fUbkEL12PpRgnxVqeOWZpWadp2xqOLJwDlH730LlTp3Yq7FXYq7FXYq7FXYq7F&#xA;XYq7FXYq+d/+cgbq5sPzJ0m9nt5rm3OjyR6LCiNIGv8A13Mqqqgnk0bR1Phk4SANuf2fnhikZS5g&#xA;be96l+Tvk+Xyt5FsrW7Tjq98W1DVmIoxurn4mVvdF4p9GQcKcjIknqzbFi7FXYq7FXYq7FXYq7FX&#xA;Yq7FX//Z</xmpGImg:image>
               </rdf:li>
            </rdf:Alt>
         </xmp:Thumbnails>
      </rdf:Description>
      <rdf:Description rdf:about=""
            xmlns:xmpMM="http://ns.adobe.com/xap/1.0/mm/"
            xmlns:stRef="http://ns.adobe.com/xap/1.0/sType/ResourceRef#"
            xmlns:stEvt="http://ns.adobe.com/xap/1.0/sType/ResourceEvent#">
         <xmpMM:InstanceID>xmp.iid:FF7F117407206811822A9DD448A483FF</xmpMM:InstanceID>
         <xmpMM:DocumentID>xmp.did:FF7F117407206811822A9DD448A483FF</xmpMM:DocumentID>
         <xmpMM:OriginalDocumentID>uuid:5D20892493BFDB11914A8590D31508C8</xmpMM:OriginalDocumentID>
         <xmpMM:RenditionClass>proof:pdf</xmpMM:RenditionClass>
         <xmpMM:DerivedFrom rdf:parseType="Resource">
            <stRef:instanceID>uuid:ba5dc92b-6d0a-484a-ab90-b9370a4a0965</stRef:instanceID>
            <stRef:documentID>xmp.did:0980117407206811822A897E387FE54C</stRef:documentID>
            <stRef:originalDocumentID>uuid:5D20892493BFDB11914A8590D31508C8</stRef:originalDocumentID>
            <stRef:renditionClass>proof:pdf</stRef:renditionClass>
         </xmpMM:DerivedFrom>
         <xmpMM:History>
            <rdf:Seq>
               <rdf:li rdf:parseType="Resource">
                  <stEvt:action>saved</stEvt:action>
                  <stEvt:instanceID>xmp.iid:FF7F117407206811822A9DD448A483FF</stEvt:instanceID>
                  <stEvt:when>2018-09-05T11:35:22-03:00</stEvt:when>
                  <stEvt:softwareAgent>Adobe Illustrator CS6 (Macintosh)</stEvt:softwareAgent>
                  <stEvt:changed>/</stEvt:changed>
               </rdf:li>
            </rdf:Seq>
         </xmpMM:History>
      </rdf:Description>
      <rdf:Description rdf:about=""
            xmlns:illustrator="http://ns.adobe.com/illustrator/1.0/">
         <illustrator:StartupProfile>Print</illustrator:StartupProfile>
      </rdf:Description>
      <rdf:Description rdf:about=""
            xmlns:xmpTPg="http://ns.adobe.com/xap/1.0/t/pg/"
            xmlns:stDim="http://ns.adobe.com/xap/1.0/sType/Dimensions#"
            xmlns:xmpG="http://ns.adobe.com/xap/1.0/g/">
         <xmpTPg:HasVisibleOverprint>False</xmpTPg:HasVisibleOverprint>
         <xmpTPg:HasVisibleTransparency>False</xmpTPg:HasVisibleTransparency>
         <xmpTPg:NPages>1</xmpTPg:NPages>
         <xmpTPg:MaxPageSize rdf:parseType="Resource">
            <stDim:w>21.000131</stDim:w>
            <stDim:h>29.700013</stDim:h>
            <stDim:unit>Centimeters</stDim:unit>
         </xmpTPg:MaxPageSize>
         <xmpTPg:PlateNames>
            <rdf:Seq>
               <rdf:li>Cyan</rdf:li>
               <rdf:li>Magenta</rdf:li>
               <rdf:li>Yellow</rdf:li>
               <rdf:li>Black</rdf:li>
            </rdf:Seq>
         </xmpTPg:PlateNames>
         <xmpTPg:SwatchGroups>
            <rdf:Seq>
               <rdf:li rdf:parseType="Resource">
                  <xmpG:groupName>Default Swatch Group</xmpG:groupName>
                  <xmpG:groupType>0</xmpG:groupType>
               </rdf:li>
            </rdf:Seq>
         </xmpTPg:SwatchGroups>
      </rdf:Description>
      <rdf:Description rdf:about=""
            xmlns:pdf="http://ns.adobe.com/pdf/1.3/">
         <pdf:Producer>Adobe PDF library 10.01</pdf:Producer>
      </rdf:Description>
   </rdf:RDF>
</x:xmpmeta>
                                                                                                    
                                                                                                    
                                                                                                    
                                                                                                    
                                                                                                    
                                                                                                    
                                                                                                    
                                                                                                    
                                                                                                    
                                                                                                    
                                                                                                    
                                                                                                    
                                                                                                    
                                                                                                    
                                                                                                    
                                                                                                    
                                                                                                    
                                                                                                    
                                                                                                    
                                                                                                    
                           
<?xpacket end="w"?>
	</metadata>
<g>
	<path fill="#D4732B" d="M12.235-116.642c8.189,11.887,5.224,28.143-6.625,36.305c-11.848,8.164-28.093,5.145-36.283-6.742
		s-5.224-28.141,6.625-36.304C-12.2-131.546,4.046-128.528,12.235-116.642"/>
	<path fill="#CF75A8" d="M-26.552-16.341c0,0-2.619-4.929-1.722-8.137c0.897-3.207,6.433-35.765,6.433-35.765l1.072-3.329
		l5.518-6.65l9.002-3.095l1.162-1.319L5.76-80.439l3.111,5.769l4.582,1.763c0,0,7.488-1.533,9.144,6.13
		c1.655,7.665,7.419,28.811,7.419,28.811l8.581-7.467l6.712-9.803l0.629-9.236l2.52-5.363l3.438,0.48l3.419,3.082l2.045,2.217
		l-1.678,2.451l-1.085,2.559l-2.571,9.799c0,0-0.952,3.505-3.992,5.857c-3.038,2.354-10.028,9.499-10.028,9.499
		s-1.623,2.154-1.949,3.935c-0.329,1.779-2.115,4.823-2.817,5.308c-0.702,0.483-3.887,1.123-3.887,1.123l-1.145-1.283
		c0,0-0.115,1.463-1.531,1.662c-1.417,0.199-1.854,20.164-1.854,20.164l7.918,19.33l-0.275,8.996l-1.701,12.564l6.178,17.236
		c0.113,3.547,0.137,16.736,0.137,16.736S35.98,81.187,34.52,82.45s-3.117,1.113-3.117,1.113s-13.049-2.402-15.379-3.906
		c-2.33-1.502-7.388-7.34-7.388-7.34l-30.751,42.939l-10.354,22.93l-3.075,0.047c0,0-2.177-3.16-0.785-4.896
		c1.393-1.738,3.706-5.143,3.706-5.143s-1.491-8.555,0.846-10.424c2.337-1.869,10.392-8.973,10.981-13.004
		c0.588-4.031,6.694-26.363,7.791-28.154c1.096-1.793,1.818-4.879,1.818-4.879l12.104-9.115l-7.383-3.201l-6.229-12.799
		c0,0-6.26-10.965-5.449-12.041c0.812-1.078,0.235-3,0.235-3s-8.554-10.682-9.471-16.223c-1.159-6.992,0.393-16.766,0.393-16.766
		l3.248-8.492l1.997-5.357C-21.743-15.261-23.496-13.786-26.552-16.341"/>
	<polygon fill="#231F20" points="-13.929,-10.798 -10.585,-16.467 -13.016,-20.747 -17.328,-16.481 	"/>
	<path fill="#231F20" d="M-22.927-57.682l1.576-5.229C-21.351-62.911-26.204-63.192-22.927-57.682"/>
	<path fill="#231F20" d="M-23.251-63.414c0,0,2.186-0.211,4.757,1.642c2.572,1.854,15.277,12.779,15.277,12.779l4.27-3.2
		l0.336-5.151l-11.455-10.235l-5.943-1.861l-1.877,1.034L-23.251-63.414z"/>
	<polygon fill="#231F20" points="3.852,-43.245 26.924,-23.665 32.387,-30.019 17.327,-43.984 13.779,-43.869 12.655,-47.757 
		8.335,-51.771 	"/>
	<path fill="#231F20" d="M-9.898-10.208c0,0,2.802,1.436,4.602-0.838c1.799-2.275,15.877-25.441,15.877-25.441l6.353,5.463
		L4.182-10.069c0,0-1.545,3.396-5.752,2.928C-5.777-7.608-9.898-10.208-9.898-10.208"/>
	<path fill="#231F20" d="M17.327-43.984l4.776-0.96L19.526-62.59c0,0,4.496,3.895,5.565,8.077c1.069,4.184-0.003,7.512-0.003,7.512
		l-3.023,7.263L17.327-43.984z"/>
	<polygon fill="#C2C4C6" points="13.779,-43.869 9.653,-62.262 11.375,-65.778 14.402,-68.899 17.928,-66.41 18.557,-63.994 
		22.103,-44.944 	"/>
	<path fill="#231F20" d="M-41.522-71.992c0,0,4.151-2.412,5.428-5.752c1.278-3.339,0.59-8.231,0.59-8.231l-3.11-9.708l4.414-5.276
		c0,0-0.907-5.86-0.243-5.87c0.664-0.01,1.02-3.386,1.02-3.386s-11.819-13.587-20.982,1.67c-9.164,15.258,8.494,26.61,8.494,26.61
		l3.542,4.492L-41.522-71.992z"/>
	<path fill="#231F20" d="M5.406-122.658l8.295,8.146l7.704,2.743l1.338,0.643c0,0,1.554,8.098,4.859,13.869
		c3.307,5.771,7.926,7.284,7.926,7.284l5.132,1.606l3.424,0.101L39.78-95.81l0.613-3.328c0,0,3.699-8.586,3.723-13.745
		s-2.208-17.483-11.128-22.966C24.069-141.329,6.385-138.761,5.406-122.658"/>
	<path fill="#CF75A8" d="M-14.365-76.036c0,0-0.14-9.213,3.213-11.1c3.354-1.888,9.547-1.499,12.161-1.185
		c2.614,0.315,9.278-0.044,11.448-1.399s4.385-3.869,4.385-3.869S5.828-71.997-14.365-76.036"/>
	<path fill="#231F20" d="M-17.422-15.86c-1.734,1.195-3.434,1.617-4.729,1.734c-2.094,0.189-3.606-0.359-3.668-0.383
		c-0.069-0.025-0.133-0.059-0.193-0.1c-4.337-2.969-3.156-9.838-3.103-10.129c0.044-0.226,4.195-21.53,5.515-32.626
		c0.278-2.342,0.848-4.477,1.696-6.346c0.202-0.446,0.727-0.643,1.173-0.441s0.643,0.727,0.442,1.173
		c-0.772,1.704-1.295,3.664-1.551,5.824c-1.328,11.162-5.491,32.53-5.533,32.744c-0.009,0.047-1.008,5.906,2.265,8.271
		c0.723,0.227,5.103,1.354,8.809-3.166c2.64-3.219,20.076-26.119,20.88-27.174c0.269-0.443,3.036-5.074,3.489-8.729
		c0.49-3.946,0.234-9.053,0.231-9.104c-0.013-0.25,0.08-0.493,0.257-0.671l5.613-5.647c0.024-0.114,0.053-0.269,0.08-0.449
		L9.8-67.045c-0.361,0.326-0.924,0.301-1.252-0.062c-0.328-0.362-0.301-0.923,0.062-1.251l5.927-5.367
		c0.238-0.215,0.57-0.284,0.872-0.185c0.303,0.101,0.529,0.354,0.592,0.667c0.302,1.499-0.144,3.214-0.163,3.287
		c-0.039,0.149-0.117,0.286-0.229,0.396l-5.518,5.552c0.052,1.303,0.174,5.524-0.258,9.019c-0.523,4.213-3.634,9.267-3.766,9.479
		c-0.014,0.024-0.031,0.047-0.049,0.07c-0.742,0.977-18.236,23.956-20.946,27.26C-15.739-17.192-16.585-16.437-17.422-15.86"/>
	<path fill="#231F20" d="M-3.36-74.997c-0.028,0.02-0.056,0.037-0.087,0.054l-9.807,5.201c-0.061,0.033-0.125,0.058-0.191,0.074
		c-0.002,0.001-0.532,0.146-1.314,0.557c-0.434,0.229-0.969,0.062-1.196-0.371c-0.229-0.433-0.059-0.971,0.372-1.196
		c0.77-0.406,1.345-0.6,1.581-0.672l9.723-5.158c0.434-0.229,0.97-0.064,1.199,0.366C-2.866-75.74-2.993-75.249-3.36-74.997"/>
	<path fill="#231F20" d="M-23.74-24.253c-0.104,0.072-0.226,0.122-0.358,0.145c-0.482,0.079-0.938-0.248-1.018-0.73
		c-0.047-0.288-1.114-7.101,3.375-10.428c3.755-2.783,20.15-15.917,22.634-17.909l0.621-15.418c0.002-0.498,0.1-4.064,2.483-4.9
		c1.896-0.665,8.798-3.066,8.798-3.066l0.583,1.673c0,0-6.899,2.401-8.794,3.065c-0.984,0.344-1.301,2.336-1.299,3.246
		c0,0.012,0,0.024-0.001,0.037L2.648-52.702c-0.011,0.256-0.13,0.495-0.33,0.656C2.13-51.895-16.613-36.861-20.685-33.843
		c-3.629,2.69-2.692,8.657-2.683,8.717C-23.312-24.776-23.467-24.442-23.74-24.253"/>
	<path fill="#231F20" d="M14.553-72.665c-0.058,0.039-0.121,0.072-0.188,0.098L7.421-69.92c-0.457,0.175-0.969-0.054-1.145-0.512
		c-0.172-0.457,0.057-0.968,0.514-1.143l6.945-2.646c0.457-0.175,0.968,0.054,1.142,0.512C15.026-73.32,14.881-72.891,14.553-72.665
		"/>
	<path fill="#231F20" d="M-12.365-40.646c-0.177,0.122-0.396,0.18-0.625,0.147c-0.484-0.067-0.823-0.515-0.754-1l0.792-5.678
		c0.068-0.485,0.516-0.823,1-0.755c0.484,0.068,0.82,0.515,0.754,1l-0.793,5.678C-12.025-40.997-12.167-40.782-12.365-40.646"/>
	<path fill="#231F20" d="M19.169-64.176c-0.095,0.066-0.204,0.115-0.325,0.139l-9.316,1.905c-0.48,0.097-0.948-0.212-1.046-0.691
		c-0.099-0.479,0.212-0.947,0.689-1.046l9.318-1.904c0.479-0.098,0.947,0.212,1.045,0.69C19.608-64.723,19.454-64.371,19.169-64.176
		"/>
	
		<rect x="11.065" y="-74.931" transform="matrix(0.9798 -0.2001 0.2001 0.9798 14.8028 0.9721)" fill="#231F20" width="2.288" height="4.403"/>
	<path fill="#231F20" d="M23.107-44.487c-0.097,0.066-0.206,0.114-0.325,0.138l-9.152,1.871c-0.417,0.085-0.837-0.141-0.998-0.536
		c-0.137-0.336-0.24-0.673-0.306-1.003L8.481-62.824c-0.453-2.222,0.461-4.49,2.328-5.777c0.625-0.431,1.321-0.726,2.07-0.879
		c3.047-0.622,6.032,1.351,6.656,4.398l3.844,18.808c0.067,0.333,0.104,0.684,0.111,1.042
		C23.495-44.928,23.346-44.652,23.107-44.487 M14.06-44.375l7.581-1.549l-3.843-18.802c-0.427-2.091-2.476-3.444-4.567-3.017
		c-0.512,0.104-0.99,0.308-1.418,0.603c-1.281,0.883-1.908,2.438-1.598,3.964L14.06-44.375z"/>
	<path fill="#231F20" d="M9.889-74.157c-0.008,0.004-0.012,0.008-0.02,0.013c-0.408,0.268-0.959,0.152-1.225-0.258l-3.626-5.553
		c-0.269-0.409-0.146-0.965,0.257-1.226c0.41-0.269,0.958-0.153,1.227,0.257l3.625,5.553C10.391-74.968,10.284-74.429,9.889-74.157"
		/>
	<path fill="#231F20" d="M30.925-37.106c-0.086,0.059-0.184,0.104-0.291,0.131c-0.474,0.116-0.953-0.173-1.07-0.647
		c-0.059-0.232-5.745-23.246-7.953-29.498c-1.931-5.473-5.436-4.74-5.584-4.706c-0.473,0.108-0.949-0.184-1.062-0.656
		s0.171-0.947,0.643-1.064c0.052-0.013,5.189-1.206,7.677,5.837c2.235,6.333,7.767,28.713,8.001,29.662
		C31.372-37.681,31.219-37.31,30.925-37.106"/>
	<path fill="#231F20" d="M29.759-33.523c-0.188,0.128-0.423,0.186-0.664,0.141c-0.481-0.088-0.799-0.55-0.711-1.031
		c0.029-0.152,0.727-3.762,4.096-6.764c7.266-6.472,11.695-11.594,12.146-14.052c0.631-3.415,0.805-7.057,0.836-7.803
		c-0.116-0.442-0.329-1.582,0.261-2.538c0.286-0.46,0.866-1.045,2.027-1.208c0.03-0.004,0.06-0.007,0.091-0.009
		c1.051-0.038,2.353-0.129,2.615-0.204c0.555-0.16,1.506-0.07,2.248,0.411c0.591,0.382,0.951,0.937,1.045,1.603
		c0.059,0.416,0.045,1.453-1.338,2.089c-0.568,0.261-1.139,0.347-1.202,0.355c-0.035,0.005-0.073,0.009-0.108,0.009l-1.904,0.03
		c-0.49,0.007-0.893-0.383-0.902-0.873c-0.007-0.489,0.385-0.892,0.873-0.899l1.843-0.028c0.457-0.077,0.928-0.3,0.988-0.43
		c-0.017-0.102-0.056-0.229-0.233-0.353c-0.297-0.205-0.713-0.233-0.822-0.21c-0.572,0.165-2.371,0.246-2.988,0.27
		c-0.545,0.086-0.68,0.305-0.725,0.378c-0.238,0.387-0.089,1.067-0.039,1.215c0.035,0.1,0.051,0.205,0.047,0.311
		c-0.006,0.172-0.143,4.267-0.867,8.206c-0.679,3.69-7.288,10.223-12.713,15.055c-2.922,2.601-3.523,5.729-3.531,5.761
		C30.082-33.852,29.944-33.652,29.759-33.523"/>
	<path fill="#231F20" d="M27.528-22.789c-0.319,0.22-0.757,0.21-1.069-0.05c-0.106-0.089-10.745-8.963-23.478-19.787
		c-0.373-0.316-0.417-0.875-0.101-1.249c0.318-0.374,0.877-0.418,1.249-0.101c12.725,10.817,23.357,19.687,23.464,19.775
		c0.376,0.312,0.427,0.872,0.113,1.247C27.653-22.889,27.594-22.835,27.528-22.789"/>
	<path fill="#231F20" d="M-2.421-48.202c-0.321,0.222-0.764,0.21-1.074-0.055c-8.549-7.266-13.25-11.283-13.976-11.942
		c-1.607-1.456-4.137-2.492-5.525-2.26c-0.522,0.088-0.706,0.321-0.799,0.488c-0.622,1.129,0.884,3.245,1.711,4.094
		c0.341,0.351,0.333,0.912-0.017,1.252c-0.351,0.344-0.911,0.334-1.253-0.016c-0.033-0.035-0.829-0.856-1.481-1.963
		c-1.212-2.056-0.947-3.432-0.51-4.223c0.413-0.748,1.124-1.225,2.059-1.381c2.212-0.368,5.26,1.113,7.006,2.695
		c0.712,0.646,5.4,4.652,13.933,11.905c0.373,0.317,0.418,0.876,0.102,1.249C-2.3-48.297-2.359-48.244-2.421-48.202"/>
	<path fill="#231F20" d="M2.43-56.208c-0.322,0.221-0.766,0.21-1.077-0.054c-7.044-5.983-11.13-9.604-11.838-10.246
		c-2.094-1.897-5.148-2.602-6.551-1.505c-2.162,1.698-6.112,5.474-6.153,5.511c-0.357,0.339-0.914,0.326-1.252-0.028
		c-0.338-0.353-0.325-0.915,0.029-1.253c0.164-0.157,4.053-3.873,6.281-5.623c2.355-1.848,6.414-0.612,8.836,1.583
		c0.704,0.639,4.771,4.24,11.797,10.21c0.372,0.316,0.418,0.876,0.101,1.248C2.551-56.304,2.491-56.251,2.43-56.208"/>
	<path fill="#231F20" d="M12.716-47.467c-0.321,0.222-0.764,0.21-1.076-0.055c-1.631-1.383-2.059-1.759-2.192-2.038
		c-0.163-0.154-0.569-0.516-1.565-1.362C7.51-51.238,7.463-51.797,7.78-52.17c0.319-0.374,0.877-0.418,1.25-0.101
		c1.48,1.257,1.895,1.615,2.029,1.899c0.18,0.17,0.639,0.577,1.728,1.499c0.373,0.316,0.419,0.876,0.103,1.249
		C12.838-47.563,12.779-47.511,12.716-47.467"/>
	<path fill="#231F20" d="M27.528-22.789c-0.315,0.217-0.748,0.211-1.061-0.042c-0.379-0.308-0.438-0.866-0.129-1.246l5.341-6.586
		c-1.898-1.553-7.593-6.231-15.222-12.699c-0.373-0.316-0.42-0.875-0.102-1.248c0.316-0.374,0.875-0.419,1.248-0.103
		c9.371,7.945,15.814,13.184,15.879,13.235c0.381,0.309,0.438,0.865,0.131,1.245l-5.898,7.271
		C27.659-22.894,27.596-22.837,27.528-22.789"/>
	<path fill="#231F20" d="M33.546-23.081c-0.062,0.042-0.125,0.084-0.188,0.123c-1.368,0.862-2.513,1.158-3.498,0.906
		c-1.159-0.297-1.696-1.258-1.981-1.774c-0.037-0.065-0.085-0.151-0.115-0.198c-0.32-0.305-0.367-0.81-0.094-1.172
		c0.295-0.392,0.85-0.47,1.24-0.176c0.233,0.176,0.364,0.41,0.517,0.684c0.256,0.46,0.483,0.82,0.872,0.92
		c0.331,0.085,0.968,0.034,2.115-0.688c1.477-0.925,1.958-2.722,2.52-4.801c0.617-2.282,1.317-4.871,3.576-6.67
		c4.408-3.508,11.725-10.743,12.799-13.55c1.178-3.083,2.605-10.799,2.621-10.877c0.008-0.045,0.02-0.088,0.033-0.13
		c0.078-0.231,0.723-2.306-1.004-2.961c-0.457-0.173-0.688-0.684-0.516-1.142c0.174-0.457,0.685-0.688,1.143-0.514
		c2.653,1.005,2.525,3.755,2.074,5.132c-0.15,0.804-1.507,8.009-2.698,11.126c-1.327,3.473-9.396,11.158-13.349,14.303
		c-1.805,1.436-2.396,3.626-2.969,5.745C36.057-26.631,35.454-24.396,33.546-23.081"/>
	<path fill="#231F20" d="M52.549-54.145c-0.3,0.207-0.711,0.214-1.023-0.013c-0.395-0.289-0.482-0.844-0.194-1.239
		c1.16-1.593,1.612-3.075,1.342-4.402c-0.371-1.83-2.021-2.84-2.039-2.849c-0.417-0.252-0.556-0.794-0.308-1.213
		c0.25-0.42,0.788-0.561,1.208-0.313c0.096,0.055,2.329,1.392,2.87,3.997c0.386,1.844-0.169,3.802-1.641,5.824
		C52.702-54.27,52.63-54.201,52.549-54.145"/>
	<path fill="#231F20" d="M53.165-65.048c-0.199,0.137-0.455,0.193-0.708,0.132c-0.477-0.115-0.771-0.593-0.656-1.068
		c0.015-0.064,0.366-1.694-0.868-2.435c-0.926-0.556-1.514-0.52-1.77-0.456l-2.233,3.748c-0.251,0.42-0.795,0.557-1.215,0.307
		c-0.421-0.25-0.559-0.794-0.308-1.214l2.381-3.994c0.066-0.109,0.154-0.203,0.26-0.275v-0.001c0.15-0.104,1.549-0.983,3.798,0.366
		c2.353,1.414,1.708,4.246,1.679,4.366C53.47-65.351,53.34-65.169,53.165-65.048"/>
	<path fill="#231F20" d="M55.3-62.883c-0.229,0.157-0.525,0.206-0.805,0.104c-0.46-0.167-0.699-0.675-0.531-1.135
		c0.393-1.084,0.404-2.002,0.035-2.729c-0.562-1.109-1.861-1.5-1.873-1.504c-0.469-0.137-0.74-0.626-0.607-1.094
		c0.136-0.469,0.619-0.742,1.088-0.61c0.082,0.022,2.035,0.587,2.961,2.385c0.61,1.184,0.631,2.582,0.061,4.155
		C55.563-63.13,55.446-62.984,55.3-62.883"/>
	<path fill="#231F20" d="M56.307-60.798L56.307-60.798c-0.404,0.278-0.954,0.176-1.232-0.227c-0.276-0.402-0.176-0.95,0.223-1.229
		c0.027-0.019,0.871-0.636,0.875-1.449c0-0.79-0.814-1.54-1.496-2.03c-0.398-0.284-0.49-0.839-0.205-1.236s0.839-0.488,1.237-0.203
		c1.493,1.071,2.245,2.248,2.235,3.494C57.927-61.933,56.374-60.844,56.307-60.798"/>
	<path fill="#231F20" d="M-24.198-28.644c-0.013,0.01-0.026,0.018-0.04,0.026l-2.855,1.753c-0.418,0.257-0.963,0.127-1.219-0.29
		c-0.255-0.417-0.124-0.962,0.292-1.219l2.855-1.754c0.417-0.256,0.963-0.126,1.219,0.292
		C-23.698-29.433-23.813-28.909-24.198-28.644"/>
	<path fill="#231F20" d="M-9.281-14.753c-0.025,0.018-0.054,0.033-0.082,0.051c-0.43,0.232-0.967,0.07-1.201-0.359l-3.116-5.766
		c-0.233-0.43-0.076-0.966,0.358-1.201c0.43-0.232,0.967-0.071,1.201,0.359l3.115,5.766C-8.787-15.503-8.911-15.007-9.281-14.753"/>
	<path fill="#231F20" d="M20.966,71.987c-0.096,0.064-0.207,0.113-0.329,0.139c-0.48,0.094-0.948-0.219-1.042-0.699
		C18.667,66.728,9.074,58.185,1.368,51.321c-3.26-2.902-6.34-5.646-8.688-7.992c-1.295-1.295-2.668-2.609-3.994-3.883
		c-7.369-7.068-14.99-14.379-17.721-25.031c-3.222-12.564,6.008-28.789,6.402-29.475c0.246-0.424,0.787-0.569,1.209-0.324
		c0.425,0.244,0.571,0.785,0.326,1.209c-0.093,0.162-9.265,16.289-6.223,28.15c2.606,10.162,10.042,17.297,17.231,24.193
		c1.334,1.279,2.713,2.602,4.021,3.906c2.313,2.311,5.374,5.037,8.614,7.924c8.724,7.766,17.742,15.799,18.787,21.086
		C21.403,71.442,21.249,71.792,20.966,71.987"/>
	<path fill="#231F20" d="M1.083,62.372c-0.193,0.133-0.436,0.189-0.684,0.139c-0.562-0.117-5.547-1.191-7.08-2.73
		c-1.519-1.525-10.603-19.439-12.001-23.664c-1.091-3.299-0.804-4.193-0.333-4.67c0.362-0.365,0.833-0.385,1.128-0.291
		c0.466,0.148,0.723,0.646,0.573,1.113c-0.062,0.199-0.184,0.359-0.35,0.467c0.005,0.33,0.101,1.123,0.665,2.824
		c1.405,4.248,10.402,21.793,11.574,22.971c0.875,0.877,4.26,1.844,6.186,2.246c0.479,0.1,0.787,0.568,0.687,1.047
		C1.399,62.056,1.262,62.247,1.083,62.372"/>
	<path fill="#231F20" d="M34.609,83.839c-0.506,0.35-1.126,0.6-1.856,0.752c-5.303,1.1-15.606-3.334-19.45-6.115
		C8.404,74.931-1.156,60.024-2.343,58.026c-0.844-1.416-2.68-3.064-4.455-4.66c-0.897-0.805-1.745-1.566-2.461-2.293
		c-2.152-2.186-5.229-6.336-5.357-6.512c-0.291-0.393-0.208-0.947,0.186-1.24c0.391-0.285,0.948-0.207,1.238,0.186
		c0.032,0.043,3.131,4.227,5.195,6.322c0.678,0.688,1.507,1.432,2.383,2.219c1.875,1.684,3.813,3.426,4.793,5.072
		c1.903,3.199,10.865,16.811,15.162,19.92c3.609,2.613,13.479,6.766,18.053,5.818c0.854-0.178,1.439-0.527,1.742-1.037
		c2.32-3.912,2.885-20.055,1.01-28.787c-1.801-8.381-15.049-37.789-15.182-38.084c-0.041-0.092-3.689-8.309-8.194-10.793
		c-0.43-0.236-0.585-0.773-0.349-1.203c0.236-0.428,0.773-0.584,1.203-0.348c5.033,2.775,8.801,11.264,8.957,11.625
		c0.545,1.205,13.457,29.867,15.297,38.43c0.9,4.189,1.316,10.363,1.116,16.516c-0.099,3.059-0.526,10.498-2.334,13.549
		C35.396,83.167,35.046,83.538,34.609,83.839"/>
	<path fill="#231F20" d="M-32.077,138.767c-0.775,0.535-2.029,0.787-2.824,0.898c-0.333,0.047-0.664-0.098-0.853-0.375
		c-0.106-0.154-2.589-3.822-0.823-7.025c0.373-0.676,0.739-1.277,1.096-1.859c1.065-1.746,1.837-3.006,1.718-4.578l-0.026-0.348
		c-0.205-2.623-0.545-7.014,1.948-9.201l0.245-0.217c2.377-2.08,9.612-8.412,10.333-13.574c0.812-5.822,5.82-26.732,10.072-31.219
		c4.098-4.324,11.208-9.449,11.51-9.664c0.399-0.291,0.95-0.195,1.236,0.201c0.286,0.398,0.194,0.951-0.202,1.236
		c-0.072,0.053-7.275,5.244-11.257,9.443c-3.833,4.045-8.757,24.184-9.604,30.246c-0.812,5.816-8.155,12.244-10.92,14.662
		l-0.243,0.215c-1.828,1.605-1.53,5.441-1.353,7.734l0.027,0.352c0.162,2.141-0.827,3.76-1.973,5.635
		c-0.345,0.566-0.702,1.15-1.056,1.793c-0.941,1.707-0.048,3.773,0.448,4.689c0.688-0.143,1.328-0.354,1.517-0.508
		c0.14-0.293,0.741-1.678,1.43-3.27c2.622-6.049,7.502-17.305,8.964-19.318c1.841-2.533,29.735-42.303,30.017-42.705
		c0.281-0.4,0.835-0.498,1.235-0.217s0.497,0.834,0.216,1.234c-0.28,0.402-28.185,40.184-30.035,42.729
		c-1.347,1.854-6.362,13.424-8.771,18.982c-1.065,2.455-1.417,3.266-1.523,3.457C-31.65,138.417-31.842,138.604-32.077,138.767"/>
	<path fill="#231F20" d="M23.04-39.076c-0.242,0.168-0.564,0.21-0.854,0.084c-0.449-0.193-0.656-0.715-0.464-1.164
		c0.92-2.13,1.274-3.076,1.684-4.17c0.139-0.372,0.284-0.76,0.459-1.215c3.857-10.04-5.436-17.585-5.529-17.659
		c-0.384-0.305-0.448-0.862-0.143-1.244c0.305-0.385,0.861-0.447,1.244-0.142c0.107,0.084,2.637,2.117,4.664,5.541
		c2.719,4.588,3.208,9.478,1.418,14.14c-0.174,0.45-0.316,0.833-0.453,1.2c-0.418,1.116-0.78,2.081-1.716,4.251
		C23.281-39.294,23.173-39.167,23.04-39.076"/>
	<path fill="#231F20" d="M31.745,38.894c-0.178,0.123-0.398,0.18-0.628,0.148c-0.485-0.07-0.821-0.518-0.753-1.002
		c0.717-5.018,2.248-18.879,0.771-22.723c-1.858-4.846-7.082-17.838-7.135-17.971c-0.052-0.125-0.072-0.258-0.062-0.393
		l1.284-17.947c0.007-0.074,0.485-6.549-2.629-14.243c-0.185-0.453,0.033-0.969,0.488-1.153c0.453-0.184,0.97,0.035,1.153,0.488
		c3.281,8.106,2.777,14.766,2.754,15.043l-1.27,17.734c0.656,1.631,5.33,13.271,7.07,17.805c1.943,5.061-0.563,22.855-0.672,23.611
		C32.083,38.546,31.941,38.759,31.745,38.894"/>
	<path fill="#231F20" d="M2.956-7.374C0.593-5.747-2.353-6.261-2.501-6.288c-0.043-0.008-0.086-0.02-0.127-0.033
		c-0.379-0.131-9.295-3.195-11.578-4.105c-2.666-1.062-3.657-5.98-3.762-6.537c-0.09-0.48,0.226-0.944,0.708-1.034
		c0.48-0.09,0.943,0.228,1.033,0.708c0.326,1.735,1.343,4.686,2.677,5.219C-11.412-11.22-3-8.323-2.124-8.021
		c0.436,0.062,3.377,0.393,4.982-1.668c2.04-2.619,13.994-21.945,14.113-22.14c0.26-0.416,0.805-0.544,1.221-0.287
		c0.416,0.256,0.543,0.802,0.287,1.22C17.985-30.097,6.354-11.294,4.256-8.601C3.862-8.097,3.42-7.694,2.956-7.374"/>
	<path fill="#231F20" d="M-5.656-10.231c-2.856,1.969-7.62,0.27-7.855,0.184c-0.46-0.17-0.697-0.678-0.53-1.139
		c0.168-0.457,0.676-0.695,1.136-0.527c0.015,0.006,1.46,0.525,3.095,0.637c1.969,0.133,3.288-0.357,3.924-1.461
		c1.973-3.42,15.149-24.278,15.709-25.164c0.261-0.413,0.809-0.536,1.223-0.275c0.414,0.261,0.537,0.809,0.275,1.222
		C11.182-36.538-2.396-15.042-4.351-11.651C-4.701-11.044-5.148-10.581-5.656-10.231"/>
	<path fill="#231F20" d="M40.815-89.441c-0.02,0.013-0.041,0.027-0.062,0.039c-0.424,0.244-0.965,0.097-1.209-0.326
		c-2.293-3.99-0.646-8.495,1.1-13.267c1.593-4.353,3.396-9.285,2.527-14.609c-1.838-11.255-11.2-21.855-23.684-20.114
		c-5.144,0.718-8.879,3.323-11.103,7.749c-1.69,3.36-1.839,6.569-1.84,6.602c-0.021,0.488-0.433,0.869-0.92,0.85
		c-0.489-0.02-0.869-0.43-0.851-0.918c0.006-0.145,0.155-3.571,1.996-7.268c1.715-3.447,5.271-7.765,12.471-8.769
		c6.312-0.881,12.463,1.142,17.32,5.693c4.324,4.052,7.369,9.844,8.357,15.891c0.944,5.782-0.946,10.947-2.613,15.504
		c-1.668,4.56-3.109,8.5-1.227,11.773C41.31-90.208,41.192-89.7,40.815-89.441"/>
	<path fill="#231F20" d="M34.048-114.245c-0.006,0.005-0.013,0.009-0.02,0.013c-5.89,3.834-11.235,3.757-14.682,3.018
		c-3.742-0.803-6.074-2.514-6.173-2.587c-0.393-0.291-0.475-0.846-0.183-1.238c0.291-0.394,0.845-0.476,1.238-0.185
		c0.346,0.255,8.598,6.169,18.832-0.493c0.41-0.268,0.961-0.152,1.226,0.259C34.55-115.054,34.442-114.517,34.048-114.245"/>
	<path fill="#231F20" d="M44.946-87.77c-0.093,0.064-0.197,0.11-0.312,0.135c-4.162,0.906-7.967,0.215-11.306-2.054
		c-8.866-6.024-11.421-21.017-11.526-21.651c-0.079-0.483,0.248-0.939,0.73-1.017c0.483-0.079,0.939,0.246,1.018,0.729
		c0.025,0.147,2.54,14.883,10.776,20.475c2.477,1.681,5.253,2.37,8.276,2.054c-1.525-1.741-3.828-5.155-3.512-9.651
		c0.031-0.488,0.457-0.856,0.945-0.822c0.486,0.034,0.855,0.458,0.82,0.945c-0.389,5.587,4.11,9.406,4.155,9.445
		c0.262,0.216,0.375,0.562,0.295,0.892C45.252-88.074,45.122-87.891,44.946-87.77"/>
	<path fill="#231F20" d="M-40.011-74.435c-0.119,0.082-0.26,0.136-0.414,0.152c-0.486,0.048-0.921-0.307-0.969-0.794
		c-0.273-2.729-2.844-4.482-5.821-6.513c-3.041-2.075-6.489-4.427-8.472-8.433c-4.14-8.367-2.898-19.917,6.354-24.77
		c9.437-4.948,16.102,3.449,16.167,3.535c0.301,0.386,0.229,0.943-0.157,1.243c-0.39,0.304-0.942,0.229-1.242-0.156
		c-0.235-0.3-5.838-7.304-13.945-3.053c-6.511,3.414-10.382,12.732-5.588,22.416c1.778,3.59,5.021,5.802,7.883,7.755
		c3.205,2.186,6.23,4.25,6.585,7.801C-39.598-74.921-39.753-74.612-40.011-74.435"/>
	<path fill="#231F20" d="M-39.318-94.969c-1.941,1.338-4.518,2.381-7.89,2.531c-0.489,0.022-0.903-0.357-0.924-0.846
		c-0.022-0.488,0.356-0.901,0.845-0.924c9.07-0.404,11.564-8.005,11.588-8.083c0.146-0.466,0.645-0.726,1.11-0.579
		c0.467,0.146,0.726,0.645,0.579,1.111C-34.028-101.7-35.334-97.713-39.318-94.969"/>
	<path fill="#231F20" d="M-39.8-72.702c-0.655,0.452-1.376,0.847-2.161,1.186c-0.29,0.125-0.625,0.086-0.88-0.103
		c-0.252-0.188-0.386-0.498-0.35-0.813c0.005-0.046,0.513-4.837-2.154-8.062c-0.312-0.376-0.26-0.935,0.117-1.246
		c0.381-0.314,0.936-0.26,1.248,0.117c2.148,2.596,2.563,5.904,2.603,7.825c1.853-1.104,3.158-2.67,3.895-4.673
		c2.56-6.959-2.323-16.99-2.373-17.091c-0.216-0.439-0.035-0.971,0.403-1.187c0.438-0.216,0.969-0.036,1.187,0.402
		c0.053,0.11,1.331,2.718,2.286,6.284c1.3,4.855,1.353,8.96,0.161,12.202C-36.611-75.706-37.945-73.979-39.8-72.702"/>
	<path fill="#231F20" d="M19.963,12.337c-0.196,0.133-0.443,0.189-0.693,0.135c-0.478-0.105-0.78-0.576-0.675-1.055l1.653-7.514
		c0.105-0.479,0.577-0.781,1.056-0.676s0.779,0.578,0.676,1.057l-1.654,7.514C20.274,12.026,20.139,12.214,19.963,12.337"/>
	<path fill="#231F20" d="M12.489-89.411c-4.149,2.859-9.433,2.323-13.924,1.866c-3.426-0.347-6.659-0.676-8.508,0.598
		c-4.195,2.891-3.332,9.625-3.323,9.694c0.067,0.485-0.273,0.931-0.757,0.998c-0.485,0.066-0.931-0.271-0.998-0.756
		c-0.011-0.08-0.266-1.979,0.084-4.308c0.477-3.167,1.856-5.617,3.988-7.086c2.386-1.643,5.935-1.282,9.691-0.901
		c6.259,0.635,12.729,1.292,16.326-5.883c0.219-0.437,0.752-0.615,1.189-0.395c0.437,0.219,0.613,0.751,0.395,1.189
		C15.507-92.104,14.081-90.508,12.489-89.411"/>
	<path fill="#231F20" d="M-8.305-83.366c-0.089,0.062-0.187,0.105-0.292,0.132l-1.904,0.464c-0.475,0.116-0.955-0.176-1.07-0.65
		c-0.115-0.476,0.175-0.954,0.65-1.071l1.68-0.41l2.171-2.02c0.359-0.333,0.919-0.313,1.253,0.045
		c0.332,0.359,0.312,0.918-0.047,1.252l-2.34,2.177C-8.237-83.417-8.269-83.39-8.305-83.366"/>
	<path fill="#FFFFFF" d="M-12.007-79.705l5.359-1.395l5.113-5.591c0,0,2.852,14.815-10.414,7.405"/>
	<path fill="#AE161B" d="M-2.986-77.287c-2.041,1.405-5.174,0.946-9.315-1.368c-0.271-0.152-0.407-0.453-0.36-0.744
		c-0.019-0.039-0.034-0.081-0.044-0.124c-0.101-0.386,0.131-0.781,0.517-0.88l5.152-1.341l4.969-5.434
		c0.185-0.201,0.467-0.281,0.729-0.208c0.263,0.074,0.461,0.29,0.513,0.558c0.056,0.286,1.31,7.033-2.082,9.485
		C-2.935-77.324-2.96-77.306-2.986-77.287 M-10.519-79.347c2.32,1.153,5.053,2.015,6.715,0.868c0.018-0.011,0.033-0.022,0.049-0.033
		c1.715-1.238,1.871-4.404,1.704-6.545l-4.063,4.445c-0.094,0.102-0.216,0.176-0.35,0.211L-10.519-79.347z"/>
	<path fill="#231F20" d="M6.255-79.723c-12.171,8.385-28.894,5.305-37.28-6.865c-8.385-12.17-5.306-28.895,6.865-37.28
		c12.171-8.386,28.895-5.306,37.278,6.865C21.506-104.832,18.427-88.108,6.255-79.723 M-23.173-122.434
		c-11.38,7.841-14.26,23.479-6.418,34.858c7.84,11.381,23.477,14.26,34.858,6.419s14.26-23.479,6.42-34.858
		C3.844-127.395-11.793-130.275-23.173-122.434"/>
	<path fill="#231F20" d="M-6.728-95.388c0,0-2.293-14.852,13.061-17.213C6.333-112.601,11.052-98.599-6.728-95.388"/>
	<path fill="#231F20" d="M2.18-97.83c-2.264,1.561-5.207,2.675-8.752,3.315c-0.234,0.042-0.478-0.012-0.671-0.151
		c-0.196-0.138-0.325-0.349-0.362-0.585c-0.062-0.411-1.463-10.116,6.18-15.381c2.072-1.427,4.637-2.384,7.621-2.843
		c0.426-0.065,0.836,0.185,0.975,0.593C7.202-112.788,10.254-103.393,2.18-97.83 M-5.935-96.445
		c2.867-0.612,5.257-1.567,7.111-2.844c5.757-3.966,4.975-10.189,4.507-12.301c-2.382,0.454-4.432,1.265-6.101,2.416
		C-5.871-105.417-6.068-98.858-5.935-96.445"/>
	<path fill="#231F20" d="M-24.13-81.198c1.503-1.332,3.007-3.138,4.46-5.546c0,0-5.455-3.102-11.384-1.654
		C-29.674-86.384-27.227-83.267-24.13-81.198"/>
	<path fill="#231F20" d="M-23.627-80.469c-0.295,0.204-0.69,0.21-0.994,0.008c-3.153-2.105-5.635-5.206-7.163-7.436
		c-0.164-0.24-0.2-0.545-0.096-0.817c0.104-0.271,0.335-0.475,0.617-0.544c6.201-1.513,11.796,1.611,12.032,1.744
		c0.207,0.118,0.358,0.315,0.419,0.546c0.06,0.232,0.025,0.477-0.099,0.683c-1.417,2.349-2.976,4.283-4.63,5.75
		C-23.569-80.511-23.598-80.489-23.627-80.469 M-29.527-87.783c1.326,1.781,3.143,3.865,5.319,5.45
		c1.142-1.1,2.236-2.456,3.264-4.046C-22.452-87.049-25.824-88.268-29.527-87.783"/>
</g>
</svg>
