<?xml version="1.0" encoding="utf-8"?>
<!-- Generator: Adobe Illustrator 16.0.0, SVG Export Plug-In . SVG Version: 6.00 Build 0)  -->
<!DOCTYPE svg PUBLIC "-//W3C//DTD SVG 1.1//EN" "http://www.w3.org/Graphics/SVG/1.1/DTD/svg11.dtd" [
	<!ENTITY ns_extend "http://ns.adobe.com/Extensibility/1.0/">
	<!ENTITY ns_ai "http://ns.adobe.com/AdobeIllustrator/10.0/">
	<!ENTITY ns_graphs "http://ns.adobe.com/Graphs/1.0/">
	<!ENTITY ns_vars "http://ns.adobe.com/Variables/1.0/">
	<!ENTITY ns_imrep "http://ns.adobe.com/ImageReplacement/1.0/">
	<!ENTITY ns_sfw "http://ns.adobe.com/SaveForWeb/1.0/">
	<!ENTITY ns_custom "http://ns.adobe.com/GenericCustomNamespace/1.0/">
	<!ENTITY ns_adobe_xpath "http://ns.adobe.com/XPath/1.0/">
]>
<svg version="1.1" id="Layer_1" xmlns:x="&ns_extend;" xmlns:i="&ns_ai;" xmlns:graph="&ns_graphs;"
	 xmlns="http://www.w3.org/2000/svg" xmlns:xlink="http://www.w3.org/1999/xlink" x="0px" y="0px" width="595.279px"
	 height="841.89px" viewBox="0 0 595.279 841.89" enable-background="new 0 0 595.279 841.89" xml:space="preserve">
<metadata><?xpacket begin="﻿" id="W5M0MpCehiHzreSzNTczkc9d"?>
<x:xmpmeta xmlns:x="adobe:ns:meta/" x:xmptk="Adobe XMP Core 5.3-c011 66.145661, 2012/02/06-14:56:27        ">
   <rdf:RDF xmlns:rdf="http://www.w3.org/1999/02/22-rdf-syntax-ns#">
      <rdf:Description rdf:about=""
            xmlns:dc="http://purl.org/dc/elements/1.1/">
         <dc:format>image/svg+xml</dc:format>
         <dc:title>
            <rdf:Alt>
               <rdf:li xml:lang="x-default">Print</rdf:li>
            </rdf:Alt>
         </dc:title>
      </rdf:Description>
      <rdf:Description rdf:about=""
            xmlns:xmp="http://ns.adobe.com/xap/1.0/"
            xmlns:xmpGImg="http://ns.adobe.com/xap/1.0/g/img/">
         <xmp:MetadataDate>2018-09-05T11:33:42-03:00</xmp:MetadataDate>
         <xmp:ModifyDate>2018-09-05T11:33:42-03:00</xmp:ModifyDate>
         <xmp:CreateDate>2018-09-05T11:33:42-03:00</xmp:CreateDate>
         <xmp:CreatorTool>Adobe Illustrator CS6 (Macintosh)</xmp:CreatorTool>
         <xmp:Thumbnails>
            <rdf:Alt>
               <rdf:li rdf:parseType="Resource">
                  <xmpGImg:width>96</xmpGImg:width>
                  <xmpGImg:height>256</xmpGImg:height>
                  <xmpGImg:format>JPEG</xmpGImg:format>
                  <xmpGImg:image>/9j/4AAQSkZJRgABAgEASABIAAD/7QAsUGhvdG9zaG9wIDMuMAA4QklNA+0AAAAAABAASAAAAAEA&#xA;AQBIAAAAAQAB/+4ADkFkb2JlAGTAAAAAAf/bAIQABgQEBAUEBgUFBgkGBQYJCwgGBggLDAoKCwoK&#xA;DBAMDAwMDAwQDA4PEA8ODBMTFBQTExwbGxscHx8fHx8fHx8fHwEHBwcNDA0YEBAYGhURFRofHx8f&#xA;Hx8fHx8fHx8fHx8fHx8fHx8fHx8fHx8fHx8fHx8fHx8fHx8fHx8fHx8fHx8f/8AAEQgBAABgAwER&#xA;AAIRAQMRAf/EAaIAAAAHAQEBAQEAAAAAAAAAAAQFAwIGAQAHCAkKCwEAAgIDAQEBAQEAAAAAAAAA&#xA;AQACAwQFBgcICQoLEAACAQMDAgQCBgcDBAIGAnMBAgMRBAAFIRIxQVEGE2EicYEUMpGhBxWxQiPB&#xA;UtHhMxZi8CRygvElQzRTkqKyY3PCNUQnk6OzNhdUZHTD0uIIJoMJChgZhJRFRqS0VtNVKBry4/PE&#xA;1OT0ZXWFlaW1xdXl9WZ2hpamtsbW5vY3R1dnd4eXp7fH1+f3OEhYaHiImKi4yNjo+Ck5SVlpeYmZ&#xA;qbnJ2en5KjpKWmp6ipqqusra6voRAAICAQIDBQUEBQYECAMDbQEAAhEDBCESMUEFURNhIgZxgZEy&#xA;obHwFMHR4SNCFVJicvEzJDRDghaSUyWiY7LCB3PSNeJEgxdUkwgJChgZJjZFGidkdFU38qOzwygp&#xA;0+PzhJSktMTU5PRldYWVpbXF1eX1RlZmdoaWprbG1ub2R1dnd4eXp7fH1+f3OEhYaHiImKi4yNjo&#xA;+DlJWWl5iZmpucnZ6fkqOkpaanqKmqq6ytrq+v/aAAwDAQACEQMRAD8A9U4q7FXYq7FXYq7FXYq7&#xA;FXYq7FULq199Q0y7vePP6tE8oTxKqSB9OV5cnBAy7g15snBAy7gxzyPei28spfapcCNr+6kkV5DT&#xA;k0jcQB/rFScwtDPhxcUz9RcDQZOHDxTP1SP2stzYuzdirsVdirsVdirsVdirsVdiry38zfzEtZNM&#xA;Oj6JMXuLuQw3FyoIURinJVbvzJpXwrmq1WthKJjE33uuy63HOMhE3XNIdPv9R1rW9HtZ3LRQPBDD&#xA;CuyJHGVDEKO5C1Y5q4ZJZckQeVjZ0kcss2WIPKxQ7g9wzqXrHYq7FXYq7FXYq7FUFrc81vo1/cQm&#xA;k0NtNJEfBljJX8RlWeREJEcwC1Z5GOORHMApN+Xus3mq+X/UvGMk9vM0BlO7OFVWBb3+OmY3Z2aW&#xA;THcuYNOJ2bnlkxXLmDSU+cPPEmmanqOmT0is2smWKah5ieRDwYHwqwH45RqtYYzlDpw/bTTqdXIZ&#xA;JY+nAfnTxu7kaaWOaIcoLdgWYftEkVC+OaWAoUeZdVhhwgxP1SH4t6b+WtpYLrMckaveXQiZpJVX&#xA;hDbBlI6tu7sfh2AHXrmw7NhEZNvUfsDk9mQiMm3qPf0H63qeb96J2KuxV2KuxV2KuxVAaxrOk6Xa&#xA;mTUpkijcEBG3Z9twqjdspzZoYxci0588MYuZeTar+d3lHyV5eS002ze41WVpHj0/meKVchXmlI/l&#xA;A2UHw98wdLnhHH6B3uuwarHjxDhHO9nhfmH81fN/mTUmurt42klIWOFE+FRX4UUE9BXKckeOXFLm&#xA;4k88pS4q3ZvpbT3FvbwMvFIaNO42DMDyov05rJ1E205wMcjI7k9H0roOm6VY6bEumQiK3lVZAerN&#xA;yFQzMdyc6fBjhCI4Bs9Dp8UIQHAKBTDLm92KuxV2KuxVp3SNGd2CIgLMzGgAG5JJxV5t5q/MbU9C&#xA;16/EKx3dksMX1aNjROToriTkoqR8fjvmoza6cMxjzj+x1E9dOOoMOca/RbzrXfN9zqU5u72cXN2V&#xA;CgIOMagdAo7LmrymeWXFJ12THkz5OKWweP6no3mHUtTuLqWDeVyeTMgAWu3fwzOhOMRTYcMr5Mk8&#xA;q+SILflqGoShnj2RU+yppuanr92Y+bUHkGucjjkABcmfaLp0919Vs7SMyTzcQiDuzbkn28cxOGU5&#xA;0OZcWYlkykDckvoextha2Vvag8hBEkXLx4KFr+GdbjjwxA7g9fjjwxA7grZNm7FXYqk/mzzdoPlP&#xA;RZdY1u5FvZxEKu3J5JG+zHGg3Z28B8+mKvFdQ/5yH88X03PQNAs9Psq/u5NWeWWZ18TFA0fA+xY/&#xA;PMSetxx25tMs8R5sL8xf85C/mJc6dqGhXTaXLFewyW1xcW0EyyIsilHCM0vCtCd+JyEtVxR2Dg6n&#xA;XAxMY80B5c13Ub7y3a21y/NLVfq8TH7XpRsSi17heVB7AZq8wud+TiYoA1I8xsm+nWQuZDzJEaCr&#xA;Ed/bMfJPhC6nP4Y25lWlht7m8jtrcBYowebr+O/fIgmMbLTCcseMznzLd7Z85kt7RKhB8Z7AnxPj&#xA;jCe1lcGaomUzzet+UPK+oT+VbG40i+Wxu3EiXs5jBkchyAFkHxKoAAoKV6nfNlg05njEsZ4Seff8&#xA;3Lw6c5ICeI8F3ff82beXdL1bT7Z01LUm1GRyCpZacKVqAxJZq++bLTYpwHqlxOx02GcBU5cSbZkO&#xA;S7FWmZUUu5CqoqzHYADqScVfKv5m+d7Tzj50l1D6yp8r6DW20lmIEUtx/u+5Feu44ofAAjMDWZT9&#xA;EeZcfPM/SObC7ie+8wShdOZoNOtiXW6NU9aZfsBe/BTuTTMQRGIereR6dzjyjwRP84/YgLbyXqLy&#xA;gXDpFEPtMp5E/IUyBzB1o056swsbKK3hitbZaIvwovcknv8AM5jyl1Lk7RHkGQiyWKyKzPyEasaL&#xA;VRU71PicxOO5bOr8cyyXEcyEpjvJoo+EfFNqFwo5EfPMgwB5uxlgjI2d0+8uSaNduLSbVrHTWQAz&#xA;S39xHAOTHfjzILt8sENLLJLoB5uFPSyyZDZiB5l9B+W7TT7PRLS20+dLm1jT4LiNgyuSSzMCpI3Y&#xA;nvnR4MQxwER0ej0+IY4CI5BMsubnx9qnnTzJ5vEmva5rl1aadM7ta6bb3BtrWCIOQitwK822+02+&#xA;a7PqpifDEONlzSEuGKS29l5YuHCwX7SPXZVvJOVfYc65TLPnHP7ms5co5/cj7nQo7mJoZr6+eFxx&#xA;eJrqZlYe4ZmrkBrsjH8zNRtvKOgQMrC29Vl+yZWZx/wLHj+GQlqsh6sTnmeqfWlwbVqoiGgoAw6A&#xA;eHhmJOPE4uXFxiiSiWlutScRhUHH4q9PbqanIACG7QIQwC91aLSbyF1lR4y67gGtP1ZE5Qdmqesh&#xA;IUQaKW3M/mjWNdTy1pcUSXzwm5lnnbhDHEG4lqCrOQT0GDNmwabD42S+G6AHMn9Ds+zezoZDxRTj&#xA;VfyY1a00sXOj6xPfayqk3dvdsFt7kEbpGo/uT/KeX0jrmi03tbGWWssBHEeRj9Uff/O83ocvZkDC&#xA;hzY95d/Jyz82ySW+g6ymn6zagDUvL+ro0V1AwHxFXjDCaOv2XCjY753WLHHLATxyEonq89l7LkDQ&#xA;Pze2/k7+T+teQ7i5uLvXjdRXUfGTS4EYW4eoIl5OalhQjZRtmVhxGPVv0ulOPmfg9Ty9zXxR+Y3l&#xA;pvL2q6z5LkR+f11ZdCRNvVt7ty8QHiEqyt/lZhZIcOXj6Vu0THDLj6Vun2i/lv5bsdJSzu7VLydg&#xA;DPcPXkWp0Q7Mq/L6c0ubtDJKdg0Hnc3aeWU7ieEdAlWs6C+jTxwaDqE8t7PvbaGyNdlx/kAfHGu3&#xA;2j9+XQ1UZRMsoAiOc/p/tdhoc2TUGjC/6Q2/tRUlv5206BJda8tXcUbLyM1pxuVA8XWMs0f05iY9&#xA;fo8prHmjf9L0/fVuzydm5I8kLB5o0GU8friRuNmSasRB8DzC5mnTTHT9LiHBMdEQfMOj24Ev6QgU&#xA;jdSsqk/QAanI+BM7cJYHCZbELbXzbrWqXkY08mPTIjymvJIwDL4JEGHTxNMZaWEB6vq7u73tMuz8&#xA;URuN+60RLqGp6d5h0zzHaRG8nsGdLi2DBWlt5l4uqk7VXqvvmLqNLDUYJ4CeHi5HuI5Od2fljgl5&#xA;Mh8sebvzUuVu7hzY3FpFIotodUX6jdTK4JPp/V/UhXjShLnw981uX2Z0M4j1eHPyPFH/AGQv7nPP&#xA;bWOJoyBTqO1tvPcNzPPaSeXfN+hTejDfW06STQSmMSRslxDQSxMH6fOnjmonPP2JnjGM/ExTHFXQ&#xA;j7aPmP2OygYaiFvU/wApvON55p8ox3GpAJrmnTS6drMYoALq2PFmoKU5qVf2rTPUMOWOSAnH6ZAE&#xA;e4urlGjTMssQ+UvzN1m682fnrBb2lxFZ22lSvo9leSResv1mKNpJA6hkJrM5QfFt1pmr7X1Qw6ec&#xA;q4uEAkXW19+6+BHN+7Jq0dq1p+YGiRt9Y0hNYVxxtrnTCx/eNsgmgf41UnqykgZymk7U0ef+Pwz1&#xA;E/tqQ2Pu2Lrc/s2QRwHZPNP04+S9Nt1it/01568wSCFFBo09wRyKBj/d28C7noKCu1c1EY5e2NVw&#xA;R9GCH+xHf5yl+Ng9Jixw0uMAB5t+Y3mbzlofmJ7PVPMksuo2c1L/AEazW5sIQlFZPRmiIMiurkhm&#xA;NenXoO803s/osMeEY4y85DiP2/opxZaicurPdKjs08g615h1WBtTs63V5oia0qXU4s0j42yyu68i&#xA;ZePLr+19OcP2nKJ7Sjh0p8KNxieA8O9+rl3foc3ED4fFLf3vPreWw8wX2jXL6BbaRaafADevFbRW&#xA;xurqRQGYLGAfSXqv+dOqwafJpxkByyyGUvTcjLhj8f4j1dL2hqbhUKEqR3nFJbDTXn0+WlOLArRi&#xA;ByAP0b5LAeI7uihmlKBsVIO8l6xY6xbvBdoFvoiKkEgMp6ECuDURlDccmrLmyVceXV6p5DufLVjc&#xA;vb63b/WY5mT0LiajrFSooy0+ya9cOkzYhKskRv1XS6jCZfvIjfqqLBFpv5x+arOJQsGqWWnajbIt&#xA;AgWKM2zladiy5pfbnCODFMchxD51X3F7bs8jcDkr+Srr/Dv5v32mMeGn+cLQXdsOwv7EUlVR0+OE&#xA;82982fsdrvF0vhn6sRr4HcfpHwYayFSvvex51rhvii8sZ7231VreR49Ti1S7uYZlYrItxHOxUhhQ&#xA;hvfNTqJAZSJC4kUR5FxZ5DDLbPPyh81ectb1G4SQy3Ply2Uxy3OoFDdR3IAPpq8apz61PNdvHseJ&#xA;9q+z9DpwPDHDllvwj6SO/wAvh8nfaTJOXPeLL/MGlxNrcfmO08xtoepaPA0DzgWssUUc9GYulwjq&#xA;jOKfF4Zq+xO2c+jBhjxifiHuNmttq5tufDGe5PJK7Hy1o/nWWDzFrWtz+a44S0Vs00MVrbH0mIP7&#xA;uGKH1ArV6kqd+ubDtb2m18ScUojDKt6+rfzs197Xi02PnzSz879ckGkW/lfT4nubu/IuLy3gFXWx&#xA;tzzagHTkygDxoRlPsppY+KdRkPDCGwJ5cctvsHy2KdXI8PCOZYZZatpl1Z/WoJk9BFq9SF4ADow/&#xA;ZpnaTxSiaI3eWlCQNFCpqV9qkTjTNIn1CzYMrTsVhicdDwMhHIZM44w+uQifmwyHHDacgD3c0P5C&#xA;0Z3882+lOn1Ge8Biitr4+jXkQfhk+y9KbUNSdgDl0sMskfQQfNqjpTKzjkCD1/W+ivK3k/R76OfS&#xA;tXtpbTV7I1JRipkhJor78lah2qB4ZXptJCdwmKmPua9Lo4ZLjkHDkHw2+5J/OWlRaD+aflBoGdob&#xA;/Sr3SleQ8mpaut0qlhT+fbNf7WaUfyft/k5RP+9/3z03ZsBjIiOVIH8zYbq20i08y2C8tR8sXcWp&#xA;wgftxRNSeM0/ZaMkt8s472T13gawRP05PT8en27fF2OrhxQ9z2zTdQtdR0611C0f1LW8hjuLeT+a&#xA;OVQ6H6VOevOnfMn5qeWLryV501DUJYm/wx5guDd296qkx293NvNDKQPh5NVk9vkaYGs05n6hzcfP&#xA;iMtxzYfe2moJHd3fl+69I6jCYdQt1KNFdRH/AFg6B6Vo1P45rDDHMxGWN8BuJ6xPwo15MdPqpY/S&#xA;eSM/Lyx0a9MmiTTWlvqNy9Z59QDpeQrSjJa2zA2jyvWi3FS6ruANsr7S7TnpMRnHEZS5CQ9Ua8z9&#xA;Uf6tVfI9XZ4YDIR6tnrvmHzF5b8heWYi6CK3t0EGnafF9uVlGyLWp92Y/M755vo9Fn7R1BreUjcp&#xA;HkPM/oDs5zjjixj8v/L9/rNvJ5x1C5im1DXQJC6VKwwKaJbxjsEpRt+vj1zads6uGGQ0sIkQw7f1&#xA;pdZH39PJpxQMvUerHvOPlPyzqPnSOwtbZWexAuNdu0+AO8grFbkKacm+25O9Kb5vuwdVqI6YznI8&#xA;MtoD3c5e7oPi6btvVRwxqP1lkaIiIqIoVFAVVUUAA2AAGXk28QTaE1XR9N1W1NrfwLPEd1rsyn+Z&#xA;WG6n5ZZizSxm4mm3DnnjNxNFMfLP5h+ePJJS3vBL5q8sx/CAxB1O2jHZHO06j+U7+4Gb3TdpRntP&#xA;0n7HoNL2pCe0/TL7P2Jz+Y3nTyv5n03yf5o0C+S5XTddt4L2OhWa3jvEeJ/WjPxpuoG4oe1cHbeH&#xA;xdHlj/QJ+W/6Hd4JVMFlNxbw3FvLbzoJIZkaOVD0ZWFGB+YOeJQmYkEcw7si1H8hdTmTy3f+U7x+&#xA;V95UvJLGp+01rITLayH2ZCVHsue7dn6sajBDKP4o38ev2uiyw4ZEPR7yztL22ktLyCO5tZl4zQTI&#xA;skbqezKwII+eZjW+bvOvkLyNp3ny706KG58vWLek0d1pkrBQZI1JeSCX1UZAxPwpw6d812bOBk4Z&#xA;gGLjZMo4qkNl3mT/AJx287C29SwvdP8ANNoF5Rx3CfUrlgdwIpFLx/7IuK5eNKBvAmLYMQG8TTzH&#xA;UIodKTUBqkN5BrenRG3XT9Rdnkt/UqFWHl+wxatR2+eYfgSjIRAiBI2eEVfvYzOQyAJ2Z/8Alv5m&#xA;by5+ULXcoFxOl3Pa6TApr680j0jRemxkLE+1TnEdtaD832pwR2BjEzP80Vv9lfF3WPMMeEyPIK2h&#xA;abLY2R+syevqFzI1zqFweslxKau3y7D2GbzJIGhEVCIqI7gHzzW6o58hmUezKilmNFG5OVuKwzVd&#xA;d822P1q+iksprGDlILd0kV/SWp+0GPx8fozYYsOGVRPFxH73Z4cOCdRIkJHrtzTnR/NdlfPHa3UU&#xA;mm6o6LJ9QulMbsrjkrRlgBIrDdSOoyvU6KeLfnHvatV2fkxb8496VefvLlg+lXWs20Xoapaqswni&#xA;+EuEdWPqAfa+zUV32yzRZ5cQxneEtqb+zNZOOSML9J/Gz3Syuo7uyt7uP+7uI0lTvs6hh+vPJMkD&#xA;CRieYNPooNhINOuv8OfnHpl4W4af5stX0y7/AJReW37y2dv8plrGuej+xGt4sU8J5wNj3Hn8j97r&#xA;tdDcSe053LgMD/M78u5PMkceoacVXVbZOHpseKzR1JC8uzAk8SdvHMPV6bxNxzaM2Li3HNkPki21&#xA;K18qaZa6lGYryCERSRsQSoQlUGxP7AGXYARAA82zGCIi3g/5sx6T5p/OBDBErw+WbWODULigIlui&#xA;zSpDX9oRB6nwNRmJ2lqOCHCPqk4Paep8PHwj6pfcxvy9oOqQXEFpfBRpOgtOuiRLT4zcyNI08m+7&#xA;KrBB9OaTKcfFLJH+8y1xeXCKoeXVwdd2p4uGMB8WUkgAkmgG5JzGdIxn/Etpq01xDYlntrVgjXFP&#xA;3cjnrwavxccyzp5YwDLmejmS00sYBlzPTqPelXmiOWfSHs4N572SG1hHi00irT8cydFG8ocrs+N5&#xA;h5PqbzH+XnlDzHo8Olazp6XUFtGsdrMfhnhCABTHKvF1O3Y0PcZ0L0jxrzf+T3nrQLK6j0eV/Nfl&#xA;6aN4ns5CqanDG6lTwanCeg/2XYDNfl7PgZCUfTIfJ1+Xs6BkJw9Mgb8mOeQvzettJMHlrzK/pwWo&#xA;Fra37oYZYhEAiw3kLfEjKBTmKjx7nOL7d9lpzlLNgHqO8oefUxP+9+Xc77Saw1wzFFmv5lPGdF0f&#xA;UoJFMlnq+m3dnKp5At66qpUg91ftmp9kJShrxHvjIH7/ALw5OrF43u2etOoYL+Zn5gat5Yu9D03R&#xA;7CC/1LW5LgRLdTGCJUtY1d/iCt8TcxTMTW6yGmxHJO+Ed2/kzxwMjQYVoP8AzlHoD3v1TzNYrpqs&#xA;nKG9sLldSibejc1iRZI+KnluDsDk8OoGQXUo/wBYGP3/AKFlCmKeYLZvLXnfUfrB9TRPNt0+r6Fq&#xA;4NYZmuwrvCW6BlP2PEU8c1/ammlL1joN3R9raWU6yR6DdCauvmtbpZdJe0ktgoD2tyHVi1TUrIlf&#xA;xGarEcVVPivvDp8Jw1U+K+8JLq9j5x1O3MGpS21jpjEC4is2d5pVPVS7ABVPtmRjyYYG4gyl58g5&#xA;OLJgxm4Ayn0vkFe2toLaBILeMRQxiiIooAMqlIyNnm0TmZGzuVfRbP8ASPn/AMn6bTkH1SO7ZaVq&#xA;lkpnYEeHw75sOzY+snydn2TH1k9wfWObp3jsVSjVvJ/lPWZvX1bRbHULgLwE9zbRSyBaUoHdSw+/&#xA;FXny/kDZ2+t2RsNbuYPKVrexaj/hqRBMgmgYuiRTs3NIix3Qg/Pww/yGHxvH4R4tVf4+9s8SXDw9&#xA;HrGZjWwn83PJ135k8ql9L+DzDo8q6joko6/WIN/S+Uq1Wh2rSvTKs+COWBhMXGQosoyINh83ef5b&#xA;TXfLy+YoBqckc0f1lhFa2slrZ3SH0nt5ZAI54wG61rsQd84rseEtNqDgl4YIPDvKYlOJ3EgN4n7O&#xA;VbOdmIlHi3esflhq+heefIiflx50tYbfVNOtLaK3tCwSWW1FujW1zBy+JZY0Px8a0PXY8c7PBqYZ&#xA;Y8UDYsj5Gj9zhSiYndiGq6drfkXWo/L/AJjdriwuG46Hr5FI507RTH9iZem/X8Tqdd2fXrhy6h57&#xA;tDs6rnj5dR+pG3EXqwvH/MKD59s1ANF0gNFjpFNjmS5CeflJDBdfnNpyyuqvp+mXd1ArGhZ5SsBC&#xA;+/BmPyBzcdmR9JPm73sqPokfP8fe+l82btHYq7FXYq7FXYq8k87flvrmi6peea/Isa3H1tjNrvle&#xA;Q0iuz+3Nbk/3cxHUdG9zsdN2v2Li1sPV6ZjlIcx+seXyb8OcwPkkQh8l/mNpouOLw6jYtx9Ra2+o&#xA;2E6n7NftIQw91JzzXj1vZGauQPxhP8fAh2VQzBin5m+dPNWj+UrvyP5qa38xJqcS/oXV/hS8jaKR&#xA;Cv1mHudiFkBrXrXfPRuxO2467GTwmMo8+74H8F12fD4Z57JXYHzVoUkdjPA2taZstvdxMq3EY6BZ&#xA;VYryA/mrmLPwsvqB4Jd3T4PHZPBzeoHgn1HQ+5FXoQXUoQ1HL8e/45THk4seSQ3w1jSfMGn+btGk&#xA;Av8ARv3hhNR6samrR1HZ0Z1PzzZaHUiHpPUu27O1Yh6D1L678va7p+v6HY61p787PUIUnhPcBxXi&#xA;1OjKdmHY5u3ephirsVdirsVdirsVeNfnzomhaJbR+d9NuG0rzh6sdtai2QONSdjQW9xDVQ/wj7fU&#xA;Ad/hGYWv0WLUYzDKLj93mD0LOGUw3uqedaToMkksura/wv8AXb5lkuZZAHWLieSRRA1CrHQUp/TO&#xA;c4o44jHi9OOPLz8z5l5XtDtKeeZINRTzKnWMdmf1JXf+ZifvOZIGzkALMKWdf848+ZTper6j5FuX&#xA;/wBFn5aloVegBP8ApMA/1T8aj/WOdDpM3iQ8w9Po8/iYweo2L3nMpynYq7FXYq7FXYq+cfO2rP5q&#xA;/NDUbiQ89L8qk6bp0R3X62QDdy/6waifIDNR2rnIAgOvN0/a+oMYiA/i5+52aF51Dakt+1hOth6f&#xA;1wqRD63L06/5XHfJ4+HiHFyZ4uHiHFfD5MOtdakW8Gm6tbNp+on7COaxyjxik6N8sz54PTxQPFH7&#xA;ve7DJpvTxwPFD7R7wmhZR1IFTQV8TmO4tKdrfPpXm3ytrMbcHs9Vt45X7/V7k+jOPpRs2HZs6mR3&#xA;h2nZU6mR3h9cZu3euxV2KuxV2KuxV8uaHX6/5j5cvV/Tmo+ry68/XNeuc32p/e/B5ntf++/zQmua&#xA;51bsVQGt6HYazYtaXiVHWKUbPG/Z0bsRluHNLHKw3YM8sUuKP9rzqdtVm1Kz8uXyl7yxuVuJ7ofZ&#xA;kt4hyR/m/Kh982wEBE5Y8pCq8y7kCEYSyx+mUaA8yyaS0bUNe8uaXGC0t9q1mlB1CLIHkf5Koqcj&#xA;2dG8l9wa+y43kJ7g+vM3jv3Yq7FXYq7FXYq+bfMWnHQPzS8yaU44Qas663YHoHFwONx9ImU/rzSd&#xA;r4uU/g6PtnD9M/h+pUzSuhdirsVYl56tzaS2PmGIb2TiC9p3tpjSp/1HNR88z9FLiBxnruPeHY6G&#xA;XGJYj/FuPeGU/k1pP6Z/NdL2nO18t2Lz8+oFze/uox/yK5MM2vZ2Ook97t+y8XDAyPU/c+ks2Lsn&#xA;Yq7FXYq7FXYq85/OnyFeeYtGt9Y0RK+ZtBZriwUdZ4iP31sf+Mij4ff5nK8uITiYnkWvLiGSJieR&#xA;eU6LrFpq+nx3tsSA3wyxNs8cg+1G47FTnJ58MscjEvH6jBLFMxkjsqaXYqoX1nBe2U9nOOUNxG0c&#xA;g9mFMlCZjIEcwzxzMJCQ5hlH/OLdhaWWg+YYZZOeuQ6iIL+uzejDCq2x/wBUjmVPzzrsMhKII5F7&#xA;PFOMoiUeR3e25a2OxV2KuxV2KuxV2KvmP85refyz+bT3GgWRNrf6Ymp6zaRkgTSfWJIZJY1O3qBQ&#xA;rGnXfxzA1+KE4ji2N0C4HaGHHOAEtjdA+f6lTTNTstTsor2ylEtvKKqw7eII7EdxnOZMcoS4Zc3m&#xA;MuKWORjIUQisg1uxVd5K1r/C/wCaWn3btw0vzOg0u+3ooul+K0kPizH92PAHN72TmuJgej0PY+e4&#xA;mB6bj8fjm+jM3DuXYq7FXYq7FXYq7FXjf/ORGitZ2um+e7Z4xNohNrfW8jhDcWtywHGMnrIj/Eq+&#xA;58Mx9TgGWBi0anAMsDEvAtI82Qx6lLqelwGJZSz6noytUSoP+Pm22HxqPtpt+sjXZdKTERmfdLu8&#xA;j+h1ubRkwEJm/wCbLu/oy8u4vS9P1Cz1CzivLOUTW8w5I6/qPgR3GabJjMDR5uhyY5QkYyFEIjIM&#xA;Er8zaU+p6LcW0TFLoAS2kimjJNGecZU9viFK5fpc3h5BJydJn8LIJdOvue+flt5uXzb5J0vXDtcz&#xA;xcL6OlOFzEfTmWnb41JHtTOtBexZNhV2KuxV2KuxV2KvnT889cfXfzCg8u1rpnlqGO5uIuz310vK&#xA;MsO/CGhX5nMDX5jGFDnJwO0c5hjoc5fc8o84aDbwodYtGMNyroXjSoMjlgFaMipWSvQjMTR5yTwH&#xA;cfj7HD0GplI+Gdx+PsQGg+adS8s6pKt7A6wPIY9StGQxsky7M3pkD05RT4l6N+rI1OjGQV/EOX47&#xA;nL1eiGWNfxDl+r3fc9etLu2vLaK6tpBLBMoaORdwQc56cDE0eby84GJIOxCrkWKd/kbqkmk+d9d8&#xA;qH/eDU4f05ZDskwZYblP9nVW9qZ03Z2bjxC+cdnq+zc3iYhfOOz3PM9z3Yq7FXYq7FXYq+U/Mbib&#xA;8xvOU3Lmx1L0idukUSKBt4dM03aR9Q9zo+1j6ojyR/5ZeWj5r/Mm2WVOej+WAt/fV3V7tqi1iPup&#xA;Bk+gjLuzsNDjPVyOy8FRMzzP3PY/PX5LeQ/Ol2L7VbSSDUaBZL2zf0ZZUXosuzK/QbstRTY0zZU7&#xA;R5H5g/K/XvyznubvS459b8mTt6j8Kvd2BH2meNRR46dXUdt6fta/XaLxdx9Q+112v0PjC47SH2pb&#xA;F508qSwesuq24SlaO4R/+AajfhmkOjyg1wl0B0OYGuEs2/IzRb3WPNF755kjeHRorU6ZovqKUNxy&#xA;kWSa4CtQ8BxCqe/zGb/Q6Y4oUeZej0GmOHHR+o7l7lma5rsVdirsVdirsVfHeq6tbw6r5y1liGgf&#xA;WtQliI25qJeMY/2VM02shx5hEdzpNdDxM8Yju/W+hvyT8ly+WPI9v9dj461q7HUdWJFGEswqsZ8P&#xA;TSi08a+ObeMREADo7qMREADkGfZJLsVSm48o+VLi4NzcaLYTXLHk00ltCzk9alipOKpqqqihEAVV&#xA;FFUbAAdABireKuxV2KuxV2KobU9Qt9O0271C5PG3s4ZLiZvBIlLsfuGKvkr8m/LEnm3zPounXC87&#xA;DTydc1pqfC7GQtbwmv8AOzAkHqtcw8OO8kp/AfBxMOL97Kf+aPhzfX2ZjluxV2KuxV2KuxV2KuxV&#xA;2KuxV45/zkX+YtrpXlq68p2EnPWdWtz9c4bi2sCaSySf8ZBWNV71+VYzmIsZSEU0/wCce/JTeXfI&#xA;kV/dR8NU14rfXAI+JICgFrD22SLenYsRjGNCkgUKen5JLsVdirsVdirsVdirsVdirFfzM88R+TPK&#xA;k2rCH6zfSyJaaZaVp6t1NURqT4ChY+wwSkALKCQBZ5B84voMtxq+iHzBM2o3vmTXrGPzFOdzMssl&#xA;BCOnGJSFUAdunhmp02p8bPfQDZ1Gl1Xj6gnpEHhfXAAAAAoBsAM27uHYq7FXYq7FXYq7FXYq7FXY&#xA;q8//ADt8n6j5j8oxzaUwOqaFcpqtpA/2JmgRg0R92VjxPj88hkgJxMT1YZICcTE8iHi1nqCaxqnk&#xA;Wa2Ug32t6dOIyTyVIpPUk6fy8c0nZ2EwzyB/hDo+zMJhqJA/wg/ofVOb537sVdirsVdirsVdirsV&#xA;dirsVU7iCO4t5beTeOZGjcD+VhQ4q+YPLPl/XPJn5zeUvLmqWzXUVhPdppd8EPpXFpcQOEmHZZIe&#xA;jjt+Jx8eDhySkP4mjHg4ZykP4qfUeZDe7FXYq7FXYq7FXYq7FX//2Q==</xmpGImg:image>
               </rdf:li>
            </rdf:Alt>
         </xmp:Thumbnails>
      </rdf:Description>
      <rdf:Description rdf:about=""
            xmlns:xmpMM="http://ns.adobe.com/xap/1.0/mm/"
            xmlns:stRef="http://ns.adobe.com/xap/1.0/sType/ResourceRef#"
            xmlns:stEvt="http://ns.adobe.com/xap/1.0/sType/ResourceEvent#">
         <xmpMM:InstanceID>xmp.iid:FA7F117407206811822A9DD448A483FF</xmpMM:InstanceID>
         <xmpMM:DocumentID>xmp.did:FA7F117407206811822A9DD448A483FF</xmpMM:DocumentID>
         <xmpMM:OriginalDocumentID>uuid:5D20892493BFDB11914A8590D31508C8</xmpMM:OriginalDocumentID>
         <xmpMM:RenditionClass>proof:pdf</xmpMM:RenditionClass>
         <xmpMM:DerivedFrom rdf:parseType="Resource">
            <stRef:instanceID>uuid:ba5dc92b-6d0a-484a-ab90-b9370a4a0965</stRef:instanceID>
            <stRef:documentID>xmp.did:0980117407206811822A897E387FE54C</stRef:documentID>
            <stRef:originalDocumentID>uuid:5D20892493BFDB11914A8590D31508C8</stRef:originalDocumentID>
            <stRef:renditionClass>proof:pdf</stRef:renditionClass>
         </xmpMM:DerivedFrom>
         <xmpMM:History>
            <rdf:Seq>
               <rdf:li rdf:parseType="Resource">
                  <stEvt:action>saved</stEvt:action>
                  <stEvt:instanceID>xmp.iid:FA7F117407206811822A9DD448A483FF</stEvt:instanceID>
                  <stEvt:when>2018-09-05T11:33:42-03:00</stEvt:when>
                  <stEvt:softwareAgent>Adobe Illustrator CS6 (Macintosh)</stEvt:softwareAgent>
                  <stEvt:changed>/</stEvt:changed>
               </rdf:li>
            </rdf:Seq>
         </xmpMM:History>
      </rdf:Description>
      <rdf:Description rdf:about=""
            xmlns:illustrator="http://ns.adobe.com/illustrator/1.0/">
         <illustrator:StartupProfile>Print</illustrator:StartupProfile>
      </rdf:Description>
      <rdf:Description rdf:about=""
            xmlns:xmpTPg="http://ns.adobe.com/xap/1.0/t/pg/"
            xmlns:stDim="http://ns.adobe.com/xap/1.0/sType/Dimensions#"
            xmlns:xmpG="http://ns.adobe.com/xap/1.0/g/">
         <xmpTPg:HasVisibleOverprint>False</xmpTPg:HasVisibleOverprint>
         <xmpTPg:HasVisibleTransparency>False</xmpTPg:HasVisibleTransparency>
         <xmpTPg:NPages>1</xmpTPg:NPages>
         <xmpTPg:MaxPageSize rdf:parseType="Resource">
            <stDim:w>21.000131</stDim:w>
            <stDim:h>29.700013</stDim:h>
            <stDim:unit>Centimeters</stDim:unit>
         </xmpTPg:MaxPageSize>
         <xmpTPg:PlateNames>
            <rdf:Seq>
               <rdf:li>Cyan</rdf:li>
               <rdf:li>Magenta</rdf:li>
               <rdf:li>Yellow</rdf:li>
               <rdf:li>Black</rdf:li>
            </rdf:Seq>
         </xmpTPg:PlateNames>
         <xmpTPg:SwatchGroups>
            <rdf:Seq>
               <rdf:li rdf:parseType="Resource">
                  <xmpG:groupName>Default Swatch Group</xmpG:groupName>
                  <xmpG:groupType>0</xmpG:groupType>
               </rdf:li>
            </rdf:Seq>
         </xmpTPg:SwatchGroups>
      </rdf:Description>
      <rdf:Description rdf:about=""
            xmlns:pdf="http://ns.adobe.com/pdf/1.3/">
         <pdf:Producer>Adobe PDF library 10.01</pdf:Producer>
      </rdf:Description>
   </rdf:RDF>
</x:xmpmeta>
                                                                                                    
                                                                                                    
                                                                                                    
                                                                                                    
                                                                                                    
                                                                                                    
                                                                                                    
                                                                                                    
                                                                                                    
                                                                                                    
                                                                                                    
                                                                                                    
                                                                                                    
                                                                                                    
                                                                                                    
                                                                                                    
                                                                                                    
                                                                                                    
                                                                                                    
                                                                                                    
                           
<?xpacket end="w"?>
	</metadata>
<g>
	<path fill="#65873B" d="M-47.348-59.709c0,0-3.361-8.196-3.721-10.164c-0.359-1.967-1.406-5.842,3.512-6.74
		c4.919-0.898,18.932-0.24,20.78-1.256c1.848-1.015,3.753-3.565,4.333-5.026c0.58-1.462,3.586-7.264,7.983-8.236
		c4.397-0.973,12.373-0.905,12.373-0.905s2.206-0.911,2.352-3.818l1.987,4.381c0,0,2.273-8.887,7.667-10.889
		c5.396-2.003,20.997-8.411,26.476-17.375c5.479-8.963,7.8-12.946,7.8-12.946s3.454,12.415-2.361,27.878
		C36.016-89.343,31.259-76.444,20.918-69.98c0,0,5.066,15.678-6.865,25.482c0,0-4.908-3.678-8.56-2.333
		c-3.651,1.344-6.972,4.493-6.972,4.493l-5.264-1.919l-3.537-3.589L-47.348-59.709z"/>
	<path fill="#65873B" d="M-47.854-58.77c0,0,1.962,11.67,9.838,17.687c7.876,6.015,14.974,7.768,14.974,7.768l5.064-3.805
		c0,0,2.031,3.695,1.272,6.036c-0.758,2.341-4.123,8.038-4.123,8.038s-0.302-5.365-3.658-6.108
		c-3.354-0.743-17.504-4.934-17.504-4.934s-7.069-3.452-8.19-6.805c-1.121-3.353-0.814-10.017-0.814-10.017L-47.854-58.77z"/>
	<path fill="#F5DA00" d="M-46.957-57.656c-0.386,0.141,1.363,10.333,8.941,16.573c7.579,6.24,14.974,7.769,14.974,7.769l5.064-3.805
		l1.45,5.156l-1.458,3.146l3.914,8.157l12.592-21.677c0,0-2.997-0.638-4.488-1.383c-1.491-0.743-4.312-4.125-4.312-4.125
		l1.827-7.619c0,0,1,0.834,2.714,0.013c1.713-0.822,2.769-3.387,2.769-3.387l0.431-2.281c0,0-12.512,1.111-20.704-3.412
		c0,0-8.07-0.141-12.876,9.717C-36.119-54.815-42.812-59.168-46.957-57.656"/>
	<path fill="#72BF44" d="M-17.557-28.348l3.486,7.687L-2.128-41.34c0,0,5.404-8.386,14.031-4.182
		c8.629,4.204,23.02,13.366,23.02,13.366l0.76,7.952l7.166,6.321c0,0-2.197,0.632-3.437,0.166
		c-1.241-0.468-21.532-11.557-21.532-11.557L13.489-1.421l10.229,20.558c0,0,2.49,8.562,0.724,12.815
		c-1.766,4.254-4.868,16.381-4.868,16.381l11.458,27.27c0,0,1.735,8.236-3.347,10.784c-5.083,2.546-9.908,0.191-9.908,0.191
		L9.31,80.728c0,0-2.074,1.303-3.398,0.389c-1.322-0.915-5.76-4.959-5.76-4.959l-20.062,42.045l0.335,11.963l-1.665,3.54
		l1.328,5.999l-4.622-3.779l-0.736-4.026l-0.795-3.093l-2.323-2.581c0,0-0.572-3.133,1.48-5.819
		c2.053-2.688,5.974-7.797,5.974-7.797s2.825-3.521,3.209-5.21c0.385-1.689,2.948-24.353,2.948-24.353s1.175-6.227,2.19-8.263
		c1.016-2.034,3.759-6.004,3.759-6.004l-2.914-4.554l-1.123-4.882l-0.024-3.926c0,0-9.916-9.979-10.757-18.381
		s0.579-13.285,2.061-16.56c1.482-3.277,7.802-10.444,7.802-10.444l4.615-3.848l-0.147-4.597l-12.277-12.784
		c0,0-3.38-3.313-1.532-7.118C-21.275-22.119-17.557-28.348-17.557-28.348"/>
	<path fill="#72BF44" d="M-46.957-57.656c0,0,6.387-0.473,10.377,3.653c0,0,2.661-4.417,5.06-6.473
		c2.398-2.057,4.737-3.177,4.737-3.177l3.54-0.878l-9.219-3.634l-6.796-1.764C-39.258-69.929-46.721-66.485-46.957-57.656"/>
	<path fill="#F5DA00" d="M13.044-72.269l2.675,6.288c0,0,1.016,1.848,2.714,1.876c1.699,0.027,2.594-0.644,2.594-0.644l0.088-1.372
		l7.693,1.306l6.76,41.63l13.871,9.155c0,0,2.547-1.82,2.187-5.651c-0.361-3.831-1.08-7.765-1.08-7.765l-14.12-37.405
		c0,0-1.447-3.293-2.552-3.77c-1.104-0.477-11.992-8.144-11.992-8.144l-2.55-0.043L13.044-72.269z"/>
	<path fill="#F5DA00" d="M-36.858-12.493c0,0-2.057-0.132-1.085,2.402c0.971,2.533,5.138,11.429,5.138,11.429
		s14.785,13.225,15.38,12.777c0.596-0.448,7.253-7.594,7.253-7.594l-12.932-8.651l-2.954-3.188l0.056-3.398l-2.058-1.996
		l-1.355,0.926c0,0-1.105-2.34-1.985-2.518C-32.281-12.482-36.858-12.493-36.858-12.493"/>
	<polygon fill="#FFFFFF" points="-35.6,-40.848 -29.979,-38.824 -25.867,-42.286 -24.707,-45.209 -33.111,-41.132 	"/>
	<path fill="#FFFFFF" d="M-45.353-50.694l3.286,4.876c0,0,3.531-2.187,3.112-2.468C-39.374-48.567-45.353-50.694-45.353-50.694"/>
	<path fill="#FFFFFF" d="M-30.302-50.795c0,0,3.835-12.392,15.466-8.078C-14.836-58.873-16.777-46.32-30.302-50.795"/>
	<path d="M-43.558-66.651l4.3-3.279c0,0-5.295-2.167-6.207-0.052C-46.378-67.867-43.558-66.651-43.558-66.651"/>
	<polygon fill="#C0AE0D" points="-17.977,-37.12 -2.128,-41.339 -6.743,-44.256 -10.28,-47.846 	"/>
	<path fill="#5B9B37" d="M11.227-30.989L-3.346-13.607l6.397,19.61c0,0-2.227,0.841-1.063,3.658L-0.84,21.433
		c0,0,10.041,4.01,12.77,10.655c2.729,6.644,7.938,17.381,7.938,17.381l4.139-15.259c0,0,1.19-11.258-0.604-16.341
		C21.606,12.787,13.489-1.42,13.489-1.42l4.391-27.853C17.88-29.273,14.083-31.943,11.227-30.989"/>
	<path fill="#5B9B37" d="M-8.702,69.624c0,0-5.328,6.384-5.627,11.851c-0.301,5.465-5.15,35.789-5.15,35.789L0.151,76.158
		L-8.702,69.624z"/>
	<path fill="#231F20" d="M-42.658-50.114c0,0-1.378,1.559,1.257,4.283l3.113-2.469L-42.658-50.114z"/>
	<path fill="#231F20" d="M-22.863-32.026c-0.136,0.025-0.279,0.018-0.415-0.023c-12.743-3.832-18.801-10.759-21.637-15.896
		c-3.097-5.607-3.141-10.269-3.14-10.464c-0.001-0.063,0.006-0.127,0.019-0.189c1.959-9.01,7.706-11.942,7.95-12.062
		c0.438-0.217,0.969-0.037,1.186,0.402c0.217,0.438,0.038,0.967-0.398,1.185c-0.025,0.013-1.332,0.686-2.834,2.342
		c-1.381,1.523-3.217,4.214-4.149,8.408c0.023,0.646,0.281,4.791,2.965,9.609c3.796,6.81,10.751,11.936,20.134,14.843
		c2.032-1.503,12.674-10.005,14.199-24.115c0.053-0.486,0.49-0.838,0.976-0.786c0.487,0.053,0.838,0.49,0.785,0.976
		c-0.926,8.563-5.031,15.073-8.313,19.025c-3.553,4.279-6.854,6.518-6.993,6.611C-22.63-32.093-22.745-32.047-22.863-32.026"/>
	<path fill="#231F20" d="M-6.431-53.941c-1.344,0.246-2.287-0.697-2.624-1.495c-0.19-0.45,0.021-0.971,0.472-1.161
		c0.447-0.188,0.963,0.018,1.156,0.462c0.294,0.64,0.758,0.443,0.911,0.378c0.771-0.325,2.228-1.431,3.316-5.175
		c0.137-0.469,0.628-0.74,1.098-0.604c0.469,0.137,0.739,0.629,0.603,1.099c-1.229,4.226-3.032,5.765-4.328,6.312
		C-6.037-54.036-6.238-53.976-6.431-53.941"/>
	<path fill="#231F20" d="M-1.652-60.842c-9.906,1.811-23.844-3.714-30.276-6.264c-0.994-0.395-1.779-0.705-2.302-0.89
		c-2.498-0.879-4.924-1.472-6.831-1.67c-2.016-0.209-3.088,0.058-3.419,0.379c-0.165,0.157-0.183,0.276-0.179,0.371
		c0.017,0.463,0.592,1.095,0.853,1.312c0.375,0.313,0.426,0.872,0.112,1.248c-0.314,0.375-0.873,0.426-1.248,0.113
		c-0.146-0.122-1.438-1.237-1.487-2.605c-0.023-0.643,0.225-1.233,0.717-1.71c0.849-0.821,2.476-1.113,4.834-0.868
		c2.072,0.215,4.574,0.824,7.237,1.762c0.555,0.195,1.355,0.513,2.366,0.913c4.327,1.715,12.38,4.906,20.102,6.054
		c9.151,1.361,15.003-0.588,17.395-5.79c0.205-0.444,0.73-0.639,1.175-0.435c0.445,0.204,0.639,0.73,0.436,1.175
		C5.946-63.65,2.5-61.601-1.652-60.842"/>
	<path fill="#231F20" d="M-20.986-21.755c-0.073,0.014-0.151,0.018-0.229,0.011c-0.488-0.038-0.852-0.465-0.813-0.953
		c0.419-5.305-5.48-6.786-12.312-8.5c-6.285-1.578-12.784-3.209-15.433-8.197c-5.494-10.348,1.599-20.824,1.904-21.265
		c0.278-0.402,0.829-0.503,1.232-0.225c0.403,0.277,0.503,0.828,0.226,1.231c-0.068,0.099-6.781,10.043-1.797,19.427
		c2.278,4.292,8.389,5.826,14.299,7.31c6.973,1.751,14.183,3.56,13.646,10.358C-20.295-22.148-20.601-21.825-20.986-21.755"/>
	<path fill="#231F20" d="M-47.242-59.758c-0.348,0.063-0.714-0.086-0.912-0.405c-0.634-1.021-6.118-10.105-3.586-14.685
		c2.348-4.246,9.316-3.959,18.959-3.562c1.209,0.05,2.461,0.102,3.75,0.146c8.964,0.311,14.862-2.537,18.034-8.706
		c0.223-0.435,0.758-0.606,1.192-0.383c0.436,0.224,0.607,0.758,0.383,1.192c-3.468,6.747-10.086,9.999-19.669,9.667
		c-1.293-0.045-2.548-0.097-3.76-0.146c-8.671-0.357-15.519-0.64-17.337,2.647c-1.725,3.12,1.972,10.365,3.541,12.895
		c0.259,0.415,0.131,0.962-0.285,1.219C-47.031-59.816-47.136-59.777-47.242-59.758"/>
	<path fill="#231F20" d="M-27.189-76.645c-0.396,0.072-0.804-0.133-0.971-0.518c-0.194-0.447,0.008-0.966,0.452-1.164
		c0.048-0.021,2.274-1.08,4.051-4.585c2.434-4.801,6.1-12.035,21.644-10.169c0.485,0.058,0.833,0.499,0.774,0.985
		c-0.058,0.485-0.5,0.832-0.985,0.774c-14.312-1.718-17.51,4.59-19.845,9.196c-2.104,4.152-4.81,5.371-4.924,5.42
		C-27.057-76.677-27.123-76.656-27.189-76.645"/>
	<path fill="#231F20" d="M-15.938-24.591c-0.131,0.024-0.269,0.018-0.406-0.021c-0.469-0.136-0.739-0.627-0.603-1.098
		c2.073-7.13-1.231-11.26-1.374-11.433c-0.31-0.377-0.257-0.935,0.119-1.246c0.376-0.311,0.931-0.261,1.244,0.113
		c0.167,0.199,4.061,4.982,1.712,13.061C-15.342-24.883-15.618-24.65-15.938-24.591"/>
	<path fill="#231F20" d="M-0.754,7.083c-0.033,0.006-0.068,0.011-0.104,0.012C-2.314,7.188-4.223,6.287-6.694,4.34
		C-8.35,3.034-9.65,1.727-9.804,1.571c-0.54-0.508-9.539-8.979-12.985-12.812c-2.052-2.281-2.136-4.471-1.845-5.907
		c0.27-1.33,0.908-2.264,1.108-2.532c0.428-0.788,4.905-9.07,5.557-11.563c0.645-2.462-0.06-4.686-0.067-4.708
		c-0.15-0.465,0.105-0.965,0.569-1.116c0.467-0.15,0.966,0.104,1.117,0.57c0.036,0.11,0.869,2.743,0.094,5.701
		c-0.736,2.814-5.543,11.648-5.747,12.023c-0.026,0.048-0.057,0.094-0.092,0.136c-0.092,0.115-2.301,2.96,0.622,6.21
		c3.428,3.813,12.8,12.629,12.895,12.719C-8.57,0.3-8.561,0.309-8.552,0.317c1.958,1.999,5.75,5.127,7.582,5.011
		c0.489-0.032,0.909,0.339,0.94,0.826C-0.001,6.607-0.318,7.004-0.754,7.083"/>
	<path fill="#231F20" d="M-5.319-12.047c-2.086,0.381-4.07,0.178-4.202,0.164c-0.052-0.006-0.103-0.016-0.153-0.03l-4.043-1.175
		c-0.47-0.136-0.739-0.627-0.604-1.097c0.137-0.471,0.629-0.74,1.098-0.604l3.966,1.152c1.29,0.123,4.719,0.126,6.286-1.252
		c2.207-1.94,6.17-5.771,6.209-5.81c0.353-0.34,0.913-0.331,1.253,0.021c0.34,0.352,0.331,0.913-0.021,1.252
		c-0.041,0.039-4.034,3.898-6.272,5.867C-2.749-12.725-4.053-12.278-5.319-12.047"/>
	<path fill="#231F20" d="M-10.168,9.847c-0.176,0.032-0.363,0.012-0.535-0.07c-0.443-0.208-0.633-0.735-0.425-1.178
		c1.15-2.445,1.058-7.592,1.057-7.643c-0.01-0.49,0.376-0.894,0.868-0.904C-8.715,0.042-8.31,0.43-8.3,0.919
		c0.004,0.228,0.101,5.613-1.226,8.433C-9.651,9.621-9.896,9.797-10.168,9.847"/>
	<path fill="#231F20" d="M12.492,82.433c-0.286,0.053-0.591-0.036-0.805-0.264c-0.123-0.131-12.426-13.186-23.416-24.414
		c-10.365-10.59-14.206-19.276-13.257-29.986c0.394-4.437,2.905-9.48,7.467-14.993c3.359-4.061,6.556-6.809,6.691-6.924
		c0.372-0.317,0.931-0.273,1.25,0.098C-9.26,6.321-9.303,6.88-9.676,7.198C-9.802,7.307-22.353,18.15-23.219,27.926
		c-0.44,4.967,0.18,9.261,1.952,13.514c1.971,4.73,5.506,9.663,10.805,15.077C0.54,67.756,12.853,80.823,12.977,80.955
		c0.335,0.355,0.318,0.917-0.037,1.251C12.81,82.328,12.655,82.403,12.492,82.433"/>
	<path fill="#231F20" d="M14.72,5.125c-0.334,0.062-0.688-0.073-0.891-0.372c-2.044-2.994-1.005-8.25-0.911-8.698l4.185-25.625
		c0.078-0.483,0.533-0.81,1.017-0.731c0.482,0.079,0.81,0.534,0.731,1.018L14.662-3.639c-0.001,0.015-0.005,0.029-0.007,0.043
		c-0.01,0.048-1.024,4.917,0.637,7.351c0.276,0.404,0.173,0.955-0.23,1.231C14.955,5.058,14.838,5.104,14.72,5.125"/>
	<path fill="#231F20" d="M19.963,49.056c-0.14,0.026-0.288,0.017-0.433-0.03c-0.465-0.149-0.719-0.649-0.569-1.115
		c0.028-0.087,2.852-8.791,4.503-15.213c2.325-9.044-2.057-16.959-2.103-17.038c-0.005-0.009-0.01-0.019-0.014-0.028L13.02-0.42
		c-0.225-0.434-0.056-0.968,0.379-1.193c0.436-0.226,0.969-0.056,1.194,0.378l8.321,16.038c0.291,0.521,4.739,8.72,2.266,18.336
		c-1.665,6.476-4.504,15.231-4.531,15.32C20.542,48.778,20.274,48.999,19.963,49.056"/>
	<path fill="#231F20" d="M25.562,88.425c-1.076,0.196-2.276,0.193-3.663,0.09c-3.865-0.288-5.275-1.373-9.953-4.969
		c-0.585-0.449-1.223-0.94-1.927-1.477C3.804,77.336-7.952,67.165-8.071,67.062c-0.37-0.321-0.41-0.88-0.09-1.248
		c0.32-0.37,0.88-0.41,1.25-0.092c0.116,0.102,11.832,10.238,18.003,14.936c0.706,0.538,1.347,1.031,1.934,1.481
		c4.581,3.521,5.669,4.358,9.005,4.606c3.883,0.29,5.635-0.281,7.729-4.068c2.074-3.751-0.609-8.348-0.635-8.396
		c-0.023-0.034-0.043-0.074-0.059-0.114c-0.109-0.264-10.959-26.481-15.882-37.435C8.426,26.143-1.035,22.725-1.131,22.691
		c-0.461-0.161-0.705-0.667-0.544-1.128c0.161-0.462,0.665-0.706,1.127-0.546c0.417,0.146,10.265,3.677,15.348,14.989
		c4.823,10.734,15.313,36.06,15.879,37.429c0.367,0.639,3.087,5.659,0.631,10.1C29.566,86.69,27.845,88.007,25.562,88.425"/>
	<path fill="#231F20" d="M8.359,81.983c-2.457,0.448-5.744-2.608-6.507-3.36c-0.453-0.396-8.208-7.172-12.231-10.805
		c-4.474-4.039-3.267-11.769-3.214-12.095c0.08-0.483,0.535-0.809,1.018-0.731c0.482,0.079,0.81,0.534,0.731,1.018
		c-0.011,0.07-1.1,7.105,2.653,10.494c4.114,3.715,12.149,10.732,12.229,10.803c0.013,0.012,0.027,0.024,0.04,0.036
		c1.636,1.615,4.375,3.471,5.257,2.766c0.381-0.306,0.939-0.244,1.245,0.138c0.306,0.382,0.243,0.94-0.139,1.245
		C9.109,81.756,8.744,81.913,8.359,81.983"/>
	<path fill="#231F20" d="M13.477,35.451c-0.231,0.042-0.477-0.007-0.681-0.154c-0.396-0.287-0.483-0.842-0.196-1.237
		c0.041-0.058,2.842-3.981,2.419-7.141c-0.064-0.485,0.281-0.931,0.76-0.996c0.486-0.064,0.932,0.275,0.997,0.761
		c0.519,3.873-2.609,8.233-2.743,8.416C13.895,35.292,13.692,35.412,13.477,35.451"/>
	<path fill="#231F20" d="M-20.171,140.526c-0.719,0.132-1.78-0.142-4.947-4.357c-1.323-1.761-1.295-2.882-1.124-4.872
		c0.096-1.127-0.401-1.8-1.535-3.215c-0.274-0.342-0.584-0.73-0.907-1.16c-0.834-1.11-0.952-2.671-0.35-4.637
		c0.412-1.347,1.027-2.409,1.053-2.454c0.023-0.037,0.05-0.076,0.077-0.111c0.05-0.062,4.917-6.06,7.715-9.279
		c1.165-1.343,2.346-5.206,3.239-10.604c0.819-4.949,1.36-10.997,1.446-16.179c0.177-10.556,6.019-15.54,6.268-15.748
		c0.376-0.312,0.933-0.262,1.247,0.115c0.313,0.374,0.262,0.933-0.112,1.246c-0.085,0.071-5.47,4.74-5.632,14.417
		c-0.15,9.055-1.882,24.189-5.118,27.914c-2.635,3.032-7.132,8.563-7.631,9.178c-0.546,0.968-1.76,3.778-0.785,5.077
		c0.306,0.407,0.595,0.769,0.875,1.116c1.16,1.45,2.079,2.595,1.917,4.474c-0.157,1.829-0.16,2.412,0.775,3.657
		c1.523,2.025,2.413,2.938,2.896,3.347c-0.033-1.146-0.557-2.948-0.95-3.993c-0.084-0.224-0.074-0.473,0.028-0.69
		c0.027-0.057,2.687-5.893,1.053-15.726c-0.03-0.177-0.004-0.359,0.073-0.521c0,0,4.93-10.477,9.875-20.948
		C-7.852,90.493-5.56,85.649-3.91,82.18c0.933-1.964,1.712-3.599,2.263-4.741c0.276-0.575,0.494-1.025,0.646-1.332
		c0.262-0.529,0.587-1.188,1.348-0.899c0.433,0.163,0.665,0.641,0.537,1.086c-0.029,0.098-0.073,0.188-0.13,0.268
		c-0.914,1.744-14.314,30.166-19.633,41.465c1.436,8.992-0.511,14.706-1.093,16.147c0.349,0.997,1.221,3.741,0.844,5.301
		c-0.193,0.797-0.762,0.995-0.998,1.045C-20.143,140.521-20.157,140.524-20.171,140.526"/>
	<path fill="#231F20" d="M-16.982,14.389c-0.246,0.046-0.511-0.015-0.721-0.185c-0.111-0.092-11.141-9.128-12.88-10.472
		c-1.855-1.431-3.264-3.42-3.323-3.504c-0.016-0.021-0.029-0.042-0.042-0.063c-0.172-0.296-4.241-7.289-5.037-9.745
		c-0.348-1.076-0.319-2.005,0.089-2.764c0.508-0.945,1.408-1.22,1.51-1.249c0.109-0.031,0.221-0.04,0.333-0.027l4.637,0.5
		c0.347,0.024,2.6,0.25,3.346,1.896c0.545,1.204,3.544,6.662,3.574,6.717c0.019,0.035,0.037,0.072,0.051,0.11
		c0.03,0.078,0.295,0.791,0.333,1.665c0.056,1.317-0.449,2.356-1.423,2.927C-26.956,0.443-27.5,0.3-27.747-0.121
		c-0.247-0.422-0.105-0.965,0.316-1.212c0.914-0.535,0.447-2.086,0.347-2.383c-0.357-0.65-3.053-5.568-3.6-6.775
		c-0.258-0.569-1.372-0.827-1.871-0.862c-0.011,0-0.024-0.001-0.035-0.003l-4.438-0.479c-0.269,0.146-0.644,0.562-0.272,1.709
		c0.71,2.192,4.543,8.815,4.862,9.363c0.171,0.237,1.41,1.914,2.937,3.094c1.76,1.359,12.466,10.13,12.921,10.503
		c0.378,0.31,0.434,0.867,0.124,1.247C-16.595,14.249-16.782,14.354-16.982,14.389"/>
	<path fill="#231F20" d="M-26.819-1.265c-0.079,0.014-0.161,0.019-0.246,0.01l-3.614-0.354c-0.486-0.048-0.843-0.481-0.795-0.968
		c0.048-0.486,0.482-0.843,0.968-0.795l3.614,0.354c0.488,0.048,0.843,0.481,0.796,0.969C-26.136-1.647-26.439-1.334-26.819-1.265"
		/>
	<path fill="#231F20" d="M-29.36-8.284c-0.066,0.012-0.135,0.015-0.205,0.007l-4.818-0.526c-0.389-0.043-0.67-0.392-0.627-0.782
		c0.043-0.389,0.391-0.669,0.782-0.627l4.817,0.526c0.389,0.042,0.67,0.392,0.627,0.781C-28.818-8.585-29.059-8.339-29.36-8.284"/>
	<path fill="#231F20" d="M-27.544-5.006c-0.066,0.012-0.134,0.015-0.203,0.007l-4.818-0.526c-0.388-0.042-0.669-0.393-0.627-0.781
		c0.042-0.389,0.39-0.67,0.781-0.627l4.817,0.526c0.389,0.042,0.67,0.392,0.627,0.781C-27.002-5.308-27.244-5.062-27.544-5.006"/>
	<path fill="#231F20" d="M-26.113-3.207c-0.12,0.021-0.247,0.019-0.374-0.013c-0.475-0.12-0.762-0.601-0.643-1.075
		c0.339-1.357,0.629-3.867-0.037-4.824c-0.152-0.218-0.387-0.486-0.654-0.528c-0.271-0.043-0.534,0.151-0.538,0.153
		c-0.378,0.311-0.929,0.251-1.24-0.127c-0.311-0.378-0.25-0.94,0.128-1.251c0.084-0.069,0.854-0.675,1.884-0.531
		c0.5,0.069,1.23,0.346,1.874,1.273c1.338,1.925,0.41,5.829,0.301,6.267C-25.5-3.516-25.781-3.268-26.113-3.207"/>
	<path fill="#231F20" d="M-10.863,7.188c-0.21,0.038-0.436,0.002-0.631-0.122l-11.65-7.335c-0.177-0.112-0.31-0.283-0.373-0.483
		c-0.996-3.162-2.578-3.521-2.594-3.524l0.025,0.005l0.249-1.755c0.263,0.038,2.554,0.474,3.907,4.429l11.38,7.165
		c0.414,0.261,0.538,0.809,0.277,1.223C-10.41,7.007-10.628,7.145-10.863,7.188"/>
	<path fill="#231F20" d="M-14.436-19.597c-0.061,0.011-0.123,0.015-0.187,0.009c-0.27-0.023-0.503-0.197-0.601-0.45l-3.198-8.226
		c-0.142-0.365,0.039-0.775,0.404-0.918c0.364-0.141,0.774,0.039,0.917,0.404l2.67,6.871l12.476-20.988
		c0.2-0.336,0.635-0.447,0.971-0.247c0.336,0.199,0.447,0.634,0.247,0.971l-13.218,22.238
		C-14.06-19.753-14.238-19.632-14.436-19.597"/>
	<path fill="#231F20" d="M34.01-31.87c-0.197,0.036-0.408,0.005-0.598-0.103c-0.111-0.063-11.319-6.463-20.1-12.247
		c-8.047-5.299-13.716,1.916-13.953,2.226c-0.172,0.225-0.444,0.355-0.725,0.348c-2.261-0.052-5.755-1.007-9.563-5.256
		c-0.055-0.062-0.095-0.108-0.121-0.134c-0.34-0.352-0.33-0.913,0.022-1.253c0.352-0.34,0.912-0.33,1.252,0.021
		c0.036,0.036,0.092,0.099,0.167,0.183c3.151,3.516,5.958,4.492,7.872,4.646c1.443-1.618,7.722-7.728,16.021-2.261
		c8.736,5.753,19.894,12.124,20.007,12.188c0.424,0.243,0.572,0.784,0.33,1.209C34.486-32.067,34.259-31.915,34.01-31.87"/>
	<path fill="#231F20" d="M42.135-16.677c-2.159,0.394-4.95-1.204-5.376-1.459c-0.942-0.499-16.977-9.006-19.719-11.045
		c-2.392-1.776-5.893-1.011-5.927-1.004c-0.478,0.107-0.952-0.191-1.06-0.669c-0.107-0.477,0.192-0.951,0.669-1.06
		c0.175-0.04,4.336-0.946,7.373,1.311c2.661,1.976,19.346,10.823,19.514,10.912c0.016,0.008,0.03,0.015,0.043,0.023
		c1.113,0.669,3.291,1.583,4.387,1.188c0.461-0.166,0.967,0.073,1.133,0.533c0.166,0.461-0.072,0.968-0.531,1.134
		C42.478-16.752,42.308-16.708,42.135-16.677"/>
	<path fill="#231F20" d="M49.703-13.087c-0.524,0.096-1.085-0.029-1.623-0.374c-2.875-1.844-12.564-9.228-12.977-9.541
		c-0.182-0.137-0.302-0.339-0.338-0.563l-6.486-40.076l-6.116-1.594c-0.073,0.283-0.186,0.59-0.356,0.907
		c-0.93,1.726-4.441,1.023-5.136,0.865c-1.612-0.368-2.492-2.858-2.725-3.613l-1.644-5.288c-0.124-0.396,0.045-0.823,0.406-1.03
		c0.046-0.027,4.726-2.721,6.449-4.016c1.867-1.403,4.036-0.181,4.958,0.689c0.583,0.454,8.133,6.323,10.289,7.68
		c2.474,1.555,3.808,5.677,3.936,6.082c0.357,0.97,11.116,30.134,13.035,36.092c1.493,4.635,1.471,11.638-0.796,13.382
		C50.306-13.277,50.01-13.143,49.703-13.087 M36.459-24.196c1.646,1.251,10.031,7.611,12.578,9.244
		c0.297,0.19,0.385,0.122,0.461,0.062c1.197-0.921,1.77-6.529,0.191-11.435c-1.932-5.993-12.908-35.744-13.02-36.043
		c-0.006-0.017-0.012-0.032-0.016-0.049c-0.33-1.074-1.545-4.089-3.193-5.125c-2.309-1.451-10.136-7.55-10.47-7.809
		c-0.024-0.021-0.049-0.041-0.071-0.062c-0.061-0.058-1.545-1.448-2.698-0.581c-1.44,1.082-4.661,2.988-6.017,3.779l1.434,4.615
		c0.358,1.154,1.049,2.323,1.426,2.409c1.582,0.361,2.969,0.243,3.193,0.006c0.093-0.175,0.155-0.344,0.193-0.497l-1.93-0.503
		c-0.474-0.123-0.756-0.607-0.634-1.081c0.123-0.474,0.61-0.757,1.081-0.634l2.126,0.554c0.042-0.014,0.085-0.025,0.13-0.034
		c0.315-0.058,0.622,0.059,0.821,0.281l7.24,1.887c0.34,0.088,0.596,0.369,0.652,0.716L36.459-24.196z"/>
	<path fill="#231F20" d="M-36.096-53.76c-0.184,0.034-0.375-0.006-0.53-0.113c-2.781-1.922-5.439-2.724-7.179-3.059
		c-1.893-0.364-3.143-0.27-3.155-0.269c-0.39,0.032-0.732-0.259-0.765-0.647c-0.032-0.389,0.253-0.73,0.646-0.764
		c0.214-0.018,5.094-0.383,10.594,3.131c0.538-0.964,1.644-2.76,3.303-4.567c3.207-3.492,6.954-5.326,10.833-5.303
		c0.392,0.003,0.707,0.322,0.705,0.713c-0.002,0.392-0.32,0.708-0.713,0.705c-3.518-0.021-6.81,1.608-9.78,4.843
		c-2.246,2.447-3.435,4.914-3.447,4.938c-0.09,0.187-0.257,0.327-0.457,0.38C-36.059-53.767-36.078-53.763-36.096-53.76"/>
	<path fill="#72BF44" d="M12.848-58.509c0,0,4.404,8.344,15.033,8.096C27.881-50.412,24.802-57.982,12.848-58.509"/>
	<path fill="#72BF44" d="M28.008-49.715c-0.035,0.007-0.072,0.011-0.109,0.011c-10.941,0.255-15.631-8.386-15.677-8.474
		c-0.118-0.225-0.108-0.496,0.028-0.71c0.135-0.215,0.375-0.34,0.63-0.329c12.269,0.54,15.525,8.211,15.658,8.538
		c0.088,0.215,0.064,0.461-0.062,0.655C28.365-49.86,28.197-49.749,28.008-49.715 M14.205-57.704
		c1.509,2.083,5.421,6.302,12.482,6.574C25.489-53.008,22.072-56.954,14.205-57.704"/>
	<path fill="#204F10" d="M19.087-99.464c0,0,1.898-11.868,16.27-11.105C35.357-110.569,33.787-98.762,19.087-99.464"/>
	<path fill="#204F10" d="M24.245-99.062c-1.596,0.292-3.343,0.395-5.193,0.307c-0.201-0.011-0.388-0.105-0.514-0.261
		c-0.128-0.157-0.183-0.36-0.15-0.56c0.013-0.095,1.641-9.536,11.906-11.412c1.572-0.288,3.288-0.384,5.099-0.288
		c0.198,0.011,0.381,0.103,0.507,0.255c0.128,0.152,0.184,0.35,0.157,0.546C36.047-110.381,34.677-100.969,24.245-99.062
		 M19.969-100.146c1.427,0.021,2.776-0.083,4.021-0.311c7.726-1.412,9.942-7.306,10.497-9.436c-1.394-0.025-2.716,0.073-3.939,0.297
		C22.872-108.192,20.566-102.312,19.969-100.146"/>
	<path fill="#72BF44" d="M12.019-85.296c0,0-0.36-1.967,3.053-2.76s6.063-4.835,6.166-7.057l-4.395,2.836
		c0,0-2.504,1.136-2.129,4.116"/>
	<path fill="#72BF44" d="M12.148-84.59c-0.385,0.07-0.756-0.194-0.826-0.58c-0.019-0.098-0.367-2.228,2.653-3.306
		c-0.128-2.479,1.536-3.952,2.523-4.423l4.355-2.81c0.221-0.143,0.507-0.151,0.737-0.018c0.229,0.132,0.366,0.381,0.354,0.646
		c-0.115,2.505-2.985,6.848-6.714,7.714c-2.649,0.616-2.521,1.906-2.513,1.961C12.79-85.02,12.532-84.66,12.148-84.59
		 M20.077-93.521l-2.851,1.84c-0.029,0.019-0.061,0.035-0.092,0.049c-0.071,0.034-1.675,0.81-1.747,2.75
		C17.554-89.614,19.292-91.761,20.077-93.521"/>
	<path fill="#72BF44" d="M20.561-85.841c0,0,4.769,0.145,7.779-3.793c1.723-2.255,1.322-4.816,1.322-4.816s-2.803,1.359-3.947,3.433
		c-1.146,2.073-1.74,4.384-1.74,4.384"/>
	<path fill="#72BF44" d="M22.374-85.304c-1.038,0.189-1.759,0.174-1.836,0.171c-0.393-0.011-0.698-0.338-0.687-0.729
		c0.011-0.392,0.338-0.698,0.729-0.687c0.029,0,1.229,0.019,2.761-0.466c0.176-0.625,0.761-2.556,1.752-4.346
		c1.24-2.244,4.136-3.667,4.26-3.727c0.199-0.098,0.436-0.094,0.636,0.01c0.199,0.104,0.339,0.297,0.372,0.519
		c0.019,0.117,0.426,2.887-1.459,5.355C26.884-86.562,24.159-85.63,22.374-85.304 M28.971-93.233
		c-0.849,0.548-2.025,1.451-2.636,2.558c-0.566,1.022-0.994,2.115-1.277,2.933c0.948-0.517,1.906-1.259,2.719-2.32
		C28.631-91.184,28.9-92.389,28.971-93.233"/>
	<path fill="#204F10" d="M-9.133-83.295c0,0,1.129-4.95,4.392-6.563c3.263-1.612,5.199-4,5.048-6.683c0,0,4.507,6.123,0.248,10.629
		C-4.385-80.687-9.133-83.295-9.133-83.295"/>
	<path fill="#204F10" d="M-4.658-82.071c-2.758,0.504-4.733-0.558-4.815-0.604c-0.277-0.152-0.42-0.469-0.35-0.779
		c0.049-0.216,1.244-5.299,4.77-7.041c3.087-1.525,4.785-3.715,4.654-6.007c-0.017-0.313,0.174-0.6,0.468-0.707
		c0.294-0.107,0.625-0.006,0.812,0.246c0.047,0.065,4.804,6.656,0.192,11.535C-0.68-83.574-2.607-82.446-4.658-82.071
		 M-8.283-83.707c0.65,0.225,1.872,0.516,3.371,0.242c1.748-0.32,3.414-1.307,4.954-2.934c1.574-1.666,2.016-3.78,1.316-6.286
		c-0.177-0.631-0.406-1.211-0.638-1.707c-0.677,2.026-2.462,3.843-5.146,5.17C-6.733-88.083-7.891-84.99-8.283-83.707"/>
	<path fill="#72BF44" d="M44.144-118.105c0,0-1.242-5.872,1.156-8.513c2.398-2.64,6.346-6.073,6.346-6.073s-0.129,5.785-1.155,8.513
		S49.137-119.526,44.144-118.105"/>
	<path fill="#72BF44" d="M44.273-117.408c-0.17,0.031-0.345,0-0.494-0.09c-0.168-0.102-0.286-0.268-0.327-0.459
		c-0.053-0.255-1.287-6.26,1.325-9.137c2.398-2.641,6.242-5.989,6.405-6.131c0.211-0.185,0.511-0.227,0.765-0.106
		c0.255,0.118,0.416,0.376,0.408,0.657c-0.006,0.241-0.145,5.937-1.201,8.746c-0.077,0.209-0.152,0.413-0.225,0.613
		c-0.912,2.504-1.635,4.484-6.59,5.894C44.316-117.417,44.295-117.412,44.273-117.408 M50.861-131.043
		c-1.354,1.223-3.521,3.235-5.035,4.902c-1.646,1.813-1.342,5.521-1.115,7.124c3.566-1.165,4.076-2.562,4.886-4.784
		c0.075-0.203,0.151-0.412,0.231-0.625C50.469-126.131,50.746-129.159,50.861-131.043"/>
	<path fill="#72BF44" d="M35.383-115.996c0,0-1.855-6.438,3.257-9.065C38.638-125.062,41.564-120.175,35.383-115.996"/>
	<path fill="#72BF44" d="M35.509-115.298c-0.121,0.022-0.249,0.012-0.368-0.031c-0.215-0.077-0.378-0.252-0.44-0.47
		c-0.02-0.07-1.95-7.031,3.614-9.893c0.332-0.17,0.741-0.054,0.934,0.267c1.131,1.889,1.861,6.414-3.47,10.017
		C35.695-115.353,35.603-115.316,35.509-115.298 M38.322-124.056c-1.48,0.995-2.326,2.518-2.52,4.536
		c-0.083,0.875-0.023,1.687,0.059,2.29C39.258-119.978,38.775-122.813,38.322-124.056"/>
	<path fill="#72BF44" d="M44-130.955c0,0-0.764-3.249,0.34-4.636c1.102-1.387,1.934-4.25,1.934-4.25S47.066-134.565,44-130.955"/>
	<path fill="#72BF44" d="M44.127-130.257c-0.094,0.017-0.196,0.015-0.293-0.009c-0.26-0.062-0.461-0.266-0.523-0.526
		c-0.086-0.366-0.805-3.63,0.475-5.239c0.832-1.049,1.588-3.248,1.808-4.007c0.093-0.32,0.396-0.532,0.728-0.51
		c0.332,0.022,0.604,0.272,0.654,0.602c0.033,0.229,0.804,5.64-2.436,9.452C44.431-130.368,44.285-130.286,44.127-130.257
		 M45.472-136.025c-0.182,0.319-0.376,0.618-0.578,0.874c-0.371,0.468-0.471,1.361-0.438,2.25
		C45-133.936,45.305-135.026,45.472-136.025"/>
	<path fill="#72BF44" d="M44.18-112.351c0,0-0.376-2.981,1.919-3.401c2.297-0.419,4.054-1.926,4.054-1.926
		S47.504-113.636,44.18-112.351"/>
	<path fill="#72BF44" d="M44.308-111.654c-0.168,0.031-0.343,0-0.492-0.089c-0.188-0.111-0.312-0.303-0.34-0.52
		c-0.158-1.261,0.159-3.76,2.496-4.187c2.084-0.381,3.703-1.753,3.719-1.768c0.27-0.229,0.664-0.227,0.93,0.005
		c0.266,0.234,0.318,0.626,0.125,0.92c-0.113,0.173-2.815,4.249-6.311,5.6C44.394-111.673,44.351-111.661,44.308-111.654
		 M47.246-115.31c-0.324,0.104-0.666,0.191-1.02,0.256c-0.891,0.163-1.211,0.912-1.318,1.568
		C45.769-113.982,46.564-114.643,47.246-115.31"/>
	<path fill="#72BF44" d="M16.573-49.903c0,0,2.931-0.664,3.572,1.58c0.642,2.243,2.312,3.846,2.312,3.846
		S18.177-46.721,16.573-49.903"/>
	<path fill="#72BF44" d="M22.589-43.781c-0.01,0.002-0.02,0.003-0.03,0.005c-0.144,0.021-0.293-0.001-0.431-0.073
		c-0.183-0.096-4.502-2.387-6.188-5.734c-0.098-0.194-0.1-0.423-0.007-0.62c0.092-0.197,0.271-0.341,0.482-0.39
		c0,0,0.039-0.009,0.11-0.021c1.623-0.297,3.723,0.075,4.301,2.098c0.523,1.833,1.827,3.23,2.079,3.488
		c0.129,0.104,0.221,0.25,0.253,0.425C23.23-44.221,22.975-43.851,22.589-43.781 M17.771-49.295
		c0.577,0.811,1.315,1.541,2.047,2.155c-0.135-0.313-0.256-0.644-0.354-0.989C19.381-48.418,19.037-49.221,17.771-49.295"/>
	<path fill="#72BF44" d="M38.159-110.065c0,0-0.808-4.427,3.244-6.353C41.404-116.418,42.196-113.005,38.159-110.065"/>
	<path fill="#72BF44" d="M38.287-109.367c-0.13,0.023-0.264,0.01-0.391-0.04c-0.227-0.09-0.391-0.291-0.434-0.53
		c-0.312-1.717,0.043-5.413,3.639-7.121c0.193-0.092,0.418-0.092,0.611,0.002c0.191,0.093,0.334,0.269,0.381,0.478
		c0.037,0.158,0.85,3.907-3.516,7.086C38.489-109.429,38.39-109.387,38.287-109.367 M40.732-115.188
		c-1.41,1.076-1.82,2.567-1.912,3.643C40.219-112.922,40.633-114.285,40.732-115.188"/>
	<path fill="#72BF44" d="M30.863-119.405c0,0-2.145,3.102,0.287,6.215C31.15-113.189,33.696-116.873,30.863-119.405"/>
	<path fill="#72BF44" d="M31.277-112.492c-0.033,0.006-0.068,0.01-0.105,0.011c-0.225,0.007-0.441-0.095-0.578-0.272
		c-2.178-2.788-1.157-5.833-0.314-7.055c0.115-0.166,0.298-0.277,0.5-0.3c0.201-0.024,0.403,0.04,0.555,0.175
		c2.611,2.332,1.404,5.694,0.4,7.146C31.627-112.63,31.461-112.526,31.277-112.492 M31.017-118.143
		c-0.309,0.816-0.568,2.124,0.084,3.53C31.478-115.531,31.789-116.918,31.017-118.143"/>
	<path fill="#72BF44" d="M37.159-95.142c0,0-1.034-6.588,1.989-9.512c3.023-2.925,3.977-5.132,3.977-5.132
		S48.113-99.177,37.159-95.142"/>
	<path fill="#72BF44" d="M37.287-94.444c-0.166,0.03-0.34,0-0.487-0.086c-0.183-0.107-0.308-0.292-0.341-0.501
		c-0.044-0.284-1.054-6.987,2.196-10.132c2.864-2.771,3.811-4.884,3.819-4.905c0.111-0.254,0.361-0.421,0.64-0.425
		c0.278-0.003,0.532,0.155,0.651,0.406c0.096,0.205,2.334,5.063,0.456,9.644c-1.107,2.701-3.402,4.709-6.818,5.967
		C37.365-94.463,37.326-94.451,37.287-94.444 M42.98-108.104c-0.631,0.966-1.688,2.36-3.338,3.959
		c-2.098,2.027-2.027,6.172-1.881,7.998c2.556-1.115,4.284-2.735,5.145-4.825C43.993-103.614,43.467-106.463,42.98-108.104"/>
	<path fill="#72BF44" d="M28.613-82.567c0,0,0.727-4.368,3.394-5.533c2.668-1.166,4.917-2.763,4.917-2.763
		S38.662-81.354,28.613-82.567"/>
	<path fill="#72BF44" d="M32.185-81.913c-1.073,0.197-2.303,0.213-3.656,0.049c-0.191-0.022-0.366-0.124-0.482-0.278
		c-0.115-0.155-0.164-0.352-0.131-0.541c0.03-0.194,0.822-4.763,3.809-6.067c2.57-1.123,4.768-2.675,4.791-2.69
		c0.195-0.14,0.452-0.169,0.676-0.079c0.225,0.092,0.387,0.291,0.43,0.529C38.116-88.285,37.615-82.905,32.185-81.913
		 M29.482-83.197c3.697,0.245,5.943-1.146,6.631-4.122c0.198-0.851,0.232-1.674,0.214-2.299c-0.925,0.585-2.397,1.45-4.035,2.166
		C30.623-86.723,29.803-84.404,29.482-83.197"/>
	<path fill="#72BF44" d="M39.904-93.103c0,0,3.862,1.667,7.886-0.424C47.789-93.526,45.013-95.73,39.904-93.103"/>
	<path fill="#72BF44" d="M45.299-91.932L45.299-91.932c-3.107,0.567-5.572-0.475-5.676-0.52c-0.252-0.108-0.418-0.353-0.428-0.626
		c-0.008-0.274,0.143-0.529,0.386-0.654c1.177-0.605,2.336-1.015,3.444-1.218c3.306-0.604,5.13,0.809,5.206,0.869
		c0.188,0.149,0.288,0.384,0.265,0.623s-0.166,0.451-0.379,0.561C47.228-92.437,46.281-92.112,45.299-91.932 M42.138-93.269
		c0.812,0.108,1.818,0.142,2.904-0.058c0.309-0.056,0.611-0.129,0.908-0.218c-0.66-0.148-1.555-0.216-2.674-0.011
		C42.906-93.487,42.525-93.392,42.138-93.269"/>
	<path fill="#72BF44" d="M19.324-61.202c0,0,3.862,1.666,7.886-0.425C27.211-61.627,24.435-63.83,19.324-61.202"/>
	<path fill="#72BF44" d="M24.719-60.033L24.719-60.033c-3.106,0.567-5.572-0.475-5.676-0.52c-0.251-0.107-0.418-0.352-0.427-0.626
		c-0.01-0.274,0.141-0.529,0.383-0.654c1.177-0.606,2.337-1.015,3.445-1.218c3.306-0.604,5.13,0.809,5.205,0.868
		c0.188,0.149,0.288,0.384,0.265,0.623c-0.022,0.239-0.166,0.45-0.378,0.562C26.65-60.537,25.703-60.213,24.719-60.033
		 M21.561-61.37c0.811,0.108,1.816,0.142,2.904-0.058c0.307-0.056,0.611-0.128,0.908-0.218c-0.662-0.148-1.555-0.215-2.675-0.011
		C22.327-61.588,21.947-61.492,21.561-61.37"/>
	<path fill="#72BF44" d="M-11.694-76.964c0,0,3.862,1.667,7.885-0.425C-3.809-77.389-6.584-79.592-11.694-76.964"/>
	<path fill="#72BF44" d="M-6.3-75.795L-6.3-75.795c-3.106,0.567-5.572-0.474-5.676-0.519c-0.251-0.109-0.418-0.353-0.427-0.627
		c-0.009-0.274,0.14-0.529,0.385-0.654c1.177-0.605,2.335-1.015,3.443-1.217c3.306-0.604,5.13,0.808,5.207,0.868
		c0.188,0.149,0.288,0.383,0.264,0.623c-0.023,0.239-0.166,0.45-0.379,0.561C-4.369-76.298-5.317-75.975-6.3-75.795 M-9.458-77.132
		c0.81,0.109,1.816,0.142,2.903-0.057c0.307-0.056,0.61-0.128,0.909-0.217c-0.662-0.148-1.555-0.215-2.675-0.011
		C-8.691-77.35-9.072-77.254-9.458-77.132"/>
	<path fill="#204F10" d="M26.605-77.796c0,0,4.775,5.736,13.864,1.703C40.469-76.094,36.351-81.948,26.605-77.796"/>
	<path fill="#204F10" d="M36.75-74.18L36.75-74.18c-6.912,1.262-10.537-2.981-10.689-3.162c-0.145-0.173-0.196-0.402-0.145-0.621
		c0.053-0.217,0.205-0.397,0.41-0.485c1.45-0.618,2.868-1.056,4.215-1.302c7.202-1.316,10.377,3.061,10.508,3.247
		c0.123,0.174,0.16,0.393,0.105,0.597c-0.059,0.205-0.202,0.373-0.396,0.459C39.4-74.844,38.051-74.417,36.75-74.18 M27.89-77.544
		c1.267,1.043,4.148,2.785,8.604,1.971h0.002c0.9-0.165,1.83-0.43,2.773-0.79c-1.127-1.047-3.818-2.842-8.473-1.992
		C29.863-78.185,28.89-77.912,27.89-77.544"/>
	<path fill="#72BF44" d="M7.957-76.931c0,0,0.726-4.368,3.394-5.534c2.668-1.165,4.917-2.762,4.917-2.762
		S18.006-75.716,7.957-76.931"/>
	<path fill="#72BF44" d="M11.529-76.275c-1.072,0.196-2.303,0.212-3.657,0.049c-0.192-0.023-0.366-0.124-0.483-0.279
		c-0.115-0.154-0.163-0.351-0.131-0.542c0.032-0.194,0.824-4.762,3.81-6.066c2.57-1.123,4.769-2.675,4.791-2.69
		c0.198-0.141,0.452-0.17,0.677-0.079c0.224,0.091,0.386,0.291,0.43,0.529C17.459-82.647,16.96-77.268,11.529-76.275 M8.821-77.56
		c3.7,0.246,5.947-1.146,6.636-4.122c0.197-0.851,0.231-1.673,0.212-2.298c-0.925,0.584-2.396,1.449-4.035,2.166
		C10.071-81.13,9.187-78.934,8.821-77.56"/>
	<path fill="#72BF44" d="M-2.593-71.614c0,0,4.775,5.735,13.865,1.702C11.272-69.911,7.153-75.767-2.593-71.614"/>
	<path fill="#72BF44" d="M7.552-67.997L7.552-67.997c-6.912,1.262-10.539-2.981-10.69-3.163c-0.144-0.172-0.196-0.402-0.144-0.62
		c0.053-0.218,0.205-0.397,0.411-0.485c1.448-0.617,2.867-1.056,4.214-1.302c7.203-1.316,10.375,3.062,10.507,3.248
		c0.123,0.174,0.161,0.393,0.104,0.597c-0.058,0.205-0.202,0.373-0.396,0.458C10.202-68.661,8.853-68.235,7.552-67.997
		 M-1.307-71.362c1.268,1.044,4.148,2.784,8.604,1.971h0.001c0.9-0.165,1.83-0.43,2.772-0.79c-1.125-1.047-3.816-2.842-8.471-1.991
		C0.665-72.003-0.308-71.731-1.307-71.362"/>
	<path fill="#204F10" d="M7.332-59.026c0,0-1.171,7.5,6.614,11.16C13.946-47.866,15.116-55.366,7.332-59.026"/>
	<path fill="#204F10" d="M14.072-47.169c-0.145,0.027-0.293,0.008-0.428-0.055c-4.26-2.003-5.944-5.128-6.604-7.396
		c-0.716-2.456-0.42-4.433-0.407-4.515c0.034-0.22,0.169-0.412,0.368-0.517c0.197-0.104,0.431-0.11,0.634-0.016
		c4.26,2.004,5.944,5.128,6.604,7.396c0.716,2.456,0.419,4.431,0.407,4.515c-0.034,0.221-0.171,0.412-0.368,0.517
		C14.213-47.206,14.143-47.182,14.072-47.169 M7.97-57.898c0.001,1.944,0.591,6.21,5.337,8.905
		C13.305-50.94,12.715-55.204,7.97-57.898"/>
	<path fill="#65873B" d="M-40.467-31.317c0,0-1.171,7.499,6.614,11.159C-33.853-20.157-32.681-27.656-40.467-31.317"/>
	<path fill="#65873B" d="M-33.726-19.46c-0.144,0.027-0.294,0.008-0.429-0.055c-4.26-2.003-5.944-5.128-6.605-7.396
		c-0.716-2.456-0.42-4.433-0.407-4.515c0.034-0.221,0.171-0.412,0.368-0.517c0.196-0.104,0.432-0.111,0.634-0.015
		c4.261,2.003,5.944,5.127,6.605,7.396c0.716,2.456,0.421,4.432,0.407,4.515c-0.034,0.22-0.17,0.412-0.368,0.517
		C-33.586-19.496-33.655-19.474-33.726-19.46 M-39.828-30.189c0.001,1.945,0.59,6.21,5.336,8.905
		C-34.492-23.231-35.083-27.495-39.828-30.189"/>
	<path fill="#72BF44" d="M9.533-98.904c0,0,8.795-0.083,9.949-10.458c0,0-0.55,1.625-2.1,2.417s-4.933,1.748-5.883,5.818
		L9.533-98.904z"/>
	<path fill="#72BF44" d="M10.864-98.346L10.864-98.346c-0.786,0.144-1.303,0.149-1.324,0.15c-0.281,0.002-0.536-0.16-0.652-0.415
		c-0.116-0.255-0.071-0.554,0.114-0.764l1.851-2.091c0.947-3.72,3.798-5.011,5.514-5.787c0.255-0.116,0.498-0.225,0.694-0.325
		c1.261-0.645,1.747-2.003,1.752-2.017c0.118-0.34,0.475-0.539,0.826-0.459c0.353,0.081,0.589,0.41,0.549,0.769
		C19.239-100.776,13.352-98.8,10.864-98.346 M18.205-106.613c-0.156,0.107-0.323,0.207-0.502,0.298
		c-0.225,0.115-0.482,0.231-0.753,0.354c-1.696,0.767-4.02,1.818-4.762,4.995c-0.026,0.115-0.081,0.22-0.159,0.308l-0.664,0.751
		C13.67-100.502,16.823-102.142,18.205-106.613"/>
	<path fill="#72BF44" d="M30.42-96.791c0,0,0.459-3.981,4.064-4.64C34.484-101.431,35.607-98.077,30.42-96.791"/>
	<path fill="#72BF44" d="M30.547-96.094c-0.211,0.039-0.432-0.021-0.594-0.165c-0.176-0.153-0.263-0.383-0.236-0.614
		c0.18-1.557,1.382-4.659,4.641-5.255c0.348-0.063,0.688,0.138,0.801,0.472c0.018,0.057,0.453,1.399-0.334,2.828
		c-0.706,1.286-2.131,2.202-4.234,2.725C30.576-96.1,30.562-96.097,30.547-96.094 M33.877-100.527
		c-1.41,0.543-2.113,1.763-2.453,2.679c1.035-0.412,1.768-0.967,2.146-1.638C33.782-99.865,33.859-100.231,33.877-100.527"/>
	<path fill="#72BF44" d="M-0.692-58.356c0,0,3.947,0.696,4.388,4.335C3.697-54.021,0.283-53.102-0.692-58.356"/>
	<path fill="#72BF44" d="M3.732-53.305c-0.417,0.077-4.099,0.585-5.12-4.923c-0.042-0.228,0.03-0.463,0.193-0.628
		c0.163-0.165,0.398-0.239,0.626-0.199c1.544,0.272,4.57,1.656,4.97,4.948c0.042,0.347-0.183,0.675-0.52,0.771
		C3.882-53.336,3.828-53.321,3.732-53.305 M0.302-57.292c0.661,2.037,1.771,2.536,2.533,2.615
		C2.377-56.122,1.197-56.897,0.302-57.292"/>
	<path fill="#72BF44" d="M18.235-120.826c0,0-2.158,3.953,0.933,8.81C19.167-112.017,22.546-116.7,18.235-120.826"/>
	<path fill="#72BF44" d="M19.294-111.319c-0.048,0.009-0.098,0.013-0.147,0.011c-0.236-0.007-0.452-0.13-0.578-0.328
		c-3.277-5.15-1.052-9.354-0.956-9.529c0.104-0.194,0.292-0.325,0.514-0.361c0.218-0.033,0.439,0.036,0.599,0.189
		c4.703,4.5,1.054,9.684,1.015,9.735C19.632-111.451,19.471-111.352,19.294-111.319 M18.484-119.499
		c-0.34,1.206-0.611,3.409,0.675,6.027C19.735-114.791,20.302-117.169,18.484-119.499"/>
	<path fill="#72BF44" d="M4.073-102.82c0,0-2.158,3.952,0.932,8.81C5.005-94.012,8.385-98.695,4.073-102.82"/>
	<path fill="#72BF44" d="M5.132-93.314c-0.048,0.009-0.098,0.013-0.147,0.012c-0.235-0.007-0.451-0.13-0.578-0.328
		c-3.277-5.151-1.052-9.353-0.956-9.529c0.105-0.193,0.293-0.326,0.513-0.36c0.218-0.034,0.44,0.036,0.599,0.188
		c4.703,4.5,1.053,9.684,1.016,9.736C5.471-93.446,5.311-93.347,5.132-93.314 M4.323-101.494c-0.34,1.206-0.611,3.408,0.674,6.028
		C5.573-96.786,6.141-99.164,4.323-101.494"/>
	<path fill="#231F20" d="M-23.281-49.162c-2.178,0.398-4.667,0.273-7.394-0.37c-0.189-0.044-0.351-0.165-0.448-0.331
		c-0.098-0.168-0.123-0.369-0.07-0.555c0.096-0.334,2.45-8.186,10.322-9.624c1.999-0.365,4.193-0.272,6.524,0.277
		c0.359,0.085,0.593,0.43,0.538,0.795C-13.822-58.887-15.156-50.647-23.281-49.162 M-29.573-50.741
		c2.23,0.448,4.257,0.51,6.038,0.186c5.932-1.084,7.728-6.148,8.187-7.977c-1.885-0.372-3.655-0.411-5.268-0.116
		C-26.316-57.607-28.821-52.619-29.573-50.741"/>
	<path fill="#231F20" d="M-33.344-42.187c-1.352,0.247-2.366-0.272-2.43-0.307c-0.346-0.183-0.478-0.612-0.295-0.958
		c0.182-0.345,0.607-0.478,0.952-0.298c0.075,0.037,1.587,0.762,3.191-0.738c0.286-0.267,0.734-0.253,1.002,0.033
		c0.268,0.286,0.252,0.734-0.033,1.001C-31.787-42.676-32.615-42.32-33.344-42.187"/>
	<path fill="#231F20" d="M-42.096-44.869c-0.369,0.068-0.729-0.165-0.817-0.534c-0.091-0.38,0.146-0.762,0.526-0.853
		c1.746-0.416,2.741-1.213,3.235-1.742c-2.795-1.686-5.949-2.106-5.983-2.111c-0.389-0.048-0.663-0.404-0.613-0.792
		c0.05-0.388,0.406-0.663,0.793-0.613c0.163,0.021,4.025,0.536,7.232,2.752c0.297,0.206,0.393,0.602,0.22,0.919
		c-0.047,0.089-1.201,2.168-4.556,2.966C-42.072-44.874-42.084-44.871-42.096-44.869"/>
	<path fill="#231F20" d="M-29.719-38.331c-0.095,0.018-0.194,0.009-0.287-0.027l-6.562-2.529c-0.244-0.093-0.383-0.354-0.327-0.609
		c0.055-0.257,0.291-0.434,0.552-0.416l3.29,0.211l8.903-4.3c0.206-0.1,0.454-0.056,0.614,0.109s0.195,0.414,0.089,0.617
		c-0.095,0.18-2.369,4.461-6.079,6.867C-29.586-38.369-29.651-38.344-29.719-38.331 M-32.946-40.63l3.066,1.182
		c2.041-1.393,3.628-3.425,4.561-4.806l-7.396,3.572C-32.788-40.648-32.867-40.63-32.946-40.63"/>
	<path fill="#231F20" d="M-17.273-56.118c0.354,1.937-0.928,3.792-2.864,4.146c-1.936,0.354-3.792-0.929-4.145-2.864
		c-0.354-1.937,0.929-3.792,2.865-4.146C-19.482-59.336-17.627-58.055-17.273-56.118"/>
	<path fill="#FFFFFF" d="M-21.711-56.297c0.094,0.518-0.249,1.016-0.766,1.11c-0.519,0.095-1.015-0.249-1.11-0.768
		c-0.094-0.519,0.249-1.015,0.767-1.11C-22.302-57.159-21.805-56.815-21.711-56.297"/>
	<path fill="#FFFFFF" d="M-41.807-48.57c0.061,0.33-0.158,0.646-0.488,0.706c-0.329,0.061-0.646-0.158-0.706-0.488
		s0.157-0.646,0.488-0.706C-42.183-49.119-41.867-48.9-41.807-48.57"/>
	<path fill="#FFFFFF" d="M-40.675-48.374c0.034,0.185-0.089,0.363-0.275,0.396c-0.185,0.034-0.363-0.089-0.397-0.274
		s0.089-0.363,0.274-0.397C-40.886-48.683-40.709-48.56-40.675-48.374"/>
	<path fill="#FFFFFF" d="M-20.162-55.787c0.047,0.26-0.124,0.508-0.384,0.556c-0.259,0.048-0.507-0.125-0.554-0.384
		c-0.047-0.259,0.124-0.508,0.383-0.555C-20.458-56.217-20.209-56.046-20.162-55.787"/>
</g>
</svg>
