<?xml version="1.0" encoding="utf-8"?>
<!-- Generator: Adobe Illustrator 16.0.0, SVG Export Plug-In . SVG Version: 6.00 Build 0)  -->
<!DOCTYPE svg PUBLIC "-//W3C//DTD SVG 1.1//EN" "http://www.w3.org/Graphics/SVG/1.1/DTD/svg11.dtd" [
	<!ENTITY ns_extend "http://ns.adobe.com/Extensibility/1.0/">
	<!ENTITY ns_ai "http://ns.adobe.com/AdobeIllustrator/10.0/">
	<!ENTITY ns_graphs "http://ns.adobe.com/Graphs/1.0/">
	<!ENTITY ns_vars "http://ns.adobe.com/Variables/1.0/">
	<!ENTITY ns_imrep "http://ns.adobe.com/ImageReplacement/1.0/">
	<!ENTITY ns_sfw "http://ns.adobe.com/SaveForWeb/1.0/">
	<!ENTITY ns_custom "http://ns.adobe.com/GenericCustomNamespace/1.0/">
	<!ENTITY ns_adobe_xpath "http://ns.adobe.com/XPath/1.0/">
]>
<svg version="1.1" id="Layer_1" xmlns:x="&ns_extend;" xmlns:i="&ns_ai;" xmlns:graph="&ns_graphs;"
	 xmlns="http://www.w3.org/2000/svg" xmlns:xlink="http://www.w3.org/1999/xlink" x="0px" y="0px" width="595.279px"
	 height="841.89px" viewBox="0 0 595.279 841.89" enable-background="new 0 0 595.279 841.89" xml:space="preserve">
<metadata><?xpacket begin="﻿" id="W5M0MpCehiHzreSzNTczkc9d"?>
<x:xmpmeta xmlns:x="adobe:ns:meta/" x:xmptk="Adobe XMP Core 5.3-c011 66.145661, 2012/02/06-14:56:27        ">
   <rdf:RDF xmlns:rdf="http://www.w3.org/1999/02/22-rdf-syntax-ns#">
      <rdf:Description rdf:about=""
            xmlns:dc="http://purl.org/dc/elements/1.1/">
         <dc:format>image/svg+xml</dc:format>
         <dc:title>
            <rdf:Alt>
               <rdf:li xml:lang="x-default">Print</rdf:li>
            </rdf:Alt>
         </dc:title>
      </rdf:Description>
      <rdf:Description rdf:about=""
            xmlns:xmp="http://ns.adobe.com/xap/1.0/"
            xmlns:xmpGImg="http://ns.adobe.com/xap/1.0/g/img/">
         <xmp:MetadataDate>2018-09-05T11:34:21-03:00</xmp:MetadataDate>
         <xmp:ModifyDate>2018-09-05T11:34:21-03:00</xmp:ModifyDate>
         <xmp:CreateDate>2018-09-05T11:34:21-03:00</xmp:CreateDate>
         <xmp:CreatorTool>Adobe Illustrator CS6 (Macintosh)</xmp:CreatorTool>
         <xmp:Thumbnails>
            <rdf:Alt>
               <rdf:li rdf:parseType="Resource">
                  <xmpGImg:width>104</xmpGImg:width>
                  <xmpGImg:height>256</xmpGImg:height>
                  <xmpGImg:format>JPEG</xmpGImg:format>
                  <xmpGImg:image>/9j/4AAQSkZJRgABAgEASABIAAD/7QAsUGhvdG9zaG9wIDMuMAA4QklNA+0AAAAAABAASAAAAAEA&#xA;AQBIAAAAAQAB/+4ADkFkb2JlAGTAAAAAAf/bAIQABgQEBAUEBgUFBgkGBQYJCwgGBggLDAoKCwoK&#xA;DBAMDAwMDAwQDA4PEA8ODBMTFBQTExwbGxscHx8fHx8fHx8fHwEHBwcNDA0YEBAYGhURFRofHx8f&#xA;Hx8fHx8fHx8fHx8fHx8fHx8fHx8fHx8fHx8fHx8fHx8fHx8fHx8fHx8fHx8f/8AAEQgBAABoAwER&#xA;AAIRAQMRAf/EAaIAAAAHAQEBAQEAAAAAAAAAAAQFAwIGAQAHCAkKCwEAAgIDAQEBAQEAAAAAAAAA&#xA;AQACAwQFBgcICQoLEAACAQMDAgQCBgcDBAIGAnMBAgMRBAAFIRIxQVEGE2EicYEUMpGhBxWxQiPB&#xA;UtHhMxZi8CRygvElQzRTkqKyY3PCNUQnk6OzNhdUZHTD0uIIJoMJChgZhJRFRqS0VtNVKBry4/PE&#xA;1OT0ZXWFlaW1xdXl9WZ2hpamtsbW5vY3R1dnd4eXp7fH1+f3OEhYaHiImKi4yNjo+Ck5SVlpeYmZ&#xA;qbnJ2en5KjpKWmp6ipqqusra6voRAAICAQIDBQUEBQYECAMDbQEAAhEDBCESMUEFURNhIgZxgZEy&#xA;obHwFMHR4SNCFVJicvEzJDRDghaSUyWiY7LCB3PSNeJEgxdUkwgJChgZJjZFGidkdFU38qOzwygp&#xA;0+PzhJSktMTU5PRldYWVpbXF1eX1RlZmdoaWprbG1ub2R1dnd4eXp7fH1+f3OEhYaHiImKi4yNjo&#xA;+DlJWWl5iZmpucnZ6fkqOkpaanqKmqq6ytrq+v/aAAwDAQACEQMRAD8A9U4q7FXYq7FXYqknnfXj&#xA;5f8AJ+s62tPU0+zmnhB6GVUPpg/N6DFXwt5T8761onnez8zm8me7W6Wa/mZmZpo3cGZZP5g61BxZ&#xA;P0DVldQ6EMrCqsNwQehBxYt4q7FXYq7FXYq7FXYq7FXYq8484/n9+X3lLzKPL2pyXMl4nD63LbxC&#xA;SK35gMBKSysTxYN+7VvvxTTHf+ciPO2j3f5MPcaNfRXlprl1b2sU8DBgQrG4cbbqR6FGB3HQ4qHy&#xA;Biyfb/lz81fKukflP5c8weYNQS29ewijEf25ppoFEUojjWrN8aGvYdzixpM/y4/N/wAo/mB9bTRT&#xA;cQ3VkFaa0u0WOTgxIDrweRStR2bbvitM2xQ7FXYq7FXYq7FXYq7FXyF/zlP5Mm0vz5Fr0KlrTzBG&#xA;CTuaXNuqxuv0pwYfTiniAFl5hBYx29qFvZmELMH+rBjw5gEAlR9pgD2ykzJ5Ojy9o5csuHCPj+OS&#xA;Z3HlbUINPGoXXl/ULfTCOS38lpcJAVPQ+qVpT6camwGHWje/tH9iS3umSvCktrI1xBEh4JXlwjBL&#xA;tx/yQSzH6cIyd7l6TtEyl4eQcM30h/ziR5Me00XUvNtypV9Sb6nYV7wQtWVx4hpfh/2By12hfQeK&#xA;HYq7FXYq7FXYq4kAEk0A3JOKqNne2V9bJdWVxHdW0lfTnhdZI24kqaMpINCCMVfNX/OUGszXXnfS&#xA;dELH6pp1ibzh2M9zIyVPjxSIU+ZyvIdnV9rZTHEIj+Ioz8hPL3k/StEf8xPNk9tA0921nos94VEU&#xA;CxEgupf4VlkdGHLqAux3OShGg5OhwDHiFczuUB5q/wCcrNZs/NLW+hW9rfaFZXEySSyBgbyEuOJU&#xA;jiYuC1VW3r9ojtknMpCfmZpflzRdU8t+fvL1qsHl/wA1QM93p4VVSOVogxKoPgUujkMo25KfHMbV&#xA;YfEgQObqu1dPxY+MfVF6f/zjVr0F/wCRrvTYZvVh0bUJ7e0BNWFrLSeLl9Mjr9GXY74Rxc3PwTMo&#xA;RMhRI3etZNtdirsVdirsVSnzX5l03yx5dv8AXtSYi0sIjK6rTk7dEjWtBydyFHucVfJn5gfnD5v8&#xA;6B4b2caPoD/Z0m3crzX/AJeZvhaT/V2X2rlUsnc6XUdpmR4cIs9/6gz/AP5xV80XX1vV/Kiq0+mJ&#xA;GNStJl3SBmYRyRE129SoZQPBsnAmt3O0OScsfrB4htuof85F+V7mf8xNJvoiEXU9Me3h5dHns5DI&#xA;yV7ExzCnyyjVZOCNnk43a+MnEJD+Epb+X9tYee/ys1H8rZ7pLLzDp9w99oPrkhJF5mXbqdmeRX4i&#xA;oDcqHfL4SsOXocwyYokd1MJsf+cbfzbudUWyl0lbSItxkvpbiAwItft1jd3YeyqT7ZJzLZP+d+qa&#xA;Gj+VPy00e8jms/LarDqV5JX0frLcIR6gj/ajHJ5Atd249QRigMa0G+uvJn5laFeaVfCdHuooLl4Y&#xA;UthNbvIkc8ZiSiFH5ngzLyqA2x6KvtfFDsVdirsVdir5r/5yZ88jUNZtvJtnKDZaZxvNZIOzXDCs&#xA;ELf6iHmw6fEO4yE5UHXdpajgx8I+qWyd/kZ+TvlTUvJC695m0mLUL7W2lkg+sBiYrM/u41UVorNx&#xA;Lh1+L4hvkoig5WmwjFAR/FvVPIv5eeWPI+nT2GgwNHHcyma4llb1JXbooLn9lF2UfxJJLeAhPzT8&#xA;jN5v8rta2jiHWbGRb3R7hui3MVaKx/kkBKN869sjOAkCDyLGcBIEHkXx7Pa67LeXsv6PuYdR0qRp&#xA;tRYJLGbKRWJLO6DklCCRx38MpjHgoW6fR9majHkPCagOvePcyzW9e/MqHy5aTyeZtfu7O+KRxxT2&#xA;V7aQXHqD4Y4bwFmlL9unLLOKXUO+yYwY+iXq9yVfl9oFtc/mHBoWtac6RNaTx3VhcxtGw+AuKg0I&#xA;/mDA+4OHGbcDS4c2My8X6rZ5528h+WPLllpFzpdqUupta0+N7iWSSaT0w5PANIzcVqK0GWFzAX0/&#xA;gQ7FXYq7FUh89+bbXyn5U1DXrhfUNrH/AKNb95rhzwhiFN/jkYDboN8BNK+VbzyTc6tdaba3E8sv&#xA;mfzRfqL6UUYcpyZLmTjT7MSV6Zq9NqpZsx/mB0GEnUarj/gj+jl9u77BsLG1sLG2sLRBFa2kSQW8&#xA;Y6LHGoRF+hRm1d+h9c17RtC02bU9YvIrGxgFZJ5m4j5AdWY9gNziryib/nKfyIl6Y4tN1SexDUN+&#xA;sMaqR/OsbyLIV+YB9sjxBxzq8Qlw8Qt35taZ5a8weRJvzM8rXpt9Ws7cT22rWZ4G4hVgr29ypA5g&#xA;dOLiqkUO1RhlEEbuXCZidnm2t+Qdc8vaYms2Wq2kdzNNbwwzw6dHFKhvJVjZkPN44SOfWJFJ9sxI&#xA;ZBI8J+92OXCcceIEfJPvzP8ALPl38qNR8q+Y9Od7u4L3NvqkdzI8l7feqgL3PqEFeUddwaDdQO+Z&#xA;Y2dZKXUlJL780vKvnLzL5a0mR20jRYNSgvtQv9SAjU/VyWWFfTMgX1K0LswAw2wjOJ5EF9UwzQzw&#xA;pNBIssMih45UIZWVhUFWGxBxZL8VdirsVfM/59/mImoeebLQrOlxpvlmQT3yV+CW/ZaBajvAh69m&#xA;JBG2Y+pHFAxurdX2rqeCHAPql937W/yx80+VF8zXvnbzFeR6bpWiW/1HTFuDV5Ly4+K5aBE5O7Rx&#xA;cUIUHZ8p0Gm8KJvmU9k4eDFxHnLdO9Z/5yNvtaunsPJttFp0AG+savsxHQ+hbKaE9wXf/Y5bqNQM&#xA;YujL3M9R2nhxdbPl+vk8r88yx3rxT6nq0+v60zl3uriXlHElDVIoU/dRhjQ8VGYeDUZchJkOGPc6&#xA;TP2nky7A8MfL9bF1dGJCsCR1oa0zJpwiCERpkfl9YNRsNUjMKX0f+g6kHuPTtbgd5YYmo8b+PBqe&#xA;GWCR2p6fsjXY5Q8PIal0L2jzrr3kLXPKC6W3mOy9NntmYRP60rrDIrMohhPq8mVSBtmNCMoyunrM&#xA;+TGYUZCniXm+10qfUr6ax06fTLGNKWVrcySvMFVa+o/rNIVMh/ZrsMyMeS63t5DVdpRlqIxw/RdH&#xA;zTryd5Z0zXtGuluviYRpHC6n+7cqTzFO4IzA1uplikKdH40sOoJHQplonnPzj+XMIfTnuLL03/0m&#xA;wnQ3OkXR5U5xlTygdh8R4lfD2zI0+oMpbESif9MP1u9xasyPpInE+dSHw6vcPy+/5yP8k+ZvTs9V&#xA;caBq7bencyKbWRv+Krn4V/2LhTXYVzPt2EZgvWQQRUdMLN2KvgS3ubi7V725YyXV5JJcXEh6vJK5&#xA;ZmPzJzGyc3k+0ZE5pX0R3k/y7p08txdarItvbWxLSTu6rXkTwHJtlrQnMbV6iUQBAWSnUajJlIhA&#xA;kx4RsPcyiDyTeeanRPI2kXd2nLjJqMlYbAAbN+/n48mHUhK+wx0uPMf7yq+1vwdkZJbzPCPmV/5i&#xA;/kf5i8neV7TXdV1OK8D3S29/aWiOsUCSA8H9VuLOOYCmqjqMzuChs7GWhjixkwHrA5nf9jBIbO2h&#xA;bnFGEanGo8MoMiXn8moyTFSJLOIvy/8AU05ZfrJF46BwlBwBIrxPf6c1Z7RqVV6XGs82O6Dqv6I1&#xA;EXiRLJ8JR02BIbwahodszdRh8SPDbM2VvmLVH1i7luDGIuaemiVrQAHqaDxx0+Lw41zTj9JtKfLa&#xA;eYbG/t49JkaPUb2eG1trZCGSZ5GCKrqdjUn6MycuOGXYi3ejNDUZBCuKO+55jny+wPTvPv5ffnDZ&#xA;gDUdJXUtPi+ITaLynQnxaFv3+w78aDKsWhjj3jz82vL2KbuEvgXlcttpk8jROgiuFPF4yDHIG7gq&#xA;ab/Rl1yDj8eq0/O6+YZt5I/NP8wfJarb6ZqA1DSk2XStRDSxIP8AipwQ8fsFIXxByQy97lYu2P58&#xA;fl+r9r6D/Kv879L88XkukXNi+k67DF64ti4limjUgM0UgCbqTupFaeO9LQQXb4NRDKLiXnGqf840&#xA;earrzjqSafe2mn+WZp2uLW6cNLMizHm0SwDiP3bEgVYClO+RMATbj5uz8eTJxy+T0fyh/wA49/l5&#xA;5fZLm6tm13UlofrWpUlQN34QUESivSoJHjkgKcrHihAVEU9LRERFRFCooCqqigAGwAAwtiR+evLM&#xA;Pmjyhq2gS0/0+3eOJm6LMPihf/YSKrfRir4cY30cXEx0urdzFdQPsweMlXX2YEZjGIBovJ5cEYZZ&#xA;QlsOh+606T8wdUTTvqCFiwXgp9JvWC0pSv2enfMQ6CBlxf2NX5KXfHh7+IV+v9KDNnqX6O/SK2cj&#xA;2iGk0iUbgaeFakDuRl3iR4uG92uEBKRHEB7+v480NaSyX13DaWKGW4nYIpcMkak93JA2+WSn6YmU&#xA;uQbhphHfIRGPkQT8Kv7dnt/5UeVrXU/zKtSII/qnlK0FzcPGgVXvrpeEIbr9lA8g360yjs0EgzPU&#xA;7O37IwAROSvq5e4fj7H0ZmzdwkXmXyL5P8zxGPXtItr804iaRAJlHgky8ZF/2LYq8o8x/wDOLGiy&#xA;8pfK+sXGmOdxZ3Y+t2/+qrHhKg9yzZEwBcTNoMWTmKPlsmf5U/kLc+UfMn+IdX1WO/u4YZIbK3t4&#xA;mjjT1QA8jMzFmPGq0pjGIDLTaSGEER6vYck5LsVdirsVfIf55+WP8PfmbftEnCy1xBqdvTp6rnjc&#xA;r8/UHP8A2WU5R1dH2xh5T+H6mCZS6JHw63qUOmyadHLS1kryWgrv1APWhyk4ImXERuxMd0Ctw1uw&#xA;uEYo0Pxq46grvUZaY3szEeI13vq78gtAuNP8gw6rfD/cn5jkbVLpqUPCUAQKP8kQqpA9zmVjxiER&#xA;Ecg9pixiEBEdA9IybY7FXYq7FXYq7FXYq7FXhf8Azk3+g55vKlpdTLFf/WLmTlUcktPR/esfm6pQ&#xA;dyNsp1EiIEjcuD2kR4ErfPmUvKJ3ruk6RZ2VnNZXf1iaYfvU5K3avIBfs77UOYuDNOUiJCgGEZWx&#xA;zUeX1Gfj14H7u/4ZmQ5uZo/76P8AWD7v8vC2GgaYLUg2otIBAV6GP0140+jMp7BMMVdirsVdirsV&#xA;dirsVUby8tbKznvLuRYbW2jea4mfZUjjUs7H2AFcVfHPn3UL/wAzag/nS+LIdTlaLT7V/wDdFgn+&#xA;8yU8SKu1OpbNedTx5DAcovNdq6rjycA+mP3rtN8hvdadHcy3XpSzIHSMLyADCq1NRmFl7Q4ZUBdO&#xA;ossXubeS2uJbeUUkhdkce6mhzPjISAI6sgWpbO4EPKWF1hcU5MpCkH3xExex3TGdHY7vf/8AnGv8&#xA;xHu7KTyPqkvK80yP1dHlc7y2YNDF/rQHp/k+y5mRlYev0epGaHF16vdMk5TsVdirsVdirsVdiryz&#xA;/nIzzDHpvkOPSzKYm1+8hsZWT7a2wPq3DAD/ACI+B/1shkJESRzadRl8PGZdwfO/mXzBFqbwwWsf&#xA;o2VsKRKaAnYCtB0AAoBmr0unOOyd5F4vcmzzRGn+edQs7BLX0Y5TEoSKRqiijoGA60+jIZNBGUrv&#xA;miih/K6x33mSJrykjSM8pDdGkoW3+nfJ6omGI8KJDo9LlijliaOVQ8bgq6tuCD1rmiBINhLyWx16&#xA;58seY7PzDph5y6TderGDsJIalJIz7SRsQc6rDI7W7PsjNw5AD/EPtfcGl6lZ6pplpqVlJ6tnewx3&#xA;FvIP2o5VDqfuOZT1CKxV2KuxV2KuxV2KvnX/AJytndtY8pW/REjv5fmW9FfwpkMnJ13aprCfMh4l&#xA;mM8uz+zt/K58sKziA/uazOePqiXjuK/a5cumaecs3jdefwpqJHxYFHJJHIskbFJEIZWU0II6EHNu&#xA;QCKLamtx5r164tjbyXR9NhxfiqqxHgWABzHjpMcTYDHhSS5XlbSr1qjD8Myo827FLhmD3F9Cf84r&#xA;+ehe+XZfJ97J/p2lg3Onhv27OVqsAe/pSsQfZlHbMoF7HHlE7roSPk93wtjsVdirsVdirsVeL/n9&#xA;YR/4h8m6jNGr27PfWExccl5zRJJEN9q1hbMLtAHwSR0cDtPHxYJeVF4r530e0sLyGa1URpchi0S7&#xA;AMhFSB2B5ZhaHNKcSD0eTDE7p7mMLJCodVr6kfcj/JPiM2Ea6uVgjCViRonkenxUprqSQxw23wyy&#xA;rzLMPsJ4keOERrctmLBGNzn9MTW38R7r7u9EwxmONULs5HV2NSciS42SfFImgPcir6508aH6aQMt&#xA;6hdpbktsU47KF/z/AByuEZcd36e5cEDLIB3kNeVde1Dyvqek+YdP3u9MZZGj6CWFhSaI+zoSMyIy&#xA;qTtdNquHUy/mykfv2fc2kapZatpdpqli/qWd9Clxbv4pIoZenehy96FF4q7FXYq7FXYqwD89NEl1&#xA;P8t9RuLdeV7orR6vaHrR7Nub/fDzH05GcBKJB6sZwEgYnq+U9T1u61idbucgAqPTRdlVTvQdfHMD&#xA;FgGMUHiDAxJB5sv8o+WdNl0yO+u4hPLOWKq+6qoJXp4mma3WaqYnwxNUw5sX8w6XbQa9q8ttGIoo&#xA;JbaH0x0rLB6tR4dDmdpsplCIO5IJ+RpzswrDjH9b71fR/KmpapatcwtHHECVQyEjkR1pQHBm1cMZ&#xA;ouFbHdailije0ccZmlEDL4NyoR+GZmIg79HN0P18X80GXyH62YeQdOtri+mmlUP9WRfSRhUAsSOV&#xA;PYDNb2hkIiAOrhnm92/5x91do9N1jyjM1W0C59SxBO/1K9rLEBXrwfmp+jNppM3iYxJ7LSZvExiX&#xA;V6zmQ5DsVdirsVdiqncW8Nzby286CSCZGjlQ9GRxRgfmDir4Sv8ASZtF1bUtEmJMulXc9mWPVhE5&#xA;VW/2S0OY2QbvLdp4uDMf6W/4+KeeXvN8+lW/1WWL6xbgkxgNxZampA2Ipmv1GjGQ2DRdaQeiRahq&#xA;76lrmpzhPSjmeF/Sry3SEIDWg8MycWHghEc6v73Oz/3OP3S/3Sb6N5s1DS7RrWJI5Y6lk9StVJ69&#xA;CNsozaOOQ2XBI7mN6hNJdarC0p5OzSXEp8WPf/gjmbCIjHb3Obh9OKcu+o/p/QnOh6zPpN8LmJQ6&#xA;kcJYztyUmvXsfDMfPhGSNFwyHqH5RecLOb83tOFsskf6X0+5sbiNwAOcH+lRtsTXZHH05Ls/DLGD&#xA;E97v+xcnplE9N30tmwd27FXYq7FXYq7FXy7+dvkqc/m3cvaskaa1YxX6l6hTLAfq8iigO9FVj88x&#xA;NZmGOIkXS9s4/TGY6bPMLu0uLS5ktrhOE0Zo6nIQmJCxyefBtA20Mgur2Wnwcolr7mOo/DJkigHN&#xA;zn91j90v90yTynoMerXr+uT9VtwGlC7Fi32Vr2rQ5h6vUHHHbmXCKc2flzRr7zPq8RtwttZQW9tH&#xA;wJFJJA0rsD3IqvXMSWpyRxxN7yJP6HMyDh08B/OJl+hi+saa+nalNZFufpkcG8VYAr+BzY4cvHAS&#xA;cMFPPy+g1HTfzM8ozywSQGTUUiQyIVqsymNqch/K2X4MkZE0bdt2RP8AeH3fpD7OzKekdirsVdir&#xA;sVdiryH/AJyHtI7W28t+aDULpd81pdOAdra+jKMzU6hZI0zG1mLxMZA5uJrsfHhkPK/lu+ePMOpx&#xA;6lq011EpWJqKgPUhRSp+eYunxGEBEvHxCR2xP168Hasf/EMyTyDn5/7nH/nf7plfk3XLfTL2VLk8&#xA;Le5ADSUrxZa8Sfb4jmBrcByRFcw4EkTonmm2tbhyjxu+q391dXMjNtFaRH0kO25ZuACjvlObSmQ6&#xA;+mIA8zzdtqsI4bJoQjGPvkd/0pTqesm615tTjQUWRHiRhsVjpx5D3475l4sPDj4D3OpA2Zt5J1ge&#xA;afzP8oWCW5hS2u5L6Ri3I1tYHkXoOlRTDoNJ4ZJu3c9jQJnInu/T+x9W5s3onYq7FXYq7FXYqxb8&#xA;0fLEvmj8v9b0SBQ91c25a0U7VnhIliFe1XQDFafF0MjPH8alJFqssbCjK67MpB6EHMSQovGajCcc&#xA;zE9EPp6tPqN2sQLl3jRANyWpxoPpwz2iLcnVR4cOO+6X3sh1vyzfaVpoubiaL15SI4LVCzSvI2yo&#xA;gA+I/LMPDq45JUAa7+jjabDLJOunXyDHdMsjbQ1f++enL2HZczZysuRr9V4s9vpHL9aMyDgvYf8A&#xA;nF7y8955q1jzHIlbbTbcWFsx6GedhJIV90RAD/rZkYxQem7Kw8OK/wCc+lssdm7FXYq7FXYq7FXY&#xA;q8/8z/kT+W/mPVpNWvdPeG9uGLXb2kzwLMxNS0iqeJY92ABPfGmEscZcwC+dvzUtdF8m/mhd2ekW&#xA;awWGnrYm1sYydz6KsRybkxLGpLGprucx9Rj4xw94dT2pgOSUQOW+/dya07WNM9Vtf1e4W61cqRaW&#xA;UatwtlI/u05CnI/tP92ajJgn/dwFQ6nv/Hc6nPqQI+Hj+nr/AEv2eTGYIjd3iRl1iMz0LuaIvI9S&#xA;fDNhI8Mb7nD+kLv0XqNzrEWiaXGL7VLub6tZxxGqu9acq9kUfEzHYDrk8XrALmaHTHPKv4ev48+j&#xA;7I/LjyRaeS/KNloUDCWWIGW9uaUM1zJvLJ8q7LX9kAZmPXAACgybFLsVdirsVdirsVdiqXeY/MOl&#xA;eXdDvNa1WYQWFjGZZn7nsqqNqszEKo7k4q+KfNnmG682+bdQ8030KwTXrKLe2G/owxqI41J7twUc&#xA;j45RknezznaOu8Q8EfpH2oAAkgAVJ6DKnUpvf+V9QsrWBnZHv7t1is9Nj5PcTSMQAiKoNTvmPh1A&#xA;yT4Yg+9u02nnmlURt39z6L/JP8nl8n2h1rW1SbzTepRyvxJaQtQ+hGehb+dh8htudnGNPW6fBHFH&#xA;hi9UwtzsVdirsVdirsVdirsVfMX/ADkj53fWPM8XlK0krpmi8Z9RA6SXrrVEPiIo2/4ImvTK8kqD&#xA;rO1NT4cOEfVL7nmF/ptxYtEs5QmaNZU4MG+FulaZh48onddHmBK0NZm6n1Wy0/TovrOq3k8cNnbV&#xA;A5SuwVAxYgAV7nLhj4nM02hln8o9S+svy0/KmHy5Idc1yVNS82XCcZLoD9zao2/oWqn7KjoX+034&#xA;Zbhwxxx4YvU4cMcceGI2eh5a2uxV2KuxV2KuxV2KuxVRvbuKzsri8mNIbaN5pCP5UUsfwGKvkGeO&#xA;O78lz6vqIU6jqk0mpySnqZ7qXn8P+wIGaKWaUtUa5cvl+15HtTJxZz5bfr/SweIX2o3o0/S4/Wum&#xA;2Zv2UHzObGRjCPFLYJhgjCIyZfpPIdZfs82cfkP5c9f83dIjdC7aalzfXpkHxVjjMSE16cZZFy/F&#xA;Li36O27MyHIZSO0RsB0D7Ey127sVdirsVdirsVdirsVdiqSeeFZvJXmBVBLHTbwADckmB8VfF/ly&#xA;z1TzRrHl/wAr29zJW/eOFCzF/QtwtZHVSQKpGpP0ZjQwx4iaef02jGTUTlLlGR+9kH5naBp/lX8x&#xA;L7S9EU2tnYW9lHb8TR6i3VmdmFKs7MWY9yclnAIos+29+Ae/9DPf+cWNL9fzH5l1pwS1rb29jE/Y&#xA;+uzTSj5j0krk8Q2cvsnHw4fef2fofR2WOydirsVdirsVdirsVdirsVU7q3iubaW2mHKKdGjkHirj&#xA;ifwOKvj78htOl03897TSr7/evS/r9psNhLDFKjdfYNgAasWIQ4v6UrTD88Pq7fnFqy3BZYONl6rI&#xA;KsFNulaVyjUXW3N0vbZ3jXm9d/5xp0mG08gXGoQ1MOsaldXVszfa9CNhbxg9P98k/TluO+EXzdxp&#xA;sfBjjHuD1jJt7sVdirsVdirsVdirsVdirsVfOH5taRJ5D/Ory/8AmJBHw0XULmNNSmUbRzFDBcVp&#xA;sPUt2LjxIbFaYd/zkK3o/mjrlwGBWS0s5I2U129DiPxXKpiyHU9pw454495P6H07+XGh/oLyFoGl&#xA;FOElrYwCdf8Ai5kDy/fIzZa7ZkeKuxV2KuxV2KuxV2KuxV2KuxVJ/N/lTSfNfl290HVU52l4nHmK&#xA;c43G6SIT0ZG3H9MVfIWveWPMn/KzdP8AKHmNluLsT6ZpX1ofZntBJwhl7n+4ADV3233yJG4cTNC8&#xA;0D3cR+4PtXJOW7FXYq7FXYq7FXYq7FXYq7FXYq7FXzNdywap/wA5bQqhBhguUTlXYyWmms7DbuHB&#xA;XB1aDL96B3RP2kfqfTOFvdirsVdirsVdirsVdirsVdirsVU7mYQW0sxHIRIz8eleIrTFXxV+WupX&#xA;93+Z3lrVpHMmo6hrAnupBuWNyzeuflxY5WD6nVYMhlq59wFfKn2zljtXYq7FXYq7FXYq7FXYq7FX&#xA;Yq7FVO4hE9vLCTQSoyEjtyFMVfJH/OOfly7uvzQtFuYHjPluG6mvUdSAk5rbLG3YMGcsB/knwyAG&#xA;5cHTYDHLkkep2fXeTc52KuxV2KuxV2Kv/9k=</xmpGImg:image>
               </rdf:li>
            </rdf:Alt>
         </xmp:Thumbnails>
      </rdf:Description>
      <rdf:Description rdf:about=""
            xmlns:xmpMM="http://ns.adobe.com/xap/1.0/mm/"
            xmlns:stRef="http://ns.adobe.com/xap/1.0/sType/ResourceRef#"
            xmlns:stEvt="http://ns.adobe.com/xap/1.0/sType/ResourceEvent#">
         <xmpMM:InstanceID>xmp.iid:FC7F117407206811822A9DD448A483FF</xmpMM:InstanceID>
         <xmpMM:DocumentID>xmp.did:FC7F117407206811822A9DD448A483FF</xmpMM:DocumentID>
         <xmpMM:OriginalDocumentID>uuid:5D20892493BFDB11914A8590D31508C8</xmpMM:OriginalDocumentID>
         <xmpMM:RenditionClass>proof:pdf</xmpMM:RenditionClass>
         <xmpMM:DerivedFrom rdf:parseType="Resource">
            <stRef:instanceID>uuid:ba5dc92b-6d0a-484a-ab90-b9370a4a0965</stRef:instanceID>
            <stRef:documentID>xmp.did:0980117407206811822A897E387FE54C</stRef:documentID>
            <stRef:originalDocumentID>uuid:5D20892493BFDB11914A8590D31508C8</stRef:originalDocumentID>
            <stRef:renditionClass>proof:pdf</stRef:renditionClass>
         </xmpMM:DerivedFrom>
         <xmpMM:History>
            <rdf:Seq>
               <rdf:li rdf:parseType="Resource">
                  <stEvt:action>saved</stEvt:action>
                  <stEvt:instanceID>xmp.iid:FC7F117407206811822A9DD448A483FF</stEvt:instanceID>
                  <stEvt:when>2018-09-05T11:34:21-03:00</stEvt:when>
                  <stEvt:softwareAgent>Adobe Illustrator CS6 (Macintosh)</stEvt:softwareAgent>
                  <stEvt:changed>/</stEvt:changed>
               </rdf:li>
            </rdf:Seq>
         </xmpMM:History>
      </rdf:Description>
      <rdf:Description rdf:about=""
            xmlns:illustrator="http://ns.adobe.com/illustrator/1.0/">
         <illustrator:StartupProfile>Print</illustrator:StartupProfile>
      </rdf:Description>
      <rdf:Description rdf:about=""
            xmlns:xmpTPg="http://ns.adobe.com/xap/1.0/t/pg/"
            xmlns:stDim="http://ns.adobe.com/xap/1.0/sType/Dimensions#"
            xmlns:xmpG="http://ns.adobe.com/xap/1.0/g/">
         <xmpTPg:HasVisibleOverprint>False</xmpTPg:HasVisibleOverprint>
         <xmpTPg:HasVisibleTransparency>False</xmpTPg:HasVisibleTransparency>
         <xmpTPg:NPages>1</xmpTPg:NPages>
         <xmpTPg:MaxPageSize rdf:parseType="Resource">
            <stDim:w>21.000131</stDim:w>
            <stDim:h>29.700013</stDim:h>
            <stDim:unit>Centimeters</stDim:unit>
         </xmpTPg:MaxPageSize>
         <xmpTPg:PlateNames>
            <rdf:Seq>
               <rdf:li>Cyan</rdf:li>
               <rdf:li>Magenta</rdf:li>
               <rdf:li>Yellow</rdf:li>
               <rdf:li>Black</rdf:li>
            </rdf:Seq>
         </xmpTPg:PlateNames>
         <xmpTPg:SwatchGroups>
            <rdf:Seq>
               <rdf:li rdf:parseType="Resource">
                  <xmpG:groupName>Default Swatch Group</xmpG:groupName>
                  <xmpG:groupType>0</xmpG:groupType>
               </rdf:li>
            </rdf:Seq>
         </xmpTPg:SwatchGroups>
      </rdf:Description>
      <rdf:Description rdf:about=""
            xmlns:pdf="http://ns.adobe.com/pdf/1.3/">
         <pdf:Producer>Adobe PDF library 10.01</pdf:Producer>
      </rdf:Description>
   </rdf:RDF>
</x:xmpmeta>
                                                                                                    
                                                                                                    
                                                                                                    
                                                                                                    
                                                                                                    
                                                                                                    
                                                                                                    
                                                                                                    
                                                                                                    
                                                                                                    
                                                                                                    
                                                                                                    
                                                                                                    
                                                                                                    
                                                                                                    
                                                                                                    
                                                                                                    
                                                                                                    
                                                                                                    
                                                                                                    
                           
<?xpacket end="w"?>
	</metadata>
<g>
	<path fill="#086632" d="M-59.461-64.793c0,0-4.853-9.186-2.774-13.692c2.081-4.507,18.719-35.357,18.719-35.357l11.267-7.106
		l3.986,7.453l-3.466,4.333l-2.947-1.04l-6.066,1.386l-10.399,29.464l25.999-11.093c0,0,4.333-3.12,7.279-3.12
		c2.947,0,4.16,1.213,4.16,1.213l3.293,3.12l6.586,0.346l-0.347-7.279l-2.253-2.773c0,0-8.667-7.106-10.573-12.479
		c-1.907-5.373-1.907-7.453-1.733-10.399c0.173-2.947,2.08-9.012,2.08-9.012s4.853-6.24,8.84-7.453
		c3.986-1.213,8.839-2.253,8.839-2.253s5.547,0.866,8.146,2.6s7.626,6.239,7.626,6.239l2.773,9.36c0,0,0.347,1.04,0.173,5.546
		c-0.173,4.507-6.586,14.386-6.586,14.386l-7.106,5.373l-0.866,2.08v5.372h6.24l3.467-4.159l7.8,0.52l31.544,16.64l6.587,3.293
		c0,0,2.946,2.6,2.427,4.159c-0.52,1.56-2.254,2.947-2.254,2.947l-3.986,0.346l-30.331-9.879l-9.138,21.312L16.4-49.438
		c0,0-2.754,4.871-0.154,8.857c2.601,3.987,4.37,7.505,5.93,10.971c1.56,3.467,4.333,9.013,4.333,9.013S38.814-0.145,42.281,13.2
		c3.467,13.348,2.773,19.066,1.733,22.707c-1.04,3.639-2.601,16.465-12.307,25.824S14.896,77.677,14.896,77.677l-7.279,35.879
		c0,0-5.027,19.932-4.507,19.932c0.52,0,0.52,7.105,0.693,8.146c0.173,1.039,0.347,5.545,0.347,5.545l-1.734,11.094
		c0,0-0.346,2.947-1.732,2.426c-1.387-0.52-2.947-1.039-2.773-1.559c0.173-0.521-0.173-11.785-0.173-11.785s0.867-2.6,1.387-4.508
		c0.52-1.906,2.079-11.092,2.079-11.092l-1.039-4.68l0.865-37.611c0,0-5.718,2.773-6.585,5.719
		c-0.867,2.947-1.733,9.014-1.733,9.014l0.346,7.451l2.427,8.84c0,0-3.467-2.945-4.506-5.373c-1.04-2.426-3.12-5.547-3.12-7.973
		s-1.733-15.252,0.173-22.184c1.907-6.934,5.2-11.613,5.2-11.613l7.279-10.053l0.174-16.467c0,0-1.213,5.547-6.24,5.721
		c-5.026,0.174-8.319-7.281-8.319-7.281L-25.662,0.896c0,0-4.563-13.63-1.617-21.776c2.695-7.449,2.444-7.789,5.116-12.905
		l4.353-7.102c0,0,1.375-1.911,1.375-3.817v-3.971l-11.073-28.253C-27.51-76.927-59.115-65.14-59.461-64.793"/>
	<path fill="#C9CACC" d="M24.697-99.197c0,3.494-2.833,6.326-6.326,6.326c-3.494,0-6.326-2.832-6.326-6.326v-15.252
		c0-3.494,2.832-6.326,6.326-6.326c3.493,0,6.326,2.833,6.326,6.326V-99.197z"/>
	<path fill="#231F20" d="M18.37-91.985c-3.977,0-7.213-3.235-7.213-7.212v-15.252c0-3.978,3.236-7.212,7.213-7.212
		s7.211,3.234,7.211,7.212v15.252C25.581-95.221,22.347-91.985,18.37-91.985 M18.37-119.89c-3,0-5.441,2.44-5.441,5.44v15.252
		c0,3,2.441,5.441,5.441,5.441s5.439-2.441,5.439-5.441v-15.252C23.81-117.449,21.37-119.89,18.37-119.89"/>
	<path fill="#656668" d="M22.269-113.409c0,2.058-1.668,3.727-3.727,3.727c-2.057,0-3.726-1.669-3.726-3.727
		s1.669-3.727,3.726-3.727C20.601-117.136,22.269-115.467,22.269-113.409"/>
	<path fill="#FFFFFF" d="M17.696-114.099c0,0.501-0.406,0.906-0.907,0.906c-0.5,0-0.906-0.406-0.906-0.906
		c0-0.501,0.406-0.906,0.906-0.906S17.696-114.6,17.696-114.099"/>
	<path fill="#FFFFFF" d="M19.075-115.27c0,0.276-0.223,0.5-0.498,0.5c-0.277,0-0.5-0.223-0.5-0.5c0-0.276,0.223-0.499,0.5-0.499
		C18.853-115.769,19.075-115.545,19.075-115.27"/>
	<path fill="#FFFFFF" d="M13.605-119.664c0,6.973-5.652,12.625-12.625,12.625c-6.972,0-12.624-5.652-12.624-12.625
		s5.652-12.625,12.624-12.625C7.952-132.289,13.605-126.637,13.605-119.664"/>
	<path fill="#231F20" d="M-16.901-130.828c0.351-0.448,3.986-5.294,3.986-5.294l4.712-2.827l-7.808-4.442
		c0,0-1.884-0.943-3.096,0.403c-1.212,1.347-1.212,3.231-1.212,3.231L-16.901-130.828z"/>
	<path fill="#231F20" d="M17.591-130.693c-0.352-0.448-3.986-5.295-3.986-5.295l-4.711-2.826l7.807-4.442
		c0,0,1.886-0.942,3.096,0.404c1.213,1.346,1.213,3.231,1.213,3.231L17.591-130.693z"/>
	<path fill="#231F20" d="M-6.588-139.219c0,0,4.904-1.823,7.365-1.315c2.463,0.508,6.097,1.45,6.097,1.45l1.48-0.135l-4.038-17.905
		c0,0-1.481-3.5-3.77-3.231c-2.288,0.27-3.904,3.635-3.904,3.635L-6.588-139.219z"/>
	<path fill="#72BF44" d="M-7.248-25.621c2.804,0,5.077-2.273,5.077-5.076c0-2.804-2.273-5.077-5.077-5.077
		c-2.804,0-5.077,2.273-5.077,5.077C-12.325-27.894-10.052-25.621-7.248-25.621"/>
	<path fill="#72BF44" d="M-0.324-41.083c1.529,0,2.769-1.239,2.769-2.769s-1.24-2.769-2.769-2.769c-1.53,0-2.77,1.239-2.77,2.769
		S-1.854-41.083-0.324-41.083"/>
	<path fill="#72BF44" d="M3.599-24.236c0,3.824,3.1,6.923,6.922,6.923c3.824,0,6.925-3.099,6.925-6.923
		c0-3.824-3.1-6.923-6.925-6.923C6.698-31.159,3.599-28.06,3.599-24.236"/>
	<path fill="#72BF44" d="M-18.786-2.312c0-3.823-3.1-6.923-6.923-6.923c-0.545,0-1.074,0.065-1.583,0.184
		c0.272,5.4,1.379,9.949,1.379,9.949l0.975,3.67C-21.478,4.185-18.786,1.251-18.786-2.312"/>
	<path fill="#72BF44" d="M-3.555-71.661c0-2.613-2.119-4.73-4.731-4.73c-2.613,0-4.731,2.118-4.731,4.73
		c0,2.614,2.118,4.731,4.731,4.731C-5.674-66.93-3.555-69.047-3.555-71.661"/>
	<path fill="#72BF44" d="M4.866-60.006c0-1.466-1.188-2.654-2.652-2.654c-1.467,0-2.655,1.188-2.655,2.654s1.188,2.654,2.655,2.654
		C3.679-57.352,4.866-58.541,4.866-60.006"/>
	<path fill="#72BF44" d="M-13.635-44.351c0-1.466-1.188-2.655-2.654-2.655c-0.141,0-0.277,0.014-0.412,0.035
		c0.065,0.586,0.112,1.205,0.112,1.777c0,0.822-0.354,2.094-0.757,3.277c0.324,0.141,0.681,0.22,1.056,0.22
		C-14.823-41.697-13.635-42.885-13.635-44.351"/>
	<path fill="#72BF44" d="M-4.248,1.61c-3.823,0-6.923,3.1-6.923,6.924s3.1,6.924,6.923,6.924s6.924-3.1,6.924-6.924
		S-0.425,1.61-4.248,1.61"/>
	<path fill="#72BF44" d="M14.79-62.789c0,2.632,1.47,4.921,3.633,6.092l5.484-12.658c-0.689-0.23-1.426-0.356-2.193-0.356
		C17.89-69.712,14.79-66.613,14.79-62.789"/>
	<path fill="#72BF44" d="M6.599-82.392c-1.912,0-3.463,1.55-3.463,3.462c0,1.911,1.551,3.461,3.463,3.461
		c1.91,0,3.461-1.55,3.461-3.461C10.06-80.842,8.51-82.392,6.599-82.392"/>
	<path fill="#72BF44" d="M-33.787-81.238c3.568,0,6.462-2.892,6.462-6.461c0-0.629-0.091-1.235-0.259-1.81l-11.802,5.035
		C-38.269-82.541-36.181-81.238-33.787-81.238"/>
	<path fill="#72BF44" d="M-42.095-77.776c-3.568,0-6.461,2.892-6.461,6.461c0,0.63,0.092,1.237,0.259,1.812
		c3.768-1.522,7.999-3.222,11.932-4.8C-37.445-76.366-39.605-77.776-42.095-77.776"/>
	<path fill="#72BF44" d="M-50.634-84.469c0.369,0,0.729-0.032,1.081-0.092l3.759-10.649c-1.184-1.338-2.913-2.182-4.84-2.182
		c-0.755,0-1.48,0.131-2.154,0.37c-1.395,2.614-2.803,5.259-4.102,7.714C-56.171-86.524-53.642-84.469-50.634-84.469"/>
	<path fill="#72BF44" d="M29.511-89.489l2.089,1.102C30.985-88.874,30.279-89.252,29.511-89.489"/>
	<path fill="#72BF44" d="M21.137-83.315c0,3.569,2.894,6.461,6.462,6.461s6.462-2.893,6.462-6.461c0-2.058-0.963-3.888-2.46-5.073
		l-2.09-1.102c-0.604-0.187-1.246-0.288-1.912-0.288C24.031-89.777,21.137-86.884,21.137-83.315"/>
	<path fill="#72BF44" d="M-18.576-115.819c0.276,1.208,0.697,2.624,1.329,4.404c0.618,1.742,1.948,3.666,3.462,5.471
		c0.631-0.998,0.998-2.18,0.998-3.448C-12.787-112.734-15.323-115.483-18.576-115.819"/>
	<path fill="#72BF44" d="M18.933-123.649l-2.383-8.045c0,0-0.691-0.619-1.691-1.486c-0.556,0.955-0.877,2.064-0.877,3.249
		C13.983-126.884,16.095-124.33,18.933-123.649"/>
	<path fill="#72BF44" d="M-8.056-10.621c2.358,0,4.27-1.911,4.27-4.269c0-2.359-1.912-4.27-4.27-4.27s-4.27,1.911-4.27,4.27
		C-12.325-12.532-10.414-10.621-8.056-10.621"/>
	<path fill="#72BF44" d="M-17.667-31.838c0-2.261-0.845-4.322-2.235-5.89l-1.25,1.781c0,0-2.378,5.392-5.163,12.987
		C-21.517-23.085-17.667-27.011-17.667-31.838"/>
	<path fill="#72BF44" d="M32.099,7.61c0,4.906,3.979,8.885,8.885,8.885c0.619,0,1.225-0.062,1.809-0.184
		c-0.229-0.99-0.482-2.021-0.764-3.109c-1.064-4.098-2.962-8.865-5.081-13.505C34.071,1.167,32.099,4.157,32.099,7.61"/>
	<path fill="#72BF44" d="M11.79,30.688c0,4.906,3.979,8.885,8.886,8.885c4.905,0,8.885-3.979,8.885-8.885
		c0-4.908-3.979-8.885-8.885-8.885C15.769,21.804,11.79,25.78,11.79,30.688"/>
	<path fill="#72BF44" d="M39.368,35.882c1.975,0,3.578-1.602,3.578-3.578c0-1.975-1.604-3.576-3.578-3.576s-3.576,1.602-3.576,3.576
		C35.792,34.28,37.394,35.882,39.368,35.882"/>
	<path fill="#72BF44" d="M11.099,46.267c-3.314,0-6,2.686-6,6c0,3.312,2.686,6,6,6c3.312,0,6-2.688,6-6
		C17.099,48.952,14.411,46.267,11.099,46.267"/>
	<path fill="#72BF44" d="M-10.594,32.188c0-3.314-2.687-6-6-6c-0.877,0-1.709,0.189-2.461,0.529l3.04,11.443
		C-12.974,37.87-10.594,35.308-10.594,32.188"/>
	<path fill="#72BF44" d="M15.945,72.345c0,1.191,0.35,2.301,0.949,3.234c1.891-1.771,4.875-4.578,8.565-8.096
		c-0.987-0.717-2.201-1.139-3.514-1.139C18.631,66.345,15.945,69.03,15.945,72.345"/>
	<path fill="#72BF44" d="M-5.428,86.218c0-3.041-2.264-5.553-5.198-5.945c-0.57,1.4-1.125,2.975-1.595,4.686
		c-0.546,1.986-0.793,4.455-0.869,7.025c0.528,0.152,1.084,0.234,1.662,0.234C-8.115,92.218-5.428,89.532-5.428,86.218"/>
	<path fill="#72BF44" d="M-1.116,76.843c-1.14,0-2.063,0.924-2.063,2.062c0,1.141,0.923,2.064,2.063,2.064
		c1.139,0,2.062-0.924,2.062-2.064C0.947,77.767,0.023,76.843-1.116,76.843"/>
	<path fill="#72BF44" d="M26.773,55.778c-1.139,0-2.062,0.924-2.062,2.062s0.924,2.062,2.062,2.062s2.063-0.924,2.063-2.062
		S27.911,55.778,26.773,55.778"/>
	<path fill="#72BF44" d="M0.525,26.903c-1.14,0-2.063,0.924-2.063,2.064c0,1.139,0.923,2.062,2.063,2.062
		c1.139,0,2.062-0.924,2.062-2.062C2.587,27.827,1.663,26.903,0.525,26.903"/>
	<path fill="#72BF44" d="M21.149-4.031c1.138,0,2.062-0.924,2.062-2.062c0-1.139-0.925-2.063-2.062-2.063
		c-1.14,0-2.063,0.924-2.063,2.063C19.085-4.955,20.009-4.031,21.149-4.031"/>
	<path fill="#72BF44" d="M5.774,88.026c-1.14,0-2.062,0.924-2.062,2.062s0.923,2.062,2.062,2.062s2.063-0.924,2.063-2.062
		S6.913,88.026,5.774,88.026"/>
	<path fill="#72BF44" d="M8.962,106.214c0-0.125-0.013-0.246-0.034-0.365l-0.303,1.492C8.837,107.017,8.962,106.63,8.962,106.214"/>
	<path fill="#72BF44" d="M6.899,104.151c-1.14,0-2.062,0.922-2.062,2.062c0,1.139,0.923,2.062,2.062,2.062
		c0.724,0,1.358-0.373,1.726-0.936l0.303-1.49C8.756,104.884,7.913,104.151,6.899,104.151"/>
	<path fill="#72BF44" d="M13.753,5.995c-2.295,0-4.154,1.861-4.154,4.154c0,2.295,1.859,4.154,4.154,4.154
		c2.294,0,4.154-1.859,4.154-4.154C17.907,7.856,16.047,5.995,13.753,5.995"/>
	<path fill="#F8C1AC" d="M-12.096-103.14c0,0,2.352,1.666,4.998,0.197c2.646-1.47,4.312-3.724,8.036-3.528
		c3.723,0.196,4.854,3.582,8.33,4.214c2.155,0.392,3.527-0.392,3.527-0.392l-7.84,5.586v8.036l6.664-0.196
		c0,0-1.078,7.546-10.291,7.84c-9.211,0.294-12.249-7.448-12.249-7.448l6.468-0.783l-0.098-4.704l-0.783-3.038L-12.096-103.14z"/>
	<path fill="#FFFFFF" d="M-4.863-102.865H5.712C5.712-102.865,0.759-95.235-4.863-102.865"/>
	<path fill="#231F20" d="M0.378-98.766c-2.058,0-4.013-1.238-5.812-3.68c-0.158-0.215-0.183-0.501-0.062-0.739
		c0.121-0.239,0.365-0.39,0.633-0.39H5.712c0.26,0,0.498,0.143,0.622,0.371c0.124,0.228,0.113,0.506-0.028,0.723
		C6.208-102.328,3.855-98.766,0.378-98.766 M-3.362-102.157c1.225,1.312,2.479,1.975,3.74,1.975c1.619,0,2.994-1.093,3.84-1.975
		H-3.362z"/>
	<path fill="#231F20" d="M-59.955-63.516c-0.287,0-0.564-0.14-0.733-0.389c-3.518-5.184-3.521-9.899-2.905-12.942
		c0.616-3.037,1.938-5.03,2.2-5.403l17.013-32.326c0.076-0.144,0.189-0.263,0.329-0.347l11.346-6.801
		c0.208-0.125,0.458-0.159,0.693-0.094c0.234,0.065,0.431,0.223,0.545,0.438l4.085,7.69c0.158,0.296,0.134,0.657-0.062,0.93
		l-3.604,5.046c-0.272,0.381-0.793,0.485-1.19,0.237c-0.008-0.005-0.834-0.521-1.643-1.048c-0.479-0.312-0.861-0.567-1.134-0.759
		c-0.468-0.328-1.107-0.778-0.769-1.496c0.166-0.351,0.603-0.642,1.171-0.452c0.22,0.074,0.393,0.225,0.496,0.414
		c0.402,0.289,1.25,0.845,2.113,1.394l2.8-3.92l-3.391-6.382l-10.333,6.193l-16.924,32.16c-0.021,0.04-0.045,0.078-0.072,0.114
		c-0.214,0.292-5.097,7.155,0.31,15.758l35.732-14.693c0.504-0.291,3.387-1.789,6.319,0.043c0.415,0.259,0.541,0.806,0.281,1.221
		c-0.259,0.415-0.806,0.541-1.221,0.281c-2.231-1.395-4.492-0.014-4.514,0c-0.042,0.026-0.086,0.049-0.133,0.068l-36.469,14.996
		C-59.728-63.537-59.843-63.516-59.955-63.516"/>
	<path fill="#231F20" d="M-51.777-73.059c-0.458,0-0.846-0.354-0.882-0.818L-53-78.308c-0.011-0.131,0.009-0.263,0.056-0.386
		l11.929-31.016c0.103-0.266,0.327-0.467,0.604-0.539l7.839-2.044c0.475-0.124,0.958,0.16,1.081,0.633
		c0.124,0.473-0.161,0.957-0.634,1.081l-7.399,1.93l-11.694,30.405l0.326,4.231c0.038,0.488-0.328,0.913-0.815,0.951
		C-51.731-73.06-51.755-73.059-51.777-73.059"/>
	<path fill="#231F20" d="M-52.116-77.489c-0.336,0-0.657-0.192-0.806-0.517c-0.203-0.445-0.008-0.97,0.437-1.174l26.383-12.078
		c0.737-0.628,4.991-4.042,9.529-3.338c2.437,0.378,4.49,1.859,6.11,4.406h5.993c0.49,0,0.886,0.396,0.886,0.886
		c0,0.489-0.396,0.885-0.886,0.885h-6.489c-0.313,0-0.604-0.166-0.763-0.436c-1.377-2.334-3.101-3.678-5.124-3.991
		c-4.066-0.628-8.142,2.964-8.183,3c-0.066,0.06-0.141,0.108-0.222,0.146L-51.748-77.57C-51.867-77.516-51.992-77.489-52.116-77.489
		"/>
	<path fill="#231F20" d="M11.948-88.419H5.458c-0.488,0-0.885-0.396-0.885-0.886c0-0.489,0.396-0.885,0.885-0.885h5.992
		c0.41-0.645,0.852-1.224,1.316-1.731c0.33-0.36,0.891-0.385,1.252-0.054c0.36,0.332,0.385,0.891,0.053,1.252
		c-0.482,0.526-0.941,1.155-1.362,1.869C12.551-88.584,12.261-88.419,11.948-88.419"/>
	<path fill="#231F20" d="M52.345-75.775c-0.141,0-0.285-0.034-0.418-0.106L26.2-89.718c-0.209-0.104-2.197-1.085-3.508-1.859
		c-0.422-0.248-0.562-0.791-0.312-1.213c0.248-0.421,0.791-0.561,1.213-0.313c1.297,0.766,3.383,1.792,3.404,1.802
		c0.01,0.004,0.02,0.01,0.029,0.015l25.74,13.845c0.43,0.232,0.592,0.769,0.36,1.2C52.967-75.944,52.661-75.775,52.345-75.775"/>
	<path fill="#231F20" d="M0.411,64.536c-0.484,0-0.88-0.389-0.885-0.875c-0.023-2.186-0.552-53.58-0.074-60.506
		c0.212-3.068,1.736-6.08,4.408-8.71c1.986-1.956,3.898-3.016,3.98-3.06C8.269-8.85,8.808-8.692,9.042-8.264
		c0.236,0.43,0.078,0.968-0.35,1.203C8.58-6.999,1.659-3.095,1.22,3.278c-0.473,6.854,0.072,59.83,0.078,60.363
		c0.004,0.49-0.388,0.891-0.877,0.895H0.411L0.411,64.536z"/>
	<path fill="#231F20" d="M-2.788-0.943c-0.204,0-0.409-0.07-0.577-0.214l-5.046-4.325C-8.783-5.801-8.826-6.36-8.508-6.731
		c0.318-0.372,0.877-0.415,1.249-0.097l5.046,4.326c0.372,0.318,0.415,0.877,0.096,1.249C-2.29-1.048-2.538-0.943-2.788-0.943"/>
	<path fill="#231F20" d="M-6.44,53.415c-6.028,0-8.39-7.785-8.492-8.133c-0.004-0.014-0.008-0.027-0.012-0.041
		c-0.054-0.229-5.596-23.053-12.002-44.17c-2.533-8.35-2.509-16.931,0.072-25.506c2.133-7.089,5.572-12.699,7.627-16.051
		c0.512-0.835,0.954-1.556,1.271-2.127c1.656-2.982-0.758-7.906-0.782-7.956c-0.014-0.029-0.027-0.059-0.039-0.09l-9.545-25.962
		c-0.169-0.46,0.066-0.969,0.526-1.138c0.459-0.169,0.968,0.067,1.137,0.526l9.529,25.919c0.289,0.594,2.757,5.899,0.723,9.561
		c-0.336,0.604-0.787,1.34-1.31,2.193c-4.274,6.972-13.167,21.479-7.514,40.116c6.327,20.857,11.812,43.369,12.023,44.242
		c0.06,0.195,0.648,2.035,1.849,3.758c1.588,2.277,3.472,3.301,5.601,3.045c4.339-0.52,5.228-3.771,5.228-8.492
		c0-0.488,0.397-0.885,0.886-0.885s0.886,0.396,0.886,0.885c0,3.064,0,9.438-6.789,10.252C-5.865,53.397-6.157,53.415-6.44,53.415"
		/>
	<path fill="#231F20" d="M-8.912-61.198c-0.486,0-0.972-0.041-1.457-0.123c-4.389-0.744-7.07-4.589-7.183-4.752
		c-0.221-0.323-0.139-0.764,0.184-0.985c0.323-0.222,0.764-0.14,0.985,0.183c0.036,0.052,2.478,3.523,6.261,4.158
		c2.19,0.369,4.436-0.279,6.673-1.925c0.315-0.231,0.759-0.164,0.991,0.151s0.165,0.759-0.152,0.99
		C-4.69-61.97-6.804-61.198-8.912-61.198"/>
	<path fill="#231F20" d="M16.679,47.839c-0.054,0-0.107-0.004-0.161-0.014c-0.48-0.088-0.8-0.551-0.712-1.031
		c0.041-0.225,4.149-22.637,9.38-46.174c4.425-19.905-3.679-31.659-7.572-37.309c-0.298-0.433-0.57-0.827-0.81-1.186
		c-3.562-5.343-0.613-14.507-0.485-14.894c0.004-0.013,0.009-0.026,0.013-0.038l8.705-22.908c0.175-0.457,0.686-0.687,1.143-0.513
		c0.457,0.174,0.688,0.686,0.514,1.143l-8.697,22.886c-0.139,0.438-2.735,8.816,0.282,13.342c0.234,0.352,0.502,0.739,0.794,1.163
		c4.036,5.855,12.435,18.039,7.843,38.698c-5.222,23.502-9.325,45.885-9.366,46.107C17.47,47.54,17.097,47.839,16.679,47.839"/>
	<path fill="#231F20" d="M8.864-61.198c-2.106,0-4.221-0.771-6.303-2.302c-0.315-0.232-0.384-0.675-0.151-0.991
		c0.231-0.314,0.675-0.382,0.99-0.15c2.237,1.646,4.482,2.293,6.673,1.925c3.793-0.637,6.237-4.124,6.261-4.159
		c0.223-0.322,0.664-0.403,0.986-0.182c0.322,0.222,0.404,0.662,0.184,0.984c-0.113,0.163-2.795,4.009-7.183,4.752
		C9.835-61.239,9.349-61.198,8.864-61.198"/>
	<path fill="#231F20" d="M0.096,129.067c-0.244,0-0.486-0.102-0.661-0.297c-10.161-11.4-14.636-23.562-13.681-37.18
		c1.234-17.592,17.224-32.557,24.908-39.748c0.78-0.73,1.453-1.361,2.036-1.922C18.997,43.854,23.283,34.89,23.326,34.8
		c0.209-0.441,0.737-0.631,1.18-0.422c0.441,0.209,0.631,0.738,0.421,1.18c-0.18,0.379-4.47,9.35-11,15.639
		c-0.592,0.57-1.27,1.205-2.055,1.939c-7.519,7.037-23.166,21.68-24.351,38.578c-0.472,6.719,0.385,12.896,2.62,18.885
		c0.971,2.602,2.191,5.139,3.679,7.641c-2.958-8.127-2.984-16.186-0.072-23.316c0.185-0.453,0.702-0.67,1.155-0.486
		c0.453,0.186,0.67,0.701,0.485,1.156c-3.484,8.529-1.845,16.762,0.142,22.164c2.174,5.912,5.231,9.836,5.26,9.875
		c0.297,0.377,0.24,0.92-0.127,1.227C0.499,128.999,0.297,129.067,0.096,129.067"/>
	<path fill="#231F20" d="M-7.354,118.733c-0.311,0-0.613-0.164-0.774-0.455c-0.09-0.164-2.211-4.041-2.334-9.633
		c-0.114-5.156,1.527-12.783,9.991-19.836c1.886-1.572,4.076-3.32,6.395-5.172c12.138-9.689,28.763-22.959,33.717-36.037
		c6.977-18.42,3.699-38.209-10.02-60.501c-0.019-0.031-0.036-0.063-0.051-0.096l-5.733-12.554c-0.203-0.444-0.008-0.97,0.438-1.173
		c0.445-0.204,0.971-0.008,1.174,0.438l5.711,12.503C45.161,8.989,48.477,29.274,41.297,48.229
		C36.172,61.761,19.327,75.206,7.03,85.022c-2.312,1.846-4.495,3.59-6.366,5.148c-6.334,5.277-9.482,11.453-9.355,18.355
		c0.095,5.174,2.094,8.855,2.114,8.893c0.236,0.426,0.082,0.967-0.347,1.203C-7.061,118.696-7.208,118.733-7.354,118.733"/>
	<path fill="#231F20" d="M-0.922,161.081c-0.062,0-0.125-0.006-0.189-0.02c-2.236-0.486-2.303-3.328-2.406-7.629
		c-0.021-0.879-0.043-1.785-0.082-2.773c-0.167-4.197,0.355-5.549,1.146-7.596c0.302-0.781,0.644-1.666,1.017-2.883
		c1.207-3.938,1.52-12.557,0.986-27.123C-0.935,99.849-0.209,89.403-0.202,89.3c0.034-0.488,0.459-0.855,0.946-0.82
		c0.489,0.033,0.855,0.457,0.821,0.945c-0.008,0.104-0.727,10.459-0.245,23.568c0.55,14.973,0.222,23.518-1.062,27.707
		c-0.391,1.275-0.745,2.193-1.058,3.002c-0.761,1.971-1.181,3.057-1.028,6.887c0.04,1.002,0.062,1.957,0.083,2.801
		c0.073,3.086,0.137,5.75,1.011,5.939c0.479,0.105,0.782,0.576,0.677,1.055C-0.148,160.8-0.514,161.081-0.922,161.081"/>
	<path fill="#231F20" d="M0.034,161.169c-0.476,0-0.869-0.377-0.885-0.855c-0.017-0.49,0.366-0.9,0.855-0.916
		c0.895-0.031,1.433-2.643,2.058-5.666c0.171-0.824,0.364-1.762,0.582-2.738c0.836-3.742,0.617-4.887,0.221-6.961
		c-0.164-0.852-0.348-1.818-0.504-3.143c-0.514-4.352,0.691-12.818,3.91-27.449c2.826-12.852,7.09-35.188,7.133-35.412
		c0.092-0.48,0.555-0.797,1.036-0.703c0.48,0.09,0.796,0.555,0.704,1.035c-0.043,0.225-4.311,22.584-7.143,35.459
		c-3.132,14.236-4.365,22.771-3.882,26.863c0.148,1.262,0.327,2.195,0.484,3.018c0.412,2.154,0.685,3.578-0.231,7.678
		c-0.215,0.965-0.398,1.854-0.576,2.713c-0.869,4.215-1.445,6.998-3.731,7.076C0.054,161.169,0.044,161.169,0.034,161.169"/>
	<path fill="#231F20" d="M58.234-64.936c-1.437,0-2.611-0.267-2.727-0.294c-0.027-0.006-0.055-0.014-0.081-0.023l-28.435-9.6
		c-0.04-0.013-0.079-0.03-0.116-0.049L16.06-80.37c-0.299-0.151-0.486-0.457-0.486-0.791v-5.843
		c-0.025-0.009-0.053-0.018-0.077-0.029c-2.301-1.007-3.103-4.715-3.187-5.135c-0.052-0.26,0.016-0.53,0.184-0.735
		s0.42-0.323,0.685-0.323h9.965c0.29,0,0.562,0.141,0.728,0.38l5.661,8.138l28.619,9.139c2.403,0.672,6.642,3.045,5.588,7.261
		C63.04-65.517,60.353-64.936,58.234-64.936 M55.948-66.946c0.468,0.1,5.356,1.073,6.072-1.791c0.903-3.608-4.146-5.069-4.36-5.13
		c-0.01-0.002-0.021-0.006-0.031-0.009l-28.922-9.236c-0.186-0.059-0.346-0.178-0.458-0.338l-5.568-8.005h-8.339
		c0.264,0.781,0.68,1.729,1.232,2.324v-0.78c0-0.489,0.396-0.885,0.885-0.885c0.49,0,0.887,0.396,0.887,0.885v8.205l10.271,5.194
		L55.948-66.946z"/>
	<path fill="#231F20" d="M18.545-92.062c-3.839,0-6.962-3.123-6.962-6.962v-15.311c0-3.839,3.123-6.962,6.962-6.962
		s6.962,3.123,6.962,6.962v15.311C25.507-95.185,22.384-92.062,18.545-92.062 M18.545-119.525c-2.862,0-5.19,2.328-5.19,5.19v15.311
		c0,2.862,2.328,5.19,5.19,5.19c2.861,0,5.189-2.328,5.189-5.19v-15.311C23.735-117.197,21.406-119.525,18.545-119.525"/>
	<path fill="#231F20" d="M18.545-107.981c-2.901,0-5.261-2.36-5.261-5.26c0-2.901,2.36-5.261,5.261-5.261
		c2.899,0,5.261,2.36,5.261,5.261S21.446-107.981,18.545-107.981 M18.545-116.73c-1.925,0-3.489,1.565-3.489,3.489
		s1.564,3.489,3.489,3.489c1.924,0,3.488-1.565,3.488-3.489C22.032-115.165,20.469-116.73,18.545-116.73"/>
	<path fill="#231F20" d="M20.064-73.956h-3.038c-0.489,0-0.886-0.396-0.886-0.886v-6.076c0-0.49,0.396-0.885,0.886-0.885
		s0.886,0.396,0.886,0.885v5.191h1.266v-3.489c0-0.489,0.396-0.886,0.886-0.886s0.886,0.396,0.886,0.886v4.374
		C20.949-74.353,20.553-73.956,20.064-73.956"/>
	<path fill="#231F20" d="M0.786-106.88c-7.508,0-13.616-6.109-13.616-13.617s6.108-13.616,13.616-13.616
		c7.509,0,13.617,6.108,13.617,13.616S8.295-106.88,0.786-106.88 M0.786-132.343c-6.531,0-11.845,5.313-11.845,11.846
		c0,6.53,5.314,11.845,11.845,11.845c6.531,0,11.846-5.314,11.846-11.845C12.632-127.029,7.318-132.343,0.786-132.343"/>
	<path fill="#231F20" d="M0.574-95.635c-11.081,0-20.576-13.928-20.576-25.329c0-11.206,9.116-20.322,20.321-20.322
		c11.207,0,20.322,9.116,20.322,20.322c0,0.234-0.004,0.47-0.012,0.707c-0.016,0.489-0.425,0.879-0.914,0.856
		c-0.488-0.016-0.871-0.425-0.855-0.914c0.006-0.218,0.01-0.435,0.01-0.649c0-10.229-8.322-18.551-18.551-18.551
		c-10.228,0-18.549,8.322-18.549,18.551c0,5.135,2.109,11.01,5.642,15.715c3.742,4.984,8.54,7.843,13.163,7.843
		c4.936,0,8.76-3.052,11.098-5.614c0.329-0.361,0.89-0.386,1.252-0.056c0.361,0.33,0.386,0.89,0.056,1.251
		C9.282-97.776,4.993-95.635,0.574-95.635"/>
	<path fill="#231F20" d="M7.745-120.497c0,3.843-3.115,6.959-6.959,6.959s-6.959-3.116-6.959-6.959c0-3.845,3.116-6.96,6.959-6.96
		S7.745-124.341,7.745-120.497"/>
	<path fill="#231F20" d="M0.786-113.054c-4.104,0-7.444-3.339-7.444-7.443c0-4.105,3.339-7.445,7.444-7.445
		c4.104,0,7.444,3.339,7.444,7.445C8.23-116.393,4.89-113.054,0.786-113.054 M0.786-126.974c-3.571,0-6.475,2.906-6.475,6.477
		c0,3.57,2.904,6.475,6.475,6.475c3.571,0,6.475-2.905,6.475-6.475C7.262-124.068,4.358-126.974,0.786-126.974"/>
	<path fill="#FFFFFF" d="M-1.929-125.42c0,1.406-1.14,2.546-2.546,2.546c-1.407,0-2.546-1.14-2.546-2.546s1.139-2.547,2.546-2.547
		C-3.069-127.967-1.929-126.826-1.929-125.42"/>
	<path fill="#FFFFFF" d="M-4.475-122.696c-1.501,0-2.723-1.222-2.723-2.724c0-1.502,1.222-2.724,2.723-2.724
		s2.724,1.222,2.724,2.724C-1.752-123.919-2.974-122.696-4.475-122.696 M-4.475-127.789c-1.306,0-2.369,1.062-2.369,2.369
		s1.062,2.369,2.369,2.369s2.369-1.062,2.369-2.369S-3.169-127.789-4.475-127.789"/>
	<path fill="#FFFFFF" d="M1.678-127.753c0,0.797-0.646,1.443-1.442,1.443c-0.797,0-1.443-0.646-1.443-1.443
		c0-0.797,0.646-1.444,1.443-1.444C1.031-129.197,1.678-128.551,1.678-127.753"/>
	<path fill="#FFFFFF" d="M0.235-126.21c-0.851,0-1.543-0.692-1.543-1.543c0-0.852,0.692-1.544,1.543-1.544
		c0.852,0,1.544,0.692,1.544,1.544C1.779-126.902,1.086-126.21,0.235-126.21 M0.235-129.097c-0.74,0-1.343,0.603-1.343,1.343
		c0,0.74,0.603,1.342,1.343,1.342c0.739,0,1.343-0.602,1.343-1.342S0.974-129.097,0.235-129.097"/>
	<path fill="#231F20" d="M-4.178-84.61c-0.477,0-0.871-0.379-0.885-0.859c-0.007-0.23-0.169-5.674,0.001-8.399
		c0.135-2.172-2.285-4.008-2.31-4.026c-0.395-0.289-0.48-0.844-0.191-1.238c0.29-0.395,0.844-0.48,1.238-0.19
		c0.132,0.096,3.229,2.402,3.031,5.565c-0.166,2.644,0,8.18,0.001,8.235c0.015,0.489-0.37,0.897-0.859,0.912
		C-4.16-84.61-4.17-84.61-4.178-84.61"/>
	<path fill="#231F20" d="M4.825-85.015c-0.008,0-0.018,0-0.027,0c-0.489-0.015-0.873-0.423-0.857-0.912c0-0.056,0.165-5.592,0-8.236
		c-0.205-3.279,3.084-4.864,3.223-4.931c0.443-0.208,0.971-0.019,1.179,0.424c0.208,0.442,0.02,0.968-0.421,1.177
		c-0.023,0.011-2.342,1.148-2.213,3.218c0.171,2.726,0.009,8.17,0.002,8.4C5.697-85.394,5.303-85.015,4.825-85.015"/>
	<path fill="#231F20" d="M-6.893-137.982c-0.057,0-0.114-0.005-0.171-0.016c-0.48-0.094-0.793-0.559-0.7-1.039
		c0.121-0.621,2.978-15.24,3.753-17.902c1.118-3.832,3.706-4.415,4.918-4.187c0.48,0.09,0.797,0.553,0.707,1.034
		c-0.09,0.477-0.545,0.792-1.021,0.709c-0.211-0.031-1.99-0.19-2.903,2.94c-0.753,2.584-3.686,17.593-3.715,17.745
		C-6.107-138.275-6.478-137.982-6.893-137.982"/>
	<path fill="#231F20" d="M8.382-137.982c-0.415,0-0.786-0.293-0.868-0.716c-0.029-0.151-2.962-15.161-3.716-17.745
		c-0.916-3.142-2.705-2.969-2.906-2.94c-0.48,0.09-0.936-0.227-1.026-0.708c-0.09-0.48,0.235-0.945,0.715-1.035
		c1.212-0.228,3.8,0.355,4.918,4.187c0.775,2.661,3.632,17.281,3.753,17.902c0.094,0.48-0.22,0.945-0.699,1.039
		C8.495-137.987,8.439-137.982,8.382-137.982"/>
	<path fill="#231F20" d="M-16.734-130.284c-0.337,0-0.659-0.194-0.807-0.521c-0.132-0.29-3.222-7.127-3.646-8.528
		c-0.651-2.147,0.648-3.714,1.426-4.243c0.405-0.274,0.956-0.17,1.23,0.235c0.273,0.403,0.17,0.95-0.229,1.227
		c-0.125,0.089-1.154,0.875-0.732,2.267c0.325,1.072,2.683,6.364,3.564,8.312c0.202,0.446,0.003,0.97-0.442,1.172
		C-16.488-130.31-16.612-130.284-16.734-130.284"/>
	<path fill="#231F20" d="M-8.039-137.876c-0.161,0-0.324-0.043-0.47-0.136c-1.812-1.136-6.737-4.188-7.754-4.654
		c-1.327-0.607-2.246,0.314-2.346,0.421c-0.333,0.354-0.891,0.379-1.249,0.051c-0.358-0.329-0.388-0.881-0.063-1.241
		c0.629-0.699,2.357-1.774,4.396-0.841c1.331,0.61,7.688,4.595,7.958,4.764c0.415,0.26,0.54,0.807,0.28,1.221
		C-7.456-138.023-7.744-137.876-8.039-137.876"/>
	<path fill="#231F20" d="M17.878-130.284c-0.122,0-0.246-0.025-0.365-0.079c-0.445-0.201-0.643-0.726-0.441-1.172
		c0.881-1.949,3.239-7.241,3.564-8.312c0.439-1.451-0.715-2.256-0.727-2.264c-0.404-0.275-0.51-0.826-0.234-1.23
		c0.275-0.405,0.825-0.51,1.23-0.235c0.777,0.529,2.076,2.096,1.426,4.243c-0.424,1.4-3.514,8.237-3.646,8.527
		C18.538-130.478,18.216-130.284,17.878-130.284"/>
	<path fill="#231F20" d="M9.185-137.876c-0.295,0-0.584-0.147-0.752-0.415c-0.26-0.414-0.135-0.961,0.28-1.221
		c0.27-0.17,6.628-4.154,7.958-4.764c2.039-0.935,3.766,0.141,4.396,0.841c0.327,0.363,0.298,0.924-0.067,1.251
		c-0.361,0.325-0.918,0.298-1.245-0.062c-0.104-0.111-1.021-1.026-2.345-0.42c-1.018,0.467-5.943,3.518-7.755,4.654
		C9.508-137.919,9.345-137.876,9.185-137.876"/>
	<path fill="#231F20" d="M-9.729-101.547c-0.701,0-1.412-0.165-2.131-0.495c-0.035-0.016-0.063-0.03-0.084-0.038
		c-0.372-0.124-0.564-0.523-0.44-0.894c0.124-0.371,0.533-0.569,0.905-0.445c0.046,0.015,0.118,0.045,0.213,0.09
		c0.516,0.237,1.887,0.867,3.66-0.389c0.237-0.167,0.476-0.34,0.721-0.516c2.292-1.653,4.889-3.528,7.724-3.135
		c0.388,0.054,0.657,0.411,0.604,0.799s-0.411,0.661-0.799,0.605c-2.273-0.311-4.625,1.383-6.701,2.88
		c-0.247,0.178-0.491,0.354-0.73,0.523C-7.741-101.886-8.725-101.547-9.729-101.547"/>
	<path fill="#231F20" d="M10.23-101.547c-1.004,0-1.988-0.339-2.941-1.014c-0.239-0.169-0.482-0.345-0.73-0.523
		c-2.075-1.498-4.428-3.194-6.7-2.88c-0.388,0.055-0.746-0.218-0.799-0.605c-0.053-0.387,0.218-0.745,0.605-0.799
		c2.836-0.393,5.432,1.482,7.724,3.135c0.245,0.176,0.483,0.349,0.721,0.516c1.772,1.257,3.144,0.626,3.66,0.389
		c0.095-0.044,0.167-0.074,0.213-0.09c0.371-0.124,0.774,0.076,0.897,0.447c0.122,0.368-0.073,0.764-0.436,0.893
		c-0.021,0.009-0.05,0.021-0.082,0.037C11.642-101.712,10.931-101.547,10.23-101.547"/>
	<path fill="#231F20" d="M0.545-80.283c-5.881,0-10.865-3.785-11.594-8.805c-0.056-0.387,0.212-0.747,0.6-0.803
		c0.389-0.056,0.747,0.212,0.803,0.599c0.628,4.328,5.009,7.591,10.19,7.591c5.199,0,9.582-3.275,10.195-7.619
		c0.055-0.388,0.412-0.658,0.801-0.603c0.387,0.054,0.656,0.413,0.602,0.8C11.431-84.083,6.447-80.283,0.545-80.283"/>
</g>
</svg>
