<?xml version="1.0" encoding="utf-8"?>
<!-- Generator: Adobe Illustrator 16.0.0, SVG Export Plug-In . SVG Version: 6.00 Build 0)  -->
<!DOCTYPE svg PUBLIC "-//W3C//DTD SVG 1.1//EN" "http://www.w3.org/Graphics/SVG/1.1/DTD/svg11.dtd" [
	<!ENTITY ns_extend "http://ns.adobe.com/Extensibility/1.0/">
	<!ENTITY ns_ai "http://ns.adobe.com/AdobeIllustrator/10.0/">
	<!ENTITY ns_graphs "http://ns.adobe.com/Graphs/1.0/">
	<!ENTITY ns_vars "http://ns.adobe.com/Variables/1.0/">
	<!ENTITY ns_imrep "http://ns.adobe.com/ImageReplacement/1.0/">
	<!ENTITY ns_sfw "http://ns.adobe.com/SaveForWeb/1.0/">
	<!ENTITY ns_custom "http://ns.adobe.com/GenericCustomNamespace/1.0/">
	<!ENTITY ns_adobe_xpath "http://ns.adobe.com/XPath/1.0/">
]>
<svg version="1.1" id="Layer_1" xmlns:x="&ns_extend;" xmlns:i="&ns_ai;" xmlns:graph="&ns_graphs;"
	 xmlns="http://www.w3.org/2000/svg" xmlns:xlink="http://www.w3.org/1999/xlink" x="0px" y="0px" width="595.279px"
	 height="841.89px" viewBox="0 0 595.279 841.89" enable-background="new 0 0 595.279 841.89" xml:space="preserve">
<metadata><?xpacket begin="﻿" id="W5M0MpCehiHzreSzNTczkc9d"?>
<x:xmpmeta xmlns:x="adobe:ns:meta/" x:xmptk="Adobe XMP Core 5.3-c011 66.145661, 2012/02/06-14:56:27        ">
   <rdf:RDF xmlns:rdf="http://www.w3.org/1999/02/22-rdf-syntax-ns#">
      <rdf:Description rdf:about=""
            xmlns:dc="http://purl.org/dc/elements/1.1/">
         <dc:format>image/svg+xml</dc:format>
         <dc:title>
            <rdf:Alt>
               <rdf:li xml:lang="x-default">Print</rdf:li>
            </rdf:Alt>
         </dc:title>
      </rdf:Description>
      <rdf:Description rdf:about=""
            xmlns:xmp="http://ns.adobe.com/xap/1.0/"
            xmlns:xmpGImg="http://ns.adobe.com/xap/1.0/g/img/">
         <xmp:MetadataDate>2018-09-05T11:39:45-03:00</xmp:MetadataDate>
         <xmp:ModifyDate>2018-09-05T11:39:45-03:00</xmp:ModifyDate>
         <xmp:CreateDate>2018-09-05T11:39:45-03:00</xmp:CreateDate>
         <xmp:CreatorTool>Adobe Illustrator CS6 (Macintosh)</xmp:CreatorTool>
         <xmp:Thumbnails>
            <rdf:Alt>
               <rdf:li rdf:parseType="Resource">
                  <xmpGImg:width>256</xmpGImg:width>
                  <xmpGImg:height>196</xmpGImg:height>
                  <xmpGImg:format>JPEG</xmpGImg:format>
                  <xmpGImg:image>/9j/4AAQSkZJRgABAgEASABIAAD/7QAsUGhvdG9zaG9wIDMuMAA4QklNA+0AAAAAABAASAAAAAEA&#xA;AQBIAAAAAQAB/+4ADkFkb2JlAGTAAAAAAf/bAIQABgQEBAUEBgUFBgkGBQYJCwgGBggLDAoKCwoK&#xA;DBAMDAwMDAwQDA4PEA8ODBMTFBQTExwbGxscHx8fHx8fHx8fHwEHBwcNDA0YEBAYGhURFRofHx8f&#xA;Hx8fHx8fHx8fHx8fHx8fHx8fHx8fHx8fHx8fHx8fHx8fHx8fHx8fHx8fHx8f/8AAEQgAxAEAAwER&#xA;AAIRAQMRAf/EAaIAAAAHAQEBAQEAAAAAAAAAAAQFAwIGAQAHCAkKCwEAAgIDAQEBAQEAAAAAAAAA&#xA;AQACAwQFBgcICQoLEAACAQMDAgQCBgcDBAIGAnMBAgMRBAAFIRIxQVEGE2EicYEUMpGhBxWxQiPB&#xA;UtHhMxZi8CRygvElQzRTkqKyY3PCNUQnk6OzNhdUZHTD0uIIJoMJChgZhJRFRqS0VtNVKBry4/PE&#xA;1OT0ZXWFlaW1xdXl9WZ2hpamtsbW5vY3R1dnd4eXp7fH1+f3OEhYaHiImKi4yNjo+Ck5SVlpeYmZ&#xA;qbnJ2en5KjpKWmp6ipqqusra6voRAAICAQIDBQUEBQYECAMDbQEAAhEDBCESMUEFURNhIgZxgZEy&#xA;obHwFMHR4SNCFVJicvEzJDRDghaSUyWiY7LCB3PSNeJEgxdUkwgJChgZJjZFGidkdFU38qOzwygp&#xA;0+PzhJSktMTU5PRldYWVpbXF1eX1RlZmdoaWprbG1ub2R1dnd4eXp7fH1+f3OEhYaHiImKi4yNjo&#xA;+DlJWWl5iZmpucnZ6fkqOkpaanqKmqq6ytrq+v/aAAwDAQACEQMRAD8A9U4q7FXYq7FXYq7FXYq7&#xA;FXYq7FXYq7FXYq7FXYq7FXjP/OQX5o3mh20HlXy/dGDXdQX1L26iPx2tpuKqf2ZJTsp6gVO1Qco1&#xA;OcYocRdv2J2VLXagYhtHnI90fxsPN8526XFtdG9tL26ttQJ5NfQzyJOW68jIDWuaMdo5bu31OXsd&#xA;2eYcPAQf53Eb/V9jNNF/On82dGCrFrSarAn2YNUhWX75k4TH/gsy8fav86Pyef1fsAOeHJ8JD9I/&#xA;4l71+VH5yaT56ikspof0b5itE53WnM3JWStPVgfbklSK91r9J2uPJGYuJsPAa3Q5dLkOPKOGQ/Fj&#xA;yeiZNxHYq7FXYq7FXYq7FXYq7FXYq7FXYq7FXYq7FXYq7FXYq7FXYq7FXYq4kAVPTFXmOq/n75Zs&#xA;7i6ks9N1DVND06QQ6lr1nErWcTluJ4MzKZQpPxFBTwrmJk1+CGWOKUwMkuUev4+9mIEi3pcE0U8M&#xA;c8LB4pVDxuu4ZWFQR8xmWwX4q7FXnnnj89fIXlUS2ou/0trKAhNMsKTPzHaWQfu46H7VTyA/ZORl&#xA;MRFk05Gn0uXNLgxxMpdwFvli91HU9X1W91vVn9XVdSlM1yw6LXZI1rWiotFAznNbqfFnt9I5PtHs&#xA;12KNDp6kP3s95foj8PvtDyXEEX97IqV/mYD9eY0McpcgS7nPrMOH+8nGH9aQH3qTalp69biP6GB/&#xA;Vlg0uU/wn5OHLtzRD/LY/wDTBEaB5pOkeaNG1nSnM2o2V3EY4Iwec0bsEkg/56KxXNho45MJJmKh&#xA;W/lXV4/2u1uh1enBhOMs0D6a50eY/T8H2B5S/NHy15kv30lVuNK16JecmjalEbe54Dq6CrJIvujH&#xA;bfNnp9TjzQ48chKPeN3zSUSObL8vYuxV2KuxV2KuxV2KuxV2KuxV2KuxV2KuxV2KuxV2KuxVSu7y&#xA;0s4GuLueO2t03eaVlRF+bMQBirBNT/PX8urSdrWwvZdevV/49dHhe8Y702kQej/w+VZs+PELnIRH&#xA;ma+9nGEpGgLU9K/PPyfdahFYarbah5bmuDxtpNat1toZWArRZleSMH/WYZVp9bhzX4c4zruNpnhn&#xA;D6gQgPzN1698xaxF+Xeg3DQpcwi68z6lCRWCwf7MCN/vy4/4h4g5rO3u2I6HAZ85naI7z+ocz8B1&#xA;Tix8RQ3nbytGv5Yar5e0G2EKR2TpZ2sQ68Pj4itas9DudyT455P2Zrye0IZ80r9YMifl9jnzj6SA&#xA;z3yh5o0bWfJ2na9a3CLp8tsrySOwURFF4ypISaKY2Uq3yz3UOrYD5x/5yU8maS0lp5fjfzHqK7Vt&#xA;jwtEP+VcEEN/sAw98qy5oYxcjTsNB2VqNXKsUDLz6D3nk8T83fmh+YPm/nFqmpGx0ySoOladyhiK&#xA;n9mV6mST3DGnhTNVm7UPKA+Je/7M9hIRqWplxH+bHl8Zc/lXvYtBbQQJwhQIvt/E5q8mWUzcjb3O&#xA;l0WHTx4cURCPl+nv+KvZWmpapqUOk6RbNeancfYhXoi9DJI3RUXuTgkYY4HLlPDjj17/ACHeXUdu&#xA;+0GPRR4R6sx5R/TLy+/7Xoum/krb6a17cebLtbXR7CNJb3VQU9W5lKBmWB2VmggiLcKKA8je3EDQ&#xA;5vac5BGOmjeSZIjDeoi69Q5TnLnvcYjzsvk2rzZNRkOTNKyfxQ7gEn0Ly22kX6fmBZ6VLN5fW4ZU&#xA;0S4H1i4/RTKUNxSTkS9f3gWvTvTfM7V60ZofkZzAzcP1j0x8Xnw7dP4b7+ltUdLIR8QDbu8u97/5&#xA;f1Py/q2nx6noksFxaTj4Z4AB7lWoAVYd1O4zznV4M2GZx5QYyHQ/j7WyJB3CTfmP5bl1XQzqGmj0&#xA;vMein69ot2g/eLND8fpgjqsoXiVOxzaezna0tHqYm/3cjUh0rv8AhzYZYcUXoHk7zJa+ZvK+ma9a&#xA;0EWo26TFAa8HIpJH80cFT8s9xdWnGKuxV2KuxV2KuxV2KuxV2KuxV2KuxV2KuxVjnmP8x/Inlvku&#xA;ta5aWkyfatjIJJ/+RMfOX/hcVYfdfnlLe1Xyp5V1HVq/Zu7sLp1qR/MrzcnYf7DNVqu3NJg+vJG+&#xA;4bn7LcnHpMk+QSi51j84taqLvWbHy7bN/ujSoDcTFT2ae5JCt7ouc3qvbXGNsUDLzlt9gv8AQ52P&#xA;so/xFJ7nyJ5SiP6R8zXc+sTJ1vdbu2mVe9OLlYgP9jmgze0ev1J4YGr6QG/6Zfa5sdDhgLP2t23n&#xA;vyfC36P8u202qyR/8eeiWclwF9/3SiP7jgxezvaGpPFMEX1md/0y+xZa3DDYH5Iqz8y+VPM/r6Ld&#xA;xFLsbXGi6nCYbgCla+jJudt6r0zF1XZes0EhMgxr+KPL59Pi2Y9RizCvsKXWXk3W/KF5Pf8Aka5j&#xA;WC4Km70O/BeGXgCFEdxvLGVBotSR47Zdl7Uxa2IhrAeKPLJHmPfH6T58i489Dw74/kWTaD+aujXd&#xA;6uk67BJ5c1w7CzviBFKen7i4FI5BXp0J7DNXq+wMsIeLhIzYf50eY/rR5xcUyo1IUUk89fkbZa8Z&#xA;n0fU5dHS5l+s3WmjlJYSz0p63oBkCSEdWH3ZtOyfbHNpsYx5B4kByN1IfHe/xuxGMCYkADXQ8mH2&#xA;n/ONPmGH1GXzBbwMFrHHHBI6M3g3JxxHuAc2eX22wSoHDKXmZC/sDstN2pqdPPiwkYx/NF8J/wA2&#xA;RP2UxbX/ACN568uuw1TSJJ7del/YA3EJHiQo5oP9cDNlpu0NJqR+6yAH+bP0n9R+D2Oh9tYHbUQM&#xA;T/OjuPlzH2oby15Y8yea75bLRLV1jr/pOozoyQQr4ksBybwUZZq9Tg0kOPNIeUAQZS/UPNl2r7Y4&#xA;xDh0vqmf4iCBH4GrP2fc9107TPI35TeW2mnkJubggTXRHO8vZz0SNK1O/wBlBsOp7nOGzZ9X2xno&#xA;D0x5DlCEe8/pPM9OgfPcmQkmcyZSlzJ5kvN/PrefvNavea9pGoQaDCiTaXommPE0jyeqvL62TzkV&#xA;/R5UYRNwNPh+1XsvZ/8AkzRkxGSMs3IzOw90SdgPjv8AJpzafMRfDszb8uPNk3mPy8sl5E0Gq2bf&#xA;VtRidSn7xVBDgECgdSDTsds5Xtvs4aXPUDeOXqiee3d8HcaXMckN/qHNK/MOh+ZNE12PWPIdjJHe&#xA;XB56lEssCWE+/SeCR425035x7/TmZotXgz4Ti1kgYR+naXHH+rIA7eUnG1OmN3jG/wAKRvlbzB5p&#xA;89X97Z3+t/4ZudPcpcaDp8afXOIIHqtcziUMvgY1p49q0a/R6fQQjKGPx4z5ZJk8Hu4Y1R/rFwRx&#xA;EkHYjoyv8lxL5b1rzB5Aubh7hLR11fR5pac5LS7+GUUUKo9Odd6Dctno3s/2kNZpY5Koj0kDoR+y&#xA;i4WaHDJ6xm6anYq7FXYq7FXYq7FXYq7FXYq7FXYq8r8z/mh5jvfMF75f8jQWjfothDq2uX3N4I5z&#xA;9qCCOMgySJ+0SaA7HNN2t23h0QHHcpy5RH6e4OVptJLLy5MY1DRNb1NkHm/zjfXgnJVbC3kTTbWS&#xA;ilinpQcWeig/tdM4/Ue1+qyg+DARA6/UR+j7HaQ7Nxx+o39iWw6j+UnlSVYrL6kl9XiiWqG7uy38&#xA;vJBLLX/WOa86ftTXfUMkonv9MftofJu49Pi5V95Tu21Pz9rNP8P+TrxYm6XmsOmnxj/KEb8pXX5D&#xA;NnpvYrKd8sxH+rv+r9LRk7ViPpFpta/lV+Y2p/Fr/mmDS4T9uz0O3qSPa6uaup+SZ0Wl9ldFi5xM&#xA;z/SP6BQcHJ2jll1r3J5pf5FflzZzrdXtjJrt8Ot3rEz3rH5o59H/AITN/hwQxCoRER5CnDlOUjZN&#xA;s6tLKzsoFt7OCO2t0+xDCixoPkqgDLWDzD/nIHRdL1LSPL0E9sn17UNbstOh1FVUXEEUpeSX0pft&#xA;LVYjtXMHtPP4OmyZKvhhI/Yzxi5BjNxo35h+U6G1ZvN2hJ1jchNUhX2b7FxT/gjnlMdRotZ9X+DZ&#xA;vnjP6Yfc7nHqckOfqj9qpZax5M862Uti6R3RjJF1pl3HwuIWGx5RP8Slf5l+/IZdNqtBMTFxvlKJ&#xA;9J+I2PuPyc2OTHmFc/JCw6L5z8rEP5R1D69padfL2qO0iKB+zbXB+OPborHj45dLV6XV7amHBk/1&#xA;SG3+mjyPmRu42TRGO8D8D+tkfl780tC1C6TTNWjk8v66djp1/RA56fuJto5QT0pufDNbrOwc2OPi&#xA;YyM2H+dDp/Wjzj+N3F4qNSFFmWaNkwj8w/zS0zynBLbW0R1PXhE0y6dFU+nGo5Ga4YV9ONRv4n8c&#xA;33Y3YOTWSEpHw8N1xHqf5se8tc8lctyxvSvK2o6hbt5m1DU0v/NN7Bz0+/aP1LSzWVeSLbQkgcRX&#xA;7R3P312Wo7Qhjl+XhAw08ZeqN1Kdfz5fo5Bz8GlqPFdzI2PQe5jlxpnnfy3Jb6uNMuNX1uCUnUdV&#xA;trxrhL20fdrd7N1Qw+n1iMQIB2IOdJ+d7L1mn/Lj9z/NsVUu++Xvs2XF8LUY58f1PQ9V1fULfR49&#xA;SsNNlvmPpyS2VfTuBC+78UYHlIgP2CR884nT6aEspxzmIcxxc43037j/ADt3aTmRGwL+9IfMHlk+&#xA;edLgnF5qeh8eS/U5B6avv1nt6jl7fENs2Wi1/wDJ+UjhxZuW/P8A0sunns05cPjR5yj+O55t5g8q&#xA;eb/LvnrS7zTbiwtLq4e5k0mPT4vQRFi5TtHJGQSUYy8Pjd/hPHoAM7KPbWm1+myeJA8EeHiB/pGt&#xA;j3jnyDp82llhkN+b1CTzjbz/AOD/AMzrdPq6WdydK8xwHrFBdt6MokrvSCfiy+NQc1HsxxaHXZNH&#xA;I3GY4onvrcH4x5+5hm9URJ79nojhuxV2KuxV2KuxV2KuxV2KuxV2KvK/zr/N618p2sWg6Zdxx+Zd&#xA;ToqzNV1soH2Nw6KHZm/32gFT17UNeaZhEyAsjp3/AD2+bKEbNJb5a0G00LR4NPtmeQJV5riWvqSy&#xA;yHlJJITvyZj3zxPtDWz1OaWWfM/YO56vDiGOIiEv8q+SdJ/MrzNqOsa9Cbvyvojtp2kWvN40nugQ&#xA;11OTGyMyqQEG/Fvoz0v2Y7N/L6YSkPXk3Pu/hH6fi6HtDUcc6HIPYdC8qeWdAi9LRdKtdOWlGNtC&#xA;kbMP8plHJvpOdK4Ca4q7FXYq7FXm/wCd9U07ypdHaO08zadJMT0CP6sJP0erms7ahx6LMB/qcvub&#xA;MR9QTzPA3aMc81fl95Z8y8Zr2AwalFQ2+q2jejdxEdCsq7mng1Rmz0HbGo0u0DcDzhLeJ+H6t2Mo&#xA;A79WJXNv+YnlMj6zCfNmhp1u7VBHqUSj+eCvGen+RuepzcQlotZ9J/L5e6W+M+6XOPx2b8ernD6v&#xA;UPtRNteeTfPGlSRgQ6nbIeM9vKtJYXNdmRgHjbY0O3scpni1XZ+QH1Y5dCOR+PIhzRLHmj3hjmtR&#xA;+bvJi2lr5e1uRdF1aePTguoVuzp8kzUjlt2Y14UqvFjQHf5bXSy02u4pZ8Y8XHEz9Hp8QDmJefWx&#xA;u4OfTGBHCfSTW/Rk+heTdI0fT7m2jVrq5vg36Sv7k+rPcs4IYyu3Ubnbp+OajV9p5c8xI+mMPpjH&#xA;aMfcHPxaeMI0OvPzYRaapqX5fAq/K+8oc6GFmBuLEu1P3ZYj1I+R+z1H31308GPtP+hqu/8Ahn7+&#xA;6Xny/RhxmcHnj+0PSdJ1jTNXsIr/AE24S6tJRVJUNR7gjqrDuDuM5fUabJhmYZBwyDsITEhYNhGZ&#xA;QzSrzF5m0by9YG91ScRITxiiHxSyv2SNBuzH/bzM0Why6mfBjFnr3DzJ6NWXNHGLkWA6cup6vrc/&#xA;mfV4TbSyxi30ywJqbe1B5fH/AMWSHdvDp7DoNRLHhwjTYjxAG5y/nS8vIdHSZchyS4j8GWeUfJ9t&#xA;feXvNekTTcrXW5WlEXGgheaEIZBvu3OPl9GantDtKUM2DKB6sQA99SuvkaWELBHe9E/J/wAxXOt+&#xA;Q7E322raWX0vVUJqy3VkfSbl7soV/pz2PDljkgJx3jIAj3F10hRZpliHYq7FXYq7FXYq7FXYq7FX&#xA;yt588+/njcWVzPrFtfeX7FJ/qws7VRYI8jORHHHdMZLi6LjtDRTua0GYuaeQHnGMe87/AGbAe+z7&#xA;m2Ij7yxvyt5R04391q/me9Fr5Y0eg1t7QMslzfSLUabBNyaeeSv94edBvSmzZi6Ss0PEkCY/w8XU&#xA;dJcO0Y302utyWzL6Twjn5J75G0/Xb/zHq1p5G0tNLk1ARpNbF5ZLPSIFqFe5ldnMt4w39MdDXwKr&#xA;r9XoI9ozjKQ/cwPPrP3f0PP+Lptu3Y8xwAgfUfs/b9z6V8leVbPyp5V07y/aOZYrCLg0xHEySMS8&#xA;shA6c5GZs6QOAU7xV2KuxV2KuxVh35waFca3+W+uWdrX67FALu0K/a9a0dbhAvuxi4/TkZxEgQeR&#xA;SCgvLetwa55f0/WICPTvreOegNeJdQWX5q1VOfPet0ssGaeKXOEiHbRNi11x5g0W3FZLuM+yHmfu&#xA;SuCGlyS5RK8QYr5m/MZbLTbq5tI/Tit4nkeaSnKiqTRV3FT2r92bXQ9jnJkjGR3kaa5ZKDC/IHlH&#xA;WLC60fzDzBl1a0uJfMXNjyeS4k+sQNxNaupcqxzfdsdpYskcmCtscojF5CI4ZfA1Yc7SaeUeGXeP&#xA;V94ZxrWh2WsW8NvdlxHBcQ3ScDxPqQOHWtQdqjfOf0uqngkZR6xMfhIU52TGJij32idQvY7HT7m9&#xA;lBaO1ieZ1XqVjUsQPfbK8OI5JxgOciB80zlwgnueS6VpMvmJoPMXmBxctcf6RY6au9rbpJ8S/D+2&#xA;/E7ls7DU6kaW8GD08O0p/wAUq5+4e55+czkPFL5I5tBvdOv31PyxdjS7yU1urZl52lx/xki2o3+U&#xA;u/35jx10MsPD1MfEgOR/jj7j+gphOUDcTSMbzN+aEkZiFrpEEh2N0HuHA/yljI+6p+eVDRdnA3xZ&#xA;iO70/e5B12XuihtP8tql9+ldWupNW1kj/ey4pSMfywRj4Y1+WTz9oEw8LFEYsX80df6x5lxTZNyN&#xA;lOs16WWeQWPqXq9iIz9xbNT2oNo/Fsxq3lGb/Dv5uanpLHjp/m62GpWQP2RfWY9O5Rfd4iJG+Wek&#xA;exWv8bR+GfqxGvgdx+kfBxNTCpX3vVs7BxnYq7FXYq7FXYq7FXYq7FWHfmN+Wtj53h071tQudNut&#xA;Llea0urUryBkXi2zgitB8LDdT0yrLhhkHDIWGUZmJsOufym8k3Hku08nvaOuk2LpNbNHIyTrcJX9&#xA;/wCotD6hLtU+/TLDEEUeSAU98teWNC8s6RDpOiWiWdjD0RdyzHq7sas7HuxNcKE0xV2KuxV2KuxV&#xA;2KuxV4roNi3lzzFr/wCXcp9CyuBLqXlh/wBk2l0T6sK/8YJidutDXpnmntp2b4eWGriNjQl7xyPx&#xA;G3w83N087HCk95Z3FncNBcIUkTqD39x4jNLjyCYscmwimM+aYTqdxpPltDvrF2i3ABofqsH72c/c&#xA;oGbfs2XhDJqD/kobf1pbRWMOOQj3l6sAAAAKAbADOQehbxVZJHHLG8Uih43BV0O4IIoQcMZEGxzU&#xA;h5PoLnQdQn8o6gxSa1kc6TJJUC4tGPOMox2LIDxYe3tnYa2P5mA1UOUgOOv4Z8jfkeYeenjOORif&#xA;h7mSZqUOxV2KuxVlvkFN71+37tf+JHNR2ofpHvbMaj+Zzfo6HQPM6VWTQNXtJpHXr9WuJBbTp8nW&#xA;UZuvYjVHHreDpkiR8vV+gsNTG4vYc9fdc7FXYq7FXYq7FXYq7FXYq7FXYq7FXYq7FXYq7FXYq7FX&#xA;Yqwv80fJd55g0q21DRmWHzToUhvNEnOwZ6Ukt3P8k6ji30dsxtXpYajFLFMXGQo/jy6MoyINvOdW&#xA;/M/ypqPly3eW1ln8yzM9tH5eiH+mxXkfwyRvUfu0VurMKU3pXbPJoezuqwamUCeDFDc5JfTw9Pef&#xA;Ib3s7ETEgK59yT+XrDSvLdxJrnnDU7SHzFeLRIpZkVbWAnaGAMan/KYDf7ycrWZcmqiMOlhM4I9w&#xA;Pql/Ol+gfgZ2nxRw+qZHEfsZrpus6RqkRm029gvYhTk8EiyAE9jxJofnmhz6bLhNZIyifMU50MkZ&#xA;cjaMyhm7FWF+bLex80X975V9Ape2Nol/aaorAGC5dysSig5D7FTvuM3vZ2SekhHU36ZzMDD+dGt/&#xA;v+bh54jKTjrcC7Sfytqsmq+X7G/lFJZox6tOnNSUY/8ABKcy+0dMMOecByB293MOnibCa5hMnYq7&#xA;FXoHk2zNvo6yMKNcOZPfj9lf1VzQdoZOLJXc3QGyU/nHEsv5ZeYFboLcN9KSKw/EZnezUzHX4iP5&#xA;33ghjm+kvWLKV5rK3lf7ckaO1PFlBOe5urVsVdirsVdirsVdirsVdirsVdirsVdirsVdirsVdirs&#xA;VdiryX80PzystDe50Ty5LBPrMPw32pTmtlp9a/3hFfVm2PGJKmvXpxzD1OqEBQsyPIDmfd+kn0jq&#xA;248d+55d5Z0bzNqclxfaSJLKTUiZNS836mgN/dcjVvqtudoYz+yT2p4Zw3avaGLi/wAIPiSjyxRP&#xA;oj/Xn/Efd1voXb6fDKvQOEfzjzPuHRm2jfl95W0wGQ2a319IeU+o3wFxcSOerGRwaf7Gmc3qe2dR&#xA;l24uCHSMfTEfAfpc7HpoR6We87lAeZfIsaMNb8qxx6Z5itP3kfoqI4bpRu0E6LxVg/SvWvfMnQ9r&#xA;E/udSTkwS79zH+lE9K7mGXT/AMUNpj7fIp75W8w23mHQrXVbdTGJ1Ilhb7UcqHjJGf8AVYHNdr9H&#xA;LTZpY5b117x0PxDdhyicRIJtmG2sG8tx3V9rXnjVLRgtxLcDTbOQ9Feyt+H3epJvnQa4xx4tNjn9&#xA;Ijxn3Tlf3Bw8QMpZJDvr5BIfITQ/4S05I1KmJGilRvtLKjlZAf8AZg5ndsg/mpk9TY91bfY6eHJk&#xA;Gaxk7FUdoulS6lfJAtRGPimk/lTv9J7ZRqM4xxvr0TEW9MjjSKNY4xxRAFRR0AAoBnNEkmy3sK/O&#xA;Llc+Tf0LHX6zr17Z6ZbAdS81wrGn+wRs6b2P05ydoQPSAlI/KvvIac5qL2MAAAAUA2AGe0Otdirs&#xA;VdirsVdirsVdirsVdirsVdirsVdirsVdirsVUrq6trS2lurqVILaBTJNNIwRERRVmZjQAAd8VeA+&#xA;d/za82+eriby9+Wsb2+jqTHf+ZpOUIeuxWBiOSL4lRzPYKNzqu0u18GkjeSW/wDNH1H8ebk4NLPI&#xA;dghvJ35SeX9BWGe8/wBymoxHlHLMv7mJjSpih3UHYfE1W98847T9o8+psR/dwPQcz7z+jk7zBooQ&#xA;3O5Zpe3trY2k15dyrBbQIZJpXNFVVFSTmixYpZJCMRcjyDmSkALPJBeW9cXXNKj1OO2ltbedmNss&#xA;1A7xA0SSg6BxuBl+u0n5fIcZkJEc66HqPgwxZOOPFVJmSAKnYDqcxGx515E1OW2stY1KFVGlanq1&#xA;5c2DvshiLBeS9KBmQnOn7YwiU8eM/wB5jxQjL38/0uBpp0JH+EyNIrUPzT0+Bvqthw1TVJPgttPs&#xA;uU0kkh2C/u+QX3rlODsDJL1TvHjHOUtgB8U5NdGPLct/lONQs9P1XQ9XjEOuafetJqEYIJJu1EyP&#xA;UbHlUjbwx9oeCc4ZsRvDOFR/zPTX470dnyuJB5g/elNnb/orzj5g0bZYZpF1SzX/ACLoUlAHYLKp&#xA;GZeefjaXDl6geHL/ADfp/wBi4Gohw5CO/dOs1zWm+leWNSvyGKGC3PWWQUqP8lep/VmHn1sMfmWQ&#xA;iSzTTItH05xpdtNH9b4+q8BdTOy9ObLXlTfwpmnzHJkHiSB4eV9Pc2ihsmOYyWHaJGPOf5oR3UY9&#xA;Ty95J5j1uqT6tMvHiK9Rbx71HR89Z9i+yTgwnNMevLy8o/t5+6nB1OSzT13O2cV2KuxV2KuxV2Ku&#xA;xV2KuxV2KuxV2KuxV2KuxV2KuJAFT0xV4NrOqXH5n6vO80jp5A06cxWNkp4jUp4WIa4lI3MKsKIv&#xA;Q0qd9s472l9oDp/3OE/vDzP839p+wO00GiE/VLkyO2tra1gS3tokggjHGOGNQiKPBVWgGebTnKZM&#xA;pGyepd6AAKC6WWKGJ5ZXEcUal5HY0VVUVJJPQAYIxMjQ3JUmmA28dz+YV8t1dRvD5Ks5OVpbt8L6&#xA;jMh2lkHUQqfsr+139ujmY9mw4Ym9XIbn/Uweg/pHqejhAHObP92P9l+x6AAAAAKAbADOac5iX5ja&#xA;jd/o628v6c3HVPMMv1KFh1jgpW5m+SR/rzddiYY+JLPk/u8I4j5y/hj8S4uqkaEB9Utv1oW58qaB&#xA;5h84eWfy+lX/AHCafazX1/biQxt6ccRt7YKykEuZHLHvTfOp9kcU8s8upnzkav8A2Uv966/tKQiI&#xA;wHRk9n+VfnjyQjJ5Ju7DVtJ3I0vUoltroLWtEu7dVEjHxlXNr2v7MYNaeIynGffdj5H9FOux5zFi&#xA;V3qevWf5o2F7rPl268v/AKatTpt36zRz20lzDWWBo7iIlHYrVKbZz2t9nsum7PlCUhPw58cSOdHa&#xA;Qr/Zc3P0eoHi+8UqeezpukeZvLvmbUQRpqySabqjKHZvSnQvE1IwXISRK0A75qeyI5M+DNp8f94Q&#xA;Jw5c4mjz23BcrtCIHDP4J7ZedtDNB5b8p6xq0u3CWGwkVAT05T3PDgMnj9ke0cv94YwHnL9Ebdec&#xA;8ByRmoWX5pahptzqOtXFr5G8vWsL3F6YGGoakIY1LPR1Agj+EdVqwzpOz/YjTYjxZScsvlH5c/t+&#xA;DTPUk8mFfltpflca1J57kuYtL0mGOSLTjfXqTX1wZRSS71CYuVDso+GMUC+Hdtd7V64ziNFp8ZNE&#xA;XUT05CIr7Rt3M8Ea9RLLjr/mDz/O2keRudropb09T83yIyRolaPHYhuJll6jl0X7jlPYXsfKxl1I&#xA;90P0y/4nr1rdOXUdA9U8r+WNH8saHbaLpEPo2VqtFBPJ3YmrySN+07tuTnpcRQpwU1wq7FXYq7FX&#xA;Yq7FXYq7FXYq7FXYq7FXYq7FXYq7FWGfnLrFxpH5X+Yr22JW4Nr9XiYbENdOtuCvv+9298SUhiei&#xA;aXBpOkWem24Ais4UhWnfgoBP0nfPCdVqJZssskuciS9djgIxAHRHZQzYb+ZEs13b6X5Yt2KS+Ybo&#xA;QTsv2haRD1Lkj/YAD6c3nYcRCU9RLlhjY/rnaP2uJqzYEB/Efs6sut7eG3gjt4EEcEKLHFGooqoo&#xA;oqgeAAzSzmZSMpGyXKAAFBUyKXmln5gtJtW13z1cBrqzsFOmaDaxDm8iq4EsiAV/vZjQN2Wtds6r&#xA;Lo5Rx4tGKjOfryE8htsD/VjuR38nXxygyllO4Gw/HmUvs/KNvqqXGp+aLZLrV9Sk9eYVP+jrSkcE&#xA;bqQQEXbY9cvy9pywkY9NIxxYxQ/pd8iPMtccAlZmLkfs8k2sbPzTo5B8u+a9T09V2jtp5BfWyjwW&#xA;G4DAffmbg9qc8frjGX2H9X2NU9BA8jSG8+eafzR1TywbPU4dN1L9HzRahZ6lbCS2uoprVuYkMZJi&#xA;b4OS0WnXNxi9oNPqR4UwY8fp7xvtz/Y4x0c4HiHRkfmKJPNn5eTTWVRJeWiXtjx+0syATxgHsea8&#xA;TnB6DIdDrxxfwT4T7vpP2bu4zAZcJrqLereQfPGj+bPLmnahbXtvLfT20Ul7aRSo0kMxQGRHQHkv&#xA;FqjcZ7G8uyVlV1KOAysKMp3BB6gjFWJn8pPyyN8b4+WNONwW5Em3ThyrWvp04f8AC4rbKoYIYIUh&#xA;gjWKGMBY40AVVUdAANgMVX4q7FXYq7FXYq7FXYq7FXYq7FXYq7FXYq7FXYq7FXYqw784dFuNZ/LL&#xA;zFYW6l7g2hnhRRVme2ZZ1C/5RMW3vikMP0DV7fWNEstUt2DRXcKS7GtGI+JfmrVBzwvWaaWDLLHL&#xA;nE1+Pe9dimJxEh1TDMZmwtHXUvzXYg84dE0ui+AuLuXcj/nmlM3pHhdm+eXL/sYj9ZcT6s/9WP2l&#xA;mmaJy2J/mTrdzp/l/wCpWDf7ltYkFjYjupk/vJPkiVNexpm57E0scmbjn/dYhxy+HIfEuLq8hjGh&#xA;9Utgl+labbaZp1vYWwpDbII08TTqT7k7nLdRnllyGcucjbCEBEABF5SydirRAIIIqDsQcVQ/5WXJ&#xA;trXVPLUjVbRLoi2B6/VLms0NT7VYZkdvw45Q1A/ysd/60fTL9DHRmgYfzT9hYjp/kzy+Ne17R7yy&#xA;UXGn3n1izuIy0Uot7oerFR4yrHgaj8M3eXtbURxYs2OZqcKPUcUdjseV7FxY6eHFKJHI/YWUWZ88&#xA;aRT9Beb9QhRfs29+U1CED+UCcFlHybLsHtVmj9cYy92362E+z4nkaZRpP5ofm1bLW/0LT9et029W&#xA;xnaxmPuVn9SMn2UjNtj9rNIdp8UD7r+6/uceXZ2TpuyCw/Pjyn66W/mCy1DyzM5CLJqVuRbM57Lc&#xA;RGSOnu3HN1pu0MGf+7nGXuO/y5uJkwTh9Qp6NBPBcQRz28izQSqHiljYMjKwqGVhUEEd8zGpfirs&#xA;VdirsVdirsVdirsVdirsVdirsVdirsVdirsVdirxXzP5L17yNqt3rPlmxk1XylfSGfUNEtxyubKV&#xA;t3ltE/bic7tGOnbbpzfbvs/HWjjj6co69D5H9Bc/R604tjvFLR+Yfle+tK6dqULTPUNG7elLHTY8&#xA;o5OLg/Rnn0uxdTilWSEhXlY+Y2dz+ahIekpZ+XDR3XmPzXqEbB4nmtLaN1NRSCCrUI/ypMyu2gYa&#xA;fBjOxEZy/wBNL9jXpd5zPu+5n2c65zx/U/N+gX3n29v7+/hgtdEU2Gmxu4q0rH/SZgor3+AHuM7X&#xA;D2bnx6KMIQJll9ctun8Mf0uqnnjLKSTtHYfpR0f5geTZHKrqsIINPi5KPvYAZjS7F1YF+GWY1OPv&#xA;R0Hmfy5PT0dVtHJp8Injrv7cq5jT7P1EeeOY/wA0sxmgeoR0N1bTf3MySV3HBg3T5ZjSxyjzBDME&#xA;FVyKUlS4/Q/5gaVqBPG11mJtLuT2EwPq25+bEFM2PB4+iyQ/ixHxB7uUv0FqB4MoPSW36kT51h/R&#xA;vnfRtXA42+qRPpV0/YSKfWt6+7HkuVdmS8XR5MX8WMjIPd9Mv0FlqBw5Iy79v1Mg03THuSJJPhgB&#xA;+lvYZrM2bh2HNvhC2QIiIgRAFVdgBmvJvm3rbi3guIXguI0mgkBWSKRQyMp6hlNQRhhOUSJRNEII&#xA;BFFjuha1e/lhqEgSG4vPy+uqyTW8P76TS52arSRoTzNu3VlFeJ39m9K9nfaIZ4+FnlWXof537fv9&#xA;7otdoTE8UB6fue16PrWla1psOp6VdR3thcLyhuIW5KR3+RHQg7jOxdWjMVdirsVdirsVdirsVdir&#xA;sVdirsVdirsVdirsVdirsVSPWvInkvXJ/rGr6FY39x/v+e3ieTbanMryp7VxV41+W9nYQQ+YZrCB&#xA;Leyudcv2tIolCqsEcnpRKoAHwqE2zyz2wy8WrA/mwH22f0vRdmxrH7ymHnjWbvTdDMenqX1jUpU0&#xA;/SYl+011cnghH+ru30Zrewuz/wA1qYwP0jeXuH6+Xxb9Xm8PGT16PSfJn5eeXPLHl/T9LhsbaW4t&#xA;IlWe9aFDJLMR+9lZiOVXYnv02z2QB5clkE+nafPEIp7WKWJRxWN0VlA8ACKYUJPefl35AvK/WvLe&#xA;lzE1qz2duWq3UhuFQTiqTXX5H/lNckmTyzaLU1/dB4u1P91smKbQL/8AOPf5V0Ag024tgOohv70A&#xA;+FeUzdPbK5YYS5gH4JEyOrEvzL/JHyvonkjVdc0m41IajpEYvrP1buSaNHgYPXg9RsoPyyr8nhoj&#xA;giOIUdhyPNkMsr5qfnHR/wDFHkieGA/6TNAl3YSIaUnQCWPie3I/DXwOeQ9mar8pqxKX0iXDL3HY&#xA;vTZ8fiY6HvCYeQ/ys8jeavJ2la7FfawovoFM8S6jPRJl+CaOleiyKwz1odn6c7+HD/Sj9TzZzT7z&#xA;82Rf8qB/Lr/fV/8A9xC8/wCqmW/k8P8AMj8gx8WXeXmP5heQ9Z8i6/Bfad5g1O18sXyrHDeTzNdQ&#xA;Wd6KBUu0kDAwy/sv2PXtXT9q9l4vCuGGE65iuGRH9Eit/Lr73K0+olxUZEfd8We2vrfVYvXdJJuC&#xA;+q8YojNT4ioJOxPTPJZ1xHh2FvRjlux0aBrflrUZda8iXCWNxKed/octf0feU8UFPSk8HX+udb2N&#xA;7VZMNY89zh3/AMQ/WPt+51uq7OE94bF6N5E/NHRPNTvp0kb6T5kth/puh3dBMtBu8TbCWPwZe3UD&#xA;PR8GohmgJwIlE9Q6OeMxNEUWZ5cwdirsVdirsVdirsVdirsVdirsVdirsVdirsVdiqje3UdpZz3c&#xA;v91bxvK/+qilj+rFXhH5VwPF5C0lpN5bhJLmRu5aeV5a/wDD5457RZOPW5PIgfIAfoeo0UaxRTfy&#xA;Jp/+KPzNudYcc9H8nq1naA/ZfU51/fOP+MMXw79CajO49kuzvB0/iSHqy7/5vT9fydT2ln4p8I5R&#xA;ezZ1brXYq7FXYq7FVC/sbXULC5sLtBLa3cTwXEZ6NHIpR1+lTirwrySbzSJb/wAk6q1dT8uP6MEh&#xA;29ewbe1nX24UU06dDvnlntX2acGo8WI9GTf/ADuvz5/Puei7Oz8cOE84/cn/AOUd/wDoTzl5g8my&#xA;nja3p/TujA9OMxEd3EP9WUBlUdqnOz9mtd+Y0kb+qHpPw5fZX2uq1+HgyHuO713OgcJD6hp9jqNj&#xA;PYX8CXNncoYri3lAZHRhQgg4q8Y1fyX5r/L5nm0OGbzF5NBLHTlJk1CwU70hrvPEP5ftD7znLdte&#xA;zOPVE5Mfoy/ZL3+fn83Y6XXnHtLeKL0LzHouvWYu9KukuYujqNnQ/wAroaMp+YzzbWaHNpp8GWJi&#xA;fxyPV3uPLGYuJtQ8xeVNL11Inn529/akPY6nbMYrm3cGoaORdxv26Zf2b2rm0c+LGduo6H8d/Nhn&#xA;08coqSL8v/mrrflieLSvzCpLYMwisvNsCUiYnZVvY1/unP8AOPhP3nPUOye3cGtFD05OsT+jvH4L&#xA;z+p0csXnHveuwTwXEEc9vIs0Eqh4pYyGRlYVDKw2II75u3EX4q7FXYq7FXYq7FXYq7FXYq7FXYq7&#xA;FXYq7FWEfnRrw0j8udWEY5Xuqx/orT4R9p7i+rCoX3VWZ/oyGScYRMpfSBZZRiSaDz3Wb0eUPI8U&#xA;VsPWurW3hsNOiUVMtyVEUIC96tufbPHtHp5doa2v58jKXkLs/qenyzGHF7hT1T8uPKK+U/J2n6Ox&#xA;El4iGbUZxuZbuY85nLHc/GaAnsBnsUYiIAGwDy5Nm2S5JDsVdirsVdirsVeV/nhpElgmmefrCLld&#xA;aDIIdWCD4pdMnPGUGgq3ouQ6+HxHNZ2voBqtPLH16f1un6vcXI0ubw5gsV843h0mXQvPVj+9OgXK&#xA;TXBj+L1dPugIrlVp1qjBge3XOC9k9YcGqOKWwnt/nDl+kO57RxcePiHT7nvcE8M8Mc8LiSGVQ8ci&#xA;mqsrCoIPgRnqDzy/FXYqwXzh+UHlvzBeNq1lJLoPmPcjWNPPpu5P+/4/sTA9+W58co1Gmx5o8GSI&#xA;lHzZwySgbBpg+oJ+YnlAH/Emnfp3SE667pCEyIo/aubP7S+LNHVQM4ntL2NBuWnl/my/Qf1/N22D&#xA;tTpMfFHabq3l/wAx6a8ljcQajYzLwlQUcUYbpIjbio/ZYZxWfT59LkqYlCY5frB/SHawnDINtwlW&#xA;nR+a/IMzXPlInU/LzMXuvKtw5+CpqzWMrVMZ/wAg7H7qdp2N7W8sep/0/wDxX6/n3uq1XZv8UPk9&#xA;X8l+fvLfnCwa50ic+vCeN7p849O6tn6cJojupqDv0PY53kZCQBBsF05BGxZFkkOxV2KuxV2KuxV2&#xA;KuxV2KuxV2KuxV2KvFfNeqL5u/MwW0Tc9D8mVViPsy6tKKN8/q8e3sxzkPa/tLwsAwxPqyc/6v7e&#xA;Xzdp2Zg4pcR5D71vlrT/APFn5pR8qSaL5MVbmcHdZNUnBEA9/QSr17NkPY/s7w8JzyHqycv6o/Wf&#xA;uCe089y4ByH3vbM7J1TsVdirsVdirsVdiqhf2Nrf2NxYXkYmtLuJ4LiJujxyKUdT81NMVeC+VrFr&#xA;SHW/y/1n9/LobtZjn/u/TrhS1s+3jE3E06Uzy72n0ctLqxmhtxni90hz/Qfi9DoMoyY+E9Nvgzj8&#xA;jNauX8vXnlW/cvqPlOf6hyP2ns2HOzkPzj+H/Y56L2fqxqMEco/iH29R8C6PPiMJmPc9JzManYq7&#xA;FXYqwXzX+T3lXXLttVsvU0HzAakavppEMjE7/v4x+7mBP2uQqfHKNRpseaPBkiJR82cMkoGwaYPq&#xA;SfmH5Pr/AIi0/wDT2jp/0vtIQmRFH7VzZ/aXxZo6qBnE9pexoNy08v8ANl+g/r+btsHanSY+KAaw&#xA;0LzLJF5m8p6sLHXYBSDWLIjmP+KrmI05qQN0kFc0mi7T1nZeTw8kTwfzZffE/q2cvLgxagWDv3/r&#xA;Zl5R/N6RL2Hy957hj0fW5Pgs9RQn9H3x/wCKpG/u5PFH+jqBno/Z3amHWQ4sZ946j3j8B0WfTzxG&#xA;pPT82LQ7FXYq7FXYq7FXYq7FXYq7FXYqw381PO0vlby1WwUTeYNUkFjodt1LXMuwcj+SIfGx6dB3&#xA;ynPnjigZyNRiLLOEDI0Hmscdn5C8hzSyP60llE01xM1S1xdynckneskrAD2zyKc8naetH9OVf1Y/&#xA;sG70oAwYvd970v8AKfylP5a8mWsF98Ws37NqGsyn7TXdz8bhv9QUT/Y56/ixRxwEIioxFD4PMzkZ&#xA;GyzHLGLsVdirsVdirsVdirsVeR/nLp/6E1/Q/PkI42yMNI18jp9VuGrBM3tFMdz/AJQGaT2g7P8A&#xA;zWllEfVH1R94/WLDl6LN4eQHogtBmOjfnHpU6/Db+ZrG40+5HRfXtALmFz/lFAyDNH7FaoyxTxH+&#xA;Egj4/wBn2uX2rjqQl3vac7d1LsVdirsVdirsVYL5s/J3yprt0+p2fq6Dr5qRq+mN6MjN1/fRj93K&#xA;CevIVPjlOo02PNHhyREo+bOGSUTYNPPPM2gedtF0+Wy84aOnm7y6R8eqaZH+/RR0eezJDKR15xGi&#xA;5yOp9lZYp+Lo58Ex0P6D+g373ZY+0RIcOUWEN5L/ADKv/K9sHsb9/NvkeKnqx8i+q6ZH03VqPJEt&#xA;PssAQOmw32Og7amJDDq4+Fl6H+GXuPK/x5NObSiuLGeKP2h7xomuaTrml2+q6TdJeWF0oeGeM1BH&#xA;ge4YdCp3B2OdG4COxV2KuxV2KuxV2KuxV2KuxV4nrbNrH5za3LdkvH5XtbS002M/ZR76H6xNKB/M&#xA;VYLXwzhvbTVShCGMHaZJPujVD5m/k7fsrGCTLuUNXsRrnnnyh5bkFbSW7k1S+U7ho9OQSJGw7q8j&#xA;qCMwfYrSiWWeU/wgAf539n2t3auSoiPe9zz0d0TsVdirsVdirsVdirsVdirA/wA87+wtPyr8wLec&#xA;Sbu3+q2sTULSXEpAiVF/aYN8W3hXtkZEAWUgbsEtbaY/mB+XOnSf3sLXc8z16fVrKh7g/EzgZwXs&#xA;cBLPmmOW32kn9Due09oRD3fO/dK7FXYq7FXYq7FXYq7FXjv5iaba6T+bHl3UrWFIT5gsr2yvTGoX&#xA;1JLbhcI70A5OQSOR3oKZy/tdg49EZfzJA/739LsezJ1lrvCRxXF7+W2tSeYtIVpPKd5IG8yaKgqI&#xA;uWxvbZf2WTq6jqPoK6z2Z9oTMjT5jv8Awy7/AOifPuPXk36/RV64/F7zZ3lre2kN5aSrNa3KLLBM&#xA;hqro45KwPgQc7t06rirsVdirsVdirsVdirsVeL6un1f86PMSDpe6Zp9y1CesZkh3r327ZwvtvD0Y&#xA;j5y+2v1O47JO8greSYfr/wCdFzP9qHRdDEZH8s97cBgf+RUWZXsZh4dNKf8AOn9gA/TbX2pO5gdw&#xA;exZ2Dq3Yq7FXYq7FXYq7FXYq7FXh/mO4k83/AJoXZuGDaD5NdbextxusuoyIHmmf3hqEA7Hcd84z&#xA;2v7UOLGMEPqyc/6vd8fuHm7XszT8R4z0+9FaCBL+dWjKx/3n0e9lQDxeWKM19qZT7ER/d5D/AEh9&#xA;37WXax3i9mzuXUOxV2KuxV2KuxV2KuxVhP5p+S9X8x2GmXWhzQxa3ol2LyzW65CGVTG0ckLlN15h&#xA;uvt9OYut0kdRilil9Mg2YshhISHR5XffmI+lawPLXnHy/daZqdwAoiTheW80cnw8kdDV0bfopp0O&#xA;+eeaz2Sz4LnjnEiO+/pP6vtd5i7ShPYg7/Fkn5aeaZPJmow+RNeemj3Ej/4W1dzRPjYt9QmJ6SKS&#xA;fTJPxDbwGdj2H2zDW4u7LH6h+keR+zk6vWaU4pf0S9mzeOG7FXYq7FXYq7FXYq7FXjX5jPBpH5v6&#xA;ZqV46W9lrGiyWUczkIpuLS49YhmJAr6c3fOV9r9LPLpQYCzGYO3dRH6nY9mZBHIb6hMPyKWPULjz&#xA;h5mjYSR6lqi2dtKu6yQafCsaOh6FS0jbjNp2Hpjg0eOBFGrPvO/6XH1mTjykvVc2zjOxV2KuxV2K&#xA;uxV2KuxVSu7mK1tZrqWvpQRtLJQVPFAWNB8hir5k/KrRNR/Mf1opmmtvLsl5c6n5nu4WaJrq9unL&#xA;paRuKHiicWkP0eBzT4+zBPVS1GUAmhGA7gOZ95N13D3uXLUVjEI+8r7G8v8AyP8AmTpVlqs7SyeX&#xA;b/8AR7Xcp+KfRdVHC3mkb9r0JOIbwO2Q0+mGm1chEVjzC/ITjz/0wN/ApnPxMQvnH7n07m7cN2Ku&#xA;xV2KuxV2KuxV2KuxVKfMXlPy15ktBaa9ptvqMC1MYnQMyE7Eo/2kPupGKsIu/wDnHP8AK+4MKpaX&#xA;dtbROshtIr24MLcegKyPIQP9Ug5WMUBLiocXfW7LjNVb03LGLsVdirsVdirsVdirsVS3XfLXl/X7&#xA;ZLXW9Ot9St439SOO5jWUK9Kcl5A0ND2xVF2NhY2FpFZ2NvHa2kC8YbeFFjjRfBUUAAYqr4q7FXYq&#xA;7FXYq7FXYq7FXEAih6Yqh9P03TtOtUtNPtYbO0jrwt7eNYo1qamiIAoqcVeN/wDOT3kuW+8sr5qs&#xA;I+V5pUbW+oKo3ksZmBqfH0JuMg8Nz2yvJjEqvobH4923xZwlT0b8svM58z+QdD1xiWmu7ZRcse88&#xA;RMMx/wCRsbZYwLJsVdirsVdirsVdirsVdirsVdirsVdirsVdirsVdirsVdirsVdirsVdirsVdirs&#xA;VdirsVdirsVdiqhqH1D6hc/pD0v0f6T/AFz6xx9H0eJ9T1Ofw8ONeXLamKoHyr/hv/D1l/hn0P0F&#xA;w/0H6pT0eHI140/yq198VTXFXYq7FXYq7FXYq7FXYq7FXYq//9k=</xmpGImg:image>
               </rdf:li>
            </rdf:Alt>
         </xmp:Thumbnails>
      </rdf:Description>
      <rdf:Description rdf:about=""
            xmlns:xmpMM="http://ns.adobe.com/xap/1.0/mm/"
            xmlns:stRef="http://ns.adobe.com/xap/1.0/sType/ResourceRef#"
            xmlns:stEvt="http://ns.adobe.com/xap/1.0/sType/ResourceEvent#">
         <xmpMM:InstanceID>xmp.iid:63221B6208206811822A9DD448A483FF</xmpMM:InstanceID>
         <xmpMM:DocumentID>xmp.did:63221B6208206811822A9DD448A483FF</xmpMM:DocumentID>
         <xmpMM:OriginalDocumentID>uuid:5D20892493BFDB11914A8590D31508C8</xmpMM:OriginalDocumentID>
         <xmpMM:RenditionClass>proof:pdf</xmpMM:RenditionClass>
         <xmpMM:DerivedFrom rdf:parseType="Resource">
            <stRef:instanceID>uuid:ba5dc92b-6d0a-484a-ab90-b9370a4a0965</stRef:instanceID>
            <stRef:documentID>xmp.did:0980117407206811822A897E387FE54C</stRef:documentID>
            <stRef:originalDocumentID>uuid:5D20892493BFDB11914A8590D31508C8</stRef:originalDocumentID>
            <stRef:renditionClass>proof:pdf</stRef:renditionClass>
         </xmpMM:DerivedFrom>
         <xmpMM:History>
            <rdf:Seq>
               <rdf:li rdf:parseType="Resource">
                  <stEvt:action>saved</stEvt:action>
                  <stEvt:instanceID>xmp.iid:63221B6208206811822A9DD448A483FF</stEvt:instanceID>
                  <stEvt:when>2018-09-05T11:39:45-03:00</stEvt:when>
                  <stEvt:softwareAgent>Adobe Illustrator CS6 (Macintosh)</stEvt:softwareAgent>
                  <stEvt:changed>/</stEvt:changed>
               </rdf:li>
            </rdf:Seq>
         </xmpMM:History>
      </rdf:Description>
      <rdf:Description rdf:about=""
            xmlns:illustrator="http://ns.adobe.com/illustrator/1.0/">
         <illustrator:StartupProfile>Print</illustrator:StartupProfile>
      </rdf:Description>
      <rdf:Description rdf:about=""
            xmlns:xmpTPg="http://ns.adobe.com/xap/1.0/t/pg/"
            xmlns:stDim="http://ns.adobe.com/xap/1.0/sType/Dimensions#"
            xmlns:xmpG="http://ns.adobe.com/xap/1.0/g/">
         <xmpTPg:HasVisibleOverprint>False</xmpTPg:HasVisibleOverprint>
         <xmpTPg:HasVisibleTransparency>False</xmpTPg:HasVisibleTransparency>
         <xmpTPg:NPages>1</xmpTPg:NPages>
         <xmpTPg:MaxPageSize rdf:parseType="Resource">
            <stDim:w>21.000131</stDim:w>
            <stDim:h>29.700013</stDim:h>
            <stDim:unit>Centimeters</stDim:unit>
         </xmpTPg:MaxPageSize>
         <xmpTPg:PlateNames>
            <rdf:Seq>
               <rdf:li>Cyan</rdf:li>
               <rdf:li>Magenta</rdf:li>
               <rdf:li>Yellow</rdf:li>
               <rdf:li>Black</rdf:li>
            </rdf:Seq>
         </xmpTPg:PlateNames>
         <xmpTPg:SwatchGroups>
            <rdf:Seq>
               <rdf:li rdf:parseType="Resource">
                  <xmpG:groupName>Default Swatch Group</xmpG:groupName>
                  <xmpG:groupType>0</xmpG:groupType>
               </rdf:li>
            </rdf:Seq>
         </xmpTPg:SwatchGroups>
      </rdf:Description>
      <rdf:Description rdf:about=""
            xmlns:pdf="http://ns.adobe.com/pdf/1.3/">
         <pdf:Producer>Adobe PDF library 10.01</pdf:Producer>
      </rdf:Description>
   </rdf:RDF>
</x:xmpmeta>
                                                                                                    
                                                                                                    
                                                                                                    
                                                                                                    
                                                                                                    
                                                                                                    
                                                                                                    
                                                                                                    
                                                                                                    
                                                                                                    
                                                                                                    
                                                                                                    
                                                                                                    
                                                                                                    
                                                                                                    
                                                                                                    
                                                                                                    
                                                                                                    
                                                                                                    
                                                                                                    
                           
<?xpacket end="w"?>
	</metadata>
<g>
	<path fill="#FFF301" d="M7.457-49.914L2.64-46.445c0,0-3.934,1.062-2.842,3.906c1.091,2.843,3.092,7.094,3.092,7.094
		s5.971,3.843,5.985,5.672c0.015,1.828,0.265,3.828,0.265,3.828l-0.75,4l6.75,19.75c0,0,6.25,0.25,9.75-1.25s8.5-3.75,8.5-3.75
		s2.75-2.5,3.75-1.5s-0.25,2-0.25,2l-3,4.25c0,0-2.25,1.25,0.5,1.75s10.75,0.25,15.5-6.25s6.5-16.25,6.5-18s-1-12-1-12l-0.75-3.25
		l-14.25-37.5c0,0-2.25-6.75-9.25-7.25s-16.25-3-16.25-3L7.457-49.914z"/>
	<path fill="#FFF301" d="M-18.63-71.025c0,0-3.985,2.192-6.577,0.398c-2.591-1.794-4.783-2.292-4.783-2.292l-2.69-4.385l-0.798-2.69
		c0,0,0.997-2.89,0.199-3.588c-0.797-0.698-1.893-2.69-5.779,0.199c-3.886,2.89-9.367,9.666-11.161,18.435
		c-1.794,8.769-0.1,17.938,1.993,23.019c2.093,5.082,10.463,17.538,10.463,17.538l8.968-7.374l1.594-2.591l4.588-15.844
		l12.054-2.891l22.221-17.937l6.478-5.879l2.291-5.581l-7.473-0.1L-18.63-71.025z"/>
	<path fill="#FAC617" d="M129.436,81.71c-0.851-0.285-5.105-5.107-5.105-5.107s-2.838-5.957-4.256-8.227
		c-1.418-2.268-7.092-5.672-7.092-5.672l-58.72-41.701c0,0-1.136-1.984-3.12-4.254c-1.986-2.27-5.957-2.553-5.957-2.553
		L17.102,6.819L8.024-22.965c0,0,1.703-3.972,0.852-6.809s-5.674-4.822-5.674-4.822s-2.553-5.674-3.404-7.943
		c-0.851-2.269,1.702-3.688,1.702-3.688l5.957-3.688l8.794,3.688c0,0,3.688,1.986,6.524,0.283c2.837-1.701,6.524-3.688,6.524-3.688
		s3.972-2.837,7.093-6.24c3.12-3.404,0.851-9.361,0.851-9.361s-11.914-9.362-13.616-11.063c-1.701-1.702-3.403-4.539-3.403-4.539
		l-1.703,3.972l-4.255,4.255L-1.337-60.127l-9.645,6.241l-2.553-1.985c0,0-34.608-17.304-38.295-19.573
		c-3.688-2.27-8.511,0.567-8.511,0.567s-44.82,11.914-48.224,13.332c-3.404,1.419-4.823,4.823-4.823,4.823l-4.823,6.808
		l-11.63,4.823c0.284,1.986,1.985,1.418,1.985,1.418l5.958-2.27c0,0-3.404,5.106-4.255,4.823s0.567,1.985,1.418,2.553
		c0.851,0.567,2.27-1.702,2.27-1.702l6.808-7.659c0,0,1.986-1.135,3.404-1.418c1.418-0.283,1.418,1.702,1.418,1.702l-4.822,4.822
		l-0.851,2.553l1.986,0.284l8.51-6.241l1.135-2.553l3.405-7.375c0,0,39.998-10.78,42.834-11.914
		c2.836-1.135,4.539,1.418,4.539,1.418l31.488,16.453l-6.241,17.588l-13.049,10.495c0,0-16.453,13.616-20.141,17.021
		c-3.688,3.404-5.673,13.9-1.418,21.844c4.256,7.941,16.169,7.658,16.169,7.658l-1.986,17.871c0,0-0.567,2.838-1.985,6.525
		c-1.418,3.688-7.943,14.467-10.212,16.736c-2.269,2.27-0.284,10.211-0.284,10.211l0.567,8.795c0,0,1.702,5.105,3.405,5.389
		c1.702,0.285,2.552-2.268,2.552-2.268l0.851-3.973l1.986-8.793v-4.822l1.702-5.107l9.645-20.99l10.496-20.709l9.077-0.852
		l36.31,2.553l1.135,2.838l-0.283,4.254l4.256,7.943l12.48,26.666l-1.135,4.539l-3.971,6.24l-2.837,10.213l1.419,1.701
		c0,0,1.418-3.688,4.254-6.809c2.838-3.119,4.539,2.27,4.539,2.27l6.241,12.197l1.135-0.85l-4.823-15.887l0.568-6.523
		c0,0,0.283-4.539,0-6.809s-0.568-7.375-0.568-7.375l-5.957-15.318L23.91,25.544l19.572,0.283l9.362,9.928l12.198,7.094
		l44.82,21.557l3.119,12.482l4.539,1.135l1.986,3.121l5.674,0.85c0,0,2.552,0.852,3.403,0.852S130.287,81.993,129.436,81.71
		 M-11.832-0.839l1.986-6.808L4.621-2.825l3.404,7.66L-11.832-0.839z"/>
	<path fill="#EE1B22" d="M-27.997-72.021c0,0,1.894,1.594,4.385,1.494c2.491-0.1,4.385-1.395,4.385-1.395s11.46,5.779,13.353,4.982
		c1.894-0.798,2.89-2.193,2.89-2.193l15.943-13.453l17.838-0.996c0,0,0.398-2.79-0.1-4.285s-6.178-6.577-6.178-6.577L12.364-97.83
		c0,0-4.585-0.1-6.079,2.89c-1.495,2.989-6.478,9.666-6.478,9.666l-24.912,11.359C-25.106-73.915-28.196-72.819-27.997-72.021"/>
	<path fill="#FFF301" d="M-8.36-7.695l7-2.75l2.25-3.25l3.73,10.87C4.621-2.825-3.86-4.695-8.36-7.695"/>
	<path fill="#AEA71C" d="M7.457-49.914L2.64-46.445c0,0-4.184,1.812-2.842,3.906c1.341,2.093,3.092,7.094,3.092,7.094
		s5.721,4.593,5.985,5.672c0.265,1.078,0.265,3.828,0.265,3.828l-0.75,4l5.25,15c0,0,18.75-1,26.75-16s4.25-36.25-2-41.25
		c0,0-0.5,7.5-3,10.25s-6.091,4.314-6.091,4.314l-6.524,3.688c0,0-4.163,0.185-6.524-0.283C13.891-46.695,7.457-49.914,7.457-49.914
		"/>
	
		<path fill="none" stroke="#AEA71C" stroke-width="0.7088" stroke-linecap="round" stroke-linejoin="round" stroke-miterlimit="10" d="
		M7.457-49.914L2.64-46.445c0,0-4.184,1.812-2.842,3.906c1.341,2.093,3.092,7.094,3.092,7.094s5.721,4.593,5.985,5.672
		c0.265,1.078,0.265,3.828,0.265,3.828l-0.75,4l5.25,15c0,0,18.75-1,26.75-16s4.25-36.25-2-41.25c0,0-0.5,7.5-3,10.25
		s-6.091,4.314-6.091,4.314l-6.524,3.688c0,0-4.163,0.185-6.524-0.283C13.891-46.695,7.457-49.914,7.457-49.914z"/>
	<path fill="#AEA71C" d="M-22.86-48.695c0,0-7.75,6-16.25,6.5c0,0-4.25,1-2,4.5s9.75,8,9.75,8l3.5-3.75L-22.86-48.695z"/>
	
		<path fill="none" stroke="#AEA71C" stroke-width="0.7088" stroke-linecap="round" stroke-linejoin="round" stroke-miterlimit="10" d="
		M-22.86-48.695c0,0-7.75,6-16.25,6.5c0,0-4.25,1-2,4.5s9.75,8,9.75,8l3.5-3.75L-22.86-48.695z"/>
	<polygon fill="#C9A115" points="-54.36,23.573 -44.36,10.497 -47.292,24.407 	"/>
	<polygon fill="#C9A115" points="-22.052,6.267 -17.052,6.267 -11.832,-0.839 6.793,3.573 14.832,24.976 -20.129,23.188 
		-30.554,23.272 	"/>
	<polygon fill="#C9A115" points="17.102,6.819 23.91,25.542 37.563,12.806 	"/>
	<path fill="#C9A115" d="M-14.36-12.965l4.513,5.317c0,0,9.833-3.701,10.737-6.048l-12.559-0.038l-4.615-6.154L-14.36-12.965z"/>
	<polygon fill="#C9A115" points="-1.336,-60.127 1.5,-46.227 7.457,-49.914 1.793,-56.811 	"/>
	
		<path fill="none" stroke="#231F20" stroke-width="1.7717" stroke-linecap="round" stroke-linejoin="round" stroke-miterlimit="10" d="
		M-0.793-60.917c0.283,1.761,0.907,3.403,2.106,4.531c4.123,3.88,13.252,9.944,13.252,9.944s4.937,2.666,9.787,0.241
		c4.85-2.425,9.942-6.79,9.942-6.79s4.851-4.85,3.88-10.67"/>
	<polygon fill="#FFFFFF" points="7.375,-62.69 12.227,-65.358 16.591,-59.538 	"/>
	
		<polygon fill="none" stroke="#231F20" stroke-width="1.4173" stroke-linecap="round" stroke-linejoin="round" stroke-miterlimit="10" points="
		7.375,-62.69 12.227,-65.358 16.591,-59.538 	"/>
	
		<path fill="none" stroke="#231F20" stroke-width="1.7717" stroke-linecap="round" stroke-linejoin="round" stroke-miterlimit="10" d="
		M-25.605-73.604l25.463-11.397l6.791-10.428c0,0,2.425-3.395,6.547-2.183c4.123,1.213,10.913,2.91,10.913,2.91
		s8.245,4.364,7.274,11.397l-18.672,0.97c0,0-14.308,12.853-17.461,14.793c-3.152,1.94-13.581-4.122-18.188-5.82
		c-2.303-0.849-4.062,0.243-5.244,1.546"/>
	
		<path fill="none" stroke="#231F20" stroke-width="1.7717" stroke-linecap="round" stroke-linejoin="round" stroke-miterlimit="10" d="
		M-46.503-73.202c3.525-6.479,7.803-10.344,7.803-10.344s2.456-2.263,4.251-1.229c1.909,1.099,1.29,2.222,1.084,4.381
		c-0.448,4.702,4.848,12.034,14.926,9.263"/>
	
		<path fill="none" stroke="#231F20" stroke-width="1.7717" stroke-linecap="round" stroke-linejoin="round" stroke-miterlimit="10" d="
		M-37.587-24.522c0,0-11.841-12.345-13.353-28.721c-0.42-4.554-0.369-7.341,0.756-11.086"/>
	
		<path fill="none" stroke="#231F20" stroke-width="1.7717" stroke-linecap="round" stroke-linejoin="round" stroke-miterlimit="10" d="
		M-10.11-53.695l20.25-16c0,0,10.5-7.333,10-12.833"/>
	
		<path fill="none" stroke="#231F20" stroke-width="1.7717" stroke-linecap="round" stroke-linejoin="round" stroke-miterlimit="10" d="
		M20.974-82.362c0,0-0.167,4,3.667,7c3.833,3,18.166,11,19,21"/>
	
		<path fill="none" stroke="#231F20" stroke-width="1.7717" stroke-linecap="round" stroke-linejoin="round" stroke-miterlimit="10" d="
		M4.872-2.743c-4.665-0.928-9.764-2.694-15.25-5.655"/>
	
		<path fill="none" stroke="#231F20" stroke-width="1.7717" stroke-linecap="round" stroke-linejoin="round" stroke-miterlimit="10" d="
		M31.641-85.028c0,0,6,0.333,8.5,6.167c2.5,5.833,14.5,38.333,14.5,38.333s9.082,26.333-12.25,38.833c0,0-4.584,2.667-8.584,1
		c-2.92-1.216-0.642-1.664,1.166-3.333c2.168-2,3.5-3.833,2.334-4.833c-0.774-0.664-8.99,6.531-22.754,6.947"/>
	
		<path fill="none" stroke="#231F20" stroke-width="1.7717" stroke-linecap="round" stroke-linejoin="round" stroke-miterlimit="10" d="
		M-114.823-50.963l-13.375,4.91c0,0-1.694,0.169-1.524,1.354c0.169,1.186,1.524,1.354,2.201,1.016
		c0.677-0.339,13.884-5.249,13.884-5.249s2.709-0.338,3.047,0.846c0.339,1.186-1.185,2.032-1.185,2.032l-3.725,3.724
		c0,0-1.354,0.509-0.677,1.863c0.677,1.354,2.031,0.339,2.878-0.338s5.418-4.571,5.418-4.571s2.201-1.017,2.54-2.879
		c0.339-1.862,4.91-9.82,4.91-9.82"/>
	
		<path fill="none" stroke="#231F20" stroke-width="1.7717" stroke-linecap="round" stroke-linejoin="round" stroke-miterlimit="10" d="
		M-121.765-45.545l-2.878,4.063c0,0-1.185,1.186-0.508,2.201c0.677,1.016,2.37,0.169,2.878-0.508
		c0.508-0.677,5.757-7.449,5.757-7.449"/>
	
		<path fill="none" stroke="#231F20" stroke-width="1.7717" stroke-linecap="round" stroke-linejoin="round" stroke-miterlimit="10" d="
		M-119.056-49.608l5.756-6.772c0,0,2.201-4.74,4.91-5.587s50.238-14.216,50.238-14.216s3.991-0.829,6.022,0.695
		c2.031,1.524,37.198,19.277,37.198,19.277s5.925,1.185,5.079,8.635"/>
	
		<path fill="none" stroke="#231F20" stroke-width="1.7717" stroke-linecap="round" stroke-linejoin="round" stroke-miterlimit="10" d="
		M-100.602-56.55l41.65-11.343c0,0,2.37-0.678,4.232,0.508c1.862,1.185,33.396,17.608,33.396,17.608s2.158,3.556,1.82,4.91"/>
	
		<path fill="none" stroke="#231F20" stroke-width="1.7717" stroke-linecap="round" stroke-linejoin="round" stroke-miterlimit="10" d="
		M-22.317-49.8l-5.482,16.446l-3.894,4.232L-59.29-7.28c0,0-10.667,7.619-5.757,21.502c0,0,5.542,11.393,18.643,9.881"/>
	<polygon fill="#231F20" points="15.035,-73.311 10.803,-69.417 19.268,-66.877 	"/>
	
		<polygon fill="none" stroke="#231F20" stroke-width="1.4173" stroke-linecap="round" stroke-linejoin="round" stroke-miterlimit="10" points="
		15.035,-73.311 10.803,-69.417 19.268,-66.877 	"/>
	<polygon fill="#231F20" points="35.86,-66.031 28.673,-64.077 38.061,-61.121 	"/>
	
		<polygon fill="none" stroke="#231F20" stroke-width="1.4173" stroke-linecap="round" stroke-linejoin="round" stroke-miterlimit="10" points="
		35.86,-66.031 28.673,-64.077 38.061,-61.121 	"/>
	
		<path fill="none" stroke="#231F20" stroke-width="1.4173" stroke-linecap="round" stroke-linejoin="round" stroke-miterlimit="10" d="
		M28.58-68.909c0,0,2.878,0.508,7.788-1.863c4.909-2.37,6.941-0.508,6.941-0.508"/>
	
		<path fill="none" stroke="#231F20" stroke-width="1.4173" stroke-linecap="round" stroke-linejoin="round" stroke-miterlimit="10" d="
		M10.803-76.697c0,0,3.217-6.434,9.65-3.217"/>
	
		<path fill="none" stroke="#231F20" stroke-width="1.7717" stroke-linecap="round" stroke-linejoin="round" stroke-miterlimit="10" d="
		M-56.751-8.974l26.412-15.238c0,0,7.111-4.062,12.19,1.693c5.08,5.757,4.741,9.481,2.54,13.545
		C-17.81-4.91-48.624,60.78-48.624,60.78s-3.555,7.789-3.725,11.006s-2.709,14.9-2.709,14.9s0.338,2.031-2.37,2.709
		c-2.709,0.676-2.709-1.018-3.386-3.049c-0.677-2.031-1.015-11.174-1.015-11.174s-1.354-5.25,0.677-8.635
		c2.032-3.387,11.005-17.609,12.19-24.551s3.217-26.412,3.894-29.799c0.678-3.385,2.37-11.512,6.095-15.067
		c3.724-3.556,8.296-8.974,8.296-8.974"/>
	
		<path fill="none" stroke="#231F20" stroke-width="1.7717" stroke-linecap="round" stroke-linejoin="round" stroke-miterlimit="10" d="
		M-17.683,6.214C-11.25-0.219-10.53-7.789-10.53-7.789l7.449-2.031c0,0,3.386-0.846,4.401-4.74c1.017-3.895,2.71-13.884,2.71-13.884
		"/>
	
		<path fill="none" stroke="#231F20" stroke-width="1.7717" stroke-linecap="round" stroke-linejoin="round" stroke-miterlimit="10" d="
		M8.264-50.624l-6.096,4.232c0,0-2.878,1.863-1.693,5.249c1.186,3.386,2.756,5.958,2.756,5.958s8.82,5.14,5.096,13.436l13.482,43.42
		l11.004,27.428c0,0,6.434,12.867,5.418,18.625c-1.016,5.756-1.186,13.205-1.186,13.205l4.911,15.238c0,0,0.169,1.523-0.509,1.693
		c-0.677,0.168-1.016-1.355-1.016-1.355l-6.434-12.867c0,0-1.862-3.047-3.217-0.846s-3.895,5.248-3.895,5.248
		s-1.016,1.354-1.693,1.016c-0.676-0.34,0-2.201,0-2.201l2.371-9.143c0,0,2.539-4.402,3.725-5.586
		c1.186-1.186,1.016-5.08,1.016-6.096S21.13,41.312,21.13,41.312s-6.153-8.689-5.306-13.43L1.321-14.561"/>
	
		<path fill="none" stroke="#231F20" stroke-width="1.7717" stroke-linecap="round" stroke-linejoin="round" stroke-miterlimit="10" d="
		M14.58,25.503c-13.715-0.338-36.295-2.66-36.295-2.66l-8.625,0.691"/>
	
		<path fill="none" stroke="#231F20" stroke-width="1.7717" stroke-linecap="round" stroke-linejoin="round" stroke-miterlimit="10" d="
		M49.067,27.597c-2.714-3.34-13.322-2.279-25.453-2.094"/>
	
		<path fill="none" stroke="#231F20" stroke-width="1.7717" stroke-linecap="round" stroke-linejoin="round" stroke-miterlimit="10" d="
		M121.531,79.235c-1.185,0-8.636-1.693-9.312-3.385c-0.678-1.693-1.355-11.006-2.709-11.176
		c-1.355-0.168-41.655-20.408-41.655-20.408s-19.457-8.572-24.321-18.531"/>
	
		<path fill="none" stroke="#231F20" stroke-width="1.7717" stroke-linecap="round" stroke-linejoin="round" stroke-miterlimit="10" d="
		M17.823,7.204l26.504,6.51c0,0,6.014,1.066,9.48,6.771l57.057,40.295c0,0,10.497,7.281,13.206,14.73l4.571,5.08
		c0,0,1.355,1.016,1.186,1.861c-0.17,0.848-3.4-0.152-3.4-0.152s-7.811-0.25-9.07-3.777"/>
	
		<line fill="none" stroke="#231F20" stroke-width="1.7717" stroke-linecap="round" stroke-linejoin="round" stroke-miterlimit="10" x1="-12.141" y1="-0.588" x2="7.683" y2="4.433"/>
	
		<polyline fill="none" stroke="#231F20" stroke-width="1.4173" stroke-linecap="round" stroke-linejoin="round" stroke-miterlimit="10" points="
		26.406,-60.046 24.391,-59.794 22.375,-61.558 	"/>
	<path fill="#FFFFFF" d="M34.24-63.903c0,0.489-0.396,0.884-0.885,0.884c-0.488,0-0.884-0.396-0.884-0.884s0.396-0.884,0.884-0.884
		C33.844-64.787,34.24-64.391,34.24-63.903"/>
	<path fill="#FFFFFF" d="M35.868-64.693c0,0.282-0.229,0.511-0.513,0.511c-0.281,0-0.511-0.229-0.511-0.511
		c0-0.283,0.229-0.513,0.511-0.513C35.639-65.206,35.868-64.977,35.868-64.693"/>
	<path fill="#FFFFFF" d="M14.74-69.906c0,0.488-0.396,0.885-0.885,0.885c-0.488,0-0.884-0.396-0.884-0.885s0.396-0.885,0.884-0.885
		C14.344-70.791,14.74-70.395,14.74-69.906"/>
	<path fill="#FFFFFF" d="M16.368-70.697c0,0.282-0.229,0.512-0.513,0.512c-0.281,0-0.511-0.229-0.511-0.512s0.229-0.512,0.511-0.512
		C16.139-71.209,16.368-70.979,16.368-70.697"/>
</g>
</svg>
