<?xml version="1.0" encoding="utf-8"?>
<!-- Generator: Adobe Illustrator 16.0.0, SVG Export Plug-In . SVG Version: 6.00 Build 0)  -->
<!DOCTYPE svg PUBLIC "-//W3C//DTD SVG 1.1//EN" "http://www.w3.org/Graphics/SVG/1.1/DTD/svg11.dtd" [
	<!ENTITY ns_extend "http://ns.adobe.com/Extensibility/1.0/">
	<!ENTITY ns_ai "http://ns.adobe.com/AdobeIllustrator/10.0/">
	<!ENTITY ns_graphs "http://ns.adobe.com/Graphs/1.0/">
	<!ENTITY ns_vars "http://ns.adobe.com/Variables/1.0/">
	<!ENTITY ns_imrep "http://ns.adobe.com/ImageReplacement/1.0/">
	<!ENTITY ns_sfw "http://ns.adobe.com/SaveForWeb/1.0/">
	<!ENTITY ns_custom "http://ns.adobe.com/GenericCustomNamespace/1.0/">
	<!ENTITY ns_adobe_xpath "http://ns.adobe.com/XPath/1.0/">
]>
<svg version="1.1" id="Layer_1" xmlns:x="&ns_extend;" xmlns:i="&ns_ai;" xmlns:graph="&ns_graphs;"
	 xmlns="http://www.w3.org/2000/svg" xmlns:xlink="http://www.w3.org/1999/xlink" x="0px" y="0px" width="595.279px"
	 height="841.89px" viewBox="0 0 595.279 841.89" enable-background="new 0 0 595.279 841.89" xml:space="preserve">
<metadata><?xpacket begin="﻿" id="W5M0MpCehiHzreSzNTczkc9d"?>
<x:xmpmeta xmlns:x="adobe:ns:meta/" x:xmptk="Adobe XMP Core 5.3-c011 66.145661, 2012/02/06-14:56:27        ">
   <rdf:RDF xmlns:rdf="http://www.w3.org/1999/02/22-rdf-syntax-ns#">
      <rdf:Description rdf:about=""
            xmlns:dc="http://purl.org/dc/elements/1.1/">
         <dc:format>image/svg+xml</dc:format>
         <dc:title>
            <rdf:Alt>
               <rdf:li xml:lang="x-default">Print</rdf:li>
            </rdf:Alt>
         </dc:title>
      </rdf:Description>
      <rdf:Description rdf:about=""
            xmlns:xmp="http://ns.adobe.com/xap/1.0/"
            xmlns:xmpGImg="http://ns.adobe.com/xap/1.0/g/img/">
         <xmp:MetadataDate>2018-09-05T11:34:58-03:00</xmp:MetadataDate>
         <xmp:ModifyDate>2018-09-05T11:34:58-03:00</xmp:ModifyDate>
         <xmp:CreateDate>2018-09-05T11:34:58-03:00</xmp:CreateDate>
         <xmp:CreatorTool>Adobe Illustrator CS6 (Macintosh)</xmp:CreatorTool>
         <xmp:Thumbnails>
            <rdf:Alt>
               <rdf:li rdf:parseType="Resource">
                  <xmpGImg:width>216</xmpGImg:width>
                  <xmpGImg:height>256</xmpGImg:height>
                  <xmpGImg:format>JPEG</xmpGImg:format>
                  <xmpGImg:image>/9j/4AAQSkZJRgABAgEASABIAAD/7QAsUGhvdG9zaG9wIDMuMAA4QklNA+0AAAAAABAASAAAAAEA&#xA;AQBIAAAAAQAB/+4ADkFkb2JlAGTAAAAAAf/bAIQABgQEBAUEBgUFBgkGBQYJCwgGBggLDAoKCwoK&#xA;DBAMDAwMDAwQDA4PEA8ODBMTFBQTExwbGxscHx8fHx8fHx8fHwEHBwcNDA0YEBAYGhURFRofHx8f&#xA;Hx8fHx8fHx8fHx8fHx8fHx8fHx8fHx8fHx8fHx8fHx8fHx8fHx8fHx8fHx8f/8AAEQgBAADYAwER&#xA;AAIRAQMRAf/EAaIAAAAHAQEBAQEAAAAAAAAAAAQFAwIGAQAHCAkKCwEAAgIDAQEBAQEAAAAAAAAA&#xA;AQACAwQFBgcICQoLEAACAQMDAgQCBgcDBAIGAnMBAgMRBAAFIRIxQVEGE2EicYEUMpGhBxWxQiPB&#xA;UtHhMxZi8CRygvElQzRTkqKyY3PCNUQnk6OzNhdUZHTD0uIIJoMJChgZhJRFRqS0VtNVKBry4/PE&#xA;1OT0ZXWFlaW1xdXl9WZ2hpamtsbW5vY3R1dnd4eXp7fH1+f3OEhYaHiImKi4yNjo+Ck5SVlpeYmZ&#xA;qbnJ2en5KjpKWmp6ipqqusra6voRAAICAQIDBQUEBQYECAMDbQEAAhEDBCESMUEFURNhIgZxgZEy&#xA;obHwFMHR4SNCFVJicvEzJDRDghaSUyWiY7LCB3PSNeJEgxdUkwgJChgZJjZFGidkdFU38qOzwygp&#xA;0+PzhJSktMTU5PRldYWVpbXF1eX1RlZmdoaWprbG1ub2R1dnd4eXp7fH1+f3OEhYaHiImKi4yNjo&#xA;+DlJWWl5iZmpucnZ6fkqOkpaanqKmqq6ytrq+v/aAAwDAQACEQMRAD8A9U4q7FXYq7FXYq7FXYq7&#xA;FXYq7FXYq7FXYq7FWHfmZ+Ytr5L0qBo7c6hrmpSfVtG0qM/HPMaCppUhE5DkfkO+V5csccTORqMR&#xA;ZKQLNPO1/LrzJ5qrffmLrtzeSTDkNCsJDb2EAb9iif3hA25dfduueadp+3GSUjHTARj/ADpbk/Dk&#xA;Pt+Dn49KP4l8n5FeRIiJtHW80O9T+7vbG7nWVT41kaT8M1eD2y18JXKUZjuMR/vabDpoFC3H5o+f&#xA;vyyVtO80RHzVYXI4aBq6ssExmFKQXZPIdDXnuf8AW/Z9C7F9ocWugT9M4i5R5/Ed4cLLgMSmkS/n&#xA;1qxN3eeaLLy3zFU02ysIb0JXoryXFTXx4sRmj1Xt5hjKsWMzHeTw/oP203R0Z6lpfzD/ADO8kSxy&#xA;+dY7fzD5ZLKlxrlhF6N1bBjT1J4FAQr48F+mu2bfsj2p02slwbwydx6+4/2Fqyacx36PYrC/s9Qs&#xA;oL6ymS4s7qNZbeeM8keNxyVlPgQc6Zx1fFXYq7FXYq7FXYq7FXYq7FUu1XzJ5e0ie2t9V1O1sJrw&#xA;sLSO5mjhaUpTlwDleVOQ6eOKpgrKyhlIKkVBG4IOKt4q7FXYq7FXYq7FXYq7FWHax+cX5YaPcta3&#xA;/mOzW4Q8ZI4mM5Vh1DeiJOJHvitPOvL+p2Hnj82td80wzLeaVoUEGnaDIpJSsyF55VBp8RPJa+B9&#xA;s4D2710oY4YIn695e4cvt3+Dm6SG5KD/ADM/M6bRbuJNB8w6QkkCsLnT50muZnmrQJ/owfh8m4mu&#xA;c92F2CNRE+NizG+Uo8MRX+dV/C27Ll4eRCH8s/nfe6/f6LolvozQ69d3ITVIZOYihtEQO86EgH4l&#xA;Pwq3h3qK39peyX5SOTJOf7qMfT3mR5RI+8/tRj1PHVPSfMPl/SfMGkT6TqsPr2VwBzSpUgqQysrD&#xA;cEEdc5TR6zJpsoyYzU4uRKIkKKOghSCCOCOvpxKESpqaKKCpOUSkZEk9WTVzbW91by21xGstvMjR&#xA;yxMKqyMKMpHgRjCZhISiaI5IIY9/zj5cS22i6/5XeQyxeWtXubOydiSfqznnGD78i2e/9nag59Pj&#xA;yHnOESfiHT5I1Ih6rmYwdirsVdirsVdirsVdirsVeN/85M6R5EvPLOn3HmW/n029glkTSbm3hNwW&#xA;d1BkjdBxBQhFP2loRt3BUh4H5U17zz5agFxp91rWjaahql9FFJPp7LX4XktJxwo3duR/1cuGPayC&#xA;PNolmF0DEnuvd6/5Y/Pjz8IBJdaZY+bbBacrzRpfRukB/wB+2sgLcvYIuH8vI7x9XuY/moA1K4nz&#xA;/Xyel+R/zg8m+b7ltPtJpbDWkB9XR9QT0Lkca14qSVelKnixIHUDKSK5uQCCLDNsCuxV2KuxV2Kv&#xA;FPPGraz+YHnK98laVeSaf5U0TivmS9tzxlup3FfqkbdlUVD+9a1+GvOe0fbw0GIcIvLP6R+k/jdy&#xA;MGHjPknuj+QvJmj2i2tho1pHGooWaJZJG93kcM7fSc8l1Pa2qzy4p5JE++h8ANg7GOOI5B4vfDW7&#xA;Hzv5l8haGv6OXXL6O8ub+EBfRsDF6kixheNK8wo/4HvXPTuwey4dox0+fIeLw4GNHf1A8z+OdOr1&#xA;mp8CMnoGg+UPLmgwRxabYxROgANwVDTMfFpCORz1DHhjDkHkcuonkPqKW6d9Vtfzys5JkVTf6JJD&#xA;bP05Txzl2+ZEK0+Wee/8EbFI6QEchKJP+yH3kPQ9gS9JHn+p6xnib0jsVdiry7Sfyg16za/1SLzX&#xA;faX5ivrya7km0+RvqbepIWQSwME9TbrU07b53WP21lhMYYoDwYRjGj9Ww7xt9jiHSg7k7ss8jfmZ&#xA;5jtfMcPkrz/FFHrFyGbR9btxwtr8L1UrsEl9gAO1Bty7/sntfDrsfHjPLmDzB/HIuHlxGB3eq5tG&#xA;p2KuxV2KuxV2KuxV2Kpdr/l3Q/MOmvpmtWUV/YyEM0EwqOS9GU9VYeINcVeAfmF+TfnTyxqKT/lt&#xA;9ffy7PF/pmmw3CyyQShiSYY5zVlK8elWrXemWwzSjyJpqyYIT3IBLA/LUeheXvOMereZrvUNJ1NE&#xA;dVs77TfqKuzqUYsYuSsPirUqN965k4J4xPiJ3936nD1WPKcfAIivff3sy8xSeSPNt1bWOnalF/iQ&#xA;IbjStRsmLSwPEOalpY/siv7JNfDfMvKMeX0g+pwMBzYPUQeHrb1j8nfzEm80aRNpmsgQebNDYW+r&#xA;2xoDJTZLlANisnenf2K11EomJou+jISAI5F6FkWTsVdirsVeH/k3xOneY2kr9fbzBqBvy/2vW5L1&#xA;+in01zyP244vzovl4Yr5n9Nuz0v0vQM45yXgmm61d23nXzD5y1OzMmhahqkmhw60OlqbXiI1kX9m&#xA;KUFPj/mXfPoH2Vxw02kxRrnAH4y9R+0vNdrYZZdx06d703OxeYYt5/0Q3mnQapa3kem6vosgu9Pv&#xA;5WCRqwpVJGbbg9ADXMDtLRY9ThlCf0kOdoNTLFk23tU8pf8AOQPk/ULVIdfmGkaqlEnBDSWzuNi0&#xA;UsfqKF/1j9J654Z2n7G6rDM+CPEx9KIv4jr8Le1x6mJG+yba9+dvkDTIaW19+l71yFgsrAGZ3Y9B&#xA;zHwDf/Kr4A5g6T2X1uU+qPhwHOU9gP0/YzlniPNlPlnUNZ1DRbe81jT/ANFX03JnsfU9UxryPDk1&#xA;F+IrQkU2zUa7Dix5THFPxID+KqtsiSRvsjLPULC+WR7K5iukikaGVoXWQLIhoyMVJoy9xlGTDPHQ&#xA;mDGxe4rY9fckEFiX5vaENT8kX11CTHqWjL+k9OuV2eOW1/eEqeu6KR92bz2Y10tPrYV9MzwH/O2H&#xA;yNFqzwuJeneT9cOveVNH1ogK+o2cFzIgBAV5YwzqK+DEjPbXUpvirsVdirsVdirsVdirsVdiqjd2&#xA;VnewNb3kEdzbv9uGZFkQ/NWBGKvE/wAz/wAt18oXi+fPJOnxw29snp+YdEtkCRy2tatNCi7I0fUh&#xA;RTv2at2DMccraNRgGWPCfgx3U3uZH038xvJEgk1azj5NEv2b20P95byqP2huKdQduoWmw1OEZY8c&#xA;ebq9JnOGZxz5fd+x7t5H86aN5y8uW2uaU9YZxxmgYj1IZl+3FIOzKfvFCNjmpd2n2KuxV2KvnXU5&#xA;tetfzo8wWX5dmC5tr30ZvMrXaMbOzvan1CrIys0jqDyUftE/y/Dx/tbh0RxxnqDITF8Ij9UvLcHb&#xA;rfT40crTGfIPWs8idk+Z9AsozqOr2Mmk6l5h1DTNWu2TT/U9PS4GV6etKWIiV2oalq7Dpn0T2Rlx&#xA;nTY5kWTCNd30h5/UafPkmYwNR6nqzmx8w+eH05NaGnWGt6M9fVGh3DXFzDTc8kcKJGHdUNc20deb&#xA;3Gziz7BPDcJWUo/S2j6t5ptvMc9k3m/y3Zx8ZvLqHjc2UwIBmayfj9Y6EcX8fAZHUg5fVE2O7uat&#xA;JWD0zHDLv6H4vTbv84vyNvNJWxuIku1T+70F9LlkkDUpxEDw+mD71p75gcJunZcQq72effkT5Zt7&#xA;rXNb87RWkNlp13PPBpGnBavbqZORoTXhxU8KDrv0HXzb257TBMdNG7Hql3eQ8+/ydhpIfxPas86c&#xA;15otkPK35yWcengxaX5xt7l7m1X+7F7aL6zTKvYsvX3Y51Pifm+y5Ge+TTSjR68EtuH4H7nHrhyb&#xA;fxMh/NPWYNI/L/XLmRuLy2slrANqmW4UxJQHrQvX5DNd2BpTm1uKI6SBPujufubM0qiWdfl9pFzo&#xA;/kXy/pd0Ct1Z6fbRXCHqsixLzX6GqM91dOyDFXYq7FXYq7FXYq7FXYq7FXYq0yqylWAKkUIO4IOK&#xA;vnvzf5dk/KzzMdRs42PkDXJv9IjUErpt2/cAdIn/ALOw5Zel1HAaP0lwdbpfFjY+ofahl1K9/Ljz&#xA;KfN2kqZ/K2qMo8y6bFuF5H4byEDao5b/ANtVt1mnr1x5dWns/V3+7lz6fqfQum6lYanp9vqGnzpc&#xA;2V3GstvPGaq6MKgjNe7RE4q7FXhX5EUm8kyahNvqeoX93cao7fbNwZSDyqSa8QOueO+2eScteQeU&#xA;Yxr3Vf327TTD0PRc5RyHmcMn+E/zfuoZqppHnSJJbaQ/YXULccWjr2MimvuWAz1/2L7RGbSeET68&#xA;W3wO4P6Pg0xPDk8pfelt35n8x6N5jutIj03RvI9leLPejVr7lMlz6P22T6sEj9YoOXB9/mSK9gS1&#xA;5c0oHaNIPyd5A1PzlHc+avM99NHdXRH6AvraKOwu1gQnhcOIgf7wEURy23fcHDEkG0R0/ixvJ1TW&#xA;5Pn7yqxGrWp8yaODRdT06Ol5GvjPaj7Xu0fTvmdi1xG0t3R6zsIjfGkH5d/mHo/lbWtR0fUvVtfL&#xA;uq3cl3pGo3EMkKxyyBTLDIHVSFG1G6Dv12849s/Z+epn+YwDikBRj1I8vMfbtTtNDklCAjkFF6/c&#xA;ebPK9vZfXp9Xs0s6VFwZ4+BH+SeXxfRnmcNBqJT4BjmZ93CbdiZirt5Iv5k+VdW/MAeb9Q1COz8v&#xA;+XbeW20eN6m5uriccZZUgFZOHA8akeH+VTsz2JqcOi/KwgZZs0hKf82MY8gZcrvf8C8bxYmXEeQZ&#xA;j5Z8u+YPzI8yWPmPX7GTS/JWkSC40bSbkcZr2cfYuJ07IvUA7dhUFjnVez3s9HQQMpHizS5nu8h+&#xA;N3Gz5uP3Pb86Vx3Yq7FXYq7FXYq7FXYq7FXYq7FXYqg9Y0fTdZ0u60rU4FubC8jMVxA/Rlb9RHUE&#xA;dDir58t7K98i+Yj5C19zdaNehj5Z1GYVWaA7G0lJ+HmleNPo6FRmy0eo/gl8P1Op7Q0v+Uj8f1t+&#xA;X/Otx+T+ovp9/FcX3kHUZGksmio8mnzsavGORFUbrxqO5FTyrj6rT+GbH0lytFqvFjR+oPQE/wCc&#xA;jvysZFb65djkAafUrnv8kIzGouXYak/5yR/KeNeUmoXKKTSrWdyBX6UxpIeOyfm75S8p+dL+/wDK&#xA;102q+VddmN3e6WYpYJrS6f8AvJITKqoyv1419tqVPMe0Ps7HXgSieHLHkehHcf1uThzGHuZzY/8A&#xA;OQn5ZXK1mvZ7I0B4z20rGp7fuRN0zgMvsd2hE7REvdIfppzBqYJX518+/lP500OTSo/MKW2oRsLj&#xA;TL2SG5h9G5j3jf1HjUAdm36Zm9ldldp9n5xm8ImPKQBibj7gfiPNjPJCYq1Xy/5t8o+eNGh0Hzqb&#xA;ZNZ0+VJZ7eWVFhuHh+zcQSKQkkci7kKaUr+zvnquHNHLESHL8cx0PeGcMkZipc0+1r83fJOlyixt&#xA;LhtY1KvCLTtKQ3MhYbcQU/dinhyr7ZdbLJqYR5lifnPzX+aX+HLrWrqOHyboyjhbxMRcancSP8Mc&#xA;aLTjGW77BlG+9MkYkCzs66faJkeGCbflx+UemW2kJqnm60XVvMmogy3j39bgxBxtFSTkOQX7R612&#xA;rQZ472/7T5s2cxwTMcUeXDtxed8/d5ObiwirluU/h/KD8tIrkXC+X7YyA8uL83Sv/GN2ZPopmql7&#xA;R68x4fFlX2/Pmz8GHcwLTlk8tfm75nh8r+TLXzDKsdpcRxyPb262MrxiRmiklVuHqc/sqV9thnoX&#xA;Y3bmPD2fiyaqdXxAE2SaNdAfm4eXETMiL0KP89dU0h1/xz5PvdCsyQr6nbSJqFsle8phAKD5cjm7&#xA;0Xbek1R4cWQSl3bg/I0WmeGUeYeo6Xqmnarp8Go6bcJd2N0gkt7iIhkdT3BGbVqRWKuxV2KuxV2K&#xA;uxV2KuxV2KuxV2KuxVjP5ieRNM87eWp9HvD6M1RNYXqj95b3CfYkX9TDuK4q8Nu/Mmo+WEOg/mZp&#xA;jwlR6aassLXNheINg9Qp+I9SvH5hembTFrYkVN0+fs6QlxY/7EZD+an5diNEi1eJEAConpSoAOgF&#xA;CgpTMkarF3uGdDm/moj/AJWX5D/6vVt95/ph/M4+9j+Sy/zSr/8AKwPJH/V8sv8Akcn9cP5jH/OD&#xA;H8pl/mls+cfI1wis+taa47CS4gqPoZq4fGxnqF/L5R/DL5FMDYaHqNmpNvbXlnOoZTwjljdSNiNi&#xA;pByXDGQ6ENfHOJ5kFif5Wflb5I1v8w/NtlfWP6R0bSo7dLSF5JBFBLcEySRrwZTUMjAb7bjNFqMc&#xA;Y5DwvS6XJKWIGXN7rZeSfLOhWfDQdLttOVB8Yt41RnXr8bAcmP8ArHDinRpGox8QsdHkVk//ACsf&#xA;8wDqzfvPJ/lSUxaaOsd3fj7U3gyx7cf9j4kZxHtt274OP8vjPryDfyj/AMe5e63M7O01eovUM8jd&#xA;w7FUvsNA0iw1LUdTtLcR32qtG9/NViZDCnBNiSBQeGZOXV5cmOGORuGO+Ed1myxEQDfejpYo5Y3i&#xA;lQSRSAq6MAVZSKEEHqDmOCQbHNkwXyQX8h/mknlW3cjyr5simutLtWJ4Wt9bjnNHHXYI6dvEqO2/&#xA;sfsp2xLWacjIbyY9ie8Hkffz+Vus1OLhO3J7ZnUuM7FXYq7FXYq7FXYq7FXYq7FXYq7FXYq0yq6l&#xA;HAZWFGU7gg9QRiqCm0DQp2DTadaysBQF4Y2IH0riqEl8l+Tpn5y6Fp0j9OT2kDH7ymKsH/Obyj5S&#xA;0/8ALPX9QsvLumC+t7Vvq8wsrfnF6jKjujcKqVUlqjwxSHlXnTyZ5S0zyX5EntNOtyJtS02O8uFi&#xA;Qy3MU8TSSepJTk4cjoTTOC9l+0c+ftTLDLKRj6vSSaFTiKA5cnI1sRHATHnX6E6vm1bWPMNl5A8m&#xA;OthcBBJqt/FGGjsLNQOiig5tUcRt1HStR6lqtRwemPN5zQ6XxDxz3H3vafIfkTRfJehjStM5yM7m&#xA;a9vZjymuJ2+1LI3iew7ZqndMguIIriCSCZQ8UytHIh6FWFCPuxV8m/ktqWoeV/ODeWrmdm06+uL2&#xA;waFz8MeoWLVLL/LziIX3PyzjPbXsqOTS/mIj1wO5/o/ssH5uTpM3rMX0Lnkrs3Yq7FXYq8x/NRNX&#xA;vfO3knTdBuhY60Jry6hvjGJRAscS1co/wNWh2I/t7P2V1g0eHPqJC4xEBXeSS4uojxERTY69+fHl&#xA;tfrU0un+crGPee3WH6nelR19IRARk/Qx8BnT6H220uWXDkBxk9TvH59Pk0T0khy3eieQ/P8AoHnb&#xA;Rv0lpMjK8bene2UoCz28o6pKnb2PQ52QIIscnFIZFLLFDE80zrHFGpeSRyFVVUVLMTsABhQxvyv+&#xA;ZnkXzTqF1p2gavDf3tmOU8KCRTxB4l0LqokUH9pCR08RitMmxV2KuxV2KuxV2KuxV2KuxV2KuxV2&#xA;KofUdPs9RsLnT72JZ7O7ieC4hb7LxyKVZT8wcVfMf5reQ/PvkryxaWFpf2+q+VYNTt20ZZA66hDM&#xA;SxihNKI6VJ3rX/VGazH2Thx6v81EVkIo9x5b137NkpmUOA8nt35T/l2nkzy+y3bi68xam31rXL/q&#xA;ZJ2qeAb+SPkQv0naubQkk2WoAAUOTNsCXYq+TPzH0y40rzx51lsk43ejajY+ZbAgfa9VQ9zv4cnq&#xA;f9XDl00c+nyY5ciPsOxaJ5ODLA9+36Q950vUbbU9MtNRtTytryGOeE/5Eihl/A587Z8MsWSUJfVE&#xA;kH4PRA2LRWVJdirsVS/StZ0fVzcy6fMlybC4lsbiRQapNHx9WOpA/wAnpscyNRpsuGhMcPHESHmD&#xA;yLESB5JhmOyeOfmX5O06L8wNBvDLcWmk+Z7j6hrUFnK1uJbkKfq0jcdmJL7/AC8Sc7z2f7azx0Ob&#xA;HA+vDHjje/pv1D4dPe4mbEOMHvT9/wAmLGSD9Hy+Zdel0EkF9Fe9JtmUGvArx+x7fjmMfbnWcHDw&#xA;w4u+j911+jyZflY27yZpul3f52wJ5ct47fSfKGlyWt/JbgLH69wzKluSPtFQSxr+0GrvnXeyGLP+&#xA;XllzEk5ZcQvurn8fuAcbUkXQ6PdM6xxXYq7FXYq7FXYq7FXYq7FXYq7FWJ+dvzS8meTQser3vLUJ&#xA;QDBplsvrXclelI1+zXsXIHvitMYi/Mf82tZpJ5f/AC9kt7ImqXWsXcdq7KehNuQrrt4E4pQOqaB+&#xA;bXnPzB5ds/NGkWGl+W9Lv01W8ltbn1zLJbA+lCVJDUYtQ7Uoa12pir1q9ujbxBwvIk0Hhk8cOItO&#xA;XJwC1CLV4W2kUofEbjLDgPRrjqgeaLjnhl/u3DewO/3ZUYkc2+MweReCebI7TU/zy16FVElrDocN&#xA;jqS02Ms7CQKT/wAYTmZoI3I91OB2nOoR7+JEfkhqE6+X77y1duWvPLV5LZ1PVoGYvC/yPxBfYZ4t&#xA;7cdnfl9bxgenIL+I2P6D8XodDmGTGC9GzjXMdiqC1vV7PRtHvNVvG42tlC88p7kIK8R7t0Hvl+l0&#xA;8s+WOOH1SIA+KJSoWxL8l9MurTyNDe3i8LzWp5tUnUim9y1UP0xqpzc+02eM9WYQ+jFGOMf5vP7b&#xA;asAqPvZ1nPtzyr84NSuZvM/lDSNKsJ9X1SzvV1mSwtByl9O1I4V2IVXau56UzuPZHs3Jmx5yNhOB&#xA;xgnvlz+Q+9xdRMAj5p2PLn51+cf3F8LfyPokn98IpBd6k6H9lXQhEr4/Cw9+mdL2b7GabARLIfFk&#xA;O/aP+l/WSPJx8mqJ5bPTfJnkvQfJ+iRaPosPpwIS80znlNNKftSyvQcmP9goM7ACnFT3FXYq7FXY&#xA;q7FXYq7FXYq7FXYq85/Mrz1r0OrWXkfyWiTebtWQySXMm8On2m4a5l6/F/ID9xqoZSmPkH8qPLvl&#xA;HnfHlqvmS5q1/r15+8uZHb7fAsW9NSewNfEnFbZrih2KoPVVra1/lYH+H8cuwn1OPqR6UmzLdekH&#xA;njzlp3lHQJtVu6yS1EVlaKf3k9w32I069ep8BvleTIIRJLZixmRoPHvJJ8yaR531C181Kq6r5ot1&#xA;1hSP2XDuGgr4orfZ/ZpmD7PdsYdZxnGdhKvl19xvZn2vpjGMT3J1az/4e/N+yuSeFh5qtTZzn9n6&#xA;3b0aJjTuy0QfM5o/+CB2b42l8QD1Y/V8OUvs3/zW/sLUbcJ/F/tet54e9Mo3l7Z2NtJdXk8dtbRD&#xA;lLNKwRFHiWagGTxYpZJCMAZSPQc0E08q1u28zfnIZ9M8rEWXlGwLPLq90jLFfXce8cKLsxjDbsab&#xA;dSKhQfVfZj2aOl/fZv70igP5o/4r7vi6/Pn4thyTiH8w/MegKmn+c/KWoWFxFSNb3TYfrdjIF2BR&#xA;kPwbdF3+jNJ2h7DZhIywTE490tpfPkffs2w1Y6rpPzL1/WGNn5M8p6nqN63wi7vYDaWURPeSVz26&#xA;8Txr2OR0PsLnlIHPKMY90d5fqHv39yZ6sdGZflj+Wlz5cmvfMHmG7XU/OGrgC+vFB9OGIUIt4K0+&#xA;AECpoK0G22ek6TSY9PjGPGKhFwJzMjZZ/mSxdirsVdirsVdirsVdirsVdirsVWySJHG0kjBUQFnY&#xA;9AAKk4q8r/Im2fWYtd/MW9Utfeab2UWbNuY9PtXMUMQ8KFCD48VxSXq2KHYq7FVC+XlaSj2r92+T&#xA;xn1BqzC4FjV/f2en2U99ezLBaWyNLPM5oqooqSczSadaBezx+18q/mL+ZepQfmBp01pp1hYTMvlb&#xA;TNVjkaOSFahrqQR8uLO4FDQ9PBVLajtHTx1WOWORIjLbbYu108fD96h+Y/kv81tNsbTz15i1DTbl&#xA;/LMySLYaXHIKwTSKk5MkojbdaAjwr0zC7F7HwdnEnFxeoi7N8v7WzUyOaJiVT8xtEk8y+ThPpLGS&#xA;8tzHqGmSREhmKivwEb1ZGPH3pnXavCMuIir/AEvN6LN4WXfboWPaF5t0hoIorn8xtf8AL5lUD0NW&#xA;sBdkMB8QW4UvyUHoxC+4GcXl9mtDI3LDH4XH7BQenjqJdC9D8r/ll+WPmS5hu9U85S+ebmM8ks5r&#xA;5PQVvH6rE3Nen2Sae2Z2l7PwacfuoRh7h+nmxlkkeb2i0tLWztorW0hS3tYFCQwRKERFGwVVWgAG&#xA;ZjBVxV2KuxV2KuxV2KuxV2KuxV2KuxV2KuxV2KpB+YNy9r5C8y3SV5waVeyrQ0NUt3Yb9umKpZ+T&#xA;VvFb/lX5XSIUU6fDIR/lSDmx28WY4qWZYq7FXYq06hlKnowIP04QUEWHzp+emqa1LqOn6Zd2E6eR&#xA;7O5s5/MV5UxpcLLOF9FZB2RQSad6HsK5GYn4OLpogG+r6Jt7eC2gjt7eNYYIUWOGJAFREUUVVUbA&#xA;ACgGYzlqWo6fZ6lp9zp97EJ7O8ieC5hbo8cilWU/MHFXhEnkH8z/ACKZLHRbFfNvliMlrICZLe+t&#xA;4ySfTZX2k49uINf8noMzBrJQFHcODqdBHIeIHhKWXn5i6XaKbfzVompaICeMg1CzcwmvgwDch/sc&#xA;zI67Gebr5dm5Y7xooP8AQ/5M+ZDWAaeZ33UW8n1WWp7+mhjavzXDwYJ933I8TU4+fF96aW3kzzDp&#xA;IH+GvOOr6Yi/YtppfrdutOgEMnFafPIS7PieRpsh2rMfUAU1tPzE/OXy4eeq2ln5v05f7yS1H1S+&#xA;A/m4KPSb/VVCT7Zi5NFOPLdzMXaOOWx9L0/yJ+YnlrztprXmjzMJoTwvdPnAS5t36cZY6mnTYgkH&#xA;x65hueybFXYq7FXYq7FXYq7FXYq7FXYq7FXYql3mTT31Ly7qunJ9u8s57dfnLEyDx8cVYj+Qmprq&#xA;H5SeXZAfigge1cHqDbyvFQ/QoOKSz/FDsVYb+bnnLUvKHka71rS4optRSW3htY56lC00yoagFSTx&#xA;JpvioZVe3SwQncCRgeC9/c/RXJ442WrLPhjbzn809I/S/wCXmv2XHm5s5Jol8ZLf98gHvyjGZeQX&#xA;EuDhlUwyv8uNaOt+QvL+qM3KW5sYGnb/AItVAsv/AA6nMF2bI8VdirTKrqUcBlYUZTuCD1BGKsT1&#xA;v8pPy01sN+kfLlk7t9qWGMW8h+ckHpv+OK2w6/8A+cctFt4ZH8qa7qug3IBNvCtwZrTl+yHiccmW&#xA;v+Xk45JR5FhPFCX1AF59rnm7zt5YsLjSPMWlvaeYoAFtNTEElxp90Af7xWioRyXsBseoH2cz4670&#xA;7/U6yfZg47H0fawuLzfr8epR+ajZy+WtZiISHzBbwTrp91X/AHTdJIrVDgfa39x0Ixp5I5Oe0u9z&#xA;MeGWIVH1R7jzHu/U+mfyg/M6L8wPLkl89sLTUrGX6tqMCNzi9TiGEkTb1R+wO46b9TjOUzrFXYq7&#xA;FXYq7FXYq7FXYq7FXYq7FXYq8r/Jo/obzJ568lv8K6bqn6RsU8LXUU9RFX2TiK+5xSXqmKHYq8g/&#xA;5ya1JrTyfo8SQNdPPrVp/oiDk0vpiSQRgUYnkUpsMkBsxvem/wAv/LfmM6lfec/N0vLzNrKLH9TQ&#xA;n0bK0UhktkWpFQd29/fkTk4sdblwtRm4thyZvLFHLE8Ug5RyKVdT3VhQjLXGYt/zjhO//KsYNPkb&#xA;m+k3t5ZFv9WdpP8AmbmvLuLeoYq7FXYq7FXYq7FVO5tra6ge3uYknt5RxlhkUOjKeoZWqCMVQ2la&#xA;JoukQyQaTYW2nwyuZZYrWGOBWkIALssYUFiAN8VRuKuxV2KuxV2KuxV2KuxV2KuxV2KuxV5V5mP+&#xA;HPz38ta0DwsvNNlNot4a/D68LCWBjX9pyUQfLFL1XFDsVePfnI/1vzp5BsAOQ/TAuAKV/wB5E5k/&#xA;RyzIiNh73FlKzLyFM8zJcF2KsP8A+ceWY6L5tBJIXzRqIUHsOEJoPpOa+XMu3j9I9z1XAl2KuxV2&#xA;KuxV2KuxV2KuxV2KuxV2KuxV2KuxV2KuxV2KuxV2KvOfz90i6u/y9m1Wx21Py3cQa1YuB9lrRquf&#xA;ksbM30YpDONB1i11vRLDWLQ1ttQt4rmLetFlQOAfcVocUI13CIznooJP0YQLQTQt4t5yP1z85vIk&#xA;Lbi1i1O7cb/twhQaj/KQZlkeoBwIn0SPfT0XLXHdirEP+ce4nTRPNbN0l8z6i6/ILEv61Oa+XMu3&#xA;jyHueqYEuxV2KuxV2KuxV2KuxV2KuxV2KuxV2KuxV2KuxV2KuxV2KuxVSu7WC7tZrS4QSW9wjRTR&#xA;noyOCrA/MHFXmn5BXc1p5f1XybeMTfeUdRnsfi+01tI7SQSH2arcfYYpL0XU5eFqR3chf4nLcIuT&#xA;j6iVR9752/NG48yR/mxBqnl6ktz5X0L9K3VrvWa3F2YriL/kVJy+jbemTyyqQYaeAlAg971/y/ru&#xA;n69otnrGnyepaXsYljO1RXqrU6MpqrDxzIBsW4comJophhYsT/5x0UN5GvrocqXmsX845jehkC/8&#xA;aZri7h6jirsVdirsVdirsVdirsVdirsVdirsVdirsVdirsVdirsVdiqQedPPXlnybpY1LX7r6vDI&#xA;3pwRorSSyyUrwjRQST+A7nFXlGq/mX+Z/m8el5csv8I6LJsdTvgJL90PeOH7MdR4/MNmXi0c5c9g&#xA;4WbX44bD1Fj2iS3/AOVvm1fMkkl7reh6rD9X8yXEjGe5SUNyS6P8wXp7Cu9SMlqdJwCxuGOk1wyE&#xA;iWx6PoDQte0DzXoUGr6TcC60255GG44vGaoxRvhcKwIZSNxmJGRHJzJ4xIUXm/5aej5j/NnzZ5ss&#xA;yJtFsLaPQLC6p8E5DLNcFexCug37gjDOXEbXHj4BSX6Tbn8ufzHn8qSVTyr5nd73y25+xBdf7vtA&#xA;T0HTiP8AV7scswzo006nHY4g9GuZTDbSygVMaM4B78RXMlwQxr/nGwwH8ntG9ORZJfUuzc8WDFZD&#xA;dSEBvA8CppmvdwXp2KHYq7FXYq7FXYq7FXYq7FXYq7FXYq7FXYq7FXYq7FXYqhtS1TTtLspb/Urq&#xA;KzsoBymuJ3WONR7sxAxV84/nP+a+keabfTp/K+nXeoWvlrUYtQuNb9Mx2xSOqvFHzAduRZa7Dp4b&#xA;5bjEgeIDYNWUxI4Cd5BmlpdQXdrDdW7iSCdFlicdGRxyU/cc34Niw8tKJBoquFil3m2ZZ/J+oaff&#xA;6hc2WimMyXgtnCMYozzaMEhqK9KMB9rpmNnwQkLk5mm1OWJEY730LJv+cd9PvLL8pdGW5QxfWDPc&#xA;28TdVhmmd46mgryU8gfA5o3pC84/Pk6p5l8/XGi21xOtv5Z0tNQtbe1AdzfySBlPCo5N6VAN6+HX&#xA;LsOLjvyDRnzDHV9TSJ178421Tyzd6To+ja3+n7q2NusrWQiWOSROJdv3jcO5Hhl5MiKAN+5xRCMT&#xA;ZlGvelP5Oy6v+WvmjTLLWikWkebES0nSNiyW+oRmkBZiSKyKeLEbFj4LlWbTygAT1cjT6qOUkDo+&#xA;ncx3JdirsVdirsVdirsVdirsVdirsVdirsVdirsVdirsVQ2p6lY6Xp1zqN/MtvZWkbTXEz7KqIKs&#xA;Tir51JvfzP1V/M3mISr5bjlI8u6CzcYvSX4frE6j7TPTv/xGmbHSaUSHFJ1Wu1pieCHPqWWvp9i9&#xA;i9gYE+pPGYWtwoVPTYcSvEUFKZs+EVXR0wmbu93nun6jqH5dXB0rV0lufKMjk6ZqqKXa25tX0ZwN&#xA;6b7H7vBcKMjhNS+joe52M4DUDijtk6jv9z0LT9RsNRtEu7C4juraT7E0TBlPtUdx3GZsZCQsOvnA&#xA;xNEUWMebbSbzT5j0TyBaOyjVJRday6dY7C3PNqntzK0X3FO+YGvy0OEdXZ9l4bkZnpyfRUEENvBH&#xA;BAixQwqI4o1FFVVFFUAdABmqd0+f9Pn/AEh+afn/AFJjVku7ewQE7qtpEYzt4Ermz7OHMun7Wl9I&#xA;97Jc2Tp0j86+Xode8uXdg7iKXj6trcMeIimj+JH5dhXYnwrlWfGJwIcjTZjjmJPSvyi82Xnmv8vN&#xA;H1q9RkvJomiuXPSSSB2heVfZynLOfeoZhirsVdirsVdirsVdirsVdirsVQ1/eraRBiOTtsi5o+3u&#xA;2o6DDxEcU5bRH6T5Btw4uMpFNqV7Kd5So/lX4R+GeVav2j12c3LJKI7o+kfZ+m3YxwQHRYl7doar&#xA;M/8AwRI/HMbF2zrMZuOWf+mJ+w7MjiiegRUOuXaf3gWQe+x/DN/o/bfWY9sgjkH+lPzG32NMtJE8&#xA;tkwt9Zs5dnJib/K6ffnX6D2x0efaZOKX9Ll/pv10409LIct0crKwBUgg9CNxnVQnGYEomweocYin&#xA;hH5o+ZJPPvmc+R9KlP8AhnSZFl8z3cZos86NVLNGHUKy1b3/ANUVytNg8SXkHF1epGKP9I8k4iij&#xA;iiSKJAkUahURRRVVRQAAdABm9AeaJtjeu+e9PsL1dI02CXWvMEp4w6VZAyScv+LGUMIx4139sxs2&#xA;qjDbmXL0+ink35R7030H8lPMHmaaPUvzJu+NoCHg8rWLlYFoaj6zKprI3sp+Tds1WbUSyc+TvMGl&#xA;hiG3PvTrV/8AnHjyhJdtfeXLy+8r3b05jTpSLd6fzQvyH0KQPbKozlHkabpwjIVIWm35c/lRD5Q1&#xA;LUNXu9Wn1zWdQjjga+uEWMxwRmvpoqlqcjQtv2GMpmRsrCEYioigz3Isni35q+TNc0DzLJ+YHli0&#xA;a+trpFj80aRDvI6xiiXUKjqyr9r7+7EX6fOccr6OPqdOMsaPPok2nfmP5Iv7RbmPWLWFSKmK4kWC&#xA;RT3BSQqfuzbx1OMi7DoJ6PLE1wlhf5g/mXHqOk3WneW+c1mxWHVNaCssEMcjBCiMaVZuVCfDpXqM&#xA;XU6q4kQ+Jc7R6LhmDk2PQPqby/oen6Doljo2nJ6dlYQpBAp6kIKcmI6sx3Y9zmrdymGKuxV2KuxV&#xA;2KuxV2KuxV2KqNze2dqAbmdIQfs82C1+VcnGEpchbCeSMfqICRapeRXVwHhkEkKrRWU1BPfPH/bf&#xA;PKWu8M/5OIHz9X6Q7TREHHxDe0FnHuW7FXYqhtR1LT9Ms5L3ULiO0tIRylnmYIgHzOW4cE8shCAM&#xA;pHoEEgc3mOo/mP5s83mXTfInqaZoj1ju/Ms6shZejC1jNDX/ACuo/wAk75637J+ympwHxMszH+gD&#xA;6f8AO6E+75ul7Q7SxwFcyujfyj+X3l2OCWdbW1SpBc8pp5afE3EfE7H2FB7DPSxwYY08wfE1E75n&#xA;7m9E8u/mJ+YoEsRfyl5Sc73LiupXKf8AFaV/dKw/a+7kM1J7UjnB8KQMRtsQfu5O3wdmxx7z3l9j&#xA;2DyV+XnlPyZYm10KyWF5APrF4/x3Mx61llPxHfen2R2AzHc9kmKuxV2KuxV2KvmLS/JXlnTPPnmn&#xA;ytqGl2tw9ndfX9LeaJHP1K7AdUBYEssVQu/cnNjohGVggEuq7SlOFSiSAdlb82rK0t/y01KK3hSC&#xA;GE25jiiUIi1uYxsq0HfMrVxAxGvxu4egkTnF+f3PpSCZZoI5kBCyqHUHrRhUVzSPQr8VdirsVdir&#xA;sVdirsVdirsVeVahfT313JczMSznYH9leyj2GdFjxiEaDymXKZyMim+jOGsVXuhIP0mv8c8F/wCC&#xA;Bpzj7UlI/wCUjGQ+XD/vXsOxMnFpwP5pI/T+lHZxTt3Yqo313DZWVxeTGkNtG80h/wAmNSx6+wye&#xA;LGZyERzka+aCaeK6Fo1558WDzV5vna6tpnaTS9DBK2kEYYqpZR9tj4nt1r0H0P2B7OafR4hwi5Hm&#xA;ep9/6uTyPaXaczIwjtSb+YNY15NZsfKXlS0g/Sl1btP9YnISC2t0PDlwA33GwH3HMztztrH2fh45&#xA;8vL7nH7P0H5gkk7J95U/KbSdLvRrOuTv5g8xGhN/diqRnwgh3VAOx6jtTPEu2va3Va0mIPBjPQcz&#xA;7z+gUHrdPpIYhQDPopZYm5xsUYdxnPabV5cE+PHIxl5ORKIIoppa66wotytf8tev0jO77M9uZCo6&#xA;mN/0o/pj+qvc4mTSfzU2huIZl5ROHHt2+ed/o9fh1MOPFISHl+kcx8XClAx5r8y2LsVdirsVeM/n&#xA;1praNq3l/wDMG3UiOxkGma4VBNbK5b4HanaOQn6WGXYMnBMFo1OLxMZj16Ma/NXi/wCXmrkUZTHG&#xA;wPUf3yEHNvq/7sui0P8AfRe+6DMZ9D06YjiZbaF+PWnKMGmaJ6RHYq7FXYq7FXYq7FXYq7FXYqwf&#xA;WfJ18l08tggmt5CWEYIDJXtuRUeGbbBrYkVLYuj1PZ8xK4bhD6bp+q2crLcWsqRON34kqCPEiozi&#xA;P+CD2dHU6UZ8e88PP+oefy2PutzuxpZMWQwkCIy+9MM8Teqdiqld20V3aTWsorFPG0Ug8VcFT+By&#xA;eOZhISHMG0EPI/ymmlHlP9GXB/0vRrq4sLgdw0chYD6A4GfUHZeoGXBGY5EX893hO08fDmPmo35a&#xA;3/OLTZwSrTaPJFGRt8Uc7P1+Rzkfb3HxaYd1j9P63a9hS9J9/wCp6ppesJcAQzELP0B6Bv7c8Tza&#xA;fh3HJ6SMrTPMZm7FV0cskbB42KsO42y/T6nJhnx45GMh1DGUQdimtrrrCi3K8h/OvX6Rnd9l+3Mo&#xA;1HUx4h/Ojz+I5fKvc4mTSfzU1huIZl5ROHHt1HzGd/o9fg1MeLFISHl+kcx8XClAx5qmZjF2KpV5&#xA;q8vWfmPy5qOhXg/0fUYHgZqVKFh8DgeKNRh7jFXzM1/fTflRr2j6iCNZ8vrLpt/HUk1t2ore44Dr&#xA;3oTm0jk4sB7w6aeHg1Q7pG30t5MmebyfoUz05yafaO1OlWgQnNW7lOMVdirsVdirsVdirsVdirsV&#xA;diriAQQdweowSiCKPJWN6lYm1mqorC+6Hw9s8W9pOw5aHNcf7mf0nu/o/D7R8Xa4M3GPNB5zje7F&#xA;XkHmmKTyJ55uNdkjP+FPMjJ9emXcWt8KjmwG/CTqT4k+AB9i9gvaCEsX5aZ9cOXnHp8uXup0HbGh&#xA;OQcUeYQnnGSOHzr5M1aNg0E0lxaNIpBVhcRARUI61JJGdJ7YYfE0Uq7r+RB+5wOxJVMxLMwSDUbE&#xA;Z4m9Onula1y4wXRo3RJT39m/rmDn03WLZGSdZhs3Yq7FV0ckkbBkYqw6EGhy3BqMmKQnjkYyHUGk&#xA;GIOxTG312dKCZRIP5hs39M7Ps/24z46jniMg7+Uv1H5D3uLPSA8tkyg1WymoA/Bv5X2/HpnaaH2p&#xA;0Oo2E+CXdL0/by+1xZ6eceiLBBFR0zoAQRYaHzZ+fmlP5d83ahqFupFh5z0m5iuEFKC9sYqh6f5U&#xA;VB7knL8M6sd4aM+MS4T/ADZB7d+Wd0Lr8ufK84YOX0qy5sP5xboH+5gcpb2S4q7FXYq7FXYq7FXY&#xA;q7FXYq7FXYqsmhjmjMcg5K3UZjavSY9RjOPIOKMvx82UZGJsMa1G1WzuFiMgPqAtGK7kDrtnj/bn&#xA;s1n0JMwDPB/O7vKXd9x+x2OLVQkeEmpdyHzm3JQ+oafY6jZTWN/AlzZ3ClJoJAGVlPYg5ZhzTxyE&#xA;4ExkORCCL5vM4/yN9DU7FLfX7j/Den3S39rpEsayPHPHUoEnJ5cKn7NPx3ztsntznyaU4ZwBkRXF&#xA;e2+x2rn8a8nCGggMnGObI7uzntZfTlFP5WHQj2znIZBIWHIIpRyxCbaXrLQ0huDWLor9Svz9sxM+&#xA;nvcc2cZMgVlZQymqncEdCM15DY3irsVdirsVVobu5g/upCo8O33HbNho+1dTpv7qco+XT5HZhLHG&#xA;XMPNPzyvHvr/AMk29wqlX1Ro3IHVJI+Dg/MHPUPY/wBoM2uynHlEbiBuOu9bh1XaOEQxEjuZD/zj&#xA;lqjP5Fm8v3D1vvLd9c6fIp+0UEhkRv8AV/eFR8s6ueSMchxkjj511rlbVE8URIci9UySXYq7FXYq&#xA;7FXYq7FXYq7FXYq7FXYqxbz3Zsbe3vUrWJijkeDbg/eMz9ERK4SFgh1XacDQmOjG7XWp46LMPVXx&#xA;6N/bnJds/wDA80uoJnpz4M+7nD5c4/Db+inSduZIbT9Y+39qZQ6pZSj+84Hwfb8emec6/wBi+0tM&#xA;d8ZyR74er7Pq+cXfYe1tPk/i4T57fs+1FK6sKqQw8Qa5zWXDPHLhmDGXcRTsIzEhYNqdzaw3MRjl&#xA;Wqnoe4PiMjCZibCSLY1e6TdW0hCoZI+quoJ296dM2WPPGQ7i1GNIMgg0IofA5chH6Zq0lowjer25&#xA;6r3X3GUZsAnuObKMqZLFLHLGJI2DI24IzWyiQaLYuwJdirsVdirzf85eEc/k64dfhTXbeMyU6eor&#xA;Clfen4Z33/A8lWtkP6H++i67tQXhPuP3IXyVcvoX5w6vZIfTg1+yi1CDw9e2PpuB7sCzHOm9v8U8&#xA;Ph6rGanjlz/rf2fa4PYuQTx8Je+WdytzbrKNidmHgR1zb9kdpR1mnjlHM8x3S6j9Xk35YcMqVs2T&#xA;W7FXYq7FXYq7FXYq7FXYq7FXYqhtTslvbCe1b/dqEKT2bqp+g5ZinwSBas2PjgY97yuRWjZlccWQ&#xA;kMD2I650ANvKkUaS2TX9ORyoZnp+0o2/GmR4wzGIp35a1WEahbXMTCSJnEci+zbEEHwrXKNXghmx&#xA;mMgJDzbtLkOPKC9Mk06xf7UK/wCx+H9VM4rP7O6HL9WKPw9P+5p6sZ5jqhn0Kzb7JdD7Go/EZp8/&#xA;sPopfSZw+N/eP0to1ckLN5bVxT1FceDr/t5qcvsFMb483zjX2g/obBrB1CXT+Tkb/dEbf8Yzx/5p&#xA;zW5fZHtHH9PDP3S/4qmY1OMqMHl64snJjSUIftR/bX57DNRquxtfEevDL3gX/ubbY5YdCvZWU0YE&#xA;HwO2abJilA1IEHz2bQbayCXYq7FWK/mb5TuPNHlC60+zYJqUTJdadITSlxCeS79uQqte1a5uewO0&#xA;/wAlq45T9PKXuP6ufwas2PjiQ870G281av5vi17XNNfSF06y+px28h+OSdyGkkC9Qnh9HvnoHtZ7&#xA;QYNVhjjxESuia5f23+11XZ+iOC/e9p8g6pM889lM5cFBJFyNSOJoR+Oa/wBjtTwZZYukxxfEfrH3&#xA;OXqRYtmueiOE7FXYq7FXYq7FXYq7FXYq7FXYq7FWE+cfKlxM091ZqXjuFPrxpuyswoWA7g5s9LqR&#xA;w8MnTa3Ry4uOIvveYyeXNTSUx8ATWla0/A75mcJcLxAzbyT5Mv1kjkuFKQBxLI7AqG49FStCfnlG&#xA;fURhEgG5FyNPppZJgkVEPTs07vnYq7FXYq7FXEAihFR4HIzgJCiLC2oPY2b/AGoU+YAB/DNZm7D0&#xA;WX6sUP8ASgfaKbBlmOqg+i2DdFZP9Vj/ABrmpzexmgnyjKHukf8AfcTYNVMJNr9r+jLZLmMGWItw&#xA;cHYrUbHpmv8A+Td48hrHmMf60b+4x+5r1HahxR4jGx70lTXLQ/aV1PyBH6812f8A4G+vj9Escx7y&#xA;D9sa+1rh2/hPMSH497uOnavPHag8Z32jkI40NK0rlEfYXtTHvUK/rN0O18GSXCLv3J55b8pS6XeN&#xA;dzzrI3EoiIDTem5Jzpuw/Z2elyeLkkDKtgL6+Zr7mWXMJCgyXOtcd2KuxV2KuxV2KuxV2KuxV2Ku&#xA;xV2KuxV2KuxV2KuxV2KuxV2KuxV2KuxVD6jZJe2M1q+wlUgHwPVT9ByeOfBIFrzYxOJieryHzPo2&#xA;t25WBUaMqxDgHiH8CrGgIzeDIJi4l5w4jjNTCO8g6Frb30U0wcQRSJJyY1UBDUgHxPSmU58gjAg8&#xA;y36bEZ5AQNgeb1jNM9A7FXYq7FXYq7FXYq7FXYq//9k=</xmpGImg:image>
               </rdf:li>
            </rdf:Alt>
         </xmp:Thumbnails>
      </rdf:Description>
      <rdf:Description rdf:about=""
            xmlns:xmpMM="http://ns.adobe.com/xap/1.0/mm/"
            xmlns:stRef="http://ns.adobe.com/xap/1.0/sType/ResourceRef#"
            xmlns:stEvt="http://ns.adobe.com/xap/1.0/sType/ResourceEvent#">
         <xmpMM:InstanceID>xmp.iid:FE7F117407206811822A9DD448A483FF</xmpMM:InstanceID>
         <xmpMM:DocumentID>xmp.did:FE7F117407206811822A9DD448A483FF</xmpMM:DocumentID>
         <xmpMM:OriginalDocumentID>uuid:5D20892493BFDB11914A8590D31508C8</xmpMM:OriginalDocumentID>
         <xmpMM:RenditionClass>proof:pdf</xmpMM:RenditionClass>
         <xmpMM:DerivedFrom rdf:parseType="Resource">
            <stRef:instanceID>uuid:ba5dc92b-6d0a-484a-ab90-b9370a4a0965</stRef:instanceID>
            <stRef:documentID>xmp.did:0980117407206811822A897E387FE54C</stRef:documentID>
            <stRef:originalDocumentID>uuid:5D20892493BFDB11914A8590D31508C8</stRef:originalDocumentID>
            <stRef:renditionClass>proof:pdf</stRef:renditionClass>
         </xmpMM:DerivedFrom>
         <xmpMM:History>
            <rdf:Seq>
               <rdf:li rdf:parseType="Resource">
                  <stEvt:action>saved</stEvt:action>
                  <stEvt:instanceID>xmp.iid:FE7F117407206811822A9DD448A483FF</stEvt:instanceID>
                  <stEvt:when>2018-09-05T11:34:58-03:00</stEvt:when>
                  <stEvt:softwareAgent>Adobe Illustrator CS6 (Macintosh)</stEvt:softwareAgent>
                  <stEvt:changed>/</stEvt:changed>
               </rdf:li>
            </rdf:Seq>
         </xmpMM:History>
      </rdf:Description>
      <rdf:Description rdf:about=""
            xmlns:illustrator="http://ns.adobe.com/illustrator/1.0/">
         <illustrator:StartupProfile>Print</illustrator:StartupProfile>
      </rdf:Description>
      <rdf:Description rdf:about=""
            xmlns:xmpTPg="http://ns.adobe.com/xap/1.0/t/pg/"
            xmlns:stDim="http://ns.adobe.com/xap/1.0/sType/Dimensions#"
            xmlns:xmpG="http://ns.adobe.com/xap/1.0/g/">
         <xmpTPg:HasVisibleOverprint>False</xmpTPg:HasVisibleOverprint>
         <xmpTPg:HasVisibleTransparency>False</xmpTPg:HasVisibleTransparency>
         <xmpTPg:NPages>1</xmpTPg:NPages>
         <xmpTPg:MaxPageSize rdf:parseType="Resource">
            <stDim:w>21.000131</stDim:w>
            <stDim:h>29.700013</stDim:h>
            <stDim:unit>Centimeters</stDim:unit>
         </xmpTPg:MaxPageSize>
         <xmpTPg:PlateNames>
            <rdf:Seq>
               <rdf:li>Cyan</rdf:li>
               <rdf:li>Magenta</rdf:li>
               <rdf:li>Yellow</rdf:li>
               <rdf:li>Black</rdf:li>
            </rdf:Seq>
         </xmpTPg:PlateNames>
         <xmpTPg:SwatchGroups>
            <rdf:Seq>
               <rdf:li rdf:parseType="Resource">
                  <xmpG:groupName>Default Swatch Group</xmpG:groupName>
                  <xmpG:groupType>0</xmpG:groupType>
               </rdf:li>
            </rdf:Seq>
         </xmpTPg:SwatchGroups>
      </rdf:Description>
      <rdf:Description rdf:about=""
            xmlns:pdf="http://ns.adobe.com/pdf/1.3/">
         <pdf:Producer>Adobe PDF library 10.01</pdf:Producer>
      </rdf:Description>
   </rdf:RDF>
</x:xmpmeta>
                                                                                                    
                                                                                                    
                                                                                                    
                                                                                                    
                                                                                                    
                                                                                                    
                                                                                                    
                                                                                                    
                                                                                                    
                                                                                                    
                                                                                                    
                                                                                                    
                                                                                                    
                                                                                                    
                                                                                                    
                                                                                                    
                                                                                                    
                                                                                                    
                                                                                                    
                                                                                                    
                           
<?xpacket end="w"?>
	</metadata>
<g>
	<path fill="#8BCAEF" d="M-70.706,86.272c0,0-3.5,2.011-2.859,4.972c0.641,2.963,5.231,14.252,5.231,14.252s1.946,5.96,8.778,6.39
		c6.83,0.429,12.352-3.271,10.209-9.308c-2.142-6.035-4.786-11.366-4.786-11.366S-58.92,79.845-70.706,86.272"/>
	<path fill="#8BCAEF" d="M-63.024,111.851L-63.024,111.851c-4.378-1.723-5.837-5.709-5.974-6.107
		c-0.284-0.697-4.62-11.396-5.261-14.349c-0.743-3.429,3.038-5.645,3.199-5.737c3.999-2.181,7.66-2.636,10.9-1.361
		c4.492,1.768,6.501,6.226,6.671,6.619c0.174,0.354,2.742,5.598,4.81,11.428c0.885,2.492,0.616,4.787-0.777,6.634
		c-1.917,2.543-5.71,3.894-10.146,3.615C-60.816,112.516-61.968,112.267-63.024,111.851 M-60.677,85.614
		c-2.831-1.113-6.091-0.682-9.689,1.28c-0.016,0.01-3.029,1.787-2.506,4.199c0.621,2.869,5.15,14.022,5.196,14.136
		c0.006,0.016,0.012,0.031,0.017,0.047c0.011,0.035,1.278,3.731,5.154,5.256l0,0c0.919,0.361,1.926,0.579,2.994,0.646
		c3.899,0.245,7.32-0.926,8.925-3.054c1.093-1.447,1.291-3.286,0.574-5.309c-2.103-5.923-4.728-11.235-4.755-11.287
		c-0.006-0.015-0.012-0.028-0.018-0.04C-54.803,91.444-56.643,87.201-60.677,85.614"/>
	<path fill="#8BCAEF" d="M18.069,101.665c0,0-2.437,1.397-1.99,3.459c0.447,2.062,3.643,9.919,3.643,9.919s1.354,4.15,6.109,4.448
		c4.754,0.299,8.596-2.276,7.105-6.479c-1.49-4.201-3.332-7.911-3.332-7.911S26.272,97.19,18.069,101.665"/>
	<path fill="#8BCAEF" d="M23.338,119.667L23.338,119.667c-3.11-1.223-4.167-4.045-4.281-4.375c-0.216-0.53-3.224-7.95-3.671-10.018
		c-0.55-2.54,2.213-4.157,2.33-4.227c2.846-1.55,5.456-1.871,7.773-0.96c3.184,1.254,4.619,4.397,4.76,4.718
		c0.141,0.289,1.921,3.929,3.354,7.971c0.812,2.284,0.136,3.883-0.571,4.82c-1.379,1.828-4.088,2.801-7.247,2.603
		C24.917,120.144,24.093,119.965,23.338,119.667 M24.969,101.407c-1.907-0.75-4.115-0.455-6.561,0.879
		c-0.006,0.003-1.968,1.164-1.637,2.688c0.428,1.978,3.573,9.724,3.605,9.803c0.006,0.015,0.012,0.03,0.018,0.046
		c0.008,0.023,0.863,2.503,3.461,3.525l0,0c0.617,0.242,1.297,0.39,2.018,0.435c2.644,0.165,4.951-0.615,6.028-2.04
		c0.725-0.961,0.849-2.138,0.366-3.494c-1.459-4.113-3.28-7.797-3.298-7.834c-0.007-0.012-0.013-0.026-0.019-0.04
		C28.939,105.349,27.688,102.477,24.969,101.407"/>
	<path fill="#8BCAEF" d="M-83.338,60.979l-8.982-1.274c0,0-4.958-0.596-6.805,4.098c-1.846,4.693,2.197,8.768,5.319,8.865
		c3.122,0.1,9.646,1.312,9.646,1.312s4.046-2.249,4.85-4.865C-78.506,66.493-81.305,61.554-83.338,60.979"/>
	<path fill="#8BCAEF" d="M-95.594,72.994L-95.594,72.994c-1.582-0.623-3.028-1.937-3.868-3.516c-0.985-1.853-1.101-3.96-0.323-5.936
		c2.023-5.142,7.494-4.548,7.55-4.542l8.997,1.279c0.032,0.004,0.063,0.011,0.093,0.02c0.081,0.021,0.16,0.05,0.241,0.082
		c2.378,0.935,5.148,6.082,4.271,8.941c-0.878,2.857-5.008,5.179-5.183,5.277c-0.145,0.08-0.312,0.108-0.474,0.077
		c-0.064-0.013-6.506-1.202-9.539-1.301C-94.401,73.358-94.995,73.229-95.594,72.994 M-83.49,61.674l-8.93-1.268
		c-0.163-0.018-4.428-0.456-6.046,3.655c-0.862,2.194-0.382,6.13,3.391,7.614l0,0c0.447,0.177,0.882,0.271,1.291,0.284
		c2.823,0.091,8.235,1.048,9.494,1.276c1.188-0.705,3.748-2.53,4.301-4.33c0.646-2.103-1.699-6.523-3.435-7.207
		C-83.446,61.689-83.468,61.682-83.49,61.674"/>
	<path fill="#FFED00" d="M-77.058,46.741c0,0-8.271,0.358-10.585,5.093c-2.315,4.736-3.219,9.659-0.846,15.926
		c4.319,11.41,15.279,24.303,33.837,28.216c18.558,3.913,65.778,10.594,75.266,12.448c10.275,2.009,18.113,1.027,18.562-2.408
		c0.303-2.331-3.748-13.441-8.6-16.028c-4.854-2.588-22.119-7.798-29.836-10.834C-14.12,73.306-58.988,47.3-77.058,46.741"/>
	<path fill="#FFED00" d="M-62.914,94.431c-6.558-2.58-12.302-6.465-17.072-11.55c-4.086-4.352-7.312-9.472-9.332-14.808
		c-2.188-5.78-1.918-10.907,0.878-16.628c2.517-5.149,10.983-5.575,11.343-5.591c0.022,0,0.043-0.001,0.066,0
		c4.757,0.147,11.517,1.969,20.666,5.566c12.005,4.724,26.139,11.771,37.495,17.432c8.318,4.147,15.503,7.73,19.937,9.476
		c3.075,1.209,7.624,2.749,12.44,4.379c4.992,1.689,10.155,3.438,13.787,4.866c1.646,0.646,2.856,1.18,3.7,1.631
		c5.058,2.696,9.429,14.094,9.06,16.924c-0.122,0.942-0.663,1.783-1.562,2.431c-2.917,2.099-9.663,2.372-18.047,0.732
		c-3.577-0.699-12.755-2.121-23.381-3.767c-17.976-2.783-40.347-6.248-51.899-8.684C-57.62,96.254-60.339,95.443-62.914,94.431
		 M-77.051,47.627c-0.522,0.03-7.808,0.526-9.797,4.597c-2.563,5.243-2.813,9.938-0.814,15.225
		c1.938,5.116,5.039,10.035,8.967,14.221c4.589,4.89,10.118,8.629,16.429,11.113c2.484,0.975,5.106,1.759,7.796,2.325
		c11.505,2.426,33.851,5.887,51.805,8.666c10.646,1.649,19.838,3.073,23.449,3.779c9.328,1.823,14.812,0.907,16.672-0.431
		c0.506-0.364,0.781-0.765,0.842-1.223c0.264-2.02-3.725-12.78-8.138-15.131c-0.771-0.412-1.954-0.933-3.515-1.547
		c-3.592-1.412-8.734-3.153-13.706-4.837c-4.837-1.636-9.406-3.184-12.522-4.408c-4.506-1.773-11.723-5.371-20.078-9.537
		c-11.326-5.646-25.42-12.675-37.353-17.369C-65.822,49.606-72.563,47.775-77.051,47.627"/>
	<path fill="#CDC110" d="M29.511,104.793l6.321,4.46c0,0,3.545,0.471,3.988-1.757c0.442-2.227-1.781-8.015-1.781-8.015l-7.088-2.787
		L29.511,104.793z"/>
	<path fill="#FFED00" d="M15.096-89.009c-2.42,6.149-9.558,9.099-15.945,6.587c-6.387-2.513-9.603-9.535-7.183-15.686
		c2.419-6.149,9.558-9.099,15.944-6.588C14.3-102.182,17.516-95.159,15.096-89.009"/>
	<path fill="#FFED00" d="M11.359-74.478c-2.062,5.239-8.143,7.75-13.583,5.61c-5.439-2.141-8.18-8.121-6.118-13.361
		C-6.281-87.469-0.2-89.98,5.24-87.84C10.678-85.699,13.419-79.718,11.359-74.478"/>
	<path fill="#FFED00" d="M21.509-70.733c-2.062,5.239-8.143,7.75-13.582,5.61c-5.441-2.141-8.182-8.122-6.12-13.361
		s8.142-7.75,13.583-5.61C20.829-81.954,23.569-75.972,21.509-70.733"/>
	<path fill="#FFED00" d="M11.584-53.051c-1.443,3.666-5.68,5.432-9.465,3.943c-3.784-1.49-5.683-5.669-4.24-9.335
		c1.442-3.665,5.679-5.432,9.464-3.942C11.128-60.896,13.026-56.717,11.584-53.051"/>
	<path fill="#FFED00" d="M34.954-31.37c-1.559,3.964-6.178,5.854-10.316,4.227c-4.14-1.629-6.231-6.161-4.673-10.123
		s6.177-5.854,10.317-4.226C34.422-39.863,36.512-35.33,34.954-31.37"/>
	<path fill="#FFED00" d="M99.667-51.289c0.076-1.454-0.651-1.493-2.279-2.38c-1.629-0.887-2.51,1.98-3.955,3.143
		c-1.447,1.163-2.992,0.06-5.134-0.783s-4.093,1.604-4.093,1.604l-0.031,0.229c-1.271-3.154-3.793-5.807-7.22-7.155
		c-2.181-0.858-4.452-1.078-6.61-0.755c-0.455-5.496-3.971-10.543-9.484-12.711c-2.728-1.074-5.578-1.294-8.258-0.796
		c-0.172-1.36-0.531-2.683-1.061-3.938c5.503-0.444,10.531-3.908,12.677-9.36c3.009-7.647-0.8-16.305-8.507-19.336
		c-1.52-0.599-3.08-0.93-4.625-1.021c1.469-4.997-1.126-10.391-6.104-12.348c-4.148-1.633-8.713-0.388-11.467,2.771
		c-1.549-1.734-3.516-3.145-5.831-4.056c-7.864-3.094-16.729,0.726-19.802,8.533c-3.07,7.806,0.817,16.642,8.68,19.735
		c5.098,2.005,10.613,1.103,14.701-1.903c0.18,0.083,0.36,0.161,0.547,0.234c1.155,0.454,2.344,0.686,3.514,0.715
		c-0.178,2.376,0.228,4.731,1.133,6.879c-5.503,0.444-10.531,3.909-12.677,9.359c-2.939,7.473,0.628,15.903,7.979,19.115
		c-0.113,0.033-0.176,0.051-0.176,0.051l9.107,26.476c0,0,8.514,1.618,12.523,0.229c4.008-1.391,8.852-6.161,8.852-6.161
		l0.748-1.393c1.288,1.426,2.918,2.586,4.831,3.339c6.276,2.469,13.31-0.325,16.177-6.252l6.029-1.58c0,0,5.325-2.851,6.772-4.013
		C98.073-45.98,99.59-49.836,99.667-51.289"/>
	<path fill="#FFED00" d="M55.925-80.902c-2.055,5.224-7.987,7.78-13.251,5.709c-5.263-2.07-7.862-7.982-5.808-13.206
		c2.054-5.223,7.987-7.779,13.249-5.71C55.378-92.037,57.979-86.125,55.925-80.902"/>
	<path fill="#FACADF" d="M7.22-83.818l4.976-1.877c0,0,3.865-1.104,6,0.14s15.779,8.63,15.779,8.63l1.816,0.512l2.891-0.679
		c0,0,1.366,1.143,1.822,1.524c0.455,0.38-18.264,7.952-18.264,7.952s-2.955,1.866-4.846,0.516S8.198-77.581,6.771-83.188"/>
	<path fill="#8BCAEF" d="M-15.812,23.979l-11.302,5.644l0.099,4.882c0,0-9.224,3.438-11.018,6.969
		c-1.793,3.532-9.376,13.063-11.493,14.854c-2.118,1.792-9.592,5.915-9.592,5.915s-2.986,2.458-3.081,4.236
		c-0.094,1.781,2.087,11.115,2.93,12.053c0.842,0.936,5.472,5.584,6.628,6.239c1.154,0.656,2.514,0.788,2.684-0.155
		s-0.155-2.684-0.155-2.684s-1.134-15.584-0.653-16.808c0.481-1.224,33.753-19.619,33.753-19.619s8.008,3.756,9.357,1.864
		S-2.08,34.223-2.08,34.223l0.263-2.723l-2.822,0.506c0,0-6.049-2.58-7.803-4.281C-14.195,26.025-15.812,23.979-15.812,23.979"/>
	<path fill="#8BCAEF" d="M10.282,31.013c0,0-1.006,1.018-1.586,3.01c-0.584,1.99-1.967,10.125-1.967,10.125l4.742,5.903l1.129,2.26
		l10.222,24.809c0,0,2.326,4.347,2.231,6.127c-0.094,1.778-0.317,11.579,0.289,13.634c0.604,2.055,2.306,6.963,3.523,6.434
		c1.218-0.531,2.91-3.297,2.831-5.144c-0.08-1.848-4.053-13.3-4.239-15.392c-0.186-2.092-1.482-33.683-1.482-33.683l2.931-5.911
		l-5.782-10.953l-3.575-3.223l-0.247,5.757l-3.689,1.172l-3.354-0.713L10.282,31.013z"/>
	<path fill="#8BCAEF" d="M-72.701-105.37l0.08,1.849l6.405,3.729l-6.338,1.745l6.436,3.137c0,0-1.143,1.368-0.095,1.78
		c1.049,0.412,13.378,3.446,13.378,3.446l22.089,26.451c0,0,4.863,2.517,6.536,2.368c1.673-0.149,27.42,1.099,27.42,1.099
		L4.43-46.973l6.43-10.187c0,0,3.134-0.786,3.753-2.358c0.618-1.573,0.745-3.945,0.745-3.945l-1.553-3.234
		c0,0-4.27-2.488-4.127-1.826c0.145,0.662-34.287-0.571-34.287-0.571l-3.458-0.956L-47.672-95.12l-7.733-4.455L-72.701-105.37z"/>
	<path fill="#8BCAEF" d="M28.393-59.142l2.638,16.376l-1.824,4.125l5.847,16.429c0,0,2.572,4.24,5.468,4.572
		c2.897,0.333,23.778,4.712,23.778,4.712s2.814,4.136,5.187,4.26c2.372,0.127,7.005-0.876,7.005-0.876l3.777,1.688
		c0,0,1.541,1.211,1.885,0.336c0.344-0.873-0.256-1.915-0.256-1.915l-7.85-6.723c0,0-4.201-2.662-6.611-3.205
		c-2.408-0.544-24.445-5.581-24.445-5.581L31.587-55.464C31.587-55.464,30.795-59.609,28.393-59.142"/>
	<path fill="#8BCAEF" d="M21.284-106.744l-6.582,1.851c0,0-2.646,0.574-3.784,2.952s-3.899,7.346-3.919,9.962
		c-0.021,2.616,0.221,8.161,0.221,8.161l5.92-1.709c0,0,3.445-1.064,5.057-0.028c1.609,1.037,16.721,8.798,16.721,8.798l3.765-0.336
		l-2.359-3.754l-0.235-4.531l2.519-4.862c0,0-3.908-0.326-5.968-0.733c-2.062-0.406-5.805-2.688-7.071-4.597
		c-1.269-1.913-2.302-5.953-2.302-5.953l0.682-2.759L21.284-106.744z"/>
	<polygon fill="#FFFFFF" points="14.959,-78.352 18.329,-74.604 23.04,-80.422 	"/>
	<path fill="#FFFFFF" d="M17.395-67.101l-1.736,1.307c0,0-0.07,4.423-1.12,5.679c-1.051,1.256-3.128,2.293-3.128,2.293l-6.979,10.85
		l-2.713,6.299c0,0-11.407,1.536-18.247,8.887c-6.836,7.352-9.342,12.156-7.585,22.307s9.422,33.565,9.422,33.565
		s2.264,3.674,3.842,4.851c1.577,1.178,6.21,3.068,6.21,3.068l3.152-2.352l1.773-3.568l1.257-10.262l10.485,17.662l-0.115,2.181
		c0,0,3.304,0.558,5.289,0.227c1.984-0.333,2.49-1.617,2.49-1.617l-0.75-2.335l0.51-22.983l-5.637-27.627l0.145-7.917l14.889-8.215
		c0,0,2.852-5.764,2.062-9.412c-0.791-3.649-3.199-15.912-3.199-15.912s10.304-13.937,10.113-13.454
		C37.637-73.1,21.197-67.14,21.197-67.14L17.395-67.101z"/>
	<path fill="#CCECFC" d="M22.239-67.618l6.152,8.476c0,0,8.408-14.659,8.38-14.113C36.741-72.71,22.239-67.618,22.239-67.618"/>
	<path fill="#CCECFC" d="M29.198-36.447c0,0-16.801-5.964-17.6-5.351c-0.798,0.614-1.6,0.298-2.009,1.807
		c-0.407,1.509,1.854,16.078,1.854,16.078l2.227,11.755l3.873-8.247L29.198-36.447z"/>
	<path fill="#CCECFC" d="M16.56-21.998c0,0-5.774,11.965-7.554,14.605c-1.78,2.638-5.48,5.447-5.48,5.447l0.394-9.49
		c0,0-10.159,33.837-9.866,34.51c0.292,0.671,6.114,4.26,6.114,4.26l0.86-12.088l10.45,17.279l0.782,2.696l6.061,0.182l1.206-2.122
		l1.938-32.191L16.56-21.998z"/>
	<polygon fill="#CDC110" points="-49.957,84.613 -36.087,96.512 -11.95,100.687 -51.251,66.402 	"/>
	<path fill="#6B9AB7" d="M-52.716,106.237c0.116,1.784-2.087,3.379-4.921,3.563c-2.833,0.184-5.223-1.114-5.34-2.897
		c-0.115-1.784,2.088-3.379,4.921-3.562S-52.831,104.454-52.716,106.237"/>
	<path fill="#6B9AB7" d="M-61.005,110.019c-1.594-0.627-2.596-1.773-2.678-3.069c-0.143-2.208,2.309-4.104,5.581-4.315
		c1.219-0.079,2.4,0.089,3.414,0.489c1.594,0.626,2.595,1.773,2.679,3.069c0.073,1.114-0.512,2.181-1.646,3.002
		c-1.036,0.749-2.434,1.217-3.936,1.314C-58.809,110.587-59.99,110.418-61.005,110.019 M-55.206,104.441
		c-0.822-0.324-1.792-0.459-2.803-0.394c-2.398,0.156-4.348,1.441-4.26,2.81c0.047,0.733,0.714,1.423,1.783,1.842
		c0.823,0.324,1.792,0.46,2.803,0.396c1.238-0.08,2.374-0.453,3.196-1.048c0.42-0.305,1.116-0.938,1.063-1.764
		C-53.471,105.552-54.137,104.862-55.206,104.441"/>
	<path fill="#6B9AB7" d="M30.876,115.59c0.074,1.164-1.363,2.205-3.214,2.327c-1.851,0.119-3.412-0.729-3.487-1.893
		c-0.075-1.165,1.364-2.207,3.213-2.327C29.239,113.577,30.8,114.425,30.876,115.59"/>
	<path fill="#6B9AB7" d="M25.463,118.059c-1.041-0.41-1.694-1.159-1.751-2.005c-0.094-1.44,1.51-2.679,3.646-2.819
		c0.795-0.052,1.566,0.059,2.23,0.32c1.04,0.409,1.693,1.158,1.749,2.005c0.046,0.729-0.335,1.425-1.075,1.961
		c-0.676,0.49-1.589,0.795-2.569,0.858C26.896,118.43,26.126,118.319,25.463,118.059 M29.248,114.416
		c-0.536-0.211-1.169-0.3-1.829-0.257c-1.566,0.103-2.84,0.942-2.781,1.835c0.03,0.478,0.467,0.928,1.164,1.204
		c0.536,0.21,1.169,0.3,1.83,0.257c0.81-0.054,1.55-0.297,2.088-0.686c0.273-0.198,0.729-0.611,0.693-1.149
		C30.383,115.141,29.947,114.69,29.248,114.416"/>
	<path fill="#FFFFFF" d="M7.028-94.67c0,0,3.123,2.186,4.596,4.518c0,0-2.494,1.887-5.191,2.26"/>
	<path fill="#231F20" d="M6.175-87.232c-0.23-0.091-0.406-0.299-0.443-0.562c-0.054-0.388,0.219-0.746,0.605-0.8
		c1.752-0.242,3.448-1.198,4.299-1.741c-1.483-1.969-3.986-3.732-4.013-3.752c-0.321-0.226-0.399-0.666-0.175-0.988
		c0.224-0.321,0.666-0.398,0.986-0.174c0.133,0.092,3.258,2.294,4.789,4.719c0.197,0.312,0.123,0.721-0.173,0.943
		c-0.106,0.082-2.673,2.004-5.521,2.397C6.405-87.173,6.283-87.189,6.175-87.232"/>
	<path fill="#231F20" d="M-25.615-66.823c-1.951-0.768-3.014-2.321-3.243-2.687c-1.076-1.292-15.707-18.877-18.992-23.877
		c-3.091-4.705-8.598-5.759-8.654-5.769c-0.037-0.007-0.074-0.018-0.111-0.028l-15.089-4.805c0.087,0.095,0.188,0.18,0.304,0.256
		c0.877,0.565,7.341,3.56,11.51,5.453c0.756,0.219,2.382,0.804,2.745,1.84c0.155,0.438,0.085,0.897-0.197,1.292
		c-0.799,1.119-2.277,1.13-3.103,0.947l-3.618-0.109c-0.069-0.002-0.138-0.012-0.204-0.031c-0.481-0.127-1.118-0.148-1.306-0.048
		c-0.001,0.006-0.001,0.012-0.001,0.019c-0.012,0.222,0.059,0.295,0.093,0.332c0.219,0.231,0.783,0.304,0.952,0.303
		c0.076,0,0.151,0.009,0.223,0.027l9.16,2.344c0.062,0.016,0.121,0.038,0.178,0.066c0.086,0.043,2.28,1.087,3.692-0.708
		c0.302-0.385,0.86-0.451,1.244-0.149c0.385,0.302,0.451,0.858,0.149,1.244c-1.805,2.296-4.521,1.837-5.788,1.242l-8.978-2.299
		c-0.379-0.017-1.434-0.133-2.115-0.849c-0.413-0.435-0.614-1.004-0.58-1.647c0.03-0.558,0.282-1.035,0.709-1.345
		c0.879-0.636,2.258-0.381,2.723-0.269l3.612,0.108c0.066,0.003,0.132,0.011,0.196,0.028c0.005,0.001,0.67,0.148,1.089-0.049
		c-0.317-0.204-0.897-0.455-1.422-0.604c-0.043-0.012-0.085-0.027-0.125-0.045c-1.073-0.488-10.521-4.783-11.796-5.603
		c-1.641-1.057-1.672-3.044-1.672-3.129c0-0.283,0.133-0.55,0.362-0.719c0.229-0.167,0.523-0.216,0.793-0.13l16.748,5.332
		c0.695,0.137,6.387,1.396,9.76,6.528c3.283,4.999,18.758,23.58,18.915,23.767c0.032,0.041,0.062,0.082,0.087,0.127
		c0.007,0.01,0.821,1.374,2.401,1.995c0.455,0.179,0.679,0.693,0.5,1.148C-24.646-66.87-25.16-66.645-25.615-66.823"/>
	<path fill="#231F20" d="M-71.454-96.464c-1.252-0.492-1.904-1.763-1.98-1.92c-0.122-0.25-0.119-0.543,0.008-0.792
		c0.126-0.247,0.362-0.422,0.637-0.469l6.612-1.151c0.482-0.084,0.941,0.238,1.025,0.72c0.084,0.481-0.239,0.941-0.72,1.025
		l-5.055,0.881c0.087,0.047,0.18,0.083,0.274,0.104c1.2,0.271,4.614,1.785,4.999,1.956c0.447,0.199,0.648,0.723,0.449,1.169
		c-0.199,0.448-0.729,0.642-1.171,0.449c-1.002-0.448-3.796-1.65-4.667-1.847C-71.187-96.37-71.323-96.413-71.454-96.464"/>
	<path fill="#231F20" d="M-28.468-60.721c-3.722-1.463-5.906-4.882-6.224-5.408l-18.526-23.105
		c-0.305-0.381-0.244-0.939,0.137-1.244c0.382-0.307,0.939-0.245,1.245,0.137l18.563,23.152c0.028,0.035,0.052,0.071,0.075,0.108
		c0.028,0.047,2.89,4.837,7.559,5.227c5.113,0.427,30.748,0.93,31.006,0.934c0.489,0.01,0.879,0.413,0.869,0.903
		c-0.01,0.489-0.414,0.879-0.903,0.869c-1.058-0.021-25.948-0.508-31.12-0.94C-26.754-60.171-27.649-60.398-28.468-60.721"/>
	<path fill="#231F20" d="M3.231-46.137c-0.069-0.027-0.137-0.065-0.201-0.11c-0.393-0.291-0.479-0.844-0.188-1.238l7.539-10.258
		c0.115-0.158,0.281-0.272,0.469-0.327c1.053-0.305,2.531-1.452,3.314-3.06c0.396-0.812,0.756-2.058,0.223-3.382
		c-1.486-3.701-8.122-3.04-8.189-3.032c-0.036,0.004-0.074,0.005-0.111,0.005c-0.256-0.005-25.617-0.512-28.798-0.359
		c-3.496,0.168-5.813-1.325-5.911-1.389c-0.409-0.269-0.521-0.817-0.255-1.227c0.269-0.408,0.817-0.521,1.226-0.257
		c0.045,0.03,1.982,1.241,4.855,1.104c3.197-0.154,27.225,0.323,28.864,0.354c0.794-0.076,8.046-0.634,9.965,4.14
		c0.612,1.526,0.517,3.191-0.278,4.819c-0.865,1.777-2.491,3.302-4.113,3.888L4.268-46.438C4.026-46.105,3.595-45.993,3.231-46.137"
		/>
	<path fill="#231F20" d="M1.394-39.849c-0.091-0.035-0.178-0.087-0.256-0.156c-0.37-0.319-0.409-0.879-0.089-1.249
		c1.246-1.438,1.59-4.562,1.619-5.692L1.936-59.627c-0.027-0.488,0.346-0.906,0.835-0.937c0.487-0.027,0.905,0.346,0.935,0.833
		l0.733,12.718c0.002,0.022,0.002,0.046,0.001,0.068c-0.004,0.188-0.115,4.615-2.052,6.852C2.136-39.802,1.735-39.715,1.394-39.849"
		/>
	<path fill="#231F20" d="M-10.753,29.745c-2.844-1.119-4.082-4.296-4.145-4.456c-0.063-0.184-5.708-16.33-9.512-31.068
		c-1.521-5.894-2.652-14.519,0.602-22.146c1.84-4.317,4.27-6.401,4.689-6.738c0.74-0.76,8.707-8.563,20.957-6.886
		c0.484,0.066,0.824,0.513,0.758,0.997c-0.066,0.485-0.514,0.825-0.998,0.758c-11.71-1.604-19.403,6.32-19.48,6.4
		c-0.031,0.033-0.066,0.065-0.104,0.094c-0.022,0.017-2.454,1.929-4.239,6.183c-3,7.147-1.91,15.309-0.469,20.896
		c3.736,14.469,9.256,30.312,9.457,30.89c0.077,0.193,1.48,3.572,4.38,3.688c0.487,0.02,0.868,0.432,0.849,0.921
		c-0.021,0.489-0.432,0.87-0.921,0.85C-9.599,30.1-10.205,29.96-10.753,29.745"/>
	<path fill="#231F20" d="M-4.386,32.764c-0.197-0.078-0.367-0.227-0.469-0.432c-0.217-0.439-0.036-0.97,0.402-1.188
		c5.293-2.61,4.634-9.615,4.628-9.688c-0.005-0.057-0.007-0.114-0.002-0.171l2.922-32.947c0.044-0.487,0.475-0.848,0.961-0.804
		c0.487,0.043,0.848,0.474,0.805,0.961L1.944,21.364c0.036,0.429,0.145,2.257-0.359,4.395c-0.768,3.246-2.584,5.658-5.254,6.976
		C-3.904,32.848-4.161,32.852-4.386,32.764"/>
	<path fill="#231F20" d="M2.612-0.015c-0.141-0.056-0.27-0.148-0.37-0.276C1.939-0.677,2.007-1.233,2.389-1.535
		c2.153-1.693,4.012-3.646,5.525-5.807c0.279-0.4,0.833-0.499,1.232-0.219c0.4,0.281,0.499,0.834,0.219,1.234
		c-1.614,2.303-3.592,4.384-5.88,6.184C3.229,0.059,2.895,0.096,2.612-0.015"/>
	<path fill="#231F20" d="M15.241-16.056c-0.061-0.024-0.119-0.055-0.176-0.094c-0.404-0.274-0.508-0.827-0.231-1.23
		c3.683-5.382,12.303-16.299,12.976-17.149c0.297-0.521,2.791-5.047,2.367-8.515c-0.482-3.938-2.948-16.119-2.975-16.242
		c-0.045-0.226-0.002-0.459,0.123-0.655l9.184-14.345c0.264-0.413,0.812-0.531,1.225-0.269c0.411,0.264,0.53,0.812,0.27,1.225
		L29.01-59.288c0.419,2.076,2.475,12.356,2.924,16.027c0.522,4.266-2.496,9.458-2.626,9.677c-0.019,0.035-0.044,0.069-0.069,0.101
		c-0.091,0.115-9.164,11.579-12.941,17.102C16.059-16.033,15.617-15.909,15.241-16.056"/>
	<path fill="#231F20" d="M14.885-64.018c-0.057-0.022-0.113-0.051-0.168-0.088c-0.406-0.271-0.516-0.822-0.244-1.229l1.721-2.564
		c0.271-0.406,0.824-0.516,1.229-0.242c0.406,0.272,0.516,0.823,0.242,1.229l-1.72,2.564C15.71-63.997,15.266-63.868,14.885-64.018"
		/>
	<path fill="#231F20" d="M17.023-66.55c-2.293-0.902-4.968-3.492-8.22-9.483c-3.035-5.591-3.985-11.296-2.826-16.959
		c0.928-4.534,2.974-7.775,3.848-9.16l0.02-0.031c1.848-2.928,4.598-3.779,4.717-3.814l7.166-1.973
		c0.471-0.131,0.959,0.146,1.09,0.618c0.129,0.471-0.148,0.96-0.619,1.089l-7.148,1.969c0.002,0-2.227,0.712-3.706,3.057
		l-0.021,0.032C6.27-93.196,5.944-85.012,10.36-76.879c5.734,10.562,8.963,9.263,11.101,8.403c0.333-0.134,0.646-0.259,0.956-0.347
		c3.041-0.844,17.4-7.126,17.545-7.19c0.447-0.196,0.969,0.008,1.167,0.457c0.196,0.448-0.009,0.971-0.456,1.167
		c-0.596,0.261-14.619,6.397-17.781,7.275c-0.216,0.059-0.472,0.162-0.769,0.281C20.612-66.225,18.952-65.791,17.023-66.55"/>
	<path fill="#FFFFFF" d="M22.792-87.353c0,0,7.662-8.139,15.969-0.092C38.76-87.444,32.284-78.679,22.792-87.353"/>
	<path fill="#231F20" d="M27.324-83.56c-1.669-0.657-3.354-1.756-5.011-3.27c-0.14-0.128-0.223-0.307-0.23-0.497
		c-0.007-0.19,0.062-0.375,0.191-0.513c0.227-0.24,5.606-5.837,12.447-3.146c1.566,0.617,3.092,1.636,4.532,3.032
		c0.255,0.247,0.287,0.645,0.077,0.931C39.284-86.96,34.56-80.714,27.324-83.56 M23.846-87.368c1.336,1.136,2.679,1.971,3.996,2.488
		c5.104,2.009,8.76-1.234,9.938-2.508c-1.156-1.034-2.357-1.799-3.578-2.279C29.39-91.559,25.276-88.603,23.846-87.368"/>
	<path fill="#231F20" d="M6.694-82.886c-0.176-0.069-0.325-0.209-0.4-0.4c-0.143-0.365,0.037-0.777,0.401-0.919l5.231-2.05
		c0.402-0.218,2.946-1.484,5.344-0.202c2.209,1.184,15.574,8.18,15.707,8.25c0.031,0.016,0.062,0.034,0.091,0.056
		c0.019,0.015,2.106,1.5,4.257,0.856c0.374-0.112,0.77,0.101,0.883,0.476c0.111,0.374-0.102,0.77-0.476,0.882
		c-2.657,0.797-5.073-0.772-5.453-1.036c-0.833-0.436-13.524-7.08-15.678-8.234c-1.868-1.003-3.997,0.197-4.019,0.21
		c-0.031,0.017-0.062,0.032-0.095,0.045l-5.274,2.068C7.039-82.818,6.854-82.822,6.694-82.886"/>
	<path fill="#231F20" d="M14.604-81.526c-0.027-0.011-0.054-0.023-0.08-0.038l-2.1-1.145c-0.344-0.188-0.471-0.618-0.283-0.962
		c0.188-0.343,0.621-0.467,0.961-0.282l2.1,1.145c0.345,0.188,0.471,0.619,0.283,0.961C15.313-81.529,14.932-81.397,14.604-81.526"
		/>
	<path fill="#231F20" d="M17.956-73.038c-0.065-0.026-0.125-0.062-0.184-0.106c-0.305-0.244-0.355-0.691-0.111-0.995l4.037-5.048
		l-8.021,1.938c-0.381,0.093-0.764-0.142-0.854-0.522c-0.093-0.381,0.141-0.763,0.522-0.854l10.035-2.426
		c0.294-0.071,0.602,0.053,0.765,0.309c0.161,0.255,0.145,0.585-0.046,0.823l-5.33,6.666C18.571-73.006,18.237-72.927,17.956-73.038
		"/>
	<path fill="#231F20" d="M18.059-74.112c-0.091-0.036-0.174-0.091-0.246-0.163l-3.295-3.369c-0.275-0.28-0.27-0.728,0.01-1.002
		c0.279-0.273,0.729-0.269,1.002,0.012l3.295,3.367c0.275,0.28,0.27,0.729-0.01,1.002C18.61-74.063,18.311-74.014,18.059-74.112"/>
	<path fill="#231F20" d="M8.343-96.526c-0.201-0.079-0.373-0.229-0.474-0.439c-0.851-1.77-1.379-3.672-1.569-5.656
		c-0.844-8.857,5.396-16.724,13.91-17.535c6.225-0.595,12.178,2.728,15.168,8.464c0.226,0.436,0.059,0.97-0.376,1.196
		c-0.434,0.225-0.968,0.058-1.194-0.376c-2.655-5.093-7.926-8.045-13.429-7.521c-7.542,0.719-13.066,7.719-12.313,15.604
		c0.169,1.773,0.641,3.475,1.4,5.054c0.213,0.441,0.027,0.971-0.414,1.182C8.82-96.44,8.565-96.439,8.343-96.526"/>
	<path fill="#231F20" d="M50.833-100.578c-0.013-0.005-0.027-0.011-0.042-0.018c-0.446-0.201-0.643-0.727-0.44-1.172
		c0.076-0.171,0.15-0.344,0.219-0.521c2.118-5.383-0.486-11.463-5.805-13.555c-4.008-1.577-8.499-0.523-11.439,2.686
		c-0.33,0.36-0.891,0.385-1.251,0.054c-0.361-0.33-0.386-0.89-0.056-1.251c3.44-3.753,8.698-4.984,13.395-3.137
		c6.228,2.449,9.281,9.561,6.805,15.852c-0.08,0.205-0.166,0.406-0.254,0.604C51.768-100.605,51.27-100.405,50.833-100.578"/>
	<path fill="#231F20" d="M23.436-103.28c-0.219-0.086-0.402-0.258-0.498-0.492c-2.242-5.538-6.193-4.585-6.359-4.542
		c-0.471,0.123-0.955-0.158-1.082-0.627c-0.127-0.47,0.148-0.953,0.617-1.082c0.057-0.015,5.614-1.455,8.467,5.586
		c0.184,0.453-0.035,0.97-0.488,1.153C23.874-103.195,23.64-103.2,23.436-103.28"/>
	<path fill="#231F20" d="M30.983-90.371c-6.611-2.602-9.895-10.044-7.318-16.593c0.317-0.805,0.717-1.579,1.185-2.298
		c0.269-0.41,0.817-0.524,1.228-0.257c0.408,0.269,0.524,0.816,0.256,1.226c-0.404,0.618-0.747,1.283-1.02,1.978
		c-2.219,5.639,0.616,12.051,6.32,14.295c3.947,1.553,8.498,0.72,11.598-2.122c0.36-0.331,0.92-0.308,1.25,0.054
		c0.332,0.361,0.309,0.921-0.054,1.252C40.834-89.541,35.555-88.572,30.983-90.371"/>
	<path fill="#231F20" d="M52.419-73.987c-0.286-0.112-0.508-0.37-0.555-0.695c-0.069-0.484,0.266-0.935,0.748-1.005
		c4.828-0.711,8.959-4.03,10.781-8.663c2.773-7.049-0.549-14.979-7.406-17.677c-1.365-0.537-2.795-0.839-4.25-0.897
		c-0.488-0.02-0.869-0.433-0.85-0.92c0.02-0.489,0.432-0.869,0.92-0.85c1.654,0.066,3.279,0.409,4.828,1.02
		c7.767,3.055,11.538,12.016,8.408,19.974c-2.055,5.222-6.72,8.964-12.174,9.765C52.712-73.913,52.556-73.933,52.419-73.987"/>
	<path fill="#231F20" d="M-3.658-68.788c-2.255-0.887-4.148-2.573-5.292-4.844c-2.514-4.985-0.461-11.106,4.574-13.646
		c0.165-0.082,0.33-0.16,0.494-0.232c0.447-0.197,0.972,0.005,1.17,0.452c0.197,0.447-0.007,0.971-0.453,1.168
		c-0.139,0.062-0.278,0.126-0.414,0.195c-4.162,2.098-5.864,7.152-3.791,11.264c1.562,3.1,4.828,4.877,8.318,4.528
		c0.487-0.048,0.921,0.308,0.971,0.794c0.049,0.487-0.307,0.92-0.793,0.97C-0.55-67.971-2.183-68.208-3.658-68.788"/>
	<path fill="#231F20" d="M-5.542-84.736c-0.105-0.041-0.204-0.104-0.291-0.188c-0.99-0.958-1.809-2.072-2.432-3.308
		c-1.514-3.006-1.738-6.438-0.629-9.66c1.105-3.215,3.407-5.838,6.479-7.387c3.089-1.556,6.583-1.841,9.838-0.8
		c0.462,0.145,0.724,0.646,0.575,1.113c-0.15,0.466-0.648,0.723-1.115,0.574c-2.809-0.898-5.828-0.652-8.5,0.695
		c-2.658,1.339-4.646,3.604-5.603,6.381c-0.953,2.768-0.762,5.709,0.536,8.286c0.535,1.061,1.234,2.012,2.081,2.832
		c0.352,0.341,0.361,0.901,0.021,1.252C-4.835-84.68-5.218-84.609-5.542-84.736"/>
	<path fill="#231F20" d="M41.846-74.278c-5.201-2.045-7.81-7.836-5.812-12.909c0.96-2.444,2.84-4.363,5.287-5.404
		c0.45-0.19,0.97,0.02,1.162,0.469c0.191,0.451-0.019,0.97-0.469,1.161c-2.008,0.854-3.547,2.424-4.332,4.423
		c-1.637,4.164,0.521,8.925,4.813,10.613c4.292,1.688,9.116-0.325,10.755-4.489c1.268-3.223,0.287-6.923-2.438-9.206
		c-0.375-0.314-0.426-0.873-0.111-1.249c0.313-0.375,0.872-0.424,1.248-0.11c3.312,2.773,4.497,7.279,2.95,11.212
		C52.903-74.693,47.048-72.232,41.846-74.278"/>
	<path fill="#231F20" d="M52.155-65.655c-0.441-0.174-0.669-0.668-0.51-1.12c2.152-6.079-1.303-8.196-1.339-8.216
		c-0.422-0.248-0.563-0.791-0.314-1.212c0.247-0.421,0.791-0.562,1.212-0.315c0.195,0.115,4.746,2.893,2.111,10.334
		c-0.164,0.461-0.669,0.703-1.133,0.54C52.175-65.648,52.164-65.651,52.155-65.655"/>
	<path fill="#231F20" d="M68.945-52.334c-0.455-0.179-0.68-0.693-0.5-1.148c2.395-6.087-0.61-12.989-6.698-15.384
		c-2.67-1.05-5.627-1.098-8.324-0.135c-0.461,0.164-0.968-0.076-1.134-0.537c-0.164-0.461,0.076-0.967,0.537-1.132
		c3.103-1.107,6.501-1.052,9.57,0.155c6.997,2.753,10.449,10.684,7.697,17.681C69.915-52.38,69.4-52.154,68.945-52.334"/>
	<path fill="#231F20" d="M0.749-47.998c-3.983-1.567-5.906-6.186-4.289-10.296c0.363-0.925,0.881-1.764,1.537-2.493
		c0.326-0.363,0.885-0.395,1.25-0.067c0.364,0.328,0.394,0.888,0.065,1.252c-0.513,0.571-0.919,1.229-1.204,1.955
		c-1.26,3.202,0.215,6.79,3.289,8c0.601,0.236,1.23,0.37,1.871,0.396c0.488,0.021,0.867,0.434,0.847,0.923
		C4.094-47.84,3.68-47.46,3.192-47.48C2.354-47.516,1.532-47.69,0.749-47.998"/>
	<path fill="#231F20" d="M43.161-22.986c-0.086-0.033-0.17-0.082-0.244-0.145c-1.357-1.136-2.131-2.887-2.162-2.962
		c-0.01-0.019-0.018-0.039-0.025-0.061c-0.355-1.019-8.752-24.994-9.883-28.914c-0.934-3.237-2.787-3.505-2.867-3.516
		c-0.486-0.042-0.841-0.469-0.799-0.958c0.041-0.487,0.477-0.847,0.967-0.806c0.125,0.011,3.112,0.317,4.402,4.79
		c1.098,3.802,9.461,27.699,9.842,28.782c0.089,0.194,0.705,1.486,1.662,2.285c0.375,0.315,0.426,0.873,0.111,1.248
		C43.913-22.941,43.507-22.85,43.161-22.986"/>
	<path fill="#231F20" d="M38.915-17.4c-3.344-1.315-4.808-4.526-4.873-4.675c-0.006-0.013-0.012-0.028-0.017-0.042l-5.007-13.017
		c-0.176-0.457,0.053-0.968,0.51-1.144c0.456-0.176,0.969,0.051,1.144,0.508l4.996,12.989c0.114,0.238,1.589,3.217,4.665,3.976
		c3.617,0.894,23.994,5.244,24.199,5.29c0.178,0.038,0.336,0.128,0.461,0.26c1.119,1.191,3.365,3.183,4.633,3.451
		c1.602,0.341,3.541,0.125,4.912-0.123c-0.653-0.245-1.664-0.502-3.225-0.675c-0.487-0.054-0.837-0.491-0.782-0.978
		c0.053-0.486,0.491-0.837,0.978-0.783c5.131,0.566,5.837,2.15,5.902,2.806c0.042,0.424-0.223,0.819-0.635,0.938
		c-0.174,0.051-4.293,1.233-7.518,0.547c-1.986-0.422-4.59-2.974-5.361-3.769c-2.523-0.538-20.529-4.39-23.99-5.245
		C39.559-17.17,39.229-17.276,38.915-17.4"/>
	<path fill="#231F20" d="M79.884-6.9c-0.254-0.101-0.461-0.198-0.586-0.262l-3.151-1.506c-0.442-0.212-0.628-0.74-0.417-1.182
		c0.211-0.442,0.74-0.629,1.182-0.417l3.165,1.513c0.497,0.248,1.104,0.438,1.43,0.462c-0.102-0.445-0.775-1.129-1.304-1.487
		c-0.021-0.016-0.045-0.034-0.066-0.052c-0.047-0.039-4.649-3.858-6.947-5.739c-1.373-1.123-5.124-2.425-6.5-2.846L42.932-23.59
		c-0.48-0.105-0.781-0.577-0.677-1.055c0.104-0.478,0.576-0.781,1.054-0.677L67.1-20.138c0.023,0.004,0.047,0.01,0.07,0.017
		c0.211,0.065,5.199,1.596,7.14,3.182c2.203,1.804,6.513,5.379,6.924,5.72c0.376,0.261,2.327,1.709,2.024,3.407
		c-0.09,0.495-0.377,0.888-0.809,1.104C81.678-6.324,80.594-6.622,79.884-6.9"/>
	<path fill="#231F20" d="M19.04,33.785c-0.15-0.059-0.284-0.159-0.387-0.297c-0.291-0.394-0.209-0.948,0.186-1.239
		c0.037-0.03,1.135-0.906,0.977-2.692c-0.1-1.11,0.033-2.721,0.236-5.156c0.25-3.011,0.592-7.136,0.711-12.855l0.031-1.403
		c0.189-8.472,0.293-13.138-3.893-29.908c-0.119-0.475,0.17-0.956,0.645-1.074c0.475-0.119,0.955,0.17,1.074,0.646
		c4.242,17.002,4.137,21.752,3.944,30.376l-0.03,1.399c-0.119,5.776-0.465,9.933-0.717,12.966c-0.188,2.263-0.323,3.895-0.24,4.854
		c0.252,2.803-1.605,4.215-1.686,4.272C19.637,33.862,19.315,33.893,19.04,33.785"/>
	<path fill="#231F20" d="M11.629,34.257c-0.301-0.118-0.521-0.396-0.556-0.73c-0.33-1.143-5.316-9.405-9.879-16.657
		c-0.26-0.414-0.135-0.96,0.279-1.221s0.961-0.136,1.221,0.278c0.025,0.04,2.533,4.029,5.011,8.104
		c5.131,8.443,5.133,8.994,5.135,9.397c0.003,0.489-0.392,0.887-0.88,0.892C11.843,34.319,11.731,34.298,11.629,34.257"/>
	<path fill="#231F20" d="M-14.515,47.24c-2.236-0.879-3.939-1.947-4.236-2.138c-9.125-4.785-9.562-14.965-9.575-15.396
		c-0.012-0.35,0.183-0.673,0.495-0.825l12.298-6.002c0.44-0.214,0.97-0.032,1.185,0.408c0.215,0.439,0.033,0.969-0.408,1.185
		l-11.752,5.735c0.232,2.113,1.546,9.656,8.613,13.344c0.025,0.013,0.052,0.027,0.074,0.043c0.057,0.036,5.482,3.529,9.664,3.038
		l5.428-11.584c0.01-0.023,1.111-2.511-0.027-3.582c-0.355-0.336-0.373-0.897-0.037-1.253s0.897-0.373,1.252-0.038
		c2.091,1.969,0.486,5.477,0.418,5.624l-5.631,12.011c-0.118,0.259-0.357,0.442-0.635,0.495
		C-9.736,48.754-12.37,48.083-14.515,47.24"/>
	<path fill="#231F20" d="M-52.264,86.226c-0.517-0.204-1.08-0.525-1.685-0.964c-1.272-0.923-2.794-2.376-4.65-4.44
		c-2.76-3.068-3.691-8.054-4.192-10.731c-0.097-0.52-0.18-0.97-0.25-1.25c-0.518-2.07,0.224-4.565,1.243-5.784
		c0.485-0.581,2.166-1.625,5.344-3.577c2.64-1.621,5.633-3.46,7.268-4.739c2.191-1.717,5.674-6.786,8.218-10.489
		c1.123-1.635,2.092-3.048,2.785-3.938c2.406-3.095,10.604-6.367,10.95-6.506c0.455-0.18,0.971,0.042,1.15,0.497
		c0.181,0.455-0.043,0.969-0.496,1.149c-2.245,0.891-8.454,3.693-10.206,5.946c-0.66,0.849-1.617,2.241-2.725,3.854
		c-2.753,4.009-6.179,8.997-8.584,10.88c-1.714,1.343-4.753,3.209-7.433,4.855c-2.032,1.249-4.562,2.802-4.914,3.205
		c-0.705,0.844-1.241,2.783-0.883,4.215c0.084,0.334,0.167,0.785,0.275,1.354c0.469,2.509,1.34,7.175,3.767,9.874
		c1.747,1.944,3.219,3.354,4.373,4.19c1.223,0.886,1.892,0.99,2.091,0.811c0.596-0.535,0.454-1.205,0.15-2.244
		c-0.103-0.351-0.199-0.682-0.228-1c-0.01-0.114-0.078-0.54-0.156-1.035c-0.515-3.253-1.881-11.893-0.674-15.475
		c0.068-0.2,0.203-0.37,0.386-0.479l33.949-20.29c0.42-0.251,0.965-0.114,1.215,0.306c0.251,0.421,0.113,0.965-0.306,1.215
		l-33.654,20.113c-0.895,3.384,0.4,11.584,0.835,14.333c0.108,0.681,0.156,0.987,0.17,1.153c0.013,0.146,0.09,0.408,0.164,0.66
		c0.3,1.024,0.802,2.741-0.666,4.06C-50.305,86.56-51.187,86.649-52.264,86.226"/>
	<path fill="#231F20" d="M13.966,52.927c-5.266-2.07-7.773-8.169-7.806-8.249c-0.059-0.148-0.077-0.31-0.054-0.467
		c0.013-0.077,1.208-7.674,1.54-10.21c0.407-3.124,2.899-3.845,3.005-3.875c0.473-0.129,0.961,0.148,1.09,0.619
		c0.129,0.468-0.143,0.952-0.609,1.087c-0.08,0.024-1.479,0.482-1.729,2.398c-0.301,2.293-1.295,8.649-1.506,10
		c0.275,0.61,1.164,2.425,2.675,4.12c2.378,2.67,5.124,3.814,8.161,3.401c6.58-0.893,8.615-7.057,9-8.471l-6.116-11.87
		c-0.229-0.412-0.566-0.864-0.774-1.058c-0.327,0.054-0.67-0.078-0.873-0.367c-0.277-0.402-0.178-0.955,0.221-1.234
		c0.293-0.202,0.649-0.27,1.004-0.188c0.869,0.205,1.613,1.341,1.979,2c0.004,0.008,0.009,0.015,0.012,0.023l6.275,12.177
		c0.094,0.181,0.121,0.386,0.08,0.583c-0.018,0.09-1.934,8.989-10.568,10.16C17.089,53.764,15.423,53.5,13.966,52.927"/>
	<path fill="#231F20" d="M11.523,36.247c-0.455-0.179-0.679-0.692-0.499-1.147c0.178-0.454,0.691-0.68,1.145-0.501
		c0.212,0.081,5.169,1.943,8.652-1.858c0.33-0.359,0.891-0.386,1.252-0.054c0.359,0.331,0.386,0.891,0.055,1.251
		C17.811,38.647,11.778,36.348,11.523,36.247"/>
	<path fill="#231F20" d="M28.262,103.778c-0.185-0.072-0.366-0.17-0.542-0.292c-2.193-1.535-3.056-6.558-3.091-6.769
		c-0.186-1.112-0.217-3.636-0.251-6.559c-0.039-3.367-0.089-7.56-0.438-8.747c-0.386-1.312-3.424-8.473-5.865-14.228
		c-1.805-4.255-3.231-7.615-3.499-8.391c-0.632-1.817-2.056-6.203-2.071-6.248c-0.15-0.465,0.104-0.965,0.569-1.115
		s0.966,0.104,1.116,0.568c0.014,0.044,1.434,4.414,2.059,6.217c0.248,0.718,1.808,4.391,3.457,8.28
		c2.587,6.097,5.518,13.006,5.934,14.417c0.418,1.422,0.465,5.39,0.512,9.227c0.03,2.729,0.062,5.311,0.225,6.287
		c0.361,2.155,1.365,4.911,2.359,5.609c0.219,0.153,0.342,0.129,0.389,0.122c0.372-0.069,0.68-0.45,0.873-0.758
		c0.715-1.141,1.041-3.23,0.699-4.472c-0.061-0.224-0.16-0.577-0.287-1.033c-2.688-9.662-3.903-14.443-3.934-15.502
		c-0.081-2.666-0.992-30.02-1.182-31.288c-0.072-0.481,0.256-0.937,0.736-1.012c0.48-0.077,0.932,0.242,1.011,0.722
		c0.226,1.349,1.198,31.229,1.205,31.526c0.028,0.871,1.328,5.946,3.872,15.079c0.126,0.456,0.226,0.812,0.287,1.036
		c0.476,1.727,0.078,4.312-0.906,5.883c-0.545,0.872-1.255,1.41-2.051,1.558C29.051,103.973,28.649,103.931,28.262,103.778"/>
	<path fill="#231F20" d="M40.553-27.977c-0.456-0.179-0.679-0.693-0.5-1.148c0.179-0.456,0.693-0.679,1.147-0.5
		c4.602,1.81,9.539,1.726,13.899-0.24c4.346-1.957,7.75-5.608,9.587-10.277c0.758-1.925,1.19-3.938,1.291-5.984
		c0.022-0.489,0.438-0.866,0.925-0.843c0.49,0.022,0.868,0.438,0.844,0.928c-0.107,2.239-0.581,4.441-1.409,6.547
		c-2.008,5.103-5.74,9.096-10.51,11.245C51.028-26.086,45.602-25.989,40.553-27.977"/>
	<path fill="#231F20" d="M23.971-26.334c-0.455-0.179-0.678-0.693-0.499-1.148c0.179-0.455,0.693-0.679,1.147-0.5
		c2.797,1.1,5.246,0.949,7.489-0.463c0.414-0.261,0.962-0.136,1.222,0.277c0.262,0.415,0.137,0.961-0.277,1.223
		C30.341-25.237,27.284-25.031,23.971-26.334"/>
	<path fill="#231F20" d="M67.536-31.513c-1.844-0.725-3.479-1.799-4.859-3.192c-0.344-0.348-0.342-0.909,0.006-1.252
		c0.348-0.344,0.908-0.342,1.252,0.005c1.206,1.217,2.637,2.157,4.251,2.792c6.245,2.458,13.293-0.536,15.706-6.674
		c2.416-6.137-0.703-13.129-6.949-15.587c-2.056-0.809-4.283-1.053-6.441-0.709c-0.482,0.076-0.938-0.253-1.015-0.735
		c-0.077-0.484,0.251-0.938,0.735-1.014c2.471-0.394,5.019-0.114,7.368,0.811c7.156,2.815,10.724,10.837,7.951,17.884
		C82.768-32.141,74.692-28.698,67.536-31.513"/>
	<path fill="#231F20" d="M84.393-38.686c-0.282-0.111-0.502-0.364-0.551-0.686c-0.078-0.484,0.252-0.937,0.735-1.013
		c3.495-0.55,11.823-2.474,13.663-8.431c0.555-1.797,0.187-3.106-0.133-3.407c-0.646-0.609-0.951-0.521-2.326,0.679
		c-0.323,0.282-0.656,0.572-1.025,0.845c-1.717,1.271-3.963,1.419-6.494,0.422c-1.51-0.593-3.047,0.431-3.063,0.442
		c-0.401,0.279-0.954,0.18-1.233-0.221c-0.277-0.402-0.18-0.954,0.222-1.233c0.094-0.065,2.317-1.583,4.724-0.636
		c1.961,0.771,3.573,0.705,4.791-0.198c0.312-0.231,0.619-0.498,0.914-0.756c1.18-1.028,2.791-2.434,4.705-0.633
		c1.015,0.955,1.266,3.102,0.609,5.22c-0.457,1.485-1.572,3.672-4.283,5.657c-2.656,1.946-6.289,3.292-10.795,4.002
		C84.694-38.609,84.534-38.63,84.393-38.686"/>
</g>
</svg>
