<?xml version="1.0" encoding="utf-8"?>
<!-- Generator: Adobe Illustrator 16.0.0, SVG Export Plug-In . SVG Version: 6.00 Build 0)  -->
<!DOCTYPE svg PUBLIC "-//W3C//DTD SVG 1.1//EN" "http://www.w3.org/Graphics/SVG/1.1/DTD/svg11.dtd" [
	<!ENTITY ns_extend "http://ns.adobe.com/Extensibility/1.0/">
	<!ENTITY ns_ai "http://ns.adobe.com/AdobeIllustrator/10.0/">
	<!ENTITY ns_graphs "http://ns.adobe.com/Graphs/1.0/">
	<!ENTITY ns_vars "http://ns.adobe.com/Variables/1.0/">
	<!ENTITY ns_imrep "http://ns.adobe.com/ImageReplacement/1.0/">
	<!ENTITY ns_sfw "http://ns.adobe.com/SaveForWeb/1.0/">
	<!ENTITY ns_custom "http://ns.adobe.com/GenericCustomNamespace/1.0/">
	<!ENTITY ns_adobe_xpath "http://ns.adobe.com/XPath/1.0/">
]>
<svg version="1.1" id="Layer_1" xmlns:x="&ns_extend;" xmlns:i="&ns_ai;" xmlns:graph="&ns_graphs;"
	 xmlns="http://www.w3.org/2000/svg" xmlns:xlink="http://www.w3.org/1999/xlink" x="0px" y="0px" width="595.279px"
	 height="841.89px" viewBox="0 0 595.279 841.89" enable-background="new 0 0 595.279 841.89" xml:space="preserve">
<metadata><?xpacket begin="﻿" id="W5M0MpCehiHzreSzNTczkc9d"?>
<x:xmpmeta xmlns:x="adobe:ns:meta/" x:xmptk="Adobe XMP Core 5.3-c011 66.145661, 2012/02/06-14:56:27        ">
   <rdf:RDF xmlns:rdf="http://www.w3.org/1999/02/22-rdf-syntax-ns#">
      <rdf:Description rdf:about=""
            xmlns:dc="http://purl.org/dc/elements/1.1/">
         <dc:format>image/svg+xml</dc:format>
         <dc:title>
            <rdf:Alt>
               <rdf:li xml:lang="x-default">Print</rdf:li>
            </rdf:Alt>
         </dc:title>
      </rdf:Description>
      <rdf:Description rdf:about=""
            xmlns:xmp="http://ns.adobe.com/xap/1.0/"
            xmlns:xmpGImg="http://ns.adobe.com/xap/1.0/g/img/">
         <xmp:MetadataDate>2018-09-05T11:32:55-03:00</xmp:MetadataDate>
         <xmp:ModifyDate>2018-09-05T11:32:55-03:00</xmp:ModifyDate>
         <xmp:CreateDate>2018-09-05T11:32:55-03:00</xmp:CreateDate>
         <xmp:CreatorTool>Adobe Illustrator CS6 (Macintosh)</xmp:CreatorTool>
         <xmp:Thumbnails>
            <rdf:Alt>
               <rdf:li rdf:parseType="Resource">
                  <xmpGImg:width>256</xmpGImg:width>
                  <xmpGImg:height>252</xmpGImg:height>
                  <xmpGImg:format>JPEG</xmpGImg:format>
                  <xmpGImg:image>/9j/4AAQSkZJRgABAgEASABIAAD/7QAsUGhvdG9zaG9wIDMuMAA4QklNA+0AAAAAABAASAAAAAEA&#xA;AQBIAAAAAQAB/+4ADkFkb2JlAGTAAAAAAf/bAIQABgQEBAUEBgUFBgkGBQYJCwgGBggLDAoKCwoK&#xA;DBAMDAwMDAwQDA4PEA8ODBMTFBQTExwbGxscHx8fHx8fHx8fHwEHBwcNDA0YEBAYGhURFRofHx8f&#xA;Hx8fHx8fHx8fHx8fHx8fHx8fHx8fHx8fHx8fHx8fHx8fHx8fHx8fHx8fHx8f/8AAEQgA/AEAAwER&#xA;AAIRAQMRAf/EAaIAAAAHAQEBAQEAAAAAAAAAAAQFAwIGAQAHCAkKCwEAAgIDAQEBAQEAAAAAAAAA&#xA;AQACAwQFBgcICQoLEAACAQMDAgQCBgcDBAIGAnMBAgMRBAAFIRIxQVEGE2EicYEUMpGhBxWxQiPB&#xA;UtHhMxZi8CRygvElQzRTkqKyY3PCNUQnk6OzNhdUZHTD0uIIJoMJChgZhJRFRqS0VtNVKBry4/PE&#xA;1OT0ZXWFlaW1xdXl9WZ2hpamtsbW5vY3R1dnd4eXp7fH1+f3OEhYaHiImKi4yNjo+Ck5SVlpeYmZ&#xA;qbnJ2en5KjpKWmp6ipqqusra6voRAAICAQIDBQUEBQYECAMDbQEAAhEDBCESMUEFURNhIgZxgZEy&#xA;obHwFMHR4SNCFVJicvEzJDRDghaSUyWiY7LCB3PSNeJEgxdUkwgJChgZJjZFGidkdFU38qOzwygp&#xA;0+PzhJSktMTU5PRldYWVpbXF1eX1RlZmdoaWprbG1ub2R1dnd4eXp7fH1+f3OEhYaHiImKi4yNjo&#xA;+DlJWWl5iZmpucnZ6fkqOkpaanqKmqq6ytrq+v/aAAwDAQACEQMRAD8A9U4q7FXYq7FXYq7FXyb+&#xA;YGsatqf58DV4bqWO20TXNL0a1CsV4iTkZVUg9GeKTkP8rfFk+ssWLsVdirsVdirsVdirsVdirsVd&#xA;irsVdirsVdirsVdirDvzJ/NHy95D02OfUOV1qN0Sun6XBQzTv09+KA9WP0VO2KvHL3zF+dXnBjPe&#xA;asPKOlybxWGngi5C9ucoIkDU/wAsf6ozZ4ezJy3l6fvdDq/aDFjNQHGfkEvP5dX5k9c+bNbN1T+/&#xA;+tNyrSnXr+OZX8kw7y63/RLl/mx+1HWesfnT5QIn0zXP8U6ehrLpupgvMyj+SVmaStPCQf6pzGzd&#xA;lziLieJ2Gl9ocUzWQcHnzD178s/za8v+e7SRLdWsNbtB/uQ0ec/voiDxLKaLzTltWlR3AzWEU78E&#xA;EWOTOMCXYq7FXYq7FXYq7FUj88+Ybny55P1jXba3F1cadayXEUBrxLINuXHfiOre2KvNvyS/PK78&#xA;2XB0PzSkNnrsyfWdLkiUxxXcBrUJVmHOMqeh3oe6tikh5Lbcbqwt/Mb0U6t+YiyFzQVRB6gJPhWZ&#xA;sUvr/Fi7FXYq7FXYq7FXYq7FXYq7FXYq7FXYq7FXYq7FUu8ya9Y+X9Bv9bv242mnwPPLTqQgqFWv&#xA;7TH4R74q+avKNpqHmXVbj8wPMn77VNSYtpsLVKWtsCQixg9Nvs+2/Vjm87N0gA8SXM8nke3u0iZe&#xA;DA+kfV5nu+DNs27zLsVdirDPOumahpN5b+efLZ+r69o59WbiPhntwKSLIBTl8Fa+K1Hhmr7R0olH&#xA;jH1B6LsLtEwmMUj6JcvI/t+99F+T/M9j5o8sab5gstrfUIRKEJqUf7MkZPijqVPyzQPZJxirsVdi&#xA;rsVdirsVYZ+bvne28m+R7zVJrNb95itnb2T19OWSeo4yU348AxI79O+KvkmWDzPpGj6PZ6jHFZLb&#xA;3Jl0XWI2ZbixnlIk9J3U/wByXBYihKmrKeqtjYdXDISIncOPg1uPLIxidw9N8z+Q9e8pf848aWdR&#xA;tlg1bRNbj1W8hDJJxDSvAgLpyXf1I+hOZLkvpWwvIL6xt72A8oLqJJom8UkUMp+44oV8VdirsVdi&#xA;rsVdirsVdirsVWT3EFvC01xIkMKCrySMFUD3JoBirGbn81Py1tpPTm80aWHHVVu4Wp7HixpitJpo&#xA;/mzytrR46PrFlqLUqUtbiKZgOu6ozEYqmuKuxVJvNvnDy95S0eTV9eu1tLNDxStWeSQgkRxoN2Y0&#xA;6D5nbFXzt+bv54L518o/oLStE1DT7DU7y3j/AEndoEikjVvUCDhyXkXVWpyOwywYpbGjRajngCQC&#xA;DKIur3ZbbW8NtbxW8KhIYUWONR0CoKAfcM62MQBQfMpzMiZHmWxcQGdoBIpnRQ7RBhzCsSAxXrQ0&#xA;w2LrqjgNXWyphQ7FVskaSI0bqGRwVZTuCDsQcBFpBINhF/8AOLt1JH5U1zQ3YuNH1eeKGtdo3Vdv&#xA;+DVj9OchkjwyI7i+oYp8cIy7wC9nyDN2KuxV2KuxV2KsH/OjyTc+cfy+1DSrIctSj4XenqSBymgN&#xA;eFT3dOSD3OKvmu/1RPMfkPUYZkMeq2Ef+nWzqVkjmgPJjxO4rwPy3GaCOE4NQP5pOzzkNOdNqo/z&#xA;ZHb4vUfN35n+TLz8g7Kw1PURLrOt6OkUFpEDLK13AoQs4X7C/WIure9K0zfvSM2/IfznpPmH8u9J&#xA;tre6WTUtItYrLULUkCWMwr6aFl68XVAVbv8AMHFBei4q7FXYq7FXYq7FXYq7FXln5kfnFc6XrC+U&#xA;PJdkNb84TD94nW3s1P7U5BX4qH7JYAdWPY4ms1uLTYzkynhgOv6B3lnGBkdmJxfk3qPmKZNS/MfX&#xA;7rXL4nl9Qhcw2cRPVUChf+ECZ5x2j7dZpEjTxEI/zpby+XIfa5kNMBzZHa/lF+WttH6cfl60Zaca&#xA;yq0rU/1pCzfTXOcye0WvmbOWfw2+5uGKPclmq/kP+XF8OdtYyaXdKax3NjM8bKR0IVy8f/C5maX2&#xA;u1+I7z4x3SF/bsftYywRKXR6v+bf5YMJp55POvk2PecSV+v2sS7swYlmKqvclloP2Oud52N7W4NW&#xA;RDJ+7ynv5H3Hv8j8LcXJpzHcPZfJ/nTy55v0dNW0G7W5tm+GRfsyRP3SVDurD8eoqM61xnh/52XV&#xA;nqP5yaRpmt3Ecei6Tpn12KGdlWJp5ZGBLciBvxTb/JzL0MYHIOLkHW9rZMkcB8MHiO23NjXnXzN+&#xA;X+pWtrb3etKBZ3cV2otAZyxiDDhVAygEMd65ttVnwyABlyN7bvN9naPV45GUcf1RMfVtzbk/NOW/&#xA;Bj8taDe6lKdlmdPThB8Sy89vnxxPaBl/dxMlHYghvmyRgPt/HzTDyT5X1ezvb7X9fkWTXNSAV449&#xA;0hiWlIwRt2HTwyzS4JRJnP65fY4/aOtxzjHFiH7qH2nvZfmc6l2KpH5p8pWPmOG3iu7m6thbOXQ2&#xA;sgjJJFPiDK6n22qMx9RpxlABJFdzm6LXz05JiIm+8JHpXkrzf5UllufJPmi4spJW9SW1ugskMrDo&#xA;ZBQoT7mMnNdk7J/my+bvcHtL0yQ2/o/qP62f+TPz/ni1OHy9+Ylimi6lKeNtq0Z/0Gc9ByJLenXx&#xA;5FfHjmqy4ZYzUg9HptVjzx4sZsPaQQRUdMqb3Yq7FXYq7FXkn5p/nVq/lnzRB5W8uaPHqmrGBbu5&#xA;e4k9ONI2Joiiq8mIFa8tvA5Xlyxxi5Gg15c0MceKRoPFPMHmU+ZPzA07VbTy7Poet3IaHzHbEh7S&#xA;4h2BnDcU3Kg1qKEhd69cTV5Mc8JNjy97h63LingJseXv6JbpVvaeQfNcl3qFibjR7n4bXUgpd7ap&#xA;JpTpXse5G47jM/sbtLHdy+r8bh12oMtdg4YSrIOcf534+Xf3p7q19oEGoJ5w8l+YrTSvMMJ5snrJ&#xA;GlyDuySxORu3fktD+14jcavHhyDjhKIl97T2Zn1WA+HlhMw76uvj1H4D238pPzz0DzzbpYXjR6d5&#xA;njFJrAuOE5Xq9qxPxjapX7Q9x8Wad6d6dirsVdirsVdirsVYF+dHn+byb5NknsBz1zUpBY6PEByb&#xA;15Qf3nHvwXcf5VB3yM5CIJJoBIFse/LLyBB5T0Xlc/6R5g1D9/rF+x5u8rnkU5mpKqT9Jqe+eIdv&#xA;9tT12cm/3UfpHl3+8/sdnix8I82YkgbnpmhbVM3dqDQzID/rD+uT4JdyLVFZWFVII8RvkSEuIrse&#xA;mBXhn5u/lnd6HDdeafJ8tzYWshDa/plhK8AeIEkyoE2AWp5LxIH2qdc9J9k/aYykNNqDd/TLr/VP&#xA;6D8O5wtRh2Jilvl38ufy/wBU0+31aNJ9RS6UOJLmdy/IbMH9MoOSkUOezYNDglESG9vn+s7Y1mOZ&#xA;gSIkdw/XbLLDyn5Y0+hs9LtonXpIIlL/APBkFvxzMhp8ceUQ6nLrs+T6pyPxTUAAUGwHQZe4reKu&#xA;xV2KuxV2Kpdr2gaZrumyWGoRCSFx8Lfto3Z0PZhlWbDHJHhk5Gl1U8ExOB3+/wB6afkJ521S11C7&#xA;/LbzFMZr7S4/V0S8brPZj/de/Uxggr1+Go/Zzls+E45mJfRNJqY58YyR6/YXtuVOQ7FXYq7FWAfm&#xA;b+VvkDzbLbah5hnfTL62X0oNTt547aXhXl6ZaRXRgCTSq1FduuAi15vnb809A8geS9f0jT/Jt5e6&#xA;x5kjuBLqMzXCztxJAjt/3UaqZJK0oBWnWtcryYhKBj3sMmITgY9CEB5n88eYraG50u50saXqdtNH&#xA;Ffx3IEwjSVeS8lK9+9QfvOa3H2bGM9zf2Oow9kQhk9UrHTolmh615V+uvZeZdGtrS8jco1xHHSLk&#xA;NqOi1C/MbfLJ6jT5oi8ciR3Nmq0ueIvFORHd1+aZ+c7XyPBoxvNLltrfVImR7F7Jx6hcMDsI2/4b&#xA;tlGinn8SpXw9bcfs/JqfFqXFw9be0/lT+edzJNaeVvzBT9G666ILDUpaLFdhgAokP2UlPj0Y7bNs&#xA;d9kxSgakKdzhzwyi4Gw9uyDa7FXYq7FXYq8O/MBv09/zkB5b0eX47Ly/p76m0ZIoLiRm4tT2KwnO&#xA;Z9rtUcOgnXOdR+fP7AXI08bkzfVNUSyjAA5TN9hOw9znjuHCZnyc8mmL32pSODLdzhYx1LEKg/UM&#xA;2mLD0iN2slQimhlXlFIsi+KkMPwycoGPMUhEQXNxbvzhcofbofmMrlAS5pBZJpWrJeLweiXC9V7M&#xA;PEZrc+Aw3HJsErR8kaSI0cih43BV0YVBB2IIPbKASDYZPmm6vJPyy/Ma90GYt/hm/dbm2B39GOb7&#xA;Mi+yMDG3iFrn0F7IdunPpozkf6Mv6w6/EUfi8p272SMwuP8AeR5eY7v1PUwQwDKag7gjoRnfPnpD&#xA;eFXYq7FXYq7FXYq7FWF+d7r/AA/5k8q+coSEl0zUI4LpxsWtpa81J8OAcf7LNR2tj9Il8Hp/ZrOe&#xA;OWPoRf4/HR9SZo3rXYq7FWJ/md+YFh5G8p3OtXAWW6P7nTrQnea5cHgu2/EU5N7DFID53g8mXnme&#xA;Vte89XM+o6vefH9XMjJHbo26xoqkcaV+yNh+OcL2l7S5PEMcBAiOvO/2PV6HsSHBeXeR6d37W/y6&#xA;8raR5V/PHy/G0f1mx1BJ/qPrEFoLgQtQ9g1D9k/5XiK5v+w+1Dq8Z4h64nf9DqO1dCNPMcP0yTT8&#xA;7fJHmTTvPWtaxbaJc61ovme2RK2kbSvDcxxqlHCByvxJyBI77dM2efCZmJBoxLotRgMzEg0Ym0ff&#xA;/wDOP+sap+Vvl+/W2SHz3pdsfrFrMF43UAkZobaYH4fUjh4Ipbw4nsVyQaLkSFimPeQdO8i6ohuY&#xA;dGhs9csH4XtnJzZoZVNOSpITQchttUHbqM3+ijhyDiEQJB4vtbJq8J4JTJxy5HlfkaZZ5j8s6T5h&#xA;09rLUYua7mKYbSRsf2kbt+o98zc+COSNSdTpNZk08+KB/UVLyP8Amrr/AOXt3B5c88vJf+WXIi0v&#xA;zCoZ3gH7Mc/VioH+yWm3IdOc1OlliO/Lve70HaOPUxuO0uo/HR9C2t1bXdtFdWsqT20yh4Zo2Do6&#xA;sKhlYVBBzFc9VxV2KuxV4bqNzDa/85MXau6k3mgLGgB3VldJKHbrxiJp4ZxvtzjMtECP4ckT9kh+&#xA;lytKfUwv8y/zP1RL3UbHy1Abi7sozNqV8FDx2kYIUChqvL4gDXYeBPTSdhdg4zGE9QeGMzUY8jM/&#xA;q/HvsyZD0Zd5Q/5x28r+YNB03X/M+sajrd3qlrDeAGX0YkFxGsgVVo77Bqfa+gZ6Ng02PEKhERHk&#xA;HDMiWBfm3+RFz5B9PzL5avLx9BRgt6yv/pdpzNFcMnp846kDsQdid6iWfEJxIIEvI8lBTnyHfecj&#xA;KLXVWj1TSJIBPYa7EQC6mnFHXZuVPEVFNyc8x7Yw6SuLFePKJVLGenmPx8nMgT1ZxFK8UiyRni6m&#xA;qnOekARRbWYWN2l1bJMuxOzDwYdRmoyQ4ZU2g28l/OfyzY6x578k21yn7vV3udLnlH2lEgRYXG+5&#xA;jeZnHuM9G9gMxrLD+qfvB+4OJqhyKXfltf336LutB1McdV8vXD6fcqdzSMlU+7iVH+rntHZubjx0&#xA;ecXznt7SDFn4h9M9/j1/X8WX5sHSLXdEXk7BVHUk0GBQLUoLy2ndkicOU+1SvfAJAspQI5q+SYux&#xA;V2KuxVgv5ymvk70hvJPdQxxL3ZjU0H0DNd2mf3Xxd57PC9T/AJpfVWc69w7FWmZUUu5CqoqzHYAD&#xA;qScVfL2va+/5l/mJJrFS3lPy47W+jRn7E84ILz/7IgN8uA8c5n2k7S8HH4UT658/KP7eXzd72Jof&#xA;En4kvpj9/wCxP7m5t7W3kubmRYoIlLySOaKqjqSc4DHjlOQjEWS9dOYiCSaAUfyW0HUPOXnsefbm&#xA;F7fy9oqSW+hhxQ3E7hkeSn8qhmr70HZs9P7H7N/KYeE/XLc/q+Dw3aet/MZLH0jk+ic2zrXYq8Z/&#xA;OX8q9Sk1BPPnkuEDzFaKTqWnoNr6EDf4RTlIANx1YdPiArZhyyxy4g0anTQzQMJ8ixXyr500jzFB&#xA;SFvq+oRVF1p8vwzRsuzbGnJa9x9NDtnS6fVQyjbn3PBa7s3JppeoXHoen7E4v7Cy1C0ls72FZ7aY&#xA;cZInFQR/n3y+cBIUdw4WLLLHISiakGM6B5j81flHd1t/V1ryDK5a4sWNZ7Lmd3iJ6Cu/8p70PxZz&#xA;+s0Jx+qO8fue37M7YjqPRP05PsPu/U+ivLXmfQ/M2jwaxol0l3Yzj4ZE6qw6o6ndXWu6nfNe7pNM&#xA;Vdir468/XnmNfzF84fmDpjB/8O6rHpkgpyCRvDLacm8F/chP9ZsxNdo4anEcU/plX2G/0NkJcJtN&#xA;dN/Jj82IvIP17y9dQalF5ttIp9W0uYJFcD1f3kbLLMQpIVqmrruehyrP2ZhyzxzI9WL6a6eVclGQ&#xA;ix3vpryhpM2j+U9E0icgz6dYWtpKRuC8EKxtT6VzYNaPv7Gz1CxuLG9iWe0uo2huIX3V43BVlPzB&#xA;xV8zrZ3f5X+b5PKOrOx8s6i7TeXNTk+yoY1aF2O1QWAbwO/RtuP9puxTlHj4x6x9Q7x3+8fd7nJw&#xA;5K2LOc88cpOPLl1xne3J+GQcl/1l/szD1cLF9zKJYrrbDzD+fXlDRLf94nl2ObVNQZdxGXUNGG9+&#xA;UcX/AAYz0P2D0koYJ5TyySAHuje/zNfBxdVLekj82CLQPz48wIEK22r2MF8EX/foCITv4sHPzOen&#xA;dl5OGZHeHlvaHDx4YkcxL7wq3GvXL1EKiIeP2m/HbN0cpeVjpwOaXSzzStylcufc1ysm24RA5IzQ&#xA;2K36gdGVgfur/DJ4+bVnHpR19qs1retGAHioCVOxFfA5OU6LVjwiUbVYdcsnHxloz7io+8VwjIGJ&#xA;wSCv+lLClfWX8cPGGHhS7kPPrtmgPpVlbtQUH3nAcgZxwSPNi+n29153/Nby/oA+Oy0uYapqgX7C&#xA;JAQ6q3+tsn+zGaPtLPxER7nr+wdIIQOT+dsH1Vmsd+7FXjn/ADkN54u7bT7byJob113zGClwymhh&#xA;sTUSM1OnqUZf9UN7ZRqdRHDjOSX0xbtPhllmIx5liWladp3l/RIrSNlitLOMmSZ6KNvieRj7mpOe&#xA;U6jPk1OYyO8pnl9wD6BhxQwYxEbRiPwUt8q+VtV/NvWlJEln+X+mzA3Vwao99Ihr6cfQ0/4iN/tU&#xA;A7zsTsUaYcc98p/2Pl7+8/g8l2p2mcx4Y/QPtfTWn6fY6dYwWFhAltZ2yCK3t4gFREUUAAGdC6ZE&#xA;Yq7FXYqwDzz+R/kTzfdnUbmCTTtYJr+k9PYQzM3YuCGRz/lFeXviDSkWKLyzzr+WnnH8uLeHzLpG&#xA;sXvmXRrb4dZsLtizxW/X1U+JhRe5A+HqarWmXg1uSErJJDrdX2VhzQMRERl0IFbpppOq6drWmRX1&#xA;m4mtLhehptXZkcdiOhGdJjyRyRsci8HnwTwzMZbSDGk07zL5B1iTzJ5EJe2lIbVfLrVMM6Dc+mo6&#xA;MN+NNx+zt8OanWdnfxY/l+p6bsvty6x5j7pfr/X83u35dfmb5a896V9c0qX0ryIAX2mSkCeB+nxD&#xA;9pSfsuNj7GoGmeoZbir5a0vSfzBu/Pf5k6P5d1SxtbOXVZZdRstRt47mOUXMsrxMqSRTqaDrUU6Z&#xA;ou2u3sfZ/BxxlLjvlXSu/wB7djxGaCGsfmXqH5mnyHq3ny7tSi0W709Vt0MnoicRKsJg4/CxHzFK&#xA;ZjZu35fyf+chjv8Aok8hxcN8u/7GQwjj4VW0uNcspdXuPJ3nTWJvMflt5Gv9F1p+SXUNuT6jxxF3&#xA;V12NK/F/q1BzGw9v6nHLEdRCHg5q4ZwJPCTyEr+39NFJxRN1zD6N/L/zdb+b/J+meYYUEX16Ks0I&#xA;NfTlRjHKlfAOpp7Z17jIf8xfL3kzzD5dl0rzXLBb2UvxQ3MskcLwygfDJE77Bl+4jY1GKvBYbb8w&#xA;fKkrWOmG38/6DFUWlzpk6S3iIBsjxRmWT4R24sP8rtnMdpezGHUSM4Hw5nntYPwb4ZiOaPg1z82t&#xA;SuEt/Lvke+srs9LzVUa3ijr+1SURK1B/lfQc1uD2MiT+9nce6Ir7f2MzqO56n+U35XN5Ot73UdWu&#xA;xqfmvWG9TVdR3K9SRFFUA8ATUmgr4AAAdpgwwxQEIDhjEUA40pWXlH5rXCT/AJ7XSJubTR4YpfZm&#xA;kEgH/AyDNn2f/eH3On7bP7kf1v0FB5uXlVsssUUbSSuscairOxAAHuTgJrmyjEk0OaV23n3yza3y&#xA;BNQiMoJHRjHvtu4HH8cpGsxg83Kl2XnlH6TX46c05mne4laZzVn3qOntTMgm93CjHhFLMCXYqkWr&#xA;+YZReRaLocJ1LzDdsIraziHPi7d3p0p1p99BmHqdWIChvJ2mg7NlmPFLaH3+575+TP5WjyPoks2o&#xA;SC58y6qRNq1114ncrCh/lQsan9o79KU0pJJsvWRiAAByD0TAlLPM3mLTPLmg32uanJ6dlYRNLKRT&#xA;k1NlRa0qztRVHicVfMvleS+1nUdT/MDzCVjvdXLPAHPwW9mo+EAmlF4qBX+UV7nOD9pO0DmyDBDc&#xA;RO/nLu+H3vXdi6MY4HLLmeXkP2/ciPL3l7Wfzb1lrS0aSw8iWEgGo6iBxe7dd/Sir/tKPibfiubj&#xA;sTsQaceJk3yn/Y/t7z8B563tTtQ5jwQ+j7/2PpnRtH0zRdLttK0u3S10+zQR28CdFUfPcknck7k7&#xA;nOkdGjMVdirsVdirsVakjSRGjkUPG4KujCoIOxBBxV82/mD5Mvfys12TzHokLT+RdSlH6SsEpWym&#xA;c0DIP5D+z/wJ/ZOZmj1ZxS/onm63tPs2Oph3THI/oTyyvbS+tIru0lWa2mUPFKhqGBzpYyEhY5PA&#xA;ZMcoSMZCiGN65+W2gatqD6gJLnT7qVeFw9jIsXqioPxgq9en098w8+gx5DZsHydnpO2s+CHCKkPP&#xA;p9oQ0X5f6vptH0DzdrGnzKBx5XBdNugKp6QI9sx59kw6E/j5Ofj9pcgPrhE+6x+tB+SNc8z6B+cd&#xA;fNsyTzeZoVtDqCKFjnlQKsD0QKA5KBGFOrVPWuefe3PZE5aQmvVjPF/m/wAX6/g9Z2V2hjzjih7i&#xA;O5Us/IGs+cvNXnzX/L84TzR5f1m3bSeTcUf0DMkkRLfDVvTSnLb4adDl3Y+jhPs3HimLjPHv/nb/&#xA;AKXKySqZKZ3fnSw03zFbeYfPvkHUNI120jaAarAjyW7h0MTFqmKNxwZlFS9AflnN6j2V1uPDLBgz&#xA;CWGRvhlsdjexo9a5cNtwzxJsjdN/+ccNYi1Hy35x8naRqLQfV5ppdDv6H1I4btGjSVUahrE6ByD3&#xA;bO80xmccTkFToX7+riSq2D+XPJ/lW284X3l/82EuX8zs/K1v7y7l+q3cbbIyTAxvvSoLPv02Ycc5&#xA;n2lzdpYR4mmI8Mc6iDIee92PcNvtb8Igdi9F1D/nH/8ALm4j5afbXGk3S/FFdWlxKWVuxpK0o29q&#xA;Zw2n9stfjlcpCY7jEf72i5J08ShNJ/MXzf8Alfr9noHnq/8A055XvjwsNdY/6VBQ0/fKSzsq/tcq&#xA;mm6sacc9I7D7dx9oQJiDGcecf1Hr97h5cRiXvs00UELzTOI4olLyOxoFVRUkn2Gb1pfIunas/mXz&#xA;Z5k83ty9LVLspZcq1+rwjhHWv+QFH0Ztezsexk8725muUYDpuhtf876ZpZe3gBvb9Qf3EW4Wgqeb&#xA;CtKeHXL82rjDYbycLSdmTy7n0w7z+hKtL0W+80wxaprd5zsZKtBp9uSsYoSPjPjUfP3ynHilmHFM&#xA;7dwcvPqYaUnHij6usj+Px3Mog8v6FBGiRafbqqEFT6ak1G4PIgmuZgwQHIB1ctXlkbMpfNMMtcZj&#xA;2ojzz9dl+oGxNmT+5EnPmBT9qnfMWfjX6eGnY4fynCOPj4uqX3GjecLmB5NX1pLS0jUvKlopB4qK&#xA;tVqIenucqliykeqVDyciGp00TWPHxS/pfgvZP+cU/KlnZ+SZ/MUtqn1/VLuYW126gy/VIuMYQORW&#xA;nqq9adfozTvUvcMUOxV87/nn5il82edIPIlvIYtC0TjfeYpq8FeQqHjjLeCo3j1JP7GavtfX/lsN&#xA;j+8ltEef7P2Ow7O0njZKP0jc+5jugeXtW/NXXBpWmF7LyJprqup6gg4euUofRh8TToOij4m/ZGYH&#xA;YnY3gjxcu+U/7H9ve5nanafifu8f92Pt/Y+ndF0XS9E0u20rSrZLTT7RBHBBGKBQPxJJ3JO5O5zo&#xA;3Ro3FXYq7FXYq7FXYq7FVG9srS+s5rO8hS4tLhGingkAZHRhRlYHqCMVfM/mXy7f/lF5iEf7y5/L&#xA;/VpT9UuGLSNYzHcxuadPD+Zd/tBq7DQ6zwzwy+k/Y6btfssaiPHD+8H2+X6mSHU9OE1tB9Zi9a8U&#xA;vaR8xWVVAYlP5qA12zoPEjYF8+TxHgzomjUefl70Vk2t5r+Z97+mL608saNbNd6/DIt0s8bBPqoU&#xA;VqXNKEjfqO3emajtKs37kDik9J2JA4AdROXDj5e/8frTP8jPzk8t+Vl81N5xuZLbUtRvhecEgkcy&#xA;Svz9ZQEUqhVv5iOuc9gwRwwjjjygBEfDZ7Hi4tx1Zpf/AJzef/OKmz/Lvy5LZ2c1VbzBq6hI1U7c&#xA;o4/iQkfN/wDVzV9odv6TSA+JMcX82O8vl0+NNkMMpMY8o+Xr38sfzc8t3F7fm+j81xz2Op3RUIn1&#xA;qVw4VAOgMvpUr13+QxfZ/t8doeJ6eHgIof0T+0H7GWbFw09784+RPKvnHThYeYLBLuJCTBLuksTH&#xA;qY5Foy9NxWh71zo2h5wP+ccZLMiHRfPOvabp6mq2izkhRTopjaJR/wADmDl7M0uSXFPFjlLvMYk/&#xA;czGSQ6p35T/5x/8AIeg6guq3a3Gv6urB1vdUkE/FwahljoqVHYsGI7HMvHijAcMQIjuGzEyJYb/z&#xA;kr+bdtYWEnkbSbimoXwC6zcJv9XtmFfS2/blHUfy/wCtkwjo8nm8sfmPdeQptZ0vS5tN8qadCrB3&#xA;PC6uYiQHlRacinxc2IHGldzmVPVHh4Y7RcDF2fHjOTJ6pn5BM/Kmm+XI9LWbSkWSOdaTSvRpWr9p&#xA;ZD29x0zaabHj4bj1ed1+bOclZNq5d3wSfS7v/CesSaPfNx0m7Yy6dcsfhQk7ox7Dx+/vlGOXgz4J&#xA;fSeTmZ8f5vGMsP7yO0h+Px8mbAgio3B6HNg6RvFDsVSCe11TzprsPkry4PUmuGB1W9AJitrdSOZd&#xA;h4d/+B6nNZrdSK4I/F6DsnQG/FmPd+t9Z+X9DsNB0Sx0bT04WWnwpBAD14oKcmPdm6k9zmrehR+K&#xA;uxV5L52/5x40jzR5svNd/Td7p0GqCL9K2FuFKzGJQg4uT8NVUbMrb75XLFGRBIBMeXl7myOWUQQD&#xA;seb0rQNA0jQNIttI0i2S00+0ThDCn3kkndmY7sx3JyxrYt+Zf5ueXPItssU1dQ165FLHRbc1mkLb&#xA;Kz05emhO1SKn9kHFIBLyw3/55eYq6hqXmZPLED1eLTbOBHMSdg7Eq3/BSN9GTGN2mLsyRFyPCw+9&#xA;/OD8xPLWpC30nzqPNMiv+9tJLNZENOo9Qcif+ecmRIcTNgjE1GXEfc9J8pf85O2bvBa+edFuPL80&#xA;tFXUFSRrVm7ko6+pGPlz9zgaJY5R5h7ZY31lf2kV5Yzx3VpOoeG4hYPG6nurLUEYsFfFXYq7FXYq&#xA;gNe0LSte0i60jVrdbrT7xDHPC3cdQQRuGUioI3B3xV8j6v5M1jyp+bOjeVPrq39lp8jXmnTijSpa&#xA;TAsYpqfYI9I7e9R9oZm6OUpZIR/ml1faePHDBln1mB8+nx/U9VkcpGzgcioJCjqaDpnSkvARFmnh&#xA;vlC/13V/rGmaApPmHXp2l1XVW+EW8DNQIrHoSSTX3AG/TnsGSUgRH65byPcHuNZgxwlGWT+7xgCE&#xA;f50vx+3Zl3mL8pr3yjJZXWiStaa7pwBeWUrIszMOXxj40o1fl2OR1vZGDU4OEeqJ5+f6nHwds5sW&#xA;cxzCvLu/WzTyl+fGkXDrpnnCE6BrC0VpHB+qSn+ZX34V/wAr4f8AKzxjtn2J1OmkThByQ7v4h8P4&#xA;vh8nsNPrYZY2Cmf5v6JL5m8jC/0CQXV/pU0epadLbMJC5iryEZXlyPElgB1IGYHsxrvyWtAy+iM/&#xA;TK9q7r7t/sbs0eKOz0b8uPzB0bzx5attWsJUFyUUahZBgXt56fEjL1pUHiT1GezusTnW/MWg6Fam&#xA;71nULfTrcVpJcyLGDTsvIjkfYYq8c8xfnT5p843T+Xvyl0ya7aQmK48yzRmOCEUqxj9QBUNKfFJv&#xA;2VCaHFNJp+XH/OOnl7y/Ous+ZpB5i8xu3rSTT1e3jlJ5FkR95G5H7cnzAU4rb11443jaN1DRsCrI&#xA;wBUqRQgg9sUPIdf/AOcZfJ15qUmoaHf3vlx5yWmt7Fx6G+/wIaMm56BuPgBkozMeRphPHGe0gD71&#xA;+i/84x/l9arcPrMl5r93cI0f1i7lK+mG/ajEfE8h4sWwGRO5ZRiIioigw3WfyA/MPy5Kx8m6lDrW&#xA;kg/utN1AiKeMdlV/hjb58k/1cvxaqcNhycPU9n4s25FS7wkLeXvznSUQP5JkMpB+JbiIx7V/bDFe&#xA;382ZX8onudf/ACFH+efkm+lfkl+bnmKVU166tvLOmN/fRQMLi6ZfAemzLv4+oPkcoyayctuQczT9&#xA;l4cZuuI+b3HyH+XnljyPpP6O0O34GSjXV3IQ087jo0j0HSuwFAOwzEdiyXFXYq8Q1/8A5ys8p6Zr&#xA;F1Y2+k3l9a2srW/19GjSOR4zR/TBJqvgSd/AYp4W7b/nLb8u5UPqabq6SBSSoht3BPgCJ/1gYrSR&#xA;69/zkL5t8wpJZ+UNPi8vWrbSa5rMsUbop/aSJvgB/wCD+WEBvx6eUvL37MM03XfInlm9e+N5P5w8&#xA;5XZJkvIw07tIwoQjtUD5gs30bZMUHY4pYcPL1z8k0OgefvPDhvMUp8v+Xia/om3P+kSr4Ssf+Nv+&#xA;A74aJ5t/hZc31+mHd1/H4pNbjzF+W/kC2Nhb+lHcLQPaWiiW5cj/AH61ftf8ZGGGwGw5cOAUPs5p&#xA;XfeevMWtWrxL5Cub3SpftrdtwLr2IRoz9BBODiJ6NctTOY/uyY+bIvyblvfKn5pSeULSST9Aaxp3&#xA;6Tj06Z+ZtJwSCqmpFfhYGnUU3NMhIUXV6zCMc6HUW+hsi4bsVdirsVYh+af5g2fkXylcavIomvpD&#xA;9X0y0Nf3ty4PEGm/FaFm9h4kYq8U8leXb+2Nz5g16Q3PmbWD619PJ9pA24iHYU2rTboOgGdJodJ4&#xA;UbP1F4TtntL8xPhj/dx+09/6kq8w+Zdb8w6x/hLyZWS5ZvT1DUk3SEMeJRGH7XuN67Lv0q1OplMm&#xA;GP4y7nI0HZ8McRmzjn9EOsj7vx5sr8u+T7PylZ/oyCIx3CEG6lcUlkkp9pv4DtmXpcUIQ9O4PXvd&#xA;b2jqcuXKTk2I6dyaXbPeBxcu0xccWZyWNPmcvEABQGzhyyyMuIkksI1jRrOcvaX9ulwin4Q6g9f2&#xA;lPb6MxMmIHaQt2eDUSj6oGkv/JT8sNG85TeY5rXXb3RZ7C5VLKDT5uDCFufxyBgXYGgAIbxzltVp&#xA;sWUkSjGUfMX973mCUxCNn1VuzuD/AJxPtre+lvIPN+oRTyklpo4wsp5GrcpBJVuRwxiIgAbAM7ZP&#xA;o3/ONv5c2dyt5qovPMF6KEy6lOzqSP8AIjEYI9n5ZJbem2Gn2GnWkdnYW0VpaRCkVvAixxqPBVUA&#xA;DFCIxV2KuxV2KuxV2KuxV2KuxV2KvlKzs/MH5bW975Z8y+WLrU9EjneW31W0gFxbyxv3fl8ANB0Z&#xA;gR4ZOMqdnpdbGEeGQsJa+qf84/6o3K5tBZSN+yIrmChPtb/AKfdhuLkcellzFfP9C+DTf+cfIwZj&#xA;PHIFP2ZJbutf9UEE/djUVENJ+LTW1/MP8sNE/wBG8s2Ju72X4Eg0+1YSSN2Uu6ozfjh4gGz83gxj&#xA;0j5BPtO8jfnF58IfUGHkny7Jv6Qq9/Kh7FQVZfA8uH+q2QMyXAz9oTnsNgnl9/ziv5Vihtp/Lmr3&#xA;+ka1aj4NQZlnEj/zSIBHQ9vgYCnY5FwozMTY5pVL5H/5yI0oi2gfSNeiJCpeOxikUeLLW3G3fZsn&#xA;xlzodp5AOhZj+U/5Tav5e1e981+a7+PUfNGoRCACEH0LaGoJRCQtSeK7hRSnepJiTbhZcspmzzeo&#xA;4Gt2KuxV2Kvnz832fWfzt0TSbr4tP0bTTfwwE1DTySsC1P8AYR/8Dmb2fjEsovpu6ntvOcemNfxb&#xA;MU81+YdW1vV38oeWW4TAf7ltTH2YIzsyKR+12NN+3iRtNRmlkl4WP4nuef0Okx4cf5jPy/hj3/j9&#xA;rKvKvl7T/LNhDaaYCjRkSPcf7seUftsR38PDMvDp4Qhwjl97rdVrsmbJ4hO45eXuTi4uJ7mZpp5G&#xA;llenJ2NSaCm5y2MBEUNg42TJKcuKRslTyTBIvOMMy6HeXtshe6toJHjVRVmopIG3gd8x9TfASOYD&#xA;maAg5Yxl9JIeeeVdP82eRYNL86aRBIt5aIzavZOContZGLMjqd9kpXbagbquaPJopDEJVv1eww9r&#xA;QlqJYyRwk+k+f7X1z5S806R5q8v2eu6TL6lneJyAP2kcbPG47MjbHMB3Cb4q7FXYq7FXYq7FXYq7&#xA;FXYq7FXYq7FXYqgdQ0HQ9RNdQ061vCepuIY5en+up8MVSpvy1/LlnLt5V0cuTUsbC1JJO9a+niqb&#xA;6domjaYCNNsLayDbMLeJIge/7AXFUZirGvNn5k+RvKRVPMGsQWUzDktt8Us5U7BvRiDyUPjxpiqQ&#xA;6L/zkB+U2r3iWcGupBPIaR/W4pbdCf8AjJIqxj6WxTT0MEEVHTFDsVdirsVdir5c/P7zDLoP5uz3&#xA;lupa8k0KK3s1Ar+9lnYKab/ZFWp3pTMjTZvDJI51s4eu0ozxjE/TxAn3C08/K7RbbylpR+u2kd/q&#xA;F8hk1BpaE+s++zEN9gVH3nN3i0ZjjAvhldk/oeS1PasZ5jIxE8YHDEHp5pvmwdI7FXYq7FWiAQQR&#xA;UHYg4FYr5V16f8qfOkdWP+BPMMwjuoj9myuW2WRfAePinuozndfpPDlY+kvd9jdpfmIcMv7yP2jv&#xA;/W+mwQQCDUHcEZr3cuxV2KuxV2KuxV2KuxV2KuxV2KuxV2KuxV2KuxVi35pebJ/KXkDWdftlDXVn&#xA;CBbchVRNNIsMbEdwryAkYqw/8p/yf0C30e28zeZYE17zVrMaX13e3wFwIzOodUjV6qCoIq1K16Gl&#xA;BiklMfzp0X8uofy/1W78wWFrGIrd0sJkjjS4FyVpCkDgcgxYDbpTrtXFQmf5LHXG/K3y62ts76g1&#xA;tUtJXn6JkY2/Ku9fQ4dcVLNcUOxV2KuxV84/mvpFtrv/ADkZoNnbGOeaHTYpJoQ619eKS4dEapor&#xA;U4NQ023zJ0fD4gMuQ3cDtMz8CUYfVL0/NLvPGt6/5S80Wdxeivlx/wDRNQiVVZoZ+TfvSwBPQjoa&#xA;EA96Zuc2pMJRnzxH8W8tpez4Zcc8RFaiJsb8/LuZZDNFNEk0LrJFIoaORSCrKRUEEdQc2AIIsOkl&#xA;Eg0ea/Ch2KuxV2KpB5802LUfJ+rW8i8itu80fiJIR6iU+laZjauAlikPJzuzMxx6iBH84D57PXfy&#xA;c1afVvyv8t3twxeY2aRO7dWMBMPI/P065yr6MWZYq7FXYq7FXYq7FXYq7FXYq7FXYq7FXYq7FXYq&#xA;lXmry3p3mby7f6DqIb6nqERikZDRlPVXWtRyRgGFe4xV5Npfln/nI7yrYw6BouoaPq2kWoMVheXg&#xA;dZo4V2RXXb7I2A+OnStMUo/SPyP1jWdah1780Nc/xHd2x5WukQgpp8R/1SE5j24LWnxcsVt6+AAK&#xA;Dpih2KuxV2KvGfzf/NbVl1U+Q/JDj/EEqg6pqgPw2MRpUKf9+UIqf2ainxH4bcOGWSXDFo1Ophgg&#xA;ZzO33+TxryjpNlYfmdbJpFzPfzafBM2s6mxO904cE8q7HkQOta9zvmy0+CEc4jH1UPV73Qa3V5J6&#xA;Qzn6DKQ4B1rZ6pqdla6pazWuoRi5guBxmSTfkPn1r4HNzLHGUeEjZ5bHnnCYmD6h1efwaf528kSP&#xA;FpcDeYPLhYtFaVpcwVNaLQEn6AQfBc1whlwbRHHDu6h3ssum1ouZ8LN3/wAJ/H4tFr+b+hwuI9U0&#xA;/UNNcmhM0Pwjavjy/wCFyY7SgPqEo/BpPYOU7wlCfuLJtC81aBryu2lXi3JiAMiUZHUHpVXCntmX&#xA;i1EMn0m3W6nRZcH95GrRmqXU1ppl5dQoJZreCSWOMmgZkQsFJHiRk8kiIkjoGnBATnGJ2BICA8oa&#xA;62veXLLVXRY5LhW9VErxDo5RqV3pVcr02XxMYl3t+v03gZpYxyH9qr5qEreWNYWIEymyuRGB15ek&#xA;1KfTh1H93Kv5p+5joq8eF8uOP3vRPyBkt3/KDy2YGLIIZVYns63EgcfQ1c5J9ML0DFDsVdirsVdi&#xA;rsVdirsVdirsVdirsVdirsVdirsVdirsVSvzJ5n0Hy1pUmra7eJY6fGyo0zhm+JzRVVUDMxPgBir&#xA;CJv+ckPybjVqa8ZGU04JaXlTvTYmEL+OKaQM3/OUH5SRsAl7dTAivJLWUAe3xhcVpJ9d/wCcqPKT&#xA;aLd/4esdRn1Z42TTzLbqIfWYcUZyJCSobegG/TCIksTIDmXkyprGkWFvoen87rz35sf19QuGqZol&#xA;lJJ5HduQq308j4ZtgDhgIR/vJ8/IPOGQ1WU5Z/3GLaI/nH9N/qHe9D8r+U7Tyvpa6ZChEwPK7lcc&#xA;XklI3ZgensOwzaabDHHCo7+fe852hq8mfKZT27h3JvmQ4TsVWsiupVwGU7FSKg4KUGkLBp2kacZr&#xA;mC2t7MuOVxOiJFULvV2AFae+QEIxsgANssuTJUSZS7hZPyYwmq+Z/Pmpy+XvIUPK3X4NS8wSgi3h&#xA;RtjwJBqT2pUnsKfFmp1faP8ADD5/qen7M7Cqp5vhH9f6lL8qY5rHTNV0K4NbjRtSuLVx0+yQOnb4&#xA;w2X9lTvGR3Fw/aPHWcS/nR+5mzojoyOOSMCrA9wdjmyIefBo2EX/AM4vXrxeV9c8tzNym0HVZolH&#xA;hFKBx++RJDnIZIcMiO4vqGLJxwjMfxAF7PkGx2KuxV2KuxV2KuxV2KuxV2KuxV2KuxV2KuxV2Kux&#xA;VD3+o6fp1s11qF1FZ2yfbnnkWKMd92cgDFXxl+fn5rv558yix02Qny5pTtHYhagTyn4XuCO/Lole&#xA;i+BY4CyAZP8AlTLpmpeVkhnsoBfac5trkNEgc8d0ZqiteOxr3BzoezZwyYhsNvwHh+3I5MWckSlw&#xA;y3G5+LOo4IIzyjjVD0qoANPozZAAOiMyeZW3l1DaWk93OeMNvG0sreCopZvwGCUhEEnonHAzkIjm&#xA;TTCvypt7u4ubvzxd7anqM5Nkx+L0oYmooWv+UlPkozXaPF4glkn/AB/c77tXUeCYYMZoYqP+dz/b&#xA;8XoN5eXF5cvc3L855DV3oFqQKdFAHbNhjxiA4RydHmzSySM5G5FRybW7FXYqwjzRpsvmH8wfK/lO&#xA;6u5o9E1Zm+uW1qQsp9OrcmY1+GgHUbUJzS9q5JAiN7F6z2bwwMZTI9QPP9T6X0Dy9ovl7SoNK0a0&#xA;jsrC3FI4IxQV7sxNWZj3ZjU980z1D56ltv0R+d3nXSwCI7/0dTir0PqKryEf89JyPozbdkz9Uo+T&#xA;zXtLivHCfcSPn/YyXN68gl35P3Z0n87PMWkk8LfXdPjvol/mlgYD/jeU5zPaEOHMfPd7/sTLx6WP&#xA;9Gx+Pg+gcwnauxV2KuxV2KuxV2KuxV2KuxV2KuxV2KuxV2KoDXde0jQdKuNW1e6Sz0+1XlNPIdh2&#xA;AAFSzE7ADcnpirxm4/NP8z/Pkjxfl/pyaHoFeI8xakoMsgBoTDGQ6/cr/wCsuaHtX2j0ui9MzxZP&#xA;5sdz8eg+/wAm7HhMlK1/IvTL64W+856zf+aNQ/aNzM6Qj2VQxkA/2dPbOD13txqsm2IRxx/00vt2&#xA;+xyo6aI5s30Tyh5X0NFXSNKtbIqKepFEokP+tJTm30nOX1XaOo1B/ezlL3nb5cm+MAOQeP8AnFrb&#xA;yP8AmvPqFy31fQvNFv60klDwS6h2c0UEnfc/8ZM9i/4HnbAlpvDmf7v0/DnH9Mfg8z7RdnyzQBgL&#xA;kDY/T+tdP+bfkOKoGotKRWoSGbt7lAM9FPaOEdfsLyMewtUf4a+I/WkvmH81PLeqaFqOn2MN7PNd&#xA;W8sMbRwjiGeMgFiWrxr126ZiantTDwGN8w5+j7B1EMsZnhqMgef7GYflm+j3H5Y6TcR3LfpFOUMl&#xA;qVPELG7qTypTsD1zI0GSZjEV6K5+bjds4cUckzxfvOLlXSu9O82LonYq7FWIat5Z87XGpT3On+aG&#xA;tbWZqx2rW6MIwBTiDXf50zCyYMpkTGdD3O2wazTRgIzw8Uh14uaQ/UNW8heb/LvnfUdWk1UwXq2+&#xA;pTSJQR20yGN+C8m6RtJ9NM1eu0soATlLiL0PZHaOPLI44QEABY/T+h9eKysoZSCpFQRuCDmtd68B&#xA;/Oi1Ol/nL5W1gfBDrFlNp8p7M8LFh9NZox9GZnZ8+HMPPZ1fbWLj0svLf5fsR+dO+fsWv7v9Cfmz&#xA;5H14HjHNctply3YJc/ul5e375j9GaTtaG8ZfB6z2Zy+mcPcfx9j6ZzTvUOxV2KuxV2KuxV2KuxV2&#xA;KuxV2KuxV2KuxVB6xrGm6Npdzqup3C2thZoZbid+iqPluSegA3J2GKvAbePWfzm1xNd1tHsvIGny&#xA;n9D6QSQ126HiZZqdfAnt9lf2mzivaj2m/Kg4MJ/fHmf5v/HvucrBhvc8nrcMMUMSQwoscUahY40A&#xA;VVUCgAA2AGeTSkZGzuXPUr++tdPsbi+u3EdraxPNPIeipGpZj9AGTxYpZJiERcpGh7ygmnmHlnTv&#xA;zZ/M+2l8xWmvDyj5dkd00i2ihE80qxkrzc1jNOQpXl1BotOvsHZ/sho8OMDJHxJ9Sb+wd32uvnqJ&#xA;E7JXBLrknmy78lfmFBa6rqenRi70++aJHjmgag5qrKFVt+wHcHpvqO2uyB2fEZdKZY4yNSAJ+G/O&#xA;ve2Y8nHsWSwaNo8H9xY28X+pEi9fkM5aeqyy+qcj8S3cIVL+8trGwuLu5IS2to2klPYIi1P4ZDDi&#xA;lkmIR+qRpSaeRfkrr0ls0ug3oMQvAb3TS4oHG6SBa9v3dRTwbPofsvLXoPXcPCe0WmEqyx34fTL9&#xA;H3/c9bzdPKOxV2KuxVJPOujjWPK2pWAXlI8LPAP+LY/jT72UDMfVYuPGQ5vZ2o8LPGXS9/cdi9Q/&#xA;I/zKfMP5X6FeO3K4t4PqVzU1PO1Po1b3ZVVvpzlH0gsX/wCcoNNk/wAGaZ5igStx5f1KC4LdxFIe&#xA;B++X08lCXDIHua8mMTiYn+IEJdBNHPDHNEeUcqh0bxVhUHOwBsW+XyiYkg8ww/8ANq1lfyi17ASt&#xA;xplxDdwuOoKtwqPlzrmB2lDixE9zuewMvBqQP5wI/T+h9L6HqkWraJp+qxU9K/tobqOnTjNGJB+D&#xA;Zzj3SNxV2KuxV2KuxV2KuxV2KuxV2KuxV2KuxV4X/wA5S30kNp5Vt79bg+U5r53136sN29IRmGMs&#xA;SoqytKQCe1e2Y+rGU4peFXiUeG+VsoVe7IvKHnnyPrtpDb+X9QgZYkVI7AfuZUVRQKIX4tQDbYUz&#xA;w3tLsrV6eROeEtz9XMH/ADuTtITieSb32sWtrVa+pL/vte3zPbMHFp5S8gkyp5t+bmr3s/kTWCZO&#xA;CmJVEa7CjSKCPfY51Hs3p4x1uPbr+gtGWXpL2D8tI7SP8u/LK2lDb/ouzKEd6wIST7k9ffPYHXvA&#xA;fN3nry1ffnzqGoT30UFhpNkNMhuGPwyzI1ZKEDorO619s572lwZcum4McTImQ5dwbsJAO7J7XzX5&#xA;XuiFttXs5XO4RLiIt/wPKuedZOztTD6scx/mly+Id7DfzE1GXX9VsPJOmS7XZW41aeM1Eduh5Ba7&#xA;jty/4HxzsPYvsY5cvjSHlH/fH9A+Lru09aMGIyPT7+gRvnHyOt9pVm+iUtNW0UKdKdKLtHSkRJ23&#xA;ptXv7E563qdLxRHBtKPJ4Ls/tLgySGX1Y8n1frT7y7d6peaLa3Gq231PUHU/Wbf+VlYrUbmgYDlT&#xA;3zJwylKAMhUnA1eOEMhGM8UOhTLLXHdirsVdiq7/AJxnuDaP5z8t1pFpuqC4gXwS6DKKfRbjORzw&#xA;4ckh5vpmjy+JhhLviHqPnvy0nmfydq+gtQNqFtJFCzfZWanKJj7LIFOVOQ+ffy01iW50L9EXytDr&#xA;GhsbG+tpNnT0iVSo+S8fmDnSdn5xPGB1i8J25pDizmX8M9x+lP8AzBpw1LQ7+wpU3VvJEvszKQp+&#xA;g5lZocUDHvDrdLl8PLGfdIM2/wCcddb/AEr+U2jhm5TWHq2Mvt6Mh4D/AJFMmci+nF6Vih2KuxV2&#xA;KuxV2KuxV2KuxV2KuxV2KuxVCarpOmavp8+m6pax3ljcrwntplDow67g9wdwexxV88eef+cTGNw9&#xA;75J1BY0J5Lpd8WHD/jFcLyb5Bx82wEWm2D/4H/5yM0KT6vBZai6JRV4yRXse5oOO8ige3bvmszdj&#xA;aXL9WOPwFfc2DIR1VX/KP8/PNE0cus6Y80KVKJe3EEEIJ7+jE6PXfqFy3Tdm4cArFHgvqNz8zaDM&#xA;nm9A0L8rf+cgdJ8qDy8fNum6V5fVWMsiPI9zbwmrSLHL6CFV6naQU7EZnsLeS+R/ywsfMV9fXDXl&#xA;xJ5ctpWitLoKIJbplNOYRvVCLTc9fCvXOa7e7d/KVDGAcp7+gb8ePi5p/wCZfK/5SeWbNobm2e+1&#xA;Rhxt7NLiU3Dufs1WNgqgnuV+Vemafs/X9qayYMDw4+p4Rw/aLPzZyjCKp+Sum6fBaancFfT1gTmC&#xA;7tWBV7dFPwx0b4t2rWvhTtnrPZMIiJN3J4b2lyT44xI9FWPM/seh6jqVhptpJeX86W9tGKvK5oPk&#xA;PEnsBm0nOMRcjQedw4Z5JcMBciwif86vK6S8YLW+uYgSPXjiQKf9UO6t94Ga+XauIGt3f4vZbVTj&#xA;Yr7T86Ce6R5/8sataPcWdyWeOnqWzLxmFenwnr8waZZLtPDGHET8OrptdosulI8Qc+VKcnm6fmfT&#xA;t1CdgxJP4UzTS9oje0Nve6w5ZeSe6bffXbRbj0zHUkcTv08Dtm+0ep8fGJ1Vt0JcQRWZTNR/ID9/&#xA;+Yf5gXUSk26vZwF+3qIJFYfehzltabzS976L2VEjTQvue7Ziue+fv+ch/LCeW9T078wdAkNtrF/e&#xA;RaZfWlB6N16kbsrPuKGkPFvHY7EVN2DLKEgY83G1enx5sZjP6fu80wFaDl1706VzrHzQof8A5x71&#xA;T9CebfNXka4+ASzHWNM8Gjk4pIBXuF9P7j4ZyuqxcGQh9I7P1AzYIy8qPvD3nMdzHYq7FXYq7FXY&#xA;q7FXYq7FXYq7FXYq7FXYq7FXYq7FUHrOl22r6RfaVdFxa6hby2s5jPFxHMhjbi29DRtjirxqH/nF&#xA;+C3hW0tvOesQ6cpPG0RgqhSSaAKwTqd/hzDyaHFOXGYQMu8xBPzZiZZt5H/JT8v/ACdOt5p1i11q&#xA;i1I1O+b17gE912VEPuig5lgUxtgn51fl/qeh6u/5leVIfUdF/wCdk0xAaTQinKdQK7gD49tqcv5s&#xA;v0+c4pcQcTWaOGoxmEvge4vBPPfnJ/NOtRm0jll0i1RTDbGq1dlq7uBXep4/Ie+PamtGTlLhHS3M&#xA;9kOxZYpWcJzyH1AbDys1y611WoAEAC8dvs+H3ZxcjZ52/RGKIjEADhFcu7y2TvTtR0DSrEyySLDJ&#xA;KeVw3Bqluw+EGtM2GCXEBEGy/On/AAQvZztXVa/JqPBA08aESJYwCO/6gTInntxcugDOdE0H9IWt&#xA;vfNIBaXEaTRBftMjqGXr9moOdLo+wjKpZD6T0HN8mnp5xkYy2MTR+DLIoo4o1jjUKiCiqOwzqoQE&#xA;QANgG0AAUEPq2oRabpl3fzf3drE8ze/BSafTgyTEYmR6N2DEckxAfxGmSf8AONOgy2H5cLqt0P8A&#xA;TvMF1NqEzH7XEt6cf0EJzH+tnIE2bL6cIiIAHIPV8CXlH/OTWk3N5+WEl9b7y6Le22ohd9wpaE9P&#xA;AT8j8sING0EAij1Y7pt9Ff6fbX0P91dRJMnydQw/XnXwmJRBHV8wzYjjmYnnE0xnzFfnyz598pec&#xA;VPCGC6Gn6i3Y29xUGv8Aqo0h+dM1Pa2LlP4PTezWo+vGf6w+4/ofT+aV6p2KuxV2KuxV2KuxV2Ku&#xA;xV2KuxV2KuxV2KuxV2KuxV2KuxV2KvLv+cktfvtH/Ky9Wzcxy6nNFYNIuxEcvJpB/skQqfniyiLN&#xA;Plm1to7aBYkFAo3Pie5zlM2U5JGRff8As/Q49LhjigNh9p6k+ZVsqcxSuLaC4j9OZA69ae/0ZZjy&#xA;ygbiaLia3Q4dVDgyx4opv5D8x3vlzXrTTZJml0XUZBD6Tmoilc0Vl8Nzv7fLOv7E7UlI8Mvx5vhn&#xA;t/7IQ0w8XF9Juu/bnE9+309f09vzsHxxhf5oTXVzplh5csd7/wAw3kNnCo7qXWv/AAxQH2Oa3tPL&#xA;w4+H+c772e0/Hn4zygPtP4L6Z0fS7TSdJstLtF42thBHbQL4JEgRfwGc89si8VS/zHo0Gt6BqWj3&#xA;AHo6jbS2rk9hKhSvzFajFXzZ+VN5O/lg6bdAre6PcS2U6H7QKNyAPy5cfozo+zcnFirueF7fwcGo&#xA;J6TF/oR35i6T+lPJupQBayxR/WIqdeUJ9Tb5hSPpy3W4+PER8fk43ZOfw9TA9Ca+ez2z8rPMf+I/&#xA;y80DV2bnNPaIlw3jPB+5mP8AyMjbOXfQyynFXYq7FXYq7FXYq7FXYq7FXYq7FXYq7FXYq7FXYq7F&#xA;XYq7FWCfnhoWmaz+V+uw6hMLaO0t2vYbgivGa3+NBT/LI4f7LFIfG0eo3NrbQHULWaL1UVoJShCy&#xA;oRsylqVr7Zop6OM5Hw5RNHcXy8n03sz21xjEI6gS4wOY34vP3/Y1osj+pdRyBkkL+pweoajexwa+&#xA;FCBHKq+Tl+yGujmOfnZyce/dL+zdNM1r2iBvbi3jv9NSZxGouY5JJDUhEVhVjSppvm47Hj+84jyH&#xA;63z7/ghaiP5WOEbzJMq8hEj7SXudp548oXYHo6xa1PRXlWNv+Bfic9DjqsUuUg/NmTs3UQ5wl8r+&#xA;535e2cfmv871u1Im0vylZmQOPija6nHFd+lfjJHumaTtLNx5KHKL13YWlOLBZFSmb/V+PN9GZr3c&#xA;uxV2KvmzU7IeXPzw8yaUBwtNeiTVrUdKu1TLT5yGX7s2vZWSpmPe877R4OLFGf8ANNfAshdFdGRx&#xA;yVgQynoQdjm9IeNBo2r/APOMd+1tpfmTylKSZNB1Jmhqf90XAISntyhZv9lnI5YcEzHuL6fp8viY&#xA;4z/nAF7Xlba7FXYq7FXYq7FXYq7FXYq7FXYq7FXYq7FXYq7FXYq7FXYq8Y/5yF1O51e40D8ttOkK&#xA;3PmG4W41IpuUsoG5VI8CyF/9hmD2nrY6XTzzH+EfM9B8Szxx4jSaaxpdvYxWqWkYitYolt44x0VY&#xA;lCoP+BFPozxHBnlkMjI3Im/nzdlIU8u/MD8s21y6GsaPMtprCqFlD7Rzquw5EA0YDatM63sft0YI&#xA;eDmHFi+2P7Gem1OXT5BlxHhmPt8iwQfl/wDmY0npfouFQTT6wZ4uA/yqCQt/wub7+U+zgL8SXu4T&#xA;/wAS9MfbXV8FDHDi79/uv9KlrGk2/lSCezJj1fzdeQs9y4USQ2Nuq8nZQw/vCo2JAoOlO+RpNQdY&#xA;RIXi0sDt0M5ch8PvP2cjrNTkzTM8h48kur3D8mvyY8gax+Vmj3mv6JFd6hfia4muWaVJCryusdHj&#xA;ZGA9JV2HffOpcAl6j5L/AC88o+S7e6g8uWP1NLxxJckySSsxQEIOUjO1FqaDFCj50/M/yP5Nj/3P&#xA;anHBcsvOOxjrLcuOxESVYA/zNQe+KvOp/wDnIPzPq5p5N8j3l3A/91f6i4toj8lA4H/kbms1XbOk&#xA;wbZMkQe7mfkLLkQ0uSXIIKXzx/zkdLW7Sw0O3WOpFh8bM47KW9VhX/ZrmpPthouKrlXfw7fr+xyP&#xA;5OyV0YR57/MzSfMt75S81ui6b5l0a6fTPMWltUOkUh2kTlQmMfvP9UtQ9iet0ecCUZg3H9BdN2hp&#xA;zkwzh1r7Ry+16FnXvmiS+Q7w6D+fkcZPG1806e8R7L68A5g/PjBT/ZZzvaePhy33h7n2fzcen4f5&#xA;h/a+is1zu3Yq7FXYq7FXYq7FXYq7FXYq7FXYq7FXYq7FXYq7FXYq1JIkaNJIwSNAWd2NAANySTir&#xA;wD8tZJPOPnvzJ+Y1wpNrJKdM0ENX4baKlWAPSqhfpLZ5v7d9o/Rpon+lL/ej7z8nN0sOr0XWo430&#xA;6XmacaMpP8wO339M8/0xImKcqXJimbVrYj+Yvn228raZSIrLq1yCLOA7hexlf/JX8T9NN52J2PLW&#xA;ZN9sUfqP6B5/c15J8IYHd6Le6X5HpcxtP5w843MdvVzyn4ySBhHuNuWwYeLDwGdPpcw1WvEcf+L6&#xA;cbVyvl/Z7vNpIqO/Mvr/AMuaNDonl/TdGhoYtOtYbVGG1RDGE5fTSudg4zzf83vzQ1mw1O38j+TA&#xA;snmvUF5XN026WMDCvqNUEcyNxXoOxJXMTW63HpsRyZDUR9vkPNtxYjOVBjPlX8rtE0iQ6jqZOt+Y&#xA;Jz6l1qd7+9YyHclA/Kn+sat755X2r7R6jVEgHgx/zR+k9fud9g0cMfmVvmD81dHsNSGjaPa3HmHX&#xA;CeIsNPUyUYdVZ1Db+IUGnfJ9mey+p1QEz+7h3nmfcP7EZ9dCG3MrrLyP+ePnEhtTuofJWjv1hg/e&#xA;3zKfdTVT/s0/1c7bQeymkwbyHiS/pcv9Ly+dusy9oZJctg8v/MfySfLGr3ejec7iablC8/lzzQiG&#xA;SSdYx/vPcCtXPRfiaqGm/AjM7LpcuCcZaYDgJ9UOQ/rR/mkdQNj3W1xyRmCJ8+h/QWbflpq+qat5&#xA;RtbzUijS1eOORerxxHgGcdmqpr9+d/ockp4gZPmfbGDHi1BjDl+k93kg/wAyJ5NJm8v+a4VLS6Dq&#xA;UMz8epiZgXH+yKKv05jdq47gJdx+9z/ZvNw5ZQ/nD7R+C+ooZopoUmiYPFKoeNx0KsKgj5jNC9kv&#xA;xV2KuxV2KuxV2KuxV2KuxV2KuxV2KuxV2KuxV2KuxV5h/wA5C+a7jR/Ip0jTqtrPmaVdLsol+0Vl&#xA;2mI6fsnh82GQy5I44mUjUYiz7gmIsoryf5ct/LflnTtEgoVsoVSRwKB5T8Uj/wCyck54D2lrZarU&#xA;TzS/iPyHQfAO2hHhFIXzBferMLZD8EW7+7f2ZPS4qHEerGRYX5w826f5Y0h7+6POVqraWwNGlkps&#xA;o9h+0ewzedmdm5NXlEI8up7h+OTVOfCHkXlWMapqF5+YHm+WunWb1hRhtNcL/dxRIeqx7UHj1/az&#xA;t+0JeDCOh0o9chv/AEY9ST5/jo0R39Rez/k55F1fzNr0P5leaYzBbxAnyxpR3CxsCBcOKe9UruT8&#xA;WwC5uuy+zYaTFwR3PU95ask+IvWfPvnGw8neU9Q8wXtGW0j/AHENaGWd/hijH+sxFfAVPbNi1vF/&#xA;y00W6tNPvvOPmSUfp3Xi17fXM1EEUB+NVqdkWnxEdAKD9nPKfaftQ6vUeFj3hA0K/il1/UP2vQaL&#xA;AMcOI8z9yFS/81/mlqk2heTmfTvLEDenq/mRwRzHeODoTUdhue/Edd/2D7LRx1l1AufSPQe/vP2D&#xA;7sTV6+/TDl3vbPIf5deVvJGliw0O1COwH1q9ko1xOw7yPT7lGw7DO3dUybFUr8weVvLvmO1itdc0&#xA;+HUbeCVZ4o515BZE6MP1EdxscVfN/kK0fQta80eT5Cf9w2oObXkdzbyk+mR7FVDf7LN72TkuJj3P&#xA;Ie0uCpxyD+IV8v7U388WMN95T1S0ldUEkDGMuQB6ifHHuf8ALUZnauIlikD3Oo7NyGGohId/2ciz&#xA;L8k/zf8AJ+q+TtE0a91eC38wWdslpNaXLekzmGscZRn4pIWRAfhJPjnKPo5D1vFDsVdirsVdirsV&#xA;dirsVdirsVdirsVdirsVdirsVdirxX83W+vfnL+XWlk1W3F5e8duoQOD/wBO+aD2oycHZ+U+QHzk&#xA;B+luwD1Bmep3otLVpB/eN8MY9z3+jPFMOPjlTsiaYFrut2GjabcanqMvC3hHJj1ZmPRVHdmOwzoN&#xA;JpJ58gx4xci0SlQsvE9O0jzT+bnnyKyiJt0ZTISQWhsrMb8mApyZqjw5EjoOnq/ZXZ+PS4uCG/ee&#xA;8/jk4c52be4eVf8AnGlLW/sJPNWufp3S9JH+gaOkAgt+Va1lHJuYruRT4v2iRscvFpceOUpxHqnz&#xA;PU/juYGRL29VVVCqAFAoANgAMyGLwX87b1fMn5k6F5NuHEehaNA2t62WNEalQoeu3FVFK+DnNN29&#xA;rZafTEw/vJemPvl+DXm5WkxCc9+Q3KTabp2v/nJq0tpZSPpn5d6fMI768Hwy3rp8Xpx7fLY7KPia&#xA;poua72f9nY6UDLk3zH/Y/t7z8B536zWGfpj9P3vobQ9C0jQtLt9K0i1Sz0+1XjDBGKAdyT3LE7kn&#xA;cnrnVOuR2KuxV2KvG/zA/JPzRrv5gy+ZvLuuQ6LDqFrHb6m7RtJMXiooZEpxPwIgryUimWY8soG4&#xA;mmnPp8eUATHEAbeR+cPy4h8o+e7ey88Xl1q+gahGDp2syu8cfr0HqJKAzcKNXo2woelaantnJq/B&#xA;MsBuY79zXlfVv0+LHDYARHlszO8/LbyPeWCWh0uGOJFpFLDVJADvX1FPJuv7ROea4u3dZCZlxkk8&#xA;wdx8unwpzjjix7SNb80+VaweTPzAsrvT0Pw6Tqk8MyoFNOKEl+Ir/JwGdppe3s1fv8GQecYmvkf1&#xA;loliHQsssP8AnIjz/ZUXW/Ktrqa0r6+kXaklf5hEDcsfvGbbH2tp5fxcP9YGP3gNZxlmHkn/AJyG&#xA;8m+aNcttBNpe6Vq91VYoryNBGzqpbgHVyamhpyUZsIyEhYNsCHqWSQ7FXYq7FXYq7FXYq7FXYq7F&#xA;XYq7FXYq7FXinn4oP+cifKXKlf0Rc8a+P+kdPozl/bG/5Pn74/7oORpvqQvn78w/L2jO0moXQBjF&#xA;Lezjo8z+4Su1fFqDPPuyOxs+o2hH3yPIfH9TlZMgDxDW/MOueddZtoFtjPcPJw0by7APVYyNt6ty&#xA;acdutG7dQFqT6R2Z2THTR4ce5P1T5fCP6/tJ5Yk53zfVP5P/AJaQeRfLIgmIn17UCLjWbyvIvMak&#xA;RhjuUj5EDxNT3zoIxAFDk0ks7wodirzX8xPyK8veddej1mfULzTbl4Ra362jKFuIFbkFbkDT8R02&#xA;2yEscZVYutx72QkQzzQ9E0vQtJtdI0q3W10+zjEUEKdAB3J6lid2J3J3OTYo7FXYq7FXYq7FUp80&#xA;+VdC806LPo2t2y3VlONwdmRh9l426qy9iMVeA6z5O/MX8r+b2sb+afJMRLIyf722kfX41APwqO4q&#xA;u1fgzne1vZ3FqiZx9GTv6H3j9P3t8MxDzvRl/LOy80xareWKav5I1M+jeQs0sdxpsrnZuMTI/EHp&#xA;1qtabgVzOzNRmrwtQKyx69JjvHn3hjMDmH0In/OOf5K30EN1Z6UTbTIrxSQXt08bowqrqxleoIO1&#xA;Dm2a7Tjyt+R35aeWNXi1jStKK6jBX0JppppvTLAgsquzLyoetK+GK2zzFDsVdirsVdirsVdirsVd&#xA;irsVdirsVdirsVfPH/OUfrfp3yt+gPrf+LvTvPQ+p15/VOHx/Z+Pl9rjx7cq9sxdb4PhHxuHw9r4&#xA;uXMVd+dM4Xez5+0D/Dn6dk/xr+lPR5fv/qXp/Wudfi5/WP8Aby7HwcI4a4elclNvr78mf+VNfo5v&#xA;8AfV/rPD/S/Ur+kKVFfV9X97x5eHwV6ZYxL0rFDsVdirsVdirsVdirsVdirsVdirsVfKP/OQX/Kl&#xA;v0qf0N6n+IuR/Sf6H9P6pTkOX1iv7v1a/wC++/296YDTIPoD8o/0T/yrXy9+ifrP6P8Aqi+h9cp6&#xA;/U8uVNvtV402pSm2FiWXYq7FXYq7FXYq7FX/2Q==</xmpGImg:image>
               </rdf:li>
            </rdf:Alt>
         </xmp:Thumbnails>
      </rdf:Description>
      <rdf:Description rdf:about=""
            xmlns:xmpMM="http://ns.adobe.com/xap/1.0/mm/"
            xmlns:stRef="http://ns.adobe.com/xap/1.0/sType/ResourceRef#"
            xmlns:stEvt="http://ns.adobe.com/xap/1.0/sType/ResourceEvent#">
         <xmpMM:InstanceID>xmp.iid:F87F117407206811822A9DD448A483FF</xmpMM:InstanceID>
         <xmpMM:DocumentID>xmp.did:F87F117407206811822A9DD448A483FF</xmpMM:DocumentID>
         <xmpMM:OriginalDocumentID>uuid:5D20892493BFDB11914A8590D31508C8</xmpMM:OriginalDocumentID>
         <xmpMM:RenditionClass>proof:pdf</xmpMM:RenditionClass>
         <xmpMM:DerivedFrom rdf:parseType="Resource">
            <stRef:instanceID>uuid:ba5dc92b-6d0a-484a-ab90-b9370a4a0965</stRef:instanceID>
            <stRef:documentID>xmp.did:0980117407206811822A897E387FE54C</stRef:documentID>
            <stRef:originalDocumentID>uuid:5D20892493BFDB11914A8590D31508C8</stRef:originalDocumentID>
            <stRef:renditionClass>proof:pdf</stRef:renditionClass>
         </xmpMM:DerivedFrom>
         <xmpMM:History>
            <rdf:Seq>
               <rdf:li rdf:parseType="Resource">
                  <stEvt:action>saved</stEvt:action>
                  <stEvt:instanceID>xmp.iid:F87F117407206811822A9DD448A483FF</stEvt:instanceID>
                  <stEvt:when>2018-09-05T11:32:55-03:00</stEvt:when>
                  <stEvt:softwareAgent>Adobe Illustrator CS6 (Macintosh)</stEvt:softwareAgent>
                  <stEvt:changed>/</stEvt:changed>
               </rdf:li>
            </rdf:Seq>
         </xmpMM:History>
      </rdf:Description>
      <rdf:Description rdf:about=""
            xmlns:illustrator="http://ns.adobe.com/illustrator/1.0/">
         <illustrator:StartupProfile>Print</illustrator:StartupProfile>
      </rdf:Description>
      <rdf:Description rdf:about=""
            xmlns:xmpTPg="http://ns.adobe.com/xap/1.0/t/pg/"
            xmlns:stDim="http://ns.adobe.com/xap/1.0/sType/Dimensions#"
            xmlns:xmpG="http://ns.adobe.com/xap/1.0/g/">
         <xmpTPg:HasVisibleOverprint>False</xmpTPg:HasVisibleOverprint>
         <xmpTPg:HasVisibleTransparency>False</xmpTPg:HasVisibleTransparency>
         <xmpTPg:NPages>1</xmpTPg:NPages>
         <xmpTPg:MaxPageSize rdf:parseType="Resource">
            <stDim:w>21.000131</stDim:w>
            <stDim:h>29.700013</stDim:h>
            <stDim:unit>Centimeters</stDim:unit>
         </xmpTPg:MaxPageSize>
         <xmpTPg:PlateNames>
            <rdf:Seq>
               <rdf:li>Cyan</rdf:li>
               <rdf:li>Magenta</rdf:li>
               <rdf:li>Yellow</rdf:li>
               <rdf:li>Black</rdf:li>
            </rdf:Seq>
         </xmpTPg:PlateNames>
         <xmpTPg:SwatchGroups>
            <rdf:Seq>
               <rdf:li rdf:parseType="Resource">
                  <xmpG:groupName>Default Swatch Group</xmpG:groupName>
                  <xmpG:groupType>0</xmpG:groupType>
               </rdf:li>
            </rdf:Seq>
         </xmpTPg:SwatchGroups>
      </rdf:Description>
      <rdf:Description rdf:about=""
            xmlns:pdf="http://ns.adobe.com/pdf/1.3/">
         <pdf:Producer>Adobe PDF library 10.01</pdf:Producer>
      </rdf:Description>
   </rdf:RDF>
</x:xmpmeta>
                                                                                                    
                                                                                                    
                                                                                                    
                                                                                                    
                                                                                                    
                                                                                                    
                                                                                                    
                                                                                                    
                                                                                                    
                                                                                                    
                                                                                                    
                                                                                                    
                                                                                                    
                                                                                                    
                                                                                                    
                                                                                                    
                                                                                                    
                                                                                                    
                                                                                                    
                                                                                                    
                           
<?xpacket end="w"?>
	</metadata>
<g>
	<path fill="#FFFFFF" d="M-3.122-54.892l-1.247,6.747l0.61,2.583c0,0,2.407,1.184,2.772,0.943c0.364-0.243,7.883-1.552,7.883-1.552
		s3.673,0.242,4.708,2.282c1.035,2.04,7.197,19.5,7.197,19.5s1.688,2.551,3.979,2.764s10.978-2.812,13.094-4.842
		c2.114-2.03,8.685-9.522,9.182-13.521c0.498-3.998-0.021-12.301-0.021-12.301s-4.71-10.329-6.654-11.778
		C36.436-65.514,4.123-61.679-3.122-54.892"/>
	<path fill="#66CEF6" d="M34.527-69.689l3.854,5.624c0,0,6.817,7.945,7.037,13.768c0.222,5.823-0.46,12.243-0.46,12.243
		l-7.36,11.621l9.503-6.032c0,0,1.64,3.457,5.178,4.489c3.538,1.032,6.666-1.299,6.666-1.299s9.255,5.941,14.634,4.069
		c5.378-1.873,9.351-5.283,9.351-5.283l3.352-6.5l0.821-3.269c0,0,11.308-7.226,9.25-20.138
		c-2.06-12.911-15.345-15.926-15.345-15.926S81.24-95.024,62.219-94.51c-12.877,0.349-14.485,15.171-14.485,15.171
		s-8.575-2.37-7.98,8.526L34.527-69.689z"/>
	<path fill="#66CEF6" d="M-54.176-73.518c0,0-4.112,0.257-5.871,5.834l17.559,18.094c0,0,3.561,3.223,5.061,3.527
		s3.843-0.468,3.843-0.468L-14.54-24.23c0,0-7.289,8.199-7.243,12.581s0.517,12.404,0.517,12.404l-9.998,11.606l-18.632,1.348
		l-4.277,4.908l6.034-0.491l4.028,7.066l13.356-0.406l1.158,3.516l-6.224,12.944c0,0,5.785,11.483,17.383,16.652
		c11.598,5.17,19.4,5.196,19.4,5.196l6.753-18.616c0,0,0.799-5.459,0.623-6.9c-0.176-1.44-5.795-17.576-5.795-17.576l1.09-3.057
		l0.785-1.558l8.426-6.877l5.501,25.168l2.564,5.051l3.502,2.741c0,0-1.266,1.616-0.317,5.402
		c0.948,3.784,9.248,35.924,9.248,35.924l10.393-2.728l-9.553-34.425l-2.143-5.59L24.62,5.128c0,0,0.412-6.632-1.111-9.128
		c-1.522-2.495-10.037-14.378-10.037-14.378l1.302-3.327c0,0-8.54-4.078-10.754-6.247c-2.214-2.168-6.992-9.386-6.992-9.386
		s-4.674-2.356-7.135-2.544c-2.46-0.188-4.44-0.435-4.44-0.435L-54.176-73.518z"/>
	<path fill="#FFF200" d="M-0.416-48.375c0,0,4.748-11.06,12.609-10.553c0,0,3.596,1.511,5.062,3.527
		c1.463,2.015,5.28,9.351,8.666,11.132c3.386,1.781,5.846,1.971,7.92,0.987c2.074-0.983,4.605-4.217,4.605-4.217
		s2.415-4.193,2.157-8.305c-0.257-4.114-6.228-23.13-26.789-21.845C-6.748-76.365-3.555-52.136-0.416-48.375"/>
	<path fill="#FFF200" d="M-3.759-45.561c0,0,0.785,0.79,3.137,0.7c2.353-0.088,6.682-0.911,6.682-0.911s5.153-0.529,6.245,2.784
		c1.092,3.312,6.496,18.6,6.496,18.6l3.094,2.775C21.895-21.613-0.103-17.952-3.759-45.561"/>
	<path fill="#FFFFFF" d="M2.61-43.383c0,0-1.215,11.862-0.311,13.622l6.635-1.3l5.31-4.092l-8.232-2.935L2.61-43.383z"/>
	<path fill="#FFF200" d="M18.948-39.367c0,0,8.972-4.734,16.801,2.976C35.748-36.392,27.588-28.212,18.948-39.367"/>
	<path fill="#FFF200" d="M1.656-52.028l3.407-4.352c0,0,2.37,5.716,0.175,6.278L1.656-52.028z"/>
	<path fill="#CCC320" d="M38.875,83.123l5.514-3.23l11.464,4.413l8.805,1.98c0,0-0.44,1.233-1.604,1.376S49.82,87.304,49.82,87.304
		l4.938,5.797c0,0,0.42,1.031-0.418,1.428c-0.839,0.398-2.338-0.601-2.338-0.601s-9.093-6.767-9.504-6.914
		C42.088,86.867,38.875,83.123,38.875,83.123"/>
	<path fill="#FFF200" d="M-48.139,18.126c0,0-13.375,4.471-15.631,5.337c-2.258,0.866-4.188,1.986-4.188,1.986l-6.948,8.426
		c0,0-1.316,2.129,0.207,3.322s7.257,4.629,11.898,4.752c4.642,0.126,17.971-2.777,17.715-2.451
		c-0.255,0.326-4.708,5.792-3.365,6.316c1.344,0.525,6.597-0.802,6.597-0.802l4.979-2.771c0,0,5.438-10.31,5.803-10.551
		c0.364-0.242,1.437-1.473,1.478-3.388c0.042-1.916-1.707-4.164-1.707-4.164l-13.41,1.436L-48.139,18.126z"/>
	<path fill="#FFF200" d="M-26.511,52.987c0,0-11.103,26.059-11.822,27.426c-0.719,1.368-1.896,12.733-0.457,14.034
		c1.438,1.301,2.166,0.819,2.663,0.856c0.497,0.038,8.489-1.427,9.512-2.731l2.3-2.938l5.196-6.638c0,0,2.858,0.833,4.609-0.954
		c1.751-1.788,6.593-7.3,6.593-7.3l2.132-10.792l1.17-1.717C-4.616,62.233-16.615,62.315-26.511,52.987"/>
	<path fill="#231F20" d="M-49.896,13.709c0,0-4.699,5.881-4.288,6.027c0.412,0.147,6.355-1.167,6.355-1.167L-49.896,13.709z"/>
	<path fill="#CCC320" d="M-44.713,25.573l-25.846,14.801c0,0,5.229,1.958,9.166,1.479s16.309-2.355,16.309-2.355l-3.367,6.317
		c0,0,4.153,1.944,6.543,0.257c2.39-1.689,5.031-3.831,5.031-3.831l5.804-10.551l1.477-3.388l-1.158-3.515L-44.713,25.573z"/>
	<path fill="#CCC320" d="M-29.54,60.741l4.46,12.036l-13.029,22.555c0,0,6.69-0.814,9.474-2.553
		c2.784-1.736,2.631-2.093,3.475-2.618c0.846-0.526,6.042-7.164,6.042-7.164s3.623,0.331,4.608-0.954
		c0.986-1.285,5.575-6.237,5.575-6.237l2.728-7.121l1.592-6.45l-18.539-6.463L-29.54,60.741z"/>
	<path fill="#CCC320" d="M-0.416-48.375c0,0,2.405-7.547,7.032-8.909c4.626-1.362,7.083-0.862,7.083-0.862s1.841-0.06,3.556,2.745
		c1.713,2.804,5.753,8.104,7.298,9.312c1.546,1.21,4.366,3.062,5.769,3.092c1.401,0.03,5.635-1.284,5.635-1.284
		s-4.794-22.979-20.853-22.024C-0.955-65.347-1.12-49.821-0.416-48.375"/>
	<path fill="#4F9FBE" d="M46.543-49.164l17.23-6.091c0,0,2.226,3.524,1.573,7.996c0,0,0.037,3.59,2.255,2.122
		s1.547-6.978,1.547-6.978s15.95,9.641,27.471-2.345c0,0-2.286,7.468-4.58,9.944c-2.295,2.475-4.167,3.502-4.167,3.502
		s-2.584,8.302-6.231,11.141c-3.647,2.842-8.062,4.667-8.062,4.667l-8.15-1.694l-5.278-2.353c0,0-3.821,3.061-6.94,2.043
		c-3.119-1.019-6.108-5.256-6.108-5.256l-8.692,5.06C38.409-27.405,49.708-39.564,46.543-49.164"/>
	<path fill="#4F9FBE" d="M-0.914-32.203L11.56-11.756l6.518-0.594l-4.604-6.028l0.306-3.033
		C13.779-21.412,2.088-25.581-0.914-32.203"/>
	<path fill="#231F20" d="M-0.936-47.001c-0.087-0.069-0.162-0.154-0.22-0.254c-4.427-7.646-3.877-16.942,1.398-23.68
		c7.182-9.172,20.767-10.57,30.285-3.117c0.385,0.302,0.452,0.857,0.15,1.242c-0.303,0.386-0.858,0.453-1.243,0.153
		c-8.749-6.85-21.219-5.588-27.798,2.814c-4.351,5.558-5.182,13.025-2.329,19.583c0.504-1.512,1.264-2.933,2.25-4.193
		c4.803-6.135,13.777-7.157,20.003-2.281c0.211,0.164,0.418,0.336,0.618,0.51c0.369,0.323,0.405,0.881,0.084,1.25
		c-0.321,0.368-0.882,0.408-1.25,0.084c-0.176-0.154-0.358-0.305-0.543-0.45c-5.458-4.273-13.315-3.386-17.517,1.978
		c-1.312,1.676-2.164,3.677-2.465,5.788C0.435-47.2,0.15-46.901-0.22-46.83C-0.478-46.78-0.738-46.847-0.936-47.001"/>
	<path fill="#231F20" d="M24.69-44.786c-3.322-2.602-5.856-6.527-7.49-9.057l-0.022-0.034c-2.834-4.391-5.716-4.198-5.837-4.187
		c-0.482,0.041-0.915-0.312-0.964-0.795c-0.047-0.482,0.295-0.913,0.777-0.967c0.163-0.019,4.041-0.389,7.511,4.987l0.023,0.034
		c3.136,4.856,8.97,13.896,16.793,9.895c2.468-1.262,4.113-4.294,4.402-8.114c0.419-5.543-1.998-13.527-10.031-19.309
		c-0.395-0.281-0.487-0.84-0.201-1.236c0.285-0.396,0.84-0.488,1.236-0.202c8.63,6.21,11.218,14.858,10.761,20.881
		c-0.34,4.505-2.295,7.989-5.36,9.557C31.768-41.021,27.869-42.297,24.69-44.786"/>
	<path fill="#231F20" d="M34.208-69.545c-0.17-0.134-0.291-0.327-0.327-0.557c-0.079-0.483,0.25-0.938,0.732-1.015
		c0.143-0.023,14.271-2.306,18.317-3.46c3.554-1.013,3.946-3.315,3.95-3.338c0.073-0.483,0.525-0.814,1.01-0.741
		c0.482,0.074,0.815,0.526,0.741,1.01c-0.021,0.141-0.579,3.452-5.217,4.773c-4.146,1.183-17.935,3.41-18.52,3.505
		C34.642-69.328,34.396-69.399,34.208-69.545"/>
	<path fill="#231F20" d="M4.722-25.847C-3.806-32.525-7.316-43.939-4.01-54.25c0.149-0.467,0.648-0.723,1.114-0.573
		c0.465,0.149,0.723,0.648,0.573,1.114c-3.08,9.608,0.191,20.244,8.138,26.467c10.515,8.232,25.767,6.376,33.999-4.139
		c3.722-4.753,5.528-10.685,5.085-16.699c-0.439-5.975-3.049-11.542-7.349-15.674c-0.354-0.339-0.364-0.899-0.025-1.253
		c0.339-0.353,0.897-0.367,1.253-0.024c4.614,4.435,7.418,10.409,7.889,16.82c0.475,6.457-1.463,12.822-5.457,17.922
		C32.373-19.004,16.006-17.013,4.722-25.847"/>
	<path fill="#231F20" d="M33.006-23.818c-0.081-0.063-0.152-0.141-0.209-0.232c-0.257-0.416-0.126-0.963,0.29-1.219
		c0.197-0.123,19.914-12.276,25.664-15.548c6.316-3.593,8.38-1.062,8.595-0.762l-1.441,1.03c0,0,0.007,0.012,0.023,0.031
		c-0.014-0.016-1.42-1.535-6.302,1.241c-5.723,3.256-25.413,15.394-25.611,15.516C33.692-23.562,33.288-23.597,33.006-23.818"/>
	<path fill="#231F20" d="M47.046-75.396c-0.178-0.139-0.303-0.347-0.332-0.591c-0.572-4.687,0.718-9.315,3.628-13.032
		c6.009-7.673,17.139-9.028,24.813-3.02c4.63,3.625,7.149,9.296,6.736,15.17c-0.034,0.49-0.458,0.856-0.946,0.823
		c-0.488-0.035-0.855-0.459-0.821-0.947c0.371-5.286-1.896-10.389-6.062-13.652c-6.903-5.406-16.92-4.187-22.324,2.718
		c-2.619,3.345-3.778,7.51-3.265,11.726c0.058,0.486-0.288,0.927-0.773,0.986C47.456-75.184,47.225-75.255,47.046-75.396"/>
	<path fill="#231F20" d="M39.556-70.585c-0.116-0.091-0.211-0.214-0.272-0.359c-0.956-2.323-0.589-4.994,0.958-6.971
		c1.734-2.215,4.61-3.172,7.324-2.438c0.472,0.128,0.753,0.614,0.624,1.087c-0.128,0.472-0.614,0.75-1.086,0.623
		c-2.027-0.548-4.174,0.167-5.468,1.82c-1.155,1.476-1.43,3.469-0.714,5.204c0.186,0.452-0.031,0.97-0.481,1.156
		C40.136-70.338,39.8-70.396,39.556-70.585"/>
	<path fill="#231F20" d="M19.623-22.146c-1.513-1.185-2.492-2.81-2.925-3.939c-0.006-0.014-0.011-0.029-0.016-0.044
		c-0.151-0.468-3.707-11.502-4.702-15.39c-1.039-4.058-4.2-3.589-4.558-3.522c-0.011,0.002-0.03,0.006-0.042,0.007
		c-0.051,0.007-5.034,0.726-8.122,1.102c-3.818,0.465-4.329-1.529-4.376-1.759c-0.096-0.479,0.215-0.946,0.694-1.041
		c0.459-0.093,0.906,0.187,1.028,0.632c0.096,0.194,0.702,0.621,2.438,0.409c3.068-0.373,8.033-1.089,8.083-1.095
		c0.523-0.083,5.166-0.651,6.57,4.828c0.96,3.747,4.467,14.648,4.664,15.261c0.148,0.371,1.999,4.773,6.19,4.263
		c0.484-0.059,0.927,0.287,0.986,0.772c0.059,0.486-0.287,0.928-0.772,0.986C22.656-20.419,20.939-21.116,19.623-22.146"/>
	<path fill="#231F20" d="M21.168-35.252c-1.211-0.948-2.369-2.156-3.447-3.588c-0.155-0.207-0.212-0.47-0.157-0.722
		c0.055-0.253,0.219-0.467,0.446-0.59c0.339-0.184,8.4-4.412,15.797,1.38c0.899,0.703,1.759,1.539,2.556,2.482
		c0.155,0.185,0.229,0.425,0.203,0.664c-0.025,0.24-0.148,0.46-0.339,0.607C36.154-34.961,28.714-29.345,21.168-35.252
		 M19.836-39.025c0.778,0.927,1.59,1.724,2.425,2.378c5.171,4.048,10.17,1.873,12.079,0.753c-0.521-0.549-1.065-1.045-1.625-1.484
		C27.63-41.359,22.054-39.876,19.836-39.025"/>
	<path fill="#231F20" d="M1.145-51.296c-0.09-0.071-0.18-0.144-0.271-0.219c-0.377-0.312-0.431-0.87-0.119-1.247
		c0.306-0.371,0.852-0.428,1.229-0.133c0.007,0.005,0.013,0.01,0.019,0.015c0.809,0.667,1.626,1.171,2.896,1.758
		c0.167-1.084,0.279-2.989-0.364-5.263c-0.133-0.471,0.141-0.96,0.611-1.093c0.47-0.134,0.959,0.14,1.094,0.611
		c1.162,4.105,0.176,7.146,0.133,7.274c-0.078,0.234-0.251,0.426-0.477,0.527c-0.225,0.102-0.483,0.104-0.71,0.007
		C3.559-49.751,2.351-50.353,1.145-51.296"/>
	<path fill="#231F20" d="M74.727-37.714c-0.235-0.185-0.372-0.485-0.334-0.805c0.059-0.485,0.5-0.831,0.985-0.772
		c6.444,0.778,12.677-1.805,16.674-6.91c6.241-7.97,4.833-19.531-3.137-25.771c-3.304-2.587-7.429-3.972-11.615-3.903
		c-0.49,0.009-0.893-0.382-0.9-0.871c-0.009-0.488,0.382-0.891,0.87-0.9c4.592-0.076,9.115,1.442,12.738,4.279
		c8.739,6.843,10.282,19.521,3.44,28.26c-4.382,5.596-11.216,8.428-18.281,7.575C74.999-37.554,74.85-37.619,74.727-37.714"/>
	<path fill="#231F20" d="M59.999-27.995c-2.728-2.135-4.728-4.998-5.787-8.279c-0.151-0.466,0.105-0.966,0.57-1.116
		c0.466-0.151,0.965,0.105,1.114,0.571c0.951,2.944,2.747,5.514,5.195,7.429c6.732,5.272,16.498,4.083,21.77-2.65
		c1.916-2.446,3.043-5.371,3.26-8.458c0.035-0.488,0.457-0.856,0.947-0.822c0.486,0.034,0.854,0.458,0.82,0.946
		c-0.241,3.441-1.498,6.7-3.632,9.427C78.383-23.445,67.501-22.121,59.999-27.995"/>
	<path fill="#231F20" d="M49.483-28.181c-1.356-1.062-2.321-2.496-2.791-4.149c-0.136-0.47,0.138-0.961,0.608-1.095
		s0.961,0.139,1.095,0.61c0.366,1.289,1.121,2.409,2.182,3.239l0,0c2.47,1.934,6.031,1.752,8.283-0.424
		c0.352-0.341,0.91-0.331,1.253,0.021c0.339,0.353,0.33,0.913-0.022,1.253c-2.884,2.787-7.444,3.021-10.605,0.546L49.483-28.181z"/>
	<path fill="#231F20" d="M-24.194,36.785c-0.02-0.017-0.039-0.033-0.058-0.051c-0.273-0.254-6.697-6.338-7.074-15.456
		c-0.233-5.645,7.849-14.435,9.465-16.136c-0.085-2.368-0.521-14.674-0.409-17.8c0.119-3.359,3.021-7.02,5.355-9.961
		c0.24-0.304,0.475-0.6,0.698-0.885c1.963-2.508,0.73-5.405,0.717-5.433c-0.196-0.448,0.009-0.971,0.456-1.167
		c0.449-0.196,0.972,0.009,1.167,0.456c0.069,0.158,1.663,3.905-0.945,7.235c-0.226,0.289-0.462,0.588-0.705,0.894
		c-2.172,2.739-4.874,6.146-4.973,8.923c-0.119,3.328,0.418,17.902,0.423,18.049c0.01,0.242-0.081,0.479-0.252,0.652
		c-2.628,2.688-9.411,10.639-9.228,15.1c0.347,8.373,6.45,14.176,6.513,14.233c0.356,0.334,0.376,0.895,0.043,1.251
		C-23.317,37.029-23.836,37.064-24.194,36.785"/>
	<path fill="#231F20" d="M-10.76,4.397c-3.29-2.574-5.254-6.263-5.37-6.485c-0.227-0.434-0.06-0.97,0.374-1.196
		c0.434-0.229,0.969-0.061,1.195,0.374c0.052,0.096,3.822,7.146,9.272,7.942c5.984,0.874,8.072,1.521,8.157,1.549
		c0.468,0.146,0.727,0.644,0.578,1.111C3.302,8.158,2.803,8.417,2.337,8.27c-0.02-0.007-2.081-0.638-7.882-1.486
		C-7.522,6.497-9.276,5.56-10.76,4.397"/>
	<path fill="#231F20" d="M-5.602-22.361c-0.139-0.109-0.247-0.26-0.302-0.441c-0.698-2.323-0.074-4.834,1.802-7.262
		c1.36-1.759,2.899-2.862,2.965-2.908c0.399-0.282,0.951-0.19,1.235,0.21c0.283,0.399,0.189,0.951-0.209,1.234
		c-0.054,0.039-5.392,3.909-4.097,8.217c0.141,0.469-0.126,0.962-0.594,1.103C-5.087-22.124-5.384-22.19-5.602-22.361"/>
	<path fill="#231F20" d="M33.23,84.287c-0.142-0.112-0.252-0.27-0.306-0.457L22.583,47.157c-0.105-0.411-0.86-3.527-0.067-5.548
		c-0.853-0.729-2.413-2.304-4.025-5.145C16.173,32.377,11.727,5.9,11.538,4.775c-0.081-0.482,0.245-0.939,0.729-1.021
		c0.482-0.081,0.938,0.246,1.02,0.728c1.267,7.579,4.949,27.941,6.746,31.108c2.106,3.714,4.078,5.021,4.098,5.034
		c0.208,0.134,0.353,0.353,0.394,0.598s-0.021,0.498-0.175,0.693c-0.662,0.846-0.431,3.306-0.055,4.782L34.393,82.51l8.312-2.195
		c-1.211-4.652-7.01-26.881-8.585-32.051c-1.683-5.521-2.541-6.921-2.55-6.936c-0.055-0.086-0.099-0.191-0.121-0.292L23.736,5.469
		c-0.017-0.076-0.022-0.156-0.018-0.234l0.048-0.868c0.304-5.441,0.429-7.694-3.894-12.8c-0.521-0.615-6.354-8.35-6.604-8.678
		c-0.294-0.39-0.217-0.946,0.174-1.24c0.391-0.295,0.946-0.218,1.24,0.174c1.682,2.229,6.136,8.119,6.541,8.6
		c4.778,5.645,4.622,8.45,4.311,14.043l-0.042,0.746l7.658,35.312c0.286,0.512,1.16,2.295,2.662,7.226
		c1.765,5.789,8.759,32.703,8.828,32.976c0.123,0.472-0.159,0.954-0.632,1.08l-10.007,2.643
		C33.725,84.519,33.442,84.452,33.23,84.287"/>
	<path fill="#231F20" d="M11.615-11.382c-0.266-0.207-0.398-0.557-0.315-0.904l2.244-9.355c0.115-0.477,0.593-0.769,1.069-0.655
		c0.475,0.114,0.769,0.593,0.655,1.068l-2.245,9.355c-0.114,0.476-0.593,0.769-1.068,0.656C11.826-11.25,11.71-11.306,11.615-11.382
		"/>
	<path fill="#231F20" d="M-15.183-23.792c-0.041-0.031-0.078-0.067-0.114-0.107l-18.844-20.999c-2.696,0.301-5.628-0.803-8.51-3.219
		c-2.074-1.737-3.452-3.576-3.696-3.909l-14.295-15.311c-0.19-0.204-0.273-0.486-0.225-0.76c0.333-1.86,2.054-5.51,6.176-6.012
		c0.243-0.029,0.489,0.046,0.673,0.198l39.732,33.001c1.945-0.168,10.399-0.553,13.173,5.039c0.217,0.438,0.039,0.97-0.4,1.187
		c-0.438,0.217-0.97,0.039-1.187-0.401c-2.524-5.09-11.666-4.04-11.758-4.028c-0.242,0.029-0.484-0.041-0.674-0.198l-39.711-32.984
		c-2.868,0.541-3.884,3.084-4.178,4.099l14.008,15.002c0.027,0.027,0.052,0.059,0.074,0.091c0.053,0.074,5.343,7.396,10.984,6.389
		c0.303-0.053,0.61,0.052,0.814,0.281l19.161,21.352c0.327,0.364,0.296,0.926-0.068,1.252
		C-14.371-23.54-14.851-23.531-15.183-23.792"/>
	<path fill="#231F20" d="M-4.743,22.485c-0.256-0.199-0.391-0.534-0.322-0.874c0.098-0.48,0.564-0.788,1.044-0.691
		c1.397,0.282,5.599,0.704,6.528-1.002c1.095-2.008,0.21-3.022,0.17-3.065c-0.18-0.181-0.266-0.425-0.247-0.68
		c0.019-0.256,0.152-0.483,0.355-0.637l9.298-7.01c0.391-0.294,0.946-0.217,1.241,0.175c0.294,0.39,0.216,0.947-0.175,1.24
		l-8.656,6.524c0.382,0.851,0.649,2.318-0.433,4.301c-1.719,3.154-7.753,2.028-8.436,1.889C-4.513,22.626-4.638,22.567-4.743,22.485
		"/>
	<path fill="#231F20" d="M-45.232,26.344c-0.121-0.095-0.219-0.222-0.277-0.373l-4.894-12.404c-0.105-0.265-0.075-0.564,0.079-0.805
		c0.155-0.24,0.417-0.391,0.701-0.404l18.316-0.881c0.489-0.024,0.904,0.353,0.927,0.842c0.023,0.489-0.354,0.905-0.842,0.928
		l-17.082,0.822l4.198,10.641l13.622-1.148c0.487-0.041,0.916,0.321,0.957,0.808c0.041,0.487-0.321,0.916-0.809,0.957l-14.278,1.204
		C-44.841,26.548-45.06,26.479-45.232,26.344"/>
	<path fill="#231F20" d="M-25.291,55.181c-1.301-1.019-2.471-2.05-3.503-3.032c-5.166-4.924-7.974-9.621-8.09-9.819
		c-0.161-0.273-0.165-0.611-0.009-0.886c0.04-0.073,4.114-7.293,5.551-9.926c1.259-2.308,0.969-3.911,0.956-3.978
		c-0.093-0.477,0.216-0.944,0.691-1.042c0.475-0.097,0.939,0.203,1.041,0.678c0.021,0.091,0.462,2.264-1.134,5.189
		c-1.229,2.257-4.38,7.849-5.305,9.489c0.812,1.263,3.435,5.125,7.556,9.046c4.575,4.352,11.995,9.673,21.361,10.318
		c0.022,0.002,0.045,0.005,0.067,0.008l7.249,1.06c0.98-2.875,4.724-13.948,6.167-19.608c0.65-2.55,0.027-7.145-1.799-13.287
		c-1.403-4.714-3.028-8.673-3.046-8.712c-0.187-0.452,0.03-0.97,0.482-1.156s0.97,0.03,1.156,0.481
		c0.272,0.662,6.663,16.289,4.922,23.113c-1.677,6.574-6.397,20.302-6.445,20.44c-0.14,0.403-0.544,0.649-0.965,0.588l-7.945-1.161
		C-14.093,62.44-20.555,58.889-25.291,55.181"/>
	<path fill="#231F20" d="M-74.239,38.643c-0.873-0.683-1.508-1.349-1.807-1.913c-1.342-2.526,2.067-5.912,6.384-10.198
		c0.458-0.455,0.925-0.917,1.391-1.387c4.583-4.598,18.906-7.432,19.515-7.55c0.48-0.093,0.945,0.222,1.039,0.7
		c0.093,0.479-0.221,0.945-0.699,1.039c-0.037,0.007-3.672,0.721-7.791,1.964c-5.358,1.616-9.095,3.38-10.808,5.098
		c-0.47,0.47-0.938,0.935-1.397,1.393c-3.185,3.162-6.793,6.746-6.068,8.109c0.942,1.778,7.942,5.941,13.345,5.284
		c5.527-0.674,21.619-3.512,21.781-3.541c0.482-0.085,0.94,0.237,1.025,0.719c0.086,0.482-0.235,0.941-0.718,1.026
		c-0.162,0.029-16.301,2.876-21.875,3.555C-65.536,43.501-71.266,40.971-74.239,38.643"/>
	<path fill="#231F20" d="M-75.81,37.011c-0.317-0.249-0.435-0.691-0.257-1.071c0.206-0.443,0.733-0.636,1.177-0.429
		c0.032,0.014,3.264,1.513,6.945,2.692c6.229,1.994,8.567,1.455,9.406,0.957c4.188-2.486,5.967-3.085,6.04-3.109
		c0.124-0.04,0.255-0.053,0.385-0.037l16.812,2.05c0.485,0.06,0.831,0.5,0.772,0.986c-0.06,0.486-0.501,0.831-0.988,0.773
		l-16.596-2.024c-0.519,0.203-2.25,0.944-5.52,2.886c-4.426,2.627-16.627-2.926-18.004-3.567
		C-75.701,37.088-75.759,37.052-75.81,37.011"/>
	<path fill="#231F20" d="M-49.048,46.288c-0.188-0.147-0.329-0.344-0.411-0.579c-0.474-1.357,1.643-4.279,3.5-6.489
		c0.314-0.376,0.871-0.429,1.248-0.11c0.374,0.315,0.423,0.874,0.108,1.249c-1.456,1.733-2.759,3.663-3.087,4.529
		c2.062,0.322,6.469,0.364,10.978-3.668c0.364-0.327,0.923-0.298,1.251,0.069c0.326,0.364,0.295,0.925-0.069,1.251
		c-5.457,4.882-10.873,4.428-12.948,4.005C-48.696,46.5-48.888,46.412-49.048,46.288"/>
	<path fill="#231F20" d="M-38.903,95.878c-1.151-0.902-1.533-3.443-1.264-8.145c0.207-3.609,0.76-7.198,0.764-7.232
		c0.012-0.073,0.031-0.146,0.062-0.213l11.34-26.548c0.19-0.449,0.712-0.659,1.162-0.467c0.449,0.191,0.658,0.713,0.466,1.162
		L-37.669,80.88c-0.089,0.597-0.517,3.562-0.708,6.618c-0.399,6.33,0.577,6.981,0.588,6.99c2.431,0.491,9.959-1.781,12.062-4.467
		c2.271-2.9,13.711-19.118,13.828-19.281c0.281-0.399,0.834-0.495,1.233-0.212c0.397,0.276,0.496,0.834,0.213,1.234
		c-0.472,0.669-11.582,16.414-13.881,19.352c-2.599,3.318-10.86,5.706-13.826,5.104C-38.436,96.163-38.683,96.05-38.903,95.878"/>
	<path fill="#231F20" d="M-38.529,96.047c-0.129-0.1-0.231-0.238-0.291-0.404c-0.16-0.462,0.084-0.969,0.545-1.129
		c0.077-0.027,7.682-2.716,11.372-7.045c3.853-4.52,21.504-25.052,21.683-25.258c0.319-0.372,0.884-0.413,1.248-0.094
		c0.372,0.319,0.413,0.878,0.095,1.248c-0.178,0.208-17.827,20.737-21.677,25.252c-4.006,4.7-11.808,7.455-12.137,7.57
		C-37.986,96.29-38.3,96.227-38.529,96.047"/>
	<path fill="#231F20" d="M-20.464,83.521c-0.238-0.186-0.374-0.486-0.334-0.807c0.061-0.485,0.503-0.83,0.987-0.77
		c1.069,0.132,3.01,0.311,3.712,0.233c0.878-0.269,4.038-3.852,6.133-6.227l0.169-0.191c1.051-1.19,1.984-3.54,2.702-6.796
		c0.557-2.53,0.779-4.711,0.78-4.732c0.05-0.486,0.483-0.842,0.971-0.793c0.486,0.05,0.842,0.482,0.793,0.969
		c-0.038,0.373-0.946,9.156-3.918,12.524l-0.17,0.191c-4.075,4.62-5.991,6.66-7.229,6.811c-1.128,0.139-3.855-0.193-4.162-0.231
		C-20.193,83.682-20.342,83.617-20.464,83.521"/>
	<path fill="#231F20" d="M1.945-29.377c-0.148-0.116-0.276-0.251-0.383-0.401C-0.071-32.09,1.61-42.802,1.963-44.927
		c0.07-0.418,0.426-0.729,0.851-0.74c0.424-0.011,0.797,0.28,0.889,0.695c0.435,1.959,1.535,5.39,2.641,6.257
		c0.577,0.451,2.429,0.885,3.917,1.233c1.948,0.456,3.633,0.851,4.48,1.515c0.819,0.642,0.767,1.445,0.444,1.983
		c-0.953,1.59-6.418,4.341-9.91,4.987C3.729-28.709,2.64-28.834,1.945-29.377 M3.146-40.72c-0.569,4.633-0.76,9.037-0.136,9.919
		c0.006,0.009,0.015,0.019,0.027,0.028c0.041,0.032,0.445,0.308,1.914,0.035c3.167-0.587,7.508-2.909,8.536-3.94
		c-0.679-0.387-2.304-0.768-3.632-1.078c-1.912-0.448-3.72-0.872-4.604-1.565C4.393-37.993,3.684-39.353,3.146-40.72"/>
	<path fill="#231F20" d="M9.405-39.784c-0.017-0.013-0.033-0.027-0.05-0.042l-2.602-2.355c-0.363-0.328-0.39-0.888-0.062-1.251
		c0.327-0.362,0.884-0.395,1.251-0.062l2.602,2.354c0.362,0.328,0.391,0.888,0.062,1.251C10.292-39.542,9.768-39.5,9.405-39.784"/>
	<path fill="#231F20" d="M-61.252-70.993c-0.741-0.58-1.459-1.424-2.145-2.524c-0.809-1.295-1.279-2.483-1.299-2.532l-2.889-7.888
		c-0.512-0.653-1.05-1.951-0.297-3.33c0.408-0.751,1-0.87,1.316-0.874c1.062-0.014,1.914,1.189,2.268,1.78l3.207,3.844
		c0.402-3.546,1.233-10.339,1.858-12.093c0.374-1.049,0.931-1.619,1.653-1.693c1.043-0.107,1.721,0.913,1.847,1.118
		c0.088,0.145,0.133,0.312,0.13,0.479c-0.064,3.094-0.121,11.533,0.386,13.413c0.655,2.433,1.473,7.704,1.508,7.928
		c0.075,0.483-0.256,0.936-0.739,1.011s-0.937-0.257-1.011-0.74c-0.009-0.054-0.838-5.399-1.468-7.739
		c-0.623-2.313-0.491-11.516-0.453-13.597c-0.05,0.087-0.113,0.219-0.183,0.414c-0.625,1.751-1.651,10.523-1.994,13.756
		c-0.038,0.354-0.283,0.65-0.624,0.754c-0.34,0.104-0.709-0.007-0.937-0.28l-4.588-5.497c-0.032-0.038-0.061-0.079-0.086-0.122
		c-0.176-0.302-0.428-0.624-0.624-0.816c-0.221,0.649,0.214,1.179,0.27,1.243c0.071,0.082,0.135,0.185,0.172,0.285l2.934,8.013
		c0.452,1.144,2.034,4.28,3.807,4.797c0.469,0.137,0.738,0.628,0.603,1.098c-0.138,0.47-0.629,0.739-1.099,0.603
		C-60.246-70.332-60.754-70.603-61.252-70.993"/>
	<path fill="#231F20" d="M43.07,89.206c-1.91-1.496-4.908-4.167-5.107-6.33c-0.045-0.487,0.315-0.919,0.802-0.963
		c0.487-0.046,0.918,0.313,0.963,0.801c0.143,1.559,3.489,4.518,5.833,6.132l7.282,4.399c0.098,0.061,0.185,0.139,0.254,0.231
		c0.046,0.059,0.482,0.587,1.162,0.494c-0.15-0.23-0.42-0.538-0.683-0.771c-0.036-0.031-0.07-0.068-0.103-0.105l-4.517-5.554
		c-0.226-0.275-0.263-0.66-0.095-0.974c0.166-0.314,0.504-0.499,0.859-0.469c3.238,0.281,12.045,0.951,13.884,0.674
		c0.204-0.03,0.345-0.067,0.441-0.101c-2.05-0.358-11.108-1.989-13.262-3.044c-2.176-1.066-7.263-2.902-7.313-2.921
		c-0.459-0.166-0.699-0.673-0.532-1.133c0.165-0.462,0.673-0.7,1.133-0.533c0.214,0.076,5.23,1.887,7.493,2.996
		c1.748,0.856,10.044,2.415,13.092,2.943c0.167,0.029,0.323,0.107,0.446,0.219c0.178,0.162,1.051,1.023,0.745,2.027
		c-0.212,0.695-0.877,1.131-1.979,1.298c-1.841,0.278-8.667-0.206-12.226-0.489l3.16,3.885c0.512,0.459,1.53,1.525,1.313,2.566
		c-0.064,0.31-0.296,0.867-1.111,1.125c-1.496,0.474-2.666-0.301-3.212-0.93l-7.173-4.331c-0.013-0.011-0.027-0.019-0.042-0.029
		C44.396,90.194,43.816,89.79,43.07,89.206"/>
	<path fill="#231F20" d="M-21.464-0.767c-0.237-0.186-0.372-0.488-0.333-0.808c0.563-4.531,5.594-10.998,5.809-11.272
		c0.022-0.029,0.047-0.057,0.074-0.084l16.85-16.653c0.348-0.344,0.91-0.339,1.252,0.007c0.345,0.348,0.342,0.909-0.007,1.253
		l-16.808,16.612c-0.434,0.562-4.931,6.486-5.412,10.355c-0.061,0.485-0.503,0.83-0.988,0.77
		C-21.192-0.607-21.342-0.671-21.464-0.767"/>
	<path fill="#231F20" d="M-54.814,20.545c-0.37-0.29-0.451-0.822-0.176-1.21l4.688-6.605c0.283-0.399,0.836-0.492,1.235-0.21
		c0.394,0.279,0.493,0.836,0.21,1.235l-4.688,6.605c-0.283,0.4-0.837,0.494-1.235,0.21C-54.792,20.562-54.802,20.555-54.814,20.545"
		/>
	<path fill="#F6951F" d="M-65.285-57.885c0,0-4.547-3.56-8.163,2.259c-3.616,5.82-15.982,26.417-15.982,26.417
		s-0.613,1.024,0.527,1.729c1.141,0.706,2.104-0.044,2.104-0.044l21.238-21.361C-65.561-48.885-60.307-55.116-65.285-57.885"/>
	<path fill="#6EBE44" d="M-54.636-65.721c0,0-6.337-4.397-6.407-6.71c-0.07-2.312-1.326-7.432-2.674-8.113
		c-1.35-0.679-3.012-0.477-3.834,0.572c-0.822,1.05-0.884,4.011-0.483,4.7s4.75,5.224,4.968,6.146
		c0.218,0.923-0.745,1.674-0.745,1.674s-2.672-1.152-3.712-1.026c-1.039,0.127-3.209,0.497-2.94,1.836
		c0.269,1.338,1.201,2.069,2.474,2.125c1.271,0.057,4.381-1.271,4.573-0.556c0.192,0.715,1.566,1.602,0.77,2.86
		c-0.796,1.257-3.687,3.508-3.687,3.508l2.048,1.228c0,0,2.34-4.188,3.261-4.405c0.924-0.219,1.973,0.603,1.973,0.603
		s0.48,3.95,1.465,5.095c0.982,1.146,1.591,1.812,2.362,0.345c0.771-1.464,0.97-2.438,0.427-3.426
		c-0.542-0.989-1.835-2.941-1.835-2.941s1.188-1.515,2.496-0.303c1.308,1.212,6.56,3.632,7.989,3.247s2.119-0.786,2.916-2.043
		c0.796-1.257-1.246-4.173-1.896-4.304c-0.648-0.133-4.233-0.118-4.948,0.074C-50.794-65.345-54.636-65.721-54.636-65.721"/>
	<path fill="#EBA4C9" d="M-94.427-18.264c0.323-0.076,8.968,1.758,12.001-0.195c3.032-1.95,8.239-5.96,8.239-5.96
		s3.282-2.51,6.359-2.356c3.078,0.153,8.943,1.549,8.943,1.549s5.627,2.901,5.703,3.524s1.15,1.654,1.028,3.25
		c-0.123,1.598,0.202,1.664-0.919,2.854c-1.12,1.192-3.188,2.393-4.487,2.129c-1.298-0.263-6.783-2.866-6.783-2.866
		s-8.701,3.906-9.066,4.374c-0.364,0.466-9.146,1.112-9.146,1.112s-12.061-1.168-12.928-2.223c-0.867-1.056-0.979-2.834-0.979-2.834
		S-95.349-18.045-94.427-18.264"/>
	<path fill="#E51F26" d="M-10.814,52.093c-0.437-0.342-0.899-0.625-1.38-0.854c-0.107-2.303-1.141-4.504-3.041-5.991
		c-3.573-2.798-8.862-2.014-11.811,1.753c-0.783,1.001-1.321,2.11-1.624,3.254c-0.487,0.326-0.933,0.732-1.312,1.219
		c-1.991,2.543-1.465,6.28,1.175,8.348c1.726,1.351,3.927,1.653,5.801,0.991c0.44,1.397,1.285,2.676,2.516,3.64
		c3.316,2.596,8.171,1.935,10.844-1.479C-6.977,59.561-7.499,54.689-10.814,52.093"/>
	<path fill="#FFFFFF" d="M1.791-22.656c-0.422,0.539-1.248,0.595-1.846,0.127c-0.599-0.469-0.741-1.283-0.32-1.822
		c0.422-0.539,1.248-0.596,1.847-0.127C2.07-24.009,2.213-23.193,1.791-22.656"/>
	<path fill="#FFFFFF" d="M-4.755-16.08c-0.421,0.537-1.248,0.595-1.846,0.127c-0.598-0.469-0.741-1.284-0.319-1.823
		c0.421-0.537,1.247-0.595,1.846-0.127C-4.477-17.433-4.334-16.618-4.755-16.08"/>
	<path fill="#FFFFFF" d="M-12.403-8.096c-0.421,0.538-1.247,0.595-1.846,0.128c-0.598-0.47-0.741-1.284-0.319-1.823
		c0.421-0.538,1.248-0.595,1.846-0.127C-12.125-9.449-11.981-8.634-12.403-8.096"/>
	<path fill="#FFFFFF" d="M-17.283,1.707c-0.422,0.537-1.248,0.595-1.846,0.126c-0.599-0.468-0.741-1.284-0.319-1.822
		c0.421-0.538,1.247-0.596,1.846-0.126C-17.005,0.352-16.862,1.167-17.283,1.707"/>
	<path fill="#FFFFFF" d="M-23.115,14.954c-0.422,0.538-1.248,0.595-1.846,0.126c-0.599-0.469-0.742-1.282-0.32-1.822
		c0.422-0.538,1.248-0.595,1.846-0.126C-22.837,13.6-22.694,14.415-23.115,14.954"/>
	<path fill="#FFFFFF" d="M-26.498,24.182c-0.421,0.538-1.248,0.594-1.846,0.126s-0.741-1.283-0.319-1.822
		c0.422-0.537,1.247-0.596,1.846-0.127C-26.219,22.828-26.077,23.643-26.498,24.182"/>
	<path fill="#231F20" d="M-31.81,13.059c-0.323-0.253-0.437-0.705-0.249-1.087c4.188-8.521,9.932-11.2,10.175-11.311
		c0.445-0.202,0.97-0.004,1.172,0.441c0.202,0.444,0.005,0.969-0.438,1.172c-0.065,0.031-5.434,2.577-9.316,10.479
		c-0.217,0.438-0.747,0.619-1.187,0.405C-31.711,13.129-31.763,13.096-31.81,13.059"/>
	<path fill="#231F20" d="M-89.135-26.626c-0.28-0.219-0.411-0.595-0.303-0.955c0.144-0.469,0.638-0.731,1.106-0.59
		c1.007,0.307,1.691-0.55,1.699-0.559c0.021-0.028,0.045-0.054,0.069-0.079c0.164-0.165,16.47-16.54,20.638-21.38
		c1.257-1.461,1.84-2.886,1.733-4.24c-0.134-1.705-1.339-2.771-1.351-2.781c-0.374-0.316-0.42-0.876-0.104-1.248
		c0.31-0.365,0.849-0.417,1.222-0.126c0.009,0.008,0.018,0.015,0.027,0.022c0.072,0.061,1.777,1.534,1.971,3.994
		c0.145,1.842-0.581,3.704-2.157,5.534c-4.155,4.827-19.647,20.393-20.691,21.442c-0.555,0.676-1.89,1.629-3.573,1.115
		C-88.955-26.509-89.051-26.56-89.135-26.626"/>
	<path fill="#231F20" d="M-89.576-27.001c-0.081-0.063-0.153-0.144-0.21-0.236c-0.915-1.502-0.326-3.033,0.189-3.738
		c0.755-1.272,11.964-20.159,15.601-25.388c1.38-1.982,3.001-3.15,4.821-3.469c2.43-0.427,4.281,0.857,4.358,0.912
		c0.4,0.283,0.495,0.835,0.212,1.235c-0.281,0.398-0.831,0.494-1.229,0.215c-0.015-0.01-0.93-0.628-2.192-0.675
		c-1.665-0.061-3.184,0.88-4.516,2.794c-3.647,5.244-15.438,25.121-15.556,25.321c-0.017,0.03-0.037,0.06-0.059,0.087
		c-0.062,0.086-0.643,0.921-0.117,1.785c0.254,0.417,0.122,0.962-0.296,1.217C-88.893-26.746-89.294-26.781-89.576-27.001"/>
	<path fill="#231F20" d="M-66.863-58.002c-0.087-0.068-0.163-0.154-0.222-0.255c-0.245-0.423-0.099-0.966,0.325-1.209
		c2.738-1.578,3.545-3.611,3.228-4.306c-0.158-0.347-0.848-0.367-1.754-0.052c-2.409,0.84-4.582,0.002-5.485-1.26
		c-0.649-0.908-0.635-2.007,0.039-2.867c1.636-2.09,3.854-1.132,5.321-0.5c0.477,0.206,1.276,0.551,1.49,0.474
		c0.166-0.132,0.174-0.219,0.178-0.266c0.074-0.831-1.873-3.007-3.036-4.306c-1.528-1.706-2.888-4.566-2.263-6.817
		c0.344-1.239,1.228-2.109,2.557-2.519c1.133-0.349,2.211-0.206,3.12,0.415c1.153,0.786,2.029,2.326,2.602,4.573
		c0.36,1.41,0.482,2.647,0.509,2.948c0.101,0.434,0.971,3.887,3.493,5.608c0.402,0.274,0.509,0.827,0.232,1.23
		c-0.275,0.405-0.826,0.509-1.23,0.233c-3.284-2.239-4.203-6.578-4.241-6.761c-0.007-0.037-0.013-0.074-0.016-0.113
		c-0.102-1.364-0.728-5.147-2.349-6.257c-0.466-0.319-0.974-0.376-1.599-0.184c-0.743,0.229-1.191,0.654-1.371,1.3
		c-0.371,1.335,0.436,3.553,1.875,5.16c2.19,2.445,3.615,4.159,3.481,5.646c-0.037,0.411-0.217,1.008-0.863,1.51
		c-0.961,0.75-2.136,0.242-3.271-0.248c-1.651-0.713-2.509-0.948-3.225-0.034c-0.127,0.162-0.242,0.395,0.009,0.744
		c0.434,0.607,1.794,1.199,3.461,0.617c2.798-0.974,3.729,0.51,3.947,0.988c0.975,2.13-1.245,5.017-3.952,6.577
		C-66.198-57.748-66.588-57.787-66.863-58.002"/>
	<path fill="#231F20" d="M-64.855-56.43c-0.276-0.217-0.409-0.585-0.306-0.944c0.866-3.003,3.136-5.848,5.436-5.415
		c0.519,0.099,2.182,0.646,1.906,3.596c-0.164,1.759,0.737,2.936,1.43,3.213c0.399,0.158,0.598-0.009,0.725-0.171
		c0.764-0.975,0.19-1.957-0.842-3.46c-0.726-1.058-1.478-2.151-0.994-3.236c0.318-0.716,0.836-0.992,1.214-1.099
		c1.383-0.39,3.075,0.708,6.196,2.847c1.526,1.046,3.858,1.298,5.199,0.561c0.737-0.405,1.078-1.047,1.047-1.963
		c-0.024-0.683-0.259-1.18-0.738-1.563c-0.007-0.005-0.014-0.01-0.021-0.016c-1.492-1.169-4.806-0.869-5.962-0.652
		c-0.011,0.002-0.022,0.004-0.033,0.006c-0.193,0.028-4.76,0.654-8.378-3.17c-0.336-0.355-0.32-0.916,0.035-1.252
		c0.355-0.337,0.917-0.319,1.252,0.034c2.903,3.069,6.521,2.674,6.82,2.636c0.604-0.113,5.001-0.842,7.357,1.003
		c0.011,0.009,0.022,0.018,0.033,0.027c0.875,0.7,1.36,1.698,1.402,2.885c0.057,1.582-0.641,2.853-1.962,3.579
		c-1.932,1.062-4.965,0.782-7.056-0.651c-1.566-1.074-4.186-2.87-4.721-2.602c-0.007,0.004-0.035,0.037-0.069,0.113
		c-0.038,0.238,0.51,1.035,0.837,1.512c0.954,1.388,2.395,3.487,0.774,5.554c-0.673,0.86-1.735,1.137-2.773,0.724
		c-1.439-0.571-2.775-2.482-2.539-5.022c0.089-0.955-0.095-1.617-0.471-1.688c-0.75-0.142-2.53,1.129-3.405,4.165
		c-0.136,0.47-0.626,0.741-1.097,0.606C-64.668-56.309-64.768-56.363-64.855-56.43"/>
	<path fill="#231F20" d="M-96.263-12.38c-0.448-0.351-0.813-0.813-1.067-1.366c-0.562-1.212-0.514-2.678,0.128-4.022
		c0.986-2.063,2.604-1.889,5.541-1.572c1.088,0.117,2.441,0.262,4.123,0.353c4.567,0.246,9.09-3.27,12.392-5.836
		c0.835-0.648,1.624-1.262,2.321-1.742c3.758-2.591,9.864-0.804,10.122-0.726c0.12,0.037,2.784,0.868,5.555,2.193
		c3.983,1.909,6.036,3.785,6.273,5.733c0.436,3.571-1.277,5.93-4.823,6.641c-2.416,0.485-8.349-2.11-9.514-2.635
		c-0.041-0.02-0.08-0.04-0.117-0.063c-0.886,0.429-1.781,0.879-2.671,1.325c-1.579,0.792-3.21,1.612-4.83,2.35
		c-7.797,3.56-22.009,0.04-22.148,0.003C-95.456-11.872-95.888-12.086-96.263-12.38 M-54.321-21.367
		c-0.888-0.694-2.102-1.42-3.595-2.135c-2.652-1.271-5.277-2.088-5.304-2.096c-0.047-0.015-5.545-1.618-8.6,0.489
		c-0.656,0.452-1.427,1.05-2.24,1.683c-3.521,2.737-8.346,6.486-13.573,6.206c-1.729-0.093-3.108-0.241-4.219-0.36
		c-2.998-0.324-3.348-0.27-3.751,0.574c-0.414,0.867-0.458,1.783-0.12,2.516c0.173,0.371,0.52,0.852,1.199,1.031
		c2.828,0.751,14.673,2.967,20.958,0.098c1.59-0.726,3.207-1.536,4.771-2.322c5.385-2.702,10.471-5.255,13.846-3.979
		c0.457,0.173,0.688,0.684,0.514,1.142c-0.173,0.457-0.684,0.688-1.142,0.515c-1.758-0.664-4.539,0.213-7.618,1.584
		c2.531,1.043,5.931,2.202,7.148,1.958c2.653-0.532,3.738-2.021,3.414-4.69C-52.714-19.808-53.302-20.568-54.321-21.367"/>
	<path fill="#231F20" d="M-96.025-17.871c-0.316-0.247-0.433-0.688-0.258-1.067c0.203-0.445,0.729-0.64,1.174-0.435
		c0.128,0.058,9.614,4.299,18.506,1.021c3.672-1.354,5.922-2.766,7.909-4.01c2.954-1.854,5.287-3.318,10.298-3.023
		c0.488,0.029,0.861,0.448,0.833,0.936c-0.028,0.489-0.447,0.861-0.937,0.832c-4.446-0.26-6.358,0.939-9.254,2.756
		c-1.957,1.229-4.392,2.755-8.237,4.174c-9.606,3.541-19.444-0.885-19.858-1.076C-95.913-17.792-95.972-17.829-96.025-17.871"/>
	<path fill="#FFFFFF" d="M-60.139,4.021c-3.524,1.219-6.505,0.426-7.361-2.053c-0.856-2.482,0.971-5.641,4.496-6.858
		c3.522-1.217,7.562-0.349,8.418,2.131C-53.73-0.281-56.616,2.804-60.139,4.021"/>
	<path fill="#231F20" d="M-66.858,4.346c-0.689-0.539-1.188-1.242-1.479-2.09c-1.062-3.074,1.199-6.655,5.043-7.983
		c2.969-1.027,6.248-0.71,8.158,0.784c0.666,0.522,1.134,1.159,1.386,1.894c0.511,1.476,0.05,3.154-1.297,4.729
		c-1.173,1.372-2.924,2.53-4.804,3.179C-62.652,5.828-65.207,5.64-66.858,4.346 M-56.229-3.547c-1.41-1.104-4.139-1.316-6.487-0.506
		c-2.558,0.885-4.753,3.397-3.947,5.732c0.18,0.519,0.481,0.947,0.896,1.272c1.153,0.903,3.147,0.99,5.337,0.232
		c1.592-0.55,3.062-1.518,4.035-2.656c0.533-0.624,1.37-1.844,0.971-2.999C-55.564-2.876-55.836-3.239-56.229-3.547"/>
	<path fill="#FFFFFF" d="M-54.958,32.351c1.021-3.586,3.597-4.957,6.12-4.24c2.523,0.719,3.846,3.409,2.826,6.994
		c-1.021,3.586-4.044,6.398-6.568,5.683C-55.103,40.07-55.979,35.936-54.958,32.351"/>
	<path fill="#231F20" d="M-54.098,40.986c-2.009-1.573-2.729-5.306-1.713-8.877c1.255-4.41,4.528-5.614,7.215-4.85
		c0.655,0.187,1.251,0.487,1.768,0.891c1.903,1.49,2.526,4.181,1.668,7.198c-1.334,4.688-5.038,7.038-7.662,6.291
		C-53.281,41.508-53.712,41.289-54.098,40.986 M-47.92,29.544c-0.336-0.262-0.727-0.458-1.161-0.581
		c-2.244-0.638-4.217,0.787-5.026,3.631c-0.8,2.813-0.316,5.887,1.101,6.996c0.206,0.161,0.431,0.277,0.669,0.345
		c1.951,0.555,4.561-1.863,5.473-5.072C-46.21,32.564-46.604,30.575-47.92,29.544"/>
	<path fill="#231F20" d="M-29.896,60.895c-3.152-2.469-3.57-7.218-0.933-10.586c1.477-1.886,3.643-3.014,5.945-3.096
		c0.488-0.016,0.898,0.366,0.916,0.854c0.018,0.489-0.365,0.899-0.854,0.917c-1.777,0.062-3.458,0.943-4.611,2.416
		c-2.036,2.601-1.754,6.234,0.629,8.101c1.749,1.369,3.738,1.466,5.752,0.278c0.421-0.248,0.965-0.107,1.213,0.312
		c0.249,0.422,0.108,0.966-0.313,1.214C-24.809,62.872-27.558,62.726-29.896,60.895"/>
	<path fill="#231F20" d="M-20.635,65.289c-2.473-1.936-3.629-5.121-3.019-8.314c0.092-0.48,0.556-0.795,1.037-0.704
		c0.479,0.093,0.796,0.557,0.703,1.038c-0.485,2.538,0.423,5.061,2.371,6.586c2.926,2.291,7.274,1.643,9.692-1.446
		c2.418-3.09,2.006-7.466-0.921-9.758c-0.881-0.688-1.934-1.14-3.047-1.301c-0.484-0.072-0.819-0.521-0.749-1.006
		c0.071-0.484,0.521-0.819,1.004-0.749c1.417,0.207,2.761,0.782,3.884,1.661c3.695,2.894,4.243,8.386,1.224,12.243
		C-11.476,67.396-16.941,68.182-20.635,65.289"/>
	<path fill="#231F20" d="M-29.072,50.167c-0.255-0.198-0.39-0.529-0.325-0.866c0.276-1.419,0.897-2.777,1.797-3.926
		c3.105-3.967,8.814-4.701,12.727-1.639c2.432,1.904,3.454,3.987,3.32,6.753c-0.025,0.487-0.44,0.864-0.929,0.841
		c-0.489-0.024-0.866-0.438-0.843-0.928c0.107-2.19-0.658-3.718-2.642-5.271c-3.142-2.46-7.736-1.861-10.239,1.337
		c-0.738,0.942-1.228,2.009-1.452,3.17c-0.094,0.48-0.558,0.795-1.038,0.7C-28.839,50.31-28.966,50.25-29.072,50.167"/>
	<path fill="#00AF4D" d="M-16.341,47.84c0,0,3.931-8.671,11.266-5.468C-5.075,42.374-6.848,48.288-16.341,47.84"/>
	<path fill="#00AF4D" d="M-16.886,48.539c-0.083-0.065-0.154-0.145-0.211-0.235c-0.152-0.25-0.172-0.561-0.051-0.828
		c0.043-0.095,1.079-2.351,3.085-4.218c2.765-2.571,5.994-3.156,9.342-1.696c0.411,0.179,0.623,0.636,0.494,1.066
		c-0.08,0.268-2.088,6.571-12.156,6.098C-16.568,48.716-16.745,48.649-16.886,48.539 M-6.272,42.87
		c-4.418-1.378-7.333,2.126-8.579,4.104C-9.24,46.832-7.033,44.204-6.272,42.87"/>
	<path fill="#FFCD02" d="M25.761,67.469c0,0-0.848-2.569-4.861-1.902c-4.015,0.667-13.491,1.821-18.141,8.976
		c-4.65,7.155-6.706,12.213-5.875,13.181c0.829,0.968,1.463,1.78,3.312-0.581c1.85-2.362,12.713-12.588,16.644-13.958
		c3.928-1.368,7.311-2.849,7.311-2.849s0.968-0.829,2.909,1.962l2.294,2.748l2.466-3.15L25.761,67.469z"/>
	<path fill="#231F20" d="M-2.987,89.126c-0.286-0.226-0.528-0.506-0.762-0.778l-0.04-0.048c-0.47-0.547-0.81-1.632,0.742-5.199
		c1.075-2.472,2.826-5.6,5.062-9.04c4.61-7.094,13.68-8.552,18.038-9.253c0.248-0.04,0.482-0.078,0.699-0.114
		c2.392-0.397,3.838,0.259,4.629,0.878c0.604,0.473,0.933,0.999,1.093,1.322l5.868,4.287c0.191,0.138,0.321,0.355,0.354,0.594
		c0.033,0.238-0.031,0.479-0.179,0.666l-2.466,3.15c-0.165,0.211-0.417,0.336-0.684,0.34c-0.268,0.004-0.523-0.111-0.693-0.318
		l-2.294-2.748c-0.017-0.02-0.032-0.041-0.047-0.062c-0.449-0.646-0.868-1.122-1.245-1.418c-0.258-0.201-0.43-0.264-0.506-0.275
		c-0.024,0.014-0.051,0.025-0.076,0.037c-0.034,0.016-3.458,1.511-7.375,2.875c-1.567,0.546-4.778,2.891-8.808,6.435
		c-3.503,3.078-6.583,6.15-7.43,7.231C0.299,88.448-1.279,90.463-2.987,89.126 M-2.403,87.195c0.186,0.217,0.361,0.421,0.508,0.536
		c0.074,0.059,0.106,0.067,0.107,0.066c0,0,0.36-0.018,1.287-1.201c1.044-1.332,4.406-4.614,7.655-7.47
		c3.011-2.647,7.087-5.974,9.395-6.776c3.575-1.246,6.733-2.603,7.189-2.801c0.354-0.205,1.226-0.51,2.441,0.442
		c0.51,0.398,1.042,0.993,1.585,1.768l1.566,1.879l1.228-1.567l-5.32-3.886c-0.149-0.108-0.262-0.263-0.32-0.438
		c0-0.004-0.154-0.41-0.63-0.781c-0.732-0.574-1.854-0.756-3.245-0.524c-0.22,0.037-0.457,0.075-0.709,0.115
		c-4.106,0.66-12.652,2.033-16.833,8.469C-1.402,82.573-2.586,86.44-2.403,87.195"/>
</g>
</svg>
