<?xml version="1.0" encoding="utf-8"?>
<!-- Generator: Adobe Illustrator 16.0.0, SVG Export Plug-In . SVG Version: 6.00 Build 0)  -->
<!DOCTYPE svg PUBLIC "-//W3C//DTD SVG 1.1//EN" "http://www.w3.org/Graphics/SVG/1.1/DTD/svg11.dtd" [
	<!ENTITY ns_extend "http://ns.adobe.com/Extensibility/1.0/">
	<!ENTITY ns_ai "http://ns.adobe.com/AdobeIllustrator/10.0/">
	<!ENTITY ns_graphs "http://ns.adobe.com/Graphs/1.0/">
	<!ENTITY ns_vars "http://ns.adobe.com/Variables/1.0/">
	<!ENTITY ns_imrep "http://ns.adobe.com/ImageReplacement/1.0/">
	<!ENTITY ns_sfw "http://ns.adobe.com/SaveForWeb/1.0/">
	<!ENTITY ns_custom "http://ns.adobe.com/GenericCustomNamespace/1.0/">
	<!ENTITY ns_adobe_xpath "http://ns.adobe.com/XPath/1.0/">
]>
<svg version="1.1" id="Layer_1" xmlns:x="&ns_extend;" xmlns:i="&ns_ai;" xmlns:graph="&ns_graphs;"
	 xmlns="http://www.w3.org/2000/svg" xmlns:xlink="http://www.w3.org/1999/xlink" x="0px" y="0px" width="595.279px"
	 height="841.89px" viewBox="0 0 595.279 841.89" enable-background="new 0 0 595.279 841.89" xml:space="preserve">
<metadata><?xpacket begin="﻿" id="W5M0MpCehiHzreSzNTczkc9d"?>
<x:xmpmeta xmlns:x="adobe:ns:meta/" x:xmptk="Adobe XMP Core 5.3-c011 66.145661, 2012/02/06-14:56:27        ">
   <rdf:RDF xmlns:rdf="http://www.w3.org/1999/02/22-rdf-syntax-ns#">
      <rdf:Description rdf:about=""
            xmlns:dc="http://purl.org/dc/elements/1.1/">
         <dc:format>image/svg+xml</dc:format>
         <dc:title>
            <rdf:Alt>
               <rdf:li xml:lang="x-default">Print</rdf:li>
            </rdf:Alt>
         </dc:title>
      </rdf:Description>
      <rdf:Description rdf:about=""
            xmlns:xmp="http://ns.adobe.com/xap/1.0/"
            xmlns:xmpGImg="http://ns.adobe.com/xap/1.0/g/img/">
         <xmp:MetadataDate>2018-09-05T11:33:59-03:00</xmp:MetadataDate>
         <xmp:ModifyDate>2018-09-05T11:33:59-03:00</xmp:ModifyDate>
         <xmp:CreateDate>2018-09-05T11:33:59-03:00</xmp:CreateDate>
         <xmp:CreatorTool>Adobe Illustrator CS6 (Macintosh)</xmp:CreatorTool>
         <xmp:Thumbnails>
            <rdf:Alt>
               <rdf:li rdf:parseType="Resource">
                  <xmpGImg:width>132</xmpGImg:width>
                  <xmpGImg:height>256</xmpGImg:height>
                  <xmpGImg:format>JPEG</xmpGImg:format>
                  <xmpGImg:image>/9j/4AAQSkZJRgABAgEASABIAAD/7QAsUGhvdG9zaG9wIDMuMAA4QklNA+0AAAAAABAASAAAAAEA&#xA;AQBIAAAAAQAB/+4ADkFkb2JlAGTAAAAAAf/bAIQABgQEBAUEBgUFBgkGBQYJCwgGBggLDAoKCwoK&#xA;DBAMDAwMDAwQDA4PEA8ODBMTFBQTExwbGxscHx8fHx8fHx8fHwEHBwcNDA0YEBAYGhURFRofHx8f&#xA;Hx8fHx8fHx8fHx8fHx8fHx8fHx8fHx8fHx8fHx8fHx8fHx8fHx8fHx8fHx8f/8AAEQgBAACEAwER&#xA;AAIRAQMRAf/EAaIAAAAHAQEBAQEAAAAAAAAAAAQFAwIGAQAHCAkKCwEAAgIDAQEBAQEAAAAAAAAA&#xA;AQACAwQFBgcICQoLEAACAQMDAgQCBgcDBAIGAnMBAgMRBAAFIRIxQVEGE2EicYEUMpGhBxWxQiPB&#xA;UtHhMxZi8CRygvElQzRTkqKyY3PCNUQnk6OzNhdUZHTD0uIIJoMJChgZhJRFRqS0VtNVKBry4/PE&#xA;1OT0ZXWFlaW1xdXl9WZ2hpamtsbW5vY3R1dnd4eXp7fH1+f3OEhYaHiImKi4yNjo+Ck5SVlpeYmZ&#xA;qbnJ2en5KjpKWmp6ipqqusra6voRAAICAQIDBQUEBQYECAMDbQEAAhEDBCESMUEFURNhIgZxgZEy&#xA;obHwFMHR4SNCFVJicvEzJDRDghaSUyWiY7LCB3PSNeJEgxdUkwgJChgZJjZFGidkdFU38qOzwygp&#xA;0+PzhJSktMTU5PRldYWVpbXF1eX1RlZmdoaWprbG1ub2R1dnd4eXp7fH1+f3OEhYaHiImKi4yNjo&#xA;+DlJWWl5iZmpucnZ6fkqOkpaanqKmqq6ytrq+v/aAAwDAQACEQMRAD8A9U4q84/Mj83B5f1CPy15&#xA;btBrPnC5XktpWkFqhFRLdMCKdahKio6kVFVXn9x5M8y+Yybjzx5lvNQeTc6ZZSG1sEH8ojQDn/rU&#xA;B8cNLakfyX/L0Ivo2EkEq/ZnjubgODTqOTsv4Y0toq1T8zfJR+teWtZm8w6ZHvNoGrv6rlB1Fvcb&#xA;MrU6DYezdMaW3rP5e/mJofnfR2vdP5W93bt6Wo6ZNtPbS7/C6+BoeLd/mCAFSv8ANb84dC/Lu0tD&#xA;eW8l9qF9yNrZQsqVWMjm7ua8V+Kg2NT9OKQG/wArPzg8v/mJb3n6Pgmsr2wKfWbOfiTwkrxdGU/E&#xA;tVIPSh+jFSGeYodirsVdirsVdirsVdirsVY7+Yfm+Hyh5M1TzDIod7KH/R4m6PPIRHChpvQyMK+2&#xA;KvIfI+gNo2kzaxrUok17Va32t385CsGf4yhY0CrGDv2rXthUlJ9T/Ne2ubsWPl6WyRSaNrOqzi2s&#xA;1oSCY0JE09CKHgKY2tMk8v8A5e6d5ntze6j52uPMKVAkg0meO1s1J/YZLcs5I/ymBwJTofkX+VtP&#xA;i0Ys/wDv1ru8Mm3g/rch9BxW2EeadL0P8m/NmgeatEubmO21C4az1jTJZWmEtpxBd0LfFWLYgMx3&#xA;49N8VZd+fP5L6n+YR0zVdBu7eO/s42hdLhmWKWBzzQo6LJ8SmvahB67bqgvIk/Kb89fyzj/xFoLh&#xA;pGiK3q6awuXRK14ywSJSQDrVVanXbFNqfkX86fPyapF6fmCW61e5lEb6TrJD2NyzHiqxTLwNq5Jo&#xA;AQE7s/bFafQHlb86vL+o6gND8xW8vlXzMvwvpmpfAjt0/cTkKkgP7PQt2BxRT0TFDsVdirsVdirs&#xA;Vdirx3/nJrUbe18teXI7timny67avfsAT+4iSRnHEA18foxSEo0Dyhqvn1otY80RyWPlaok03y9U&#xA;pJcqN1mvSN+J6rGP+uihg35leSPMH5f69d+YfLL2A0u/keYLcJaevbGSOSKSGMXAqYisxoE9qj4Q&#xA;cDIPPfy3HmfTPMMGo6Nq+naU8TATy31/bQwPH+0ksZk5yIfBVJ7ih3xV775v/Oiwveei+TL6H61J&#xA;8N15hnZY7KzT9plaWgmkp9lV2712OKHlPn/z4uqacNI16S181i2E0ek69bGeyeGd1A5ShUa3mpRT&#xA;RTT3xSHt3/OP35uaR5m8s2Pl69nS38xaVAlt6DnibmKFeKSxVPxNwUcx1rv0OKCHr+KHz35s/KW6&#xA;8t+erzzhB5Xh82aBPefpJrOCSWK/tJWPOQxxqwSdPU+NU4t4fCKkqbeg22qfld+cOg3FiypdvCrC&#xA;azuU9K/spGHHmAfiRgf2kJWu1T0xVjn5cfmdpflO0vvI/nvVYbTVfLUwtLS9mJ43VmRWB1IruqfC&#xA;QegpXeuKvZI5I5Y1kjYPG4DI6kFWUioII6g4oXYq7FXYq7FXYq8x/wCciNKnuvy/XVIIRcS+Xr+2&#xA;1YwMAQ8cDFJAQf2QkhZvYYpC7zh59h0zyKvmLSVF5NqCQx6LF2lnu6CEEVGw5cmFe1MUMM0n8vtJ&#xA;Vv0j5gjXXfMFxSS91C9AmHqHfjEjjgiKdlAXphW1bzF5O0m40HUYNM0uyi1GW2lS0kEESkSlCEIb&#xA;j8Jr37Yot535R/MHyTYxW+hyflTBqXmK1X0p/UYTSSyovF3kWeGVkqdzWoXAzYf+a35ieYvNeoW1&#xA;nqWnQ6LZ6SHSz0e3jMaxGSnNmqByY8RuABToOtVQwaOR43WSNikiEMjqaEEbggjFLMdJ/OX80tKR&#xA;Us/Mt6UT7KzuLkADsBOJNsUUz3yj/wA5XeeLC8iXzJDBrOnkgTuka29yB05IY+MRPfiU38RitMy/&#xA;O6Y/onSPzV8i6g9iNTi/RuqX9sArPaXP2HkHVXidChP2g3HcccUB5EmgaaLeSNoxLJMG9S5k+OVm&#xA;bq3I7175KkW+kP8AnHTzdJrXkNdJvH5ap5bk/R9wCakwrvbv8uA4D/VyKS9TxQ7FXYq7FXYqp3Nt&#xA;b3VtLbXMazW86NFNE4qro44srA9QQaYq+VfzGtNc/LVtN8uXqPe+UYNYg1jy7fg1aNInYzWUtRuV&#xA;EvNT479/gUvVba5t7q3iubeRZbeZRJFKhqrKwqGBHYjCxQ2r65pGj2j3Wp3cVrCqswMjBS3EVIRT&#xA;ux9hvirwTzLf3PnnUP0lc28Wn6ePhtUSKM3UkY6NLMRy+Q6D8S0y5Jc/k3SWj4q0qHxDA7+4IpjS&#xA;LSi88k30dTayrOvZW+BvxqPxxpPEkl1p97aNxuYXi7AsNj8j0OBKHxS+pPyS8q6jq35feZ/JWqwz&#xA;foDUbe3vdEv5UPCl/D6nwMRxLQSIjMF251xYl5LpYu4Y5tOvlMeoaZM9leRnqskLcD+rJBBZb+U3&#xA;mb/C35oWMkrcNM8xKNNva/ZWcmts59+dF9gTgKh9Y4FdirsVdirsVdirxr/nKy906H8sktrlQ9zd&#xA;X8Ash3V0DM7j/nnyX/ZYpD5T0Lzd5m0Fq6TqM1qleRhVuURJ7tE/KMn5rimk8aDU/NITWdWujc3k&#xA;8oEsj/CBBHVeEaqAq1I7D+NTSLpkgAUAAUA2AHQDCxdiqCl1nTYbs2s04imUAkOCo3FftEcfxxTS&#xA;L/dyJ2dGHsQRihLLzyxo91U+j6Ln9uL4fw+z+GNJtl/lD8zfzL8m2Vvp2n3Vtq+jWo4Q6fexhGRK&#xA;14xyx8W+XIkDwwUtsa82+dLPVfPVxrraZJoq6tEn6Qt5GEsQuoxx9SORVWqsoFfh6k4hKzU7ddQ0&#xA;1xbuC9BJbSoejpupVh92FAfWf5V+cl84eRNL1piPrbx+jqC9ON1D8Eu3bkRyA8CMirLMVdirsVdi&#xA;rsVfK/8AzmDq8knmfQdHqfStbJ7sDsWuZTH+q2xZB8/4pejeXUCaLaAdCnLbxYkn9eSDApjih2Kq&#xA;VxaWtynC4iSVewcA0+VcVSxvLccLF9OuZbJ+vFSXjPzVuv340m1XSYfOV3qj6VaacdZuY4Guitr8&#xA;MphRgrMFP2iCR8KiuC00qnWLaG6azv45dOvU2ktbyNoZFPuG6YbRSLdIZ4irqssTjcEBlIxQkkek&#xA;Xdhq8TWjSfo2VizwI1FRiO6mtVxpNvYv+cbNbuNP86a15WrXT9Qtv0tAv++50dYpKU/nDf8ACjAU&#xA;vo3Ah2KuxV2KuxV8m/8AOXtnMnnvR70j9xNpawo3i8NxMzD7plxZB4TilkflzzMtoi2V5/vOD+7l&#xA;HVKmtCPDCCxIZmjo6B0YMjCqsDUEHwOFi3irsVad1RGdyFVQSzHoANycVepf841eU7261K/8+3cb&#xA;Q2c8LadoyMKGSMSBppqeHJOK/wCy8MiyZj/zkhpVpeflJrVw8Eb3Vn9XltpmUF4/9JiD8WpUVQsM&#xA;VDHtR/5xq8q6hYxaj5U1K60Ca5iSaOAMbq0+NQw/dyn1O/dz8sVtgOofk3+dGnyvBFpFrqyLXjfW&#xA;11FGhA6ExzNFJX2C4bRQegf84zeUbFNFn86zXP1rWtV52ckQXgLSOGWjQUO/JmRXNfb5kJL27FDs&#xA;VdirsVdiryn/AJyM/Lq483+ShdadEZtZ0RmubaNRV5IWAE8S96kKrAdytO+KQ+LSCDQ9cWTsVTTR&#xA;vMF3prhR+9tifihJ6e6nscQUEMwtNcGousOk2dzqN2wr9XgjZitf5zTb55K2NMp0v8sfPWq0fU7i&#xA;HQrU9Yo6XFyR7kHgPmG+jAuyaaF+X1rrfmM+QtBmnk0u3ZLrzlrUrB5SoI42aOAArOV6D8eLDAl9&#xA;QWFjZ6fZQWNlCtvaWsaxW8CCioiDiqgewGKGL/m9Z/W/yv8ANEP8um3E23/FKGX/AI0xUI78ur36&#xA;95A8t3ZNWm0uzdz1+IwJy3P+VXFWQ4q8m8qf86Z+cut+Vz+70bzah1vRlpRVu1FLuJabVYKX9lVc&#xA;UvWcUOxV2KuxV2KuxV82f85JflX5Jsoj5otL1NJ1vUJeK6WEZ1vpjTkYkjBZH3qzU4k9aE1KkF5H&#xA;5d/JrztrPGSS1GmWx/3beVjYj2iAMn3gDGk29P8AL35DeVNP4yapJLq1wNyr/uYa+yIeR+lzhpjx&#xA;PQ7DTdP0+3W2sLaK1t16RQosa/coGKEh87+ZL3T4bbSNEj+s+Z9af6tpVsu5DNs0zdgsY3qdvori&#xA;kB6h+WnkGy8k+WYtLif6xfysbjVb815XF0/23JO9B0X2964FZXiqC1zT/wBI6JqGn/8ALZbTW/8A&#xA;yNjKeI8fHFWE/wDOP9+b38ovL7NX1II5rZ1PUGCeSMD/AIFRikvQ8UPNfz20a9by1aebNKWuteT7&#xA;lNUtqdWgUj6zGT/KUHJvELTFIZ5oWs2Wt6LY6vYtztL+CO4gJ68ZFDAH3FaHFCOxV2KuxV2KuxV4&#xA;f+dSSaJ+Y/lvzfqUZl8uLavpjz05LZ3TuzrMw7eor8a+Cn2qpTtHV1DoQyMAVYGoIPQg5Ji3iqA1&#xA;zWtP0TSrnVNQk9O1tl5Oe5PRVUd2Y7DArA/+cdPMN95p/NvWNYvrNJW+oObeckn6mglRUij/AGfj&#xA;ViCaVO5/mqGRfT+KHYq7FXgX5a/mJo/kTzp5i/LrzAfqFsNWnn0i/kNIQl0VeKKXtHyQqyt03NaY&#xA;pe+ggio6YoWTwwzwyQTIJIZVKSRsKqysKEEeBGKvLPyUml8v6h5i/LW8cmTy9cm50hm6yabdt6iE&#xA;eJRn+L3amKS9WxQ7FXYq7FXYqhNX0jTdY0y50vU4FurC8jaK4gfoyt+IPcEbg7jFXgM1pqX5W65F&#xA;oGryPc+TL6QroOtyn/edjv8AVblugp+ydh36VClSGaVFK9vHCh87fmx55m8167HomlPz0u0k4IVP&#xA;wzzioaWo/YXov0nvkWQC/wAvw6voFu0Wla3qFh6hDzCzuGt1dwKBmWOnKnYPXDSLZPpv5k/mjpTK&#xA;bTzNPdIDVodRjiulYeBcqsg+hsaW3onlb/nJSASR2vnTTP0aWPE6tY8prSvjJGayxD/gsCXtGnal&#xA;p+pWUN9p9zHd2dwoeG4hYOjqe4ZajFD5Y/5yCGgS/m+1vDIlw93p8UWqwjf07lORjqw6N6IT5YQl&#xA;H/ll+c+q+SXh0TzNJJqHlOojtdRoXuLIE7LJSrSRD7x+z2XEheb6Zsb6yv7OG9sZ47m0uFEkFxEw&#xA;dHU9CrDYjAh5d+bYbyr5u8s/mTACttayjSPMXHvYXRPCRun91ISevXjikPWAQQCDUHcEYodirsVd&#xA;irsVdirxL/nKDzGo0HTPJ8DA3WuXCzXQ2JS0tSHJ9i0nGh/ySMUh4Pc/mZrOm+ULryikzSzpKbeG&#xA;/J+NLPjvHX+b9kHsNvDFaSTyRZK0094wqYwI4/m27H7sIWTL8LF2KuIBBBFQdiDiqJ8ueY/Nnk6e&#xA;e48p3i26XIP1jTZxztHYjiJAn7Lr1qOtKHbAQm2Ma7azQ2B1GSVrjUY7gXl1dSEmSWV2/eMxPiTi&#xA;kFOo3gurdXWkkMy1AO4KsO+FinPkL8wvMP5cXlbQPqXlWVi17o5arwlj8UtsT0PiOh7/AMwBDJ9I&#xA;PceVPzO8g3kNhdJd6Vq9u8BkH24ZSKrzQ7rJE/FqH27YEJR+RvmO81PyWNJ1T4dd8szPo+pxk1bl&#xA;anjG3vWOgr3IOKS9DxQ7FXYq7FXYq+Jfz/8AMGvz/m1rP1rnatZ8bOyToRaqoZGU+EhYyV/ysWQe&#xA;YkkmpNSdycUs18kFf0ZMP2hMSfkUWmEMJMiwodirsVdiq2aJJYnikFUkUqw8QRQ4qlHlzQPMEWj6&#xA;nqGnI2oW+izcdZ05ATNFA4LR3cS94zRuf8tKnY1UMjumlrdW91As8Dh4n6MP1HCxRHl7XfMfkzWT&#xA;rfleUKz/AO9+lyVNvdIOzKCKMOzDf8aghNvSvJX5j6HcfmtaeYtLD2ul+dYl03WrGUUa11m2A9Hk&#xA;aAESoeKEfaJbuCAEvoTFDsVdirsVdirF/PX5a+UPO9j9W16yWSVFItr6P4LmGv8AJIBWld+LVU9x&#xA;ir5W/M3/AJx383eT/Vv9PDa1oK1b6zAh9eFev7+EVNB/OtR3PHpiythnkm9Ed3NaMaCdQyf6ydvp&#xA;B/DCESZBdeYtOtrh4X9RjEQJnRCyIT/MRhtFJjFLHLGssTB43FVYbgjFC7FVrSRqyqzBWc0QEgEn&#xA;2xVdiqK8rea5vJHnOy8zoC+nSAWeuQrU8rWRh8YA6tGQGHjQDAUh6J+aP5IvH6nnD8vI1liuFFxf&#xA;aFDT0pkYcvVtANgaHlwHX9n+UhLxiLUhq9za2cUzaZYTzw22paxNG5is/XYgByo2ait1I6depBJU&#xA;B6t+Y35Gr5T8nS3vlvzUbXSYJIb02OpunB72JaRzW06hRHK/QbUNd2A6BbZj5B/5yS8s6vZWcfmi&#xA;J/L99cLSO8nB+oXDJ8LtHPSifENw+y9ORxWnrv12y+p/XfrEf1Ph6v1nmvpenTlz5148ab1rihWx&#xA;V2KuxV2KuxV8if8AOQPli1svzWZNFtIrCSTTodQVIkEaSTeu6OxAoPipv4nEJt5yxYWNyWp6n6WP&#xA;qDx6be4wqmhsdT0l3fTgLmxYlmsmNGSvX0zhQ22vfWwtvZulpeFuMqXQKsgp+yvRj9ONrSnpljef&#xA;XxcSW5YgkPd3bVkI3/uo12TAqf4ULJ4I54JIZBWORSrD2Ipir37/AJxt8yzap+Xo0q7fle+Xbh9O&#xA;cnq0K0eBvkFbgP8AVyLIvQ9Q8r+XdQ06/wBNvNOt5LLUyW1CH01UTO1Ku5XiS+wo9eQPfFDxf8xv&#xA;yfuvLPkXVbzQvM2pvpWmw/WE8vX5S9sikZBZPTkXjxVd1qpoRXFNvMPJuoz2evaf5bdbSHRNcdJd&#xA;Y0u4uYLvRxazJ8V1EZpC9tPEvRWcvyAFf2cUs1/TLf8AQofo8x9Z9T9HfaWlf0lXjWv++v69MUdX&#xA;0rih2KuxV2KuxV8z/wDOQ6un5t6dKdo30JF5bdVu5mP6xhC9HiVszT6upcEaXcXskkbDo8g+z9GK&#xA;U3n8x3Jmd7Kza5sbduNxOvUnvw+WG0UjvS0jWbVZSiTxnYN0ZT4VHxKcV5IT9EapZb6ZeF4x0tbn&#xA;4lp4BhuMVtdH5h9BxFqls9lIdhJ9uIn2YY2tJtFLFKgkidZEb7LqQQfpGKHof/ON2omz/MPzBpFa&#xA;R6nYRXyjtztpPS29yJmOAp6PpDAqje2VpfWk1neQpcWlwjRTwSqHR0cUZWU7EEYq8J8n/ll+X+uf&#xA;mv5xRdEtm8vaFHbadb2tG9I3TjnO9K/aRkKnFL1z/AHkv/Dv+G/0PbfoLn6n1Dh+758uXLx5V71x&#xA;QyDFXYq7FXYq7FXzL/zlDBL/AI40x1O0ui3Ea068lkc/8bDFLxPVJ/U0rRrS3A9VwGAXajD4AdvF&#xA;icKhlltBBp9gsY+GK3SrN40FWY/PrhYsm8sfkb5j1X8u7bzpoU5/Tt9JPcto0tEinteZWNUO3GT4&#xA;Sy1NCGHTvFkxizvhNJLbzRPa39sxju7KZSksTqaMrK1DsclaCERJHHIhSRQ6N1VgCD9BxQk9xoct&#xA;ozXOjyGCT7T2p3ikp2oeh/z2xpNsu/JDXYpfze8tzIRG15De2lzESKoVgeQKa+LqKYCmn17gQk3n&#xA;HzNZ+V/K+pa/eEejp8DShCac5OkcYPi7kKPnirGPyN8uXuj+Qre61Kp1jXpZNY1JmFGMt4Qy8vA+&#xA;mFqOxrikvQMUOxV2KuxV2KuxV86/85LwkeePK0pIKyWd3Hx/1CpP/E8IV4XpOi3EXmHhMrG3sgxg&#xA;Yg8SrElAD83JxpJOzINTtrrUGtNGst73WLmKytx7zOFqfbxwlAfaej6XaaTpNlpVmvG1sII7aBfB&#xA;IkCL+AyKsD/NT8mNH86xjUbNxpfmi3X/AEbUkFFkoNo7gD7adq9R7jYqXzjeQ6xousSaB5jtDp+s&#xA;w7hG/u5k7SQv0ZWp2/rSQKCFTFDX5a2c9h+dPl65VAIbm9/dv/xkidZB+OAsuj7SwIeQec5f+Vjf&#xA;mNZeR7Q+r5a8typqHmucbpJOtfQsqjY135j590xS9fAAFB0xQ7FXYq7FXYq7FXYq+fP+cn4gnmby&#xA;TOT/AHi6jHx8OKw0+/niEvMckxR3kfR/OOq+dm1PynDb3N/5Tt/rq292D6U0sx4ehUUAd4yxUkjc&#xA;dR1wFkH0v+Xf5iaV510qWeCJ7HVbF/Q1fSJ9p7WcVBRwQpKkqeLUFadiCAEMsxVjPn38vPLfnfRz&#xA;p2swVeOrWd7HRZ7eQ/txt9Aqp2PfFXzfrn5Wfmh5avHs20ibzDYqaWup2ADs6dvUiqXVvGu3ueuG&#xA;1pPfyt/LDz7eee9H1vV9Jk0XR9Idrotcsgmlk4lURYweY3O9RSle9MSUvUPzJ/Ma/hvo/JPktRfe&#xA;ddRHEutGi06JvtXFw1GClVNVU/M9gwVkf5eeRNO8l+XYtKtnNzdSMZ9S1CT+9ubp95JXJqfZRXYe&#xA;JqSoZNirsVdirsVdirsVdir50/5ym1TTV8x+T7drmMT2S6hNdRcgWjSVYfTZlG45+m3HxpiEvNml&#xA;jWEzFh6YXmW7cQK1yTF7t/zjL5eay8iz6/cJxu/Md09zU9RbxExQqfpDsPZsiyK7807JfJnm7Rfz&#xA;M0wehG1xHpnmuNNlns7ghVmcdOUTAb9zx7DFQ9cxQ7FUo8x+bvLPlqzN5r2p2+nwAEr6zgO9O0cY&#xA;q7n2UE4q84uPPXn/APMJjY/l9ZSaL5fk+GbzhqMZQtGepsoDuxPZv+IHfFLNvIP5daB5L0+SDTw9&#xA;xfXbepqWq3B53NzLuS0jntUmi9vnUlQyjFXYq7FXYq7FXYq7FUFrWtaXoml3Oq6rcpaafaIZJ55D&#xA;QKB+JJOwA3J2GKvjz8wtdH5k+cn8xSWpstIhiW10+EgCeWGNmYPKR3YuT12Gw8cICbpj1x5ame4s&#xA;9K0m4uDd6rPHZ21p6lUYysF3B7Cu+JUF9MaZ5C/O3y9YW2m6L5x0690+yjSC0gvtOWELFGAqrWHm&#xA;xoB1LE4FYf8AnLL+df8Ag5NA8xP5durfzBe22n2yaeLwXrzGUTR8BLxjC8ogGND198VDOTD/AM5J&#xA;3KryuPKtiCDyMS3zuD22cOv44q035dfm3qu2u/mJLbQGvK20ezjtWFf5bgFZPvGKpj5e/Iv8vNIu&#xA;vr89nJreqHdtQ1eQ3krH+Yq9Iq+/CuK29AAAAAFANgBih2KuxV2KuxV2KuxV2KoPWdX0/RtKu9V1&#xA;GYQWNlE01xMf2UQVOw3J8AOuKvkvz3571n8x9XW8vFez8sWrctK0kneTwnuKbM7DoOgGw7liAlKp&#xA;7iC2iaSZxHGgqSfAYWLOvyNsPLFvqbefPNurWGmiNGi0CwvLmGKVVaoe5ZHYEFlqqeO5/lyLJ6jq&#xA;3/OQP5f28ps9FkuPMurMD6Wn6TBJMzHt+8oEpX+Un5YrSG8p+UvOHmbzfb+evPkCWA09HXy35bRh&#xA;L9V9TZpp2GxlIH3/AMvEDFXqeKHYq7FXYq7FXYq7FXYq7FUNqWp6dpdjNf6jcxWdlAvKa5ncRxqO&#xA;m7NQYq8yf85dd8yTyWv5aeW5tbiVuDa9fVtNOVh1K8+Ly07rVW9sU08q/O26/NIzab5a81eYLSUa&#xA;sGurnR9Lh4QQwwsCjPLIBK/J1PENtVcVYB/hmz4fv7q5lAG/OXYAfIDJUi2Xfk1+TNh531x9Vu7Z&#xA;o/KGnOUdi7hr6cbmNGrURr+0w37Dc/DFNvoiz/Jj8qrMgxeWLBuNKetF6/Tx9UvXFFsp03R9J0uH&#xA;0NMsrexh/wB9W0SQr/wKBRiqLxV2KuxV2KuxV2KuxV2KuxVLfMnmLSfLmh3mtatMILCyjMkz9Sey&#xA;qo7szUVR3OKvLtA8nat+Z17B5v8APkbw+XwfV8veUeREQj/YuLulObuN6eH+T8OKXr9vb29tBHb2&#xA;0SQ28ShIoY1CIiqKBVUUAA8Bih8gecfMQ81fmLr2vo/qWUcn6O0xgar9XtvhLL/kyP8AH9OEKVvk&#xA;7ybqX5g+ZP0FYs0GjWhV9e1JP2I6/wBzGTt6j0oP6A4kqH1zo2j6boul2ulaZAttYWcYit4E6Ko/&#xA;WT1JO5O+BUZirsVdirsVdirsVdirsVdirsVdiryTzdEPP35r2Pk56v5c8qomq68nVJ7uSn1W3frs&#xA;EPKncFh4YpetgACg6YoeU/nt+aMXlzRn8uaRKJPNWsRmKGND8VtBICHuHp9k8a8PffoMUvnrQ9A1&#xA;TVdRsfJ/lxeepXA/ezkHhbw1rJPIR0G/+ZphQ+uvIfkfRvJfly30PSk+CL47m5YASTzN9uWQ+Ldv&#xA;AUHQYFZDirsVdirsVdirsVdirsVdirsVdirsVeWfkCg1DS/Mfm2T4rjzJrN1Osla/wCjQt6cCV8E&#xA;+Ontiksa/NP/AJyHvdM1+78peUreH9JW7ehcavdsDHFMPtpFFT42StKsftbcTitPFJVvxemTlNrP&#xA;mjWJRGjuTJPPM5AA3qeI2w8kc31J+T/5XW3kbQmNywufMWpcZdXvevxdRDGf99x1+k7+AAVn+Kux&#xA;V2KuxV2KuxV2KuxV2KuxV2KuxV2KvM/+cbmQ/k7ocYFJInvEmBFCH+uTNQ/QRikvAPzm8tTeXfPX&#xA;mWzuhzh1h5dc0u5IoSZmZ5FBHQxycl+Qr3wqyr/nHSC1u/zUnnuUSae30QzWjtuUZpo0d08CVkIq&#xA;OxxKvqHAh2KuxV2KuxV2KuxV2KuxV2KuxV2KuxV2KvK/yZcaJr3nTyNN8Eml6o+oaeh2rZX4Dx8f&#xA;HhQcvdsUlJP+cp9HEnlzQ9e9H1E0u/8ASu5AKlLe7Xi5b/JLoq/MjFQ81/5x8um0j84rO0SQS2mq&#xA;2Fza20n2v3aj61x5ezQYlX1zih2KuxV2KuxV2KuxV2KuxV2KuxV2KuxV2KvLPzZ0zUfL2uab+aGi&#xA;QNcT6MhtfMVnH9q40tzViB3aFjy/E7LikM/sL7y/5q8vR3VuYdT0XU4agMA8ckbihV0buOjKeh2O&#xA;KGKaF+Rf5caD5nt/Mek2Elre2rO8EQnkaBGkQozBHLdmNBWgxTbP8UOxV2KuxV2KuxV2KuxV2Kux&#xA;V2KuxV2KuxVplVlKsAVIoQdwQcVeO3/lvzT+Vmq3Gt+TLSTV/JV45m1bytHUy2rn7U9kPDbdB+qh&#xA;VS9D8m+ffKvnHThfaDfJcAAevbH4J4W/lliPxL8+h7E4oZBirsVdirsVdirsVdirsVdirsVdirsV&#xA;dirsVdirsVYB5v8AyY8s65qP6b0yafy35lUsy6zpbejIzN1MyLRZK9+jHucU2k0ep/n15T/d6jpt&#xA;p550uPYXlk4s7/j4vEw4MfZFP+tiqb+XPzt8r6trNroV9ZaloGuXbenBYapavCXkAqVVxyXttypX&#xA;Faeg4odirsVdirsVdirsVdirsVdirsVdir//2Q==</xmpGImg:image>
               </rdf:li>
            </rdf:Alt>
         </xmp:Thumbnails>
      </rdf:Description>
      <rdf:Description rdf:about=""
            xmlns:xmpMM="http://ns.adobe.com/xap/1.0/mm/"
            xmlns:stRef="http://ns.adobe.com/xap/1.0/sType/ResourceRef#"
            xmlns:stEvt="http://ns.adobe.com/xap/1.0/sType/ResourceEvent#">
         <xmpMM:InstanceID>xmp.iid:FB7F117407206811822A9DD448A483FF</xmpMM:InstanceID>
         <xmpMM:DocumentID>xmp.did:FB7F117407206811822A9DD448A483FF</xmpMM:DocumentID>
         <xmpMM:OriginalDocumentID>uuid:5D20892493BFDB11914A8590D31508C8</xmpMM:OriginalDocumentID>
         <xmpMM:RenditionClass>proof:pdf</xmpMM:RenditionClass>
         <xmpMM:DerivedFrom rdf:parseType="Resource">
            <stRef:instanceID>uuid:ba5dc92b-6d0a-484a-ab90-b9370a4a0965</stRef:instanceID>
            <stRef:documentID>xmp.did:0980117407206811822A897E387FE54C</stRef:documentID>
            <stRef:originalDocumentID>uuid:5D20892493BFDB11914A8590D31508C8</stRef:originalDocumentID>
            <stRef:renditionClass>proof:pdf</stRef:renditionClass>
         </xmpMM:DerivedFrom>
         <xmpMM:History>
            <rdf:Seq>
               <rdf:li rdf:parseType="Resource">
                  <stEvt:action>saved</stEvt:action>
                  <stEvt:instanceID>xmp.iid:FB7F117407206811822A9DD448A483FF</stEvt:instanceID>
                  <stEvt:when>2018-09-05T11:33:59-03:00</stEvt:when>
                  <stEvt:softwareAgent>Adobe Illustrator CS6 (Macintosh)</stEvt:softwareAgent>
                  <stEvt:changed>/</stEvt:changed>
               </rdf:li>
            </rdf:Seq>
         </xmpMM:History>
      </rdf:Description>
      <rdf:Description rdf:about=""
            xmlns:illustrator="http://ns.adobe.com/illustrator/1.0/">
         <illustrator:StartupProfile>Print</illustrator:StartupProfile>
      </rdf:Description>
      <rdf:Description rdf:about=""
            xmlns:xmpTPg="http://ns.adobe.com/xap/1.0/t/pg/"
            xmlns:stDim="http://ns.adobe.com/xap/1.0/sType/Dimensions#"
            xmlns:xmpG="http://ns.adobe.com/xap/1.0/g/">
         <xmpTPg:HasVisibleOverprint>False</xmpTPg:HasVisibleOverprint>
         <xmpTPg:HasVisibleTransparency>False</xmpTPg:HasVisibleTransparency>
         <xmpTPg:NPages>1</xmpTPg:NPages>
         <xmpTPg:MaxPageSize rdf:parseType="Resource">
            <stDim:w>21.000131</stDim:w>
            <stDim:h>29.700013</stDim:h>
            <stDim:unit>Centimeters</stDim:unit>
         </xmpTPg:MaxPageSize>
         <xmpTPg:PlateNames>
            <rdf:Seq>
               <rdf:li>Cyan</rdf:li>
               <rdf:li>Magenta</rdf:li>
               <rdf:li>Yellow</rdf:li>
               <rdf:li>Black</rdf:li>
            </rdf:Seq>
         </xmpTPg:PlateNames>
         <xmpTPg:SwatchGroups>
            <rdf:Seq>
               <rdf:li rdf:parseType="Resource">
                  <xmpG:groupName>Default Swatch Group</xmpG:groupName>
                  <xmpG:groupType>0</xmpG:groupType>
               </rdf:li>
            </rdf:Seq>
         </xmpTPg:SwatchGroups>
      </rdf:Description>
      <rdf:Description rdf:about=""
            xmlns:pdf="http://ns.adobe.com/pdf/1.3/">
         <pdf:Producer>Adobe PDF library 10.01</pdf:Producer>
      </rdf:Description>
   </rdf:RDF>
</x:xmpmeta>
                                                                                                    
                                                                                                    
                                                                                                    
                                                                                                    
                                                                                                    
                                                                                                    
                                                                                                    
                                                                                                    
                                                                                                    
                                                                                                    
                                                                                                    
                                                                                                    
                                                                                                    
                                                                                                    
                                                                                                    
                                                                                                    
                                                                                                    
                                                                                                    
                                                                                                    
                                                                                                    
                           
<?xpacket end="w"?>
	</metadata>
<g>
	<path fill="#BEC0C2" d="M-56.158-96.284c1.894,11.205,12.471,18.761,23.625,16.876c11.152-1.886,18.657-12.497,16.765-23.702
		c-1.894-11.205-12.47-18.761-23.623-16.876C-50.545-118.102-58.052-107.489-56.158-96.284"/>
	<path fill="#E9E9EA" d="M-18.689-111.023c-0.545,0.29-16.436-8.299-36.651,13.71c0,0,0.878,5.193,1.812,7.21
		c0.935,2.018,6.333,7.04,6.333,7.04s-1.94-6.793-1.014-8.333c0.927-1.541,2.966-7.029,9.348-6.723
		c6.381,0.306,11.448-0.154,14.995-4.908l4.911,2.137l3.269-0.552L-18.689-111.023z"/>
	<path fill="#231F20" d="M-13.289-42.429c0,0,2.139,2.104-0.055,4.53s-7.995,10.255-8.143,13.431
		c-0.148,3.176-0.184,7.018-0.184,7.018l1.281,6.771l0.231,3.796L-33.9-15.247c0,0-2.603-1.614-2.405-2.881
		c0.197-1.267,1.172-1.979,1.172-1.979s4.375-0.054,5.794-1.389c1.418-1.336,1.195-1.846,1.195-1.846L-13.289-42.429z"/>
	<path fill="#616266" d="M21.069-98.16c-0.576,0.098-3.527-0.986-5.449,0.525c-1.92,1.512-3.295,3.919-3.295,3.919l7.095,17.396
		l-34.047-11.852c0,0-7.733-2.452-10.583-0.585c-2.85,1.866-5.119,4.821-5.696,4.918c-0.577,0.098-2.66,0.647-4.196,2.094
		c-1.536,1.447-2.589,3.405-2.589,3.405l-0.844,9.044c0,0-0.348,2.63,1.516,4.293c1.863,1.663,15,11.509,15,11.509l21.307-7.359
		l3.292-5.105L2.02-71.6l20.185,7.072c0,0,3.724,2.141,6.319,1.109c2.595-1.032,4.924-5.976,4.215-7.833
		C32.029-73.11,21.069-98.16,21.069-98.16"/>
	<polygon fill="#616266" points="46.617,-16.037 15.992,-41.262 17.834,-26.008 38.652,-8.164 	"/>
	<path fill="#616266" d="M-15.213-35.457c0,0,17.277-1.931,28.943,9.746l4.545-6.904c0,0,1.972,6.502,4.493,14.436
		C24.198-13.683,30.771-5.646,31.42-1.8c0.65,3.848,2.877,24.041,2.877,24.041s0.522,4.266-1.721,5.039
		c-2.242,0.775-6.088,1.426-7.438,0.467C23.79,26.786,1.562,8.786,1.562,8.786l-10.896,31.51c0,0-2.008,5.68-3.158,7.064
		c-1.151,1.379-30.025,36.523-30.025,36.523l1.085,12.277c0,0,0.812,3.623-0.249,3.207c-1.059-0.414-4.491-0.822-5.521-2.23
		c-1.029-1.41-1.939-6.793-1.939-6.793s-2.479-4.131-2.898-5.447c-0.418-1.312,0.377-3.623,1.307-3.977
		c0.928-0.355,4.195-2.094,5.06-2.834c0.864-0.738,7.329-5.787,7.869-8.449c0.539-2.664,3.466-12.258,4.139-12.965
		s2.649-5.393,3.127-6.066c0.479-0.676,10.337-9.066,10.337-9.066s0.817-6.863,1.389-9.334c0.572-2.469-1.576-42.887-1.576-42.887
		S-27.15-25.329-15.213-35.457"/>
	<path fill="#616266" d="M-31.328-28.975c0,0,3.308,2.013,2.703,4.291c-0.604,2.279-2.46,4.174-2.46,4.174l-4.775,1.005
		L-31.328-28.975z"/>
	<path fill="#231F20" d="M-18.31-99.417c0,0,1.702,0.702,1.384,2.337c-0.317,1.636-2.008,5.68-2.008,5.68l-1.86-0.477l-2.793-1.308
		l-4.065,2.863l-3.118-3.231l3.849,0.536c0,0,5.098-0.269,6.793-1.939C-18.432-96.627-18.31-99.417-18.31-99.417"/>
	<path fill="#FFFFFF" d="M2.531-70.895c0,0,1.355,2.145,0.047,4.938c-1.312,2.793-15.866,23.528-15.866,23.528
		s1.778,0.809,1.237,2.284c-0.543,1.476-3.162,4.688-3.162,4.688s12.658-2.337,27.656,9.173l5.832-6.33c0,0-1.08-5.048-2.08-7.45
		c-1-2.404-3.323-26.954-3.323-26.954l-6.17-2.604L2.531-70.895z"/>
	<path fill="#FFFFFF" d="M60.038-6.833l-14.827-6.988l-3.52,3.759c0,0,1.322,3.141,3.023,3.842c1.701,0.702,5.293,0.886,5.293,0.886
		l0.547,0.896l1.005,4.775c0,0,8.818-0.502,8.883-0.117C60.506,0.604,60.038-6.833,60.038-6.833"/>
	<polygon fill="#FFFFFF" points="17.156,-97.894 11.52,-94.964 9.172,-98.324 1.338,-102.54 0.851,-105.425 4.379,-104.438 
		4.857,-106.3 -1.468,-109.779 2.313,-110.814 13.647,-104.62 	"/>
	<path fill="#BEC0C2" d="M-0.715-60.852L-38.84-46.496c0,0-3.236,0.745-3.554,2.381c-0.316,1.636,1.228,3.749,1.228,3.749
		l10.641,12.641l1.704,1.887l0.552,3.271L-0.715-60.852z"/>
	<polygon fill="#BEC0C2" points="4.857,-106.3 -5.127,-111.535 -5.924,-109.225 4.379,-104.438 	"/>
	<path fill="#FFFFFF" d="M-18.31-99.417c0,0-0.089,2.982-0.953,3.721c-0.865,0.74-4.066,2.863-5.862,2.771
		c-1.796-0.092-6.385-1.492-6.385-1.492s0.475-3.047,1.628-3.241c1.154-0.195,5.899-0.206,5.899-0.206S-18.345-100.795-18.31-99.417
		"/>
	<path fill="#BABCBE" d="M-20.472-91.14c0,0-1.601,1.062-2.947,1.29c-1.345,0.228-3.528-0.986-3.528-0.986s2.233-4.334,6.153-1.04"
		/>
	<path fill="#231F20" d="M-31.591-101.92c0,0-5.788-7.33-13.505-2.663C-45.095-104.582-41.166-96.543-31.591-101.92"/>
	<polygon fill="#231F20" points="-18.042,-108.363 -18.964,-104.449 -16.974,-104.39 	"/>
	<path fill="#231F20" d="M6.485-81.453l-24.901-8.056l2.73-11.934c0,0,3.282,4.193,8.188,5.143
		c4.907,0.952,9.271,2.191,10.299,2.414c1.025,0.222,2.373-0.005,3.211,1.437c0.836,1.44,2.477,4.13,2.477,4.13
		s-2.954-2.271-5.455-1.847C3.033-90.167,7.078-87.29,6.485-81.453"/>
	<path fill="#231F20" d="M-22.983-53.33L-37.02-65.002l-1.355-3.332c0,0,1.192-11.674,0.616-11.576
		c-0.577,0.097-10.656-4.53-10.559-3.952c0.097,0.577,1.996,3.618,0.975,5.77c-1.021,2.15-3.634,10.108-3.081,13.377
		c0.553,3.27,3.933,9.226,4.031,9.802c0.097,0.577,3.116,3.232,3.116,3.232l6.262,4.282L-22.983-53.33z"/>
	<path fill="#231F20" d="M27.014-69.37c-0.223,0.038-0.459-0.01-0.658-0.151c-0.053-0.037-1.289-0.93-3.002-3.276
		c-0.961-1.313-1.572-1.55-2.679-1.979c-0.563-0.219-1.265-0.491-2.131-0.956c-1.997-1.076-27.101-9.175-36.638-12.217
		c-0.654-0.167-10.93-2.563-14.502,9.142c-0.143,0.468-0.638,0.731-1.106,0.589c-0.468-0.144-0.731-0.638-0.588-1.105
		c2.145-7.028,6.57-9.47,9.904-10.282c3.587-0.872,6.638-0.085,6.766-0.051c0.014,0.004,0.028,0.008,0.042,0.012
		c1.403,0.448,34.409,10.978,36.963,12.351c0.768,0.414,1.385,0.654,1.93,0.866c1.23,0.477,2.203,0.854,3.469,2.586
		c1.521,2.083,2.593,2.873,2.604,2.88c0.395,0.286,0.484,0.839,0.199,1.235C27.444-69.529,27.237-69.407,27.014-69.37"/>
	<path fill="#231F20" d="M27.71-62.42c-2.577,0.436-4.792-0.649-6.065-1.273c-0.203-0.1-0.387-0.189-0.551-0.263
		c-1.317-0.589-25.625-8.723-34.879-11.808c-0.466-0.155-0.716-0.656-0.561-1.12c0.154-0.465,0.656-0.715,1.119-0.561
		c1.362,0.454,33.377,11.126,35.043,11.871c0.18,0.081,0.383,0.18,0.607,0.29c1.752,0.857,4.687,2.295,7.849-0.236
		c1.398-1.118,1.961-2.547,1.673-4.25c-0.223-1.316-0.879-2.324-0.885-2.334c-0.031-0.047-0.059-0.096-0.08-0.147L20.245-97.53
		c-1.207-0.005-4.476,0.345-7.489,3.881l7.025,16.794c0.189,0.452-0.023,0.97-0.475,1.159c-0.453,0.189-0.971-0.024-1.16-0.476
		l-7.23-17.286c-0.125-0.298-0.077-0.64,0.123-0.893c4.442-5.602,9.707-4.94,9.93-4.909c0.309,0.043,0.57,0.244,0.692,0.531
		l10.918,25.711c1.2,1.848,2.437,5.976-1.198,8.883C30.119-63.127,28.878-62.616,27.71-62.42"/>
	<path fill="#231F20" d="M27.012-72.411c-0.053,0.009-0.107,0.013-0.16,0.012l-2.795-0.035c-0.489-0.006-0.881-0.407-0.875-0.896
		c0.006-0.489,0.408-0.881,0.896-0.875l2.795,0.035c0.489,0.006,0.882,0.407,0.875,0.896C27.742-72.839,27.425-72.481,27.012-72.411
		"/>
	<path fill="#231F20" d="M11.756-93.666c-0.363,0.062-0.739-0.108-0.926-0.447l-1.826-3.326l-7.748-4.104
		c-0.19-0.101-0.338-0.267-0.414-0.467l-1.211-3.175c-0.175-0.458,0.053-0.969,0.512-1.144c0.453-0.174,0.968,0.055,1.143,0.512
		l1.095,2.865l7.688,4.073c0.153,0.081,0.278,0.205,0.362,0.356l1.953,3.558c0.234,0.429,0.079,0.967-0.351,1.203
		C11.944-93.714,11.85-93.682,11.756-93.666"/>
	<path fill="#231F20" d="M17.719-97.379c-0.35,0.06-0.713-0.096-0.907-0.419l-3.642-6.082l-11.729-6.264l-2.558,0.729
		c-0.474,0.135-0.961-0.139-1.096-0.608c-0.133-0.471,0.139-0.96,0.609-1.095l2.902-0.829c0.223-0.062,0.459-0.038,0.66,0.07
		l12.263,6.548c0.142,0.076,0.261,0.188,0.343,0.327l3.768,6.293c0.252,0.42,0.115,0.963-0.305,1.215
		C17.928-97.433,17.824-97.396,17.719-97.379"/>
	<path fill="#231F20" d="M4.379-103.566L4.379-103.566c-0.412,0.07-0.841-0.001-1.209-0.199L-7.831-109.7
		c-0.915-0.494-1.259-1.64-0.765-2.555c0.279-0.516,0.77-0.867,1.348-0.965c0.41-0.07,0.84,0.001,1.207,0.2l11.002,5.935
		c0.443,0.239,0.768,0.637,0.911,1.119c0.145,0.483,0.093,0.993-0.147,1.437C5.448-104.015,4.957-103.664,4.379-103.566
		 M-6.953-111.473c-0.021,0.004-0.061,0.016-0.084,0.06c-0.03,0.055-0.009,0.125,0.047,0.154l11,5.935
		c0.023,0.013,0.049,0.017,0.074,0.012c0.02-0.003,0.059-0.016,0.082-0.058c0.014-0.028,0.018-0.058,0.009-0.087
		s-0.028-0.052-0.056-0.068l-11.001-5.934C-6.904-111.472-6.927-111.477-6.953-111.473"/>
	<path fill="#231F20" d="M-11.631-113.892c-0.896,1.661-0.309,3.716,1.312,4.59c1.619,0.874,3.66,0.235,4.557-1.425
		c0.895-1.661,0.309-3.715-1.312-4.589C-8.695-116.189-10.734-115.552-11.631-113.892"/>
	<path fill="#231F20" d="M-8.066-108.083L-8.066-108.083c-0.927,0.156-1.852,0.005-2.672-0.438c-2.049-1.105-2.799-3.702-1.671-5.79
		c0.642-1.189,1.765-2,3.083-2.223c0.926-0.156,1.85-0.005,2.674,0.438c0.994,0.538,1.717,1.438,2.029,2.537
		c0.312,1.09,0.184,2.246-0.359,3.254C-5.625-109.116-6.748-108.306-8.066-108.083 M-9.031-114.788
		c-0.775,0.131-1.439,0.611-1.818,1.317c-0.663,1.229-0.236,2.749,0.951,3.389c0.473,0.255,1.003,0.342,1.537,0.251
		c0.774-0.131,1.437-0.611,1.818-1.317c0.323-0.599,0.4-1.283,0.216-1.926c-0.181-0.635-0.597-1.155-1.169-1.463
		C-7.967-114.791-8.498-114.878-9.031-114.788"/>
	<path fill="#231F20" d="M-20.955-6.158c-0.207,0.034-0.427-0.003-0.619-0.124c-0.07-0.043-7.05-4.425-12.595-7.655
		c-2.075-1.209-4.428-2.579-2.746-5.528c0.569-0.997,1.873-1.227,3.135-1.448c0.53-0.094,1.078-0.19,1.522-0.335
		c2.881-0.943,5.694-5.052,5.721-5.094c0.253-0.352,23.867-33.167,26.969-37.533c2.752-3.87,1.078-6.405,1.061-6.43
		c-0.277-0.404-0.174-0.955,0.23-1.232c0.402-0.276,0.953-0.173,1.231,0.23c0.099,0.144,2.382,3.591-1.077,8.458
		c-3.105,4.37-26.723,37.19-26.961,37.521c-0.114,0.169-3.172,4.634-6.625,5.763c-0.562,0.185-1.174,0.292-1.765,0.396
		c-0.653,0.114-1.746,0.307-1.902,0.58c-0.669,1.173-0.562,1.571,2.098,3.119c5.573,3.246,12.576,7.643,12.646,7.687
		c0.414,0.261,0.539,0.808,0.28,1.221C-20.492-6.339-20.716-6.199-20.955-6.158"/>
	<path fill="#231F20" d="M-29.859-20.51c-0.208,0.035-0.43-0.004-0.622-0.126c-0.414-0.262-0.535-0.81-0.274-1.223
		c0.095-0.148,0.197-0.3,0.303-0.456c0.941-1.391,1.831-2.707-1.006-5.613c-3.555-3.646-9.353-9.986-9.7-10.366
		c-0.362-0.358-2.75-2.835-2.148-5.236c0.782-3.129,3.644-4.131,4.019-4.25l32.749-12.121c0.457-0.169,0.968,0.065,1.137,0.523
		c0.17,0.459-0.063,0.968-0.521,1.138l-32.771,12.131c-0.019,0.007-0.04,0.013-0.059,0.02c-0.089,0.027-2.265,0.714-2.833,2.989
		c-0.311,1.242,1.152,3.031,1.689,3.56c0.012,0.01,0.023,0.023,0.035,0.034c0.06,0.066,6.048,6.622,9.675,10.342
		c3.845,3.942,2.192,6.385,1.205,7.844c-0.095,0.141-0.188,0.277-0.273,0.412C-29.399-20.688-29.619-20.551-29.859-20.51"/>
	<path fill="#231F20" d="M-35.998-18.153c-0.157,0.027-0.324,0.011-0.482-0.053c-0.452-0.186-0.67-0.703-0.484-1.155l4.305-10.532
		c0.186-0.454,0.703-0.67,1.155-0.485c0.453,0.185,0.669,0.702,0.484,1.154l-4.305,10.531
		C-35.445-18.397-35.706-18.203-35.998-18.153"/>
	<path fill="#231F20" d="M-16.397-2.196c-0.341,0.059-0.697-0.088-0.895-0.396c-5.366-8.411-6.837-16.549-4.372-24.187
		c1.973-6.112,5.94-10.148,7.633-11.872c0.27-0.273,0.481-0.49,0.596-0.623c0.283-0.331,0.4-0.646,0.366-0.991
		c-0.072-0.724-0.794-1.435-1.066-1.648c-0.386-0.301-0.456-0.855-0.157-1.24c0.3-0.386,0.852-0.459,1.24-0.161
		c0.16,0.124,1.578,1.255,1.746,2.862c0.086,0.829-0.186,1.636-0.783,2.333c-0.152,0.179-0.373,0.402-0.676,0.712
		c-1.605,1.634-5.367,5.462-7.211,11.175c-2.295,7.111-0.889,14.745,4.179,22.689c0.263,0.412,0.143,0.961-0.271,1.223
		C-16.172-2.257-16.284-2.216-16.397-2.196"/>
	<path fill="#231F20" d="M32.453,20.819c-0.442,0.074-0.876-0.195-1.001-0.637l-1.271-4.516c-0.002-0.006-0.74-2.326-3.176-4.188
		c-1.988-1.516-8.07-4.377-16.688-7.844C2.729,0.585-5.283-2.833-7.17-5.037c-2.14-2.501-3.656-3.817-5.09-3.133
		c-1.266,0.604-1.301,2.078-1.213,4.259c0.014,0.328,0.027,0.65,0.031,0.961c0.01,0.539,0.047,1.283,0.088,2.068
		c0.178,3.398,0.252,5.699-0.326,6.693c-0.246,0.422-0.789,0.564-1.211,0.318c-0.424-0.246-0.566-0.787-0.32-1.209
		c0.355-0.621,0.176-4.059,0.088-5.711c-0.042-0.801-0.082-1.561-0.09-2.133c-0.004-0.297-0.018-0.604-0.031-0.916
		c-0.087-2.127-0.195-4.776,2.219-5.929c2.938-1.404,5.504,1.595,7.201,3.58c1.857,2.17,13.105,6.695,16.802,8.182
		c5.149,2.072,14.216,5.873,17.103,8.08c2.913,2.225,3.768,4.984,3.802,5.1l1.274,4.531c0.133,0.473-0.141,0.961-0.611,1.094
		C32.515,20.806,32.485,20.813,32.453,20.819"/>
	<path fill="#231F20" d="M-12.808,22.044l-0.009,0.002c-0.329,0.053-0.657-0.084-0.854-0.352c-2.691-3.686-3.525-9.986-3.374-12.541
		c0.107-1.803,2.224-4.24,4.569-6.791c0.533-0.578,1.037-1.125,1.22-1.383c0.362-0.633,0.287-4.412-0.015-7.539
		c-0.047-0.487,0.307-0.92,0.799-0.968c0.486-0.047,0.919,0.31,0.966,0.798C-9.295-4.531-8.9,0.724-9.812,2.007
		c-0.248,0.346-0.715,0.855-1.36,1.555c-1.407,1.529-4.026,4.375-4.104,5.697c-0.115,1.928,0.432,6.475,2.086,9.805
		c1.123-3.352,3.417-10,4.416-11.404c1.637-2.303,3.567-4.645,5.472-4.547c0.489,0.025,0.864,0.441,0.839,0.928
		c-0.024,0.49-0.44,0.865-0.93,0.842C-3.838,4.858-4.941,5.323-7.33,8.685c-0.846,1.188-3.323,8.281-4.783,12.76
		C-12.217,21.761-12.484,21.991-12.808,22.044"/>
	<path fill="#231F20" d="M-13.279,20.265c-0.131,0.021-0.27,0.016-0.405-0.027c-0.468-0.143-0.731-0.637-0.589-1.105
		c0.018-0.057,1.742-5.715,2.513-8.992c0.69-2.934-0.961-5.719-0.979-5.746c-0.252-0.418-0.12-0.963,0.298-1.217
		c0.418-0.252,0.961-0.121,1.216,0.295c0.083,0.139,2.05,3.418,1.188,7.074c-0.784,3.334-2.471,8.869-2.542,9.102
		C-12.679,19.981-12.959,20.21-13.279,20.265"/>
	<path fill="#231F20" d="M30.662,28.667c-2.307,0.391-5.273,0.395-7.423-1.357C20.526,25.093-2.036,6.618-2.263,6.433
		c-0.037-0.031-0.074-0.064-0.104-0.102c-0.011-0.01-1.165-1.289-1.992-0.684c-0.395,0.289-0.948,0.203-1.238-0.193
		C-5.886,5.06-5.801,4.505-5.405,4.218c1.67-1.223,3.521,0.016,4.316,0.885c1.229,1.01,22.8,18.67,25.448,20.832
		c2.213,1.809,5.821,1.141,7.774,0.584c0.656-0.188,1.103-1.426,1.237-2.074l-0.201-6.119c-0.004-0.189-0.439-18.074-6.477-27.682
		c-5.422-8.628-8.738-21.119-10.72-28.582c-0.319-1.201-0.595-2.238-0.833-3.084c-1.689-5.987-3.094-25.119-3.15-25.931
		c-0.037-0.487,0.326-0.912,0.818-0.947c0.489-0.036,0.912,0.331,0.948,0.819c0.015,0.197,1.448,19.764,3.089,25.58
		c0.242,0.858,0.521,1.902,0.841,3.11c1.956,7.365,5.228,19.693,10.508,28.093c6.301,10.025,6.733,27.826,6.748,28.578l0.206,6.209
		c0.001,0.061-0.003,0.123-0.014,0.184c-0.054,0.305-0.584,3-2.514,3.551C32.069,28.38,31.399,28.542,30.662,28.667"/>
	<path fill="#231F20" d="M13.196-25.125c-0.018,0.003-0.035,0.005-0.055,0.007c-0.195,0.018-0.392-0.047-0.538-0.18
		c-0.14-0.126-14.073-12.531-28.353-9.304c-0.378,0.085-0.76-0.154-0.847-0.535c-0.086-0.381,0.153-0.761,0.534-0.848
		c6.221-1.406,13.322-0.182,20.529,3.541c4.211,2.175,7.279,4.573,8.505,5.594l4.742-6.194c0.238-0.312,0.683-0.37,0.994-0.131
		c0.311,0.237,0.37,0.682,0.131,0.993l-5.198,6.789C13.53-25.25,13.37-25.154,13.196-25.125"/>
	<path fill="#231F20" d="M-41.774,100.274c-1.49,0.252-4.887-0.781-6.304-2.553c-0.959-1.201-1.184-2.898-1.383-4.398
		c-0.107-0.812-0.209-1.58-0.404-1.988c-0.638-1.336-2.838-5.746-2.86-5.793c-0.046-0.09-0.075-0.189-0.087-0.289
		c-0.006-0.049-0.135-1.182,0.117-2.445c0.363-1.824,1.329-3.035,2.792-3.504c2.431-0.777,8.072-4.861,10.662-10.236
		c0.986-2.049,2.002-4.902,2.985-7.662c1.723-4.84,3.35-9.41,5.183-11.135c0.816-0.77,1.964-1.879,3.178-3.053
		c2.943-2.848,6.277-6.072,7.73-7.219c2.23-1.754,2.609-2.816,2.589-3.004c-0.082-0.482,0.243-0.939,0.726-1.02
		c0.482-0.082,0.938,0.244,1.021,0.727c0.263,1.561-1.616,3.412-3.24,4.689c-1.384,1.09-4.828,4.422-7.596,7.098
		c-1.219,1.178-2.369,2.293-3.195,3.07c-1.521,1.432-3.225,6.219-4.729,10.439c-0.998,2.805-2.03,5.705-3.059,7.84
		c-2.717,5.639-8.653,10.176-11.718,11.152c-1.794,0.574-1.739,3.27-1.699,3.916c0.401,0.805,2.214,4.441,2.798,5.664
		c0.316,0.662,0.436,1.566,0.562,2.521c0.167,1.27,0.358,2.709,1.009,3.523c0.944,1.178,3.31,1.879,4.28,1.938
		c-0.02-0.646-0.283-1.969-0.47-2.896c-0.233-1.168-0.476-2.375-0.569-3.414c-0.622-6.84-0.176-7.98-0.029-8.355
		c0.561-1.428,28.578-34.756,28.856-35.082c1.896-2.211,3.57-6.088,3.734-6.469L0.298,8.194c0.153-0.467,0.653-0.719,1.118-0.566
		S2.134,8.28,1.983,8.745L-9.222,42.923c-0.008,0.021-0.016,0.043-0.023,0.064c-0.076,0.182-1.871,4.445-4.038,6.973
		c-2.217,2.584-27.397,32.695-28.563,34.609c-0.203,0.605-0.265,2.877,0.156,7.512c0.086,0.947,0.319,2.105,0.542,3.227
		c0.545,2.723,0.875,4.365-0.271,4.867C-41.521,100.218-41.639,100.251-41.774,100.274"/>
	<path fill="#231F20" d="M-20.452,41.946c-0.26,0.043-0.535-0.029-0.745-0.219c-0.362-0.328-0.389-0.889-0.06-1.252
		c1.614-1.777,1.656-9.436,1.303-13.846c-0.001-0.014-0.002-0.029-0.003-0.041l-1.275-36.987c-0.017-0.49,0.369-0.9,0.854-0.916
		c0.49-0.017,0.899,0.366,0.916,0.855l1.276,36.968c0.107,1.34,0.882,12.252-1.759,15.16
		C-20.085,41.821-20.264,41.913-20.452,41.946"/>
	<path fill="#231F20" d="M-41.656,100.062c-0.06,0.01-0.122,0.012-0.185,0.006c-0.39-0.035-0.676-0.381-0.64-0.77
		c0.209-2.244-1.873-4.916-3.252-6.686c-0.402-0.516-0.75-0.963-1.001-1.344c-0.841-1.27-0.807-2.164-0.762-3.299
		c0.024-0.633,0.053-1.354-0.045-2.357c-0.229-2.377-3.47-3.311-3.503-3.32c-0.377-0.104-0.597-0.494-0.492-0.871
		c0.106-0.377,0.496-0.598,0.873-0.492c0.173,0.047,4.213,1.215,4.534,4.547c0.106,1.1,0.076,1.904,0.049,2.551
		c-0.041,1.08-0.062,1.572,0.529,2.459c0.22,0.334,0.553,0.76,0.938,1.256c1.516,1.943,3.807,4.885,3.544,7.688
		C-41.1,99.757-41.348,100.009-41.656,100.062"/>
	<path fill="#231F20" d="M3.883-2.595C3.59-2.546,3.286-2.685,3.139-2.962C2.955-3.306,3.086-3.735,3.432-3.921l8.076-4.299
		c0.348-0.185,0.775-0.053,0.959,0.293c0.184,0.345,0.054,0.774-0.292,0.959L4.098-2.669C4.03-2.632,3.955-2.608,3.883-2.595"/>
	<path fill="#231F20" d="M7.451-1.313c-0.32,0.055-0.647-0.119-0.774-0.436c-0.146-0.361,0.03-0.775,0.395-0.92l4.515-1.812
		c0.365-0.146,0.776,0.03,0.922,0.394c0.146,0.364-0.03,0.777-0.394,0.922L7.599-1.354C7.551-1.335,7.502-1.321,7.451-1.313"/>
	<path fill="#231F20" d="M60.702,1.188C60.656,1.196,60.609,1.2,60.561,1.2l-9.005,0.055c-0.452,0.004-0.836-0.338-0.886-0.789
		l-0.502-4.552c-0.053-0.486,0.299-0.925,0.783-0.978c0.486-0.053,0.925,0.298,0.978,0.784l0.413,3.757l7.225-0.043l-0.636-5.738
		l-13.71-6.619c-0.441-0.213-0.626-0.742-0.413-1.183c0.214-0.44,0.742-0.626,1.184-0.413l14.15,6.832
		c0.276,0.134,0.462,0.398,0.496,0.701l0.798,7.201c0.027,0.25-0.051,0.498-0.219,0.688C61.082,1.056,60.901,1.155,60.702,1.188"/>
	<path fill="#231F20" d="M56.383-1.134c-0.938,0.158-1.791-0.295-1.943-0.383l-5.289-2.906c-1.207,0.104-5.401,0.101-7.977-4.47
		c-0.24-0.426-0.09-0.967,0.338-1.207c0.426-0.24,0.966-0.089,1.207,0.337c2.361,4.194,6.422,3.562,6.463,3.555
		c0.195-0.032,0.399,0.001,0.574,0.097l5.547,3.046l0.021,0.014c0.15,0.084,0.564,0.238,0.824,0.154
		c0.053-0.014,0.191-0.059,0.332-0.346c0.034-0.074,0.027-0.098,0.02-0.119c-0.061-0.178-0.373-0.404-0.521-0.479
		c-0.012-0.006-0.022-0.01-0.033-0.016l-6.227-3.351c-0.432-0.232-0.593-0.769-0.361-1.199c0.232-0.431,0.77-0.592,1.2-0.361
		l6.212,3.343c0.221,0.11,1.097,0.594,1.404,1.482c0.168,0.483,0.133,0.995-0.102,1.476c-0.396,0.814-0.988,1.139-1.416,1.268
		C56.565-1.171,56.473-1.149,56.383-1.134"/>
	<path fill="#231F20" d="M38.801-6.851c-0.254,0.043-0.525-0.024-0.732-0.207L20.041-22.9c-0.367-0.323-0.403-0.883-0.08-1.25
		s0.883-0.403,1.25-0.08L38.617-8.935l6.624-6.568L15.422-40.583c-0.374-0.315-0.421-0.874-0.106-1.249
		c0.315-0.374,0.873-0.423,1.247-0.107l30.561,25.705c0.19,0.16,0.305,0.394,0.315,0.643c0.011,0.248-0.085,0.489-0.263,0.664
		l-7.898,7.834C39.143-6.962,38.975-6.88,38.801-6.851"/>
	<path fill="#231F20" d="M53.448-5.762c-0.396,0.066-0.8-0.143-0.963-0.528L28.401-63.221c-0.191-0.451,0.02-0.971,0.471-1.161
		c0.45-0.19,0.969,0.02,1.16,0.47L54.116-6.979c0.191,0.449-0.019,0.969-0.47,1.16C53.581-5.792,53.514-5.773,53.448-5.762"/>
	<path fill="#231F20" d="M16.69,41.562C5.983,43.37-6.525,42.372-20.725,38.556c-0.473-0.127-0.753-0.613-0.625-1.084
		c0.127-0.475,0.613-0.754,1.086-0.627c23.544,6.326,42.259,4.787,55.622-4.58C52.841,20.013,54.892-1.673,54.91-1.89
		c0.043-0.49,0.473-0.85,0.959-0.807c0.487,0.041,0.85,0.471,0.807,0.957c-0.02,0.23-0.518,5.75-3.26,12.906
		c-2.535,6.615-7.549,15.895-17.044,22.551C30.707,37.687,24.135,40.304,16.69,41.562"/>
	<path fill="#231F20" d="M-25.814,120.624c-0.106,0.018-0.219,0.016-0.331-0.008c-25.679-5.416-32.637-19.699-34.5-27.732
		c-1.346-5.807-0.984-11.947,1.049-17.758c1.918-5.486,5.236-10.273,9.34-13.484c9.472-7.402,21.33-8.23,31.792-8.963
		c9.827-0.686,18.316-1.277,21.557-7.357c2.451-4.594,2.004-9.182-1.326-13.629c-2.56-3.42-5.938-5.477-5.971-5.498
		c-0.42-0.252-0.555-0.797-0.303-1.217c0.252-0.418,0.796-0.553,1.216-0.301c0.149,0.088,3.674,2.229,6.446,5.912
		C6.91,35.577,7.43,40.958,4.658,46.155c-3.703,6.943-12.644,7.57-22.995,8.293c-10.209,0.713-21.779,1.52-30.824,8.592
		c-3.84,3.002-6.952,7.502-8.761,12.672c-1.921,5.492-2.266,11.293-0.995,16.773c4.116,17.756,22.53,24.158,33.14,26.398
		c0.478,0.1,0.784,0.57,0.683,1.049C-25.172,120.298-25.466,120.563-25.814,120.624"/>
	<path fill="#231F20" d="M-37.459-78.977c-0.071,0.012-0.146,0.016-0.22,0.01c-9.519-0.773-17.278-7.896-18.871-17.324
		c-1.917-11.345,5.752-22.134,17.098-24.051c11.344-1.917,22.133,5.753,24.051,17.097c0.865,5.119-0.197,10.344-2.993,14.714
		c-0.263,0.412-0.812,0.533-1.224,0.27c-0.412-0.264-0.532-0.812-0.269-1.224c2.558-3.999,3.529-8.781,2.737-13.465
		c-1.754-10.381-11.628-17.4-22.009-15.646c-10.382,1.754-17.4,11.628-15.646,22.009c1.458,8.627,8.559,15.146,17.267,15.854
		c0.487,0.04,0.851,0.468,0.811,0.955C-36.759-79.366-37.069-79.042-37.459-78.977"/>
	<path fill="#231F20" d="M-36.738-46.936c-0.157,0.026-0.321,0.011-0.479-0.052c-6.868-2.777-11.393-7.587-13.082-13.911
		c-1.331-4.975-0.846-10.934,1.33-16.35c1.89-4.705-1.727-7.779-1.764-7.81c-0.376-0.312-0.429-0.871-0.115-1.248
		c0.312-0.376,0.871-0.428,1.248-0.117c0.046,0.039,4.641,3.944,2.275,9.834c-2.036,5.066-2.496,10.619-1.263,15.231
		c1.564,5.848,5.613,10.129,12.035,12.726c0.454,0.184,0.674,0.699,0.489,1.153C-36.183-47.182-36.445-46.985-36.738-46.936"/>
	<path fill="#231F20" d="M6.833-80.026c-0.075,0.013-0.155,0.017-0.234,0.009c-0.485-0.047-0.844-0.48-0.796-0.968
		c0.581-5.999-3.769-9.071-3.955-9.199c-0.337-0.233-0.472-0.667-0.323-1.051c0.147-0.382,0.537-0.614,0.944-0.559
		c1.459,0.199,2.658,0.67,3.64,1.281c-1.021-1.406-2.446-2.645-4.425-3.174c-1.576-0.422-3.242-0.625-4.854-0.823
		c-5.013-0.612-10.196-1.246-13.884-8.173c-0.23-0.432-0.066-0.969,0.365-1.198c0.43-0.229,0.967-0.066,1.198,0.365
		c3.254,6.113,7.762,6.665,12.536,7.248c1.673,0.204,3.401,0.416,5.097,0.869c6.955,1.861,8.11,10.392,8.156,10.753
		c0.061,0.468-0.26,0.9-0.723,0.983l-0.01,0.001c-0.461,0.078-0.903-0.216-1.01-0.673c-0.035-0.146-0.668-2.674-2.906-4.341
		c1.196,1.803,2.25,4.423,1.918,7.86C7.528-80.406,7.217-80.091,6.833-80.026"/>
	<path fill="#231F20" d="M-45.755-81.539c-0.259,0.043-0.532-0.057-0.695-0.285c-3.11-4.329-2.801-7.979-1.994-10.279
		c1.125-3.203,3.769-5.453,5.8-6.02c3.502-0.978,4.875-0.86,6.467-0.723c1.01,0.086,2.153,0.185,4.107-0.009
		c4.637-0.459,7.583-4.724,7.611-4.767c0.212-0.312,0.629-0.404,0.952-0.209c0.013,0.008,1.37,0.813,4.097,1.88
		c2.062,0.807,2.601-0.265,2.655-0.39c0.142-0.364,0.551-0.538,0.916-0.396c0.365,0.143,0.542,0.561,0.399,0.924
		c-0.027,0.072-0.292,0.706-1.01,1.15c-0.628,0.389-1.742,0.71-3.477,0.031c-1.852-0.724-3.091-1.33-3.75-1.676
		c-0.96,1.204-3.642,4.105-7.583,4.771c-0.22,0.038-0.444,0.067-0.673,0.09c-2.084,0.206-3.297,0.104-4.368,0.011
		c-1.513-0.13-2.71-0.232-5.963,0.676c-1.637,0.458-3.891,2.409-4.845,5.126c-0.695,1.982-0.948,5.148,1.807,8.982
		c0.229,0.318,0.157,0.76-0.162,0.989C-45.552-81.597-45.653-81.556-45.755-81.539"/>
	<path fill="#231F20" d="M-22.853-89.104L-22.853-89.104c-3.595,0.607-6.532-1.062-8.085-2.827
		c-1.154-1.314-1.642-2.755-1.307-3.856c0.606-1.988,2.548-2.315,3.186-2.423c0.645-0.109,1.33-0.148,1.993-0.187
		c0.368-0.021,0.716-0.042,1.056-0.073c0.377-0.034,0.714-0.077,1.03-0.13c0.985-0.167,1.749-0.433,3.014-0.875
		c0.614-0.215,1.31-0.458,2.194-0.747c0.189-0.062,0.375-0.108,0.55-0.138c1.008-0.17,1.631,0.214,1.978,0.565
		c1.303,1.325,0.777,4.396,0.713,4.741c-0.004,0.027-0.808,4.819-5.998,5.889C-22.635-89.143-22.743-89.122-22.853-89.104
		 M-28.822-96.812c-1.219,0.206-1.816,0.623-2.066,1.439c-0.152,0.499,0.103,1.467,1.017,2.507c1.298,1.479,3.762,2.875,6.782,2.365
		h0c0.093-0.016,0.184-0.033,0.276-0.052c4.208-0.867,4.861-4.584,4.887-4.743c0.206-1.121,0.238-2.932-0.327-3.506
		c-0.112-0.114-0.297-0.234-0.73-0.161c-0.107,0.018-0.225,0.047-0.346,0.087c-0.872,0.285-1.559,0.526-2.167,0.739
		c-1.29,0.451-2.143,0.749-3.246,0.935c-0.353,0.06-0.724,0.107-1.138,0.144c-0.364,0.033-0.74,0.055-1.103,0.075
		C-27.608-96.946-28.254-96.908-28.822-96.812"/>
	<path fill="#231F20" d="M-36.367-99.42L-36.367-99.42c-6.872,1.161-9.143-4.706-9.165-4.765c-0.122-0.325,0.01-0.688,0.31-0.861
		c1.365-0.79,2.731-1.305,4.058-1.528c6.187-1.046,9.562,4.312,9.703,4.54c0.104,0.17,0.133,0.374,0.079,0.564
		c-0.055,0.19-0.185,0.35-0.362,0.439C-33.373-100.205-34.928-99.663-36.367-99.42 M-43.944-104.132
		c0.677,1.244,2.756,4.088,7.339,3.313c1.081-0.182,2.245-0.557,3.47-1.116c-1.023-1.277-3.695-3.936-7.793-3.243
		C-41.906-105.012-42.918-104.661-43.944-104.132"/>
	<path fill="#231F20" d="M-16.386-103.77c-0.016,0.002-0.034,0.005-0.051,0.007l-2.427,0.233c-0.188,0.019-0.375-0.039-0.521-0.159
		c-0.145-0.121-0.236-0.294-0.253-0.482c-0.222-2.444,0.914-4.521,0.962-4.608c0.19-0.342,0.622-0.466,0.963-0.275
		c0.342,0.189,0.465,0.621,0.275,0.962c-0.008,0.019-0.751,1.393-0.809,3.08l1.673-0.161c0.39-0.037,0.735,0.247,0.772,0.637
		C-15.763-104.164-16.023-103.832-16.386-103.77"/>
	<path fill="#231F20" d="M-55.701-96.598c-0.213,0.036-0.438-0.024-0.606-0.184c-0.284-0.269-0.297-0.717-0.028-1.001
		c5.793-6.126,15.039-13.689,26.184-14.943c6.734-0.757,10.927,1.141,11.102,1.222c0.355,0.165,0.51,0.586,0.346,0.942
		c-0.165,0.354-0.585,0.51-0.94,0.345c-0.06-0.027-4.093-1.826-10.446-1.089c-5.895,0.685-15.055,3.754-25.216,14.498
		C-55.416-96.693-55.555-96.623-55.701-96.598"/>
	<path fill="#231F20" d="M-24.711-92.539c-2.338,0.396-4.977,0.218-7.064-1.264c-0.319-0.227-0.394-0.67-0.167-0.988
		c0.228-0.319,0.671-0.395,0.989-0.167c3.571,2.538,9.327,0.362,10.583-0.822c1.062-1,0.753-3.033,0.75-3.053
		c-0.066-0.386,0.195-0.751,0.581-0.816c0.386-0.065,0.752,0.195,0.817,0.58c0.02,0.114,0.449,2.79-1.177,4.321
		C-20.26-93.935-22.33-92.94-24.711-92.539"/>
	<path fill="#231F20" d="M-19.955-90.479c-0.199,0.033-0.41-0.017-0.576-0.157c-0.017-0.016-1.771-1.469-3.782-1.281
		c-1.121,0.104-2.146,0.712-3.036,1.804c-0.249,0.304-0.695,0.349-0.997,0.101c-0.304-0.247-0.349-0.693-0.102-0.996
		c1.145-1.402,2.495-2.183,4.016-2.321c2.61-0.237,4.729,1.535,4.817,1.612c0.298,0.253,0.335,0.701,0.081,0.999
		C-19.646-90.587-19.798-90.506-19.955-90.479"/>
	<path fill="#231F20" d="M-22.403-52.736c-0.231,0.039-0.478-0.012-0.68-0.165c-0.104-0.079-10.504-7.904-13.609-10.398
		c-3.421-2.748-2.756-7.466-2.695-7.854l1.022-7.935c0.009-0.074,0.028-0.146,0.057-0.216c1.755-4.391,5.61-4.311,5.772-4.306
		c0.488,0.017,0.872,0.427,0.855,0.916c-0.016,0.487-0.425,0.868-0.909,0.855c-0.125-0.003-2.739-0.005-4.033,3.091l-1.009,7.833
		c-0.001,0.011-0.003,0.021-0.005,0.032c-0.006,0.039-0.623,4.05,2.053,6.2c3.083,2.477,13.459,10.286,13.565,10.365
		c0.391,0.293,0.469,0.85,0.175,1.24C-21.985-52.888-22.188-52.772-22.403-52.736"/>
	<path fill="#231F20" d="M34.189,17.194c-0.17,0.029-0.351-0.004-0.505-0.104l-2.576-1.68c-0.327-0.213-0.42-0.652-0.205-0.98
		c0.213-0.328,0.652-0.42,0.98-0.207l2.574,1.68c0.328,0.215,0.42,0.652,0.206,0.98C34.551,17.056,34.376,17.163,34.189,17.194"/>
	<path fill="#FFFFFF" d="M-41.006-104.212c0.097,0.574,0.641,0.961,1.215,0.864c0.574-0.097,0.961-0.641,0.864-1.215
		c-0.097-0.575-0.641-0.961-1.215-0.864C-40.717-105.33-41.103-104.786-41.006-104.212"/>
	<path fill="#FFFFFF" d="M-42.753-103.917c0.055,0.322,0.359,0.538,0.68,0.484c0.322-0.054,0.539-0.359,0.484-0.681
		c-0.054-0.321-0.358-0.538-0.681-0.483C-42.591-104.543-42.807-104.238-42.753-103.917"/>
</g>
</svg>
