<?xml version="1.0" encoding="utf-8"?>
<!-- Generator: Adobe Illustrator 16.0.0, SVG Export Plug-In . SVG Version: 6.00 Build 0)  -->
<!DOCTYPE svg PUBLIC "-//W3C//DTD SVG 1.1//EN" "http://www.w3.org/Graphics/SVG/1.1/DTD/svg11.dtd" [
	<!ENTITY ns_extend "http://ns.adobe.com/Extensibility/1.0/">
	<!ENTITY ns_ai "http://ns.adobe.com/AdobeIllustrator/10.0/">
	<!ENTITY ns_graphs "http://ns.adobe.com/Graphs/1.0/">
	<!ENTITY ns_vars "http://ns.adobe.com/Variables/1.0/">
	<!ENTITY ns_imrep "http://ns.adobe.com/ImageReplacement/1.0/">
	<!ENTITY ns_sfw "http://ns.adobe.com/SaveForWeb/1.0/">
	<!ENTITY ns_custom "http://ns.adobe.com/GenericCustomNamespace/1.0/">
	<!ENTITY ns_adobe_xpath "http://ns.adobe.com/XPath/1.0/">
]>
<svg version="1.1" id="Layer_1" xmlns:x="&ns_extend;" xmlns:i="&ns_ai;" xmlns:graph="&ns_graphs;"
	 xmlns="http://www.w3.org/2000/svg" xmlns:xlink="http://www.w3.org/1999/xlink" x="0px" y="0px" width="595.279px"
	 height="841.89px" viewBox="0 0 595.279 841.89" enable-background="new 0 0 595.279 841.89" xml:space="preserve">
<metadata><?xpacket begin="﻿" id="W5M0MpCehiHzreSzNTczkc9d"?>
<x:xmpmeta xmlns:x="adobe:ns:meta/" x:xmptk="Adobe XMP Core 5.3-c011 66.145661, 2012/02/06-14:56:27        ">
   <rdf:RDF xmlns:rdf="http://www.w3.org/1999/02/22-rdf-syntax-ns#">
      <rdf:Description rdf:about=""
            xmlns:dc="http://purl.org/dc/elements/1.1/">
         <dc:format>image/svg+xml</dc:format>
         <dc:title>
            <rdf:Alt>
               <rdf:li xml:lang="x-default">Print</rdf:li>
            </rdf:Alt>
         </dc:title>
      </rdf:Description>
      <rdf:Description rdf:about=""
            xmlns:xmp="http://ns.adobe.com/xap/1.0/"
            xmlns:xmpGImg="http://ns.adobe.com/xap/1.0/g/img/">
         <xmp:MetadataDate>2018-09-05T11:34:36-03:00</xmp:MetadataDate>
         <xmp:ModifyDate>2018-09-05T11:34:36-03:00</xmp:ModifyDate>
         <xmp:CreateDate>2018-09-05T11:34:36-03:00</xmp:CreateDate>
         <xmp:CreatorTool>Adobe Illustrator CS6 (Macintosh)</xmp:CreatorTool>
         <xmp:Thumbnails>
            <rdf:Alt>
               <rdf:li rdf:parseType="Resource">
                  <xmpGImg:width>160</xmpGImg:width>
                  <xmpGImg:height>256</xmpGImg:height>
                  <xmpGImg:format>JPEG</xmpGImg:format>
                  <xmpGImg:image>/9j/4AAQSkZJRgABAgEASABIAAD/7QAsUGhvdG9zaG9wIDMuMAA4QklNA+0AAAAAABAASAAAAAEA&#xA;AQBIAAAAAQAB/+4ADkFkb2JlAGTAAAAAAf/bAIQABgQEBAUEBgUFBgkGBQYJCwgGBggLDAoKCwoK&#xA;DBAMDAwMDAwQDA4PEA8ODBMTFBQTExwbGxscHx8fHx8fHx8fHwEHBwcNDA0YEBAYGhURFRofHx8f&#xA;Hx8fHx8fHx8fHx8fHx8fHx8fHx8fHx8fHx8fHx8fHx8fHx8fHx8fHx8fHx8f/8AAEQgBAACgAwER&#xA;AAIRAQMRAf/EAaIAAAAHAQEBAQEAAAAAAAAAAAQFAwIGAQAHCAkKCwEAAgIDAQEBAQEAAAAAAAAA&#xA;AQACAwQFBgcICQoLEAACAQMDAgQCBgcDBAIGAnMBAgMRBAAFIRIxQVEGE2EicYEUMpGhBxWxQiPB&#xA;UtHhMxZi8CRygvElQzRTkqKyY3PCNUQnk6OzNhdUZHTD0uIIJoMJChgZhJRFRqS0VtNVKBry4/PE&#xA;1OT0ZXWFlaW1xdXl9WZ2hpamtsbW5vY3R1dnd4eXp7fH1+f3OEhYaHiImKi4yNjo+Ck5SVlpeYmZ&#xA;qbnJ2en5KjpKWmp6ipqqusra6voRAAICAQIDBQUEBQYECAMDbQEAAhEDBCESMUEFURNhIgZxgZEy&#xA;obHwFMHR4SNCFVJicvEzJDRDghaSUyWiY7LCB3PSNeJEgxdUkwgJChgZJjZFGidkdFU38qOzwygp&#xA;0+PzhJSktMTU5PRldYWVpbXF1eX1RlZmdoaWprbG1ub2R1dnd4eXp7fH1+f3OEhYaHiImKi4yNjo&#xA;+DlJWWl5iZmpucnZ6fkqOkpaanqKmqq6ytrq+v/aAAwDAQACEQMRAD8A9U4q7FXYq7FXYq7FXnH5&#xA;vfnTon5fWi24QX/mC5TnaaeCVVUJI9WZhXilRsOrdu5CkB8meb/zY8/ebLh5NW1ab6u32bG3Yw2y&#xA;jsBEhANPFqn3xTSSaB5m1/y9fx3+i381hdRsGDwuVBp2dfssp7hgQcUvvH8t/NjebfI2j+YXQRzX&#xA;0NbhF+yJonaKXj7epG1MWCWfnN54ufJf5f3+sWXH9IuUtbAtQhZpjQPQ9eC8mA9t9sUh8N6rrms6&#xA;vetfapez3t455GeeRpHqTXYsTT6MWTKvJf5zfmD5RuIzYapLc2KEc9NvGae3ZR+yFY1j+aFTiin1&#xA;x+Vf5taD+YWlNPZg2mq2oX9Iaa7BmjLdHRtucZPRqfMDFBDOcUOxV2KuxV2KuxV2KuxV2KuxV2Ko&#xA;PWtUt9J0e/1W4BNvp9vLdTAdeEKGRuvsuKvz28zeYtT8x69e65qknq319KZZT2HZUWvRUUBVHgMW&#xA;aWYq7FX3T+UNrbeVfyt8t6dq1zFZ3BtjcMlw6xMDdSPccSHI3X1aHFiUn/5yGsbfzH+Uupy6ZPHe&#xA;NpckV83oOJBxiYrITwJ+zG7N9GKh8XYsnYqyL8v/ADlf+TvNun69Zs1LaQC6hBoJbdjSWI9viXp4&#xA;Gh7YofoJHIkkayIeSOAynxBFRixXYq7FXYq7FXYq7FXYq7FXYq7FUB5g0iLWtB1LR5mKRalaz2kj&#xA;r1VZ42jJHyDYq+B/OnkLzR5O1SSw1yykgo5WC6CkwTKOjRSU4sCN6dR3AOLJjwBPTFLgSpBBoRuD&#xA;iqpc3NzdTvPcyvPPIaySyMXdj4lmqTirdtd3VrL6trM8EtCvqRMUajChFVIO4xVSxVxBBIIoRsQc&#xA;VZd+XX5ZeZfPOswWenW0i2HMC+1NlIghjB+IlyOJen2UG5+W+KH3vDEkMKRJ9iNQi18FFBixX4q7&#xA;FXYq7FXYq7FXYq7FXYq7FXYqsnt4LiJobiNJonFHjkUMpHuDtirxX87P0Y+paR5L02xhhXUFa+1c&#xA;W8SRvJbxMEghLIAeMk+5/wBT54q+ePzV8pR+W/MbW0UIgifmrRrXiJYm4vxr+z9kj54lkCwvFLsV&#xA;Z/8AlH5Kj8yalP6tsLoIvC3havFn4s7bDrxRfxxDEl9E/kfLpOoafqflvUrGC5uvL0sa2k9xGksj&#xA;WNyC8Cl3BZvSKvH8gMUPXo4440WONQiKKKigAAewGKrsVdirsVdirsVdirsVdirsVdirsVdirz27&#xA;88+az5kuNHtrWytnRytul4ZFaQA0BD8kU8uo/jhQh7XyL5j1Hz7B5n12OBDHFDEyQuSoS2Z5I1RT&#xA;yO8klWq2KVD8wfyqfzBrzX6WFpf28qqxjuSRwlACsRTj1CjvkSLbMWTgN0D73nuqflz5e0q+Szut&#xA;C02W5Y/FbwF3cf61GIU/PIGG3MuTj1HFIDw4n5/rXaL+Wmha1NJBZaHpguIya28pdJKDuAWFad6Y&#xA;eDzKJamjXBH5H9b0r8tfy0fy1qc13JZ21lFwIht7Ykj1HoGc1r+ytOuSApxsk+I3QHuULHyL5q8v&#xA;+b9R1rQoraWO8jNskc7nh6IlMqfCODckLEdaZJgmOg+d/Mt35mTR7m2s7iPf6xLZFyIqD7Rcs67f&#xA;2VrihnuBLsVdirsVdirsVdirsVdirsVdirsVYX+aeq+SdK0BbrzPy+N/S09LZed5JM24jt17k07/&#xA;AA+OKgWu/LbVL+byxJd6pcH6rFIy281wQGWJAK83rSgO1a4qjPOurXa+Ubm/0S6RqFa3ELB/3Zbi&#xA;5RlqKivXtirzSxutBtV5G9h+sSDlLJLKnqEtua1NRmFklInd6jR4sOOIMSLI59VmoXejSg3NvexL&#xA;fQjnDJBKvqcl3H2TXJYpSBpr1+LFOBkT6gHq/l7VZE8r2F9rt1HDNNGGeeZliU8yTHUniKlKZlvN&#xA;pB+a+q3tnpFnPDJMdJmZhfLZhWmlXiHVIySASyhqCoB74qmv5c6h5O1LyzBf+VGV9OmJEjkUmEq/&#xA;aWcH4g616H6NqYqyfFXYq7FXYq7FXYq7FWJ/mp5wuvKHkXUtcs41mvoRHFZxyfY9aeRYkLdNl58u&#xA;u9KYpAt4t5g8va3No1zqvm7X9W1+a3iM02nW04tbU8fibhCnBfhHfbYdO2YvjEmg77+TIY4cUrkR&#xA;3Mj/ACF81aqNfn8pJeSar5eOmR6xplzcsWurNJnRVtJW3DbPyArsOm2wvgSRu6nU4owl6TsRfz73&#xA;uWTcZ2KvnrzheyebfzP1e9hBuNN8pQ/ozT1G6/XpTW7kUfzoPgPyGVzkLAc7TYJGEpAWQNvj+xLf&#xA;PHmvX7HRdI03j9XspWaCCAbUZI2keZ1P2mLdK9PDxv0/DPJwuw7G7J8bU44ZQRCZO3I7RJ/Qx3yd&#xA;+aeraJPPourOZbO6jZZJyP3MkTDiTKB/duv8428dsnmxcEqae2ux56LMYc4HeJ7x+sdf2pnotlo7&#xA;ahPquljy5rM10wW90vWYoLlSyABZIpVDywtQUK0KnrSuYk8nCeTj4NH4sLEgJdzWo2mgWerx6zqk&#xA;ug2F6oMUGl6RHBZQRRnd2J2lldqU5t9neg3wwnxFjqdIMUBuDK0q85fmjr3mPWY7S0LW9rCof1eH&#xA;FUi/YWCJ+gan2mFSN+mZenx8cq6Of2D2MdZqBGVjHHeXu6D4/dZZV5V80a7q/lW+smi9axhufq/p&#xA;VLNHJGscokj7qD6lCu465VmMYTMWjtLsw4s2SOO5QhMjzTr8s74+V/zRfS5wYNO842guIUOyLqdq&#xA;KyADopkjJY+LUGU45XYcfW4THhkRXEPt6veMscF2Kvnn88fN95cea9Q8v6pezad5W0Kzgvri0s3K&#xA;XOotOVVVL1X92kjheNeu/hxhMno5WmxwNynyj9qEt9G81+X9IGq+VfMOp6Y8MP1n9B6hKLu1FF5t&#xA;C0b8gh/ZLAk5THMbou0y9lxMOKNg1yL3XyN5kPmbyhpGvNEIJNRto5pYRuqyEUcLX9nkDT2zJdCn&#xA;mKuxV5z/AM5DwNN+TnmNFNCEtn+iO7hc/wDEcUhiPme6U+TdWugKqdOuJQAa7egzdcwIjcPYZ5fu&#xA;pH+ifuZn+R3k/QNB/L7R7zTrVIr3WLG1u9RuQWd5ZJIg4qzE0C86BRsMz3jy9BxQxf8AM3zgvlDy&#xA;TqetLRryOP0tPipyL3Ux4QqF/aox5EeAOKQLePaTDH5I/L97m9PqXVtC95fM7by3cvxFS29SzkID&#xA;mFI8UnqsURp8O/QX8fxswLW9evdd8q+Vb+/kD6gbu9juwFEfF0WQBSo6UTjmdoo1mr8cnM7AzHJq&#xA;sEjzuf8AuJJNcW/q+nIkjQXMLc7e4jNHjcdCp/Xm6y4hMUXv+0ezserx8E+Y5HrE+X43R8Or6PKA&#xA;vmPyna6jL+1qNhwtpJP8p4h6fxHuQ1M1OTQZB9JeH1Ps5ngd8Yyf0okC/eCRXzKrJrukW44+WvKt&#xA;tpk1Ph1K+CTyx+8cdZPi8CX+jBj0GSR9R2RpvZzUTNDHHEP50qkfgBf2kJbFCytJLLI09zOxkuLi&#xA;Q1eRz1Zjm3xYhAUHuezuzsekx8EPeSeZPeU10nzbe+WvImo6hZuv1ptfMYiZQ3qRi3iZ19vhT7Xb&#xA;NHq4XmL5z2xnOLNlI/1X9Aegec7eTWfKltruiP8A7kdOMOsaPMBU84gJQKf5SdvGmYeM8MmjWYxm&#xA;w2PeHuHk/wAzWfmjyvpmv2e0GowLLwrXg/2ZIyfGNwyn5ZmvLJxiryX/AJyS8n+XdT/L3UtfurRW&#xA;1nSYo/qV6pKyKrToGRqbOnxHZq0rUUOKQk/mK6ZPJ+p3TGjLp88pK9iIGbbNfEbvYZpfuyf6J+56&#xA;L+Udt9W/LDytHQLy0y1loN/72ISV+nlmweOLLcVdiqTecvL6+YvKer6EzBDqNrLbpIeiu6kIx/1X&#xA;ocVeH+T7z9L+W7ry3rMTQavpkbaVrVm9OYIQxc/dZF3B6ZhZI8Mreo0eaObFwnnVFlf5HebLix9T&#xA;8t9ddV1bRkLaPOdheafU8Ctf24uhA7f6rHMqErDoNTpzjkQfx5vXsm4zxD8ztR/xR+Z2m+Wozz0r&#xA;yoi6nqg6q19MP9GjbtVEPMfNhlWaVB2PZuDjyWeUd0r1ywPmvzt5e8kqOVpJJ+ldcHb6nan4Ub2l&#xA;k+H50yrBHq53a2egIDruwX83dIk8v/mdeaSq8dP1G6Ot2C9gbqCRLj2/vo6D2zYaUfvQXI9lcn+G&#xA;44+cj/sJMRh1+xl1I2Ch/UBKhyBxLLWo6+2bIaiJlw9X0HD7Q6fJqjphxcYJF1tY5j8Bi+uavc3d&#xA;5IiyFbeNisaKaA8TTkada5gajMZSI6B8+9oO2s2fUSgJEY4EgAda6nvt2g6vdWt7FGXZreVgjxk1&#xA;A5GlR8sdPmlGQHQp9nu2s2DURgZGWOZESD59R3fpZQnmCxbUjYAN6gYpzoOPMdR1rmeNREz4er6B&#xA;j9odPLVnTC+OyL6WOY7/ALGefkPoK+ZvPJtbyETaP5f+u3k8biqSXF7S2RHH+orMPlmqzD95IvmP&#xA;b2T/AArJH/bJfeyjyRBPoN/rXke7YtN5euSLJ3+1JY3BMlu/vsd6dNhmDnjRtyeys/FDhPOP3Mh/&#xA;JXUR5f8ANeu+Q5m42kxOs6ACdhFKeNxCtf5HFVA/yjl+KVh1GuweHkI6HcPZsscN4p+dPmBvNWqR&#xA;/lppLcoeUV15pvF3EEMbCSK3B/347BW9tv8AKpDJPhDl6TTHLOunVIPP09zfW9r5K0ZPV1vzCRbQ&#xA;RKKiK2B/fTSeCKgb8fDMbDGzbu+0tQIY+HrL7n0BpWnW+maXZ6bbClvZQR20IPXhEgRfwXMx5lFY&#xA;q7FXYq8i/Ofyje2F1H+Y3l6HnqOmx+nr1km31zTxTk3+vCBWv8o/yQMhOHEKcjS6g4p8QYpr2nr5&#xA;m0fT/Mflq59HWrGl7od+lAeQ3ML1/ZenFlPQ9e4zFhIxO70Opwxz4wY8+n6npPlr839F1P8ALu98&#xA;13i/VbrRopBremk8ZIbqIbxANvSRv7s+9OoOZgLzEokGnnPkG1urfQ7jX9ZcDVNdlk1XUpW2C+rV&#xA;1Xf7KonbtmHllcnp9Bh8PFZ5ndlP5BaVJfx615+u4ys3mGcw6YGFCmn2pMcfyMjAlvHiDmXCNCnn&#xA;tVm8TIZJT/zlH5frpWiebYUq+kXJtrxgP+Pa7HHkx8FkUAe75dhnwzBczsbWDTarHkPIHf3HY/YX&#xA;hkekael6b1IqXDEktU0q3U0rTfNuMMRLird9ex9j6aGc6iMP3p679eZrlZYzrfl69S8kmtozNDKx&#xA;cBN2UtuQR88wNRppcRI3BeC7f9mtRHPLJhiZwmb25gnnt91N6H5evXvI57mMwwxMHo+zMV3Apjp9&#xA;NLis7AJ7A9ms8s8cuaJhCBvfmSOW332yQ6XpsV0+oGMCZQXZ6mg23anSuZ3hRB4q3e6PZWlx5jqe&#xA;EDJuSd/ia5Poj/nGXy02n+RZtdnj4XfmO5e76UIt4yY4VP083Hs2aecuIkvjOt1HjZp5P58ifmUP&#xA;+dun/oHzRoHn2EcbVmGja8R09CYloJWp2jkrU/6oynJGwy0Ofw8gPTkWP+e2u9Ik0rzppyFr7y1c&#xA;CeZF2MtnJ8FzF9KH6BXMfDKjTue1MHHj4hzj9z0X8x/zStdC8q2NzoXG/wBc8xoq+W7Yb8zKoYTu&#xA;D/uuNXDGvsNtyMsmnnccDI0Obzewt9P8h+VbrUdUnNzfSFrrVLxiWluruU1oCdyWY0WvzPfMMkzk&#xA;9PjhHTYrPx8yzv8AJjyNf2MFz5x8xx080a+oYwsP947PYxWyg7qaUZ/egO4NcuMaFPN58xySMi9O&#xA;yTS7FXYq7FXEAggioOxBxV8/a3op/LXzmLRAU8k+ZZmfTn/Ysb5t2tyf2Y5Oqf2McozY73DtuzdX&#xA;wHglyP3pR5y/Ly51LWoL3TJTFZajNbp5msA5SO5ghlWRZCOjOvH/AD3rVDLQpz9VoROYkO/dMvPr&#xA;3uoRad5P0puOqeZpxZqR1jtVHK5lIH7Kxjf2rjhjZtPaefgx8I5y+573pGlWWkaVZ6XYp6dnYwpb&#xA;26eCRqFWvvQb5mPMpd548vQeY/KGr6JPxC31rJEjtSiScaxvv/I4DfRir400O4a40m2kf7XDiffg&#xA;StfwzdYJcUAX2/sLUnPo8czz4a/0vp+2kdlrtnYqgtWjlnt47KJgkl9NFaq56L6rhammY+plUC8/&#xA;7Uag4tDOv4qj8+f2PtvR9LtNJ0my0u0Xja2EEdtAvgkSBF/AZqHxpB+b/LVn5n8saloF5tBqEDQ8&#xA;6V4P1jkA8UcBh8sVeI+Rr2XUfLs+iaygOqaQ8mk6vbvvVoqx1NdyHTv3NcwskeGT1OhzDLio9Nil&#xA;/wCXvkS90VjqOuz/AFm+to2tNLR39RbSyVmYIjGgBYsSadB8zhyZOLYMNFovCuUuf3BPPImhH8xP&#xA;OA1+7Qv5M8uTFdLiYfBfX6dZiD9qOL9nxP8Ashl+LHQ83VdoavxJUPpD3nLXXOxV2KuxV2KuxVJv&#xA;OHlTSfNfly90HVI+dreIVDgDnHIN0lSvRkbcf0xV4ZHq3mvyap0Pzdo9/dy2tY7LWbCBrmC8jX7B&#xA;5L9mQilVbfxpmNPCb2d7pu1IiNT5hmH5Q+UNau9dvfP3mWyewuriIWegabOCJra0qS8kiH7Mkp8d&#xA;wK9jl0IcIp1mr1Jyz4uj1zJuK8a/Pj80rvTrSfyb5XVrrzFewMb+SLc2dqy7nt+9kU/COoG/Uriy&#xA;iBe/J8/6U9n9USC2JAgHB422dWHUOp3Brm6wmJiOHk+3djZ9PPTxGCVwiK8/iO9GZa7V2KpT5hu7&#xA;JbKWCRmaagdVj3dSpBDH+UVpmNqZxESC8z7Ta7Sx08sWU+qQ2A+q+h8h7+b6X/If85Lfzvo40vVJ&#xA;VTzRp8YFwpov1qJdvXQfzf78A6HfodtS+QkPWMUPGPzP8raz5f8AOI89aDp82padqMS2/mbTrROc&#xA;wMQpFdxxjdiq/C3t8yRXkhxBzdFqvBlZ+k82NOfNH5hMmgeXtMvtN0m5YLrGv3kRt0jtz/eRwB95&#xA;JGG1B+o1FePDRsubrO0hKPDDr1e/aHommaFo9ppGmQi3sLGNYbeJeyr3J7sx3Y9zvmQ6VHYq7FXY&#xA;q7FXYq7FXYq7FXYq86/N380h5Ts4tI0dVu/N2qKRp9rsRChqDczA9EWh4g/aPsDirxTT7GDRrO6v&#xA;r+5M95OzXOq6lKfilkJLMxPhvsMKCbYlpUcPnLU9V1BGaxe39GOxmjA5cfj3lHR+VBUE+1clCZib&#xA;Dl6XWZdNMTxSMZKN7LqGjyGLWLdkjH2b6FWeB69NwKqfY5n49YD9Wz6J2b7aYZitQOCXeN4n9I+3&#xA;3qmkWupeYQWsa2mnAlZL2QVdiOqxJ4+5yGXWXtFwO1vbMyBhphX9I8/gP0n5Mz03y7pGn2kltBAG&#xA;WYFbmST43lrsfUY9a+HTMIm3gsmSU5GUjcj1eb65pmseRvMdrreiTvbpHKJbG5Q7xuNzE/iKVFDs&#xA;y7HvkVBt9cflF+a2l/mB5fFwnG31q0CpqlgD9lyP7yMEkmJz9nw6H3UEM8xQ7FXYq7FXYq7FXYq7&#xA;FXYq7FXYqwv80fzLsPI+jLIEF5rl8TFo+mCvKaXYcmpuI05Asfo6nFXg2mWF+15da1rdwb3zDqTc&#xA;766Y1Cj9mKP+VEGwA/UBhUl5z+YfnH9JXB0yxkrp8DfvZFO0sg9+6r28evhgKQGRflLAq6FdTU+K&#xA;S5Kk+yItP+JHCESTX8w/+UO1D5Rf8nkxKhjX5Saqa3mlOdtrmEfckm//AAOITJ6RhYoXUtOtNRsp&#xA;bK7T1IJhxYdx4EeBB3GBXlVpe+Zvy084w6jpsxSaE1hk/wB13EBI5RyL3B6MOx3HY4GfN9n/AJcf&#xA;mJofnvy7Fq+mMEmWiX1izAyW83dG6VB6q3ce9QFiynFXYq7FXYq7FXYq7FXYq7FWM/mH+YGieRvL&#xA;kus6oxY19OztF/vJ5yCVjXw6VZuw+7FXzJoXmaPzbr935j1e+S68x3IIS2AZUtbcfZhgV/2R3I/i&#xA;SSFKU/mP5x+qxPotg/8ApMopdyqfsIR9gf5TDr4D57JUB5dgZvaPy3gWLyjaMOszSyN8/UZf1LhD&#xA;Aqn5h/8AKHah8ov+TyYlQ8n8sar+ites70mkccgEv/GN/hf/AIU4GRe9Agio6ZJg3iqVeY/L9nrm&#xA;mvaXHwuPigmAqyP2I9vEYFBeb+S/OfmX8s/OBubbcxMItRsCx9K5h68TT2PJGpUH6RgZ83235N84&#xA;aJ5v8v22uaNN6trcCjodpIpV+3FIvZlP9RUEHFineKuxV2KuxV2KuxV2KuxV87/85iadfy6R5a1G&#xA;NWNjaz3UNyw6CSdYmiqPlC++KQ+d/KOl6nqnmKzsdMl9C/kLtby1ICtHGz7kdvh3yMpULbsOI5JC&#xA;I6oDU7e/ttQuIdQV1vUc/WBJUtzJqSSetete+EG2MoGJo80NhYvefKkCweWtMjH/ACzRufm6hz+L&#xA;YWspf+Ys0KeUr2N3VZJPTEaEgFiJUJ4jvtiUh4tgZvb/ACLqv6S8s2kjGs0A+rzdftR7Cte5TicI&#xA;YFkGFCQ+YtcuYZotI0lRNrV4P3Y6rCneWTwA7ZGUqDZixGcqDxvW7Oey1i9tLiQzTQzSI8xrVyGP&#xA;x77/ABdcANhnkhwyI7n1X/ziTpuoW35f393PVbS+1B3s0I2IjjSN5B7Fl4/7HC1F7hih2KuxV2Ku&#xA;xV2KuxV2KpV5q8s6X5n8vX2h6nGJLS+jMbVFSjdUkX/KRgGHuMVfHf5CaV6vm+8u3AZbC2ZVcbgS&#xA;SuEBB90D5RnOzt+yoXkJ7gzP8z/y+tNbk+sw0gv+JME/7LdzHJTtU1r2rlePJTm63SCe45vCdU0f&#xA;UtKuja38DQSjpyHwsPFWGzD5ZlAguhyY5QNEPRNY/MjTNOsUsdF/0ueKNYlnIIiTiKV3oWO3yyVt&#xA;IDze+1C9v7lrm8maed/tO5qfkPAewwM0PirNPy18y2el3V1a38whtbhQ6O1eIkTam3Tkp/DEMSGa&#xA;XXm2S/kNj5YiN/eNs10QRbQV/adyN6eA/swSkA2YsEpmgE38t+WodIjlmlkN3ql0eV5fOPic/wAq&#xA;/wAqjwzFnO3fafTjGPN595w8vpe/mbZaezmKPWprRDJt8AmdbdmFfDjXL8R2dXro1k977f0nStP0&#xA;jTLXTNOhW3sbONYbeFOiogoPmfE98scBF4q7FXYq7FXYq7FXYq7FWGfnJ5iu/Lv5Y+YNVsyVuo7c&#xA;QwuuxRrmRLcSD3T1eQ+WKh4J/wA4+6Z6Pl3UNRIo15ciNT4pAmx/4KRsxM53ei7JhUDLvP3PSNVt&#xA;PrNmygVkT4k+Y7fTlILs5xsPMvP2u2ukaE7SIktzcVjtIpFDDmRu5Brsg3/DL8cbLq9XlEIebwtm&#xA;LEsTUncnMp0LWKuxVfBPJBNHNEaSRsGQkAioNeh2OBING31H5G1fRPMvlq2v7a1hhf8Au7q3jRVE&#xA;Uy/bUU7GvIexzCmCC9TpckcsAQE5k0TT26IU/wBVj/GuRtvOMPIvz00I6f8AofVrR3DK7wmTurCk&#xA;kZBFN/hbMjBLmHTdq4a4ZB9V+Rtcn17yboms3AC3GoWMFxOAKD1HjBeg8OVaZkOkTvFXYq7FXYq7&#xA;FXYq7FXYqx78w/0X/gTzA2qwrcafHYXElxA9QHEcZcCoIINQKEb16Yq8e/LHTDp3kTR4CKPJB9Yf&#xA;xrcEy7/Q4GYOQ3IvW6KHDiiPL72SzTRQxPNM4jijUvJIxoqqoqSSewGQcomty840n8mNT/NlbrzV&#xA;Jqp0TR3neDQ4HtvXMtvGaNN/ew8A718fuAzOhGg8nq9R4kyRy6K//QnOpf8AU0Q/9Ij/APVXJuLb&#xA;v+hOdS/6miH/AKRH/wCquK2pzf8AOHetAD0fMts57h7aRP1O+K2pf9Ce+ZP+phs/+RUuKbXQfl35&#xA;l/Jy8tdS1G+i1Dy1qsq2epSwKyi2lP8AcSuG/ZrUE/x45VlhYc7Qarw57/SXpWYT07CfzisIrryR&#xA;cTyQicafNBd+iSQGCuEcVWhH7uRtxluE1Jwe0ocWE+W76F0dNPTSbJNNRYtOW3iFnGgoqwhB6aqP&#xA;ALTM15ZF4q7FXYq7FXYq7FXYq7FXlH5++bNBk/LPzNpNhrFnLrSJDHLp8dxC1yqi5i9ZWhDcxSPl&#xA;XbpikIHSLjTrjTLWXTZUmsTGot5IyGUoo4ihHhSma4893s8ZiYjh5Me8w2155u8yWX5f6ZI0aXQF&#xA;15iu4zvBYIRVKitHlNFFfEV2OX4YdXV9qarhHAOZ5vf7Cws9Psbewsolgs7SNIbeBNlSONQqqPkB&#xA;mU8+r4q7FXYq7FUv8xaDpvmDQ73RdTi9Wxv4mhmTvQ9GU9mU0ZT2IxV4V5Pn1LSL6/8AI+uPy1fQ&#xA;SFtpzt9ZsD/cTr/sSA3htXeuYmaFG3pOzdVxw4T9UfuR3nm40+Hyhq/1+VYbeS0mj5OQKs8bBVWv&#xA;ViegyuHMOZqiBjlfcWcflH5t0O48k+WNJn1iyfXRp1ujactzE1zSOIAAxBvU5BF+Lbbvme8gWf4o&#xA;dirsVdirsVdirsVYj+avnu38k+Sb/WmZfrnH0NNibfndSAiMU7haF2/yQcVD4InnmuJ5J53aWaZj&#xA;JLIxqzMxqzEnqScWafeV/Pvmfy1Ip027P1atXspavA29T8BPw18VIPvkJQEubkYNVkxfSdu7o+lf&#xA;+cYvMHlfUtP1aX60ZPOt/O11rKSqFYwq3GEW+55QorU8VY7inHJAUKaMszORkeZe5YWt2KuxV2Ku&#xA;xV2Kvnr/AJyW82eWtH1vRb3TrgHzxpj0eFByQ2MqlmiuiCtORPJBWu5O1QcjKIIpuwZZY5CQfO3m&#xA;Tzl5j8xz+pqt480YblHbL8EKdacYx8NaGlTv74IwA5NmbUzyH1FL9K1O90rU7TU7GQw3llKk9vKP&#xA;2XjYMp+8ZNofoD5H82WXm3yppvmCzoI76INJEDX05V+GWM/6jgjFgnuKuxV2KuxV2KuxV8ff85Q+&#xA;e5Nc87Dy/bll07y+DGykFQ91IAZXoaVCjii/SRscWQeMYpdir6R/5xG8lFpdU843KfCg/R2nV7se&#xA;Mk7ivgOCg+7DFiX0vih2KuxV2KuxV2Kvk/8A5yx8lNp/mq081W6f6LrMYhu2FaC6t1CgnsOcIWg/&#xA;yTiyDwfFLsVfQH/OJ3nya01268mXLM1pqSvdaeKEiO4iSso9hJEtd+6jxxQX1RixdirsVdirsVdi&#xA;r4r/AOcldd0TVvzRu/0XEoewhjstQuVp++uYS3M7f77UrF/sfCmLIPK8Uq1nZ3V7dwWlrG01zcyJ&#xA;DBEoqXkkYKqj3JOKv0E8h+VLbyn5Q0vy/BQixgVZpB0eZvjmf/ZSMxxYJ9irsVdirsVdirsVYZ+b&#xA;/koecfIGp6RGge+VPrOmmgqLmCrIBXpzFYyfBjiofBZVh1BG9PpGLNrFXt3/ADihrmiWHnu8sL6J&#xA;Fv8AVLX0tNu2O6tG3OSEdv3qiv8AsKd8UF9dYsXYq7FXYq7FWFfnB5+i8keRr7VUdRqUo+raVGaH&#xA;lcyAhWoeojFXPyp3xSHwdLLLNK8srmSWRi8jsSWZmNSST1JOLJGaHomp65q9ppGmQm4v72RYreJe&#xA;7N3J7KBux7DfFX21+X35JeRvKFjYsunQX2uW6q82rTp6khnG5kiD8hFQ/Z4U2998WNvQMUOxV2Ku&#xA;xV2KuxV2KuxV5b+Z/wCQvk/zTo19LpWm2+m+ZCpktLyBfRV5QeXGZE4owk6FytRWvsVNvi+8tLqy&#xA;u5rO7iaC6t3aKeGQFXSRDxZWB6EEUxZLtN1C803ULbUbKUw3lnKk9vKvVZI2DKw+RGKvv78vvOVn&#xA;5x8oad5gtgEN1HS5gBr6U6fDLH4/CwNPEUOLBkWKuxV2KuxV8Y/85I/mF/ijzw+mWknLSNAL2sJB&#xA;qslxUfWJP+CXgPZa98WQeS4pfWX/ADjJ+VH6E0kecdXhpq2px002JxvBaOK86dnm6+y08SMWJL3b&#xA;FDsVdirsVdirsVdirsVdirsVfN//ADlH+VHqIfPmjwkyLxj12FB1UALHcgf5OyP7UPZjikF8z4sn&#xA;uf8Aziz+Yf6G8zS+VL6Urp+tkNZ8j8KXqigA8PWQcfmFGKC+tcWLsVdirz388/zBXyX5DuriCXhq&#xA;+og2elgfaEjj45R/xiSrV/moO+KQ+JJ7QR2UVxK59e4Yskf/ABWNuZ+bdMWT0r/nH/8AKk+dfM31&#xA;7UYifLmkMsl5UfDPL1jtxXsftP8A5O23IYoJfaYAAAAoBsAMWLsVdirsVdirsVdirsVdirsVdiqn&#xA;c21vdW0ttcxrNbzo0U0LgMjo44srA7EEGhxV8M/nP+WVx5C82yWkYZ9FvuU+kXBqf3dfiiZj1eIk&#xA;A+Ioe+LIMFtbm4tbmK6t5GiuIHWWGVTRldDyVgfEEVxS+9/ys89QedvJVhrilRdsvo6jCvSO6j2k&#xA;FOwb7a/5JGLAstxV2Kviz87vOx89/mNNDBNXQdF521q4Pw8Iz/pE4/4yOKA/yhcWQDB9J0fVfOHm&#xA;m00jSouV1eyLBaxnZY41HViK0VEBZj88Ukvu3yN5N0nyd5Ys9B0xf3VstZpiKPNM28kr+7H7hQDY&#xA;YsE+xV2KuxV2KuxV2KuxV2KuxV2KuxV2KsR/NL8vdP8APflK50a4pHdr+/026P8Auq5UHgT/AJLV&#xA;4uPA+NMVD4P1XS7/AErUrnTdQha3vrORobiFuquhoRtt9IxZvWv+cZPzCHl3zkdCvZOOl+YCkC1P&#xA;wx3Y2gbf+epjNO5XwxQX2JixeX/85DfmCfKPkSWC1fjq2t87KzINGRCv7+Yf6iNQeDMDikPjy6Ed&#xA;hpywwsZJL5VkknpRfTHSNTUn7X2sWb6p/wCca/ypHlrQB5m1WHjrusRgwI4o1vaNRlWnZ5dnb24j&#xA;Y1xYEvasUOxV2KuxV2KuxV2KuxV2KuxV2KuxV2KuxV8+f85QflSL6yPnrR4f9Ns1C61Eg3kt12W4&#xA;oP2oujf5G/7OKQXztLbC8Q6xBcJbsiq04JZWWdf5So6kgMN8Wb7U/Jrz6vnbyJZanK4bU7cfVNUU&#xA;dfrEQFXp/wAWKQ/007YsC8G/5ya1eS9/NfTtNVUni06yjUwSGqCSdnkdj4fu+H3Ypi8psdOuPM/n&#xA;Cw0azmeZb66itbdiKcFkYBmCgABV3PToMUl+gyIqIqKKKoAUeAG2LBvFXYq7FXYq7FXYq7FXYq7F&#xA;XYq7FXYq7FXYqgtd0xdV0TUNLZuC39tNbM/gJoylf+GxV8GRxvBa3NlqdrGZNKeSKaxUMs6yRnjI&#xA;z1YAUI3IBwNgev8A/OImt/8AOyeYtIUenDdW0d7HACSqmCX0zQk/8vAwsSwH809V/SX51+YrqtRB&#xA;cTW9T0H1OD6v294sUhD/AJA/+Tf8t/8AGaX/AKh5MUF9z4sXYq7FXYq7FXYq7FXYq7FXYq7FXYq7&#xA;FXYq7FXYq+C/Of8A5NPzgOzajqwI9vWlxZhPv+cadU+o/m5pcZNEv4rm1c/OFpF6eLxKMUF57rWp&#xA;y3uu6jqKuQ97cTzM6mlfWdmPh15YpZj+QP8A5N/y3/xml/6h5MUF9z4sXYq7FXYq7FXYq7FXYq7F&#xA;XYq7FXYq7FXYq7FXYq+BPP10LX80vNUxXmBq+prxrT7c8q/xxZhR/K++ax/MbyzdA0CanaB6deDz&#xA;Kj0/2LHFCbfm5+V2r+R/Ml1E1vI2iTSs+mXwUmJ4nNVjZx8Ikj+yymnjShxUFmH/ADjV+W/mO987&#xA;2Xmi4tZbTRdLEkq3MqlBPI8bRpHFyHxfb5MRtQUrUjFS+u8WLsVdirsVdirsVdirsVdirsVdirsV&#xA;dirsVdirsVfFX5+/lr5h8ved9V1g20k+iavcy30F+ilo1a4cySRSECiMrsaV6jcd6LIL/wAgvyv1&#xA;bzP5w0/VpYJIdC0qdLu4u2UqkjwsHjhjY/aZmA5U6L70xUv/2Q==</xmpGImg:image>
               </rdf:li>
            </rdf:Alt>
         </xmp:Thumbnails>
      </rdf:Description>
      <rdf:Description rdf:about=""
            xmlns:xmpMM="http://ns.adobe.com/xap/1.0/mm/"
            xmlns:stRef="http://ns.adobe.com/xap/1.0/sType/ResourceRef#"
            xmlns:stEvt="http://ns.adobe.com/xap/1.0/sType/ResourceEvent#">
         <xmpMM:InstanceID>xmp.iid:FD7F117407206811822A9DD448A483FF</xmpMM:InstanceID>
         <xmpMM:DocumentID>xmp.did:FD7F117407206811822A9DD448A483FF</xmpMM:DocumentID>
         <xmpMM:OriginalDocumentID>uuid:5D20892493BFDB11914A8590D31508C8</xmpMM:OriginalDocumentID>
         <xmpMM:RenditionClass>proof:pdf</xmpMM:RenditionClass>
         <xmpMM:DerivedFrom rdf:parseType="Resource">
            <stRef:instanceID>uuid:ba5dc92b-6d0a-484a-ab90-b9370a4a0965</stRef:instanceID>
            <stRef:documentID>xmp.did:0980117407206811822A897E387FE54C</stRef:documentID>
            <stRef:originalDocumentID>uuid:5D20892493BFDB11914A8590D31508C8</stRef:originalDocumentID>
            <stRef:renditionClass>proof:pdf</stRef:renditionClass>
         </xmpMM:DerivedFrom>
         <xmpMM:History>
            <rdf:Seq>
               <rdf:li rdf:parseType="Resource">
                  <stEvt:action>saved</stEvt:action>
                  <stEvt:instanceID>xmp.iid:FD7F117407206811822A9DD448A483FF</stEvt:instanceID>
                  <stEvt:when>2018-09-05T11:34:36-03:00</stEvt:when>
                  <stEvt:softwareAgent>Adobe Illustrator CS6 (Macintosh)</stEvt:softwareAgent>
                  <stEvt:changed>/</stEvt:changed>
               </rdf:li>
            </rdf:Seq>
         </xmpMM:History>
      </rdf:Description>
      <rdf:Description rdf:about=""
            xmlns:illustrator="http://ns.adobe.com/illustrator/1.0/">
         <illustrator:StartupProfile>Print</illustrator:StartupProfile>
      </rdf:Description>
      <rdf:Description rdf:about=""
            xmlns:xmpTPg="http://ns.adobe.com/xap/1.0/t/pg/"
            xmlns:stDim="http://ns.adobe.com/xap/1.0/sType/Dimensions#"
            xmlns:xmpG="http://ns.adobe.com/xap/1.0/g/">
         <xmpTPg:HasVisibleOverprint>False</xmpTPg:HasVisibleOverprint>
         <xmpTPg:HasVisibleTransparency>False</xmpTPg:HasVisibleTransparency>
         <xmpTPg:NPages>1</xmpTPg:NPages>
         <xmpTPg:MaxPageSize rdf:parseType="Resource">
            <stDim:w>21.000131</stDim:w>
            <stDim:h>29.700013</stDim:h>
            <stDim:unit>Centimeters</stDim:unit>
         </xmpTPg:MaxPageSize>
         <xmpTPg:PlateNames>
            <rdf:Seq>
               <rdf:li>Cyan</rdf:li>
               <rdf:li>Magenta</rdf:li>
               <rdf:li>Yellow</rdf:li>
               <rdf:li>Black</rdf:li>
            </rdf:Seq>
         </xmpTPg:PlateNames>
         <xmpTPg:SwatchGroups>
            <rdf:Seq>
               <rdf:li rdf:parseType="Resource">
                  <xmpG:groupName>Default Swatch Group</xmpG:groupName>
                  <xmpG:groupType>0</xmpG:groupType>
               </rdf:li>
            </rdf:Seq>
         </xmpTPg:SwatchGroups>
      </rdf:Description>
      <rdf:Description rdf:about=""
            xmlns:pdf="http://ns.adobe.com/pdf/1.3/">
         <pdf:Producer>Adobe PDF library 10.01</pdf:Producer>
      </rdf:Description>
   </rdf:RDF>
</x:xmpmeta>
                                                                                                    
                                                                                                    
                                                                                                    
                                                                                                    
                                                                                                    
                                                                                                    
                                                                                                    
                                                                                                    
                                                                                                    
                                                                                                    
                                                                                                    
                                                                                                    
                                                                                                    
                                                                                                    
                                                                                                    
                                                                                                    
                                                                                                    
                                                                                                    
                                                                                                    
                                                                                                    
                           
<?xpacket end="w"?>
	</metadata>
<g>
	<path fill="#F6A7A4" d="M-56.463-66.757l6.757-2.981l2.782,0.994l1.987,2.782l-1.789,2.385l-1.987,0.994c0,0-0.198,5.962,0,6.558
		c0.198,0.597,12.123,16.693,12.123,16.693l11.924-27.027l1.986-4.57l2.584-1.789l-1.391,7.353l4.968-3.18l0.198,19.276
		l-4.173-10.135L-31.82-33.37c0,0-0.994,2.981-4.372,3.379c-3.379,0.397-4.372-1.59-4.372-1.59l-14.309-19.873l-1.987-4.372
		C-56.86-55.826-56.463-67.353-56.463-66.757"/>
	<path fill="#F6A7A4" d="M56.615-66.559l-6.757-2.98l-2.782,0.993l-1.987,2.782l1.788,2.385l1.987,0.994c0,0,0.198,5.962,0,6.558
		c-0.198,0.597-12.122,16.693-12.122,16.693L24.818-66.161l-1.987-4.57l-2.584-1.788l1.391,7.353l-4.968-3.18L16.47-49.07
		l4.174-10.135l11.328,26.034c0,0,0.993,2.981,4.372,3.378c3.378,0.397,4.372-1.59,4.372-1.59l14.309-19.873l1.987-4.372
		C57.012-55.628,56.615-67.154,56.615-66.559"/>
	<path fill="#F6A7A4" d="M-7.973-74.507l8.148-5.565l7.75,5.962l-2.385,8.148l1.591,1.192c0,0-4.969,3.378-14.309-0.199l1.59-0.994
		L-7.973-74.507z"/>
	<polygon fill="#F6A7A4" points="-10.953,-84.246 -9.959,-81.264 10.112,-80.867 10.51,-83.649 	"/>
	<path fill="#F6A7A4" d="M-10.953-66.559c0,0,9.937,7.552,22.655-0.198C11.702-66.757,0.573-49.07-10.953-66.559"/>
	<path fill="#231F20" d="M-17.114-84.643h34.38c0,0-2.98-13.513-18.084-13.513S-17.114-84.643-17.114-84.643"/>
	<path fill="#231F20" d="M-29.634-5.548c0,0-4.77-3.776-6.559-1.988c-1.788,1.789-1.59,4.771-0.596,6.161s2.385,3.179,2.583,5.763
		c0.199,2.583-0.993,5.962-0.993,5.962s-1.788,1.391-0.596,3.379l1.192,1.987L-29.634-5.548z"/>
	<path fill="#231F20" d="M29.632-5.747c0,0,4.77-3.775,6.558-1.987c1.789,1.789,1.59,4.77,0.597,6.161
		c-0.994,1.391-2.386,3.179-2.583,5.763c-0.199,2.583,0.992,5.962,0.992,5.962s1.789,1.391,0.596,3.378L34.6,15.518L29.632-5.747z"
		/>
	<path fill="#231F20" d="M-17.71,16.909l5.764-9.937l6.16-4.77c0,0,4.77-3.577,7.154-1.987c2.385,1.589,9.737,5.763,9.737,5.763
		l6.757,11.129L-17.71,16.909z"/>
	<path fill="#F6A7A4" d="M-29.634-5.548l-5.963,31.002L-35,27.441l0.993,1.392l6.359,3.378l15.7-25.24c0,0-4.174,0-5.763-1.192
		C-19.3,4.586-29.634-5.548-29.634-5.548"/>
	<path fill="#F6A7A4" d="M29.786-5.945l5.962,31.002l-0.597,1.988l-0.993,1.391l-6.359,3.379L12.1,6.575c0,0,4.173,0,5.762-1.192
		C19.452,4.19,29.786-5.945,29.786-5.945"/>
	<polygon fill="#BF8382" points="-29.236,-4.356 -18.903,17.504 -11.947,6.972 -17.71,5.78 -28.044,-3.56 	"/>
	<path fill="#BF8382" d="M13.292,6.972l18.879,2.981L28.197-4.952l-5.365,7.154C22.831,2.203,16.869,6.575,13.292,6.972"/>
	<path fill="#231F20" d="M-39.968,28.236l-6.758,12.322l1.392,3.974l-17.488,35.375c0,0-3.379,4.969-4.174,8.347
		s-1.987,18.084-1.987,18.084s3.379,5.365,5.962,5.365c2.584,0,4.372-4.372,4.372-4.372l0.397-15.898l1.391-3.775l0.397-3.776
		c0,0,24.643-36.765,24.841-36.168c0.199,0.596,2.386,0.596,2.386,0.596l5.565-12.719C-23.671,35.59-30.23,26.846-39.968,28.236"/>
	<path fill="#231F20" d="M39.922,28.436l6.756,12.321l-1.391,3.975l17.488,35.374c0,0,3.378,4.969,4.173,8.347
		s1.988,18.084,1.988,18.084s-3.378,5.366-5.962,5.366c-2.583,0-4.372-4.372-4.372-4.372l-0.397-15.898l-1.391-3.776l-0.397-3.775
		c0,0-24.643-36.765-24.842-36.169c-0.198,0.596-2.385,0.596-2.385,0.596l-5.565-12.719C23.626,35.788,30.184,27.044,39.922,28.436"
		/>
	<path fill="#EC2C91" d="M-16.253-69.071l-0.132,20.756l3.438,10.18c0,0,0.264,3.702-0.794,5.024
		c-1.057,1.322-1.719,2.115-1.719,2.115l11.898,7.537c0,0,3.438,1.189,5.156,0.661s13.617-8.461,13.617-8.461
		s-1.982-4.099-2.115-5.156c-0.132-1.058-0.132-1.852-0.132-1.852l3.305-9.65L15.74-68.674l-1.852-1.454l-2.188,3.371
		c0,0-2.306,8.659-11.031,7.866c-8.727-0.794-12.561-8.197-12.561-8.197l-2.379-2.776L-16.253-69.071z"/>
	<path fill="#8A8C8E" d="M-36.192-7.536l20.733-23.46l12.391,8.341c0,0,2.077,1.213,4.663-0.144
		c2.587-1.356,13.617-8.461,13.617-8.461l19.72,22.854c0,0-2.041-1.079-5.146,2.46S21.431,3.344,18.931,4.594s-2.5,1.75-4.75,1.5
		s-7-3.25-8.25-3.75s-4.5-3.499-6.251-2.749c-1.75,0.749-4.185,1.716-5.467,2.607C-7.07,3.094-11.57,6.344-14.32,6.344s-4.5-2-4.5-2
		l-10.815-9.892C-29.634-5.548-32.065-10.165-36.192-7.536"/>
	<path fill="#231F20" d="M-28.319-4.405l18-22.5l-4,33.25c0,0-3-1.5-4.5-2s-9.226-7.905-9.226-7.905L-28.319-4.405z"/>
	
		<path fill="none" stroke="#231F20" stroke-width="0.7088" stroke-linecap="round" stroke-linejoin="round" stroke-miterlimit="10" d="
		M-28.319-4.405l18-22.5l-4,33.25c0,0-3-1.5-4.5-2s-9.226-7.905-9.226-7.905L-28.319-4.405z"/>
	<polygon fill="#231F20" points="-1.069,-22.155 -1.069,0.215 12.099,6.575 1.594,-22.799 	"/>
	
		<polygon fill="none" stroke="#231F20" stroke-width="0.7088" stroke-linecap="round" stroke-linejoin="round" stroke-miterlimit="10" points="
		-1.069,-22.155 -1.069,0.215 12.099,6.575 1.594,-22.799 	"/>
	<polygon fill="#231F20" points="12.431,-29.406 30.932,-7.405 36.19,-7.734 15.212,-31.26 	"/>
	
		<circle fill="none" stroke="#231F20" stroke-width="1.7718" stroke-linecap="round" stroke-linejoin="round" stroke-miterlimit="10" cx="0" cy="-80.6" r="17.721"/>
	<path fill="#FFFFFF" d="M-5.287-70.232H5.288C5.288-70.232,0.335-62.602-5.287-70.232"/>
	
		<path fill="none" stroke="#231F20" stroke-width="1.4173" stroke-linecap="round" stroke-linejoin="round" stroke-miterlimit="10" d="
		M-5.287-70.232H5.288C5.288-70.232,0.335-62.602-5.287-70.232z"/>
	
		<line fill="none" stroke="#231F20" stroke-width="1.4173" stroke-linecap="round" stroke-linejoin="round" stroke-miterlimit="10" x1="-11.043" y1="-84.02" x2="11.044" y2="-84.02"/>
	<path fill="#231F20" d="M-7.059-109.65c2.491,3.399,1.251,11.033-4.233,15.054c-5.485,4.022-13.139,2.908-15.631-0.491
		c-2.492-3.398-0.064-9.414,5.421-13.435C-16.018-112.543-9.551-113.049-7.059-109.65"/>
	
		<path fill="none" stroke="#231F20" stroke-width="1.7718" stroke-linecap="round" stroke-linejoin="round" stroke-miterlimit="10" d="
		M-7.059-109.65c2.491,3.399,1.251,11.033-4.233,15.054c-5.485,4.022-13.139,2.908-15.631-0.491
		c-2.492-3.398-0.064-9.414,5.421-13.435C-16.018-112.543-9.551-113.049-7.059-109.65z"/>
	<path fill="#231F20" d="M7.059-109.65c-2.491,3.399-1.251,11.033,4.234,15.054c5.484,4.022,13.138,2.908,15.63-0.491
		c2.492-3.398,0.064-9.414-5.42-13.435C16.018-112.543,9.552-113.049,7.059-109.65"/>
	
		<path fill="none" stroke="#231F20" stroke-width="1.7718" stroke-linecap="round" stroke-linejoin="round" stroke-miterlimit="10" d="
		M7.059-109.65c-2.491,3.399-1.251,11.033,4.234,15.054c5.484,4.022,13.138,2.908,15.63-0.491c2.492-3.398,0.064-9.414-5.42-13.435
		C16.018-112.543,9.552-113.049,7.059-109.65z"/>
	
		<path fill="none" stroke="#231F20" stroke-width="1.4173" stroke-linecap="round" stroke-linejoin="round" stroke-miterlimit="10" d="
		M11.985-66.965c-2.328,5.005-6.718,8.379-11.749,8.379c-5.396,0-10.052-3.879-12.221-9.49"/>
	<path fill="#231F20" d="M6.627-49.818c0,3.512-2.847,6.359-6.358,6.359s-6.358-2.848-6.358-6.359s2.846-6.358,6.358-6.358
		C3.78-56.176,6.627-53.33,6.627-49.818"/>
	<path fill="#231F20" d="M-8.365-49.818c0,1.257-1.02,2.276-2.276,2.276s-2.275-1.02-2.275-2.276s1.019-2.275,2.275-2.275
		S-8.365-51.075-8.365-49.818"/>
	<path fill="#231F20" d="M12.918-49.818c0,1.257-1.019,2.276-2.275,2.276s-2.276-1.02-2.276-2.276s1.02-2.275,2.276-2.275
		S12.918-51.075,12.918-49.818"/>
	
		<line fill="none" stroke="#231F20" stroke-width="1.7718" stroke-linecap="round" stroke-linejoin="round" stroke-miterlimit="10" x1="-18.036" y1="16.677" x2="17.862" y2="17.107"/>
	
		<line fill="none" stroke="#231F20" stroke-width="1.4173" stroke-linecap="round" stroke-linejoin="round" stroke-miterlimit="10" x1="-16.319" y1="-68.147" x2="-16.24" y2="-48.374"/>
	
		<path fill="none" stroke="#231F20" stroke-width="1.7718" stroke-linecap="round" stroke-linejoin="round" stroke-miterlimit="10" d="
		M-36.96-39.323l11.997-27.044c0,0,1.199-5.671,5.344-6.325"/>
	
		<path fill="none" stroke="#231F20" stroke-width="1.7718" stroke-linecap="round" stroke-linejoin="round" stroke-miterlimit="10" d="
		M-19.844-60.84c0,0-9.427,23.443-12.569,28.519c-1.021,1.649-1.929,2.594-3.893,2.704c-2.48,0.138-4.324-1.978-4.324-1.978
		s-12.81-18.126-14.26-20.061c-1.449-1.934-1.691-5.076-1.691-5.076s-0.483-5.559-0.483-8.217s2.899-3.383,2.899-3.383l4.556-1.198
		c0,0,0.981,0,1.854,0.764c0.873,0.764,2.399,2.399,2.399,2.399s0.108,3.599-2.727,4.034"/>
	
		<path fill="none" stroke="#231F20" stroke-width="1.7718" stroke-linecap="round" stroke-linejoin="round" stroke-miterlimit="10" d="
		M-49.828-65.604c0,0,1.091-0.437,1.091,1.418c0,1.854-0.219,6.216-0.219,6.216s-0.218,2.399,0.546,3.708
		c0.764,1.309,11.887,16.14,11.887,16.14"/>
	
		<path fill="none" stroke="#231F20" stroke-width="1.7718" stroke-linecap="round" stroke-linejoin="round" stroke-miterlimit="10" d="
		M-20.383-59.497l7.088,20.938c0,0,1.091,2.398-0.654,5.234c-1.284,2.087-22.465,25.41-22.465,25.41s-3.271,3.162,0.873,8.396
		c0,0,3.172,3.697,0.839,8.363c-2.333,4.667-0.167,6.167-0.167,6.167"/>
	
		<path fill="none" stroke="#231F20" stroke-width="1.7718" stroke-linecap="round" stroke-linejoin="round" stroke-miterlimit="10" d="
		M-37.037-6.989c0,0,2.667-3.5,6.833,0.667c3.505,3.504,11.667,14.833,17.667,12.667s7.833-6.667,13.167-6.5"/>
	
		<path fill="none" stroke="#231F20" stroke-width="1.7718" stroke-linecap="round" stroke-linejoin="round" stroke-miterlimit="10" d="
		M-29.703-4.822l-6,28.167c0,0-1,4.167,2,5"/>
	
		<line fill="none" stroke="#231F20" stroke-width="1.7718" stroke-linecap="round" stroke-linejoin="round" stroke-miterlimit="10" x1="-11.702" y1="6.511" x2="-27.537" y2="32.178"/>
	
		<path fill="none" stroke="#231F20" stroke-width="1.7718" stroke-linecap="round" stroke-linejoin="round" stroke-miterlimit="10" d="
		M-45.037,44.345l-1.833-3.167l6.666-13c0,0,7.167-1.166,16.334,7.167l-5.834,13.667l-3.666,1.166"/>
	
		<path fill="none" stroke="#231F20" stroke-width="1.7718" stroke-linecap="round" stroke-linejoin="round" stroke-miterlimit="10" d="
		M-43.37,41.678l-20.834,39.667c0,0-2.166,3.667-2.5,6.5c-0.333,2.833-3.333,18-2.333,19.5s2,4.5,5.5,4.333s5.333-3.166,5.166-5.333
		c-0.166-2.167,0-15.334,0-15.334s2-4.666,1.5-6.833c0,0,24.834-36.833,25-36.333"/>
	
		<path fill="none" stroke="#231F20" stroke-width="1.7718" stroke-linecap="round" stroke-linejoin="round" stroke-miterlimit="10" d="
		M-46.87,41.178c0,0,8.166-0.833,17.166,7.834"/>
	
		<line fill="none" stroke="#231F20" stroke-width="1.4173" stroke-linecap="round" stroke-linejoin="round" stroke-miterlimit="10" x1="16.272" y1="-68.347" x2="16.24" y2="-48.374"/>
	
		<path fill="none" stroke="#231F20" stroke-width="1.7718" stroke-linecap="round" stroke-linejoin="round" stroke-miterlimit="10" d="
		M36.96-39.323L24.964-66.367c0,0-1.198-5.671-5.344-6.325"/>
	
		<path fill="none" stroke="#231F20" stroke-width="1.7718" stroke-linecap="round" stroke-linejoin="round" stroke-miterlimit="10" d="
		M19.845-60.84c0,0,9.426,23.443,12.568,28.519c1.021,1.649,1.929,2.594,3.893,2.704c2.48,0.138,4.324-1.978,4.324-1.978
		s12.81-18.126,14.26-20.061c1.45-1.934,1.692-5.076,1.692-5.076s0.482-5.559,0.482-8.217s-2.899-3.383-2.899-3.383L49.61-69.53
		c0,0-0.981,0-1.854,0.764s-2.399,2.399-2.399,2.399s-0.108,3.599,2.727,4.034"/>
	
		<path fill="none" stroke="#231F20" stroke-width="1.7718" stroke-linecap="round" stroke-linejoin="round" stroke-miterlimit="10" d="
		M49.828-65.604c0,0-1.091-0.437-1.091,1.418c0,1.854,0.218,6.216,0.218,6.216s0.218,2.399-0.545,3.708
		c-0.764,1.309-11.887,16.14-11.887,16.14"/>
	
		<path fill="none" stroke="#231F20" stroke-width="1.7718" stroke-linecap="round" stroke-linejoin="round" stroke-miterlimit="10" d="
		M20.384-59.497L13.296-38.56c0,0-1.091,2.399,0.654,5.234c1.284,2.087,22.465,25.41,22.465,25.41s3.271,3.163-0.873,8.397
		c0,0-3.172,3.696-0.839,8.363c2.334,4.666,0.167,6.166,0.167,6.166"/>
	
		<path fill="none" stroke="#231F20" stroke-width="1.7718" stroke-linecap="round" stroke-linejoin="round" stroke-miterlimit="10" d="
		M37.037-6.989c0,0-2.667-3.5-6.834,0.667C26.699-2.818,18.537,8.511,12.537,6.344S4.703-0.323-0.63-0.156"/>
	
		<path fill="none" stroke="#231F20" stroke-width="1.7718" stroke-linecap="round" stroke-linejoin="round" stroke-miterlimit="10" d="
		M29.703-4.822l6,28.167c0,0,1,4.167-2,5"/>
	
		<line fill="none" stroke="#231F20" stroke-width="1.7718" stroke-linecap="round" stroke-linejoin="round" stroke-miterlimit="10" x1="11.703" y1="6.511" x2="27.537" y2="32.178"/>
	
		<path fill="none" stroke="#231F20" stroke-width="1.7718" stroke-linecap="round" stroke-linejoin="round" stroke-miterlimit="10" d="
		M45.037,44.345l1.833-3.167l-6.667-13c0,0-7.166-1.166-16.333,7.167l5.833,13.667l3.667,1.166"/>
	
		<path fill="none" stroke="#231F20" stroke-width="1.7718" stroke-linecap="round" stroke-linejoin="round" stroke-miterlimit="10" d="
		M43.37,41.678l20.833,39.667c0,0,2.167,3.667,2.5,6.5c0.334,2.833,3.334,18,2.334,19.5s-2,4.5-5.5,4.333s-5.334-3.166-5.167-5.333
		s0-15.334,0-15.334s-2-4.666-1.5-6.833c0,0-24.833-36.833-25-36.333"/>
	
		<path fill="none" stroke="#231F20" stroke-width="1.7718" stroke-linecap="round" stroke-linejoin="round" stroke-miterlimit="10" d="
		M46.87,41.178c0,0-8.167-0.833-17.167,7.834"/>
	
		<path fill="none" stroke="#231F20" stroke-width="1.4173" stroke-linecap="round" stroke-linejoin="round" stroke-miterlimit="10" d="
		M-15.203-30.906l11,7.25c0,0,4.25,3,7.251,0"/>
	
		<path fill="none" stroke="#231F20" stroke-width="1.4173" stroke-linecap="round" stroke-linejoin="round" stroke-miterlimit="10" d="
		M14.297-30.906l-11,7.25c0,0-4.25,3-7.25,0"/>
	
		<polyline fill="none" stroke="#645C5D" stroke-width="1.4173" stroke-linecap="round" stroke-linejoin="round" stroke-miterlimit="10" points="
		-64.412,98.985 -63.815,89.843 -61.828,88.253 -64.412,86.265 -60.437,84.676 -62.026,81.894 -60.04,81.098 -52.289,66.79 	"/>
	
		<polyline fill="none" stroke="#645C5D" stroke-width="1.4173" stroke-linecap="round" stroke-linejoin="round" stroke-miterlimit="10" points="
		57.012,77.919 59.198,82.49 62.576,82.092 58.204,86.265 64.365,86.664 59.596,89.446 62.179,90.836 62.576,101.767 	"/>
	<path fill="#FFFFFF" d="M-0.726-80.367c-0.105-0.32-0.404-0.538-0.74-0.538c-0.004,0-0.008,0-0.012,0.001l-8.651,0.108
		l-2.572-8.268c-0.201-0.65-1.282-0.65-1.484,0l-2.569,8.268l-8.655-0.108c-0.004-0.001-0.008-0.001-0.01-0.001
		c-0.338,0-0.637,0.218-0.741,0.538c-0.104,0.324,0.014,0.679,0.292,0.876l7.069,4.997l-2.783,8.196
		c-0.109,0.323,0.005,0.679,0.281,0.88c0.273,0.201,0.648,0.197,0.922-0.006l6.938-5.18l6.938,5.18
		c0.138,0.103,0.3,0.155,0.465,0.155c0.161,0,0.321-0.05,0.457-0.148c0.275-0.201,0.391-0.558,0.28-0.88l-2.782-8.197l7.067-4.996
		C-0.74-79.687-0.622-80.042-0.726-80.367"/>
	
		<path fill="none" stroke="#8A8C8E" stroke-width="2.126" stroke-linecap="round" stroke-linejoin="round" stroke-miterlimit="10" d="
		M-0.726-80.367c-0.105-0.32-0.404-0.538-0.74-0.538c-0.004,0-0.008,0-0.012,0.001l-8.651,0.108l-2.572-8.268
		c-0.201-0.65-1.282-0.65-1.484,0l-2.569,8.268l-8.655-0.108c-0.004-0.001-0.008-0.001-0.01-0.001c-0.338,0-0.637,0.218-0.741,0.538
		c-0.104,0.324,0.014,0.679,0.292,0.876l7.069,4.997l-2.783,8.196c-0.109,0.323,0.005,0.679,0.281,0.88
		c0.273,0.201,0.648,0.197,0.922-0.006l6.938-5.18l6.938,5.18c0.138,0.103,0.3,0.155,0.465,0.155c0.161,0,0.321-0.05,0.457-0.148
		c0.275-0.201,0.391-0.558,0.28-0.88l-2.782-8.197l7.067-4.996C-0.74-79.687-0.622-80.042-0.726-80.367z"/>
	<path fill="#FFFFFF" d="M26.161-80.367c-0.105-0.32-0.404-0.538-0.741-0.538c-0.003,0-0.007,0-0.011,0.001l-8.652,0.108
		l-2.571-8.268c-0.202-0.65-1.283-0.65-1.485,0l-2.569,8.268l-8.653-0.108c-0.004-0.001-0.009-0.001-0.011-0.001
		c-0.338,0-0.636,0.218-0.741,0.538c-0.104,0.324,0.015,0.679,0.293,0.876l7.067,4.997l-2.783,8.196
		c-0.109,0.323,0.006,0.679,0.281,0.88c0.273,0.201,0.648,0.197,0.923-0.006l6.937-5.18l6.938,5.18
		c0.139,0.103,0.301,0.155,0.465,0.155c0.161,0,0.321-0.05,0.457-0.148c0.276-0.201,0.391-0.558,0.28-0.88l-2.782-8.197l7.069-4.996
		C26.147-79.687,26.265-80.042,26.161-80.367"/>
	
		<path fill="none" stroke="#8A8C8E" stroke-width="2.126" stroke-linecap="round" stroke-linejoin="round" stroke-miterlimit="10" d="
		M26.161-80.367c-0.105-0.32-0.404-0.538-0.741-0.538c-0.003,0-0.007,0-0.011,0.001l-8.652,0.108l-2.571-8.268
		c-0.202-0.65-1.283-0.65-1.485,0l-2.569,8.268l-8.653-0.108c-0.004-0.001-0.009-0.001-0.011-0.001
		c-0.338,0-0.636,0.218-0.741,0.538c-0.104,0.324,0.015,0.679,0.293,0.876l7.067,4.997l-2.783,8.196
		c-0.109,0.323,0.006,0.679,0.281,0.88c0.273,0.201,0.648,0.197,0.923-0.006l6.937-5.18l6.938,5.18
		c0.139,0.103,0.301,0.155,0.465,0.155c0.161,0,0.321-0.05,0.457-0.148c0.276-0.201,0.391-0.558,0.28-0.88l-2.782-8.197l7.069-4.996
		C26.147-79.687,26.265-80.042,26.161-80.367z"/>
</g>
</svg>
