<?xml version="1.0" encoding="utf-8"?>
<!-- Generator: Adobe Illustrator 16.0.0, SVG Export Plug-In . SVG Version: 6.00 Build 0)  -->
<!DOCTYPE svg PUBLIC "-//W3C//DTD SVG 1.1//EN" "http://www.w3.org/Graphics/SVG/1.1/DTD/svg11.dtd" [
	<!ENTITY ns_extend "http://ns.adobe.com/Extensibility/1.0/">
	<!ENTITY ns_ai "http://ns.adobe.com/AdobeIllustrator/10.0/">
	<!ENTITY ns_graphs "http://ns.adobe.com/Graphs/1.0/">
	<!ENTITY ns_vars "http://ns.adobe.com/Variables/1.0/">
	<!ENTITY ns_imrep "http://ns.adobe.com/ImageReplacement/1.0/">
	<!ENTITY ns_sfw "http://ns.adobe.com/SaveForWeb/1.0/">
	<!ENTITY ns_custom "http://ns.adobe.com/GenericCustomNamespace/1.0/">
	<!ENTITY ns_adobe_xpath "http://ns.adobe.com/XPath/1.0/">
]>
<svg version="1.1" id="Layer_1" xmlns:x="&ns_extend;" xmlns:i="&ns_ai;" xmlns:graph="&ns_graphs;"
	 xmlns="http://www.w3.org/2000/svg" xmlns:xlink="http://www.w3.org/1999/xlink" x="0px" y="0px" width="595.279px"
	 height="841.89px" viewBox="0 0 595.279 841.89" enable-background="new 0 0 595.279 841.89" xml:space="preserve">
<metadata><?xpacket begin="﻿" id="W5M0MpCehiHzreSzNTczkc9d"?>
<x:xmpmeta xmlns:x="adobe:ns:meta/" x:xmptk="Adobe XMP Core 5.3-c011 66.145661, 2012/02/06-14:56:27        ">
   <rdf:RDF xmlns:rdf="http://www.w3.org/1999/02/22-rdf-syntax-ns#">
      <rdf:Description rdf:about=""
            xmlns:dc="http://purl.org/dc/elements/1.1/">
         <dc:format>image/svg+xml</dc:format>
         <dc:title>
            <rdf:Alt>
               <rdf:li xml:lang="x-default">Print</rdf:li>
            </rdf:Alt>
         </dc:title>
      </rdf:Description>
      <rdf:Description rdf:about=""
            xmlns:xmp="http://ns.adobe.com/xap/1.0/"
            xmlns:xmpGImg="http://ns.adobe.com/xap/1.0/g/img/">
         <xmp:MetadataDate>2018-09-05T11:32:02-03:00</xmp:MetadataDate>
         <xmp:ModifyDate>2018-09-05T11:32:02-03:00</xmp:ModifyDate>
         <xmp:CreateDate>2018-09-05T11:32:01-03:00</xmp:CreateDate>
         <xmp:CreatorTool>Adobe Illustrator CS6 (Macintosh)</xmp:CreatorTool>
         <xmp:Thumbnails>
            <rdf:Alt>
               <rdf:li rdf:parseType="Resource">
                  <xmpGImg:width>152</xmpGImg:width>
                  <xmpGImg:height>256</xmpGImg:height>
                  <xmpGImg:format>JPEG</xmpGImg:format>
                  <xmpGImg:image>/9j/4AAQSkZJRgABAgEASABIAAD/7QAsUGhvdG9zaG9wIDMuMAA4QklNA+0AAAAAABAASAAAAAEA&#xA;AQBIAAAAAQAB/+4ADkFkb2JlAGTAAAAAAf/bAIQABgQEBAUEBgUFBgkGBQYJCwgGBggLDAoKCwoK&#xA;DBAMDAwMDAwQDA4PEA8ODBMTFBQTExwbGxscHx8fHx8fHx8fHwEHBwcNDA0YEBAYGhURFRofHx8f&#xA;Hx8fHx8fHx8fHx8fHx8fHx8fHx8fHx8fHx8fHx8fHx8fHx8fHx8fHx8fHx8f/8AAEQgBAACYAwER&#xA;AAIRAQMRAf/EAaIAAAAHAQEBAQEAAAAAAAAAAAQFAwIGAQAHCAkKCwEAAgIDAQEBAQEAAAAAAAAA&#xA;AQACAwQFBgcICQoLEAACAQMDAgQCBgcDBAIGAnMBAgMRBAAFIRIxQVEGE2EicYEUMpGhBxWxQiPB&#xA;UtHhMxZi8CRygvElQzRTkqKyY3PCNUQnk6OzNhdUZHTD0uIIJoMJChgZhJRFRqS0VtNVKBry4/PE&#xA;1OT0ZXWFlaW1xdXl9WZ2hpamtsbW5vY3R1dnd4eXp7fH1+f3OEhYaHiImKi4yNjo+Ck5SVlpeYmZ&#xA;qbnJ2en5KjpKWmp6ipqqusra6voRAAICAQIDBQUEBQYECAMDbQEAAhEDBCESMUEFURNhIgZxgZEy&#xA;obHwFMHR4SNCFVJicvEzJDRDghaSUyWiY7LCB3PSNeJEgxdUkwgJChgZJjZFGidkdFU38qOzwygp&#xA;0+PzhJSktMTU5PRldYWVpbXF1eX1RlZmdoaWprbG1ub2R1dnd4eXp7fH1+f3OEhYaHiImKi4yNjo&#xA;+DlJWWl5iZmpucnZ6fkqOkpaanqKmqq6ytrq+v/aAAwDAQACEQMRAD8A9U4q7FXYq8r/ADP/ADE8&#xA;yjzDa/l/5CRJfNd6nq3t845R2FuRUO1QyhiN/iBoKbEsMUsP8z/lj5D8v20d9+ZX5g6tdalL8bRi&#xA;5p6hIP8AdW/C4m4g7Ag0HtirzzUE/wCceokX0dF81XQYs310mKMSKoLsQXO4Cgk/ANhXKRqMd1xC&#xA;x5hsOKYFkGk30jSv+ca764WB7zX/ACtNcLxQXregrdaMZAtwg69WamThkjL6SD7kThKPMUzu+8he&#xA;fPI1gPM35c+Z7rzFpUK+vcaFqMgu0uIAKs0Dx0Vmp/IFY9iehmwep+QPO+l+dfK1pr+nVRJwUuLd&#xA;jVoZ02kiY+x6HuKHvihkWKuxV2KuxV2KuxV2KuxV2KuxV2KuxVL/ADDrthoGh32tag/Cz0+F55j3&#xA;IQV4r/lMdgPHFXzRoHnPW9B0y81+GFLn8yPzEle4shIKrY6arEJM3Kvwkg+mvQqqk1pQ0anUww4z&#xA;OZqIcjBp5ZZiEeZb0rynawXT6pqkjatr059S61O6PqOX/wAjlXiB275552j21m1BIvhh3D9Pf9z2&#xA;+h7JxYBdcU+8/o7kn882t15guotF0OCW/wBVs47i4uYoFLenE1u60cjYM5ICr1P05k9jzjponNmI&#xA;hjkYgX1PEOXkOpdd2/mjKscd5jc+Wye6RPouu6JGiolzbIohmt5lBZHQcSjo3Rhms1MM2nzEk8Mu&#xA;YI6g9Qe53Onni1GIVUo8qK3RNc178sLwalozy3vlFnDatoLsX9JGPxT2xYniRWp8e+269X2N28cp&#xA;GLL9fQ9/kfP7/v5ztXsYYwcmP6eo7v2Ms8gatYeU/wA2Z9OsrhX8nfmDCNW8vyrtGt03xPEOgQ/a&#xA;Xj1+wOudS8493xQ7FXYq7FXYq7FXYq7FXYq7FXYqkfnbzdpvlHyxf+YNRqbeyTksSmjSSMQsca+7&#xA;uQPbr0xV8pfmbrHnHXfLk2vea9SmjN3Ki6d5fgYpaQBzzUSJ+24RTu2/v2yRjQdtk7O8LB4k/qPI&#xA;fr+Dvyi0grpcus3BMlxcH6vbs5rxgi2opPQF+3sM4P2n1ZllGIco7n3n9n3u89ntMI4zkPOW3wH7&#xA;fuZB5h127W6TRNGUS6xcrV3O6WsR2M0nv/KO/wCvV6HRxMTmzbYo/OR/mj9J/A2Or1UuLwsW+Q/K&#xA;I7z+hU8o6xrX5crdW/6NbzBpl85mN3bKFvxckUAnrXnGW6N+zU/LHtDBh7T4ZcYw5ICql9HD/R7j&#xA;5dXQ6nszLhNxvID1635/rSm9svNy6reechFAmoXbB7zQbVaRtABSnMfbnHXlTc18aZl4s2lOOOku&#xA;XBH6ckufF7ukPLu+bl6fQZ9OPFG8usO8f8UyXS9U0/WtNS7tiJbadSrowFQejI69iOhGajUafJp8&#xA;nDLaQ/Fh3mDPDNDijvE/ii8W1PTBp3niHR7ieZdOguoxbFZCGhhmYOpjY14ledajuM9M7M1Xj4IT&#xA;PMjf3jYvD6jSxx6o4z9PF9hfQH5ffmF5m8qeZrDyz5nv5NX8vavILfStWuTW4trg7JFM53dXOwLf&#xA;PpUZsJRpj2h2ecBsbxL3/IutdirsVdirsVdirsVdirsVdirx7/nJdnby95Zt3/3iuPMFol3XoV4S&#xA;EK3t1P0YRzcjSAHLEHlxD73j350h/wDDVoQfgF4tR7mKSh/Xlk+T0vbv90P636ChNK80Q6D+V1le&#xA;QgPckyW9vGenrNI5JanYAFvf6c4LU9nnU9pSgfp2J91D+xswa0YNBGQ+rcD32WPJrVp5W8yWt1Z6&#xA;2dcN6qS61NErLCyzKr8V58XMkRZq7CnTuyjo+0OzMefB4YABiPT5fsPV0Oh7QnizcZNiR9Xn+Oj2&#xA;VWVlDKQVIqCNwQc8yIfQEj83a4umWMES3UdjPqE6WsV7MC0cAc/HO6qGJWNd9hm37F0A1OepfRHc&#xA;/q+P3Ot7W1pwYrj9R2H63mmneY7Xyn5wuILHUm1jSJJBHfXZUqssg2kniqWJAapVjuw652favZUN&#xA;RioCpx+n9Xu+55Ts3tGWDJZNxl9X6/e78y2Sfz1HHb/FIEt0and2NR/wrDKPZqJGlF9ZGvx73J7a&#xA;IlqqHOovQvzR4L5OuZgeNxBLBJasPtCQSqKr78Sc6WfJ2vbAB05vy+99V27StBG0yhZSimRR0DEb&#xA;jv3yl4tfirsVdirsVdirsVdirsVdirFfzO8kR+dPJt7ofqCC6fjNYXB6R3MR5Rsab0P2Wp2JxSDT&#xA;5i83ag91oN95Z80R/ofzTZAN6VyOEcskR2eKT7BWQAgGtN9qjLOKw9Fk10NTpzGR4cg+RI/W858u&#xA;6hbtc2Ol6kBJpLXiSSo7cUXmpjckilNiDWvbNVrsEhGWXHtl4CPluPx5ut0mYcUcc/7vi/Y9dfyR&#xA;5D0uKS+msIo4YQXkeZ5JEAHisjMPopnDDtfW5iICZJPcAD9gD1x7M0mIGZiAB32fvYxqnmDUPMlD&#xA;p92mmaTC/G3T1JIZpSuwlJjjl4ojdE7/AHZ1XZXYMMMeLLU8h79wPx1Lp9V2ic59EhCA5b0T57A7&#xA;eSZ6XrWl6xMvl3zTHb3V8g/0S6p+7nB25ISFZJDTcbV7Zqe0ezM2ikcunkRDrXT9Y/Hm5ml1mLUf&#xA;us3DKXQ9D+oqHnbyj5N0Xy5eXsFisV2wEdsTJIx9RzT4VdyKgVPTtkOye09XqNRGBlceZ2HIe4fB&#xA;HaWg02HDKQjUuQ3PP5sI8py2l95ti1PWbuO3t7ZxdSvM4BZo940UHdtwPoGdtgxRxxERsA6DSSE8&#xA;/HkNAb7+XIPavJuhXv5meZ7CaK3kj8j6PcLdXd7KrIt7PEapBECAWUN9vwHWh45dKVt/anaIzeiH&#xA;0j7X0xkHSuxV2KuxV2KuxV2KuxV2KuxV2KsM/NjV/J+ieULrV/MmnWmqJAONhZXkMc/rXLj91Eiy&#xA;K3VtyR0UE9sSkPlnVfLS2XkO2W9hRb+9v4ri4RFWPi8zFfTUKAFCoacRsN6Zx+LtI5ddOUT6IwkB&#xA;8N7+f6HqcmhGLRxjIeqUwT8enyQl9PrVhb2Wn6ly1Py9bXcM7yAcpRBGTWKVf2l3rv4fRmZ2bLTT&#xA;z+LXBlIojoT3jzas5y44xhP14RIHzodD5PS/KHmzULCOeTyNr1slhds0s2lXUXrwxyn7UkcfOGWE&#xA;nqV+yetM6jhB5Ll7Ow6g8eKQF8x+zow/8wdV02a1vmvdSOuecb+SJluUUGSNomBRY1jqsCItaKDX&#xA;fvleXgEDxVXW2GbFhwYjCB4spI5c7/QkHmGPWNWEeqa4wQCaKODT0P7uGN5FDFj3Yjr/AJgcrocm&#xA;LCfCwdxJl1kQPu/HvnrIZMoGTL3io9ACfveg6QPK/lv8y7bUvMOl2d55d11VtLie7gilSzvFI9Kc&#xA;eorcA1KMRTux6ZP2a1/HiOKR9UOXu/Z+ph2/ozDJ4kR6Zc/f+19SQxQxRJHCixxIAERAAoHYADbO&#xA;nedX4q7FXYq7FXYq7FXYq7FXYq7FUDruuaXoWkXer6pOttp9lGZbiZuyjoAO7MdlA6nbFXzVd6pq&#xA;35heYU8164jQ6TbEjy5pDdI461E8grQyPQGv8Aucd2/2xzwYz/WP+9/X8u96rsXsrllyD+qP0/q+&#xA;aRecL0ah5gsdIiPKLTiL69I6CShEKfPfl8s1vZ2PwtPPKeeT0R938R/Q5+uyeJmjjHKHql7/AOEf&#xA;pUdQnFvY3E5NBFG71/1VJxwQ45xj3kLmnwwJ7gq+VPy98s3/AJV0ubUbEPdSReq0yu8bMJGLry4M&#xA;tfhYDftnpAiKcPR9m4Z4Ymcd6Qnm7y9pGhap5en0y1S1hM00EpWpLNKgCcmYkn9qlc1/a2Pi08gO&#xA;77t0ajTww5cRgKFkfNdq9j9e0y4tK0aVPgPg4+JT/wAEBnFaXN4WSM+4/wBrl6nF4mMx72QaNc2P&#xA;mvyssd/GJDIvoX8J2KTx7N0+ya/EMwNVCej1NwNVvE/0Ty/UXM0846rBUx5SHmPxbNPyf/MO/wBA&#xA;1W3/AC/80TmW2lHHyxq0n7ag7WsrH9pdgn/A/wAud72Z2jDVY+IbSH1Du/Z3PGdo6CWnnR+k8j+O&#xA;r3bNk692KuxV2KuxV2KuxVifnv8ANPyL5Gtml8xapFb3Hp+rFp6EPdyrXiPThB5GrbVNB132OKsV&#xA;/Kv8+YvzF816jpVh5eurHSLS1N1a6xcuP349RIwphCUQtyYikjbKcVerYq+ePzb8xv5286nylbOT&#xA;5Z8uSCTVyp+G5vh0hP8Akxbgjx5f5JzSdudpflsVR/vJcvLvP46u47H7P8fJcvojz/UkXmfzHDol&#xA;mkcCCbUrj93YWa/tN/MQOiL3ziNBoTnncjWOO8pfjqej12t1YwxoC5n6R+OgYrp1p9RtpZ7ub1Lq&#xA;Yme+um25Od2Psq9s2mozeLICAqI2iPL9brsGLw4kyNyO8ixz6rrPnK7ZLJZF0+OeOFaCiKrAs00v&#xA;yVdh7/f1vZvZ0cMb5zPM/odPM5NZKo/QCB+0vUNS80aDoCQaYha4vFRYrXTbVTLOwA4ovEdOnfNr&#xA;kyxhG5GgHeZ9bi04ESdx0HNtPyz8+eeIkl1yWPyzpUcizWll6YuLssoIV5N04H4j3B8Vzhu1vbfT&#xA;4zwYo+L371H51v8Ad5uj1Oqy5+fpiDY70L5m/Krzv5Zs31LTr8eY7GEc7qzeL0bpVH2mj4l+dOvW&#xA;vgDmo0Xbmj1cvDnDwJnlK7j8eVfjcLDWZse5PGGJaVrqabdDX7HlNpF7QarbqPijK7esFH7SftDu&#xA;Pvzb59Icsfy+TbLD6D3/ANH49PwHY4dSMcvGhvjl9Y7vP4dWba3pVh5k0T045QRIBNY3kZrwkAqk&#xA;ikfjmh0eqyaPPxVuNpDy6h3Oq08NVirodwf0vXPyS/MC581eW5LLVjx8y6E4s9WQ9ZKA+lcfKQKa&#xA;/wCUD2pnp+HLHJATjvEh88zYpY5GMuYei5Y1uxV2KuxV2Kvnz8xr7/nJTzB5r1fy/oMdv5U8uWVZ&#xA;rTXHcxi4hUhFrdgS8Xfnz4KqlaUJ8VlGBkaAssf8u/kt+Wflm6e81SWTzprIuHmWe4Qw2dHTiUmj&#xA;Z5frHxlm5GnLJiDudN2JknvP0j7WcWet6wBZ6dpLDTrWArDY6fYqIIEFaKgROor/ADVyfCA7uHZ2&#xA;nxQNxBFbk7/j4PRvzJ82Dyn5H1jXwR61pAfqobcG4kIjhBHceo619speJfMNnqi+VtDtrBY2vvM2&#xA;og3c8BNWMsxq0k79lX7PvT6c4HUYjrs8ssjw4Inh4vIdI95PP4va4cg0mGOOI4s0t69/U+Q5ISy0&#xA;+cXMmo6jN9a1WcUkm/ZRe0cQ/ZUYc+oBiMeMcOIch3+Z80YcBEjOZ4sh6/oHki9A8uXXnvzH+hLd&#xA;mj0OwZZNcvF2qK/DAh/mYj9Z7bw1Grj2fg8aW+ae2OP++P4+/bW6/UeJLw4/SPq/Uzuf8jdUXWr+&#xA;TS9fOjaBfyrKLO1tx6oCqFMaylhwApsR92YGl9t8mHTRicZlPf1E7Hz5b+e7iY5ThYhLhB7ma+T/&#xA;AMuvKnlOI/ou0reOCJ9RnPqXMldzykI2B8FoPbOV7T7b1OtN5Zen+aNoj4fpNlEcYiybNUzdirwP&#xA;81PJL+U9Wk8zaXCW8uai9NXtEFRbzOaesq9kcnfwO3daehdhdpDW4hp8h/fwHoP84D+H3j8dbODN&#xA;4Er/AIJc/wBbF9Nvr3y431jT1N7oMx9SayQ1eLluZLfxH+TmyzY4ar05PRmGwl3+Uv1u3xTlpvVD&#xA;1Yjzj3ecf1Mv8o+Z7PRvzI8veabCcNo3mI/ofUmFQpaQ0gdq9GWRRWvQLmy9ncs8ZnpsgqUNx7uv&#xA;w5H4uB25jhMRzw3jLb8fjo+os6h512KuxVIPNfn7yf5TW3PmLVItPN0WFujhmd+FORCoGagqN6Ux&#xA;VjWo/n5+WMFp6lnrltd3DisUIZkG/dy4Xj+vCA5OmwDJKpSER3lhl95ku9eIvZbsXUEvxw+m3KEA&#xA;/wC+wCVplwAe00unxY4jw6rv7/iifL2gXetagtrB8MY+KealQiePz8BiTSNZq44IcR59B3vWtN8s&#xA;aFpzxy2toizxqFWZvifpStT3PcjKTIvHZtdmygiUtj0eXf8AOTl8F8u+X9LckW9/q8TXfcNBbozu&#xA;v3kH6MxdZIxwyMfq4TXv6MNJEHLEHlYv3PEdBElzFLrFz8V7qbGaRjvxStI0Hsq0zj9cRGQxR+jH&#xA;sPf1Pzep0YMgcsvqnv8ADoPkragNRurqx0XSwP0nq8wtrdzsEB+3If8AUXfK9MMcRLLl/u8Q4j59&#xA;w+LDtDUHHECP1SfRXkryFB5T8v2+j6fbuVT47icqQ80zAc5X9zTbwFB2zku09L2jrMxyzw5N+Q4T&#xA;sOg5OkhOERVsvvLBv0dCiLykipUDc/F9qn051fbPYE/5MxQhHiy4q2G59X11/nUfcHHxZvWSeRSt&#xA;7S5RSzxMqjqSDTPP83ZOqxRM54pxiOpiacsZInYFSzAZvO/zF8m6qxuvM2ha/qVjrcYjNrZi4H1F&#xA;mSi8DAVpRwN6mldyM6XsbtPGOHBmxY54jdy4fXv14vL5tOSB5g7pn5G83aZ578szRXtuq3samz1z&#xA;S5R9iQgq4Knfg+9Pu6jMTtXs7J2fqAYn0H1Y5jqOnxDLHMTDxzzN5YuvIOvjTZS0vlvUHLaPeua+&#xA;kx3NvIfEV2Pfr407PSayPaOHxBtngPXHv/pD8fovM0Op8KXhy+k8vLyYzrQksYtTtLclIZ401K1A&#xA;6R3VvKgkZfDlG1c3HZ+TjljmfqgeA+cSDXykGethwicB9MhxDykCL+YfbulXpvtLs70gKbqCObiO&#xA;g9RA1PxzqXm0VirAPPX50+UPLHqWFvN+mfMjVS10SxrNK0vQLIyBlj36g/FToDkMmSMImUiBEdTy&#xA;SAS8omnvtImm82ebtNfzV521UiKPTIFD22nQ0LLACQ6pTozAHf5lm4zXYdZ2tIDFeHSj+M85+Yjz&#xA;r+bdA8+6tri0WSMRLhMrYhL+X41SO+13zLdSade3bPPPbWbRx20EIFVjIKkURR/NT9edbptFj0+G&#xA;MOkOp3N9/vJ/Y58OyI+GZ5SYnyqg9D/5xi8weX9XtdR8vxaM0a6dEHjup5FuA8UsjVRxwRUYt8W3&#xA;XfpTMridRl1suGMYXGEeW+/vJe82Gmafp8bR2VukCOeTBBSp98SXGy555DcySicDU8U/5ydtWl03&#xA;yrIzcLdtVNpLJ14m6hZQfuVu+YmuJGGRH8Iv5buVoheWIPU189nk1pYSafaxWMjB3tUETOBQEoKV&#xA;H3Zw2bMMszMfxG/m9hixHHEQP8IpZBq0ehecPLev3G1lY3LxXbkVCR3Sek0h/wBUEnLo4DqNNmwR&#xA;+ucQR5mJuvi6ztWJHDPoCftfV2jX80jrDUSxMvJXrWgpUGvcZg+yHbeqlmGmn64UdzzhX3jpR5X3&#xA;bOl1GKIHEnOemOEx2/vbieRkf4EUkemOlR4+OeJdv9uanV5DDJ6IRJHAOVjv7z+AA7PDijEWEJnP&#xA;NyQecJeNjDF3eSv0KD/XM7s+PqJ8mGTk+ev8U6xYefdQ81+Xo1aCwdbS6txsLyNBScNTqRQcT7A5&#xA;6V+RxT0cNLnPqmOIH+YT9P7fiwxYJyEskf4ft73vBHlT8zPJBFfX03UE6igmt51/4jJG33+6nfz/&#xA;APwnsrV92SB+Eh+kH8UQy2nF83+cNH1Xy7d3mja7IDeWFtImmyhSReQ3DpGrqa9VWtR7eIz0/svP&#xA;j1MY5cA9M5DiH8wxBNfE8mUs5MCJn1RiQPO6H2PpGb86/Kuhafp/lzQIZfNOv2ttDbiw0oepEjRx&#xA;hDzuAGRVHHcryp3zoNTqsWCHHkkIx7y6qMSTsk91pP5r+dQW81auPLOiSCp0PR2pOyHqs9ya9utC&#xA;VPgM4jtH24hE8Gmjxy/nHl8BzP2OVj0pPNRtbDyr5at2sPKtjHa8hxuL8AtPJTt6rVcj6aeGZvZX&#xA;YWo1RGo7QJkeccZ+kf1o8v8AN/018no9F2aI+qQ+H61G3t7i6uEggRpZ5W4oi7kk53HJ2s5xhEkm&#xA;gEdF+S3mbX9cSPzTLBa+UrZxK2nWsrPcXrrQos7hVCRA9VU9f9iwxpR4pWenL8d/6OXM3x/aPaRz&#xA;mhtAfb73sem6PpOlxGLTbKCyianJLeJIgeIoKhAK0G2SdWi8VdirBfzt8qz+Zfy31WztFLahaKt/&#xA;YAfa9a2PqUX/ACmTko+eAgEUUxNG3z6t7Hqmn2esRfYvIwZQP2ZV+F1+8Z5xPCcOSWI/wn7Oj3kM&#xA;oywjkH8Q+3qhtL8tr5w852PlmZ3TT44ZL/UmjNG9NPgjFf8AjIwH05kz1p0WlnqAPWZCEb7+Z+x0&#xA;3ac+KQx9OZ/Q9e/JfzPf6fDqfkrWPj1/y2wghlY/31id4JQO44lR8uNdzmDqO0IaInW6eAl+ajse&#xA;kJfxg99mj03B6B1Ihxekn6XoUWoXUcxl5lmb7QbcH6M5jSe0Grw5zmEzKUvqvcH4fdVV0bpYYkVS&#xA;y7mWedpVXgGoSvXem+Yva2tjqtRLNGPBx0a570L+1ljjwxpSzXs3mn52eYzo2iF4j/pkiGGzUdTN&#xA;OeKke6hS30Z0/sxovHzUfoG8vdH8U0Zj3c3lei6cunaZBaj7aLWU+Ltux+/Oo1moObKZ9/L3dHpN&#xA;Lh8LGI/i0V5c8y33kLXW1W2VpvL16wGsWCb8D0FxEvQMO/j08KDVaSHaOHwpbZ4fRLv/AKJ/H7dV&#xA;rtL4Z8SP0nmP0vXNd/LryH5+ubHzHePLfQtbqtuYZ3WGSKpcbDcGrGtCPffOQ0nbWs7OjLBCoHi3&#xA;uIsHl+ObhSxxnuntra+UfKFglvaQ22l27kBIYlAeVh7CskrU6nc0zEjHWdo5aHHlyfd+iI+QbceP&#xA;fhiN0h1vzLPf1hgBhtO6n7Tf61P1Z6l7O+ymPRfvMtTz/ZH3ef8AS+A63v8ASaIY95by+5Kba2nu&#xA;p47e3jMs0p4oi7kk52DmzmIAykaAeteUfKMGiQetNSXUZR+8k6hAf2E/ie+UylbxvaPaJzmhtAfi&#xA;yyPIusdirsVdirsVfMf5i+Ul8hebZ/g4eTPM0xltZVHwWV8wq0Z7Kr9V9tv2TnP9udnHLEZYD95D&#xA;p3x7vh0d52PrhjPhz+iX2FK/JmrQ+VvzSgl1RlhstWs20/6y9AiS+oJEJY9FbiF+n2zldfpzq+zi&#xA;Me88c+OupFUflzb+08Zx5gTyIpNPP2j+dvKXn6H8wbaV9W0aNyt7EigTQWjn95CwH2olBJRv2T18&#xA;TR2RqdJrNEdFIeHlP0npKY5HyPQjqOTq8glGXF0ewaJruk65psWpaTdJd2U4rHLGe/dWBoVYd1Iq&#xA;M4nVaXJp8hx5ImMx0cmMgRYR+UJdir57/NLVBr/5l/Uo252Hl2NfUpupupADT/YfgQc9F7Ew/luz&#xA;+M/XnP8AsR+v7iGzR4vEzX0h96BwvQL5ZbCysJ9T1On1CAUMZoTK56RqD15YccJ5Mgx4/rP2eazn&#xA;DHAzn9I+3yZN5O/LLzdpHkuHWpPNtz5T/STvcQaBHALtUhkNY0VJpE4yEbk9hTlvXOy1HYem1NHN&#xA;ATmB9XIn31TyOnhkzZCMYofYF+l6HDYyy3U1zPqOpTik+o3jmWdhWoUE/YQdlXbNrptJiwQ4McRG&#xA;PkKes0mijhHfLqU2trae6njt7eMyzSniiLuSTmQ5U5iAMpGgHrXlHyjBokHrTUl1GUfvJOoQH9hP&#xA;4nvlMpW8b2j2ic5obQH4ssjyLrHYq7FXYq7FXYqlvmPy7o/mPRbrRtYtxc6feJwljOx2NVZSN1ZW&#xA;FVI6HFXy5558m3XkyX/D3mtXvfK0x46H5h4kmPqVgnK/ZdQNvbpt9nndd2Zkhk8fTbT/AIo9/wCO&#xA;vf7+e+0faEJw8HP9PQ9yN/Lvz35x8s+WrG+8zWc9/wCSL0tHaaj/AHtxZxhzGvrKBVojTb26dlzl&#xA;u2eydLqtRKGnlGGrjzjyjM1Z4e6X4PUuBDIYiz9LJrvyjfaTMPOX5WzxTW14PVvtBVgbO8Tu0FDS&#xA;OQeA+im6nVY+0YZh+V7RBEo7RyV64eUu8fjzEzCvVBl/knz/AKJ5stZPqvK11O1+HUNKuPhuIHBo&#xA;wZTQleW3Knzods03anZGXRyHF6scvpmPpkPx0bIZBJkksYkjeMkqHUqSpoRUU2PjmriaNs3gFl+X&#xA;ureW/Nd/YXyteaXKxvbbVJDV5+Zpwl3JLqftff8AtZ7D2Nlw9qRhk+nwxUodB3V5H9jsOyIkGUSP&#xA;Tzv9DJ1s7RfswRinSiqP4Z1kdLiHKEfkHe0FT04/h+EfD9nYbfLLowjHkKTS6ppTtklVbW1uLq4S&#xA;3t42lmkPFI1FSTiwyZIwiZSNAPWfKPlGDRIPWmpLqMo/eSdQgP7CfxPfKZSt47tHtE5zQ2gPxZZH&#xA;kXWOxV2KuxV2KuxV2KuxV5b/AM5E30jeSLby5b8Te+Z9QtdNhBAYqpkEjPQ+HACvauUarUDDilkP&#xA;KESfkLZQFmk5s9J0+00mHSY4VawggW2SBwGUxIvAKwIofhG+fP2TUTnkOQn1mXFfnzdsAKp5xqHl&#xA;DzJ5CvZta8io19ocrepqflVmJp/NJZk1Ian7PX/W2A6fD2jg7RgMWsPBlG0cv6J+Xn925NJgYbx5&#xA;dzpdM8sfmPbx+a/KF+dH822VB9aUcJkcCno3kQ+0pA48t9v5htjHPqOzJHTaqHiaaXToR/Ogeh6/&#xA;qO60J7x2Kd+RPP8APqIvtH8zRx6Z5n0Zljv4CwWOVWFUmhqd1YdhX8RmL2h2DK45NIJZsOQXGgSR&#xA;3iVdzbg4pnhr1BBa3qR1DUJJgT6Q+GEHso/r1z1j2e7KGh0scZ+s7y/rH9XL4PUaXD4cAOvVAPDe&#xA;+l68Nu08KkiUpVnFAKBY1DMxNewzdEteo12PFMRkdym1kljqNgqRhVlVQQ4pU/5XuDkSSC6fU582&#xA;mzeJZljl8vd5HuSyaGSGRo5BRl6jJAvQYc0ckRKJsFF6PreoaRcm4smVZGHFuSK1V603FR9GJFte&#xA;p0sM0eGfJmGn/mpIKLqNkG8ZLc0/4R6/8SyBg6XN2AP4JfP9f7GTaf538tXtAt2IJD/uucemf+CP&#xA;w/jkTEuqzdl58f8ADY8t/wBqeI6OodGDK24YGoP0jIuAQRsW8UOxV2KuxVL7zzFoVm7Jc30MciGj&#xA;R8wXBHYqKnDRcnHo80xcYmkpufzG8sQ14SyXBHaONv8Ajfhh4C5kOxtRLmAPef1W8588avD5i82e&#xA;WtYiV0svLzXM31SQANNLOiqjEqSF9MpXvmD2p2cdVp5YRLg4+tX17rHuc/B2HKJuUh8EXN501Fto&#xA;ooox7gsf1gfhnMYfYDSR+ueSR+AH3H73Yx7MgOZJQU3mXWpetyVHggVfxArm4weyXZ2PcYrPmZH7&#xA;Ca+xyI6LEOjDo7gaB+Z+h65GSkWtvJp2rEV/evKKwsQPtOZAPuzF9qOzYT0EoQiB4Y4ogCgOHn/s&#xA;SXT9qYI45xlEUJbFL/MXnPQ9X/NLSNT0lZPq17YLaXFw6hEkEnOWEqK8uQdDG1R2zH9ktJm0mGWP&#xA;KR/eHYbnoD8PpkPe4uhzgaiJHI7fPl9rLs7V6xG6bqBtX4PvC5+IeB8cjIW6vtPs8Z42PrH2+Sjf&#xA;RLp+owzae37m43KRgcIyqmrV5bA/CoUJvuajuIuH2aMmSBxZYnh81lxcS3EnqSGrUA226ZICnc6f&#xA;Twwx4Y8lPC3uxVdFDLK4SJGkc9FUFifoGKJSAFk09K/Ley1yziuo72CSCzbi0Kygqee/KincAjrt&#xA;lUyHlu2suGZiYEGXWma5B0TsVdirsVeJ6l5Z8wWUsn1mzlYAms6KXRt/tchXr75eJB7vBrsMwOGQ&#xA;93JKumFzHYq7FXYqxf8AMaGb/DTX1uP9K0ueG+gPg0Tip28FJyjU4hkgYnkRXz2db2tj4sBPWJBY&#xA;Hq2m3D+Ybe30tCLm3vJTpkLERhYi66ja8y1AD6dzL86ZoOyJSlV8zEcX9aIOOf2wj83mcWORyAR+&#xA;q9vveuWd0Zo19ReE1KstGAPYleQFQGBU07gjOlBeyw5hMeY5hEYW5dFDLNIsUSNJI5oqICzE+wGK&#xA;JSERZNBPrLyJ5nu6H6p6CH9qdglP9j9v8MiZB1+XtbTw/iv3fik/svyqfY318B4pAtf+Han/ABHI&#xA;mbrcvb4/gj8/x+lkFj5A8s2tCbc3Lj9udi3/AAo4p+GRMy67L2vqJ9eH3fi09trO0tU4W0EcCfyx&#xA;qEH3ADIuvnklM3Ik+9VxYOxV2KuxV2KuxVC3mk6Zej/S7SKc+LorH6CRXDbdj1GSH0yI+LyT81dO&#xA;tfL3mDym1nGLfRtYvX07UqEkrLKoNsyFi3H4uVe1Mwe09Xlw6aeTGAZwje/Lbnyro7PT9sZwQJES&#xA;HmP1Iy48kSCpt7kHwWRSPxFf1Zxml/4IUeWbER5xN/Ya/wB07iHag/ij8kl1TRb/AEu0mvLwKlpb&#xA;qZJrjkOCKu5Y1oQBnS6H2r0OpkIRkYzlyjIEfbuPtcqOvxHrXvQC0eGOZfignQPFIN0dGFQynowI&#xA;PUZvseeE74ZCVbGjdFyozjIWDambW0L+oYIjLzWX1fTXnzVDGrc6ctkYr16ZH8tj8TxK9dV8Lvly&#xA;+PNh4EOLjocXesNlCbpblapIDV+IA50UqORpXbl4+Fegy9JxDi4uqIxbHpP5c+Wfq8H6Yul/fzLS&#xA;1U/sxnq/zbt7fPKpy6PL9ta7iPhR5Dn7+74M4yDoHYq7FXYq7FXYq7FXYq7FXYq7FWFfnF5Rm80/&#xA;l/qWn2grqduFvdMI+0Lm2PNQv+U68kHzwSiJCjyKQUn8g+aYvNHlLTtZUgTTxhbtBT4J4/glWnb4&#xA;gSPameB9r6A6TUzxHlE7e48vsdrjlxC0n/Oy7Fr+V+uvWheOKEe/qzpH+pszvZfFx9oYh5k/KJLH&#xA;MfQWUaNYJbaFYWMiArb20MLIw/kjC7g/LNTm1EjmlkiakZE2Pe2wJFU89mZWldkFELEqB2BO2fRG&#xA;CMowiJG5AC3rYihul+na5pOpX2sWFk8xu9BuvqOppPEIgJquP3R5MXSsTCpC/LcZMStwNF2jHPIg&#xA;AimV+TNAGs6wI5BW0tgJbrruK0VK/wCWR9wOMjTHtPW+Bj2+uXL9b2NVVVCqAFAoANgAMpeKJtvF&#xA;XYq7FXYq7FXYq7FXYq7FXYq7FXYq8Psrb/Av5t6j5fYenoPm/lqminokd4v+9MA6AV6/LgM4P247&#xA;L8TFHURHqx7S/qn9R+9y9LPeln56/vvKFlp3X9J6rZWnHbfk5em/+pnJ+ynp1Msn+p4py+yv0uRn&#xA;5V5s/v5RFY3Ev8kTt9yk5pezsPi6jHD+dOI+ZAcrDG5gebyTXNd0XQdMOp6zdfVLISpbrJ6cknKa&#xA;UMyJ+7VqfDGxq1Bt459EGVO+1muhpwDIE33I3WL06bb3BvpT6NkX5KGLjlWhCDuWbYU6nDtzbBPH&#xA;CByChEi3rf5deX7rSPLkRv09PVb4/Wb6OtfTZx8EFf8AipKKabFuTd8pJt4nV6mWbIZn4e5k+Bxn&#xA;Yq7FXYq7FXYq7FXYq7FXYq7FXYq7FXnv53eT7vX/ACeb3SwRr/l+VdU0l1+0ZIPieMU680Gw/mAy&#xA;rNhjlgYS3jIEH3FMTRebeZfMtr5uT8tLq1/utQ1aK8lhBJ4SWY/eof8AUZmG+eU6LRS0R1kZc4Yj&#xA;G/KfI/EOwlLi4fe9L8yS+lot0e7KEH+yYDNZ7K4Rk7RxA9CT/pQZfodloo3lDz7baqqwVg6hgGAZ&#xA;d1YAg7jsc91Iegy4YZBUgD70P5Dsf8b/AJjrEP3nl/yq63d9J1WfUKkQRe4jYFz7r8srmXmO2Nbx&#xA;nw4/TH7/ANj6JyDo3Yq7FXYq7FXYq7FXYq7FXYq7FXYq7FXYq7FXzNc+TZfLn/OQ+laTCf8AcDK1&#xA;7rWmW46RG7t2SZBT7IWWAUHSlPHOV9rIRhossx9UxCJ9wnt95cnTm5B6f5ykK6Sqj9uVQfkAT/DO&#xA;O9hMYlryT/DjkftiP0vQdmi8nweY+c9TfRvKGo6qr+nKoFtZnu1xNsvHYiqLyk/2PvnqOr1ojlhg&#xA;j/eT3P8ARgOZPv8ApHmb6Ob2lq/Bx7fUeT1/8mfIY8l+Q7HTpk46pcj65qrHr9YlAJQn/itQE+iv&#xA;fMp4olnOKHYq7FXYq7FXYq7FXYq7FXYq7FXYq7FXYq7FXjusn69/zkOxofT0ny6qVO49Wa5LVHhV&#xA;H/DOK9usvDo4x6yyD7Af2OVpR6mYXFtBcwtDOgkjbqpzy3TarJgyDJjkYzjyIdlCZibBovnn87I7&#xA;vWtX1HQ9MjMWm+UbaO4liU19W5uuMhY9SeMFaeBB8c9N9n9WQI6nUS4s2pkY33RhY9w9Xd324ery&#xA;yySJJun1J5W8wWXmHy7p2t2Ugktr+BJlYdiR8akb0KtVSOxGd0HXppirsVdirsVdirsVdirsVdir&#xA;sVdirsVdirsVdirxrzbXQPz307ULj4dP806WdPilP2ReW0gcKf8AWTiB4ls5H200cs2i4o88cuL4&#xA;cj99/BydNKpM4zx92Dy38yvIWo299cedfK3JtUCqdX0rrHewxgAkA9JFQduvb4vtdb2J2tjnAaTU&#xA;/wB3/BPrAn9F/t25UZcZ+oKH/ON/nS0t9avPKccp/RGqI2q+X0c7xODS6tfmtCwHgpb9rPVNDkmY&#xA;cOT+8hsfPuPxG/2OBMdz6GzNYOxV2KuxV2KuxV2KuxV2KuxV2KuxV2KuxV2KsU/MzyHbedfK8umN&#xA;IbbUIXF1pV8tQ0F1FUxuCN6Ho1Ox8aZGcRIEEWCkGmGflx5wvNbsbnS9aj+q+atEk+q6zakBSXWo&#xA;WZQNuMlK7bV6bUzxT2k7EOhz+n+6nvH/AIn4fc7PDk4h5sxznm182fmPY3H5d/mdZa7pacbOS4Gr&#xA;2US9PUVgt7APBZENT/k0Gev+yXaX5jTji+vH6D5j+A/ePm4GeFH3vrqyvLa9sre9tXEltdRpNBIO&#xA;jJIoZWHzBzr3FVsVdirsVdirsVdirsVdirsVdirsVdirsVdirsVeSfnH5Y1DSNQt/wAzfLcXLUtK&#xA;T0/MFmm31zThTmT/AJcQFa+G/wCyBmt7W7MhrcEsUvge49D+OjZjmYm2QaJrOn63pNrq2nSerZXk&#xA;YlhfvQ9Qw7Mp2I7HPCtVpp4MkscxUomi7SJBFh5z/wA5FaPDdeS7fVGX4tKvI2kcDcQXH7mVfkxZ&#xA;M6j2L1Jhqzj/ANUgfnH1D7i06iPptnH/ADj1rcmp/ldpsE7crrSHl0y43rQ27/ux9ELJnrsZCQBH&#xA;V1xek5JDsVdirsVdirsVdirsVdirsVdirsVdirsVdirTKrqUcBlYUZTuCD1BGKvCktG/K7z8dFkq&#xA;nkjzRMZdFkP2LK9Y/HbH+VHr8P0eDHOH9sew/Hx/mMY/eQHq/pR/XH7vg5eny0aKe/mvY/Xvy48w&#xA;wU5cbKSenvb/AL7xH++84H2fy+HrsJ/pgf6bb9LlZRcSxz/nFfU2P+JtLY0Bax1SNfFr23rKfDYo&#xA;ue26SVwruJH+lJH6HWTe+ZksXYq7FXYq7FXYq7FXYq7FXYq7FXYq7FXYq7FXYqx/z55L0vzn5XvN&#xA;B1EcUnHK3uAAXhnTeOVPdT18RUd8BCh5n5A1y91Wx1TyR5sWnmTRVay1JCT/AKTbOvBLhSd2Dowq&#xA;3uD+1nj3tL2QdBqBlxbY5G4/0ZDfh/SPL3Oyw5OIUWG/845R3mhfm3rflm/NJrbT5bcMf92G3uUM&#xA;TD2MMlR7Z6p2dqI58McsPpyer3d4+duDkFGn09mc1uxV2KuxV2KuxV2KuxV2KuxV2KuxV2KuxV2K&#xA;uxV2KvKvzp8palC1r+YXlqOvmHy+pN7br/x+af1lienUoKke1e/HNb2poMepwyxz+mXXuPSXw+7n&#xA;s2Y5mJee+ZNd07TvM/lD849HrJpFwy2euBRyZY5FaMllHV0Uup7clXOW9ks89PkyaHNtOB4o/pr7&#xA;JD3lyNQOICQe4eUfzO8h+b5ZIfLusRXtxEOT25WSGXiNiwjmWNyor1ApnduGyfFXYq7FXYq7FXYq&#xA;7FXYq7FXYq7FXYq7FXYq7FXYq7FXg9zpFt+X35lNockat5J86M0unwSANDb6gpHOHiRQLISOI91H&#xA;7JzhvazskzxeNj/vMXUczD/jn+55m3L0+Tej1VPPlrZ6D548i+a7aCO3aPVV02+njUKTDfIY6uVo&#xA;SEXn9+az2E10zlyYZEkGPEPgaNe+/sZ6qO1vdM9McF2KuxV2KuxV2KuxV2KuxV2KuxV2KuxV2Kux&#xA;V2KuxVif5o+R4/OXk670lG9LUI6XWlXFeJiu4amJuXYN9hj4E5GcBIUUg08a8w63P5y/JDUbmdTD&#xA;5g0Qp+kYTs8V3YyKZWK/s8kDN7Vp2zy3S6M9m9sxh/k5k8PukDXyO3wc+UuPG+gfLurR6x5f0zVo&#xA;9k1G1gulA7CaNZP+Ns9UdemGKuxV2KuxV2KuxV2KuxV2KuxV2KuxV2KuxV2KuxV2Kvn385LF/I3m&#xA;XU/MkNs83lnzhYXFlrcEa1RL8QssEhA2HrVp9Lnrmj7a7K/NDHKO2TFOMgfKxf6/g3YslW9O/Je3&#xA;1C2/Kzy1DqCNHcrZqeD1DCNmJiBB6fuyubxpLNMVdirsVdirsVdirsVdir//2Q==</xmpGImg:image>
               </rdf:li>
            </rdf:Alt>
         </xmp:Thumbnails>
      </rdf:Description>
      <rdf:Description rdf:about=""
            xmlns:xmpMM="http://ns.adobe.com/xap/1.0/mm/"
            xmlns:stRef="http://ns.adobe.com/xap/1.0/sType/ResourceRef#"
            xmlns:stEvt="http://ns.adobe.com/xap/1.0/sType/ResourceEvent#">
         <xmpMM:InstanceID>xmp.iid:F77F117407206811822A9DD448A483FF</xmpMM:InstanceID>
         <xmpMM:DocumentID>xmp.did:F77F117407206811822A9DD448A483FF</xmpMM:DocumentID>
         <xmpMM:OriginalDocumentID>uuid:5D20892493BFDB11914A8590D31508C8</xmpMM:OriginalDocumentID>
         <xmpMM:RenditionClass>proof:pdf</xmpMM:RenditionClass>
         <xmpMM:DerivedFrom rdf:parseType="Resource">
            <stRef:instanceID>uuid:ba5dc92b-6d0a-484a-ab90-b9370a4a0965</stRef:instanceID>
            <stRef:documentID>xmp.did:0980117407206811822A897E387FE54C</stRef:documentID>
            <stRef:originalDocumentID>uuid:5D20892493BFDB11914A8590D31508C8</stRef:originalDocumentID>
            <stRef:renditionClass>proof:pdf</stRef:renditionClass>
         </xmpMM:DerivedFrom>
         <xmpMM:History>
            <rdf:Seq>
               <rdf:li rdf:parseType="Resource">
                  <stEvt:action>saved</stEvt:action>
                  <stEvt:instanceID>xmp.iid:F77F117407206811822A9DD448A483FF</stEvt:instanceID>
                  <stEvt:when>2018-09-05T11:32:02-03:00</stEvt:when>
                  <stEvt:softwareAgent>Adobe Illustrator CS6 (Macintosh)</stEvt:softwareAgent>
                  <stEvt:changed>/</stEvt:changed>
               </rdf:li>
            </rdf:Seq>
         </xmpMM:History>
      </rdf:Description>
      <rdf:Description rdf:about=""
            xmlns:illustrator="http://ns.adobe.com/illustrator/1.0/">
         <illustrator:StartupProfile>Print</illustrator:StartupProfile>
      </rdf:Description>
      <rdf:Description rdf:about=""
            xmlns:xmpTPg="http://ns.adobe.com/xap/1.0/t/pg/"
            xmlns:stDim="http://ns.adobe.com/xap/1.0/sType/Dimensions#"
            xmlns:xmpG="http://ns.adobe.com/xap/1.0/g/">
         <xmpTPg:HasVisibleOverprint>False</xmpTPg:HasVisibleOverprint>
         <xmpTPg:HasVisibleTransparency>False</xmpTPg:HasVisibleTransparency>
         <xmpTPg:NPages>1</xmpTPg:NPages>
         <xmpTPg:MaxPageSize rdf:parseType="Resource">
            <stDim:w>21.000131</stDim:w>
            <stDim:h>29.700013</stDim:h>
            <stDim:unit>Centimeters</stDim:unit>
         </xmpTPg:MaxPageSize>
         <xmpTPg:PlateNames>
            <rdf:Seq>
               <rdf:li>Cyan</rdf:li>
               <rdf:li>Magenta</rdf:li>
               <rdf:li>Yellow</rdf:li>
               <rdf:li>Black</rdf:li>
            </rdf:Seq>
         </xmpTPg:PlateNames>
         <xmpTPg:SwatchGroups>
            <rdf:Seq>
               <rdf:li rdf:parseType="Resource">
                  <xmpG:groupName>Default Swatch Group</xmpG:groupName>
                  <xmpG:groupType>0</xmpG:groupType>
               </rdf:li>
            </rdf:Seq>
         </xmpTPg:SwatchGroups>
      </rdf:Description>
      <rdf:Description rdf:about=""
            xmlns:pdf="http://ns.adobe.com/pdf/1.3/">
         <pdf:Producer>Adobe PDF library 10.01</pdf:Producer>
      </rdf:Description>
   </rdf:RDF>
</x:xmpmeta>
                                                                                                    
                                                                                                    
                                                                                                    
                                                                                                    
                                                                                                    
                                                                                                    
                                                                                                    
                                                                                                    
                                                                                                    
                                                                                                    
                                                                                                    
                                                                                                    
                                                                                                    
                                                                                                    
                                                                                                    
                                                                                                    
                                                                                                    
                                                                                                    
                                                                                                    
                                                                                                    
                           
<?xpacket end="w"?>
	</metadata>
<g>
	<path fill="#F68B1F" d="M-29.07-14.728c0,0-12.998-10.11-15.474-21.871c-2.477-11.761,2.062-22.489,4.539-25.584
		c2.476-3.095,8.665-10.316,10.315-12.792c1.65-2.476,3.302-6.396,3.302-6.396l-1.636-10.031c0,0,0.812-9.982,4.112-13.078
		c3.301-3.094,9.284-7.221,12.585-7.634c3.301-0.412,4.745-0.618,4.745-0.618s8.254,1.031,11.968,5.158
		c3.714,4.126,5.776,9.491,5.776,9.491l0.207,8.459c0,0-1.651,7.634,1.031,11.967c2.682,4.333,10.935,12.999,12.791,16.506
		c1.857,3.507,5.777,13.205,5.364,16.712c-0.412,3.507-3.095,17.744-11.141,25.791S-6.993-8.125-6.993-8.125L-29.07-14.728z"/>
	<path fill="#E681AC" d="M-28.038-101.796l-0.619,12.379l2.27,8.047c0,0-10.729-0.619-11.554-9.491
		C-38.766-99.733-31.752-102.208-28.038-101.796"/>
	<path fill="#E681AC" d="M12.541-101.59l0.62,12.38l-2.271,8.046c0,0,10.729-0.619,11.554-9.49
		C23.269-99.526,16.255-102.002,12.541-101.59"/>
	<path fill="#231F20" d="M-28.691-101.901c0,0-2.598,3.746-2.166,10.5c0.5,7.834,3.833,9.5,3.833,9.5l2.667-0.833
		c0,0-3.667-4.834-3.667-8.667s1.833-10,1.833-10L-28.691-101.901z"/>
	<path fill="#231F20" d="M-27.024-81.547c-0.054,0-0.108-0.013-0.157-0.038c-0.144-0.072-3.521-1.849-4.029-9.794
		c-0.434-6.799,2.12-10.567,2.229-10.725c0.08-0.116,0.222-0.173,0.36-0.146l2.5,0.5c0.098,0.02,0.183,0.08,0.234,0.165
		c0.052,0.085,0.064,0.188,0.036,0.283c-0.018,0.062-1.818,6.162-1.818,9.899c0,3.668,3.559,8.405,3.595,8.452
		c0.069,0.093,0.09,0.212,0.055,0.322c-0.035,0.11-0.121,0.196-0.231,0.23l-2.667,0.833C-26.952-81.552-26.988-81.547-27.024-81.547
		 M-28.52-101.506c-0.498,0.842-2.347,4.387-1.984,10.082c0.43,6.722,2.958,8.762,3.526,9.138l2.044-0.64
		c-0.887-1.26-3.444-5.176-3.444-8.476c0-3.342,1.343-8.322,1.74-9.728L-28.52-101.506z"/>
	<path fill="#231F20" d="M12.927-102.234c0,0,2.599,3.746,2.167,10.5c-0.5,7.833-3.833,9.5-3.833,9.5l-2.667-0.834
		c0,0,3.667-4.833,3.667-8.666s-1.834-10-1.834-10L12.927-102.234z"/>
	<path fill="#231F20" d="M11.261-81.88c-0.036,0-0.071-0.006-0.105-0.017L8.489-82.73c-0.11-0.034-0.197-0.12-0.231-0.23
		c-0.035-0.11-0.015-0.23,0.055-0.322c0.036-0.047,3.595-4.784,3.595-8.453c0-3.738-1.801-9.837-1.819-9.898
		c-0.028-0.096-0.015-0.199,0.036-0.284c0.052-0.085,0.137-0.145,0.234-0.165l2.5-0.5c0.139-0.028,0.28,0.03,0.361,0.146
		c0.108,0.157,2.663,3.925,2.229,10.725c-0.507,7.945-3.885,9.722-4.028,9.794C11.37-81.893,11.315-81.88,11.261-81.88
		 M9.171-83.259l2.044,0.639c0.247-0.166,0.866-0.647,1.516-1.678c0.779-1.236,1.761-3.535,2.011-7.459
		c0.364-5.712-1.485-9.244-1.983-10.082l-1.884,0.377c0.399,1.405,1.741,6.387,1.741,9.728
		C12.616-88.435,10.058-84.519,9.171-83.259"/>
	<polygon fill="#FFF105" points="-13.183,-101.177 -9.056,-105.923 -9.056,-112.318 -6.581,-111.906 -6.581,-105.717 
		-2.866,-101.59 -7.819,-97.464 	"/>
	<path fill="#FFF105" d="M-18.754-62.182l0.412,5.983c0,0,7.016-1.65,9.697-3.301c2.683-1.651,5.366-3.301,5.366-3.301
		s3.302-1.856,5.57-1.445c2.27,0.413,5.365,2.683,5.365,2.683l21.457,25.997l23.521-10.935l4.745-5.778l11.142,0.825l-0.825,1.444
		h-5.364c0,0-0.826,3.508-6.603,3.92L36.954-30.41l-7.015,3.301l-4.951-0.619L12.436-43.052L2.585-21.689l9.078,11.554l-9.37,5.929
		l-34.458,3.507l2.89-11.554l2.889-6.603l-4.127-4.333c0,0-2.683-5.571-2.063-6.809s3.508-6.396,3.508-6.396
		s-4.333-6.808-0.413-11.966S-18.754-62.182-18.754-62.182"/>
	<path fill="#FFF105" d="M-31.34,7.143c0,0,0,5.777,2.063,10.11s12.173,24.965,12.173,24.965l-0.824,7.84
		c0,0-1.445,4.127,2.27,9.078c3.714,4.952,36.312,56.12,36.312,56.12s0.619,3.095,1.651,2.27c1.031-0.825,1.444-3.301,1.444-3.301
		L20.242,96.48l-6.189-1.031c0,0-2.27-14.03-2.682-17.331c-0.413-3.301-9.697-27.235-9.697-27.235l-1.857-3.302l0.206-3.507
		l9.079-20.633l-16.3-12.998L-31.34,7.143z"/>
	<path fill="#BBB31D" d="M0.022,44.075l-3.508,5.983l-0.825,2.063c0,0,7.428,7.221,8.872,10.935
		C6.007,66.77,8.07,73.579,8.07,73.579l1.03,9.904l3.302,6.603c0,0-1.65-12.586-1.65-13.411S6.625,63.881,6.625,63.056
		S1.26,49.233,1.26,49.233L0.022,44.075z"/>
	<path fill="#BBB31D" d="M6.969-48.993L2.312-19.565l10.123-23.236C12.435-42.801,8.094-48.163,6.969-48.993"/>
	<polygon fill="#FFF105" points="60.887,-40.725 63.57,-40.725 68.108,-45.47 70.377,-44.438 70.377,-46.501 67.696,-50.009 	"/>
	<path fill="#E681AC" d="M-0.803-80.545l-6.809-6.396c0,0-6.396,5.158-7.635,6.396c-1.237,1.238,0,4.745,0,4.745l2.683,1.857
		l-1.444,7.634l-2.062,1.238l-2.063,2.683l-0.619,0.207l0.413,5.982c4.745,0.206,12.585-5.571,12.585-5.571l5.16-2.27l-1.651-9.904
		c0,0,2.476-1.237,2.683-2.682C0.641-78.069-0.803-80.545-0.803-80.545"/>
	<path fill="#FFFFFF" d="M-12.77-81.577l10.111-0.618C-2.659-82.195-5.962-72.911-12.77-81.577"/>
	<path fill="#B26512" d="M-42.213-46.843c0,0-4.206,14.237,14.561,29.282c0,0,1-2.589,1.132-1.941
		c0.133,0.648-3.994-3.685-3.994-3.685l-1.991-5.538l0.485-4.044l2.588-4.691c0,0-2.852-8.207-0.051-10.898
		c2.802-2.691,6.684-8.03,6.684-8.03l4.665-6l2.062-2.682l2.063-1.238l1.444-7.634l-10.56-7.038c0,0,1.457,5.177-0.161,10.031
		c-1.617,4.854-5.985,9.869-9.06,12.457c-3.074,2.589-7.441,6.148-7.441,6.148S-41.888-48.947-42.213-46.843"/>
	<path fill="#B26512" d="M-1.605-74.346l1.009,10.307c0,0,4.732-1.566,8.252,2.476c3.521,4.042,19.374,22.809,19.374,22.809
		s0.809-3.397,0.323-5.662c-0.484-2.265-1.941-6.471-1.941-6.471l-3.559-2.912c0,0-8.897-7.927-11.001-11.648
		c-2.103-3.721-3.721-9.384-3.721-9.384l0.323-6.957L-1.605-74.346z"/>
	<path fill="#B26512" d="M12.435-43.051L2.718-20.78l5.061,7.103c0,0,9.222-5.824,15.53-15.855L12.435-43.051z"/>
	<path fill="#231F20" d="M62.65-39.43c-0.153,0-0.275-0.012-0.35-0.021l-2.726-0.137c-0.488-0.024-0.864-0.44-0.841-0.929
		c0.025-0.489,0.437-0.865,0.93-0.84l2.767,0.139c0.037,0.001,0.073,0.006,0.11,0.012c-0.002,0,0.026,0.005,0.106,0.005
		c0.142,0,0.394-0.024,0.561-0.177c0.452-0.415,3.061-3.044,4.377-4.377c0.344-0.349,0.904-0.352,1.253-0.008
		c0.348,0.344,0.352,0.904,0.008,1.253c-0.156,0.158-3.843,3.891-4.44,4.438C63.813-39.531,63.097-39.43,62.65-39.43"/>
	<path fill="#231F20" d="M13.435-13.638c-0.262,0-0.521-0.116-0.696-0.338c-0.303-0.385-0.236-0.941,0.148-1.244
		c5.871-4.619,9.278-8.195,11.765-12.342c0.252-0.419,0.795-0.556,1.216-0.304c0.419,0.251,0.555,0.795,0.304,1.215
		c-2.604,4.345-6.136,8.061-12.189,12.823C13.821-13.7,13.628-13.638,13.435-13.638"/>
	<path fill="#231F20" d="M29.32-35.918c-0.072,0-0.147-0.009-0.222-0.028c-0.474-0.122-0.759-0.604-0.636-1.079
		c4.233-16.423-8.598-30.057-12.813-34.536c-7.906-8.401-5.532-15.235-5.427-15.521c0.167-0.459,0.677-0.696,1.136-0.527
		c0.458,0.167,0.694,0.674,0.529,1.132c-0.093,0.26-2.05,6.157,5.052,13.703c4.381,4.656,17.716,18.824,13.239,36.193
		C30.075-36.184,29.715-35.918,29.32-35.918"/>
	<path fill="#231F20" d="M27.41-40.176c-0.058,0-0.116-0.007-0.176-0.022c-0.379-0.096-0.607-0.481-0.512-0.86
		c0.072-0.287,1.691-7.088-4.667-11.969C18.753-55.562,2.516-68.852,7.212-81.625c0.136-0.367,0.542-0.556,0.91-0.421
		c0.367,0.136,0.556,0.542,0.42,0.91c-1.662,4.521-0.592,9.683,3.181,15.342c3.757,5.636,9.081,10.019,11.195,11.642
		c7.117,5.462,5.198,13.363,5.178,13.442C28.014-40.39,27.726-40.176,27.41-40.176"/>
	<path fill="#FFFFFF" d="M-7.981-44.982c-0.085-0.258-0.324-0.432-0.595-0.432c-0.003,0-0.007,0-0.01,0l-6.953,0.088l-2.065-6.645
		c-0.163-0.522-1.031-0.522-1.193,0l-2.064,6.645l-6.954-0.088c-0.003,0-0.007,0-0.009,0c-0.271,0-0.512,0.174-0.596,0.432
		c-0.083,0.261,0.011,0.545,0.235,0.704l5.679,4.015l-2.236,6.587c-0.088,0.26,0.004,0.546,0.226,0.708
		c0.22,0.161,0.521,0.158,0.741-0.005l5.575-4.162l5.574,4.162c0.112,0.082,0.241,0.124,0.374,0.124c0.129,0,0.258-0.04,0.367-0.119
		c0.222-0.162,0.313-0.448,0.226-0.708l-2.237-6.587l5.681-4.015C-7.992-44.437-7.898-44.722-7.981-44.982"/>
	<path fill="#231F20" d="M22.261,118.131c-1.737,0-2.693-2.39-2.93-3.068l-8.435-15.501c-0.847-1.252-22.395-33.084-25.648-37.329
		c-5.225-6.816-3.848-12.718-3.612-13.562l3.894-37.097c0.051-0.486,0.483-0.84,0.973-0.789c0.487,0.052,0.84,0.487,0.789,0.974
		l-3.901,37.177c-0.007,0.059-0.019,0.117-0.036,0.174c-0.068,0.222-1.637,5.604,3.301,12.046
		c3.333,4.35,24.82,36.099,25.733,37.449c0.016,0.023,0.03,0.048,0.044,0.073l8.49,15.605c0.025,0.045,0.046,0.093,0.062,0.143
		c0.353,1.047,1.031,1.977,1.309,1.931c0.638-0.106,0.638-1.896,0.638-2.569c-0.028-0.881-2.066-10.546-3.377-16.582
		c-0.387-0.422-1.845-1.736-4.424-0.931c-0.404,0.127-0.843-0.052-1.044-0.426c-0.198-0.369-4.883-9.093-6.044-13.504
		c-0.236-0.898-0.393-2.189-0.59-3.823C6.682,72.141,5.247,60.266-4.14,53.226c-0.234-0.177-0.366-0.457-0.354-0.75l0.115-2.526
		c0.006-0.125,0.038-0.248,0.096-0.36L12.01,17.461c0.024-0.047,1.888-3.645,2.584-8.746c0.923-6.765-0.531-12.844-4.323-18.068
		L0.834-20.199c-0.321-0.368-0.282-0.929,0.087-1.249C1.29-21.77,1.849-21.73,2.17-21.362l9.464,10.875
		c0.017,0.02,0.033,0.04,0.048,0.061c2.819,3.872,5.916,10.389,4.661,19.446c-0.748,5.394-2.676,9.101-2.757,9.256L-2.615,50.222
		l-0.086,1.873C6.954,59.614,8.42,71.75,9.213,78.31c0.189,1.566,0.339,2.804,0.545,3.584c0.937,3.561,4.468,10.417,5.563,12.501
		c3.759-0.804,5.685,1.774,5.77,1.891c0.073,0.1,0.123,0.213,0.149,0.333c0.578,2.659,3.463,15.987,3.463,17.17
		c0,1.286,0,3.963-2.117,4.316C22.475,118.122,22.367,118.131,22.261,118.131"/>
	<path fill="#231F20" d="M14.923,96.289c-0.323,0-0.636-0.178-0.791-0.487c-1.093-2.164-2.481-5.562-2.898-9.458l-0.017-0.159
		c-0.698-6.521-2.333-21.79-11.556-36.41c-0.073-0.116-0.118-0.247-0.132-0.385c-0.019-0.189-0.464-4.649-0.464-6.055
		c0-1.421,8.12-24.125,10.609-31.051c0.165-0.46,0.674-0.698,1.133-0.533c0.461,0.165,0.7,0.673,0.534,1.133
		C7.225,24.339,1.05,41.86,0.838,43.366c0.006,1.186,0.347,4.745,0.434,5.643c9.344,14.913,10.998,30.373,11.707,36.988l0.017,0.159
		c0.39,3.632,1.693,6.816,2.718,8.85c0.221,0.437,0.046,0.969-0.392,1.189C15.193,96.259,15.056,96.289,14.923,96.289"/>
	<path fill="#231F20" d="M-16.743,44.077c-0.324,0-0.637-0.179-0.792-0.488c-5.703-11.323-9.556-19.245-11.779-24.217
		c-4.604-10.3-3.788-20.263-2.292-26.806c1.618-7.08,4.29-11.677,4.403-11.869c0.247-0.422,0.79-0.563,1.212-0.315
		c0.422,0.248,0.562,0.791,0.315,1.212c-0.026,0.045-2.665,4.597-4.218,11.426c-1.424,6.266-2.198,15.799,2.197,25.629
		c2.211,4.947,6.052,12.845,11.743,24.143c0.22,0.438,0.044,0.97-0.393,1.19C-16.473,44.046-16.609,44.077-16.743,44.077"/>
	<path fill="#231F20" d="M29.056-25.995c-3.111,0-5.184-1.92-5.294-2.025c-0.021-0.02-0.041-0.041-0.061-0.063
		c-0.601-0.693-14.729-17.003-16.358-19.61c-1.24-1.985-3.328-1.398-3.35-1.392c-0.47,0.137-0.962-0.131-1.101-0.6
		c-0.138-0.469,0.131-0.961,0.601-1.1c1.17-0.345,3.795-0.338,5.353,2.153c1.242,1.989,11.094,13.503,16.16,19.351
		c0.303,0.269,2.854,2.405,6.299,1.081c4.077-1.568,12.041-6.178,12.121-6.225c0.422-0.245,0.965-0.102,1.211,0.322
		c0.245,0.423,0.101,0.965-0.323,1.21c-0.331,0.192-8.167,4.728-12.374,6.345C30.91-26.149,29.941-25.995,29.056-25.995"/>
	<path fill="#E681AC" d="M88.318-64.836c-0.283-0.161-0.628-0.177-0.924-0.044l-17.271,7.745c-0.003,0.002-0.007,0.004-0.007,0.004
		c-0.082,0.037-0.16,0.086-0.229,0.144L26.263-20.704l-0.414-0.431c-0.208-0.215-0.5-0.328-0.8-0.311L8.831-20.468
		c-0.359,0.021-0.677,0.226-0.841,0.538L1.56-7.888l-50.537,7.985c-0.48,0.074-0.85,0.489-0.864,0.983l-0.077,2.814
		c-0.015,0.489,0.323,0.922,0.801,1.028c0,0,38.098,8.512,42.086,9.42c0.919,0.211,1.549,0.588,1.874,1.119
		c0.427,0.705,0.217,1.535,0.187,1.679L-8.44,43.055c-0.05,0.362,0.101,0.725,0.392,0.948l1.517,1.163
		c0.224,0.172,0.507,0.243,0.786,0.198c0.093-0.015,0.18-0.042,0.263-0.08c0.169-0.077,0.317-0.2,0.421-0.356L21.392,5.989
		l34.052-8.283C55.74-2.36,56-2.572,56.13-2.855c0.131-0.282,0.127-0.609-0.01-0.889l-1.202-2.422
		c-0.127-0.256-0.358-0.448-0.633-0.528l-20.136-5.818l-0.88-0.915l39.318-39.08l3.328,1.396c0.415,0.172,0.891,0.059,1.175-0.279
		l6.368-7.453c1.064,0.518,2.607,0.772,3.872-0.431c1.833-1.731,1.513-4.666,1.499-4.791C88.792-64.388,88.603-64.675,88.318-64.836
		"/>
	<path fill="#E681AC" d="M88.345-64.799c-0.282-0.162-0.628-0.177-0.924-0.045l-17.27,7.746c-0.004,0.001-0.008,0.003-0.008,0.003
		c-0.082,0.038-0.158,0.086-0.229,0.144L26.292-20.667l-0.415-0.431c-0.208-0.215-0.5-0.329-0.799-0.311L8.859-20.432
		C8.5-20.41,8.183-20.206,8.018-19.894L1.59-7.851l-50.538,7.985c-0.481,0.075-0.85,0.49-0.865,0.983l-0.078,2.815
		c-0.013,0.489,0.323,0.92,0.802,1.028c0,0,38.099,8.512,42.087,9.419c0.919,0.212,1.549,0.588,1.872,1.119
		c0.429,0.706,0.22,1.535,0.188,1.679l-3.469,25.914c-0.05,0.363,0.101,0.725,0.392,0.948l1.517,1.164
		c0.225,0.17,0.508,0.242,0.788,0.198c0.092-0.016,0.178-0.042,0.262-0.081c0.169-0.076,0.316-0.199,0.422-0.356L21.422,6.026
		l34.051-8.284c0.296-0.066,0.556-0.279,0.687-0.562c0.131-0.283,0.126-0.609-0.011-0.889l-1.201-2.423
		c-0.128-0.256-0.357-0.448-0.633-0.527l-20.136-5.819l-0.88-0.916l39.318-39.08l3.327,1.396c0.416,0.172,0.892,0.058,1.176-0.279
		l6.367-7.454c1.065,0.518,2.608,0.772,3.873-0.431c1.832-1.73,1.514-4.666,1.498-4.79C88.819-64.351,88.629-64.638,88.345-64.799"
		/>
	<path fill="#E681AC" d="M-5.88,46.124c-0.378,0-0.752-0.126-1.054-0.355l-1.519-1.166c-0.492-0.378-0.746-0.992-0.663-1.605
		l3.469-25.913c0.002-0.019,0.006-0.038,0.011-0.058c0.135-0.602,0.02-0.96-0.102-1.159c-0.272-0.45-0.926-0.682-1.424-0.797
		c-3.94-0.896-41.703-9.333-42.084-9.418c-0.807-0.181-1.376-0.912-1.354-1.738l0.078-2.816c0.024-0.837,0.641-1.536,1.464-1.664
		L1.13-8.496l6.264-11.731c0.28-0.532,0.812-0.875,1.422-0.912l16.22-0.978c0.035-0.002,0.069-0.003,0.103-0.003
		c0.448,0,0.885,0.177,1.206,0.486L69.46-57.496c0.123-0.1,0.251-0.18,0.387-0.243c0.003-0.001,0.006-0.002,0.008-0.003
		s0.004-0.002,0.006-0.003l17.271-7.746c0.497-0.223,1.093-0.193,1.565,0.076c0.473,0.269,0.798,0.755,0.864,1.3
		c0.018,0.136,0.399,3.395-1.715,5.392c-0.726,0.69-1.627,1.056-2.604,1.056c-0.589,0-1.124-0.13-1.555-0.287l-6.031,7.06
		c-0.322,0.384-0.803,0.606-1.315,0.606c-0.23,0-0.455-0.044-0.669-0.133l-2.894-1.214L34.291-13.38l0.266,0.276l19.953,5.766
		c0.464,0.135,0.853,0.458,1.07,0.889l1.202,2.427c0.234,0.476,0.24,1.021,0.02,1.5c-0.223,0.483-0.661,0.841-1.175,0.956
		L21.853,6.65L-4.448,45.363c-0.179,0.263-0.426,0.472-0.713,0.604c-0.142,0.064-0.291,0.109-0.443,0.135
		C-5.696,46.116-5.789,46.124-5.88,46.124 M-4.245,17.303l-3.465,25.883c-0.015,0.112,0.031,0.223,0.122,0.292l1.516,1.163
		c0.067,0.053,0.155,0.075,0.245,0.061c0.025-0.004,0.052-0.012,0.079-0.024c0.052-0.023,0.097-0.062,0.13-0.11L20.836,5.628
		c0.099-0.146,0.248-0.249,0.418-0.29l34.051-8.283c0.094-0.021,0.173-0.088,0.211-0.17c0.041-0.09,0.04-0.19-0.003-0.279
		l-1.2-2.421c-0.038-0.076-0.11-0.137-0.196-0.162l-20.135-5.818c-0.119-0.035-0.228-0.1-0.313-0.189l-0.881-0.915
		c-0.268-0.278-0.263-0.721,0.011-0.994l39.319-39.08c0.203-0.202,0.509-0.263,0.773-0.151l3.327,1.396
		c0.118,0.049,0.276,0.018,0.359-0.082l6.37-7.458c0.21-0.245,0.559-0.318,0.849-0.177c0.339,0.164,0.864,0.36,1.447,0.36
		c0.615,0,1.163-0.224,1.629-0.667c1.591-1.503,1.287-4.162,1.283-4.189c-0.013-0.103-0.072-0.193-0.158-0.242
		c-0.088-0.051-0.196-0.055-0.284-0.015l-17.271,7.745c-0.001,0.001-0.002,0.001-0.003,0.002c-0.026,0.012-0.052,0.028-0.076,0.048
		l-43.617,36.28c-0.286,0.237-0.706,0.214-0.964-0.054l-0.414-0.43c-0.059-0.061-0.143-0.096-0.229-0.096L8.902-19.724
		c-0.11,0.007-0.206,0.067-0.256,0.161L2.215-7.517C2.11-7.32,1.919-7.185,1.7-7.15l-50.537,7.985
		c-0.148,0.022-0.262,0.153-0.267,0.304l-0.078,2.813c-0.004,0.15,0.1,0.284,0.247,0.317c0.381,0.085,38.146,8.523,42.09,9.42
		c1.114,0.256,1.896,0.741,2.321,1.443C-4.271,15.552-4.015,16.27-4.245,17.303"/>
	<path fill="#FFFFFF" d="M0.563,30.588c-0.599,0.274-1.272,0.254-1.851-0.056c-0.49-0.263-0.853-0.701-1.012-1.236
		c-0.161-0.532-0.104-1.095,0.161-1.583c0.52-0.978,1.827-1.38,2.813-0.854c1.012,0.538,1.396,1.803,0.856,2.815
		C1.314,30.082,0.98,30.397,0.563,30.588 M-0.865,27.475c-0.269,0.123-0.482,0.326-0.62,0.588c-0.172,0.316-0.207,0.678-0.105,1.021
		c0.104,0.345,0.338,0.626,0.655,0.797c0.631,0.34,1.478,0.083,1.814-0.552c0.346-0.653,0.1-1.468-0.553-1.816
		C-0.047,27.313-0.481,27.298-0.865,27.475"/>
	<path fill="#FFFFFF" d="M4.139,22.797c-0.595,0.272-1.269,0.254-1.848-0.055c-1.01-0.545-1.396-1.809-0.857-2.818
		c0.528-0.988,1.832-1.382,2.819-0.854c0.489,0.26,0.849,0.696,1.011,1.228c0.162,0.534,0.106,1.098-0.159,1.591
		C4.892,22.291,4.557,22.605,4.139,22.797 M2.712,19.685c-0.267,0.123-0.482,0.324-0.622,0.587c-0.349,0.653-0.1,1.468,0.553,1.819
		c0.63,0.336,1.473,0.079,1.811-0.552c0.171-0.318,0.207-0.683,0.104-1.025c-0.105-0.342-0.335-0.623-0.651-0.79
		C3.53,19.523,3.094,19.509,2.712,19.685"/>
	<path fill="#884B68" d="M21.311-1.623c-0.347,0.328-0.896,0.303-1.222-0.045l-7.376-7.971c-0.325-0.351-0.309-0.899,0.046-1.225
		c0.349-0.324,0.896-0.302,1.217,0.048l7.385,7.974C21.686-2.489,21.662-1.943,21.311-1.623"/>
	<path fill="#FFFFFF" d="M14.486-9.281c-0.103,0.208-0.353,0.288-0.558,0.188c-0.204-0.104-0.285-0.353-0.181-0.557
		c0.101-0.208,0.351-0.29,0.553-0.185C14.508-9.732,14.587-9.481,14.486-9.281"/>
	<path fill="#FFFFFF" d="M15.927-7.716c-0.099,0.206-0.35,0.283-0.556,0.182c-0.205-0.102-0.288-0.351-0.183-0.555
		c0.102-0.206,0.35-0.286,0.555-0.182C15.946-8.171,16.03-7.923,15.927-7.716"/>
	<path fill="#FFFFFF" d="M17.365-6.156c-0.099,0.207-0.349,0.288-0.555,0.186c-0.203-0.103-0.286-0.354-0.181-0.557
		c0.101-0.202,0.351-0.284,0.557-0.181C17.391-6.608,17.47-6.358,17.365-6.156"/>
	<path fill="#FFFFFF" d="M18.806-4.592c-0.103,0.203-0.352,0.285-0.554,0.184c-0.205-0.104-0.285-0.352-0.186-0.559
		c0.102-0.2,0.356-0.286,0.56-0.182C18.83-5.046,18.915-4.794,18.806-4.592"/>
	<path fill="#FFFFFF" d="M20.251-3.03c-0.104,0.205-0.353,0.286-0.56,0.183c-0.202-0.1-0.285-0.349-0.183-0.555
		c0.104-0.204,0.353-0.286,0.56-0.184C20.269-3.486,20.352-3.233,20.251-3.03"/>
	<path fill="#884B68" d="M6.549,10.041c-0.354,0.323-0.901,0.304-1.225-0.046l-7.382-7.974c-0.323-0.353-0.305-0.896,0.048-1.22
		c0.353-0.324,0.897-0.303,1.221,0.044l7.383,7.976C6.916,9.168,6.896,9.718,6.549,10.041"/>
	<path fill="#FFFFFF" d="M-0.28,2.382C-0.384,2.59-0.635,2.669-0.837,2.566c-0.204-0.104-0.288-0.351-0.184-0.555
		c0.104-0.206,0.352-0.29,0.555-0.186C-0.257,1.933-0.177,2.181-0.28,2.382"/>
	<path fill="#FFFFFF" d="M1.16,3.947C1.057,4.149,0.806,4.233,0.604,4.128C0.399,4.027,0.315,3.777,0.419,3.571
		C0.523,3.367,0.77,3.287,0.974,3.391C1.182,3.492,1.263,3.74,1.16,3.947"/>
	<path fill="#FFFFFF" d="M2.598,5.508c-0.1,0.205-0.351,0.288-0.554,0.186C1.839,5.59,1.755,5.338,1.863,5.135
		C1.965,4.93,2.214,4.85,2.417,4.95C2.624,5.054,2.704,5.304,2.598,5.508"/>
	<path fill="#FFFFFF" d="M4.042,7.069C3.937,7.272,3.69,7.354,3.488,7.254C3.282,7.15,3.197,6.901,3.302,6.695
		C3.404,6.492,3.654,6.41,3.857,6.515C4.062,6.614,4.144,6.869,4.042,7.069"/>
	<path fill="#FFFFFF" d="M5.481,8.63c-0.1,0.206-0.349,0.288-0.554,0.187C4.724,8.713,4.641,8.462,4.741,8.258
		c0.105-0.202,0.354-0.284,0.562-0.18C5.507,8.177,5.586,8.428,5.481,8.63"/>
	<path d="M70.705-60.352c0.272,0.122,0.581,0.121,0.85-0.002c0.011-0.006,0.023-0.011,0.034-0.016c0.275-0.138,0.476-0.396,0.54-0.7
		l0.238-1.106l1.222,0.55c0.27,0.122,0.58,0.12,0.847-0.002c0.012-0.006,0.021-0.012,0.035-0.018
		c0.275-0.138,0.473-0.395,0.539-0.696l0.24-1.105l1.216,0.549c0.271,0.121,0.581,0.12,0.85-0.002
		c0.012-0.006,0.021-0.012,0.034-0.017c0.276-0.138,0.474-0.394,0.54-0.697l0.24-1.106l1.219,0.55
		c0.271,0.121,0.579,0.12,0.848-0.003c0.013-0.006,0.023-0.011,0.034-0.017c0.276-0.139,0.476-0.396,0.54-0.698l0.24-1.106
		l1.219,0.552c0.271,0.12,0.581,0.12,0.85-0.003c0.012-0.005,0.023-0.012,0.034-0.018c0.277-0.141,0.476-0.397,0.54-0.7l0.236-1.106
		l1.224,0.552c0.272,0.121,0.581,0.121,0.85-0.002c0.012-0.005,0.023-0.013,0.035-0.019c0.276-0.14,0.476-0.396,0.539-0.7
		l0.327-1.534c0.104-0.488-0.159-0.98-0.622-1.165c-0.135-0.052-0.844-0.297-1.721,0.104c-0.481,0.221-0.917,0.594-1.295,1.107
		c-0.003,0.005-0.003,0.011-0.006,0.017c-0.264-0.077-0.852-0.185-1.575,0.147c-0.483,0.221-0.922,0.597-1.299,1.113
		c-0.004,0.006-0.003,0.013-0.008,0.018c-0.267-0.079-0.855-0.186-1.578,0.146c-0.481,0.22-0.918,0.594-1.295,1.11
		c-0.002,0.003-0.003,0.009-0.005,0.013c-0.267-0.078-0.857-0.184-1.582,0.147c-0.483,0.222-0.918,0.597-1.297,1.113
		c-0.003,0.004-0.003,0.01-0.006,0.014c-0.267-0.077-0.855-0.182-1.579,0.15c-0.48,0.22-0.917,0.593-1.296,1.107
		c-0.003,0.004-0.004,0.012-0.008,0.018c-0.266-0.077-0.854-0.184-1.578,0.148c-0.481,0.22-0.915,0.591-1.294,1.105
		c-0.184,0.25-0.243,0.566-0.165,0.867c0.076,0.299,0.287,0.546,0.567,0.674L70.705-60.352z"/>
	<path d="M1.205,29.502c0.444-0.836,0.128-1.872-0.704-2.316c-0.834-0.445-1.872-0.134-2.312,0.703
		c-0.452,0.833-0.135,1.872,0.7,2.316C-0.28,30.652,0.76,30.338,1.205,29.502"/>
	<path d="M4.781,21.713c0.448-0.838,0.132-1.874-0.703-2.316c-0.837-0.449-1.871-0.135-2.315,0.702
		c-0.443,0.831-0.13,1.867,0.705,2.316C3.299,22.859,4.337,22.545,4.781,21.713"/>
	<path fill="#C0C2C4" d="M22.704-5.557c0.494,0.525,1.265,0.678,1.917,0.379c0.17-0.077,0.323-0.182,0.438-0.292
		c0.331-0.303,0.522-0.716,0.54-1.159c0.019-0.448-0.139-0.876-0.444-1.205l-5.381-5.812c-0.49-0.532-1.265-0.687-1.927-0.384
		c-0.159,0.073-0.305,0.171-0.43,0.286c-0.333,0.303-0.523,0.717-0.541,1.16c-0.021,0.448,0.137,0.877,0.445,1.212L22.704-5.557z"/>
	<path fill="#C0C2C4" d="M16.662-0.953c0.492,0.53,1.267,0.684,1.924,0.383c0.159-0.073,0.306-0.171,0.437-0.291
		c0.328-0.3,0.519-0.712,0.538-1.168c0.017-0.448-0.143-0.875-0.443-1.197l-5.388-5.821c-0.611-0.648-1.676-0.707-2.355-0.085
		C10.699-8.51,10.655-7.45,11.28-6.767L16.662-0.953z"/>
	<path fill="#231F20" d="M-7.612-71.958c-0.141,0-0.276-0.005-0.407-0.014c-2.512-0.18-7.671-2.4-12.285-6.162
		c-3.157-2.573-8.453-7.896-8.453-14.638c0-11.47,9.332-20.802,20.802-20.802c11.47,0,20.802,9.331,20.802,20.802
		c0,6.75-4.981,12.091-7.952,14.673C0.737-74.484-4.406-71.958-7.612-71.958 M-7.957-111.802c-10.492,0-19.029,8.536-19.029,19.03
		c0,10.337,14.478,18.703,19.093,19.032c0.091,0.007,0.185,0.01,0.281,0.01c5.119,0,18.686-8.649,18.686-19.042
		C11.074-103.266,2.537-111.802-7.957-111.802"/>
	<path fill="#231F20" d="M-28.554-80.367L-28.554-80.367c-5.604,0-10.161-5.083-10.161-11.331c0-6.249,4.558-11.332,10.16-11.332
		c1.011,0,2.01,0.165,2.968,0.491c0.463,0.157,0.711,0.66,0.554,1.124c-0.157,0.463-0.659,0.711-1.124,0.554
		c-0.773-0.263-1.581-0.396-2.397-0.396c-4.625,0-8.389,4.289-8.389,9.561s3.764,9.56,8.389,9.56h0.001
		c1.522,0,3.015-0.471,4.313-1.361c0.403-0.277,0.954-0.173,1.231,0.229c0.276,0.404,0.173,0.955-0.229,1.231
		C-24.835-80.944-26.673-80.367-28.554-80.367"/>
	<path fill="#231F20" d="M13.149-80.367c-1.882,0-3.72-0.577-5.315-1.671c-0.403-0.276-0.506-0.828-0.229-1.231
		s0.828-0.507,1.231-0.23c1.3,0.89,2.791,1.361,4.314,1.361c4.625,0,8.389-4.288,8.389-9.56s-3.764-9.561-8.389-9.561
		c-0.816,0-1.624,0.133-2.398,0.396c-0.463,0.157-0.966-0.091-1.124-0.554c-0.156-0.463,0.091-0.966,0.555-1.124
		c0.958-0.326,1.957-0.491,2.968-0.491c5.603,0,10.16,5.084,10.16,11.332S18.753-80.367,13.149-80.367L13.149-80.367L13.149-80.367z
		"/>
	<path fill="#231F20" d="M-22.013-80.153c-0.264,0-0.517-0.147-0.639-0.399c-0.034-0.07-0.828-1.723-1.23-3.915
		c-0.548-2.98-0.098-5.528,1.305-7.367c1.67-2.192,5.079-5.931,7.714-8.699c3.373-3.544,4.824-4.936,5.56-5.424
		c0.084-0.875,0.002-3.749-0.141-6.3c-0.021-0.391,0.277-0.726,0.669-0.747c0.384-0.021,0.725,0.277,0.747,0.668
		c0.39,7.02,0.092,7.216-0.286,7.464c-0.075,0.05-0.158,0.083-0.244,0.103c-1.22,0.879-9.837,9.785-12.892,13.793
		c-2.827,3.71,0.045,9.745,0.074,9.805c0.17,0.353,0.023,0.776-0.329,0.947C-21.804-80.176-21.91-80.153-22.013-80.153"/>
	<path fill="#231F20" d="M6.644-80.153c-0.104,0-0.209-0.022-0.309-0.071c-0.353-0.171-0.499-0.594-0.328-0.946
		c0.029-0.061,2.893-6.105,0.073-9.806C3.027-94.985-5.591-103.892-6.811-104.77c-0.086-0.02-0.169-0.053-0.244-0.103
		c-0.377-0.249-0.676-0.444-0.285-7.464c0.021-0.391,0.362-0.689,0.747-0.668c0.391,0.021,0.689,0.356,0.668,0.747
		c-0.143,2.551-0.224,5.424-0.141,6.3c0.736,0.488,2.187,1.879,5.56,5.424c2.635,2.769,6.044,6.507,7.715,8.699
		c1.401,1.84,1.853,4.387,1.305,7.367c-0.404,2.192-1.197,3.845-1.23,3.915C7.161-80.301,6.908-80.153,6.644-80.153"/>
	<path fill="#231F20" d="M-16.241-60.33c-0.219,0-0.438-0.081-0.61-0.244c-0.354-0.337-0.368-0.897-0.031-1.252
		c2.326-2.449,3.173-9.844,3.303-12.487c0.023-0.489,0.443-0.865,0.928-0.842c0.489,0.024,0.864,0.44,0.841,0.928
		c-0.021,0.415-0.536,10.198-3.787,13.62C-15.772-60.422-16.007-60.33-16.241-60.33"/>
	<path fill="#231F20" d="M-0.221-63.729c-0.368,0-0.71-0.229-0.838-0.596c-1.452-4.196-1.735-9.67-1.747-9.901
		c-0.024-0.489,0.353-0.905,0.841-0.928c0.49-0.023,0.904,0.353,0.929,0.841c0.003,0.054,0.283,5.455,1.652,9.409
		c0.159,0.462-0.085,0.966-0.548,1.127C-0.028-63.745-0.125-63.729-0.221-63.729"/>
	<path fill="#231F20" d="M-22.363-23.747c-0.317,0-0.624-0.17-0.783-0.47c-0.04-0.076-4.061-7.626-7.396-13.346
		c-1.901-3.261-1.745-6.023-1.278-7.767c0.476-1.778,1.363-2.886,1.519-3.07c0.361-0.465,8.579-11.017,10.758-14.13
		c2.433-3.475,5.113-4.045,5.226-4.067c0.479-0.096,0.946,0.215,1.043,0.695c0.096,0.477-0.212,0.942-0.688,1.041
		c-0.104,0.022-2.143,0.51-4.128,3.348c-2.244,3.204-10.476,13.77-10.824,14.218c-0.011,0.013-0.022,0.027-0.034,0.041
		c-0.123,0.144-3.062,3.652-0.062,8.799c3.354,5.75,7.391,13.331,7.431,13.406c0.229,0.432,0.066,0.969-0.366,1.198
		C-22.081-23.78-22.222-23.747-22.363-23.747"/>
	<path fill="#231F20" d="M2.718-19.895c-0.12,0-0.241-0.024-0.357-0.075c-0.448-0.198-0.65-0.721-0.452-1.168l9.718-22.021
		c0.198-0.448,0.722-0.651,1.168-0.453c0.448,0.197,0.651,0.72,0.453,1.168L3.528-20.423C3.382-20.092,3.057-19.895,2.718-19.895"/>
	<path fill="#231F20" d="M28.495-35.3c-0.254,0-0.505-0.107-0.681-0.317c-0.12-0.145-12.106-14.506-18.807-23.12
		c-2.047-2.632-4.324-4.113-6.77-4.401c-3.394-0.4-5.974,1.628-5.999,1.648c-0.049,0.039-0.102,0.073-0.157,0.101
		c-0.041,0.021-4.229,2.117-8.832,4.656c-2.769,1.527-5.574,1.713-5.692,1.721c-0.395,0.024-0.756-0.215-0.889-0.587
		c-0.883-2.472,0.091-6.762,0.133-6.943c0.11-0.477,0.586-0.773,1.062-0.664c0.477,0.11,0.773,0.585,0.664,1.062
		c-0.221,0.961-0.652,3.543-0.36,5.274c0.924-0.146,2.6-0.516,4.227-1.414c4.293-2.369,8.228-4.354,8.82-4.652
		c0.525-0.394,3.425-2.411,7.232-1.961c2.933,0.346,5.61,2.053,7.959,5.073c6.682,8.59,18.648,22.928,18.769,23.073
		c0.313,0.375,0.263,0.934-0.112,1.248C28.896-35.367,28.694-35.3,28.495-35.3"/>
	<path fill="#231F20" d="M69.586-43.808c-1.164,0-2.11-0.979-2.11-2.184c0-1.204,0.946-2.184,2.11-2.184
		c1.163,0,2.109,0.979,2.109,2.184S70.75-43.808,69.586-43.808 M69.586-46.404c-0.184,0-0.339,0.188-0.339,0.412
		s0.155,0.412,0.339,0.412s0.339-0.188,0.339-0.412S69.77-46.404,69.586-46.404"/>
	<path fill="#231F20" d="M-7.641-96.864c-0.149,0-0.299-0.047-0.425-0.141l-5.265-3.937c-0.313-0.235-0.378-0.678-0.144-0.992
		c0.234-0.313,0.679-0.377,0.992-0.143l4.836,3.616l4.602-3.517c0.312-0.238,0.756-0.178,0.993,0.133
		c0.238,0.311,0.179,0.755-0.133,0.993l-5.028,3.842C-7.338-96.913-7.49-96.864-7.641-96.864"/>
	<path fill="#231F20" d="M-15.135-75.046c-0.251,0-0.494-0.133-0.623-0.369c-0.661-1.209-1.369-4.051,0.686-6.148
		c1.599-1.632,6.705-6.021,6.921-6.208c0.297-0.255,0.745-0.221,1,0.076c0.254,0.297,0.221,0.744-0.076,0.999
		c-0.053,0.045-5.277,4.535-6.833,6.124c-1.84,1.88-0.468,4.45-0.453,4.477c0.188,0.344,0.062,0.773-0.282,0.962
		C-14.903-75.074-15.02-75.046-15.135-75.046"/>
	<path fill="#231F20" d="M-0.22-75.046c-0.115,0-0.231-0.027-0.34-0.087c-0.343-0.188-0.469-0.617-0.282-0.96
		c0.059-0.109,1.371-2.615-0.453-4.478c-1.557-1.589-6.781-6.079-6.833-6.124c-0.297-0.255-0.331-0.702-0.076-1
		c0.255-0.297,0.703-0.331,0.999-0.076c0.217,0.186,5.324,4.575,6.923,6.208c2.053,2.098,1.346,4.939,0.685,6.148
		C0.273-75.179,0.031-75.046-0.22-75.046"/>
	<path fill="#231F20" d="M-7.595-77.374c-2.088,0-4.148-1.46-6.128-4.341c-0.112-0.163-0.124-0.374-0.032-0.549
		s0.272-0.284,0.471-0.284h11.05c0.186,0,0.356,0.096,0.453,0.254c0.097,0.157,0.104,0.354,0.021,0.519
		C-1.852-81.596-4.036-77.374-7.595-77.374 M-12.241-81.484c1.565,2.023,3.126,3.047,4.646,3.047c2.075,0,3.67-1.931,4.419-3.047
		H-12.241z"/>
	<path fill="#231F20" d="M-7.59-83.918c-0.997,0-1.801-0.424-2.207-0.782c-0.219-0.195-0.239-0.531-0.045-0.751
		c0.193-0.219,0.527-0.239,0.748-0.047c0.061,0.052,1.395,1.166,3.143-0.038c0.241-0.166,0.573-0.105,0.74,0.136
		c0.166,0.242,0.105,0.573-0.136,0.739C-6.142-84.114-6.91-83.918-7.59-83.918"/>
	<path fill="#231F20" d="M2.842-95.533c0,0-3.273,1.66-4.696,7.257c0,0,5.122,1.992,9.533,0.284
		C7.678-87.992,6.968-92.261,2.842-95.533"/>
	<path fill="#231F20" d="M3.675-86.946L3.675-86.946c-3.051,0-5.553-0.959-5.657-1c-0.167-0.064-0.259-0.244-0.215-0.418
		c1.445-5.687,4.739-7.414,4.879-7.484c0.123-0.062,0.271-0.048,0.38,0.038c4.186,3.319,4.938,7.581,4.968,7.761
		c0.027,0.165-0.065,0.328-0.223,0.389C6.58-87.187,5.189-86.946,3.675-86.946 M-1.429-88.502c0.742,0.247,2.78,0.847,5.104,0.847
		l0,0c1.311,0,2.517-0.188,3.592-0.562c-0.238-0.972-1.245-4.245-4.456-6.885C2.125-94.658-0.234-92.857-1.429-88.502"/>
	<path fill="#231F20" d="M-18.408-95.533c0,0,3.272,1.66,4.695,7.257c0,0-5.122,1.992-9.533,0.284
		C-23.247-87.992-22.534-92.261-18.408-95.533"/>
	<path fill="#231F20" d="M-19.241-86.946c-1.516,0-2.906-0.24-4.133-0.715c-0.156-0.062-0.25-0.224-0.222-0.389
		c0.03-0.18,0.782-4.441,4.968-7.761c0.108-0.086,0.257-0.101,0.38-0.038c0.14,0.07,3.433,1.798,4.879,7.485
		c0.044,0.173-0.049,0.353-0.215,0.417C-13.689-87.905-16.191-86.946-19.241-86.946 M-22.835-88.219
		c1.075,0.375,2.282,0.563,3.594,0.563c2.322,0,4.36-0.6,5.103-0.847c-1.194-4.354-3.553-6.155-4.239-6.6
		C-21.596-92.456-22.597-89.189-22.835-88.219"/>
	<path fill="#231F20" d="M-29.524-100.838c-0.154,0-0.311-0.034-0.458-0.104c-0.529-0.253-0.754-0.888-0.5-1.417l3.648-7.63
		c0.266-0.676,2.985-7.156,9.735-7.639c6.958-0.497,9.951-0.503,10.075-0.503c0.587,0,1.062,0.477,1.062,1.062
		c0,0.587-0.476,1.063-1.062,1.063c-0.029,0-3.059,0.007-9.924,0.497c-5.627,0.402-7.893,6.255-7.915,6.314
		c-0.011,0.028-0.022,0.057-0.036,0.084l-3.666,7.666C-28.748-101.061-29.128-100.838-29.524-100.838"/>
	<path fill="#231F20" d="M14.144-100.838c-0.396,0-0.777-0.223-0.96-0.604l-3.666-7.667c-0.014-0.027-0.025-0.055-0.036-0.084
		c-0.092-0.239-2.318-5.914-7.915-6.313c-6.865-0.491-9.894-0.498-9.924-0.498c-0.587,0-1.062-0.476-1.062-1.063
		s0.476-1.062,1.062-1.062c0.124,0,3.119,0.006,10.077,0.502c6.75,0.482,9.469,6.962,9.733,7.638l3.649,7.63
		c0.253,0.53,0.029,1.165-0.5,1.418C14.454-100.872,14.298-100.838,14.144-100.838"/>
	<path fill="#231F20" d="M-28.806-13.638c-0.192,0-0.385-0.062-0.547-0.19c-10.534-8.288-16.245-17.442-16.974-27.207
		c-0.774-10.357,3.942-21.036,14.017-31.741c7.165-7.614,5.076-13.639,5.055-13.699c-0.169-0.459,0.068-0.969,0.527-1.136
		c0.46-0.168,0.969,0.068,1.136,0.527c0.105,0.286,2.479,7.121-5.428,15.521c-9.719,10.328-14.275,20.554-13.541,30.395
		c0.69,9.249,6.177,17.979,16.303,25.947c0.385,0.303,0.451,0.859,0.148,1.244C-28.284-13.754-28.545-13.638-28.806-13.638"/>
	<path fill="#231F20" d="M-42.781-40.176c-0.316,0-0.604-0.213-0.687-0.533c-0.021-0.079-1.938-7.98,5.178-13.441
		c2.115-1.624,7.439-6.007,11.196-11.642c3.772-5.659,4.843-10.821,3.18-15.343c-0.135-0.367,0.054-0.774,0.421-0.909
		s0.774,0.053,0.909,0.42c4.696,12.772-11.54,26.063-14.843,28.598c-6.384,4.899-4.686,11.896-4.667,11.966
		c0.097,0.379-0.133,0.765-0.512,0.862C-42.665-40.184-42.723-40.176-42.781-40.176"/>
	<polygon fill="#FFF105" points="-11.326,-8.951 -7.406,5.492 -2.248,9.206 0.228,1.159 -2.248,-8.125 	"/>
	<path fill="#231F20" d="M0.036,5.422c-0.405,0-0.771-0.28-0.863-0.692C-0.845,4.651-2.605-3.173-3.551-6.33
		c-0.859-2.865-3.456-4.479-3.482-4.495c-0.031-0.019-0.06-0.039-0.088-0.061l-19.983-15.793c-0.383-0.303-0.448-0.861-0.146-1.244
		c0.304-0.384,0.861-0.449,1.245-0.146l19.946,15.764c0.424,0.271,3.212,2.159,4.205,5.466C-0.889-3.622,0.829,4.018,0.902,4.342
		c0.106,0.478-0.193,0.951-0.671,1.058C0.166,5.415,0.1,5.422,0.036,5.422"/>
	<path fill="#231F20" d="M-6.572,7.517c-0.396,0-0.759-0.269-0.858-0.672c-0.016-0.06-1.499-6.022-2.263-9.534
		c-0.625-2.877-1.627-3.642-1.77-3.737c-0.079-0.029-0.096-0.049-0.169-0.106l-18.21-14.343c-0.017-0.012-0.032-0.026-0.048-0.04
		c-7.452-6.76-0.206-16.254-0.132-16.348c0.301-0.386,0.857-0.456,1.243-0.155c0.385,0.301,0.455,0.856,0.155,1.242
		c-0.022,0.029-1.654,2.158-2.445,4.964c-1.017,3.601-0.228,6.617,2.347,8.964l18.122,14.273c0.487,0.276,1.862,1.345,2.637,4.909
		c0.758,3.485,2.235,9.422,2.25,9.482c0.118,0.475-0.171,0.955-0.646,1.073C-6.428,7.509-6.501,7.517-6.572,7.517"/>
	<path fill="#231F20" d="M-3.509,8.307c-0.318,0-0.608-0.216-0.688-0.54l-2.257-9.185c-0.094-0.38,0.139-0.764,0.52-0.858
		c0.38-0.093,0.764,0.14,0.858,0.52l2.256,9.186c0.094,0.38-0.139,0.764-0.52,0.857C-3.397,8.3-3.453,8.307-3.509,8.307"/>
	<path fill="#231F20" d="M-1.253,8.307c-0.323,0-0.615-0.224-0.69-0.552l-2.256-9.992c-0.087-0.381,0.153-0.761,0.534-0.847
		s0.762,0.154,0.848,0.536l2.256,9.991c0.087,0.382-0.153,0.761-0.534,0.847C-1.149,8.301-1.201,8.307-1.253,8.307"/>
	<path fill="#FFF105" d="M54.689-46.33c0,0,4.763,0.198,6.549-1.389c1.786-1.588,1.085-2.212,1.085-2.212l5.067,0.426
		c0,0,1.714-0.429,1.055-1.405c-0.657-0.976-1.851-0.959-1.851-0.959l-7.341-0.215L54.689-46.33z"/>
	<path fill="#231F20" d="M27.51-34.588c-1.01,0-1.454-0.383-1.65-0.723c-0.243-0.424-0.097-0.965,0.326-1.209
		c0.352-0.201,0.784-0.136,1.061,0.134c0.182,0.047,1.096,0.174,3.695-0.98c4.072-1.811,18.522-8.52,20.145-9.272l6.171-6.33
		c0.18-0.184,0.43-0.28,0.684-0.267l8.686,0.482c1.995,0.036,2.704,1.015,2.704,1.845c0,0.618-0.182,1.106-0.54,1.452
		c-0.534,0.514-1.302,0.596-2.289,0.559c-1.642-0.061-2.809-0.101-3.49-0.124c-0.397,1.154-1.593,3.143-5.15,3.669
		c-0.483,0.072-0.935-0.262-1.006-0.746c-0.072-0.484,0.262-0.934,0.746-1.006c3.548-0.526,3.829-2.81,3.84-2.907
		c0.048-0.461,0.442-0.819,0.909-0.805c0,0,1.42,0.044,4.218,0.147c0.656,0.024,0.894-0.029,0.977-0.061
		c0.003-0.014,0.006-0.034,0.01-0.061c-0.188-0.095-0.623-0.185-0.976-0.193c-0.011,0-0.022,0-0.033-0.001l-8.3-0.461l-6.005,6.157
		c-0.074,0.077-0.162,0.14-0.26,0.186c-0.16,0.074-16.012,7.438-20.32,9.353C29.706-34.88,28.392-34.588,27.51-34.588"/>
	<path fill="#FFFFFF" d="M2.3-90.881c0,0.603-0.489,1.092-1.092,1.092s-1.091-0.489-1.091-1.092s0.488-1.092,1.091-1.092
		S2.3-91.483,2.3-90.881"/>
	<path fill="#FFFFFF" d="M3.326-92.036c0,0.319-0.26,0.579-0.579,0.579c-0.318,0-0.578-0.259-0.578-0.579
		c0-0.319,0.26-0.578,0.578-0.578C3.067-92.614,3.326-92.355,3.326-92.036"/>
	<path fill="#FFFFFF" d="M-18.616-90.945c0,0.604-0.489,1.092-1.092,1.092s-1.091-0.489-1.091-1.092s0.488-1.091,1.091-1.091
		S-18.616-91.548-18.616-90.945"/>
	<path fill="#FFFFFF" d="M-17.59-92.1c0,0.32-0.259,0.579-0.579,0.579c-0.318,0-0.578-0.259-0.578-0.579
		c0-0.319,0.26-0.578,0.578-0.578C-17.848-92.678-17.59-92.419-17.59-92.1"/>
</g>
</svg>
