<?xml version="1.0" encoding="utf-8"?>
<!-- Generator: Adobe Illustrator 16.0.0, SVG Export Plug-In . SVG Version: 6.00 Build 0)  -->
<!DOCTYPE svg PUBLIC "-//W3C//DTD SVG 1.1//EN" "http://www.w3.org/Graphics/SVG/1.1/DTD/svg11.dtd" [
	<!ENTITY ns_extend "http://ns.adobe.com/Extensibility/1.0/">
	<!ENTITY ns_ai "http://ns.adobe.com/AdobeIllustrator/10.0/">
	<!ENTITY ns_graphs "http://ns.adobe.com/Graphs/1.0/">
	<!ENTITY ns_vars "http://ns.adobe.com/Variables/1.0/">
	<!ENTITY ns_imrep "http://ns.adobe.com/ImageReplacement/1.0/">
	<!ENTITY ns_sfw "http://ns.adobe.com/SaveForWeb/1.0/">
	<!ENTITY ns_custom "http://ns.adobe.com/GenericCustomNamespace/1.0/">
	<!ENTITY ns_adobe_xpath "http://ns.adobe.com/XPath/1.0/">
]>
<svg version="1.1" id="Layer_1" xmlns:x="&ns_extend;" xmlns:i="&ns_ai;" xmlns:graph="&ns_graphs;"
	 xmlns="http://www.w3.org/2000/svg" xmlns:xlink="http://www.w3.org/1999/xlink" x="0px" y="0px" width="595.279px"
	 height="841.89px" viewBox="0 0 595.279 841.89" enable-background="new 0 0 595.279 841.89" xml:space="preserve">
<metadata><?xpacket begin="﻿" id="W5M0MpCehiHzreSzNTczkc9d"?>
<x:xmpmeta xmlns:x="adobe:ns:meta/" x:xmptk="Adobe XMP Core 5.3-c011 66.145661, 2012/02/06-14:56:27        ">
   <rdf:RDF xmlns:rdf="http://www.w3.org/1999/02/22-rdf-syntax-ns#">
      <rdf:Description rdf:about=""
            xmlns:dc="http://purl.org/dc/elements/1.1/">
         <dc:format>image/svg+xml</dc:format>
         <dc:title>
            <rdf:Alt>
               <rdf:li xml:lang="x-default">Print</rdf:li>
            </rdf:Alt>
         </dc:title>
      </rdf:Description>
      <rdf:Description rdf:about=""
            xmlns:xmp="http://ns.adobe.com/xap/1.0/"
            xmlns:xmpGImg="http://ns.adobe.com/xap/1.0/g/img/">
         <xmp:MetadataDate>2018-09-05T11:39:22-03:00</xmp:MetadataDate>
         <xmp:ModifyDate>2018-09-05T11:39:22-03:00</xmp:ModifyDate>
         <xmp:CreateDate>2018-09-05T11:39:22-03:00</xmp:CreateDate>
         <xmp:CreatorTool>Adobe Illustrator CS6 (Macintosh)</xmp:CreatorTool>
         <xmp:Thumbnails>
            <rdf:Alt>
               <rdf:li rdf:parseType="Resource">
                  <xmpGImg:width>172</xmpGImg:width>
                  <xmpGImg:height>256</xmpGImg:height>
                  <xmpGImg:format>JPEG</xmpGImg:format>
                  <xmpGImg:image>/9j/4AAQSkZJRgABAgEASABIAAD/7QAsUGhvdG9zaG9wIDMuMAA4QklNA+0AAAAAABAASAAAAAEA&#xA;AQBIAAAAAQAB/+4ADkFkb2JlAGTAAAAAAf/bAIQABgQEBAUEBgUFBgkGBQYJCwgGBggLDAoKCwoK&#xA;DBAMDAwMDAwQDA4PEA8ODBMTFBQTExwbGxscHx8fHx8fHx8fHwEHBwcNDA0YEBAYGhURFRofHx8f&#xA;Hx8fHx8fHx8fHx8fHx8fHx8fHx8fHx8fHx8fHx8fHx8fHx8fHx8fHx8fHx8f/8AAEQgBAACsAwER&#xA;AAIRAQMRAf/EAaIAAAAHAQEBAQEAAAAAAAAAAAQFAwIGAQAHCAkKCwEAAgIDAQEBAQEAAAAAAAAA&#xA;AQACAwQFBgcICQoLEAACAQMDAgQCBgcDBAIGAnMBAgMRBAAFIRIxQVEGE2EicYEUMpGhBxWxQiPB&#xA;UtHhMxZi8CRygvElQzRTkqKyY3PCNUQnk6OzNhdUZHTD0uIIJoMJChgZhJRFRqS0VtNVKBry4/PE&#xA;1OT0ZXWFlaW1xdXl9WZ2hpamtsbW5vY3R1dnd4eXp7fH1+f3OEhYaHiImKi4yNjo+Ck5SVlpeYmZ&#xA;qbnJ2en5KjpKWmp6ipqqusra6voRAAICAQIDBQUEBQYECAMDbQEAAhEDBCESMUEFURNhIgZxgZEy&#xA;obHwFMHR4SNCFVJicvEzJDRDghaSUyWiY7LCB3PSNeJEgxdUkwgJChgZJjZFGidkdFU38qOzwygp&#xA;0+PzhJSktMTU5PRldYWVpbXF1eX1RlZmdoaWprbG1ub2R1dnd4eXp7fH1+f3OEhYaHiImKi4yNjo&#xA;+DlJWWl5iZmpucnZ6fkqOkpaanqKmqq6ytrq+v/aAAwDAQACEQMRAD8A9U4q7FXYq7FXYq7FXYqh&#xA;tS1PT9LsJ9Q1G4jtLK2UyT3ErBURR3JOKvFPMH53eZ9bkeHyZbppeldF1u/j5zyj+e3tWoqr4NLW&#xA;o/ZGbPS9lzyiz6YvOdpe0mHTkwj65+XIe8/oF/B5/wCYL5H+PzX5jv8AUGlNRbz3UqoSf992tuUW&#xA;nsq5sjodNhFzPzP6A8/j7Z7S1kjHBH/Sj9Mrr7GEXWnwtfPdWugTtYRyoqW5s5mM0VP3kjSseYbf&#xA;4du2+a6eSHiXGHo93N67T9jas6Qmc8n5g/Idw7vezDQrjSPV9Py7rF/pN1Hu0FrdXNvIKdjDIaED&#xA;/VpmxjpdJm+nn8QfkXkc/aPauiP74beYBHzH62eaF+bX5geX2VdXC+adKX7boiW+oxr4rxpDPQdi&#xA;FY+OYep7HnHeB4h9rtuz/azFkPDmHhnv/h/WPt972nyt5r0LzRpEeq6Lci5tHJR9irxyL9qOVD8S&#xA;Otdwf1ZpyKesBBFhNsCXYq7FXYq7FXYq7FXYq7FXYq7FXYq7FXYq7FXzl5/82P578xyQxvy8o6LM&#xA;0dnCD8F7dxni9w/Zo4zVYxuDue9M3fZWhE/3kuXR472m7ZOL9xjPrP1HuHd7z93vY7rup3FqkFpY&#xA;oJNTvnMVojfZWgq8jf5Ma7nNvrNT4UdvqPL8eTzfYHY0tfqBD+AfUfx3/rWafp+naPc8RDdatrks&#xA;fq3NxDby3VwUrQtSJX9KOuwGw+ec/OYibkbkX3DT4NNooCEQI0Ee2uQo3CWy1GOU/ZiewvA5r0oP&#xA;S74PzEO9yPz+Hv8AsKD1K30rV3itdR0+8sriSv1G6ubWe0k5KCx9GaRF+JaE0r26YBkhM7c2uctP&#xA;qRwS3vvCno17fRXc2i6mwkvbZBJBcgUFxATQSU7Mp2YeOb3Q6ozuEvqH2h8a9qvZ/wDIZeKH91Pl&#xA;5Hu/Ummm67qPkvXP8T6UrPbGg1/TUoFurZa1kA6etFXkjfR0OY/amhE4nJH6hz82Xs320cUxgyH9&#xA;3Ll/RP6j9h+L6X07ULPUbC21CylWezu4knt5l+y8cihlYfMHOafRERirsVdirsVdirsVdirsVdir&#xA;sVdirsVdirBfzo8z3GheRrhLGQx6trEiaZpzDqslxUPJ7enEHaviBlmLGZyER1aNTqI4ccskuURb&#xA;we/mGhaLb2+nxKzh4bO0RzROcjBFZyO29TnXZ8g0+L0jlQD5d2dpJdo6wQlKjkJJKD8uvf3fmrUX&#xA;1OKOO70y3htlERLRkTs8hkTluOSquaTJqJZZ3IVwin132b7Cj2eckAeI3z8vx97LNG17W/KfmU+Y&#xA;NLthqNvcwLaarphcRvJHG5eOWFzsJIyzbHYg+OY2fCZbh3Gu0hyeqPN6NH/zkB5MMHKWx1iG5pX6&#xA;m1hK0h9gycoz/wAHmJ4cu51B0+S64T8mA+bvN+r+eNZsLiSwbSdA0lnms7acqbqe4dDH6soQssao&#xA;jEKgYmu59sjBhINl2Wi0Uoy4pbUw/wA7ST2c2j6laRiW9S6NpFGTxDi5jZeLHw5KpzLGU45iY5/r&#xA;cf2j7MGs0/hnYmQ3RejajfXE99Y6jHEt5YuiyNAWMTLKgdac960O4zd6LUnKDxCiHx72i7FHZ+cQ&#xA;EuIEW9T/ACA1xorbVfJ07f8AHHkF1pYY7mxuiW4DuRFMGX5EDOa12Dwspj05h7zsXXfmdNGZ+obS&#xA;94/Xz+L1zMN2rsVdirsVdirsVdirsVdirsVdirsVdirwb84dXGr/AJi2mlxtytfLVqZZ6f8ALZfA&#xA;UU/6kCA/7LNx2Nh4shn/ADfvLyftbrODAMQ5zO/uH7aYnqumwalYS2cxZFkoVkQ0dGUhldT4qwBz&#xA;oc+EZIGJ5F4TRayemyxyw+qKR6ZDd6N5oBv7trwa1EI/rLIsY9e3HwIQuw5Rk08Tmh1GlOGQ3sS+&#xA;99e9lvaQ67JMTAjPb4/j9IZflb3LsVdirFfNEcurazp2k2s5hks2/SNxOoDekyArBsdiSzHY9sOL&#xA;TnNMRBqt/wBTyftV22NDjiRvPiFD8eX6Ez0jSV0+OYvM1zdXMhmurlwAzuRToNgoAoB2ze6bTDFG&#xA;huTzL492v2rk12Y5Z7dw7gmvlrV/8P8A5haBrLNwtbmRtI1A9vSvCPRLeyXCoTmt7aw3ETHTZ3vs&#xA;hq+HJLCf4hY94/Z9z6UznH0B2KuxV2KuxV2KuxV2KuxV2KuxV2KsA89fnH5f8uvJpmm01vzLQhNM&#xA;tmBWJunK6lFVhUdwfi9u+W4cE8kqiLLi6vWYtPDjyGh9/u73jGn294n1i71CYXOq6hM93qNwNg00&#xA;pqQo7KooqjwGdfo9MMOMR69XyvtbtE6vOcnKPKI7gjMynWIPVdLttTs2tbioBIaORTR43XdXQ9mU&#xA;5VnwxyRMZOXodbk02UZcZ9UUmtvNd5pN2NM8xxsz8edvqdujPHLGuxaRFBZWH7VBT6NzzmaMsMuG&#xA;fwPe+39he0mLW475SHPy/HQ/cmy+cPKzR+oNVtuPgZFDf8CTy/DIeLHveg/M4/5wSrU/PSO0NpoN&#xA;u99eXbGO2ndWjtwQKs3JgC4Ubnjt74xmZyEYCyXXdo9sYtNiOQ/SOv45pnoukDT4HaWQ3F/ckSX1&#xA;03WSSlPoVeijsM6LS6YYo1zJ5l8L7Y7Wya7Mck+XQdw/X3/qTHMl1SF1LT4NQsJ7KevpzqVJHUHq&#xA;GHup3GV5sQyRMTyLfpdTLBljkj9UTf4970n8v/zotFhttB87zLp+sRgRQavL8Nnehdlf1T8McpH2&#xA;1agr060zj9TpJ4TUuXe+s9ndqYdXC4H1dY9R+zzetgggEGoO4IzFdi7FXYq7FXYq7FXYq7FXYqlH&#xA;mrzXoXlbR5dW1q5FvaR/Co+1JJIfsxRIN3dqbAfqxAtBIAsvCfM3n7zt5yLxtLJ5c8uvUJp1s1L2&#xA;dD3uZxvHXvHH40JObzSdkE+rJt5PGdqe1cYkw044j/OPL4Dr7+XkUo0/TLDTrcW9lAkEQ/ZQbk+L&#xA;Hqx9zm+xYowFRFB4nUanJmlxZJGUkVljQ7FXYqx/zhMlpFpt/wD7vtr6H0qbEiQlJEH+shOaztUD&#xA;wweokHrvYrNOGuHDyMd/s/s+LI2tLRpPUaGNpP5yoJ++maqg+48I7mPWkgvPOmqPIKHTIYLaBTvt&#xA;ODK7+1dhmd2ZEHJI9wA+b5Z/wQ9VLix4/wCHc/Kv1p9m6fM3Yq7FVK4tre5haC4jWaFxR43AZSPc&#xA;HIyiJCiLDPHklCQlEkSHUKvl7XfN/k51by3eG50tPt+Xr52e3KjqLeRqvA3hT4a9Rmm1XY8Tvj2P&#xA;d0ev7M9q5xqOo9Uf5w5/Hv8Av973LyH+YWiecrCSayD22oWhCajpc9BPbuenIftI37LjY/Ooznpw&#xA;MTUhRD3eHNDJETgeKJ5FlGRbHYq7FXYq7FXYqsmmihheaZxHFEpeR2NAqqKkk+wxV8za15iufPHm&#xA;JvMl3UaXbs8XlyyYbRwVoblgf92zca+y0GdH2VogB4kuZ5Pn/tP2wZTOngfTH6vM93uH3+5dm7eO&#xA;dirsVU57iC3iaa4kSGJftSSMFUfMnbIykIiyaDPHjlM8MQST0CTt5w0h2KWIm1KUGnCzieX/AIeg&#xA;T/hsw59pYRyPF7vxTvdJ7L67Pyhwjz/Vz+xCy+WtT15lvNYb6n6To1jZJ8fpBZFZnkIIDSOq8fBQ&#xA;c0+pyyzm5bAch+Or6j7P+y0NFjuRvLKrP6B+Pf5S7A9gxnUfK18uq3Wu6XdBNSlKEQOP3UkaRohi&#xA;kO/XhUN2wY5Sxz44nf73Qdtdg4tdjIn9XQ921N/4stbccdWtbjTJR9oyxs8Vf8maMMhHvtm3x9p4&#xA;z9VxPn+t8l13shrsBNR4494/Uf0WmtlqFjfRerZ3EdxH3aNgwB8DTpmdDJGYuJsPOZtPkxS4ZxMT&#xA;5ikRk2p2KuxVCPLqmk6nB5j0JvT1qw6LUhLmCtXtpgPtK46eBoRmu7Q0QzRsfWOX6nf9hdsS0mTh&#xA;kf3Ujv5f0h+nvD6Q8q+ZNP8AMvl2w13Tyfqt/EJEVvtIwJV42/ykcFT7jOSfUgbTXFXYq7FXYq7F&#xA;WCfnjqE9l+Vuu/V24z3kcViniReTJbuB/wA85GyUI8UgO9rzZOCEpfzQT8nhTarDZs9tBZzy2enm&#xA;2t7y7iVfQtjcn04EdiQattsAds66eux45jF12HufLMHY2o1GGWo24dzvzNc6TbM50rsVWySJHG0j&#xA;kKiAszHoANycBNJjEk0GO6ZZ2uqoPMOuBWt5DXTLSbeKKHojlDs0j/aqa5zWbMc0uKX09B+Or7p7&#xA;N9gYtHgBkAckuZ/H2fNkjXljBbpIZUjgagjIICn5UyNh6riAC6a9tIeHqzInqf3dSN/ljamQDcl3&#xA;axzJA8qrNJ9hCdzjamQunfXLX6x9W9VfXpX067+ONrxC6cl3ayTtAkqtMn2owdxja8Qukg1TRrG5&#xA;Mt9oTR2+tW3xK8NFWUj/AHXMooGVqUqemCJMDxQ2l+ObqO1OyMGsxGEoi0w0jUotS023vowVWdal&#xA;D1VgaMp/1WBGdJgyjJASHV8A1ullp80sUucTX496My1xnYqldxr0cF5NE1rcNa2zwQ3eoKlbeGW5&#xA;qYVkatV502NKVzCya6EMnhnm7fB2Lmy6c541wi9utDn5fbb1b/nHu6dNM8x6OTWPT9UaWAdljvIU&#xA;m4D2Dlj9Oc1r4COeQHf9+76J2HmOTR45Hur/AEp4f0PWMw3bOxV2KuxV2KvOvz/R/wDlWd5MFLR2&#xA;11YzzlQTxjju4y7EDso3OW4ZATiT3hx9ZAywziOZjIfY8kaBo/yf06+A+DzL5vFxyPVoIRKIgdvs&#xA;/wChggZmwkMmrvvn9zp82M6fssx5EYqPvI3+0q2dY+XOxVj+qPLrWoHQbRitrHRtYuV2oh3Fup/m&#xA;k/a8FzUdoam/3Uf879Xxe+9jPZ458g1GQeiP0+Z7/wBXnv0Ty80q1ubJLMgxwxcfSCUHEKKAD2pt&#xA;muran2AwBFJSsek3xXSh6qfU+XCXbeho/j+rI7HZq9MvT3LQdH1WMkiWKPT49ht8USj6fDBsV9Mv&#xA;guMuk33LVnEqGzK84xT4qH4MOx3W4y9Xc71tKP8Aue4y8w/D0dqepSn6vfHbmtx+pyy6VZcdZQSs&#xA;bosFi2+Ek/H+Ix2G63EervTDR9MsbcG6ti5FwoKh6fCp3pthAbIQA3CUTqfLmrGXpoWpSVk8La6c&#xA;/a9o5T9zeGZej1HhS4T9EvsP6i+ee2ns74sfzGIesfUO8fj9XcyHN8+SuxVf5f0w6np/5l6KFLyX&#xA;2iW19bxgEkzWZn9PjQ7fGi5y3bArNfkH0r2UkJaOj0mR9x/Sy3/nGy5/SK+ZtXj3trqSxiWShoZY&#xA;rblKvh8JlAOY2uyjJlMh3D7nZdi6WWDTCEhREpf7o09qzDdq7FXYq7FXYqtkjjljaORQ8bgq6MAV&#xA;ZSKEEHqDiry38/rGOHybob28aw2una1ZOY41CokbpLbigFAoBmGZWilw5onzdb2xjM9JkA/mH7N3&#xA;nOdo+QJTr2qT2yxWVgok1a+JjtIz0UD7Ur/5CDfMPW6rwo7fWeX63e+z/Ys9fnEf4B9R/R8VSJNN&#xA;8raCzyuXEdXmlO8s88h3PiWdumaH6Rv/AGl94hDFpcND0wiEls5dZ07V7TVtUlPp6w/1e5ta/BbF&#xA;t7ZR8qFWPicuy6WWKMZy/i5+Xc8h2L7Ux1eunj/g/h86/G3lum2qanBaXckWnRRvqIo10oQlwj7q&#xA;aClQx75SZC9ub2c8gBofU3e3F1ZLbm0sEBulBuVCE1Y/sGnzOJNJkSOQ5oO58w2FtqBsLeOH6kJk&#xA;trpuJ4etJSqF/sVAIrkTMXTWc0QaHK6RxlmGpjTBZJ+jvDhtSnLlX7P2sl1ptveq2Q/6UhGrJpN9&#xA;bRpbyuyWcfpkklASCOopTqcHFvRYeIOLhPwUPMC3uq6vHpOnXLWa6bF9amnj2AnYUt42p2pViO4y&#xA;7DpzmkYg1wj7ejy/tV2/+REBHeRly8hz/HmmGlX0GvaXcWWowBbqOtvqdmf2XI6j/Jb7SHKyDvGQ&#xA;3HN6HQa3HrMAnHeMgg9FubnT7xvL+oOXliXnpty3We3HYn/fkfRvvza9n6q/3cvqHLzH6w+Q+13s&#xA;+dJl8WA/dTPyP6j9/wAE+zaPGMu/IqEzedfNN3T4bS0sLQMa9ZGmmIHbwJzlu2JXm9wD6X7Jw4dJ&#xA;f86ZP3D9D2e1s7S0hEFpBHbwglhFEqotWNWPFQBuTU5qnplXFXYq7FXYq7FXYqxv8x/LL+Z/I+sa&#xA;JFtc3VuTaGtKXEREsBJ7D1UWuEGjYRKIkKPIvnOLzBbJoC6rd1i4JSeGnxrMp4NFxP7XqDjTOyhq&#xA;4nD4h5V+A+R5eyso1Z00RcuKh7u/5bt+XtNni9bWtVoupXi1dWPw28A3WEE9KdXPc5o5TM5GcuZ+&#xA;wdz7l2F2RDQ6cQHPqfx+OnRB2ZbzBqa6rKD+ibJiNKiPSWQbNcsPbpH9+Zug03GfElyH0/r/AFPA&#xA;+2vtFxn8tiO38R/R+v5d6aaxpsep6ZcWLnj6yUR/5XG6Nt/KwBza58QyQMT1eB0Wqlp80csecT/b&#xA;8wl1jaQeY9Ltru4eS01myLW8tzA3CaOaM8ZFO1CrEcuJHQ5zHBfPaQ2fobS5IarDHLE8xzCEj0bz&#xA;Nwmh1LX5IklqIVX0keRu1HoWUf6tMjwS6ln4WTlKavaaJ9X0C40Sb0V9f+4tXZWLVNWO/Uk9D45I&#xA;QoUzjhAgYIaPRPMtvZfUrXXXjn/Ys5PTlkVP8mRvjH9MjwSGwLAYcgFCXwTGw0y10Oym1nVZnudQ&#xA;jiY3F5O3NggqRHH2UHwXqckIiIs82yOMYwZyNnvXeWLOeKwa8uxS/wBRc3Vz4qX+xH8kSgzf6DDw&#xA;Y9/qluXwb2k7SOr1cpX6Y7D4ft+ylPW7O6tblNd01C95brwu7df+Pi3rUr/rr1U/RlWv0pkOOP1D&#xA;7Q7D2U9oDos3BM/upn5H9Xf80VqFpaeY9HgurGbhMtLjTrwdY5R0r7fsuuacG6lE79H2TV6XFq8J&#xA;hIXGQU9I1xLqxmkvALa8sapqMB/3WyCpb/UYDkp8M3+m1UckOI7Ec/J8E7W7Hy6TU+CRdn0+f7Xt&#xA;H5C6FPZeTH1i7jMd55juX1Lg32lt2AjtUP8AzxQP/ss5LUZfEyGXeX0/QaX8vghi/mj7ev2vSMpc&#xA;t2KuxV2KuxV2KuxV2KvmXzzoGkS/m7rLWQZbCweG5ubWoMLarcRB5JUAHaMqSN/jJPtmXprIq/SD&#xA;debn9m6KEsvjEDiAq/tSHWp5Nb1BtBtmK2MNG1idTSoO62ykd3/b8Bmw0+Dxp1/COf6nWe13tCNH&#xA;i8OB/ey+zz/H608jjjjjWONQkaAKiKKAACgAAzogKFB8TlIk2eZXYUJN5TYXFxrGoxbWt3d0t6dG&#xA;EMaxNIPZmU5zWWYnklIcifu2fe/ZLSzwaGEZ8/17/ZdI/WNJtbzjPPI0aQKS/Heqjc5WRb0U4A7l&#xA;Ayfoi+k/S3qyItpx9SMjclTVfHrg2O7A8J9XciLKysL69GrwyP13jIpRwKfqwgXumMQTxKXniF5f&#xA;LdxSMyxxvFLPEBUtFFKryCn+qtcE6rfls4vamOc9PMQ2lWyYW1xBcwR3EDiSGVQ0cimoIPfOojIS&#xA;Fjk/OOTHKEjGQqQ5quSYMdLHy3qZnG2hahJ/pA7W1w5oJPaOQ/a8Dmi12n8OXGPoPPyP7X1P2K9o&#xA;uIflsp3H0nvH7Pu9xROt6Lpb63pWo3xddMmu7a011I24iW0kmUAufBWIrTfiSM12exEkHnze07W0&#xA;OPJw5SAZQO33fj9j6yjjSNFjjUJGgCoiigAGwAAzXupbxV2KuxV2KuxV2KuxVg35q/mfZ+SNKjWG&#xA;NbzX7+qaZYMSF2+1NNTcRJ3puTsO5BAs0zhAyNB4UJdUuIy1tdrf+Y/M2oJGLngET63dFULemv2U&#xA;iReVPbfM3+7hs7s1p8PpNk/e9G1L/nHk6fZxSeT9We3v1RfrtvqPKa1vJQKPMxFZIZHO5KVH+TkN&#xA;NrcmE+k7dzx3aXZODWb5B6v5w5/t+LDtR0bz1ozlNY8sXvEf8fenKL+Aju37msij/WTN1i7Zxn6g&#xA;Y/a8dqfZDPHfHKMx8j+r7WJ635itb94tGs53t5LkkX8zxyRPBbr9v4XVW5P9ldsdX2hGcOHGfq+w&#xA;OZ7OezGWWqEs8eGMN+hs/Du/Un1pqugWltFa28yxwQqEjQBqBRsO2a8EAU+xxlCIoclR9d0V1KNc&#xA;KysCGBVqEH6MeIJ8SKGiu/LEVvJbxughl/vFo5r9J3wWGIlAClW21XQLWIRQTKkY3oA53PuRhBCR&#xA;OI5Kv6f0f/lpX7m/pjxBPiR72MrqulaBq/CGf/cJqBZhGqufq9z1oqgV4SeAGxzJ0erGGXDI+g/Y&#xA;f2vnPtj7PDNWbAPX1HK/7Pu+DKtPtfNWsMF0Py3qN4GpwuZ4jZWxHj61z6f4A5lZe2MUfpuX2PIa&#xA;b2T1M/rMYD32fs2+1mmhfkNqeplZfPOoIbOtf0FpjOsT+1xcnjI/uqBR75p9V2jky7co9wet7N9n&#xA;9PpSJfXk7z09w6fewLX/ACyNGvdb8kalcu1nZJHJp169BI1jMOUJJOxeJkMZNOoyGGXHExL2+kye&#xA;LiMJdHqP5Qfm+3mG4by15gkQeYYVZrS7RfTjv4UHxOqdElUbug/1htWmLOHCXVZsJgaerZBpdirs&#xA;VdirsVdiqC1rWNP0XSLzVtRlENjYwvPcSHsiCpoO5PQDucVfHeteYdT80a/eeZdUqt1fGlvbk1Fv&#xA;aqf3MC9Og3bxapzLxQoO302LhjfUs8/5x/8ALE+sedZNfkU/ovy8rpE5rxkvp0KUHY+lCzE+BYZV&#xA;mlZpxdZls8I6PpXKXCdir408zeYX8zebdZ8wsxeK9uWjsa9rS3JigAHaqryPucysMaFu10kKjfel&#xA;+XOW7FXYq7FXYqo3huEh9e1cx3dsy3FrIv2lmhYPGw/2S5GcbDVmhxRIfZ3lfXIde8t6XrUI4x6j&#xA;aw3IQfsmVAxX/Yk0zBdImeKvEP8AnJTytMbfTfOVqnJdOBsdWp1FrM4MUh/yYpuv+v7ZZjlRcjTZ&#xA;eCXk8R53cM0F7YTG31CzkW4sbleqSoaqfcHoR3GZU48QdnlxicafW35b+drbzl5Ss9ajURXJrBqN&#xA;sDX0bqLaWP5V+Jf8kjMEh0shRpk+KHYq7FXYq7FXhX/OSnmv1P0b5Ltn2uKajq4B/wB0RNS3ib/X&#xA;lHIj/JGWY42XI02Pil5PJvL/AJc1/wA1awND8vw+pdkBru7baG0iY09WVvH+VRucvyZK26ufqNQI&#xA;ChzfWvk/yppXlTy7Z6FpikW1otGkb7csjbySyHuztuf6ZiOpJTnFCWeaLuWz8tatdwkrNb2VxLGV&#xA;FSGSJmFB8xir4zsLG4ttKsjJGVR4I2R+qtyUGoI275nwFAO9xxIgPcqYWbsVdirsVdiqrb2txcP6&#xA;cEbSN4KK0+fhhpIBPJ9E/wDOPF3M35djTZv73Rb67sCCakASeug+hJxT2zAmKJDo80OGZD03ItSj&#xA;e2dpfWc9leRLPaXMbQ3EDiqvG4KsrDuCDTFXyT5/8gal5A1gWc/Kby9dORo2pncAdRbTn9mVB0PR&#xA;xuO4GRiydC7HTaj+Esh/IbzW2hee20aZ+Om+ZF4qCaKl9ApaMiuw9WPknueODNHe2Gtx0eLvfTeU&#xA;OC7FXYqlPmfzX5f8r6U+qa5eJZ2ibBm3Z27JGgqzsfBRirxXXf8AnJvU55JLfy3occAYH6vd6pNS&#xA;QitOf1WIVoPeTLBiJcmGlkeezzbQfL/m7zz5qntraZr3W70rc6xrNxQRwRE8A7AUGwHGOJfDwGWE&#xA;iAoc3InIYRQ+ovqjyN5G0PybocelaVGTU+pd3clDNcTEfFLK3cnsOgGwzHdeTe5ZDih2KoXVbQ3u&#xA;mXlmDQ3MEkIPh6iFf44q+X/KjLceVtNWVAQtukLxsO8Q9Mgg+65s8RuIeo0xvFH3LL7ytZzVa2Jg&#xA;k/l6ofo6jCYspYQeTHr7R7+zqZYyYx/u1PiX7+305AimiUCEqbULJbn6s0oE2w470q24BPSp8K5D&#xA;jF00nJG6vdMbPTr28alvEXHQv0UfMnbJgW2xiTyZBY+U4Uo94/qN/vtNl+k9T+GTEG+OHvT2GCGB&#xA;BHCixoP2VFMk3AAM4/ISbhf+cLAH4Uu7W7VfD6xbBCfpMGa/OPWXnNeKyl67lLhuxVA65oeka7pd&#xA;xpWr2sd5p90vCaCUVBHYjurA7qw3B3GKvlL8yfy11TyPqkVtLJLcaDdSj9C6upIlilX40hlZacZk&#xA;41Rx9oCviBfCfEOEufhyiY4JMr8u/wDORvmzSbe3ste06DW+HwC9hm+rXUiKPtNEytG7jvxK1yMs&#xA;JDXPSSHJ7T5H/Mfyt50s3m0a4P1iAD65p86+ncwFugkjNdv8pSV98qIcUxI2LJ8UPlf84PIn5pCD&#xA;UPN3m/VdPkELrbaXb2zzPx9eQIkdtEyIsex5M7MW275KJ7m7HOtgNy82s5IoZry5mYu8brax/tOQ&#xA;irRVHUl2OZIIFkuxjIR4pHps+pvyK8gXvlfy3Pf6tH6Wua46XF3ARRoIUUiCBv8AKQMzN/lMR2zG&#xA;lKzbrMuTjlb0vItbsVdirsVfMcFmdO1nzDpBHFdP1a7SFT1EM0n1iL/hJhmfpj6Xoezp3iruKKzI&#xA;c9p2VVLMaKASxPSgxQzX8rfy90TW/wAmjaarajl5pafULqTiA6PLI31aSM9jFGqFPf55qpSs28rk&#xA;ycUreeaWt/ZSXOg6snpazoz/AFa8SlA4ArFOnikqUYHM/Dk4h5u/0ecZIeYR+XOY7FWUfknKYfPv&#xA;mS33pdadYXB6U/dSzx79/wBvMDUj1Og7TH7z4Pasx3XOxV2KsX/MvyWnnHybfaIHWG7cLNp9w3SO&#xA;5hPOJiaEgEji1B9knEFMTRt8da5Hc28VxBfwNaavpUyrc2z7PFKjgMNuqsOhGxGZRkDG+52ksgnD&#xA;i6hlP5ceRPPmuX19qvlDVba01nQ7leJmeSKZYrgF46MqSpJG1HVkcU2+jKsh3ouLqJUSC+reHm3/&#xA;AArx52P+KvqtPUpL9R+t8OtP730uf00ypxHhv/OVXmv1LnQfKWnv6t4spv7uFFLurEejagKPtOxe&#xA;Qhfl44Y82zHsbT78k/yJh0BLbzH5niEuuj97Y2DEOlmW35v2e4Pdv2e3SuJNrPJb2vA1uxV2KuxV&#xA;2KvAPzGsv0f+bGp/yazYWt+v+vAWtZB86JHmXpTuQ7fsqe8opZmY7lKvNV01r5c1GVKmT0HSOnXn&#xA;IOC0/wBkwyvKaiWjUy4ccj5Ppfy5pS6R5e0vSVNV060gtFPiII1j/wCNc1jyxee/nZ5LuLi2i85a&#xA;NCZNY0aMrfW6D4rvT68pI6d3i3kT6RvUZPHPhNuRps5xzt51aXdvd2sV1buJIJlDxuOhUiozZg2L&#xA;emjISFjkq4WSe/lI/H8150p/e6DIxb/jFeQin/JXMHVcw6PtQeoHye65jOrdirsVdirzX83vyb07&#xA;zvaG/sTHZeZoIykF0w/d3CU/uLmgqV/lbqv4YQaZwmQ8Z/IPWNQ8ofmxL5c19JLCTUIDpzwXB4lL&#xA;mNhJbhj0fkOSRsNm5CmGRtnkNh9YZFpSiXyh5Xm8wJ5im0u3k1yJBFHqDoGlVR0oT0I6cutNumKp&#xA;virsVdirsVdirsVeQfn1Y+jqXlTXAKKtxcaXcEdxdxepFX2D2/45dgNSDm6CfDlHmwzNi9GhpLP9&#xA;I695c0jqt/q1oJkHeGB/rEv/AAsOY+pPpdf2lOsdd5fTeYDz7sVfO/nfyt/gjzZ6MCcPLGvyPLph&#xA;H2La8PxS2vgqybvEPmo6ZlafJXpLtuztTR4D8ELma7pMfy+uYLb829G9Z1Q3mn39vDUgEuphlpv1&#xA;+FTmHqujpu1R9PxfQOYjqHYq7FXYq7FUo1Lyh5Y1TV7HWNQ0y3udV05g1leugMsZUkrRupCseSg9&#xA;DuN8VTfFXYq7FXYq7FXYq7FXYqwT88NLe+/LTV5YVrc6YI9TtyOoaykWZj/yLVhhBo2yhLhkD3PJ&#xA;oZUmhSaM1jkUOh8QwqM2oL1oNi00/Lq0+v8A5taWK7aRp95ft4cpilon00kfMTVHkHT9qz3iH0Bm&#xA;I6h2KpL5y8qab5r8uXmh6hVYrlaxTr/eQzKeUc0Z7MjAH8OmKQafO9vcXlg2oaZr3G31XQ3MOpsd&#xA;oyAvNJ1J/Yljo4zY4svFGz0ej0upE4WeY5oCC5t/M0M5jV7eG3kSTS9QU8J/UTcXEQIDIFcfCe+O&#xA;2QHuSeHPEgj09D+l7n+Uv5gXHmXTp9L1kqnmbR+Md+Foq3Ebf3V3Gop8MlPiA+y3htmBOJiaLz+b&#xA;EccjEs+yLU7FXYq7FXYq7FXYq7FXYq7FXYq7FXYqxb81NQXT/wAtvM10xoV025RD/lyxGNP+GcYp&#xA;DwjQrK4sdGs7O4cSS28Sxs4FAeIoPHoM2sBQAeqwwMYAHoyD8odTuLL82r60u4uNvrGniHTpzQkv&#xA;Z0mdBvsCJXP+xzC1IPFbpu0oy47PJ9AZjutdirsVeGfnJpJ0rz7p+thaWPmG2/R9y1PhF5a8nhLH&#xA;xkhZlA/ycyNNKpV3ux7Ny8M+E/xPLfMFw41qVo2KNGFVWU0IooPb55lS5uzyn1LtF87X/l3zLpfm&#xA;Ukyfo9/SvuI+OWxlIE0bU+1x+2tf2hlGcWL7nC1keON9Q+wYpY5YkliYPHIoZHU1BUioIPvmI6hd&#xA;irsVdirsVdirsVdirsVdirsVdirsVef/AJ9k/wDKqdZUGgeSxRv9V7+BW/A4Y82eP6g8S1vX2s7i&#xA;OC3ozqQ09fD+X6c2cpU9PkyUaCPsdWjh17yrrlu1Bb6tbJI3dYrom1mU/wCxmynUC424faAEsV9x&#xA;fT2YLoXYq7FWO/mB5Pt/N3la70aR/RuH4zWF1TeC6iPKGUd9mG/tUYgpjIg2HyXeNqK6leWuqwm1&#xA;1a0lMN/bH9iRe48VYfEp7jM6E+IW7vFm8QX1UJY1kjeNxVHBVh7EUOSIZkWKfTf5DeZH1v8ALbT4&#xA;535XujltKu/9a1oIz71hMZr45gEUXRzjRp6FgYOxV2KuxV2KuxV2KuxV2KuxV2KuxV5/+fiSt+Uu&#xA;utGKtD9UnI/yYbyGVv8AhUOEc2UDRBfMzyNI7SOeTOSzMe5OZ7vrVIbyaMwWqmsVxeWVV/yluomB&#xA;HvtkMp9JadTL92R+Ob7VzCdK7FXYq7FXkP58fljLrNmPNmhQF9e02Ol5bRj4ry0Xdkp3lj+0nciq&#xA;7/Dk4Sot2HKYSt8/288VxCk0Tco5BVTmYDbuIyBFh6Z/zjv5i/Rnnm+0GVqW+v2/r2wNf967MEsq&#xA;joOcLFif8nMbNHe3XayFSvvfSWUuE7FXYq7FXYq7FXYq7FXYq7FXYq7FUt8zaNHrnlzVNGkIVNSt&#xA;J7Usd+PrRlA30VriofFmlyPJp8DOCJAvCQHryT4Wr9IzOgbAd5ilcQnPlm3F15z8r2xFVl1iy5r1&#xA;qscwkYbeyZDN9LTqz6H2ZmI6l2KuxV2KuxV8w/nZ+Xn+EtfOvabFx8ta1N+/jQfDaXr7kU/Zim6j&#xA;sGqNhTLsU62c3S56NFgcGq3Wi6jYa9aAm50e5jvEUGnNYz+8jJHZ4+SnLssbDl6mHFD3PtOwvrXU&#xA;LC2v7SQS2l3Ek9vKOjRyKHRh81OYbp1fFXYq7FXYq7FXYq7FXYq7FXYq7FXYq+N/N+lnSPPnmfSy&#xA;gjWHUZZ4Y12Cw3dLiID/AGMmZeE7O20krimH5YW4ufzU8qQNQgXU82/SsFpNIP8AiO2Rz8mGtPpD&#xA;64zGdY7FXYq7FXYqgNf0LS9f0a80bVIRcWF9GYp4j4HoVPZlNGU9iK4qHyB5k8s6l5U8w3flnVSZ&#xA;ZLcepZ3RFBdWjkiOUe+3Fx2YHMvFOxTttNm4xR5vd/8AnHHzKdQ8kyaFcSc7zy5ObX4iSxtZayWz&#xA;GvbiWjH+pmNKNGnXZocMiHq+RanYq7FXYq7FXYq7FXYq7FXYq7FXYq+Yfz+01bH80/rKAhNX02Ge&#xA;Rj0M1u7QED/nmEzIwF2Gil0/H43QP5MQmX83dBI/3RBfSnv/ALo9P6P7zDnZa07D8dz6szGda7FX&#xA;Yq7FXYq7FWAfnJ+XH+MvLoksFVfMelFp9JlNBzNP3lu5P7EwFPZqHpXDE0bZ45mJsPD/AMk/Nf6D&#xA;/MWy9cNBa64raTfwyVUxXStyg5qR9sSgxb/zZbl3AkHL1VSAmH1flLguxV2KuxV2KuxV2KuxV2Ku&#xA;xV2KuxV4b/zlBpr/AFfytrQpwtruexk8T9biDp9ANvlmI7uTpZVMMV/5x+hWb81WYmn1bR7mVQO5&#xA;a4gjofobJ5+bdrjuH05lDgOxV2KuxV2KuxV2Kvm//nIr8vW0rUk84aR+4ttTlSPUvT+H0b8Gtvdr&#xA;Tp6jKFf/ACqHq2Tgene5GGf8J5F7P+Wvni085eU7TVoyFvVAg1S2/ahu4wPVQjwJ+JfFSMgQ0SBB&#xA;ospxQ7FXYq7FXYq7FXYq7FXYq7FXYq83/wCchtMF7+VepzhC8+mSW9/Bx7GGZQ7fRE74Ymizxyov&#xA;Nf8AnHFOX5janKDsmjhfn6l0h/40y7PzcvW8/wAeb6SyhwXYq7FXYq7FXYq7FUg8/eWk8z+TNY0I&#xA;gc762dICeizr8cLf7GVVOKh8rfl3581HyZrUOvwo8llcKsHmHTxszxoaGRVNP3sDVpXtUbVzInHi&#xA;HEHYZsfHETHN9gadqFlqVhb39jMtxZ3UazW86GqujiqsPmMx3XojFXYq7FXYq7FXYq7FXYq7FXYq&#xA;lPm7Sm1fyprOlL9vULG5tlr/ADTRMg6e7YpDwX/nFak+u6zcnd10yyQHw5SSFvxTLMhuvc5Golde&#xA;4PpDK3GdirsVdirsVdirsVdir5J/NPy5/hz8yNXslThZaof0rYeHG4J9dR2HGcNQeBGZOCXR2Wiy&#xA;bcLPv+cavM92lxqfk2asllbRfpHTG7RI8gSaH/V9Rg6/NsqyxouNqcQjLZ7xlbjOxV2KuxV2KuxV&#xA;2KuxV2KuxVBa5fCw0XUL4niLS2mn5dKenGWrv8sVfMH/ADjjqX6L8/abasaR6zpktqVOw9WILdIf&#xA;nxRx9OW5BsHL1EKjE+T6sypxHYq7FXYq7FXYq7FXYqxP8wvy08v+ebO2i1Npra7smZ7K/tWVZoi4&#xA;AdfiDqyNQclI7dsINMozMTYQH5aflLpfkaa9u476bU9Sv1SKW6nVE4RRksEjRB8IJarb70GMpE80&#xA;5MhkbLO8DB2KuxV2KuxV2KuxV2KuxV2KsX/NO4Nv+WvmmUV5foq8VSDQgvAyg/RWuKh8p+WtQ/Q2&#xA;v+XNUB4rp9/aNK3T90ziKUV943OZWUel2upj+79z7UzFdU7FXYq7FXYq7FXYq7FXYq7FXYq7FXYq&#xA;7FXYq7FXYq7FXYq7FUi896Hc675L1zRrQqLrULGe3ty5ovqPGQgY9gWpU4q+RdP8s+Ytd1ePynba&#xA;fcQ64ZEivYZEZPqgQgvNKxFFRQKqf2tqVrmRLIDF2WTUROPzfa+Y7rXYq7FXYq7FXYq7FXYq7FXY&#xA;q7FXYq//2Q==</xmpGImg:image>
               </rdf:li>
            </rdf:Alt>
         </xmp:Thumbnails>
      </rdf:Description>
      <rdf:Description rdf:about=""
            xmlns:xmpMM="http://ns.adobe.com/xap/1.0/mm/"
            xmlns:stRef="http://ns.adobe.com/xap/1.0/sType/ResourceRef#"
            xmlns:stEvt="http://ns.adobe.com/xap/1.0/sType/ResourceEvent#">
         <xmpMM:InstanceID>xmp.iid:62221B6208206811822A9DD448A483FF</xmpMM:InstanceID>
         <xmpMM:DocumentID>xmp.did:62221B6208206811822A9DD448A483FF</xmpMM:DocumentID>
         <xmpMM:OriginalDocumentID>uuid:5D20892493BFDB11914A8590D31508C8</xmpMM:OriginalDocumentID>
         <xmpMM:RenditionClass>proof:pdf</xmpMM:RenditionClass>
         <xmpMM:DerivedFrom rdf:parseType="Resource">
            <stRef:instanceID>uuid:ba5dc92b-6d0a-484a-ab90-b9370a4a0965</stRef:instanceID>
            <stRef:documentID>xmp.did:0980117407206811822A897E387FE54C</stRef:documentID>
            <stRef:originalDocumentID>uuid:5D20892493BFDB11914A8590D31508C8</stRef:originalDocumentID>
            <stRef:renditionClass>proof:pdf</stRef:renditionClass>
         </xmpMM:DerivedFrom>
         <xmpMM:History>
            <rdf:Seq>
               <rdf:li rdf:parseType="Resource">
                  <stEvt:action>saved</stEvt:action>
                  <stEvt:instanceID>xmp.iid:62221B6208206811822A9DD448A483FF</stEvt:instanceID>
                  <stEvt:when>2018-09-05T11:39:22-03:00</stEvt:when>
                  <stEvt:softwareAgent>Adobe Illustrator CS6 (Macintosh)</stEvt:softwareAgent>
                  <stEvt:changed>/</stEvt:changed>
               </rdf:li>
            </rdf:Seq>
         </xmpMM:History>
      </rdf:Description>
      <rdf:Description rdf:about=""
            xmlns:illustrator="http://ns.adobe.com/illustrator/1.0/">
         <illustrator:StartupProfile>Print</illustrator:StartupProfile>
      </rdf:Description>
      <rdf:Description rdf:about=""
            xmlns:xmpTPg="http://ns.adobe.com/xap/1.0/t/pg/"
            xmlns:stDim="http://ns.adobe.com/xap/1.0/sType/Dimensions#"
            xmlns:xmpG="http://ns.adobe.com/xap/1.0/g/">
         <xmpTPg:HasVisibleOverprint>False</xmpTPg:HasVisibleOverprint>
         <xmpTPg:HasVisibleTransparency>False</xmpTPg:HasVisibleTransparency>
         <xmpTPg:NPages>1</xmpTPg:NPages>
         <xmpTPg:MaxPageSize rdf:parseType="Resource">
            <stDim:w>21.000131</stDim:w>
            <stDim:h>29.700013</stDim:h>
            <stDim:unit>Centimeters</stDim:unit>
         </xmpTPg:MaxPageSize>
         <xmpTPg:PlateNames>
            <rdf:Seq>
               <rdf:li>Cyan</rdf:li>
               <rdf:li>Magenta</rdf:li>
               <rdf:li>Yellow</rdf:li>
               <rdf:li>Black</rdf:li>
            </rdf:Seq>
         </xmpTPg:PlateNames>
         <xmpTPg:SwatchGroups>
            <rdf:Seq>
               <rdf:li rdf:parseType="Resource">
                  <xmpG:groupName>Default Swatch Group</xmpG:groupName>
                  <xmpG:groupType>0</xmpG:groupType>
               </rdf:li>
            </rdf:Seq>
         </xmpTPg:SwatchGroups>
      </rdf:Description>
      <rdf:Description rdf:about=""
            xmlns:pdf="http://ns.adobe.com/pdf/1.3/">
         <pdf:Producer>Adobe PDF library 10.01</pdf:Producer>
      </rdf:Description>
   </rdf:RDF>
</x:xmpmeta>
                                                                                                    
                                                                                                    
                                                                                                    
                                                                                                    
                                                                                                    
                                                                                                    
                                                                                                    
                                                                                                    
                                                                                                    
                                                                                                    
                                                                                                    
                                                                                                    
                                                                                                    
                                                                                                    
                                                                                                    
                                                                                                    
                                                                                                    
                                                                                                    
                                                                                                    
                                                                                                    
                           
<?xpacket end="w"?>
	</metadata>
<g>
	<path fill="#01BCE7" d="M0.989-152.014c0,0-16.541,0-25.473,7.608c-8.932,7.609-8.601,12.572-10.586,16.541
		c-1.985,3.97-5.956,17.533-9.263,19.519c-3.308,1.984-13.563,7.278-13.563,7.278s-10.255,7.278-12.571,11.909
		c-2.315,4.631-3.97,8.932-3.639,10.586c0.331,1.654,0.331,10.256,0.331,10.256s1.985,3.97,2.978-0.993
		c0.992-4.962,2.315-8.601,2.315-8.601s1.986-1.985,2.978-0.992c0.993,0.992,0.332,2.977,0.332,4.962
		c0,1.985-0.993,14.887,1.654,20.18s6.286,9.924,6.286,9.924l24.15-31.427c0,0,1.655-8.933,4.963-9.594
		c3.308-0.662,11.578-2.978,14.225-4.301c2.646-1.323,4.963-3.639,5.955-5.954c0.993-2.316-0.331-5.624-0.331-5.624l-2.647-6.616
		l-5.624-4.632l-2.646-5.955l-0.992-3.308c0,0-2.646,1.654-3.97,0.993c-1.323-0.662-2.316-3.97-2.316-3.97s-0.331-3.969,1.654-3.969
		s3.97,2.316,3.97,2.316s0.331-7.278,3.639-10.256c3.308-2.977,6.616-6.616,6.616-6.616l7.939-2.646l1.323-3.308l2.977,0.331
		l1.324-2.647L0.989-152.014z"/>
	<path fill="#01BCE7" d="M-50.949-37.551l20.841-27.789l8.602,18.857c0,0,0.992,5.293-0.993,7.278l-7.609,10.256
		C-30.108-28.95-45.987-32.589-50.949-37.551"/>
	<path fill="#01BCE7" d="M-1.038-151.684c0,0,16.541,0,25.472,7.609c8.933,7.608,8.602,12.571,10.587,16.541
		c1.985,3.969,5.954,17.533,9.263,19.518s13.563,7.278,13.563,7.278s10.255,7.279,12.571,11.91c2.316,4.631,3.97,8.932,3.639,10.586
		c-0.33,1.654-0.33,10.255-0.33,10.255s-1.985,3.97-2.979-0.992c-0.991-4.962-2.314-8.602-2.314-8.602s-1.985-1.985-2.978-0.992
		c-0.993,0.992-0.331,2.977-0.331,4.962s0.992,14.887-1.654,20.18s-6.285,9.925-6.285,9.925l-24.15-31.428
		c0,0-1.654-8.932-4.962-9.594s-11.579-2.977-14.226-4.301c-2.646-1.323-4.962-3.639-5.955-5.955
		c-0.992-2.315,0.332-5.623,0.332-5.623l2.646-6.617l5.623-4.631l2.646-5.955l0.993-3.309c0,0,2.646,1.655,3.97,0.993
		c1.322-0.662,2.314-3.97,2.314-3.97s0.332-3.97-1.653-3.97s-3.97,2.316-3.97,2.316s-0.331-7.278-3.639-10.255
		c-3.309-2.978-6.616-6.616-6.616-6.616l-7.94-2.646l-1.322-3.308l-2.978,0.331l-1.323-2.646L-1.038-151.684z"/>
	<path fill="#01BCE7" d="M51.561-37.552L30.72-65.34l-8.602,18.856c0,0-0.992,5.293,0.992,7.278L30.72-28.95
		C30.721-28.95,46.6-32.589,51.561-37.552"/>
	<path fill="#C07CB5" d="M-0.298-148.963l-2.024,1.104l-0.329,2.461c0,0-7.214,0.667-11.261,4.898
		c-4.047,4.231-6.807,13.246-6.807,13.246s-2.857-1.146-4.096-0.941c-1.239,0.205-2.069,2.215-1.654,3.969
		c0.415,1.755,3.175,4.515,3.175,4.515l2.392-2.024c0,0,2.208,7.175,5.887,10.486c3.679,3.312,6.071,5.704,6.623,6.623
		c0.552,0.92,0.552,6.071,0.552,6.071l-1.104,4.783l-4.953,4.612l-2.958,1.459l-7.727,1.656c0,0-4.416,0.736-5.519,3.128
		c-1.104,2.392-3.68,6.071-3.68,6.071l-0.919,2.576l-22.629,29.068c0,0-1.656,3.495-2.024,5.519s-1.104,4.967-1.104,4.967
		s-7.726,5.887-9.75,9.567c-2.023,3.68-6.254,13.246-6.254,13.246l-2.024,4.048l-4.967,3.312l-5.704,1.472L-100.01,4.47
		c0,0,1.104,1.84,2.76,1.287c1.656-0.552,5.335-2.023,5.335-2.023l-3.679,12.511l-2.024,3.128c0,0,0.736,1.104,1.656,0.735
		c0.92-0.367,11.958-10.302,11.958-10.302s4.968-5.335,5.335-6.623c0.368-1.288,0.919-4.784,0.919-4.784l12.695-11.406
		c0,0,5.519-6.807,6.439-8.463c0.919-1.656,1.84-5.151,1.84-5.151l2.023-7.175l24.646-31.544l8.602,18.857
		c0,0,1.156,2.752-1.42,6.248c-2.576,3.495-9.014,14.533-10.486,23.181c-1.472,8.646,0,14.166,0,14.166l8.83,42.313
		c0,0-1.84,10.302-2.023,13.981s0.552,9.567,0.92,12.879c0.367,3.312,11.038,56.663,11.038,56.663l-0.184,11.038
		c0,0-1.471,11.958-0.552,13.982c0.92,2.023,3.312,4.782,4.783,3.863c1.471-0.92,4.047-2.392,4.231-4.415s-0.368-3.68-0.368-3.68
		s-4.047-18.397-3.863-20.053c0.184-1.655,3.127-55.743,3.127-55.743s0.552-10.118,0.368-11.59
		c-0.184-1.473-4.231-14.35-4.231-14.35l6.991-34.219c0,0,2.392-8.647,3.864-8.647c1.472,0,3.864,3.68,3.864,3.68L5.59,5.759
		l20.605,31.092c0,0,2.207,10.303,7.359,17.294c5.15,6.99,34.955,48.937,34.955,48.937l7.542,21.893c0,0,2.208,1.288,4.599,1.84
		c2.393,0.552,3.312-0.552,3.312-0.552l1.656-4.968l-9.567-13.43l-5.335-6.439L50.295,45.13c0,0-4.415-8.279-5.15-9.198
		c-0.736-0.92-6.991-8.463-6.991-8.463s-3.128-40.658-4.231-44.705c-1.104-4.048-4.783-13.062-4.783-13.062
		s-2.943-6.255-4.047-6.439c-1.104-0.184-3.496-4.047-3.496-4.047s0.312-4.219,0.525-5.697c0.211-1.478,7.938-19.139,7.938-19.139
		l21.156,28.883l3.312,3.68c0,0,2.391,7.543,3.863,9.935c1.471,2.392,5.335,8.646,6.07,9.383
		c0.737,0.735,12.143,11.774,12.143,11.774s3.863,8.83,6.071,10.854c2.208,2.023,11.958,11.222,11.958,11.222s0.553,0.92,1.473,0
		s0.552-1.84,0.552-1.84L92.426,3.737l4.783,1.104l2.575-0.184l-7.911-6.072l-5.519-2.392L82.123-4.91c0,0-3.312-1.84-4.6-4.231
		c-1.287-2.391-2.207-6.439-2.207-6.439s-6.071-11.406-8.095-13.614c-2.024-2.208-6.991-6.255-6.991-6.255s-0.735-5.703-2.023-7.359
		C56.92-44.465,56-46.672,56-46.672l-21.709-28.7c0,0-1.84-5.52-3.128-6.623c-1.288-1.104-4.415-3.127-4.415-3.127l-11.59-3.128
		l-5.152-4.048l-2.76-4.047l0.553-5.335l3.074-5.342c0,0,4.652-5.329,6.859-8.457c2.208-3.127,2.761-8.463,2.761-8.463
		s1.104,4.967,2.575,4.231c1.472-0.736,2.207-1.84,2.76-3.679c0.552-1.839,0.367-4.047-0.184-4.599
		c-0.553-0.552-2.576-1.288-2.76-0.736s-2.392,2.392-2.392,2.392s-0.642-16.125-17.891-18.733
		C2.601-145.067,1.91-148.963-0.298-148.963"/>
	<path fill="#7A4C74" d="M-63.6-31.746l6.823,5.124c0,0-5.745,12.348-10.059,15.152c-4.314,2.804-10.915,9.868-10.915,9.868
		l-1.812,6.526l-6.471,7.334l-9.93,7.85l-1.656-0.736l2.024-3.128l3.679-12.51l-7.059,1.837l0.431-1.726l8.197-6.04l4.961-1.725
		l6.255-3.236l1.941-3.667l6.256-13.158L-63.6-31.746z"/>
	<path fill="#7A4C74" d="M63.154-31.746l-6.823,5.124c0,0,5.745,12.348,10.059,15.152c4.314,2.804,10.914,9.868,10.914,9.868
		l1.812,6.526l6.471,7.334l9.93,7.85l1.656-0.736l-2.023-3.128l-3.68-12.51l7.061,1.837l-0.432-1.726l-8.197-6.04L84.94-3.92
		l-6.256-3.236l-1.941-3.667L70.487-23.98L63.154-31.746z"/>
	<path fill="#7A4C74" d="M28.434-30.236H1.758h-3.739h-26.676c0,0-6.255,8.197-5.608,17.688L-3.42,1.473
		c0,0,1.777-1.872,2.938-2.339c0.125-0.05,0.249-0.079,0.37-0.097C0.01-0.945,0.133-0.916,0.258-0.866
		c1.16,0.467,2.938,2.339,2.938,2.339l30.846-14.021C34.689-22.039,28.434-30.236,28.434-30.236"/>
	<path fill="#7A4C74" d="M-26.284,62.516l8.628-12.295l10.138,12.727l-1.079,20.06l-3.02,40.121l4.53,18.767l0.718,5.521
		c0,0-2.784,4.214-4.231,4.416c-1.448,0.201-2.526-0.662-2.526-0.662l-2.257-3.201c0,0-0.547-10.388-0.115-12.976
		c0.431-2.589,1.294-10.785,1.294-10.785L-26.284,62.516z"/>
	<path fill="#7A4C74" d="M49.729,43.331l-13.746-6.055l-2.088,16.137l11.307,16.606l23.35,32.766l5.838,18.401l2.242,5.095
		c0,0,4.564,2.164,5.906,1.588s1.818-1.873,1.818-1.873l0.274-3.908c0,0-4.907-9.171-6.616-11.162s-6.689-8.558-6.689-8.558
		L49.729,43.331z"/>
	<path fill="#7A4C74" d="M-22.608-74.994c0,1.489-1.207,2.696-2.696,2.696c-1.49,0-2.697-1.207-2.697-2.696s1.207-2.697,2.697-2.697
		C-23.815-77.69-22.608-76.483-22.608-74.994"/>
	<path fill="#7A4C74" d="M-14.088-74.994c0,1.489-1.207,2.696-2.696,2.696s-2.697-1.207-2.697-2.696s1.208-2.697,2.697-2.697
		S-14.088-76.483-14.088-74.994"/>
	<path fill="#7A4C74" d="M-5.568-74.994c0,1.489-1.207,2.696-2.696,2.696c-1.49,0-2.697-1.207-2.697-2.696s1.207-2.697,2.697-2.697
		C-6.775-77.69-5.568-76.483-5.568-74.994"/>
	<path fill="#7A4C74" d="M2.952-74.994c0,1.489-1.207,2.696-2.696,2.696s-2.697-1.207-2.697-2.696s1.208-2.697,2.697-2.697
		S2.952-76.483,2.952-74.994"/>
	<path fill="#7A4C74" d="M11.473-74.994c0,1.489-1.207,2.696-2.697,2.696c-1.488,0-2.695-1.207-2.695-2.696s1.207-2.697,2.695-2.697
		C10.266-77.69,11.473-76.483,11.473-74.994"/>
	<path fill="#7A4C74" d="M19.992-74.994c0,1.489-1.207,2.696-2.696,2.696S14.6-73.504,14.6-74.994s1.207-2.697,2.696-2.697
		S19.992-76.483,19.992-74.994"/>
	<path fill="#7A4C74" d="M28.514-74.994c0,1.489-1.207,2.696-2.697,2.696c-1.489,0-2.696-1.207-2.696-2.696s1.207-2.697,2.696-2.697
		C27.307-77.69,28.514-76.483,28.514-74.994"/>
	<path fill="#7A4C74" d="M-14.088-60.434c0,1.489-1.208,2.696-2.696,2.696c-1.49,0-2.697-1.207-2.697-2.696s1.207-2.696,2.697-2.696
		C-15.295-63.13-14.088-61.923-14.088-60.434"/>
	<path fill="#7A4C74" d="M-5.568-60.434c0,1.489-1.207,2.696-2.696,2.696c-1.49,0-2.697-1.207-2.697-2.696s1.207-2.696,2.697-2.696
		C-6.775-63.13-5.568-61.923-5.568-60.434"/>
	<path fill="#7A4C74" d="M2.953-60.434c0,1.489-1.208,2.696-2.697,2.696s-2.696-1.207-2.696-2.696s1.207-2.696,2.696-2.696
		S2.953-61.923,2.953-60.434"/>
	<path fill="#7A4C74" d="M11.473-60.434c0,1.489-1.207,2.696-2.697,2.696c-1.488,0-2.695-1.207-2.695-2.696s1.207-2.696,2.695-2.696
		C10.266-63.13,11.473-61.923,11.473-60.434"/>
	<path fill="#7A4C74" d="M19.992-60.434c0,1.489-1.207,2.696-2.696,2.696S14.6-58.945,14.6-60.434s1.207-2.696,2.696-2.696
		S19.992-61.923,19.992-60.434"/>
	<path fill="#7A4C74" d="M-9.828-52.885c0,1.49-1.207,2.697-2.697,2.697c-1.489,0-2.696-1.207-2.696-2.697
		c0-1.489,1.208-2.696,2.696-2.696C-11.035-55.581-9.828-54.374-9.828-52.885"/>
	<path fill="#7A4C74" d="M-1.307-52.885c0,1.49-1.207,2.697-2.697,2.697c-1.489,0-2.696-1.207-2.696-2.697
		c0-1.489,1.207-2.696,2.696-2.696C-2.514-55.582-1.307-54.374-1.307-52.885"/>
	<path fill="#7A4C74" d="M7.212-52.885c0,1.49-1.207,2.697-2.696,2.697s-2.697-1.207-2.697-2.697c0-1.489,1.208-2.696,2.697-2.696
		C6.005-55.581,7.212-54.374,7.212-52.885"/>
	<path fill="#7A4C74" d="M15.733-52.885c0,1.49-1.207,2.697-2.696,2.697s-2.696-1.207-2.696-2.697c0-1.489,1.207-2.696,2.696-2.696
		S15.733-54.374,15.733-52.885"/>
	<path fill="#7A4C74" d="M-5.568-45.982c0,1.49-1.207,2.697-2.696,2.697c-1.49,0-2.697-1.207-2.697-2.697
		c0-1.489,1.207-2.697,2.697-2.697C-6.775-48.679-5.568-47.471-5.568-45.982"/>
	<path fill="#7A4C74" d="M2.953-45.982c0,1.49-1.208,2.697-2.697,2.697s-2.696-1.207-2.696-2.697c0-1.489,1.207-2.697,2.696-2.697
		C1.745-48.678,2.953-47.471,2.953-45.982"/>
	<path fill="#7A4C74" d="M11.473-45.982c0,1.49-1.207,2.697-2.697,2.697c-1.488,0-2.695-1.207-2.695-2.697
		c0-1.489,1.207-2.697,2.695-2.697C10.266-48.678,11.473-47.471,11.473-45.982"/>
	<path fill="#7A4C74" d="M-1.307-38.433c0,1.49-1.208,2.697-2.697,2.697S-6.7-36.943-6.7-38.433c0-1.489,1.207-2.696,2.696-2.696
		S-1.307-39.921-1.307-38.433"/>
	<path fill="#7A4C74" d="M7.212-38.433c0,1.49-1.207,2.697-2.696,2.697c-1.49,0-2.697-1.207-2.697-2.697
		c0-1.489,1.207-2.696,2.697-2.696C6.005-41.129,7.212-39.921,7.212-38.433"/>
	<path fill="#7A4C74" d="M-18.348-67.768c0,1.489-1.207,2.696-2.697,2.696c-1.489,0-2.696-1.207-2.696-2.696
		s1.207-2.696,2.696-2.696C-19.555-70.464-18.348-69.257-18.348-67.768"/>
	<path fill="#7A4C74" d="M-9.828-67.768c0,1.489-1.207,2.696-2.697,2.696c-1.489,0-2.696-1.207-2.696-2.696s1.208-2.696,2.696-2.696
		C-11.035-70.464-9.828-69.257-9.828-67.768"/>
	<path fill="#7A4C74" d="M-1.307-67.768c0,1.489-1.207,2.696-2.697,2.696c-1.489,0-2.696-1.207-2.696-2.696s1.207-2.696,2.696-2.696
		C-2.514-70.464-1.307-69.257-1.307-67.768"/>
	<path fill="#7A4C74" d="M7.212-67.768c0,1.489-1.207,2.696-2.696,2.696s-2.697-1.207-2.697-2.696s1.208-2.696,2.697-2.696
		S7.212-69.257,7.212-67.768"/>
	<path fill="#7A4C74" d="M15.733-67.768c0,1.489-1.207,2.696-2.696,2.696s-2.696-1.207-2.696-2.696s1.207-2.696,2.696-2.696
		S15.733-69.257,15.733-67.768"/>
	<path fill="#7A4C74" d="M24.252-67.768c0,1.489-1.207,2.696-2.695,2.696c-1.49,0-2.697-1.207-2.697-2.696s1.207-2.696,2.697-2.696
		C23.045-70.464,24.252-69.257,24.252-67.768"/>
	<path fill="#FFFFFF" d="M10.629-132.689c0,3.916-4.841,7.09-10.812,7.09c-5.971,0-10.812-3.174-10.812-7.09
		c0-3.916,5.372-2.127,11.343-2.127C6.321-134.816,10.629-136.605,10.629-132.689"/>
	
		<path fill="none" stroke="#231F20" stroke-width="1.7717" stroke-linecap="round" stroke-linejoin="round" stroke-miterlimit="10" d="
		M10.629-132.689c0,3.916-4.841,7.09-10.812,7.09c-5.971,0-10.812-3.174-10.812-7.09c0-3.916,5.372-2.127,11.343-2.127
		C6.321-134.816,10.629-136.605,10.629-132.689z"/>
	
		<path fill="none" stroke="#231F20" stroke-width="1.7717" stroke-linecap="round" stroke-linejoin="round" stroke-miterlimit="10" d="
		M-3.019-144.82c0-2.251,1.27-4.076,2.836-4.076s2.836,1.825,2.836,4.076"/>
	
		<ellipse fill="none" stroke="#231F20" stroke-width="1.7717" stroke-linecap="round" stroke-linejoin="round" stroke-miterlimit="10" cx="-0.183" cy="-125.081" rx="20.711" ry="20.007"/>
	
		<ellipse transform="matrix(-0.2576 -0.9663 0.9663 -0.2576 90.2365 -179.371)" fill="none" stroke="#231F20" stroke-width="1.7717" stroke-linecap="round" stroke-linejoin="round" stroke-miterlimit="10" cx="-23.79" cy="-124.351" rx="4.368" ry="2.817"/>
	
		<ellipse transform="matrix(-0.2577 0.9662 -0.9662 -0.2577 -90.5723 -179.1096)" fill="none" stroke="#231F20" stroke-width="1.7717" stroke-linecap="round" stroke-linejoin="round" stroke-miterlimit="10" cx="23.516" cy="-124.347" rx="4.368" ry="2.816"/>
	
		<path fill="none" stroke="#231F20" stroke-width="1.7717" stroke-linecap="round" stroke-linejoin="round" stroke-miterlimit="10" d="
		M-24.446,39.955c0,0-3.693,16.729-0.652,28.024c3.042,11.297,10.862,52.572,10.862,56.048c0,3.477-2.824,21.941-0.869,24.766
		c1.955,2.824,3.91,3.042,3.91,3.042"/>
	
		<path fill="none" stroke="#231F20" stroke-width="1.7717" stroke-linecap="round" stroke-linejoin="round" stroke-miterlimit="10" d="
		M-10.946,41.481c0,0,5.236,13.603,3.662,25.195c-1.575,11.593-4.063,53.528-3.62,56.976c0.444,3.448,5.602,21.402,4.022,24.452
		c-1.579,3.051-3.489,3.516-3.489,3.516"/>
	
		<path fill="none" stroke="#231F20" stroke-width="1.7717" stroke-linecap="round" stroke-linejoin="round" stroke-miterlimit="10" d="
		M38.177,27.982c0,0,9.989,9.146,13.286,20.371c3.301,11.224,18.162,50.518,19.975,53.482c1.813,2.966,13.855,17.245,13.662,20.675
		c-0.195,3.43-1.75,4.635-1.75,4.635"/>
	
		<path fill="none" stroke="#231F20" stroke-width="1.7717" stroke-linecap="round" stroke-linejoin="round" stroke-miterlimit="10" d="
		M26.332,37.166c0,0,1.863,10.301,9.255,19.369c7.392,9.067,31.393,43.546,32.812,46.719c1.421,3.172,6.387,21.18,9.325,22.959
		c2.938,1.779,4.812,1.179,4.812,1.179"/>
	
		<path fill="none" stroke="#231F20" stroke-width="1.7717" stroke-linecap="round" stroke-linejoin="round" stroke-miterlimit="10" d="
		M51.351-37.068c-5.103,3.588-11.989,6.374-21.255,7.653"/>
	
		<path fill="none" stroke="#231F20" stroke-width="1.7717" stroke-linecap="round" stroke-linejoin="round" stroke-miterlimit="10" d="
		M-58.184-43.515c-9.57-12.179-7.153-27.781-6.787-30.162c0.563-3.663,0.845-6.199-2.254-5.073
		c-3.1,1.127-2.818,10.708-4.227,11.835c-1.409,1.127-2.536-1.972-2.536-1.972s-1.205-11.479,2.536-18.316
		c8.171-14.935,22.369-15.759,28.46-22.824c7.044-8.172,5.354-39.168,40.295-41.423h5.394c34.941,2.255,33.25,33.251,40.295,41.423
		c6.091,7.066,20.289,7.89,28.461,22.824c3.74,6.838,2.535,18.316,2.535,18.316s-1.127,3.1-2.535,1.972
		c-1.409-1.127-1.127-10.708-4.227-11.835c-3.1-1.127-2.818,1.409-2.255,5.073c0.365,2.377,2.776,17.938-6.745,30.109"/>
	
		<path fill="none" stroke="#231F20" stroke-width="1.7717" stroke-linecap="round" stroke-linejoin="round" stroke-miterlimit="10" d="
		M-30.094-29.415C-39.959-30.776-46-33.074-51.189-37"/>
	
		<path fill="none" stroke="#231F20" stroke-width="1.7717" stroke-linecap="round" stroke-linejoin="round" stroke-miterlimit="10" d="
		M-13.802-110.011c0,0,8.255,4.562,6.517,18.9"/>
	
		<path fill="none" stroke="#231F20" stroke-width="1.7717" stroke-linecap="round" stroke-linejoin="round" stroke-miterlimit="10" d="
		M-91.791,3.605c0,0-2.389,1.087-4.779,1.738c-2.39,0.652-3.476-0.434-3.476-0.434l6.735-5.432c0,0,5.214-3.476,8.038-3.476
		c2.824,0,6.952-3.693,8.038-6.518c1.086-2.824,8.255-19.334,16.945-24.765c0,0,0.218-5.431,3.476-9.993
		c3.259-4.562,22.594-30.196,22.594-30.196s1.205-5.114,4.779-8.038c4.78-3.91,12.817-3.042,16.511-6.3
		c3.693-3.259,5.209-4.987,5.644-9.114"/>
	
		<path fill="none" stroke="#231F20" stroke-width="1.7717" stroke-linecap="round" stroke-linejoin="round" stroke-miterlimit="10" d="
		M-85.925-0.305c0,0-3.476,2.824-2.607,9.776l-7.386,8.255c0,0-1.737,1.087-1.086,2.173c0.652,1.086,1.521,0.435,2.607-0.435
		c1.086-0.868,8.473-8.255,8.473-8.255s6.734-4.779,8.472-12.384l13.686-13.251c0,0,5.865-7.821,6.951-11.731
		c1.086-3.91,2.39-6.951,2.39-6.951l24.331-32.152l8.473,18.684c0,0,1.086,1.955-0.869,6.517s-12.6,13.686-11.514,31.717
		c0.731,12.146,10.428,51.27,10.428,51.27"/>
	
		<line fill="none" stroke="#231F20" stroke-width="1.7717" stroke-linecap="round" stroke-linejoin="round" stroke-miterlimit="10" x1="-91.357" y1="1.868" x2="-95.919" y2="17.726"/>
	
		<path fill="none" stroke="#231F20" stroke-width="1.7717" stroke-linecap="round" stroke-linejoin="round" stroke-miterlimit="10" d="
		M-11.846,45.098L-4.529,6.31c0,0,0.928-6.739,3.752-7.609"/>
	
		<path fill="none" stroke="#231F20" stroke-width="1.7717" stroke-linecap="round" stroke-linejoin="round" stroke-miterlimit="10" d="
		M13.803-110.011c0,0-7.846,5.57-6.518,18.9"/>
	
		<path fill="none" stroke="#231F20" stroke-width="1.7717" stroke-linecap="round" stroke-linejoin="round" stroke-miterlimit="10" d="
		M91.791,3.605c0,0,2.391,1.087,4.78,1.738c2.39,0.652,3.476-0.434,3.476-0.434l-6.734-5.432c0,0-5.214-3.476-8.038-3.476
		c-2.823,0-6.951-3.693-8.037-6.518c-1.087-2.824-8.256-19.334-16.945-24.765c0,0-0.218-5.431-3.476-9.993
		c-3.259-4.562-22.594-30.196-22.594-30.196s-1.204-5.114-4.779-8.038c-4.779-3.91-12.817-3.042-16.51-6.3
		c-3.693-3.259-5.623-4.802-6.058-8.93"/>
	
		<path fill="none" stroke="#231F20" stroke-width="1.7717" stroke-linecap="round" stroke-linejoin="round" stroke-miterlimit="10" d="
		M22.053-47.764c0,0-2.396,4.786,0.75,8.625c3.146,3.839,7.387,5.855,11.355,23.477c2.674,11.87,4.019,43.644,4.019,43.644"/>
	
		<path fill="none" stroke="#231F20" stroke-width="1.7717" stroke-linecap="round" stroke-linejoin="round" stroke-miterlimit="10" d="
		M85.927-0.305c0,0,3.476,2.824,2.606,9.776l7.387,8.255c0,0,1.738,1.087,1.086,2.173s-1.521,0.435-2.607-0.435
		c-1.086-0.868-8.472-8.255-8.472-8.255S79.193,6.43,77.455-1.174L63.768-14.425c0,0-5.864-7.821-6.951-11.731
		c-1.086-3.91-2.389-6.951-2.389-6.951L30.097-65.26l-8.473,18.684"/>
	
		<line fill="none" stroke="#231F20" stroke-width="1.7717" stroke-linecap="round" stroke-linejoin="round" stroke-miterlimit="10" x1="91.358" y1="1.868" x2="95.92" y2="17.726"/>
	
		<path fill="none" stroke="#231F20" stroke-width="1.7717" stroke-linecap="round" stroke-linejoin="round" stroke-miterlimit="10" d="
		M26.332,37.166L5.391,5.809c0,0-3.225-7.364-6.168-7.108"/>
	
		<path fill="none" stroke="#231F20" stroke-width="1.7717" stroke-linecap="round" stroke-linejoin="round" stroke-miterlimit="10" d="
		M-2.015-58.906c-1.96,3.303-5.562,5.517-9.681,5.517c-3.941,0-7.408-2.026-9.417-5.094"/>
	
		<path fill="none" stroke="#231F20" stroke-width="1.7717" stroke-linecap="round" stroke-linejoin="round" stroke-miterlimit="10" d="
		M20.483-58.906c-1.959,3.303-5.562,5.517-9.68,5.517c-3.941,0-7.408-2.026-9.418-5.094"/>
	
		<path fill="none" stroke="#231F20" stroke-width="1.7717" stroke-linecap="round" stroke-linejoin="round" stroke-miterlimit="10" d="
		M31.803,37.732c0,0,2.624,0,4.499-3.75"/>
</g>
</svg>
