<?xml version="1.0" encoding="utf-8"?>
<!-- Generator: Adobe Illustrator 16.0.0, SVG Export Plug-In . SVG Version: 6.00 Build 0)  -->
<!DOCTYPE svg PUBLIC "-//W3C//DTD SVG 1.1//EN" "http://www.w3.org/Graphics/SVG/1.1/DTD/svg11.dtd" [
	<!ENTITY ns_extend "http://ns.adobe.com/Extensibility/1.0/">
	<!ENTITY ns_ai "http://ns.adobe.com/AdobeIllustrator/10.0/">
	<!ENTITY ns_graphs "http://ns.adobe.com/Graphs/1.0/">
	<!ENTITY ns_vars "http://ns.adobe.com/Variables/1.0/">
	<!ENTITY ns_imrep "http://ns.adobe.com/ImageReplacement/1.0/">
	<!ENTITY ns_sfw "http://ns.adobe.com/SaveForWeb/1.0/">
	<!ENTITY ns_custom "http://ns.adobe.com/GenericCustomNamespace/1.0/">
	<!ENTITY ns_adobe_xpath "http://ns.adobe.com/XPath/1.0/">
]>
<svg version="1.1" id="Layer_1" xmlns:x="&ns_extend;" xmlns:i="&ns_ai;" xmlns:graph="&ns_graphs;"
	 xmlns="http://www.w3.org/2000/svg" xmlns:xlink="http://www.w3.org/1999/xlink" x="0px" y="0px" width="595.279px"
	 height="841.89px" viewBox="0 0 595.279 841.89" enable-background="new 0 0 595.279 841.89" xml:space="preserve">
<metadata><?xpacket begin="﻿" id="W5M0MpCehiHzreSzNTczkc9d"?>
<x:xmpmeta xmlns:x="adobe:ns:meta/" x:xmptk="Adobe XMP Core 5.3-c011 66.145661, 2012/02/06-14:56:27        ">
   <rdf:RDF xmlns:rdf="http://www.w3.org/1999/02/22-rdf-syntax-ns#">
      <rdf:Description rdf:about=""
            xmlns:dc="http://purl.org/dc/elements/1.1/">
         <dc:format>image/svg+xml</dc:format>
         <dc:title>
            <rdf:Alt>
               <rdf:li xml:lang="x-default">Print</rdf:li>
            </rdf:Alt>
         </dc:title>
      </rdf:Description>
      <rdf:Description rdf:about=""
            xmlns:xmp="http://ns.adobe.com/xap/1.0/"
            xmlns:xmpGImg="http://ns.adobe.com/xap/1.0/g/img/">
         <xmp:MetadataDate>2018-09-05T11:37:38-03:00</xmp:MetadataDate>
         <xmp:ModifyDate>2018-09-05T11:37:38-03:00</xmp:ModifyDate>
         <xmp:CreateDate>2018-09-05T11:37:38-03:00</xmp:CreateDate>
         <xmp:CreatorTool>Adobe Illustrator CS6 (Macintosh)</xmp:CreatorTool>
         <xmp:Thumbnails>
            <rdf:Alt>
               <rdf:li rdf:parseType="Resource">
                  <xmpGImg:width>132</xmpGImg:width>
                  <xmpGImg:height>256</xmpGImg:height>
                  <xmpGImg:format>JPEG</xmpGImg:format>
                  <xmpGImg:image>/9j/4AAQSkZJRgABAgEASABIAAD/7QAsUGhvdG9zaG9wIDMuMAA4QklNA+0AAAAAABAASAAAAAEA&#xA;AQBIAAAAAQAB/+4ADkFkb2JlAGTAAAAAAf/bAIQABgQEBAUEBgUFBgkGBQYJCwgGBggLDAoKCwoK&#xA;DBAMDAwMDAwQDA4PEA8ODBMTFBQTExwbGxscHx8fHx8fHx8fHwEHBwcNDA0YEBAYGhURFRofHx8f&#xA;Hx8fHx8fHx8fHx8fHx8fHx8fHx8fHx8fHx8fHx8fHx8fHx8fHx8fHx8fHx8f/8AAEQgBAACEAwER&#xA;AAIRAQMRAf/EAaIAAAAHAQEBAQEAAAAAAAAAAAQFAwIGAQAHCAkKCwEAAgIDAQEBAQEAAAAAAAAA&#xA;AQACAwQFBgcICQoLEAACAQMDAgQCBgcDBAIGAnMBAgMRBAAFIRIxQVEGE2EicYEUMpGhBxWxQiPB&#xA;UtHhMxZi8CRygvElQzRTkqKyY3PCNUQnk6OzNhdUZHTD0uIIJoMJChgZhJRFRqS0VtNVKBry4/PE&#xA;1OT0ZXWFlaW1xdXl9WZ2hpamtsbW5vY3R1dnd4eXp7fH1+f3OEhYaHiImKi4yNjo+Ck5SVlpeYmZ&#xA;qbnJ2en5KjpKWmp6ipqqusra6voRAAICAQIDBQUEBQYECAMDbQEAAhEDBCESMUEFURNhIgZxgZEy&#xA;obHwFMHR4SNCFVJicvEzJDRDghaSUyWiY7LCB3PSNeJEgxdUkwgJChgZJjZFGidkdFU38qOzwygp&#xA;0+PzhJSktMTU5PRldYWVpbXF1eX1RlZmdoaWprbG1ub2R1dnd4eXp7fH1+f3OEhYaHiImKi4yNjo&#xA;+DlJWWl5iZmpucnZ6fkqOkpaanqKmqq6ytrq+v/aAAwDAQACEQMRAD8A9U4q7FXYq7FXYq7FWE/m&#xA;F+Z9j5Ve30qytm1jzVqAP6O0aA/ERv8AvZm6RxCnU9d/AkQyZIwiZSNAKwCTyR5k80/6X+YGuXF3&#xA;6vxDQdPka20+IHohCUeUj+Ymvueuc3qe25E1jFDvPNbbP5Jflj6aoujcCu6SLcXIcHx5erU098wh&#xA;2rqL+r7B+pFljfmz8k7sxLd6Bql3dNbfEmjahcytDIo/3XHKjRvHt0qfpGZ2DtqR2yfMfqSJK/kk&#xA;+cINIXW/Iuq3cUlrI9tqflDW5GuLcTw/3sMcj8WiO4oRSu1SNxmV/KcsU+HLRidxId3uW3sH5e/m&#xA;ZpPnCGe2MT6Z5hsDx1TRLg0mhb+ZenqRnswHzpm6hMSFg2CrMckrsVdirsVdirsVdirsVdirsVYR&#xA;+Z/5iHyrY29jpcAv/NWrsYdF04bgt+1NLQgiKMbk/qFSIZMkYRMpGgFYt5O8oHR1n1LU5zqXmfUy&#xA;JdW1WTdnc/7rj2HGJOiqAP1AcZrtdLPL+iOQQSyXMBDF/Pnn7TPKOnpLMputRuiU0/Toz+8lcf8A&#xA;EUFfib+OZmj0cs8qG0RzLGcxEGUjQDxzUdY86a9ObrV9ZubQMax6fp0jW8MQ7CqmrkeLE/POgx4M&#xA;OMVGIPmd3ldX7SS4qwgcPeevw6L7288wXFnY20euX9sdPRlhlinZXdi1RJORvIwFFFf2dsY4sYJP&#xA;DE8Xl93c40PaTODuIkfH9acaHrOpeZ5oWSZNN/NLy8nq6ZfqAseoQKDVHBopDgkMp6VqNuQFIJ0k&#xA;uKO+GXMfzS9fpNVDPAThyP2PoL8uPPlp5z8urqCxG01K2c22r6c9Q9tdR7OhB34nqp8PeozfRkCL&#xA;HJyGU4VdirsVdirsVdirsVdiqTecPNek+VPLt5ruqvxtbRKhF+3JIdkijHdnbYfjtirynyRourXt&#xA;/deePNC18x6wo9C3NStjZ9YraMHoabt38d+VeS7V1/iy4I/RH7SglmmadCU+afMum+WtDudY1BqQ&#xA;W6/CgI5SSHZI0r+0x/r0y/T4JZZiMeZS+eItbOu6xNr2r3kMurXm0NssisLaH9iGNa7UHXv471zq&#xA;xhGOAhEekfb5vHdu6jNkPCIyGKPWjue/3d3zTTIPMuxVJ9cvILV4byC9Sz1jTz9ZsZOQDhk340PU&#xA;PSlO+WQhxAgi4nm73sPJmx5QYxlLHI1Lbb3/AAeleTPO9tZeY9D8+2hEGj+aXTR/Nlou0cF+u0Nw&#xA;fCjHdj+wa9WyvQSOKcsEv4d4+57x9JZtkOxV2KuxV2KuxV2KuxV4ZqGo/wDKyvPZuQfU8keVZilk&#xA;v+677Ul2eYjo0cPRPv6MRml7X1vhx4I/VL7B+1SzjOUYtEgAkmgHU4VfOn5keZbzztq8raaVk0LR&#xA;Xpp8Tisd3cIw9SRh3QiqL7eFTnVdn6caeIMvrlz8h3Or1va0NPkjA9fq8h+Pses+Wpf+cdfPGgJb&#xA;XGk6Ro2olAl3p0iRWF5FLShCSr6LyCvRlJ96HbNyC7WMhIWDYeVeYdHtPKnm6Ty9aatFrOlzoZ9L&#xA;ukmjllRQTygn9MmjpTrQVH3DF1GIcw8n2/2ZGMfGxiv5w/ShdSvBZWE90RX0ULAeJ7D6TmNCNmnn&#xA;NLg8XLGH840nOrxflzoP5ORWkTafr/5g+aVid5ozFdz27zOGZQw5+j6SfuxQir/hstojyD6dixRh&#xA;ERiKiEXfeTY9IutY8jp8Vlruix3un0Gw1LTkAbj4GTgHbOchquMRzdYTo/1Zfq5MrfQn5aeYm8x+&#xA;QdC1mRuc93aR/WX8Z4x6cx/5GI2dKrJcVdirsVQR1vSF1ldEN3ENWeA3a2PIeqYA3Aycf5eW2Ko3&#xA;FXYq8u/ODzjfSPD5A8tS/wDOw62hF9cLv9R087SzPTozqeKD+PGuPqdRHDAyKVfQdE0/Q9HtdJ0+&#xA;P07S0jEcY7nuzNTqzNVmPjnD5ssskjKXMsEflSvOfzE1nVtcvG8heVpFGpXURfWb6p4WlqR9hitf&#xA;jlrxp1ofeo2mixRxjxsn0j6R3n9iQ8q0Nmht20y4g+qX+msbe8tDsUdTSvuG61zfT39QNiXJ8/7a&#xA;0s8WcmW4nuD+j4Ii70vTrs1ubaOVv52Ucv8AguuCMyORcHDq8uLaEpR9xSKH9H3GojT9Fh+rop43&#xA;uq29tJctChqDwESs5Y0IHQe/fL+GfDZ9Xk9T2f2dmzDj1MpGPSJPPzP6kbqsthoWqQ20d5eahot6&#xA;vH1dStpYJYpRswJlVQ6Gvbp+uEIZJRuUeGQ7urd2r2PGUOPCOGcf5u1/Lqnv5eeVbHW/P9uba1jj&#xA;07QSLy9lRAFa4/3RFUeDDlT2OYev1Bx4TZ9U9h7urPsOGY4zkyykeL6bJ5d/xelfmCBb+bfI2pDa&#xA;SPUpbMHvxvISjf8AEfHNRo98WWP9G/kXeBlX/OO5KflwtoP7qy1C/t4R4ILhm/W56Z2GM3EHyZF6&#xA;bk0OxV2KvmRG80an5q1X82NCDXt/YatNbWWmcqLc6TbJ9XeNAAfjcVIpX4t92zWZu0Y484xy+muf&#xA;mm3sWg/nZ+Wmr2IuW1y10ydR/pFjqUqWk8Tj7SMspXkQf5ajNkDa0kHmD87k1OSTRvy3tjrurN8E&#xA;mqOrJptpX9uSVgPUI6hV2Pv0yjUarHhFyP61QflXyzZeWYrm91O/F7r2pt6+ravcsqvK47LU/DGn&#xA;Zc5HWaueoldekcgxJVNX/MnyJpKM17rloGXrFFIJ5Kj/AIri5t+GV49Dmnyifu+9aY7L5r87+b/9&#xA;F8padJo2lybSeYtSTg3Duba3O7HwY7f6p3zKGnw4N8p4pfzY/pKaZT5Q8naV5X097az5zXNw3q39&#xA;/Mec9xMeryMfmaDt9+Yep1Ms0rPIch0CCXiv5y21yfzLnuNMdYbqHT4JZSAKOeTKQ/j8HHr2GdB2&#xA;VIfl6ly4i6rtbLijCMcguMjXmPMMa0fU7HVtUSy816gdC0kbzNBHI7T7/wB2JFDhB70zLyxlCN4h&#xA;xy+5xuzey9NGXHE8cul9Pg9ekl/KWC2s7zy/5ltfLt9pkZitL7T7mJJ/Tb4jHLE/IzqTuQ6k1+nN&#xA;PgzazHMkxlK+8finf7scu473zzeXUektdeaLu8jNpc+bNYiENlZ25arrZQKka+pXf4VrX2zMzaqc&#xA;almPDW4hHmff5Jeq+TPJ+l+U9Di0rTwWCkvcXDAB5pW+07U+4DsNs0Gq1Ms0+KX9jBj/AOY7pJ5l&#xA;8kWZNHbVGu616JaQl3O/YBt8ydCKx5T/AEa+ZSGXf848RMfywtL1gV/SV3e3gU9g9y6jb5JnYQjU&#xA;QO5kXpWTQ7FXYq8K/JER/wDKsNFZCTyFwzsepY3UvKv05xfav+MS+H3BB5sn1Dyz5b1KYT6jpNne&#xA;zjpLcW8Urj/ZOpOYkM+SIqMiPcVtHW1rbWsKwW0SQQp9mKNQij5KtBlcpEmyhJtf8i+UvMN3Dd6z&#xA;psd5cwL6cUjlwQgYtxPFlBFSeuX4dXlxCoSoFNqmleS/KOksH07R7O2lXcTJCnqD/noQW/HBk1WW&#xA;f1SJ+K2nWY6Et8w+YNM8v6Pc6tqcvpWlsvJv5mb9lEHdmOwGXYcMskhGPMq+fo72/wBY1XUPMWop&#xA;6V1qrqyW/X0oI14xJ8+PXxzqY4xjgIR5R+94ft3XjNkEY/TD7+rH/MEa2CyOFqjj90p3BY/s/fl+&#xA;P1FHZwOeQj16/re8/l/+Wmg6P5W06DUtLtbnVvT9a7nngiklWWX42QOwY0T7Ox7ZzWs1055CYyIj&#xA;03e55cmcIiRoqIoRFFFVRQADsAM15NquwK85/N6xjtbL/E3rub2ytLjTtLs1WvK51ICD1FNftKhb&#xA;an6t9r2ZIyl4dbEgk+Ud2Qez+StAXy95R0fRABy0+0hglK9GkVB6jf7J6nOvCp1hV2KuxV4d+X0Z&#xA;0XV/M/k2f4ZtI1GW4s1P7Vlen1oWHj1PLwrnLduYSMgn0kPtClm2aNi7FXYq7FVC9vbSxtJry7lW&#xA;C1t0Mk0zmiqqipJOSjEyNDclXz95n8z3XnrWVvZA0Xluxc/ouybb1nGxuJV9/wBkdh9Neo0umGnj&#xA;X8Z5n9DzXbfavADhxn1fxHu8vf3tZa8clWv6bdXy2a27mMw3CSPIp4soAPxqfFTlmOQF33O07K10&#xA;dNKUjz4SB79nof5efmXq8WrweWvNMwuWuzx0rVuIQu4/3TMBQcj+ye58a5qNd2fHhOTHtXMfpD2X&#xA;Z3aUNVGxtIcx+Oj1vNG7B2KsLt4B51/NjT9MiBl0Pyaw1HVJRvG2oHa1hruOUe7f8EM6jsXSmMTk&#xA;POXL3ftZB7fm9V2KuxV2KvLfzg8sapaXln+YXl6Fp9V0eMwatYJ1vNNJ5Oop1eI/Gv8AGgGY2r0w&#xA;zYzE/gqr6Drul69pVvqmmTCezuF5Iw6g91Yfssp2IziM2GWORjIUQxTDKldirsVeJ/m9rl1rXmf/&#xA;AApHI0ekaZHHcaoimnrTygPFG/8AkqlG+fyGdD2XgEMfin6pcvIOp7Z150+L0/XPYeXeUhVVVQqg&#xA;KqiiqNgAOwzOeAJJNlvFDsVQOr2a3lr6KyeldKfVtJAeLLLHurLTfb2ycDR8nO7P1ctPlGQchz9x&#xA;/Gz2z8tfOQ80+Worqaiapan6tqkHQrPGN2p/K4+Ifd2zmtdpfByUPpO49z6PGYkBIcih/NvmvVJt&#xA;Sj8n+T4xeebL5TyfrDYQnZri4ahC8a/Cp+47Bsns3s45jxS+gfayAelfl/5G03yZ5di0mzYzzsxn&#xA;1C+f+8ubmT+8lfr16AdhnXAUKCWSYVdirsVdirsVeQea/wAtdf8ALGrXPmj8vIlmgumMuteVGISK&#xA;c0+KW0P+65P8nv2/lzC1mhhnjvtLoVXeVfPWgeZEeO0la31GAlbvSrkeldQuuzK8bb7HuNs5LVaL&#xA;JhPqG3f0QQyLMRDsVeA+d7WTTvzO1mOUFU1SK3vLRz+0qRiKQfQ6n6M6jQy4tPGv4bBeZ9psJMIT&#xA;HIWD8eX3JXPqFtBd29rKSslzy9I0+ElaVFfHfMkRJF9zy+PTTnCUxyhV/FnPlXStGtNMGuayEcTy&#xA;mDToJv7kuAfjkoG+HkCNxQeHTNbqcs5S4IdNz3u17O02KGPxs1GzwwB5X3nnt08vPZPf0xfm3t11&#xA;bTLNLENN+kg8dI4o4yojMZq4Jbl8FK8u3jmL4UbPBKXFtX4+/udl+ayGMfFxw4N+PbYAVVc/hzvp&#xA;3vNPzN0mx0bWvL2rWTk6TfNI1uzfsCVQGQk/y1HX+Fc22gyyyRlGX1R5tf5EDHlGLeGWAnHv9Juv&#xA;t/Ql0epax5f1j63peojSbTWTFZaresnqrArOALkJUfEik7/xOXjBjzVGYvh3DZ7O66x4Mum8f0j9&#xA;PzfVfkH8v/L3k7S2g0sNcXV2RNf6rMfUuLqQ7l5JO43qANh8ySdkAAKD1LKMKuxV2KuxV2KuxV2K&#xA;sS85/lb5O83MLjUrQwarHT0NYs29C8jK7KRKv2uPYOCMBiCKKsLm8hfnFoBI0bWbLzRp6/Zt9VVr&#xA;e8C9lWeOquf8p/uzV5+x8M9x6T5fqXZBv5t8+2Hw6z+X+qoy/abTWi1BSAeo9Mr92a6fYM/4ZA+/&#xA;b9a08y/ODzxpmqjT4k0XVtL8z6bL68MOoWot3+rOp9QOvNn4NxG9OxzK0Ggy4JHiMeCQ+3p0cbV4&#xA;sc8ZhkIEZbfHox7UoE1jR0ntDSYBbi0furrvT+BzLgeCVF4PS5Dpc5jkHp3jIeR/FvSfJOoyeZvy&#xA;/sVsJIY7vTZnGoQzQJcFVYs7FI3SQk7/AAgbnNRqojFnJldSG29O+lpJeD4MSP3Uid4iVwNkSAo3&#xA;3bdbCayazLqdhZabBB6TTtLHaM9vFLwa34qvrRemyKG5HkUUcPlXKRiEJGRPLnuRz7jf382iWqOb&#xA;HDFGNWSI3GJ+nb1R4aF9aHp9zE/zctoryLyt5ZuHWW9W6hjuktwqfHdMq8I1RVUGhNPh8M2HZAuc&#xA;pj6Zcvg7HSyMc+PFzlDHLiqgBxcJ6AdzF7jSLzTrzUvKOurW/wBMY28p6CaE7xTJXejIQQc2GaPB&#xA;Kw6PtfSS0ucZce0SbHke57h/zjv57m1DSZvJuqy8tX0BQLSRj8U9gTSJx7xVCH24965mQlxC3r9H&#xA;qo58QyDr9hew5JynYq7FXYq7FXYq7FXYq7FXnn5yfmf/AIM0iG001VuPM2rco9LtzQiMAfFcSA1+&#xA;COuwP2j7VwSkALLVnzRxQM5fSHzna2cwmnvb64e+1W8PO9v5iXkkY+5/ZHYZrsmUyL572h2jPUzs&#xA;7RHId37Us0j/AHGarPpDbW8tbiwPah+2n0ZKfqjxfNyNb/hGGOcfVH0z/RL4rJNY1vylrhvdHYRr&#xA;qBqtSQqzD7VR3DdaHr9GJxQzQqfRzuz8gzYgTKUcmHqOZh+z5I7V/wA2vzOkspGl1aO1TjQrawRh&#xA;mJ2+2yll37qcox9nae9o37y7nB2iJzEIiUr6mh8dg+gvyt/JLSNDj07zJr5uNT84GITzS3khkS2n&#xA;lHJliTpyXlTkxJruKZtYwERQFO0x4oQvhAF8/wBqX/8AORPkSW706DztpMRfVNDUrqESDeewJq9f&#xA;eGpYe3L2wThxCmnW6SOoxHGevLyPR5Ho48x2txZ+e/LNu9w+i/v5SuyTWxWs8DeNUJ2G4+eYENTH&#xA;FPgkat5vsAZ8WWUDE8HI+Uh+Onk+sPLmv6b5h0Oy1vTJPVsb+JZoW7gHqrDsytVWHYjNk9cmOKux&#xA;V2KuxV2KuxV2KuxV8i+bddk8z/mHr+uSNzt7adtM0sVqFt7VipZf+Mj1f6cw9TPo8h7S6omUcQ5D&#xA;c+/p+PNC5ivLJV5isZZ7Rbm22vLJvWgI6mn2l/2QyzFKjR5F2XZmojCZhP8Au8g4ZfoPwVF06TzX&#xA;o4jsIXnmmT1IljUuySJ7KK7HY4DMYpXI02aaOXS6rhETIx2IAu4/2bsYgult7izm1SAkabfRfpS0&#xA;YUakMoEqEe+ZWOuLbkeT0WnwDDquE8iDX4+x98W1zb3VtFc28iy286LJDKhqrI45KykdQQa5kvQL&#xA;3RHRkdQyMCrKwqCDsQQcVeGaRZN5B88XPkmeo8v6uZL/AMqytUqlTyuLKp7oTyX267tnPdtaOx4s&#xA;fj+tSi/y6v8A/AvnufyZcNw8ueY3e98tufsQXQ3uLSp6BhRkHy7tmf2ZrPGx7/VHn+tXtObJXYq7&#xA;FXYq7FXYq7FXYq+IvKLFtAtpGNXcys7HqSZW3Oa7P9ZfPu3T/hc/83/chOcqdQ7FU8/J/WYdC81X&#xA;nl2YJHaazW606SgBE6D95DXwK/Eo7fTmF2riOTGMg5x2Pu73vuxdUM2Kz/eRoSPUj+H8e9L/AM8v&#xA;Ka6X5gi8xQJ/uO1mlvqCgfClyq0Vz/xkQfeCe+S7J1HHDwz9Udx7nJ7RwGePij9UNwzr/nGj8xG4&#xA;SeQdVmrPbK0+gyud5LfdpIPnF9pf8mvZc30JcQb9HqRmx8XXq9+yblMO/NTyM3m7yu9vZuINdsHW&#xA;90O86GK6i3Ucuyv9k9u/bIyiJAg8irzI0/MfyCGWth5l06Wo/Zks9VtD96gt9ynxGcl6tFqP6P3x&#xA;Xk9P/K3zx/i/yrFd3KehrVk7WWt2ZHForyH4ZPh7K/2l+dO2dbGQkLHIqy/JK7FXYq7FXYq7FXYq&#xA;+N7vSJPL3mjXvLUy+m+n3sr2qn9q1mb1IXHzVhXMHUx3t4r2j0xjmGT+GQ+0fsVMx3nHYqgdWtrm&#xA;SGO5smMeo2Mi3NjKOqyxnkKfOmSgRyP0nYuy7K1v5fMJH6Tsfd+x7JbSaX+ZX5c0kpGNSg4TACpt&#xA;7qM77Hf93KtR4j55zshLS5/6p+Y/sfRXzvC2t6PqavGzWnmLQLn4XHUSwt/wyvT5H5Z1cMg2kPpk&#xA;6An8pqP9rl937H2h+XPniw86+UrPXbWiSyL6d9bA1MNym0kZ79d1r1Ug5lvQWybFXi35h6efIvnq&#xA;Hznbjh5b8xOln5kjH2ILrpBeUHQN9lz8+pYZre09H42Pb6o8v1KhNQvj5A8+W/nCP4fLmumOw8zo&#xA;v2IpK0t7z/Yk0c+Fe7Zg9i6yx4UunL9Sh7mrKyhlIKkVBG4IOdAreKuxV2KuxV2KuxV5r+cH5Rr5&#xA;xih1fSJUsfNWnoVtrhx+7uIuvoT0341+y3ap8cjKIIotOo08M0DCYsF89S3N5p+ovo+vWkmk6zCa&#xA;SWk44h+3KJ/surdiDv2rmDkwmPueF7Q7Gy6fceqHf+v8UgvNMskWnRyqxVUuIWkKkj4Q3iPfBhFn&#xA;4NXZMBPKY1dwlXv4U4yp1ib/AJXa9/h7zlJo0x46V5hPqW1T8Md8g3A/4yrt86ZidpYPExcY+qH3&#xA;fse77C1vi4eA/VD7un6l358eVTZajbeb7VD6FxxtNXCjYMBSGY/R8BPsvjlfZGo4onEeY3H6Q5+v&#xA;03i4yB9Q3CV/k1+YP+B/OSreS8PLmuMsGocj8EE/+6rj2ArR/Y17DN9hnYpxOydXxR8OXMcvd+x9&#xA;fggio6Ze7lL/ADDoOm+YNEvdF1KP1bG/iaGdO9G6Mp7MpoynscVeKeVbaWWz1n8s/NY9e90hDbCV&#xA;hT61p0gpb3CE13VaCv7Jp+1XOV7TwHBlGWHIm/j+1SjfJ/5maj5C0qLy35406/lsdNZoLHzNbRG4&#xA;t3tFP7kz8CXRlT4ehO305vdNrseUCiOLuSzt/wA5/wAq001dRbzPY/V2FQgk5T/9I4Bm/wCEzNRS&#xA;r/ytr8uv8L/4p/TcP6D9X6v9a4ycvWpX0vR4etz4/Fx4Vpv0xWmXYq7FXYq7FXYq8t/5yHn8uxeS&#xA;o4dS0+zvtQ1C5Sx0l70mNLeWWpe4aZSrxpEilmIYDpXbFIeOax+SmpnyPNqflDzRb+cbaBCuo2MC&#xA;qxXiKn0GWSViyfaCGhI6A9Mr8MXfVwZdnYTkGQR4Zg8xt8+m/VjHlXVPr+kxljWeD91L4niNm+kZ&#xA;hZocMnie2dH4GcgfTLcfjyRWsWLXlkyRMY7mIiW1lU0KSpuhB7b5GEqO/Jo7O1h0+YT6dfc9j8r6&#xA;vpf5ieQnh1BR6lxE1nq9upAeKddmYCh4moDpttt4ZzuoxS0ua49Nx7vxs+kCQIsci8q8z/kh5w0u&#xA;GQaWya9ptDSIUhukUdPhJ4vT/JNT4ZuNP2rimfV6JfY6/J2dHi48Z4J/Y9I/JH8+vLqeSTp/nDVE&#xA;sr3RAsMNxOSXubY1ERVV5O7x8eLUB2oe5zeuyFo3zF/zln5BsPUj0azvNZmU/BJxFrbsP9eSso/5&#xA;FYpp4lr/AOcnm3zF5x1DWdEsfqF7qlolgLe29S4mWONuSsjgK3qdqqoHtmPn00MtcXQ2mmbeQ/PH&#xA;5paTP+jvNugaxqZuLcS6WkdkxuSefH4zRPh61Z9x8jmr1nY8Z0cdRPXuQQmcf5C6z5/8xza1r+mj&#xA;yXpaxRpBZwC3lubhuTF5JPTKiNt/21J6DNjo9PLFDhMuIq9G/wChefy+/wAEf4R43X1T619e+veq&#xA;v1r6zw9Pny4enTh8PHhT2rvmWtvTcUOxV2KuxV2KvnD/AJzHuZVtvKluppHI99Iw3+1GLdV/CQ4p&#xA;DyH8n/zFv/IXmqDU6u2i3bC21eAVKvF15gfzxcuS/SO5xSWf/m55TtPKXn231zSuP+GvNy+rG0e8&#xA;UdyaMeNNuL8g6/6xpsMozwuPudJ27o/GwcQ+qG/w6/r+CU5gPAPPb/zVqkF/qKaY8mnx3qtbX0Ub&#xA;GkyAkVkXpy9xuMzRgiQOLetx5Po/ZWA4cERKXEDRHlfQPf2/OLyhYeTbEzaktxrM2nRH6rbcpZBO&#xA;0IqrlKhGD9eTVzmR2ZlllNRqPEdz3W58iBudg8V/L78srrzYmvzyXJs7XQNOkv7hxHzLSBS0UG7L&#xA;x5hGPLelOmdcDa4swmLHK2Q/841+UfLnmjz7d2Wv2KX9pb6bLdRQSFwolWeBAxCleXwyMKHbC2F9&#xA;g6RoGhaNB9X0jT7bT4P992sSQqfmEArixR+KuxV2KuxV2KuxV2KuxV47/wA5G/lZ5m886fo0/l9Y&#xA;57vSXuA9nI6xGRLn0viR3ISqmHoSOuKQXnHkz8oYda/5x01PU4iZtYvppNUsUAPw/o1pIPRAAJZp&#xA;FEwHuy+GKbRnkJz+ZX5Cav5Sl/e675XpNpZ/bKqGktgCe5CyQ+y0xQWDeX9TGo6VDcE1lA4Tf669&#xA;fv65rcsOGVPmvaWk/L55Q6cx7j+KSXzDAsWvxSFfgvIGRvAshqf+FplkDcPcXZaGZlpCOuOYPwl+&#xA;1DpDbWsbMiLGqgliBvQb4kkplknkIsmRfQf5R+WTpX5C6/q06cb3zBZ397JXqIRA8cC/Lipcf62Z&#xA;oFB7LDjEIiI6B53/AM4i/wDkydS/7Y0//UVbYW4vrnFi7FXYq7FXYq7FXYq7FXYq7FXmv/OP/wC6&#xA;8kXenn7Wm6vqNo1etVnL7kbH7fbFJeQeUZIfyw/5yPv9HmdbTQ9UeSCNmPCJYLsCe1oW2+CQLHy+&#xA;eKWL+ZrCHyz+a/mTRLchtNlu+cLJvHG86fWEiqNgVVylOvw5j6iFi+5532i0fHiGQc4fd+z9aV+c&#xA;Y6WtpdjrbTryP+Q+zfwyjB1HeHQ9jSuU8f8APgfmNwgoNLutZ1Gw0Kz/AN69WuYrSI/y+owDMfZR&#xA;1yzDGy7TsrDx5gekd3vv/ORfnm08n+RrTyNorend6jbLalFO8OnRL6R/5GhfTHtyzLerDzv8kLbz&#xA;H+X8R/MXUtBuLvyxqFs9pJeWzoZbeAzIzXDW5+No+UI32238KqS+r9L1TT9V0631LTp0urG7QS29&#xA;xGaq6MKgjFiisVdirsVdirsVdirsVdirsVeaflJSy80/mLovRoNebUeG1QNRiWQH6fT8fuxSXmP/&#xA;ADmB5aC3WheZol/vUfTrpqd0Jmh+khpPuxUJn5b8haD5s/5xxhPl+xjttdSt8JE5NLJqVizIxZmL&#xA;NWZFYKK8V57AYCLYzgJAxPI7PJruVNY8rTSqPikhLFfCSP4iv/BLmBEcE3z/AAwOk1oif4ZfYf2F&#xA;kf5App48y3/nTV39PSPKOmtcSzGhpc3KlFAB6sYw4A/mpmZjjVvY9n6XwhLzkfkHmXnnzfqXnDzR&#xA;f+Yb+oe7k/dRV5LDENoolO32VH0mpyx2TNfyU/OPUvKmvQ6frV3LdeVL6lteW07GWO3DfCsyK3Li&#xA;FGzqOq9iQMVIe9eUiPy9/MJvJxf/AJ1HzP6l95VYmqW9yPiuLNWP7DA80+jqWJxQ9axQ7FXYq7FX&#xA;Yq7FXYq7FXYq800iumf85Aa/amqp5g0S01EHoGeykNrT3IU/dild/wA5D+XhrX5UaxReU+mhNQhP&#xA;h9Xb94f+RLPioYF/zh/5g9XRde8vu29rcR3sCnqVuE9OSnsphX/gsVLF/wAyfK48pfmRqFhGnHSN&#xA;eDanpo/ZEjH/AEmIfJ6kDstMxdTDq8t7SaS4xzDpsf0PM9Q80vY+Sm8kWUbRB9SmvNXnP+7zGFjt&#xA;oxTfggUsQf2qHMiJsW9JpsviY4z/AJ0QWcecfyT17QPyk0S/h0+W41a5uWutdjiRnlgSSKlujKoJ&#xA;CxDlzJ6O2SbrQnkH8p73zB+Ufm/WWt6XVvLBNo7HaRm09ZWu46ULUeObiB3cDwxW2c+SdQu/zD/I&#xA;+WxhlZvOHkaWO70mcby1t6yW1O55Rq8IHioOKHvPknzPbeafKel+YLcAJqECyOg6JKPhlT/YSKy/&#xA;RihO8VdirsVdirsVdirsVdirzP8AMGmlfmr+X+vfZiupbvRbtugP1qLlbLX/AIygnFL0PVNPg1LT&#xA;LvTrgVt72GS3mHWqSoUb8Dih8if84139xoH5wto11+7kvIbrTp0JoBLB+9+/lAQPniyKe/8AOUPn&#xA;W8PnrTdB9CIWukLFdxXHE+t6k9fUXlWnpsgX4adRWuRmLFONqsIyYpQ7wWK+VtN8t2P5qaJqfmOn&#xA;6CluQzsQPSS6C/uTMT/usyBWau3Wu1cp0+SxTpfZ/XCeLwj9UPtH7H2jmQ9C81/Iz91pvmvT+n6P&#xA;8z6pbhewUOjjj34/HikvJPIQ/wCVb/8AOR995b/udI1eR7W3TfgI7kC4s6V6lW4xV9zil6r+Ui/o&#xA;DzR5y8isONvp96NU0laUUWeoLz9NP8mJxT5nFBeoYodirsVdirsVdirsVdirzn8/rS4P5eSavary&#xA;vfLt5aavajpRraUBjXtSN2OKQ9AsruC9s4Ly3bnb3MaTQv4pIoZT9xxQ+OfOVPJ//OSUl2Phhj1i&#xA;3v3I2rHdlJ5QPolYYslb/nKfSL+y/M43txN61vqVnDLafCF9NY6xNFUfaoyc6/5WKh5Vca1qtxCY&#xA;J7qSSJqckY1Bp0yAxxHIOFi7OwY5ccYgSe6/847/AJ36jb6zH5V8038lzY35SLS7y5cu0EwARISz&#xA;GvpyABV8Gp4nJuaQ9c/LM/U/zE/MnRztw1C01FR4i/t+ZI+lN8UPM/8AnLjQJrXUPL3m6zZoZxys&#xA;ZbiMlGSSJvXt2Vgaht5N/bFQzr/nHuwGqaCfPupanPq/mLWY/ql1NOFX0I7SRkEKKm29A5PfbbrV&#xA;UvXMUOxV2KuxV2KuxV2KuxVAa/pEGs6FqOkT7Q6jbTWsh8FmjKE/RyxViH5FavNqH5Z6VDc7X2k+&#xA;ppV5GeqPZOYlU/8APMIcUl4N/wA5b6X9X8/6dqCrRL7TkDN4yQyyK3/CMmKQnf8AzkxbnW/IPkjz&#xA;kgqZoUSdwDv9dt0uErXpQxN9+KA808nflZe+a/JV5r2ixyX+p6Te+lf6QhAeW0kjRkeA0/vFbnVd&#xA;+Q6bijA+TDMJGJETUuhexflP/wA47+UNT8oQan5q0q9i1S5lmItp3mtXjhWQrFyjBVgSorvhZC63&#xA;5s4s0XSv+cgbqAVWDXfL0Uykn7U9lP6XHfdiIt64pV/+cg/Lw1v8qNaVV5T6cq6jCfD6s3KQ/wDI&#xA;nnioee/84f8AmD1NJ1/y+7b208V9Ap7iZfSkp8jEn34qX0Rih2KuxV2KuxV2KuxV2KuxV5h5EI0D&#xA;82fOvldvgt9V9LzHpyePr/urtv8AkcB92KWB/wDOYunctO8s6kB/czXVs7U6+qsbqCaf8VNioTjS&#xA;tCfzv/zi3aWMSGW9isXayUfaM2nzuqIvu4h4fTivVjX/ADhxcuJ/NVt1RlspBvsCpnU7e/L8MVL6&#xA;YxQ8z/Mr/cZ+Y/5deYB8MbX1xo1w/Zv0hDxhU/J1JGKXot/ZQX1jc2VwvK3uonhmXxSRSrD7jih8&#xA;gf8AOO15ceWvzp/QtyeL3K3elXFagCSKsg2/4yW/H6cWRfY2LF2KuxV2KuxV2KuxV2KuxV5f+bR/&#xA;w/5p8nefF+CCwvDpWsONh9SvxwDv/kxP8XzOKQkn/OWtqJfy1s5qfFb6pC1aV2aGZCK9t2GKhHf8&#xA;4tXXrflRBHWv1a9uYulKVYSf8zMVLPPK/kHyr5XvdVvNDsxaTazKJ76jMVLKWICKSQigyMeK7b/L&#xA;FDIcVed/n7Yzzflteahait7odxbara+zW0ylj9EbNikM80++gv7C2vrc8re7iSeE+KSKGX8Dih8c&#xA;/mUP8H/85ETako9OCLU7XVOXQMkxSab6CxdTiyfZ2LF2KuxV2KuxV2KuxV2KuxVJfOvlm280eU9U&#xA;0C4oE1C3aJHbokv2opP9hIqt9GKvBPzB803Gu/8AOOhg1Gq69omoQaVrULfbW5tWKcm8eagNXpWv&#xA;hill/wDzif8A+Svm/wC2ncf8m4sVL2bFDsVQWt6XBq+jX+lXH9xf28trL3+GZCh/BsVYZ+ROrTX3&#xA;5aaZbXRpf6MZdJvI/wCR7JzGi/8AIrhikvEP+cvdJ9Dzlo2qKtFvbAwsexe2lYk/8DMuKQ+k/Imq&#xA;nV/JWg6mxq95p9tNIf8ALaJS4+hq4sU8xV2KuxV2KuxV2KuxV2KuxV4B+ff5NeatWurjV/Jsf1iL&#xA;VnhbXdHRkj9Se3DLDdLzKqTxcqwBr33qaKQXo/5L+S73yf8Al5puj6goTUj6lxfIpDBZZnLcKgkE&#xA;ovFTQ0qMVLOMUOxV2KvMfIlNB/Nnzr5YPwQap6PmPTk8RP8Aurtqf8ZgBilhv/OYOmiTyx5f1Om9&#xA;tey2wbw+sRc6f9O+Khm3/OOmo/Xfyg0Pk3KS2+sW7+3p3EnAdT+wVxUvSsUOxV2KuxV2KuxV2Kux&#xA;V2KuxV2KuxV2KuxV5f8Amsx8v+cfJnnhTwtra7bR9Xbt9VvxRHc9likHL5nFIQX/ADlLZif8qJpS&#xA;K/VL22mHtUmL/mbioQX/ADiXdmb8tLuEne11SdFWtSFaGFwadviY4qXtWKHYq7FXYq7FXYq7FXYq&#xA;7FXYq7FXYq7FXYqkHn3ytD5q8natoEtAb+3ZIXbosy/HC5/1ZFU4q8h85eaJPMn/ADjBqVxegjV9&#xA;O+qafq0b09RLy1voIpOXgzijf7LFPVV/5xB/5QnWf+2mf+oePFS94xQ7FXYq7FXYq7FXYq7FXYq7&#xA;FXYq7FXYq7FXYq+bf+chfLuu+WbfzBf6Rbmfyt5v+rPrUS1Itr+2nSUTGn2VnC0J/m6n7IKkMw/5&#xA;xY8v3ml/lo13dRmNtXvZbuAMCCYAiQoaH+Zo2YeIIxUvYsUP/9k=</xmpGImg:image>
               </rdf:li>
            </rdf:Alt>
         </xmp:Thumbnails>
      </rdf:Description>
      <rdf:Description rdf:about=""
            xmlns:xmpMM="http://ns.adobe.com/xap/1.0/mm/"
            xmlns:stRef="http://ns.adobe.com/xap/1.0/sType/ResourceRef#"
            xmlns:stEvt="http://ns.adobe.com/xap/1.0/sType/ResourceEvent#">
         <xmpMM:InstanceID>xmp.iid:0080117407206811822A9DD448A483FF</xmpMM:InstanceID>
         <xmpMM:DocumentID>xmp.did:0080117407206811822A9DD448A483FF</xmpMM:DocumentID>
         <xmpMM:OriginalDocumentID>uuid:5D20892493BFDB11914A8590D31508C8</xmpMM:OriginalDocumentID>
         <xmpMM:RenditionClass>proof:pdf</xmpMM:RenditionClass>
         <xmpMM:DerivedFrom rdf:parseType="Resource">
            <stRef:instanceID>uuid:ba5dc92b-6d0a-484a-ab90-b9370a4a0965</stRef:instanceID>
            <stRef:documentID>xmp.did:0980117407206811822A897E387FE54C</stRef:documentID>
            <stRef:originalDocumentID>uuid:5D20892493BFDB11914A8590D31508C8</stRef:originalDocumentID>
            <stRef:renditionClass>proof:pdf</stRef:renditionClass>
         </xmpMM:DerivedFrom>
         <xmpMM:History>
            <rdf:Seq>
               <rdf:li rdf:parseType="Resource">
                  <stEvt:action>saved</stEvt:action>
                  <stEvt:instanceID>xmp.iid:0080117407206811822A9DD448A483FF</stEvt:instanceID>
                  <stEvt:when>2018-09-05T11:37:38-03:00</stEvt:when>
                  <stEvt:softwareAgent>Adobe Illustrator CS6 (Macintosh)</stEvt:softwareAgent>
                  <stEvt:changed>/</stEvt:changed>
               </rdf:li>
            </rdf:Seq>
         </xmpMM:History>
      </rdf:Description>
      <rdf:Description rdf:about=""
            xmlns:illustrator="http://ns.adobe.com/illustrator/1.0/">
         <illustrator:StartupProfile>Print</illustrator:StartupProfile>
      </rdf:Description>
      <rdf:Description rdf:about=""
            xmlns:xmpTPg="http://ns.adobe.com/xap/1.0/t/pg/"
            xmlns:stDim="http://ns.adobe.com/xap/1.0/sType/Dimensions#"
            xmlns:xmpG="http://ns.adobe.com/xap/1.0/g/">
         <xmpTPg:HasVisibleOverprint>False</xmpTPg:HasVisibleOverprint>
         <xmpTPg:HasVisibleTransparency>False</xmpTPg:HasVisibleTransparency>
         <xmpTPg:NPages>1</xmpTPg:NPages>
         <xmpTPg:MaxPageSize rdf:parseType="Resource">
            <stDim:w>21.000131</stDim:w>
            <stDim:h>29.700013</stDim:h>
            <stDim:unit>Centimeters</stDim:unit>
         </xmpTPg:MaxPageSize>
         <xmpTPg:PlateNames>
            <rdf:Seq>
               <rdf:li>Cyan</rdf:li>
               <rdf:li>Magenta</rdf:li>
               <rdf:li>Yellow</rdf:li>
               <rdf:li>Black</rdf:li>
            </rdf:Seq>
         </xmpTPg:PlateNames>
         <xmpTPg:SwatchGroups>
            <rdf:Seq>
               <rdf:li rdf:parseType="Resource">
                  <xmpG:groupName>Default Swatch Group</xmpG:groupName>
                  <xmpG:groupType>0</xmpG:groupType>
               </rdf:li>
            </rdf:Seq>
         </xmpTPg:SwatchGroups>
      </rdf:Description>
      <rdf:Description rdf:about=""
            xmlns:pdf="http://ns.adobe.com/pdf/1.3/">
         <pdf:Producer>Adobe PDF library 10.01</pdf:Producer>
      </rdf:Description>
   </rdf:RDF>
</x:xmpmeta>
                                                                                                    
                                                                                                    
                                                                                                    
                                                                                                    
                                                                                                    
                                                                                                    
                                                                                                    
                                                                                                    
                                                                                                    
                                                                                                    
                                                                                                    
                                                                                                    
                                                                                                    
                                                                                                    
                                                                                                    
                                                                                                    
                                                                                                    
                                                                                                    
                                                                                                    
                                                                                                    
                           
<?xpacket end="w"?>
	</metadata>
<g>
	<path fill="#231F20" d="M-14.788,12.417c-0.667,0.667,8.96,17.212,13.441,38.433c4.479,21.221,6.602,40.555,6.602,40.555
		l0.236,9.196l-1.415,3.301c0,0,1.649,2.358,2.829,0.708c1.179-1.65,1.887-7.545,1.887-7.545s-2.594-35.133-7.31-49.043
		c-1.726-5.092-3.537-14.147-3.537-14.147S-11.252,8.88-14.788,12.417"/>
	<path fill="#231F20" d="M35.906,39.533c-0.667,0.666,8.96,17.212,13.439,38.433c4.48,21.22,6.604,40.554,6.604,40.554l0.234,9.196
		l-1.413,3.302c0,0,1.649,2.358,2.828,0.707c1.179-1.65,1.886-7.544,1.886-7.544s-2.592-35.134-7.309-49.044
		c-1.727-5.092-3.537-14.147-3.537-14.147S39.443,35.995,35.906,39.533"/>
	<path fill="#D7E16E" d="M-63.964-92.192c0,0,2.538,8.074,8.997,8.998c6.46,0.922,11.306-3.23,14.536-7.614
		c3.23-4.383,19.379-26.531,19.379-26.531s9.228-10.382,13.382-12.228c4.152-1.846,6.921-3,6.921-3l9.92,1.384
		c0,0,4.845-1.846,10.151,1.153c5.306,3,13.843,9.921,17.996,18.227c4.153,8.305,7.382,24.225,0.923,38.759
		c-6.461,14.535-25.84,29.069-57.448,29.531S-75.269-64.276-63.964-92.192"/>
	<path fill="#259F48" d="M-6.286-90.347c0,0,0.46,7.383-0.693,9.229C-8.132-79.272-20.36-64.738-20.36-64.738
		s-4.614,5.537-2.307,11.536c2.307,5.999,3.105,8.678,3.105,8.678l-1.796,2.31l-6.672,5.646c0,0-5.441,8.682-5.902,15.142
		c-0.462,6.459,1.978,11.808,3.592,14.114c1.615,2.307,12.98,9.712,12.98,9.712l8.075,3.23l20.533,42.22l1.846,5.306
		c0,0,0,7.612,2.537,11.305c2.539,3.691,7.613,8.998,8.075,8.075c0.462-0.923,0.231-3.691,0.231-3.691s1.153-3.46,0.692-5.537
		c-0.461-2.078-1.385-4.153-1.385-4.153l-5.767-6.69l-0.923-9.229L28.09,12.09l-3.922,0.462l0.692-3.923l2.307-1.153L6.864-24.363
		c0,0-1.614-4.383-1.614-5.998c0-1.615,2.537-8.537,2.537-8.537l3.922-1.384c0,0,1.844-1.154,1.844-3.23
		c0-2.077-0.69-8.305-0.69-8.305L43.779-0.6l0.23,4.153l4.152-1.385l3.692,1.385l0.23,3l7.614-2.077l0.692-3.921l-9.69-3.692
		L12.632-67.045l-3.23-3.691l-4.845-2.077l4.383-9.921l5.075-0.461c0,0,8.075-2.538,11.305-8.075s5.768-12.459,5.768-12.459
		l0.692-6.921l-7.383-9.92c0,0-2.768-2.999-5.538-1.385l-1.384,0.693c0,0-2.537-3-5.767-1.154c-3.229,1.846-4.153,2.308-6.459,4.615
		c-2.309,2.308-17.074,20.994-16.382,20.994C-10.44-96.807-6.286-90.347-6.286-90.347"/>
	<path fill="#D7E16E" d="M-0.289-86.425c0,0,2.079,0.923,3.923-0.923c1.845-1.846,8.767-8.075,8.767-8.075s3.461-3.461,4.615-2.307
		c1.153,1.153,3.922,5.075,3.922,5.075l3,3C23.937-89.655,16.093-76.274-0.289-86.425"/>
	<polygon fill="#231F20" points="14.89,68.575 31.176,67.889 25.576,60.232 9.291,60.917 	"/>
	<path fill="#231F20" d="M14.89,69.317c-0.237,0-0.458-0.113-0.599-0.305l-5.601-7.658c-0.162-0.22-0.188-0.513-0.069-0.76
		c0.118-0.246,0.363-0.407,0.637-0.419l16.286-0.685c0.252-0.011,0.483,0.103,0.63,0.303l5.6,7.658
		c0.162,0.221,0.188,0.513,0.07,0.759c-0.119,0.247-0.364,0.408-0.638,0.419l-16.285,0.686C14.91,69.316,14.901,69.317,14.89,69.317
		 M10.708,61.6l4.546,6.218l14.503-0.61l-4.547-6.218L10.708,61.6z"/>
	<path fill="#FFFFFF" d="M10.555-92.192l10.382-0.461C20.937-92.654,17.477-83.656,10.555-92.192"/>
	<polygon fill="#046C2F" points="-6.286,-90.347 4.781,-71.994 8.941,-82.733 -0.289,-86.425 	"/>
	<polygon fill="#046C2F" points="-5.122,-36.391 15.629,2.986 24.587,6.522 24.859,8.628 27.167,7.475 6.196,-25.073 5.249,-30.361 
		7.786,-38.898 	"/>
	<polygon fill="#046C2F" points="10.677,16.19 14.92,14.775 15.156,16.897 23.645,14.539 24.167,12.551 28.089,12.089 
		16.335,44.484 	"/>
	<path fill="#231F20" d="M8.79,13.596l5.659-1.886l0.471,3.065l-5.659,1.179C9.261,15.954,7.139,15.246,8.79,13.596"/>
	<polygon fill="#231F20" points="24.859,8.628 23.408,12.417 52.175,5.344 51.853,3.553 48.161,2.168 	"/>
	<polygon fill="#231F20" points="61.37,-0.08 61.134,2.986 66.321,1.807 67.265,-0.316 65.379,-1.73 	"/>
	<polygon fill="#231F20" points="32.133,9.824 31.896,25.149 17.751,48.963 19.872,53.679 30.719,33.402 35.199,27.979 35.67,9.352 
			"/>
	<path fill="#D7E16E" d="M-7.341-22.422c0,0,2.433-4.056,7.029-3.785L15.629,2.986l8.959,3.537l-0.943,8.017l-8.489,2.358
		L14.45,11.71c0,0-3.407-1.42-5.57-4.394S-7.341-22.422-7.341-22.422"/>
	<path fill="#D7E16E" d="M25.102-31.345c0,0,0.54-3.784,5.677-3.784l19.92,31.991l9.69,3.691l-0.691,3.922l-7.615,2.077l-0.23-3
		l-3.691-1.384L47.27,3.26l-3.261,0.292l-0.255-2.455L43.779-0.6L25.102-31.345z"/>
	<path fill="#D7E16E" d="M1.581-38.972c-5.187,0-9.404-4.219-9.404-9.404c0-5.185,4.218-9.404,9.404-9.404
		c5.185,0,9.404,4.219,9.404,9.404C10.986-43.19,6.766-38.972,1.581-38.972 M1.581-55.462c-3.909,0-7.088,3.18-7.088,7.086
		c0,3.908,3.179,7.087,7.088,7.087c3.907,0,7.085-3.179,7.085-7.087C8.667-52.283,5.488-55.462,1.581-55.462"/>
	<path fill="#D7E16E" d="M1.581-39.667c-0.257,0-0.464-0.207-0.464-0.463v-16.491c0-0.256,0.208-0.463,0.464-0.463
		c0.256,0,0.462,0.208,0.462,0.463v16.491C2.044-39.874,1.837-39.667,1.581-39.667"/>
	<path fill="#D7E16E" d="M9.826-47.913H-6.666c-0.256,0-0.462-0.208-0.462-0.463c0-0.255,0.207-0.463,0.462-0.463H9.826
		c0.256,0,0.463,0.208,0.463,0.463C10.29-48.12,10.082-47.913,9.826-47.913"/>
	<path fill="#D7E16E" d="M7.41-42.082c-0.117,0-0.237-0.045-0.328-0.135L-4.578-53.879c-0.18-0.181-0.18-0.475,0-0.656
		c0.181-0.181,0.474-0.181,0.656,0l11.66,11.662c0.181,0.181,0.181,0.474,0,0.655C7.647-42.127,7.53-42.082,7.41-42.082"/>
	<path fill="#D7E16E" d="M-4.251-42.082c-0.118,0-0.236-0.045-0.327-0.135c-0.181-0.181-0.181-0.475,0-0.655L7.085-54.535
		c0.181-0.181,0.474-0.181,0.655,0s0.181,0.475,0,0.656L-3.922-42.217C-4.013-42.127-4.132-42.082-4.251-42.082"/>
	<path fill="#231F20" d="M-22.713-42.562c-2.122,0-5.094-0.147-8.585-0.725c-6.423-1.062-15.864-3.856-24.368-11.128
		c-10.912-9.332-12.72-19.171-12.315-25.781c0.439-7.167,3.438-12.06,3.566-12.264c0.196-0.316,0.568-0.477,0.932-0.403
		c0.364,0.072,0.646,0.362,0.707,0.729c0.042,0.25,1.121,6.184,6.825,7.863c5.257,1.546,11.861-2.233,17.664-10.109
		c0.866-1.176,2.043-2.969,3.535-5.241c7.381-11.243,21.119-32.171,33.638-33.134c14.971-1.151,18.974,6.873,19.138,7.214
		c0.21,0.445,0.021,0.978-0.423,1.189c-0.443,0.211-0.974,0.023-1.187-0.417c-0.146-0.297-3.716-7.259-17.389-6.207
		c-11.646,0.895-25.071,21.347-32.284,32.333c-1.505,2.294-2.695,4.104-3.589,5.32c-6.268,8.506-13.598,12.529-19.605,10.762
		c-4.43-1.303-6.499-4.727-7.416-7.034c-0.885,1.994-2.089,5.403-2.333,9.587c-0.523,8.996,3.412,17.15,11.699,24.236
		c15.68,13.41,34.869,11.303,35.062,11.279c0.485-0.058,0.934,0.292,0.991,0.782c0.059,0.489-0.291,0.933-0.781,0.991
		C-19.335-42.708-20.603-42.562-22.713-42.562"/>
	<path fill="#231F20" d="M-38.321-81.394c-0.434,0-0.705-0.011-0.781-0.014c-0.492-0.023-0.872-0.441-0.85-0.934
		c0.022-0.492,0.436-0.872,0.933-0.851c0.185,0.008,15.694,0.572,24.231-10.101c2.152-2.691,4.398-5.968,6.776-9.439
		c7.421-10.832,15.833-23.112,24.354-20.677c0.475,0.136,0.748,0.629,0.613,1.104c-0.135,0.474-0.629,0.749-1.103,0.614
		c-7.285-2.082-15.31,9.633-22.391,19.97c-2.397,3.498-4.662,6.802-6.855,9.544C-21.485-82.062-34.918-81.394-38.321-81.394"/>
	<path fill="#231F20" d="M20.52-52.597c-0.282,0-0.559-0.133-0.734-0.382c-0.282-0.404-0.181-0.961,0.222-1.243
		c13.095-9.126,15.905-17.566,15.932-17.649c0.011-0.034,0.024-0.07,0.04-0.102c2.929-6.401,4.499-12.826,4.669-19.1
		c0.147-5.482-0.768-10.869-2.72-16.012c-4.401-11.584-13.37-19.933-19.844-22.788c-3.646-1.609-8.546-0.315-8.597-0.302
		c-0.475,0.129-0.966-0.153-1.094-0.629c-0.129-0.475,0.153-0.966,0.629-1.094c0.226-0.061,5.566-1.469,9.783,0.392
		c6.8,3,16.208,11.724,20.791,23.788c4.357,11.471,3.675,24.072-1.973,36.442c-0.284,0.85-3.369,9.303-16.596,18.52
		C20.874-52.649,20.695-52.597,20.52-52.597"/>
	<path fill="#231F20" d="M11.562-82.249c-8.201,0-13.792-3.613-17.094-6.728c-3.744-3.532-5.384-7.122-5.452-7.274
		c-0.203-0.45-0.002-0.978,0.448-1.181c0.45-0.202,0.977-0.002,1.18,0.448c0.028,0.062,1.608,3.479,5.102,6.756
		c4.659,4.372,10.353,6.448,16.921,6.17c0.219-0.02,4.196-0.419,8.349-3.715c5.651-4.485,9.084-12.302,9.931-22.604
		c0.041-0.492,0.474-0.857,0.962-0.817c0.492,0.042,0.857,0.471,0.817,0.963c-0.622,7.578-2.983,17.881-10.695,23.932
		c-4.674,3.667-9.062,4.011-9.247,4.024C12.371-82.257,11.963-82.249,11.562-82.249"/>
	<path fill="#231F20" d="M36.161-79.091c-0.073,0-0.147-0.009-0.22-0.028c-0.478-0.122-0.767-0.608-0.645-1.085
		c5.455-21.399-6.292-34.062-10.714-38.83c-0.384-0.415-0.716-0.773-0.972-1.069c-0.968-1.116-1.89-1.717-2.669-1.739
		c-0.595-0.014-0.943,0.33-0.957,0.345c-0.328,0.368-0.886,0.395-1.256,0.067c-0.367-0.327-0.395-0.898-0.067-1.267
		c0.084-0.096,0.868-0.931,2.236-0.931h0.021c1.333,0.008,2.693,0.801,4.039,2.356c0.238,0.274,0.561,0.621,0.935,1.024
		c2.24,2.417,6.414,6.915,9.355,13.645c3.612,8.265,4.21,17.296,1.777,26.84C36.923-79.359,36.561-79.091,36.161-79.091"/>
	<path fill="#231F20" d="M13.054,12.187c-2.231,0-4.775-3.534-5.561-4.711C7.478,7.45,7.463,7.425,7.448,7.399
		C7.187,6.906-18.8-42.029-23.004-50.437c-2.352-4.703-1.531-8.596-0.429-11.033c1.095-2.418,2.658-3.892,2.957-4.161
		c0.595-0.66,8.795-9.782,11.705-13.81c2.813-3.895,1.723-11.159,1.712-11.232c-0.076-0.487,0.257-0.944,0.745-1.02
		c0.486-0.076,0.942,0.257,1.02,0.744c0.051,0.327,1.216,8.059-2.029,12.553c-3.061,4.238-11.502,13.602-11.86,13.999
		c-0.026,0.028-0.053,0.055-0.082,0.08c-0.246,0.214-6.016,5.336-2.142,13.082C-17.265-42.95,8.125,4.869,9.004,6.522
		c1.494,2.227,3.484,4.104,4.112,3.871c0.46-0.173,0.976,0.061,1.147,0.522c0.173,0.461-0.059,0.976-0.522,1.149
		C13.518,12.148,13.287,12.187,13.054,12.187"/>
	<path fill="#231F20" d="M15.365,18.115c-0.167,0.001-0.332-0.046-0.477-0.137c-0.226-0.142-0.375-0.379-0.409-0.644l-0.992-7.883
		c-0.061-0.489,0.285-0.935,0.774-0.997c0.49-0.061,0.936,0.285,0.998,0.774l0.856,6.803l6.737-2.246l0.714-6.749
		c-0.723-0.344-2.077-0.968-3.625-1.587c-2.381-0.954-4.944-2.347-5.053-2.405c-0.151-0.083-0.277-0.21-0.36-0.364l-28.79-54.041
		c-0.231-0.435-0.067-0.976,0.368-1.207c0.434-0.232,0.977-0.068,1.207,0.368l28.664,53.8c0.683,0.364,2.747,1.439,4.627,2.191
		C22.97,4.739,24.84,5.67,24.919,5.71c0.333,0.167,0.528,0.522,0.488,0.893l-0.84,7.944c-0.038,0.348-0.273,0.642-0.606,0.753
		l-8.314,2.771C15.555,18.1,15.459,18.115,15.365,18.115"/>
	<path fill="#231F20" d="M-4.79-35.647c-0.417,0-0.79-0.293-0.874-0.719c-0.097-0.483,0.217-0.954,0.701-1.049
		c0.074-0.015,7.409-1.479,13.947-2.964c4.285-0.974,3.602-4.462,3.573-4.609c-0.006-0.023-0.01-0.045-0.012-0.069l-1.652-12.743
		c-0.063-0.489,0.282-0.936,0.771-1c0.487-0.063,0.937,0.281,1,0.77l1.649,12.73c0.097,0.571,0.717,5.378-4.932,6.662
		c-6.562,1.491-13.92,2.959-13.994,2.974C-4.673-35.652-4.732-35.647-4.79-35.647"/>
	<path fill="#231F20" d="M-9.295,5.836c-0.085,0-0.17-0.013-0.256-0.038c-0.854-0.256-20.975-6.389-24.138-17.824
		c-3.333-12.049,1.794-20.664,4.152-23.809c1.531-2.041,4.159-4.5,6.271-6.476c1.203-1.125,2.683-2.51,3.009-2.991
		c0.048-0.323,0.271-0.607,0.6-0.717c0.468-0.156,0.974,0.097,1.129,0.564c0.284,0.851-0.373,1.503-3.519,4.447
		c-2.061,1.929-4.625,4.328-6.062,6.245c-2.2,2.934-6.981,10.976-3.859,22.262C-29.066-2.007-9.24,4.029-9.039,4.088
		C-8.567,4.229-8.3,4.727-8.44,5.199C-8.555,5.585-8.91,5.836-9.295,5.836"/>
	<path fill="#FFFFFF" d="M-3.575-107.11c0,0,1.193,10.729,15.588,7.188C12.013-99.921,8.46-111.121-3.575-107.11"/>
	<path fill="#231F20" d="M6.659-98.312H6.657c-5.214,0-7.965-2.357-9.353-4.332c-1.504-2.14-1.756-4.277-1.766-4.367
		c-0.047-0.419,0.205-0.812,0.604-0.946c1.819-0.606,3.566-0.914,5.196-0.914c8.671,0,11.497,8.592,11.524,8.679
		c0.075,0.235,0.049,0.491-0.072,0.706c-0.121,0.216-0.326,0.372-0.565,0.431C10.223-98.562,8.35-98.312,6.659-98.312
		 M-2.546-106.495c0.461,1.811,2.31,6.397,9.204,6.397h0.002c1.268,0,2.655-0.156,4.139-0.464c-0.901-1.991-3.6-6.523-9.459-6.523
		C0.122-107.084-1.181-106.886-2.546-106.495"/>
	<path fill="#FFFFFF" d="M31.45-107.283c0,0-0.864,10.665-8.819,7.125C22.632-100.157,24.799-111.294,31.45-107.283"/>
	<path fill="#231F20" d="M25.615-98.545c-1.031,0-2.158-0.268-3.346-0.796c-0.38-0.17-0.593-0.579-0.514-0.986
		c0.07-0.356,1.756-8.72,6.955-8.72c1.024,0,2.101,0.335,3.202,0.999c0.29,0.175,0.457,0.499,0.43,0.837
		c-0.008,0.085-0.181,2.124-1.033,4.191C30.1-100.092,28.132-98.545,25.615-98.545 M23.677-100.7c0.697,0.246,1.346,0.37,1.938,0.37
		c3.581,0,4.621-4.796,4.875-6.463c-0.632-0.312-1.228-0.469-1.779-0.469c-1.862,0-3.157,1.882-3.915,3.462
		C24.23-102.624,23.869-101.431,23.677-100.7"/>
	<path fill="#231F20" d="M0.091-85.691c-1.146,0-1.757-0.473-1.875-0.572l1.162-1.356c0,0-0.011-0.01-0.031-0.025
		c0.012,0.009,1.299,0.855,4.342-1.427c3.503-2.627,8.934-7.376,9.562-7.927c0.274-0.333,1.279-1.42,2.787-1.464
		c1.153-0.035,2.257,0.552,3.264,1.742c2.593,3.066,5.219,6.876,5.247,6.915c0.278,0.406,0.176,0.961-0.23,1.241
		c-0.405,0.279-0.961,0.177-1.242-0.229c-0.025-0.038-2.601-3.776-5.137-6.773c-0.638-0.754-1.253-1.131-1.849-1.11
		c-0.833,0.024-1.47,0.825-1.476,0.834c-0.036,0.048-0.078,0.094-0.124,0.134c-0.059,0.053-5.97,5.247-9.731,8.068
		C2.715-86.109,1.168-85.691,0.091-85.691"/>
	<path fill="#231F20" d="M9.949-92.004c-0.391,0-0.709-0.315-0.715-0.707c-0.004-0.394,0.312-0.717,0.707-0.721l11.265-0.123
		c0.004,0,0.007,0,0.009,0c0.391,0,0.709,0.315,0.714,0.706c0.004,0.395-0.312,0.718-0.707,0.722L9.958-92.003L9.949-92.004
		L9.949-92.004z"/>
	<path fill="#231F20" d="M15.55-87.792c-0.184,0-0.369-0.01-0.557-0.028c-3.167-0.323-5.653-3.424-5.894-4.151
		c-0.125-0.374,0.076-0.779,0.452-0.904c0.365-0.123,0.76,0.069,0.894,0.428c0.262,0.539,2.404,3.115,4.924,3.222
		c1.895,0.081,3.655-1.256,5.229-3.974c0.199-0.341,0.634-0.458,0.977-0.26c0.342,0.197,0.458,0.634,0.26,0.976
		C20.03-89.368,17.92-87.792,15.55-87.792"/>
	<path fill="#231F20" d="M4.698-68.822c-0.339,0-0.664-0.194-0.814-0.523c-1.284-2.825,0.455-5.98,0.729-6.447l3.283-7.269
		c0.203-0.449,0.731-0.649,1.181-0.446c0.451,0.203,0.649,0.731,0.447,1.182l-3.305,7.315c-0.016,0.034-0.034,0.068-0.053,0.1
		c-0.014,0.026-1.62,2.705-0.655,4.826c0.205,0.449,0.006,0.979-0.443,1.183C4.947-68.848,4.821-68.822,4.698-68.822"/>
	<path fill="#231F20" d="M52.4,7.786c-0.171,0-0.341-0.049-0.487-0.144c-0.213-0.139-0.356-0.36-0.395-0.61l-0.425-2.703
		l-3.657-1.367c-0.461-0.172-0.696-0.687-0.523-1.148C47.085,1.351,47.6,1.117,48.06,1.29l4.147,1.549
		c0.301,0.114,0.519,0.38,0.569,0.699l0.352,2.238l6.101-1.627l0.791-2.965l-9.593-3.271c-0.199-0.068-0.368-0.205-0.476-0.385
		c-1.437-2.391-35.204-58.6-38.012-63.749c-2.602-4.77-6.9-5.679-6.943-5.687c-0.484-0.097-0.797-0.567-0.701-1.051
		c0.096-0.483,0.566-0.797,1.051-0.7c0.208,0.042,5.163,1.089,8.16,6.583c2.69,4.932,35.164,59.005,37.807,63.403l10.074,3.435
		c0.445,0.152,0.697,0.621,0.576,1.076L60.82,5.107c-0.083,0.309-0.325,0.55-0.634,0.633l-7.558,2.016
		C52.553,7.775,52.476,7.786,52.4,7.786"/>
	<path fill="#231F20" d="M44.802,5.1c-0.241,0-0.482-0.097-0.659-0.289c-1.76-1.92-1.476-4.096-1.242-5.023L11.722-51.553
		c-0.256-0.421-0.122-0.97,0.299-1.227c0.421-0.256,0.971-0.122,1.228,0.3L44.633-0.799c0.146,0.239,0.17,0.533,0.067,0.792
		c-0.029,0.074-0.73,1.984,0.76,3.611c0.333,0.363,0.308,0.928-0.055,1.261C45.233,5.022,45.017,5.1,44.802,5.1"/>
	<path fill="#231F20" d="M9.669,16.903c-1.075,0-2.059-0.729-2.332-1.818c-0.323-1.288,0.462-2.595,1.748-2.918l5.173-1.201
		c0.48-0.111,0.958,0.188,1.07,0.668c0.111,0.48-0.187,0.959-0.667,1.072l-5.157,1.196c-0.315,0.08-0.517,0.416-0.434,0.748
		c0.083,0.331,0.421,0.532,0.751,0.449l4.77-1.182c0.478-0.118,0.962,0.173,1.082,0.652c0.118,0.479-0.173,0.963-0.652,1.081
		l-4.768,1.182C10.056,16.88,9.861,16.903,9.669,16.903"/>
	<path fill="#231F20" d="M23.993,13.596c-0.396,0-0.759-0.267-0.863-0.668c-0.124-0.478,0.163-0.965,0.64-1.089l28.088-7.288
		c0.475-0.124,0.964,0.162,1.088,0.641c0.123,0.476-0.164,0.963-0.641,1.087l-28.087,7.289
		C24.143,13.586,24.069,13.596,23.993,13.596"/>
	<path fill="#231F20" d="M60.406,4.233c-0.399,0-0.764-0.269-0.866-0.674c-0.12-0.477,0.168-0.963,0.646-1.084l5.589-1.416
		c0.333-0.084,0.535-0.42,0.453-0.751c-0.041-0.161-0.141-0.295-0.283-0.38c-0.142-0.085-0.309-0.11-0.469-0.07l-4.653,1.167
		c-0.476,0.12-0.962-0.17-1.083-0.648c-0.12-0.479,0.17-0.963,0.648-1.083l4.652-1.167c0.622-0.157,1.27-0.061,1.821,0.269
		s0.941,0.855,1.096,1.478c0.324,1.285-0.46,2.594-1.746,2.917l-5.588,1.415C60.552,4.224,60.479,4.233,60.406,4.233"/>
	<path fill="#231F20" d="M24.181,10.191c-0.399,0-0.763-0.27-0.865-0.676c-0.12-0.479,0.17-0.962,0.648-1.082L48.965,2.16
		c0.477-0.12,0.962,0.17,1.083,0.648c0.12,0.479-0.171,0.963-0.649,1.083l-24.999,6.273C24.326,10.183,24.254,10.191,24.181,10.191"
		/>
	<path fill="#231F20" d="M27.253,8.732c-0.297,0-0.587-0.148-0.757-0.418C26.324,8.041,9.279-19.145,5.547-24.867
		c-1.698-2.604-1.961-5.927-0.763-9.613c0.882-2.709,2.233-4.658,2.291-4.74c0.283-0.403,0.84-0.502,1.243-0.219
		c0.403,0.282,0.502,0.839,0.22,1.243c-0.049,0.071-4.895,7.14-1.496,12.354c3.74,5.735,20.794,32.934,20.966,33.208
		c0.262,0.418,0.136,0.969-0.282,1.23C27.58,8.689,27.416,8.732,27.253,8.732"/>
	<path fill="#231F20" d="M23.869,73.779c-0.732,0-1.507-0.429-2.082-1.003c-0.01-0.011-0.021-0.022-0.031-0.033
		c-0.281-0.311-6.857-7.625-7.889-9.172c-1.157-1.736-1.157-5.238-1.157-8.053c0-1.894-1.751-5.809-2.427-7.158
		c-0.004-0.009-0.008-0.018-0.012-0.028C10.092,47.941-7.65,9.211-10.884,2.495c-1.329-2.756-1.84-5.964-1.523-9.532
		c0.043-0.491,0.477-0.853,0.968-0.811c0.491,0.044,0.852,0.478,0.809,0.969c-0.287,3.244,0.167,6.136,1.354,8.599
		c3.22,6.686,20.75,44.949,21.165,45.854c0.179,0.361,2.606,5.288,2.606,7.944c0,2.3,0,5.776,0.858,7.063
		c0.795,1.191,5.816,6.84,7.711,8.946c0.205,0.197,0.504,0.389,0.685,0.451c0.249-1.22,0.108-6.108-0.187-10.353l-6.153-8.613
		c-0.069-0.098-0.118-0.208-0.144-0.325l-8.1-36.53c-0.106-0.481,0.197-0.958,0.679-1.063c0.48-0.108,0.957,0.196,1.065,0.678
		l8.058,36.352l6.194,8.67c0.095,0.134,0.152,0.292,0.164,0.455c0.002,0.027,0.191,2.693,0.284,5.417
		c0.203,5.868-0.211,6.282-0.544,6.614C24.713,73.633,24.299,73.779,23.869,73.779"/>
	<path fill="#231F20" d="M56.226,132.869c-2.578,0-5.598-4.615-9.226-14.108c-3.36-8.789-6.718-20.593-9.454-33.234
		c-2.8-12.936-4.635-25.276-5.169-34.75c-0.262-4.644-0.195-8.361,0.197-11.048c0.461-3.171,1.393-4.865,2.844-5.179
		c0.149-0.032,0.305-0.05,0.46-0.05c2.581,0,5.598,4.616,9.227,14.11c3.36,8.789,6.717,20.592,9.453,33.234
		c2.8,12.936,4.635,25.276,5.17,34.75c0.262,4.643,0.195,8.36-0.196,11.047c-0.463,3.171-1.393,4.865-2.845,5.18
		C56.536,132.853,56.382,132.869,56.226,132.869 M35.879,36.287c-0.028,0-0.056,0.004-0.083,0.009
		c-0.835,0.181-2.254,3.419-1.637,14.382c0.529,9.382,2.351,21.625,5.131,34.471c2.718,12.557,6.048,24.268,9.375,32.974
		c4.815,12.597,7.293,12.961,7.559,12.961c0.03,0,0.056-0.003,0.083-0.009c0.836-0.18,2.253-3.42,1.636-14.381
		c-0.529-9.383-2.351-21.625-5.131-34.472c-2.718-12.557-6.048-24.266-9.376-32.974C38.622,36.651,36.146,36.287,35.879,36.287"/>
	<path fill="#231F20" d="M54.629,131.657c-0.097,0-0.199-0.017-0.296-0.051c-0.466-0.164-0.71-0.673-0.546-1.139
		c2.102-5.976,0.243-25.953-4.42-47.499C43.81,57.299,37.096,40.664,33.335,37.5c-0.376-0.317-0.425-0.881-0.108-1.258
		s0.882-0.426,1.258-0.108c4.732,3.981,11.567,23.085,16.626,46.457c4.802,22.185,6.596,42.117,4.36,48.468
		C55.342,131.427,54.998,131.657,54.629,131.657"/>
	<path fill="#231F20" d="M16.816,68.501c1.866,8.625,2.273,15.855,0.909,16.15c-1.364,0.295-3.982-6.457-5.85-15.081
		c-1.866-8.625-2.273-15.855-0.909-16.151C12.33,53.125,14.948,59.877,16.816,68.501"/>
	<path fill="#231F20" d="M17.637,85.403c-0.724,0-1.764-0.552-3.409-4.856c-1.094-2.866-2.188-6.708-3.077-10.819
		c-0.912-4.208-1.508-8.226-1.682-11.313c-0.212-3.759,0.189-5.469,1.339-5.719c0.081-0.018,0.163-0.026,0.245-0.026
		c0.722,0,1.763,0.551,3.408,4.856c1.095,2.865,2.188,6.707,3.078,10.819c0.912,4.208,1.508,8.226,1.682,11.313
		c0.211,3.76-0.189,5.469-1.34,5.718C17.802,85.394,17.719,85.403,17.637,85.403 M11.148,54.263
		c-0.523,1.252-0.324,6.942,1.453,15.15c1.775,8.208,3.947,13.471,4.942,14.395c0.521-1.253,0.323-6.941-1.453-15.151
		C14.313,60.45,12.143,55.188,11.148,54.263"/>
	<path fill="#FFFFFF" d="M49.165,61.194c0.267,0,0.539-0.039,0.808-0.118c1.514-0.445,2.379-2.033,1.933-3.547
		c-2.263-7.684-5.228-14.771-8.347-19.956c-3.6-5.987-6.813-8.582-9.82-7.93c-3.637,0.787-5.042,5.528-4.694,15.851
		c0.053,1.577,1.376,2.813,2.951,2.759c1.577-0.053,2.812-1.375,2.759-2.951c-0.181-5.378,0.196-8.083,0.523-9.381
		c2.357,2.294,7.231,9.924,11.15,23.223C46.792,60.387,47.931,61.194,49.165,61.194"/>
	<path fill="#231F20" d="M49.165,62.087c-1.651,0-3.129-1.106-3.596-2.691c-3.352-11.38-7.345-18.365-9.739-21.478
		c-0.186,1.546-0.301,3.874-0.184,7.353c0.034,1.001-0.325,1.956-1.009,2.687c-0.684,0.731-1.611,1.153-2.612,1.187
		c-0.043,0.001-0.085,0.002-0.129,0.002c-2.031,0-3.677-1.591-3.746-3.623c-0.366-10.845,1.25-15.856,5.399-16.754
		c0.362-0.078,0.73-0.118,1.099-0.118c3.086,0,6.251,2.768,9.674,8.46c3.159,5.25,6.156,12.411,8.44,20.165
		c0.584,1.984-0.555,4.072-2.537,4.656C49.879,62.035,49.522,62.087,49.165,62.087 M35.276,35.027c0.23,0,0.454,0.088,0.622,0.253
		c2.306,2.244,7.298,9.742,11.385,23.611c0.244,0.831,1.019,1.411,1.882,1.411c0.186,0,0.374-0.028,0.556-0.082
		c1.039-0.305,1.635-1.399,1.329-2.438c-2.242-7.611-5.175-14.626-8.255-19.749c-3.033-5.04-5.773-7.595-8.146-7.595
		c-0.24,0-0.482,0.026-0.721,0.077c-2.078,0.451-4.41,2.555-3.992,14.949c0.036,1.064,0.898,1.898,1.96,1.898l0.069-0.001
		c0.524-0.018,1.01-0.239,1.368-0.622s0.547-0.883,0.529-1.407c-0.183-5.43,0.197-8.233,0.547-9.63
		c0.079-0.309,0.315-0.554,0.622-0.641C35.113,35.038,35.195,35.027,35.276,35.027"/>
	<path fill="#231F20" d="M33.883,28.192c-1.535,0-2.781-1.248-2.781-2.782V11.143c0-0.494,0.399-0.893,0.892-0.893
		c0.493,0,0.893,0.4,0.893,0.893V25.41c0,0.551,0.447,0.998,0.997,0.998c0.549,0,0.998-0.447,0.998-0.998V10.042
		c0-0.493,0.4-0.892,0.892-0.892c0.493,0,0.893,0.399,0.893,0.892V25.41C36.665,26.944,35.416,28.192,33.883,28.192"/>
	<path fill="#231F20" d="M17.632,50.868c-0.154,0-0.308-0.04-0.45-0.122c-0.427-0.249-0.569-0.796-0.321-1.221l14.36-24.564
		c0.248-0.426,0.795-0.57,1.221-0.321s0.57,0.796,0.321,1.221l-14.36,24.564C18.237,50.709,17.94,50.868,17.632,50.868"/>
	<path fill="#231F20" d="M19.647,54.395c-0.154,0-0.31-0.041-0.452-0.124c-0.426-0.25-0.567-0.798-0.317-1.223l14.108-23.934
		c0.191-0.324,0.559-0.49,0.922-0.427c0.084-0.035,0.815-0.431,0.971-3.326c0.028-0.492,0.451-0.87,0.94-0.843
		c0.493,0.027,0.869,0.448,0.843,0.94c-0.132,2.431-0.669,3.951-1.644,4.645c-0.262,0.187-0.516,0.284-0.74,0.333L20.417,53.955
		C20.25,54.237,19.953,54.395,19.647,54.395"/>
	<path fill="#231F20" d="M16.877,44.821c-0.095,0-0.193-0.016-0.289-0.048c-0.466-0.159-0.716-0.666-0.556-1.133l10.833-31.744
		c0.16-0.467,0.666-0.716,1.134-0.557c0.466,0.159,0.714,0.666,0.555,1.133L17.721,44.217
		C17.594,44.587,17.249,44.821,16.877,44.821"/>
	<path fill="#231F20" d="M35.276,35.92c0,0-1.561-1.783-3.12-1.114c-1.56,0.668-3.566,9.805-2.897,12.034
		c0.669,2.228,3.566,0.892,3.566,0.892l1.929-2.43L35.276,35.92z"/>
	<path fill="#231F20" d="M31.07,49.021L31.07,49.021c-1.328,0-2.299-0.702-2.666-1.926c-0.432-1.437,0.026-4.589,0.598-7.059
		c0.829-3.574,1.771-5.61,2.803-6.052c0.344-0.147,0.708-0.222,1.084-0.222c1.639,0,2.918,1.408,3.059,1.568
		c0.154,0.176,0.232,0.406,0.22,0.638l-0.522,9.382c-0.011,0.184-0.078,0.361-0.193,0.506l-1.929,2.43
		c-0.086,0.109-0.198,0.197-0.325,0.255C33.093,48.59,32.129,49.021,31.07,49.021 M32.53,35.617
		c-1.025,0.783-3.025,8.935-2.417,10.967c0.118,0.392,0.326,0.653,0.957,0.653c0.469,0,0.949-0.151,1.203-0.245l1.606-2.023
		l0.484-8.699c-0.347-0.311-0.931-0.722-1.474-0.722C32.762,35.548,32.645,35.57,32.53,35.617"/>
	<path fill="#231F20" d="M5.86,106.126c-2.578,0-5.596-4.614-9.226-14.108c-3.36-8.789-6.717-20.592-9.453-33.234
		c-2.8-12.936-4.636-25.276-5.169-34.75c-0.262-4.643-0.196-8.36,0.196-11.046c0.461-3.171,1.392-4.866,2.845-5.18
		c0.15-0.033,0.305-0.049,0.461-0.049c2.578,0,5.596,4.615,9.225,14.108c3.36,8.791,6.718,20.593,9.454,33.235
		c2.799,12.934,4.635,25.275,5.168,34.749c0.263,4.644,0.197,8.36-0.195,11.047c-0.462,3.171-1.394,4.866-2.846,5.18
		C6.171,106.11,6.016,106.126,5.86,106.126 M-14.486,9.544c-0.029,0-0.057,0.003-0.083,0.009c-0.836,0.181-2.254,3.42-1.636,14.381
		c0.528,9.383,2.351,21.625,5.131,34.472c2.718,12.557,6.047,24.267,9.375,32.974c4.816,12.597,7.292,12.961,7.558,12.961
		c0.03,0,0.057-0.003,0.084-0.009c0.835-0.181,2.252-3.419,1.635-14.381C7.051,80.569,5.228,68.326,2.448,55.48
		c-2.719-12.558-6.048-24.268-9.376-32.976C-11.744,9.908-14.219,9.544-14.486,9.544"/>
	<path fill="#231F20" d="M4.263,104.914c-0.097,0-0.198-0.016-0.296-0.051c-0.464-0.163-0.708-0.673-0.546-1.138
		c2.102-5.977,0.243-25.952-4.42-47.5c-5.555-25.669-12.27-42.304-16.03-45.469c-0.377-0.317-0.426-0.879-0.108-1.257
		c0.317-0.377,0.881-0.425,1.258-0.108c4.73,3.982,11.567,23.085,16.627,46.457c4.8,22.186,6.594,42.117,4.359,48.47
		C4.976,104.685,4.632,104.914,4.263,104.914"/>
	<path fill="#FFFFFF" d="M-1.201,34.452c0.268,0,0.54-0.038,0.809-0.117c1.513-0.446,2.378-2.033,1.933-3.548
		c-2.263-7.684-5.229-14.771-8.348-19.956c-3.6-5.987-6.814-8.582-9.819-7.93c-3.639,0.787-5.043,5.528-4.695,15.851
		c0.054,1.577,1.375,2.813,2.952,2.76c1.577-0.053,2.812-1.375,2.758-2.952c-0.181-5.377,0.195-8.083,0.522-9.381
		c2.357,2.295,7.232,9.924,11.15,23.224C-3.573,33.646-2.435,34.452-1.201,34.452"/>
	<path fill="#231F20" d="M-1.201,35.344c-1.65,0-3.128-1.106-3.595-2.692c-3.353-11.379-7.345-18.363-9.74-21.477
		c-0.186,1.546-0.301,3.874-0.184,7.353c0.034,1.001-0.324,1.956-1.008,2.687c-0.683,0.731-1.611,1.153-2.613,1.187
		c-0.043,0.001-0.085,0.002-0.128,0.002c-2.031,0-3.676-1.591-3.746-3.623c-0.366-10.845,1.25-15.856,5.399-16.754
		c0.362-0.078,0.731-0.118,1.098-0.118c3.086,0,6.251,2.768,9.676,8.46c3.158,5.25,6.155,12.411,8.438,20.165
		c0.584,1.984-0.553,4.071-2.536,4.656C-0.487,35.292-0.843,35.344-1.201,35.344 M-15.09,8.284c0.229,0,0.454,0.089,0.623,0.253
		c2.305,2.244,7.297,9.742,11.383,23.611c0.244,0.831,1.019,1.41,1.883,1.41c0.187,0,0.374-0.027,0.556-0.081
		c1.039-0.306,1.636-1.4,1.331-2.439c-2.244-7.612-5.177-14.625-8.257-19.749c-3.032-5.04-5.773-7.596-8.146-7.596
		c-0.239,0-0.482,0.027-0.72,0.078c-2.079,0.45-4.41,2.555-3.992,14.949c0.036,1.064,0.897,1.897,1.961,1.897l0.068-0.001
		c0.524-0.018,1.01-0.238,1.369-0.622c0.358-0.383,0.546-0.883,0.529-1.407c-0.183-5.429,0.197-8.233,0.548-9.628
		c0.078-0.31,0.315-0.555,0.622-0.642C-15.252,8.295-15.171,8.284-15.09,8.284"/>
	<path fill="#231F20" d="M-15.09,9.177c0,0-1.56-1.783-3.12-1.114c-1.56,0.668-3.565,9.806-2.896,12.034
		c0.668,2.229,3.565,0.893,3.565,0.893l1.929-2.43L-15.09,9.177z"/>
	<path fill="#231F20" d="M-19.295,22.279L-19.295,22.279c-1.328,0-2.299-0.702-2.667-1.925c-0.432-1.438,0.027-4.589,0.598-7.061
		c0.828-3.573,1.77-5.608,2.803-6.051c0.344-0.147,0.708-0.221,1.084-0.221c1.639,0,2.918,1.408,3.059,1.568
		c0.153,0.176,0.232,0.405,0.22,0.638l-0.522,9.381c-0.011,0.185-0.077,0.362-0.192,0.506l-1.93,2.43
		c-0.087,0.109-0.198,0.198-0.325,0.256C-17.273,21.848-18.238,22.279-19.295,22.279 M-17.834,8.874
		c-1.026,0.782-3.027,8.935-2.417,10.966c0.118,0.393,0.325,0.654,0.957,0.654c0.469,0,0.949-0.151,1.201-0.243l1.606-2.024
		l0.484-8.7c-0.347-0.31-0.93-0.721-1.474-0.721C-17.603,8.806-17.72,8.828-17.834,8.874"/>
</g>
</svg>
