<?xml version="1.0" encoding="utf-8"?>
<!-- Generator: Adobe Illustrator 16.0.0, SVG Export Plug-In . SVG Version: 6.00 Build 0)  -->
<!DOCTYPE svg PUBLIC "-//W3C//DTD SVG 1.1//EN" "http://www.w3.org/Graphics/SVG/1.1/DTD/svg11.dtd" [
	<!ENTITY ns_extend "http://ns.adobe.com/Extensibility/1.0/">
	<!ENTITY ns_ai "http://ns.adobe.com/AdobeIllustrator/10.0/">
	<!ENTITY ns_graphs "http://ns.adobe.com/Graphs/1.0/">
	<!ENTITY ns_vars "http://ns.adobe.com/Variables/1.0/">
	<!ENTITY ns_imrep "http://ns.adobe.com/ImageReplacement/1.0/">
	<!ENTITY ns_sfw "http://ns.adobe.com/SaveForWeb/1.0/">
	<!ENTITY ns_custom "http://ns.adobe.com/GenericCustomNamespace/1.0/">
	<!ENTITY ns_adobe_xpath "http://ns.adobe.com/XPath/1.0/">
]>
<svg version="1.1" id="Layer_1" xmlns:x="&ns_extend;" xmlns:i="&ns_ai;" xmlns:graph="&ns_graphs;"
	 xmlns="http://www.w3.org/2000/svg" xmlns:xlink="http://www.w3.org/1999/xlink" x="0px" y="0px" width="595.279px"
	 height="841.89px" viewBox="0 0 595.279 841.89" enable-background="new 0 0 595.279 841.89" xml:space="preserve">
<metadata><?xpacket begin="﻿" id="W5M0MpCehiHzreSzNTczkc9d"?>
<x:xmpmeta xmlns:x="adobe:ns:meta/" x:xmptk="Adobe XMP Core 5.3-c011 66.145661, 2012/02/06-14:56:27        ">
   <rdf:RDF xmlns:rdf="http://www.w3.org/1999/02/22-rdf-syntax-ns#">
      <rdf:Description rdf:about=""
            xmlns:dc="http://purl.org/dc/elements/1.1/">
         <dc:format>image/svg+xml</dc:format>
         <dc:title>
            <rdf:Alt>
               <rdf:li xml:lang="x-default">Print</rdf:li>
            </rdf:Alt>
         </dc:title>
      </rdf:Description>
      <rdf:Description rdf:about=""
            xmlns:xmp="http://ns.adobe.com/xap/1.0/"
            xmlns:xmpGImg="http://ns.adobe.com/xap/1.0/g/img/">
         <xmp:MetadataDate>2018-09-05T11:33:14-03:00</xmp:MetadataDate>
         <xmp:ModifyDate>2018-09-05T11:33:14-03:00</xmp:ModifyDate>
         <xmp:CreateDate>2018-09-05T11:33:14-03:00</xmp:CreateDate>
         <xmp:CreatorTool>Adobe Illustrator CS6 (Macintosh)</xmp:CreatorTool>
         <xmp:Thumbnails>
            <rdf:Alt>
               <rdf:li rdf:parseType="Resource">
                  <xmpGImg:width>88</xmpGImg:width>
                  <xmpGImg:height>256</xmpGImg:height>
                  <xmpGImg:format>JPEG</xmpGImg:format>
                  <xmpGImg:image>/9j/4AAQSkZJRgABAgEASABIAAD/7QAsUGhvdG9zaG9wIDMuMAA4QklNA+0AAAAAABAASAAAAAEA&#xA;AQBIAAAAAQAB/+4ADkFkb2JlAGTAAAAAAf/bAIQABgQEBAUEBgUFBgkGBQYJCwgGBggLDAoKCwoK&#xA;DBAMDAwMDAwQDA4PEA8ODBMTFBQTExwbGxscHx8fHx8fHx8fHwEHBwcNDA0YEBAYGhURFRofHx8f&#xA;Hx8fHx8fHx8fHx8fHx8fHx8fHx8fHx8fHx8fHx8fHx8fHx8fHx8fHx8fHx8f/8AAEQgBAABYAwER&#xA;AAIRAQMRAf/EAaIAAAAHAQEBAQEAAAAAAAAAAAQFAwIGAQAHCAkKCwEAAgIDAQEBAQEAAAAAAAAA&#xA;AQACAwQFBgcICQoLEAACAQMDAgQCBgcDBAIGAnMBAgMRBAAFIRIxQVEGE2EicYEUMpGhBxWxQiPB&#xA;UtHhMxZi8CRygvElQzRTkqKyY3PCNUQnk6OzNhdUZHTD0uIIJoMJChgZhJRFRqS0VtNVKBry4/PE&#xA;1OT0ZXWFlaW1xdXl9WZ2hpamtsbW5vY3R1dnd4eXp7fH1+f3OEhYaHiImKi4yNjo+Ck5SVlpeYmZ&#xA;qbnJ2en5KjpKWmp6ipqqusra6voRAAICAQIDBQUEBQYECAMDbQEAAhEDBCESMUEFURNhIgZxgZEy&#xA;obHwFMHR4SNCFVJicvEzJDRDghaSUyWiY7LCB3PSNeJEgxdUkwgJChgZJjZFGidkdFU38qOzwygp&#xA;0+PzhJSktMTU5PRldYWVpbXF1eX1RlZmdoaWprbG1ub2R1dnd4eXp7fH1+f3OEhYaHiImKi4yNjo&#xA;+DlJWWl5iZmpucnZ6fkqOkpaanqKmqq6ytrq+v/aAAwDAQACEQMRAD8A9U4qtllihieWV1jijUvJ&#xA;I5CqqqKkknYADFXg3mX/AJyN1e8u57byPpsD2MTGNda1EvwkI2LQwIVbiP2Szb9xmdpezsuYWNo9&#xA;5dZre1sOnPDIky7h+l5z5m8zfmNrdncSap5kurghGZLC1P1O3agrwZIOJcbftHNmexRGBJPFIDl0&#xA;/HydMPaQzyRiI8ECdzzPv7vvek/84oabdx6R5g1aOKS30XUJ7ZNPhcuQZLeNxcyLyJqGZ1XkP5ad&#xA;s0eaUDK4CovTaeOSMAMh4pb7/Hb7HvGVNzsVdirsVdirsVdiryb/AJyN80SWHlCDy5ZycNQ8zTfV&#xA;TxNGW0jo9y/y48UI8GOXafCckxAdWjVagYcUsh/hH9jxCw0XUtY1vRvKmhSLaXV/Jx9crzWG3gQv&#xA;I5XvRR9PTOk7T1J0+OMcex/QHjexdGNVlnPL6h95P4P2Ml84fkL+Zel3tgulXb+abSQlphEkGnGK&#xA;VGHAScpG5I1a1B7ds0w7TykjjJIHTYfcHo5di4BE+HERkRVm5bHus83tP5M+RtX8meTBpWrXCT3s&#xA;1zNdvFDUwwetx/cxk0JUceXzJzAlKyT3u0hHhiBzoM6yLJ2KuxV2KuxV2KuxV8q/mR5h/wAT/mdq&#xA;t6j89P0MfomwofhLxktcuO394Ste4pm/7EwWTkPTYfpeW9ptVUY4h19R/R+PJl//ADjf5fF7rGu+&#xA;cZlrHFTSNMJ6cUpJcuK+LcACPcZr+0s/iZj3DYO17H0vg6eIP1S9R+P7HveYDtHYq7FXYq7FXYq7&#xA;FXYqxj8zfNo8peRtW1xSPrMEJSyUivK5lIjhFO/xsCfauKvksrPpPl4Rpylv3AVaVZ5Lmc/ex5tn&#xA;XH/BdL/SA/2ReBj/AIdrf6JP+xH7PtL64/LvypH5U8laRoKgerZwL9aYbhriSsk7V8DIzU9s5F75&#xA;keKuxV2KuxV2KuxV2KuxV8//APORfmD9I+ZdE8pQtyt7BTq2pqNx6hrHbIfcfE1PAjNj2Xg8TMO6&#xA;O7qe29V4OnNfVL0j48/sYz+WPl//ABJ+aOmW7rz0/QFOrXngZVPG1X5+oefyBzN7cz3IYx03LrfZ&#xA;nS1GWU9dh+n8eT6mzQvUOxV2KuxV2KuxV2KuxV2KvjeXWn8wa5rfmqc1bVruR4j/AC20B9KBP9ii&#xA;UzqexsIjiM/533D8F4f2j1BnnGMfwD7Tv+p6v/zinDFdeXPMWvEf6Tf6obdqgVEVvBG8a19vXOc5&#xA;qMxyZDM9S9jpdOMOKOMfwj+37XuOUt7sVdirsVdirsVdirsVdir4u0eyuNMS60S7HG90e5msrlen&#xA;xRyHcexHTOu7IyiWAD+bs8D7QYTDUmXSYB/R+hn/AOQevR+XvPtx5cYiLTPMcPq2adFS9tV+JV7D&#xA;1Iqn5gDNN2tpRiyXEVGT0fYOtOfCRI3OB+w8n0lmqd27FXYq7FXYq7FXYq7FXYq+b/z28u/oP8wr&#xA;XXoU42HmWH0bkgbC+thRSew9SKgHiQTm27H1HBl4Tyl9/R0PtDpPEwcY+qG/w6/rYDqj3tskGqae&#xA;3DUtKmjvrJxvSSBuVKdwQOmbztPT+LhNc47h5rsXV+DqBf0y9J+P7X135X8wWXmLy7p2uWR/0bUY&#xA;EnRa1Klh8SGn7SNVT7jONfQ1HVvOnk/R3aPVtcsLCVdzFc3MMT7f5DMGP3Yqw7UfzZvNa1B9F/LX&#xA;T08xXyBfrWsSOU0q057j1Jl3lam/CPfwqQRimmo/yx876uPV82ee9R5vubHQuGnW6V6x8wrSSL7t&#xA;Q4raq35I6YqqbTzT5mtJ0FBPFqkhYn3Dqy/RTFbQ82l/nP5THr6ZqcPnbS495NN1BFtdQCDqIbiP&#xA;4JG/4yD6MVZR5I/MHQPN9tMbEyWupWbenqWkXa+ld20g2KyRnelejDb6ajFDJsVdirCfzk8nP5q8&#xA;gajZWyctTtAL7SyBVhc23xqF93Xkn+ywxkQbHMIlESBB5F81aXfR3+nwXadJVBYeDdGH0HO60+YZ&#xA;cYmOr5hrNOcGWWM/wn+xd5dv/Mb/AFnyYdcu7HQLUvd2un2jCEyx3D1dWlWj8Ff9npuc839qNRk0&#xA;MvQBUjz7u79PyfWfZPHj7QxgzJ4ojcd5HP8AQfij9M/LvTvMPme08oaJZx25kX61rOplRLJbWYND&#xA;xeTkfUkJ4r/TNJ2L4+pkcuWcuEchyBPuHc77tnwNPEYscRxHmeZA95731P5b8t6N5b0a20bRrZbW&#xA;wtV4xxr1J/ad26szHck9c6h5hM8VdirsVeffmX5GvriWLzl5SC23nXSB6kTKKLfwKBzs7gLTmGUU&#xA;SvQ7bdQpZL5K826d5t8s2OvWFVhu0q8LfbilU8ZIm90cEe/XFCeYqoX99aafY3F9eSCG0tI3muJm&#xA;6JHGpZmPyAxV8XWeqR3PmLVJIbU2WnatPNqekW7fswSzN8O2w7Gmbz2f10ZmeIG+E/b1/HveY9qu&#xA;zpQEMxH1D+w/f9i7VpW068sdcjr/AKFJwugP2reX4X+6tRg9quzfzOlNfUPwPt/Sx9jO1Py2rET9&#xA;Mvwfs+4Pe/8AnHDSVPlfUfNUgrc+Y72V437i1tWaCFP9iyv9+c1otOMOGMO4fb1+17PW5zlyyn3n&#xA;+z7HreZTisW86+erTy7GsESC41KVeUcJNFRenNyO3gO+bHQ9nyzmztB0na/bUNIOEDiyHp+kvKdR&#xA;88+ar+Rnl1GaJSdooGMKAeFEpX6c6LFoMMBtEH37vDajtnVZTZmR5R2+52m+evNdhIGi1GWVQd45&#xA;2MykeHx1I+jHLoMMxvED3bLp+2tViO0yfKW/3vWPJfniz8xwtE6i31KIVlt67MvTmle1e3bOc12g&#xA;lgN84nq932R2zDVivpyDmP0hjXkKH/D35o+cfK0Y4afqCweYtOiGwQ3H7m7oPAzKKU6Zr3dPTMUP&#xA;J/8AnIvWJk8r6d5Zt3KTeZL1LecqaEWkH76eh+hB8icxdbqPBwyn/NH29PtcrRYPGyxh3n+14v53&#xA;070dOtNUtI6SaOwbgu1bZgEkQfJaHOV9l+05YNWCT9f3/t3Hxem9qeyo6nRmIH0j7P2bH4IadIby&#xA;wkUfvIbiI0p3V12p9+e4zAyQI5iQ+9+fccpYcoPKUZfcX0T+QLwv+UHlsw14CGVTU1+NbiQP/wAM&#xA;DnBPqRZ9JIscbSOaKgLMfYCpwgWaRI0LL5x1nVJ9U1S51CckyXEheh34r+yvyVaDO5wYhjgIjo+Q&#xA;6vUyz5ZZJc5H+z5PRvytXyqdGnFybVtSLubhJynMQgClA/7FOp8c0HbGXIMgFkRrZ7T2Y0+GWnJo&#xA;GfFRsPGPNv5qeRdP1vzPYWmnSXhiuI00S7tZQLei/wC9HKvbkCE4hgR4bZVj7Yyir3A5+bkZvZfT&#xA;z4jG4mXLuj8Ey8i+c7WW6tNa012H1eUevEdnA/bRh/lKaZuo5IarEQP7C8nPBm7O1MTLobsciOv9&#xA;ie/nF5l1zQPzk0zWvLxEl3Y6Cst9akbXNo14/KAntXdl8CAc4XVaqODh4+UpcPu5/qfWdLpZZxLh&#xA;/hjxfc9v8seY9M8yaBY65pcnqWV/EJYiftKejI1OjIwKsPEZlOK8e/PZ3k/MTylE6n04LO/liY9O&#xA;chjRqe/FRmk9oZEaU+ZH3u79nwDqR7j9zGpoY5oZIZVDxSqUkU9CrChH3ZwEJGJBHMPdyiJAg8i8&#xA;x0+9vdK1hdAuKNDBI8COR8fEj1IHr4Mm2e4dgdrnNix/zSK9x/Fh8I9puw44cmWQviBvyI5H9Evi&#xA;99/5xq8wxLpmreTpmAutJuHu7JCftWd0eXwj/IlJ5f6wzD1uHw8so+f2O07P1IzYIz61v7xzezXU&#xA;JmtpYQaGRGSv+sKZjwNEFyskeKJHeHzTLFJDK8Ui8ZI2KOp6hlNCM7wEEWHxycTEkHmHiv5iXE0v&#xA;my8WQ7QiOOIeC8A362Jzke1JE55X0r7n072ehGOjhXWyffZ/sY3mvd2zn8oTdS+ZZLGHcXUNOHi4&#xA;kUIf+HP35tex8nDkPdwm/g837T4PEwRr6uMAfG3p13qyeY/PPmDzFC3qWAePTNLlG4eCzHB5EP8A&#xA;LJJVhnnHtRqhKccY6bn48vx5vqHszpTGBmeuw+HP8eTNP+cfNTaw1rzJ5QY/6KjR6vpifypcfu7h&#xA;R4KsgWg9zm+7H1RzaeJP1DY/D9jpO2NMMOokByO4+Kt/zkTYNb3PlLzKB+5sryWwum8EvowEZvZW&#xA;i/HJ9rYDl004jnV/Ldh2TmGPUQkeV189mIZ5o+jsE856fbyebtGlir9ZZXe4UdPTh3Rj71YjPQvY&#xA;XjnMx/gjK/s3/R83zr2+lDHh4v45R4ft2/T8kR+k9Z8v6raeadCYLqmmVLRMKpPbn+9hkUdVI+nw&#xA;3oc9G7W0fiQ4x9UfufMewe0PByeHL6J/Yfxs+i/LH55/llr2mQ3h1y00ydlBnsr+ZLaSN6DktZSi&#xA;vTxUkHOTe8p5V+avnz8vl1g3fl2/GsXd1Vrq0slZ1V/9+esQI6N3oxNd++b3QdpGMOAgyI5U8h2x&#xA;2AMmXxYyjCMvqvv7x7+54r5nF/rmoR38lrHacuEJQSAmhNAzu3FBSvXYDvmPr8WSZ8WUeH7S7Dsf&#xA;Jiwx8CMzM7kEih7h181mp+VX0Wb6vqNlNFeLRpLW7P1d+B6MlaBlPZgaHschDFhIBHqPUE8P4+bk&#xA;ZM+pEiJegdDGPF8/7Ez8jpc+nf2OkI0Wq3bmG5v+qWlmQKlGHWR6so+VetCNR2h2nj0WKV/XLb3j&#xA;uH++P63baHsrJrs8D/k4C/8AOP8AEfcPpHeT3PT9PsbawsobO2XhBAoSNfYdz7nqc8tzZpZZmcvq&#xA;L6nhwxxwEI8gnf5W/D+c0DKaNJolykgHdVuImAP052HsuT4Ux04v0PJe0wHiRP8AR/Syrzp+Y/5R&#xA;+cdK1fyTc67Db3F0slvDdXEcsVutzE3wOs7qIiI5VBry37Z01jk83wkbvKvKmqS6hpCm4IN7aO1p&#xA;eFWDqZYdmYMpIbkKNUbb55t2to/y+cxH0nce4/q5PovZWr8fAJH6hsfeGLAnV9Y1fUBIyRkmws5U&#xA;NCEi+06n3ffPWPY/s3wtJZ2lMfHff9Q+D4/7cdq+JrBEVKMDddDWw/T81+l387erY3wrfWo+MgbS&#xA;x/syL8+48c6jTZpG4T+uP2jvDyGt00BWTF/dT/2J6xPu6eSTaf5St7rR4HnRrS++Ng4G4UuSquh2&#xA;O2a/B2XGeEGQ4Z/t6h22q7blj1EhEieLb7hdHp93VSns9b00iMww3UZ+w8Z9ImniCONflicefFtU&#xA;ZDy9KBl0uo34pwl5+r9qGudTvoo6vYEBiEHKRSCW2AoK1yrLqskRvDy5hvwaHFOW2Xlv9J6fcjdV&#xA;0TzNdabai/1KbULfT1/caW0kjRwxVq0duXZwmwpsuY+fsbKMZlEjj7q/bu5em9osJyiEgeD+cTz9&#xA;+2z0PywujfoS2k0iJYbKVeaqPtcujczuSwIoa54v2gc3jSGU3MfjbyfbNAMXgxOIVA/jfzTXMJzU&#xA;9/JCyN/+Zmv6uFrBpGnw6arHp6tzJ67cfdVjoc7/ANncPBprP8RJ/R+h4P2gzceoofwgD9P6WDWO&#xA;hQ6Xeaz5N1KBJW0a8lSOKZQwe2mYywS0bryV65pO38c8OoGWJI4xzHeNvup3XYWSGbT+HIA8J5Hu&#xA;O/63a5NaeXvLV3JYwpb8FK28UShR6sp4qQB1PI1zW6LHPV6mMZkys733B2OsyQ0unlKIEaG3vKSa&#xA;PYix0y3tf2o0HM+Lndj/AMEc+hNLh8LHGPcH5q1+p8bNKfefs6fYi+K8uVBypSvemX04l9EFeWuq&#xA;Sy1t74W0NKcBCrtXx5MafhmPlxZZH0z4R/VtzMGbBGNTx8cu/iI+wD9LS6dN9VeKe5e5kJ5JI4Ve&#xA;J8AEA2wwwyEalIyPw/QiepiZgxiIDuFn70kubVJSqSggxOHA6fEhzDyYhKr6G/k7DDnMLMf4gR8C&#xA;n+m6hBewFom5NEximBBBDr165nYM0cg26Gj73WanTSxSAkPqFj3FE+R5hb3mraQTQRTC6tx/xXOK&#xA;kL7Kw/HPHPbbQ+FquMDaX9v6a+D7n7Da/wAbRiJO8f7D91/FPtc1eHStOku5AXf7FvCu7SStsiKB&#xA;uSTnK6LSS1GUQj15+Q73rNZqo4MZnL4eZe2/k55KufKfkuG31AD9NajI+oau3hcT0PD/AJ5oFXba&#xA;oNM9Ox4xCIiOQFPmmXIZyMjzKRfnP+XGpapJb+bvLMQk8w6bGYruyG316z+0Yv8AjIh3T7vAZj67&#xA;Rx1GMwl8D3FyNFrJafIJx+PmHhvmLUINe8uPLp4ZrvT5457nT3HCdTC1HjdDuCN/uzlOzIT0Gtic&#xA;ooHa+nzeo7UlDX6KQxnfqOq2xvrW+t1uLaQSRsO3UHwI7HPc8OaOSPFE2H551GmnhmYTFEIjLWh2&#xA;Koa/1C1sbczXEioOi8iBU+AyrNnjjjcjTkabTTzS4YAljd3eTTGNbUeveXrBbVB+0zd/kM0vaHaE&#xA;MGI5Cej0XZfZc9RmGIDkd/1Jlb6PJ5b1mCyeUyx6lb82lPQ3URrIF9uLVzQ+yPbX5mc4naz/AGfH&#xA;nb0Xtv2H+XxY5R/hH7D+ila8uptK1+w1WGB7j1g1jNBEKvIZN4VUf8ZBmZ7Ydl/mcIrY3z/Hlbge&#xA;wva35bNKJ5Vdff8Abwvcvyz/ACh1Q6rb+bPO6IL+3+PR9DQh4rQn/dsrD4Xm8Oy9etOPPdn9nY9L&#xA;Co7yPM971uv7RnqZXLYDkO57Jmwde7FWE+dvyh8jeapm1G/t3sNVUV/TFhJ9WuQAOruAVeg7uppk&#xA;J44zFSAI82cMkoG4mi+TY9Cim1TU77RNRnFos7xaZdyKga4jjJHqTKiqrc238fHN32T2dIQ44SMO&#xA;78d3k83272tj8QY8kBk6y8r7vPravbeZpLeQW+sxfV3B4i6SpiY9N+6nNtDXmB4cw4f6Q5fsdFl7&#xA;KjkHHp5cQ/mn6h+v8c02n1TToLY3MlxH6IFeQYGvyp1zNnqccY8RkKdbj0eWc+ARPF7mKPN9ckk1&#xA;bURxjAP1aF9xHH22/mbNODxk5svLoO4frL0RHhAafDz/AIiP4pfqDLvImgOAddvU43FwvGyhP+6o&#xA;D0P+s/6vnnlntR2ydRlOOP0R/FfD731r2X7FGlxCcvrl+L+P3Jb5yM8NzfXmqS3aS2jwzeXfRRWs&#xA;WAZfWSdxV0kK147b/LNj7NZsGOIOOvFHPv2/R7nA9pcGbKZRyX4R2HduPv8Aer6lEup6I5t2PKWN&#xA;ZrZxUEOKOhBHQ1Geq6nGM+A11Fj7w+NaLKdLqgZfwyo/cX1h+XXmlPNXkjR9eBBkvLdfrIHa4j/d&#xA;zj6JUamcS+kMjxV2KvP/AM+PMM+ifllqrWr8L3UuGm2pBoeV03B6HsRFzIyUYmRAHVjOYiDI8hu+&#xA;eLS2jtbWK2jFEhQIv0Cmd5ixiEREcg+W58xyzMzzkbQOr2asDMFBU7SqRUfPKs+MHdv0uYg1e/RI&#xA;k0rTkk9RbdA/UbbD6Oma8aTEDYiHby7QzyjwmRpQ1xpVjtmSP1gs6M0RFVfjUhWA7GmYna2OU8XC&#xA;L37ufJzuwskIZjKVbDr7wz6D8w/KcltHK96InZQWhKSFlJG6/CpqR7Z47PsLVCRAjfnY/W+1Q7a0&#xA;xiCZV5Uf1Jtp2n+dPNym08taDN9VnBR9X1NDbWSowoWHMcpfkoPyzZ6H2cmJCWWXDXQc/n0+11ut&#xA;9oYcJjjF31PL5MZg0a+8uanqXlXUHEl3os5iEgBUSQyD1IZADuAytUZ652Nn4sXCecfufFvaPTcG&#xA;fjHKY+0c/wBD1b/nGvXvq915g8oTPtDIuq6ah3/cz0ScDwVJAv0sc0XaODw8xHQ7j4vT9k6nxtPG&#xA;XUbH3j8W91zBdk7FXiX/ADk1cu0HlLTdzHPqMt0w7crWE8f+TpzN7OhxZ4jz+7d13a2Tg0uQ+VfP&#xA;Z5XnavmzTKrKVYVUihGAhINJBd27QTFD06qfEZhTjwmnZ458QtRyDY9H/wCcevOUGgebpPLN9wGn&#xA;a6xk02ZgKw3wFGjDHoJlFB/lAAdTnO9oafw52Ppk9d2Vq/Fx0fqj93R9QZgO0fOn/OTOky6L5g0n&#xA;zhaQeqmoRHS75AeIMyH1LdiaH4mXkPkuZuh1ZwzsC72p13aegjqcXCTw8Ju2LeT9Um0X8zPKupQm&#xA;n1q8XSblezx337sA/wCq9GHvm37cxDhjP4fpdB7MZzxTx9K4v0fpfWmc29g7FXg//OTCN+nvI0v7&#xA;CtqaE+7xQ0/4jmw7K/xiPx+4uq7c/wAUn8P90Hm2dk+dOxVDX1qk8W7BGXcOeg8cryQsN2HIYlJ7&#xA;iOKN+McnqDuQKCuYkgByLnwkSNxSEuoXljBicxXEbCS3mUkMkiGqMpG4IOY2owjJAxczR6k4cgkP&#xA;j7n1x+UPn9PO3k231Cai6tan6pq8I243MYHJgP5ZAQ4+dO2ctKJBovcRkJAEci8w/wCciPMDap5s&#xA;0jynE1bPSkGq6gBuDcPVLdD4FE5N7hs2PZWn8TMCeUd/1Oo7c1XhacgfVP0/r+xI/wApPLzeZPzP&#xA;tXYctO8sIL+6PY3UlVtkPuN5B8jmV23qOKYxj+Hn7/x97hezek4cZynnLYe4ft+59QZo3pXYq8d/&#xA;5ya09z5W0bWUWo0rVIvrDfywXCNE5/4PgMyNJk4MsZebia7D4mCcepifn0ePllFKkCpoK9znc2+Y&#xA;gEpbrGqS2xitLRBLqN0aQRnoo7yP/krmJq9SYVGAvJLl+s+TsdBohkueQ8OKHM/oHmUohjuYw63F&#xA;y9zIzFndjtXp8K9hmNjhKI9UjI/jk5ebJCZHBEQiBt+09SqZY1OxV6d/zjRqclp+YWr6UGpb6npo&#xA;umXfea1mVF/4SZs5/tOFZb7w9Z2NkMsNH+E1+lifmLXY7/zV5u8yzOHhlv5kgkBrytrP9zBT5qub&#xA;PsmsWCWQ/inS9vcWbUwwx7vtkf1APfvyE8oS6B5Dhu71OOra851K+qKMolA9GLff4IqbdiTnPZMh&#xA;nIyPMvWYsUccBCPKIp6PkGx2KpJ538sweaPKWq6BMQq6hbvFG53CSj4onp/kSKrfRir45ngu77Qj&#xA;HKph1fS5Cro2zJc2p4sre5p+OdVGR1GmEh9cPvj+t4eURpNaYyH7rJt/my/Ufua0EvcQ3WvXC0nu&#xA;QVgX+SJNlUfNhlmhuYlnlzly8gGrtSsZjpofTDn5yPX5KWTanYq7FU08geeLby3q3mHUrZZrjW5N&#xA;MfTNFigj5hZ53DtO7VAVYjGPc5z+sMs2aoDirZ6zs8R0+n4sh4eLfdH+QvJv+IPM2geTyvOyipf6&#xA;53H1eBgzKfaWUhfpzL7Rl4OGGAc+Z/Hvdf2RD8xqMmpPK6j+PKNfN9iAAAACgGwAzRvTOxV2KuxV&#xA;8qf85DaE/lTzhfanboV07zVbtLGV6JfxgJMKf5ausle5J8Mz9JqzjhOP84be91mv7PGaeOf8yW/u&#xA;5sUlhFno1vaDqqJGf9iNz94zqBDw8UY9wAeIOTxc8p95JS7KXIdiqC1ado7Uxxmk059OPelK9Wr2&#xA;AG9cxdZk4YUPqlsHO7Ow8eSz9Mdz+r4px5d1HRnsXisVMUVqoMrOnDkNx6ld614nMnQZ8JgRDYR5&#xA;7fa4Xaul1AyiWQ8Upnajdf0fte9/843eV3t/L975uvIyt55ilrahhQpYwEpCKHpzbkx8RxOcvqs5&#xA;y5DPve30WmGDFHGOg+3q9hzHcp2KuxV2KvFv+coXtZvL3lzTXUNcXOrpKh/aEUEMnq0/5GLmRpMf&#xA;HljHzcTX5fDwTl3RP7HiOsSVljj/AJRU/T/tZ2Oc70+faWOxKX5juU0SACSaAbk4k0oFmgkPC51S&#xA;XUL9F5afpVt69wO/pPNHbqOooZZZlU9+NT2zm9XqTknY5ch+PP7ns+z9GMWOj9XM+/8AZ97LfLmg&#xA;3PmHUbLynp8iPe6zdGXUntFHpWts78rhlC/Cqouyj6O4zOz5I4NP4UZXKXOun45Or02GWp1fjyiY&#xA;wh9N9e4/p+T7SsLG1sLG3sbSMQ2lpEkFvEvRI41Coo+SimaR6NXxV2KuxV2Kvnj/AJyGv/rf5iaB&#xA;pgIK6Xp094adnu5BFQ+/GHNr2NDiz3/NB/V+l0ftDl4dNX86QH6f0PJr6T1LuQ9geI+jbOgyG5F5&#xA;TDGohQyttSPzFqIVRZRtRpP75v5V8NvHNV2jqaHhjrzd92Po7PiyGw5e99H/APONv5Yx2Pk3UtR1&#xA;2xV18y8Ejs7pA3KxjB4F0atPVZy1PAKc0hq9npBdb83rugeUfK3l4TfoPSrXTfrFPXNtEkZfjXjy&#xA;KgE0qaYFTfFXYq7FXYq7FXyl+ZOpC/8AzW81XgblDY/V7GH29CEGUf8AIxjnQdhwoTk8p7TTs44e&#xA;8/oH6WCkkkk9T1zZOnQ99eLa25kI5OTxiQdWY9BlGfMMcb69Pe5Wk0xzT4enU9wZx/zjR5a8qa55&#xA;11OTzAkV7qVjCk2nWc45RvJzPrTBT8LGGiqAdt60225nMTxG+b2mnAEBw7R6e7o+t8qbXYq7FXYq&#xA;7FXYq7FXxZqF1JNe+Ybuba6vNXvXnU9VczGq0PSgHTOn7Loaf3yeL7cuWrF9Ij9P6UrzKcFIJr1r&#xA;m89SIepIKx2MXavRpm9vDNPPPxzsbnlEffJ6LHphixcMthzmfugP0/tTawhvNMNpdaZcvZ6rYH1L&#xA;W9iJV1k6n5q3Qg9syZ6CJxCP8Q6uHi7VlHMZ/wAEunk+xPyt87Dzn5JsNbkUR3rBoNQhXYJcwnjJ&#xA;Qb0DfaA8CM54ijT1YIIsMswJdirsVdirsVdir57/ADa/JLzQ3mG91/yhbJqFpqsn1nUNK9RIpY7k&#xA;j45omkKqwk3ZhWtentm6TWyw2OcS67XdnQ1FG6mOvkw/QvyM/NDXrlbe6sV8vae209/dukkgU9fT&#xA;gjYsW/1io98vz9pmQqIpxtL2LGEuKZ4q6dE8/NP8iNH8l+Q7LW9A9W5vdHlB1q5kPx3FvPxjZ+Aq&#xA;FETheKr0UkkmlcwtPl8OYk7LV4BlxmHf9/R5erKyhlNVYVBHcHOqBsWHhpRINHm9v/5xVv5PS826&#xA;Vv6NtdWt2o7c7uJ1f/qHGcxrY1mkPxu9p2dPi08D5V8tnvOYrmuxV2KuxV2KuxV2KuxVD6jp9nqO&#xA;n3On3sYms7yJ4LmFujxyKVdTTxU4q+J9X0C78seYtU8sXhLTaVMUhkNKyW7jnBJt/NGwNO3TOg7N&#xA;zcUOE84/c8r2xpuDJxjlL7/xu9i/5xWjT615ymFeTyWCHwokcxH/ABI5q9ef30vh9zu+yxWnj8fv&#xA;L37MNz3Yq7FXYq7FXYq7FXYq7FXgv/OT3lArDpvni0j+KyIsNYI720zfuZD2/dytx8TyHhmTpM3h&#xA;5AenVxNdp/GxGPXp73mHkH8wtZ8g63canYwrfaXfiMatp5PF3WHkEkif9l0DnbofupsdfozInJH4&#xA;uo7K7QjEDFPbuP6C+utA1zT9e0Wy1nTnL2V/Ck8DMKNxcVow3ow6EeOaV6JH4q7FXYq7FXYq7FXY&#xA;q7FUBr2iWGuaLe6PqCepZX8L2869+LilVPZh1B7HFXw7r1hqHl86voeobX+kSPaSMK0Za0jkXvxd&#xA;CGGbrHqb00u+Ir9TzubRgayP82R4vlufx5vtvyjokWheVtJ0aIgpp9pDb8h0Zo0AZtv5mqc0r0Sb&#xA;Yq7FXYq7FXYq7FXYq7FXYq+Zv+covJ1zF5k07XdOtXnPmCL9GXMcS1LXcdPq5O27Oh4j/Uy7Fl4Q&#xA;R0kKac2DjMT1jK/1vovQbK5sdC06yupPVubW1hhnlH7UkcaqzfSRlLcjsVdirsVf/9k=</xmpGImg:image>
               </rdf:li>
            </rdf:Alt>
         </xmp:Thumbnails>
      </rdf:Description>
      <rdf:Description rdf:about=""
            xmlns:xmpMM="http://ns.adobe.com/xap/1.0/mm/"
            xmlns:stRef="http://ns.adobe.com/xap/1.0/sType/ResourceRef#"
            xmlns:stEvt="http://ns.adobe.com/xap/1.0/sType/ResourceEvent#">
         <xmpMM:InstanceID>xmp.iid:F97F117407206811822A9DD448A483FF</xmpMM:InstanceID>
         <xmpMM:DocumentID>xmp.did:F97F117407206811822A9DD448A483FF</xmpMM:DocumentID>
         <xmpMM:OriginalDocumentID>uuid:5D20892493BFDB11914A8590D31508C8</xmpMM:OriginalDocumentID>
         <xmpMM:RenditionClass>proof:pdf</xmpMM:RenditionClass>
         <xmpMM:DerivedFrom rdf:parseType="Resource">
            <stRef:instanceID>uuid:ba5dc92b-6d0a-484a-ab90-b9370a4a0965</stRef:instanceID>
            <stRef:documentID>xmp.did:0980117407206811822A897E387FE54C</stRef:documentID>
            <stRef:originalDocumentID>uuid:5D20892493BFDB11914A8590D31508C8</stRef:originalDocumentID>
            <stRef:renditionClass>proof:pdf</stRef:renditionClass>
         </xmpMM:DerivedFrom>
         <xmpMM:History>
            <rdf:Seq>
               <rdf:li rdf:parseType="Resource">
                  <stEvt:action>saved</stEvt:action>
                  <stEvt:instanceID>xmp.iid:F97F117407206811822A9DD448A483FF</stEvt:instanceID>
                  <stEvt:when>2018-09-05T11:33:14-03:00</stEvt:when>
                  <stEvt:softwareAgent>Adobe Illustrator CS6 (Macintosh)</stEvt:softwareAgent>
                  <stEvt:changed>/</stEvt:changed>
               </rdf:li>
            </rdf:Seq>
         </xmpMM:History>
      </rdf:Description>
      <rdf:Description rdf:about=""
            xmlns:illustrator="http://ns.adobe.com/illustrator/1.0/">
         <illustrator:StartupProfile>Print</illustrator:StartupProfile>
      </rdf:Description>
      <rdf:Description rdf:about=""
            xmlns:xmpTPg="http://ns.adobe.com/xap/1.0/t/pg/"
            xmlns:stDim="http://ns.adobe.com/xap/1.0/sType/Dimensions#"
            xmlns:xmpG="http://ns.adobe.com/xap/1.0/g/">
         <xmpTPg:HasVisibleOverprint>False</xmpTPg:HasVisibleOverprint>
         <xmpTPg:HasVisibleTransparency>False</xmpTPg:HasVisibleTransparency>
         <xmpTPg:NPages>1</xmpTPg:NPages>
         <xmpTPg:MaxPageSize rdf:parseType="Resource">
            <stDim:w>21.000131</stDim:w>
            <stDim:h>29.700013</stDim:h>
            <stDim:unit>Centimeters</stDim:unit>
         </xmpTPg:MaxPageSize>
         <xmpTPg:PlateNames>
            <rdf:Seq>
               <rdf:li>Cyan</rdf:li>
               <rdf:li>Magenta</rdf:li>
               <rdf:li>Yellow</rdf:li>
               <rdf:li>Black</rdf:li>
            </rdf:Seq>
         </xmpTPg:PlateNames>
         <xmpTPg:SwatchGroups>
            <rdf:Seq>
               <rdf:li rdf:parseType="Resource">
                  <xmpG:groupName>Default Swatch Group</xmpG:groupName>
                  <xmpG:groupType>0</xmpG:groupType>
               </rdf:li>
            </rdf:Seq>
         </xmpTPg:SwatchGroups>
      </rdf:Description>
      <rdf:Description rdf:about=""
            xmlns:pdf="http://ns.adobe.com/pdf/1.3/">
         <pdf:Producer>Adobe PDF library 10.01</pdf:Producer>
      </rdf:Description>
   </rdf:RDF>
</x:xmpmeta>
                                                                                                    
                                                                                                    
                                                                                                    
                                                                                                    
                                                                                                    
                                                                                                    
                                                                                                    
                                                                                                    
                                                                                                    
                                                                                                    
                                                                                                    
                                                                                                    
                                                                                                    
                                                                                                    
                                                                                                    
                                                                                                    
                                                                                                    
                                                                                                    
                                                                                                    
                                                                                                    
                           
<?xpacket end="w"?>
	</metadata>
<g>
	<path fill="#FFFFFF" d="M33.913-37.704C28.078-23.602,11.917-16.901-2.184-22.735c-14.101-5.835-20.803-21.997-14.968-36.098
		c5.834-14.102,21.997-20.803,36.098-14.968C33.048-67.966,39.748-51.805,33.913-37.704"/>
	<path fill="#2B93D1" d="M13.464,128.596l1.11-5.469c0,0,0.856-3.267-0.374-4.271c-1.231-1.003-4.844-3.817-4.844-3.817
		s-0.789-2.467-0.629-4.048c0.159-1.58,0.038-12.827-0.67-15.097c-0.708-2.269-3.316-6.312-3.316-6.312s-3.064-3.738-3.617-4.791
		s-0.277-2.913-0.277-2.913l1.9-3.002c0,0,2.619-1.552,3.682-2.924c1.061-1.372,5.357-10.958,5.357-10.958l3.533-4.96l0.932,2.526
		l-2.066,2.604c0,0-1.479,3.175-0.072,3.757c1.406,0.581,3.699,0.212,3.699,0.212l1.996-1.642l17.116-37.383
		c0,0,2.7-6.128,1.183-9.226S25.082-15.302,25.082-15.302s-2.691-9.017-8.363-7.248l-3.447,2.362c0,0-7.268,0.451-10.396-0.35
		c-3.127-0.8-13.594-6.943-13.594-6.943l-7.379-11.616l-1.479-11.152c0,0-15.341-36.155-15.599-35.932
		c-0.256,0.224-1.216-4.62-0.761-4.926c0.456-0.306,13.974-34.564,13.974-34.564l3.462-1.202l2.201,0.251l1.75,2.536l3.636-1.625
		l1.426-1.057l-0.921-3.345l1.502-2.837l0.685-2.846c0,0,0.275-1.861-1.479-1.599l-12.785,3.438c0,0-4.833,0.141-7.127,5.284
		c-2.293,5.144-15.006,38.255-15.006,38.255s-1.896,4.978-0.247,8.954s21.746,51.321,21.746,51.321l-2.356,8.083l-4.698,12.547
		c0,0-0.688,5.644,1.236,7.758c1.926,2.114,4.397,3.302,4.397,3.302s-1.866,3.653-3.893,7.754
		c-2.027,4.102-2.514,10.832-3.445,17.856s0.666,12.8,1.941,17.278c1.276,4.481,7.98,18.124,7.98,18.124l-5.638,29.945
		c0,0,0.437,6.108,5.417,8.005c4.979,1.895,8.203-0.723,8.203-0.723l3.33-2.08l2.992-2.057l18.838,39.248l1.072,2.585l2.248-3.845
		L13.464,128.596z M3.714,10.89L16.839-8.085l12.943,33.527L26.1,35.066c0,0-1.504,6.911-1.792,7.244
		c-0.286,0.332-2.327,6.719-2.327,6.719s-5.039,1.982-5.457,2.262c-0.416,0.278,2.134-3.336,2.134-3.336l0.457-5.836l-1.109-6.787
		L3.714,10.89z"/>
	<path fill="#ED7E1E" d="M-25.993-65.247c0,0,5.957,14.364,6,14.259c0.044-0.105,2.868-8.731,2.868-8.731l6.39-9.751
		C-10.735-69.47-17.846-70.554-25.993-65.247"/>
	<path fill="#ED7E1E" d="M-35.092-56.74c0,0-6.792,11.322-6.007,18.711c0.785,7.391,3.88,15.49,3.88,15.49s2.245,2.664,1.781,4.084
		c-0.464,1.419-1.679,1.661-1.679,1.661l-1.993-0.577c0,0-2.65-2.583-4.127-1.708c-1.478,0.875-1.916,1.933-1.789,3.721
		c0.128,1.789,6.701,12.566,9.208,14.596c2.508,2.029,7.763,3.708,7.763,3.708l4.354,0.562l-0.839-1.959
		c0,0-3.714-1.898-4.397-3.302s-1.654-5.648-1.402-7.155c0.251-1.508,6.573-21.575,6.784-21.488
		C-23.344-30.309-35.092-56.74-35.092-56.74"/>
	<path fill="#ED7E1E" d="M36.656-49.489c0,0-0.938,9.156-2.007,11.44c-1.07,2.285-7.544,10.143-7.544,10.143l-6.825,5.109
		c0,0,3.379,2.089,4.092,4.792c0.713,2.702,5.23,16.42,5.23,16.42s3.467-1.789,6.737-4.898C39.61-9.591,53.815-29.249,36.656-49.489
		"/>
	<path fill="#ED7E1E" d="M16.386-8.292c0,0-13.697,19.619-13.335,19.646c0.361,0.025,3.492,5.041,3.81,5.172
		c0.317,0.132,7.084-0.043,10.288-1.197c3.205-1.153,6.299-3.839,6.299-3.839l-0.625-2.986l-4.102-2.07c0,0-1.829-1.871-1.373-2.676
		c0.457-0.802,3.362-1.832,3.362-1.832L16.386-8.292z"/>
	<path fill="#206D9C" d="M-7.351-26.419c0,0,4.328,0.923,7.127-0.15c2.8-1.073,23.63-7.081,23.63-7.081l2.256,7.132
		c0,0-5.401,3.467-5.894,3.759c-0.493,0.292-3.047,0.21-3.047,0.21l-3.529,1.904C13.192-20.646-0.573-18.533-7.351-26.419"/>
	<path fill="#FFFFFF" d="M11.24-30.007l10.266,4.248l-4.955,1.792C16.551-23.967,12.613-27.332,11.24-30.007"/>
	<path fill="#206D9C" d="M-0.198-21.175L7.964-7.953L-2.853,7.336c0,0-4.981,2.982-7.783,1.823C-13.438,8-21.417,3.872-21.417,3.872
		l17.095,27.019c0,0,4.876-2.022,5.546,0.021c0.67,2.045-8.103,3.717-10.77,5.895l-13.676,57.454c0,0-0.118,5.019,1.045,6.249
		c1.162,1.229,8.203-0.723,8.203-0.723l6.322-4.137l18.188,37.824l1.72,4.01l1.938-5.526l-0.73-3.362l1.866-8.536
		c0,0-5.347-4.025-5.973-5.021c-0.627-0.992-0.701-2.033-0.701-2.033s0.633-13.119,0.217-14.553
		c-0.418-1.435-2.893-8.265-2.893-8.265l-3.903-3.383L0.382,83.58l1.303-3.754c0,0,3.436-1.67,4.743-3.874
		c1.306-2.206,5.357-10.959,5.357-10.959l-1.888-1.966l4.072-7.403l1.338-3.232l1.539-1.89c0,0,2.474-7.812,2.074-10.501
		c-0.403-2.689-1.703-6.259-1.703-6.259L3.713,10.888L16.428-9.5l-3.236-11.148L-0.198-21.175z"/>
	<path fill="#47B6E8" d="M8.627-41.692c2.216-5.357,8.356-7.903,13.713-5.687c5.357,2.217,7.903,8.357,5.686,13.715
		c-0.65,1.574-1.643,2.903-2.853,3.942l0.955,1.01c1.946-1.723,3.542-3.903,4.603-6.465c3.73-9.016-0.555-19.348-9.57-23.079
		c-9.015-3.73-19.348,0.554-23.079,9.57c-3.101,7.492-0.661,15.891,5.425,20.657l6.743-2.942
		C7.846-33.871,7.087-37.969,8.627-41.692"/>
	<path fill="#231F20" d="M22.34-47.378c-5.357-2.216-11.498,0.329-13.713,5.687c-1.54,3.723-0.78,7.821,1.623,10.72l1.228-0.534
		l12.72-2.325l0.975,4.11c1.209-1.04,2.201-2.368,2.854-3.943C30.242-39.021,27.698-45.162,22.34-47.378"/>
	<path fill="#231F20" d="M20.996-28.663c-0.502-0.208-1.029-0.536-1.557-1.036c-0.283-0.269-0.296-0.719-0.025-1.001
		c0.27-0.284,0.717-0.297,1.002-0.027c1.628,1.544,3.164,0.771,3.18,0.763c0.347-0.181,0.773-0.046,0.955,0.301
		s0.045,0.775-0.301,0.956C24.173-28.667,22.736-27.943,20.996-28.663"/>
	<path fill="#231F20" d="M16.651-23.248c-0.031-0.013-0.061-0.029-0.089-0.048c-3.693-2.433-5.938-6.729-6.032-6.91
		c-0.104-0.203-0.067-0.452,0.094-0.615c0.16-0.164,0.411-0.204,0.615-0.104l8.873,4.361l3.291-0.188
		c0.262-0.015,0.496,0.163,0.551,0.42c0.054,0.257-0.087,0.516-0.332,0.608l-6.579,2.482C16.914-23.194,16.774-23.197,16.651-23.248
		 M12.396-29.172c0.923,1.388,2.497,3.432,4.527,4.839l3.074-1.16c-0.079-0.001-0.159-0.02-0.229-0.054L12.396-29.172z"/>
	<path fill="#231F20" d="M-2.566-21.672L-2.566-21.672c-14.672-6.071-21.669-22.945-15.598-37.616
		c6.07-14.671,22.944-21.668,37.615-15.597c14.671,6.071,21.668,22.945,15.598,37.615c-2.834,6.849-8.123,12.281-14.893,15.296
		c-0.447,0.198-0.971-0.003-1.17-0.449c-0.2-0.446,0.002-0.971,0.449-1.17c6.354-2.829,11.316-7.926,13.976-14.354
		c5.697-13.767-0.868-29.604-14.636-35.301c-13.769-5.698-29.605,0.87-35.302,14.638c-5.697,13.768,0.87,29.604,14.638,35.301
		c4.968,2.055,10.368,2.586,15.618,1.534c0.48-0.096,0.947,0.214,1.043,0.695c0.096,0.479-0.216,0.946-0.694,1.042
		C8.482-18.917,2.727-19.482-2.566-21.672"/>
	<path fill="#FFFFFF" d="M16.07-45.955c-0.812,1.96-3.057,2.892-5.017,2.08c-1.96-0.811-2.893-3.057-2.081-5.018
		c0.812-1.959,3.058-2.89,5.019-2.08C15.95-50.161,16.882-47.915,16.07-45.955"/>
	<path fill="#FFFFFF" d="M21.413-47.484c-0.352,0.85-1.324,1.253-2.174,0.902c-0.851-0.352-1.253-1.325-0.901-2.175
		c0.352-0.849,1.324-1.253,2.174-0.901S21.764-48.333,21.413-47.484"/>
	<path fill="#231F20" d="M-9.885-26.086c-0.442-0.183-0.661-0.687-0.487-1.136c0.174-0.456,0.686-0.684,1.142-0.51
		c0.052,0.02,5.31,1.956,11.228-0.606c10.783-4.667,21.96-6.353,22.072-6.37c0.45-0.067,0.878,0.219,0.988,0.663l1.728,6.917
		c0.118,0.475-0.171,0.955-0.644,1.074c-0.475,0.119-0.955-0.17-1.074-0.645l-1.531-6.126c-2.705,0.469-11.91,2.25-20.835,6.112
		c-6.604,2.859-12.324,0.727-12.563,0.635C-9.87-26.081-9.878-26.083-9.885-26.086"/>
	<path fill="#231F20" d="M-31.523,2.353c-5.245-2.171-8.646-5.919-10.721-9.083c-2.707-4.123-4.069-8.805-3.6-10.427
		c0.901-3.113,2.84-2.665,4.257-2.338c0.479,0.112,1.06,0.363,1.731,0.654c1.163,0.503,3.074,1.33,3.64,0.785
		c-0.085-0.423-0.633-1.493-1.122-2.446c-2.767-5.4-8.524-16.634-1.289-31.517c0.929-1.91,1.989-3.708,3.153-5.342
		c0.283-0.398,0.835-0.493,1.235-0.208c0.399,0.284,0.492,0.837,0.208,1.236c-1.107,1.555-2.117,3.268-3.003,5.09
		c-6.849,14.088-1.364,24.791,1.272,29.934c1.103,2.15,1.655,3.229,1.133,4.083c-1.248,2.039-4.066,0.819-5.932,0.011
		c-0.568-0.245-1.104-0.478-1.426-0.553c-1.392-0.321-1.722-0.397-2.156,1.105c-0.185,0.637,0.481,4.546,3.378,8.962
		c2.58,3.932,7.363,8.837,15.495,9.881c0.487,0.062,0.828,0.506,0.766,0.991c-0.062,0.484-0.506,0.827-0.991,0.767
		C-27.732,3.648-29.734,3.092-31.523,2.353"/>
	<path fill="#231F20" d="M-26.178-64.417c-0.167-0.069-0.315-0.189-0.417-0.356c-0.254-0.418-0.122-0.964,0.294-1.219
		c7.857-4.794,15.285-4.433,15.597-4.415c0.488,0.027,0.862,0.446,0.834,0.934c-0.028,0.489-0.446,0.863-0.934,0.835
		c-0.094-0.006-7.222-0.328-14.575,4.159C-25.629-64.326-25.926-64.312-26.178-64.417"/>
	<path fill="#231F20" d="M6.538,17.177c-0.359-0.148-0.59-0.525-0.538-0.93c0.062-0.486,0.505-0.828,0.991-0.767
		c8.941,1.146,15.638-3.512,16.091-4.328c0.053-0.097,0.102-0.188,0.143-0.275c0.213-0.441,0.74-0.628,1.184-0.414
		c0.439,0.212,0.626,0.741,0.414,1.181c-0.057,0.116-0.119,0.237-0.188,0.362c-0.993,1.806-8.678,6.408-17.871,5.233
		C6.686,17.229,6.61,17.207,6.538,17.177"/>
	<path fill="#231F20" d="M22.469,8.915c-0.045-0.02-0.089-0.042-0.131-0.067c-0.26-0.162-0.789-0.385-1.35-0.621
		c-2.177-0.916-5.464-2.3-4.597-4.832c0.392-1.142,1.853-1.672,4.039-2.348c0.469-0.146,0.965,0.115,1.109,0.583
		s-0.117,0.964-0.584,1.108c-0.74,0.229-2.703,0.837-2.889,1.233c-0.33,0.965,2.232,2.044,3.609,2.622
		c0.654,0.276,1.221,0.514,1.6,0.75c0.414,0.26,0.541,0.806,0.283,1.221C23.326,8.938,22.862,9.077,22.469,8.915"/>
	<path fill="#231F20" d="M29.571-0.854c-0.183-0.075-0.34-0.211-0.44-0.396c-0.233-0.43-0.073-0.967,0.357-1.2
		c6.223-3.374,10.476-8.571,12.999-15.889c3.445-9.989,1.545-17.854-0.656-22.692c-2.382-5.233-5.58-8.122-5.613-8.15
		c-0.365-0.325-0.396-0.885-0.072-1.25c0.324-0.366,0.887-0.397,1.251-0.072c0.142,0.126,3.513,3.168,6.046,8.738
		c2.336,5.134,4.355,13.464,0.721,24.005c-2.677,7.756-7.199,13.274-13.831,16.868C30.086-0.762,29.807-0.755,29.571-0.854"/>
	<path fill="#231F20" d="M-23.851-30.064c-0.207-0.086-0.382-0.249-0.477-0.471c-0.792-1.85-19.433-45.387-21.169-50.517
		c-1.793-5.293,0.637-10.867,0.862-11.364c0.625-1.612,12.35-31.84,14.424-36.193c2.24-4.697,5.966-5.868,6.124-5.917l12.893-3.782
		c0.95-0.385,2.715-0.641,3.541,0.753c0.917,1.546,0.164,5.882-2.19,7.425c-0.41,0.269-0.959,0.154-1.227-0.255
		c-0.268-0.41-0.153-0.958,0.255-1.227c1.561-1.022,2.05-4.344,1.638-5.04c-0.206-0.349-1.085-0.124-1.382-0.001
		c-0.028,0.012-0.062,0.023-0.092,0.031l-12.931,3.794c-0.116,0.037-3.143,1.024-5.029,4.98
		c-2.059,4.317-14.258,35.779-14.38,36.095c-0.008,0.019-0.015,0.036-0.022,0.053c-0.024,0.052-2.413,5.332-0.805,10.08
		c1.715,5.064,20.926,49.935,21.12,50.387c0.192,0.45-0.016,0.971-0.466,1.163C-23.392-29.971-23.639-29.977-23.851-30.064"/>
	<path fill="#231F20" d="M-14.988-123.3c-0.434-0.179-0.758-0.508-0.943-0.952c-0.076-0.184-0.107-0.305-0.129-0.394
		c-0.035-0.137-0.087-0.343-0.77-1.625c-0.229-0.432-0.067-0.968,0.365-1.198c0.432-0.231,0.969-0.067,1.199,0.365
		c0.727,1.366,0.841,1.699,0.923,2.021c0.017,0.063,0.022,0.088,0.049,0.153c0.134,0.042,0.51-0.024,0.776-0.139l2.078-0.928
		c0.625-0.307,1.001-0.677,1.116-1.1c0.181-0.669-0.283-1.372-0.288-1.379c-0.031-0.047-0.062-0.101-0.084-0.152l-2.361-5.534
		c-0.192-0.45,0.018-0.97,0.467-1.162c0.451-0.192,0.971,0.018,1.162,0.467l2.332,5.463c0.209,0.333,0.822,1.459,0.488,2.736
		c-0.25,0.954-0.947,1.715-2.071,2.261c-0.009,0.004-0.017,0.008-0.025,0.012l-2.097,0.937c-0.202,0.089-1.255,0.521-2.165,0.159
		C-14.973-123.294-14.98-123.297-14.988-123.3"/>
	<path fill="#231F20" d="M-21.509-124.953l0.014-0.027l-1.584-0.792c0.078-0.157,0.834-1.534,3.335-1.853
		c0.632-0.081,1.31-0.057,1.966-0.034c1.934,0.068,3.161,0.015,3.893-1.285c0.24-0.427,0.784-0.577,1.207-0.337
		c0.426,0.24,0.577,0.78,0.336,1.206c-1.314,2.333-3.634,2.252-5.499,2.188c-0.612-0.021-1.191-0.042-1.68,0.02
		C-21.063-125.671-21.491-124.982-21.509-124.953"/>
	<path fill="#231F20" d="M-36.692-85.29c-0.192-0.08-0.358-0.228-0.457-0.429c-0.97-1.98-0.111-3.833,0.096-4.229l14.548-37.679
		c0.177-0.457,0.689-0.684,1.146-0.507c0.455,0.173,0.684,0.689,0.507,1.146l-14.569,37.732c-0.017,0.043-0.038,0.086-0.062,0.127
		c-0.027,0.046-0.723,1.312-0.076,2.632c0.215,0.438,0.033,0.97-0.406,1.185C-36.2-85.196-36.465-85.196-36.692-85.29"/>
	<path fill="#231F20" d="M-19.917-48.727c-0.208-0.087-0.383-0.251-0.477-0.475c-0.145-0.342-14.453-34.201-15.393-36.469
		c-0.834-2.01-0.322-4.967-0.074-6.387c0.036-0.204,0.076-0.433,0.085-0.527c-0.018-0.43,0.279-0.82,0.713-0.906
		c0.48-0.095,0.946,0.218,1.042,0.697c0.046,0.231,0.011,0.435-0.094,1.039c-0.202,1.158-0.672,3.87-0.035,5.406
		c0.938,2.262,15.244,36.116,15.388,36.458c0.19,0.451-0.021,0.971-0.47,1.161C-19.461-48.635-19.706-48.641-19.917-48.727"/>
	<path fill="#231F20" d="M-11.428,9.629c-0.667-0.276-1.194-0.564-1.531-0.747c-0.122-0.066-0.214-0.119-0.275-0.146
		c-0.029-0.013-0.058-0.028-0.085-0.044c-0.076-0.044-7.609-4.4-13.075-7.348c-5.892-3.177-5.656-8.562-4.703-10.983
		c0.199-0.569,5.084-14.517,6.628-18.633c2.438-6.499-0.687-10.827-0.719-10.871c-0.292-0.393-0.208-0.947,0.184-1.239
		c0.394-0.291,0.948-0.208,1.239,0.184c0.154,0.208,3.729,5.156,0.955,12.549c-1.562,4.161-6.571,18.469-6.621,18.613
		c-0.003,0.011-0.009,0.022-0.013,0.033c-0.087,0.223-2.081,5.566,3.891,8.788c5.294,2.854,12.513,7.021,13.084,7.353
		c0.098,0.045,0.21,0.107,0.357,0.188c6.077,3.31,8.854-0.728,9.768-2.055c2.762-4.015,4.758-6.916,8.527-6.65
		c0.486,0.034,0.854,0.459,0.82,0.947C6.969,0.057,6.546,0.424,6.057,0.39C3.419,0.203,1.942,2.169-0.884,6.275
		c-1.944,2.826-4.365,4.214-7.194,4.122C-9.364,10.355-10.524,10.003-11.428,9.629"/>
	<path fill="#231F20" d="M-11.361-18.402c-0.033-0.013-0.065-0.03-0.097-0.047c-0.427-0.24-0.578-0.781-0.339-1.206
		c2.742-4.881-2.48-10.834-2.533-10.894c-0.326-0.365-0.293-0.925,0.072-1.251c0.365-0.325,0.926-0.293,1.25,0.073
		c0.062,0.07,1.534,1.733,2.623,4.121c1.491,3.268,1.537,6.317,0.133,8.818C-10.473-18.393-10.952-18.233-11.361-18.402"/>
	<path fill="#231F20" d="M-16.003-16.998c-0.106-0.044-0.205-0.115-0.282-0.212l-5.169-6.468c-0.245-0.305-0.195-0.751,0.11-0.996
		s0.751-0.195,0.997,0.111l5.169,6.468c0.245,0.306,0.195,0.752-0.111,0.995C-15.497-16.933-15.772-16.902-16.003-16.998"/>
	<path fill="#231F20" d="M-8.434-13.054c-0.23-0.095-0.404-0.311-0.435-0.576c-0.043-0.388,0.236-0.74,0.625-0.783l8.229-0.924
		c0.389-0.044,0.74,0.236,0.783,0.625c0.044,0.389-0.236,0.739-0.625,0.783l-8.229,0.924C-8.208-12.992-8.327-13.01-8.434-13.054"/>
	<path fill="#231F20" d="M3.493,16.964c-0.198-0.083-0.367-0.237-0.466-0.449c-2.103-4.584,1.005-8.258,1.462-8.759L16.166-8.726
		c0.284-0.399,0.837-0.493,1.235-0.211c0.398,0.282,0.493,0.835,0.211,1.234L5.902,8.827C5.877,8.862,5.85,8.896,5.82,8.928
		c-0.117,0.122-2.89,3.125-1.181,6.848c0.203,0.446,0.008,0.971-0.437,1.176C3.969,17.058,3.714,17.055,3.493,16.964"/>
	<path fill="#231F20" d="M13.86,70.382c-0.348-0.145-0.714-0.382-1.006-0.773c-0.575-0.771-0.644-1.85-0.2-3.204
		c0.463-1.421,1.417-2.188,2.113-2.75c1.01-0.813,1.315-1.059,0.104-2.921c-0.266-0.41-0.15-0.958,0.26-1.226
		c0.412-0.268,0.959-0.15,1.226,0.26c1.924,2.964,0.922,4.138-0.479,5.268c-0.637,0.514-1.239,1-1.539,1.919
		c-0.243,0.744-0.267,1.325-0.063,1.597c0.181,0.243,0.577,0.274,0.64,0.278l2.46-0.177l2.163-1.877
		c1.256-2.791,16.682-37.097,17.633-40.008c0.89-2.725-0.79-6.43-0.808-6.469c-0.01-0.023-0.021-0.048-0.029-0.072
		c-0.436-1.22-10.679-29.935-11.65-34.127c-0.662-2.855-2.352-6.284-4.633-7.506c-1.021-0.548-2.068-0.61-3.195-0.188
		c-1.709,0.641-2.816,1.883-3.296,3.693c-0.364,1.377-0.218,2.59-0.217,2.602c0.065,0.485-0.276,0.931-0.761,0.995
		s-0.93-0.276-0.994-0.761c-0.283-2.124,0.322-6.567,4.645-8.188c1.609-0.603,3.175-0.507,4.655,0.287
		c2.958,1.586,4.823,5.659,5.521,8.667c0.934,4.029,11.162,32.724,11.58,33.896c0.209,0.467,1.93,4.464,0.865,7.721
		c-1.014,3.108-17.098,38.843-17.781,40.362c-0.053,0.117-0.131,0.222-0.227,0.305l-2.533,2.198c-0.146,0.126-0.325,0.2-0.518,0.215
		l-2.789,0.199c-0.012,0.001-0.026,0.001-0.039,0.002C14.885,70.602,14.396,70.604,13.86,70.382"/>
	<path fill="#231F20" d="M29.382,26.323c-0.22-0.091-0.402-0.27-0.491-0.51L15.572-10c-0.171-0.458,0.063-0.969,0.521-1.14
		c0.46-0.169,0.968,0.063,1.138,0.522l13.319,35.813c0.17,0.458-0.062,0.969-0.521,1.139C29.811,26.417,29.581,26.405,29.382,26.323
		"/>
	<path fill="#231F20" d="M10.856,65.181c-0.837-0.347-1.436-1.136-1.57-1.325c-0.207-0.288-0.22-0.67-0.037-0.973
		c0.033-0.054,3.348-5.545,4.087-8.568c0.643-2.627,3.634-3.771,6.038-4.691c0.875-0.335,1.705-0.653,2.246-0.978
		c0.447-1.108,2.226-5.628,2.688-8.391c0.591-3.535,2.312-8.896,3.842-11.95c1.471-2.943,1.794-6.179,1.797-6.213
		c0.048-0.486,0.479-0.843,0.966-0.797c0.489,0.046,0.845,0.479,0.8,0.964c-0.014,0.145-0.354,3.589-1.979,6.838
		c-1.461,2.924-3.111,8.06-3.678,11.45c-0.561,3.35-2.804,8.796-2.898,9.025c-0.064,0.154-0.168,0.287-0.304,0.384
		c-0.705,0.503-1.744,0.9-2.846,1.321c-2.122,0.812-4.528,1.732-4.95,3.456c-0.662,2.72-3.064,6.976-3.959,8.505
		c0.228,0.208,0.453,0.348,0.547,0.335c0.01-0.004,0.045-0.025,0.1-0.087c0.797-0.919,2.583-4.091,3.203-5.235
		c0.098-0.177,0.253-0.317,0.439-0.395c0.824-0.342,2.648-0.477,3.665,1.458c0.228,0.433,0.062,0.969-0.372,1.196
		c-0.432,0.227-0.968,0.062-1.195-0.372c-0.353-0.671-0.83-0.753-1.162-0.709c-0.571,1.035-2.319,4.155-3.239,5.218
		c-0.529,0.61-1.122,0.716-1.527,0.696C11.307,65.33,11.075,65.271,10.856,65.181"/>
	<path fill="#231F20" d="M-22.646,101.412c-2.104-0.869-3.723-2.647-4.713-5.184c-0.796-2.044-0.904-3.863-0.909-3.938
		c-0.004-0.066,0-0.133,0.011-0.199c0.045-0.268,4.626-26.949,7.531-39.15C-17.736,40.38-9.386,35.83-9.031,35.644
		c0.432-0.229,0.967-0.063,1.196,0.368c0.228,0.431,0.063,0.966-0.366,1.195l0,0c-0.02,0.011-2.025,1.099-4.348,3.624
		c-2.139,2.325-4.994,6.385-6.454,12.52c-2.797,11.751-7.167,37.059-7.489,38.933c0.07,0.778,0.716,6.333,5.027,7.674
		c2.961,0.924,5.551-0.221,6.832-0.982c1.836-1.094,2.844-2.463,3.004-3.272c0.513-2.602,6.79-11.327,7.571-12.406L9.264,62.857
		c0.268-0.409,0.816-0.525,1.227-0.258c0.409,0.266,0.525,0.815,0.258,1.224L-2.585,84.279c-0.008,0.013-0.017,0.025-0.025,0.036
		C-5.249,87.957-9.558,94.36-9.89,96.044c-0.296,1.491-1.801,3.239-3.835,4.45c-1.536,0.914-4.649,2.279-8.266,1.152
		C-22.214,101.58-22.432,101.5-22.646,101.412"/>
	<path fill="#231F20" d="M16.216,52.259c-0.043-0.018-0.086-0.04-0.127-0.065c-0.416-0.257-0.545-0.802-0.289-1.219
		c5.369-8.685,0.003-17.121-0.052-17.205c-0.008-0.012-0.016-0.023-0.024-0.037L3.075,11.994c-0.246-0.423-0.104-0.965,0.32-1.21
		c0.423-0.246,0.965-0.104,1.211,0.319l12.638,21.721c0.162,0.256,1.562,2.514,2.291,5.878c0.702,3.243,0.885,8.168-2.229,13.203
		C17.076,52.28,16.611,52.422,16.216,52.259"/>
	<path fill="#231F20" d="M-19.75,50.904c-0.162-0.067-0.306-0.183-0.408-0.343c-1.664-2.607-3.27-6.465-3.337-6.627
		c-0.188-0.452,0.026-0.971,0.479-1.158c0.451-0.188,0.97,0.027,1.158,0.478c0.016,0.04,1.615,3.88,3.196,6.355
		c0.262,0.413,0.141,0.961-0.271,1.225C-19.187,50.995-19.491,51.012-19.75,50.904"/>
	<path fill="#231F20" d="M-12.573,99.598c-0.167-0.068-0.314-0.188-0.415-0.354c-0.256-0.415-0.127-0.961,0.291-1.218
		c0.074-0.046,7.424-4.611,9.524-9.072c0.455-0.967,0.986-2.281,1.599-3.802c2.478-6.144,5.871-14.558,10.787-17.08
		c0.435-0.222,0.969-0.051,1.192,0.385s0.051,0.969-0.384,1.193c-4.329,2.22-7.714,10.612-9.953,16.165
		c-0.622,1.546-1.161,2.883-1.639,3.895c-2.323,4.938-9.878,9.626-10.198,9.825C-12.021,99.689-12.319,99.703-12.573,99.598"/>
	<path fill="#231F20" d="M2.149,79.717c-0.265-0.109-0.472-0.345-0.531-0.647c-0.095-0.476,0.211-0.937,0.684-1.039
		c0.053-0.011,1.604-0.417,3.789-2.833c1.492-1.65,2.234-4.329,2.828-6.481c0.344-1.24,0.615-2.221,0.986-2.848l0.899-1.521
		c0.249-0.422,0.793-0.56,1.215-0.311c0.421,0.25,0.56,0.793,0.31,1.214l-0.9,1.521c-0.25,0.423-0.518,1.393-0.801,2.418
		c-0.611,2.21-1.448,5.234-3.223,7.196c-2.614,2.89-4.537,3.34-4.746,3.383C2.481,79.802,2.303,79.781,2.149,79.717"/>
	<path fill="#231F20" d="M-22.257,63.435c-0.202-0.083-0.375-0.243-0.47-0.458c-3.839-8.623-6.372-14.618-7.531-17.813
		c-5.352-14.769-1.424-30.328,0.541-35.076c1.923-4.648,4.549-8.618,4.661-8.785c0.27-0.407,0.82-0.518,1.228-0.248
		c0.408,0.271,0.519,0.821,0.248,1.229c-0.027,0.04-2.645,3.999-4.499,8.48c-1.892,4.573-5.672,19.558-0.512,33.796
		c1.145,3.158,3.661,9.112,7.482,17.698c0.199,0.446-0.002,0.97-0.448,1.168C-21.787,63.528-22.039,63.524-22.257,63.435"/>
	<path fill="#231F20" d="M11.653,138.515c-0.555-0.23-0.924-0.85-0.984-1.692c-0.07-0.669-1.777-5.09-3.391-8.983
		c-0.297-0.627-7.18-15.164-14.94-31.88c-0.205-0.442-0.013-0.97,0.431-1.177c0.444-0.205,0.971-0.012,1.178,0.431
		c7.89,16.997,14.873,31.74,14.941,31.888c0.006,0.012,0.013,0.026,0.019,0.039c0.739,1.786,3.024,7.359,3.46,9.166
		c0.096-0.176,0.205-0.404,0.327-0.698c0.942-2.279,0.819-2.925,0.085-5.599c-0.541-1.964,0.135-4.195,0.73-6.166
		c0.316-1.046,0.617-2.032,0.64-2.719c0.036-1.077-0.87-1.793-2.61-3.068c-0.586-0.429-1.248-0.913-1.928-1.476
		c-1.965-1.625-1.74-5.521-1.504-9.646c0.131-2.258,0.266-4.594-0.017-6.271C7.27,95.778,6.37,91.813,2.921,88.92
		c-2.752-2.311-3.413-5.185-3.441-5.306c-0.104-0.479,0.196-0.95,0.675-1.057c0.476-0.105,0.948,0.194,1.056,0.671
		c0.006,0.024,0.576,2.427,2.852,4.336c3.91,3.281,4.896,7.558,5.776,12.805c0.315,1.875,0.174,4.311,0.039,6.666
		c-0.192,3.341-0.411,7.127,0.863,8.18c0.64,0.529,1.251,0.978,1.846,1.412c1.825,1.337,3.403,2.492,3.334,4.557
		c-0.03,0.919-0.362,2.013-0.714,3.173c-0.527,1.739-1.124,3.712-0.72,5.182c0.782,2.843,0.995,3.967-0.155,6.747
		c-0.26,0.626-1.047,2.527-2.394,2.309C11.838,138.579,11.743,138.551,11.653,138.515"/>
</g>
</svg>
