<?xml version="1.0" encoding="utf-8"?>
<!-- Generator: Adobe Illustrator 16.0.0, SVG Export Plug-In . SVG Version: 6.00 Build 0)  -->
<!DOCTYPE svg PUBLIC "-//W3C//DTD SVG 1.1//EN" "http://www.w3.org/Graphics/SVG/1.1/DTD/svg11.dtd" [
	<!ENTITY ns_extend "http://ns.adobe.com/Extensibility/1.0/">
	<!ENTITY ns_ai "http://ns.adobe.com/AdobeIllustrator/10.0/">
	<!ENTITY ns_graphs "http://ns.adobe.com/Graphs/1.0/">
	<!ENTITY ns_vars "http://ns.adobe.com/Variables/1.0/">
	<!ENTITY ns_imrep "http://ns.adobe.com/ImageReplacement/1.0/">
	<!ENTITY ns_sfw "http://ns.adobe.com/SaveForWeb/1.0/">
	<!ENTITY ns_custom "http://ns.adobe.com/GenericCustomNamespace/1.0/">
	<!ENTITY ns_adobe_xpath "http://ns.adobe.com/XPath/1.0/">
]>
<svg version="1.1" id="Layer_1" xmlns:x="&ns_extend;" xmlns:i="&ns_ai;" xmlns:graph="&ns_graphs;"
	 xmlns="http://www.w3.org/2000/svg" xmlns:xlink="http://www.w3.org/1999/xlink" x="0px" y="0px" width="595.279px"
	 height="841.89px" viewBox="0 0 595.279 841.89" enable-background="new 0 0 595.279 841.89" xml:space="preserve">
<metadata><?xpacket begin="﻿" id="W5M0MpCehiHzreSzNTczkc9d"?>
<x:xmpmeta xmlns:x="adobe:ns:meta/" x:xmptk="Adobe XMP Core 5.3-c011 66.145661, 2012/02/06-14:56:27        ">
   <rdf:RDF xmlns:rdf="http://www.w3.org/1999/02/22-rdf-syntax-ns#">
      <rdf:Description rdf:about=""
            xmlns:dc="http://purl.org/dc/elements/1.1/">
         <dc:format>image/svg+xml</dc:format>
         <dc:title>
            <rdf:Alt>
               <rdf:li xml:lang="x-default">Print</rdf:li>
            </rdf:Alt>
         </dc:title>
      </rdf:Description>
      <rdf:Description rdf:about=""
            xmlns:xmp="http://ns.adobe.com/xap/1.0/"
            xmlns:xmpGImg="http://ns.adobe.com/xap/1.0/g/img/">
         <xmp:MetadataDate>2018-09-05T11:35:22-03:00</xmp:MetadataDate>
         <xmp:ModifyDate>2018-09-05T11:35:22-03:00</xmp:ModifyDate>
         <xmp:CreateDate>2018-09-05T11:35:22-03:00</xmp:CreateDate>
         <xmp:CreatorTool>Adobe Illustrator CS6 (Macintosh)</xmp:CreatorTool>
         <xmp:Thumbnails>
            <rdf:Alt>
               <rdf:li rdf:parseType="Resource">
                  <xmpGImg:width>108</xmpGImg:width>
                  <xmpGImg:height>256</xmpGImg:height>
                  <xmpGImg:format>JPEG</xmpGImg:format>
                  <xmpGImg:image>/9j/4AAQSkZJRgABAgEASABIAAD/7QAsUGhvdG9zaG9wIDMuMAA4QklNA+0AAAAAABAASAAAAAEA&#xA;AQBIAAAAAQAB/+4ADkFkb2JlAGTAAAAAAf/bAIQABgQEBAUEBgUFBgkGBQYJCwgGBggLDAoKCwoK&#xA;DBAMDAwMDAwQDA4PEA8ODBMTFBQTExwbGxscHx8fHx8fHx8fHwEHBwcNDA0YEBAYGhURFRofHx8f&#xA;Hx8fHx8fHx8fHx8fHx8fHx8fHx8fHx8fHx8fHx8fHx8fHx8fHx8fHx8fHx8f/8AAEQgBAABsAwER&#xA;AAIRAQMRAf/EAaIAAAAHAQEBAQEAAAAAAAAAAAQFAwIGAQAHCAkKCwEAAgIDAQEBAQEAAAAAAAAA&#xA;AQACAwQFBgcICQoLEAACAQMDAgQCBgcDBAIGAnMBAgMRBAAFIRIxQVEGE2EicYEUMpGhBxWxQiPB&#xA;UtHhMxZi8CRygvElQzRTkqKyY3PCNUQnk6OzNhdUZHTD0uIIJoMJChgZhJRFRqS0VtNVKBry4/PE&#xA;1OT0ZXWFlaW1xdXl9WZ2hpamtsbW5vY3R1dnd4eXp7fH1+f3OEhYaHiImKi4yNjo+Ck5SVlpeYmZ&#xA;qbnJ2en5KjpKWmp6ipqqusra6voRAAICAQIDBQUEBQYECAMDbQEAAhEDBCESMUEFURNhIgZxgZEy&#xA;obHwFMHR4SNCFVJicvEzJDRDghaSUyWiY7LCB3PSNeJEgxdUkwgJChgZJjZFGidkdFU38qOzwygp&#xA;0+PzhJSktMTU5PRldYWVpbXF1eX1RlZmdoaWprbG1ub2R1dnd4eXp7fH1+f3OEhYaHiImKi4yNjo&#xA;+DlJWWl5iZmpucnZ6fkqOkpaanqKmqq6ytrq+v/aAAwDAQACEQMRAD8A9U4q7FXYq7FXYq7FXYq8&#xA;3/Ov83rb8vdFiFvGl1r+ochYWr14Kq/amlpQ8VrQD9o/TRSA+PfM/nzzh5ouXn13Vri95nkIWciF&#xA;fZIVpGg+S4pSmw1LUdOuFudPuprO4XdZoJGicU8GQg4pe6flR/zk5rWn3kGledpTqGlSERrqpH+k&#xA;wV6NJxH71PH9rvU9MUEPqi3uLe5t4rm3kWa3nRZIZoyGR0cclZWGxBBqDixVMVdirsVdirsVSzzH&#xA;5m0Ly3pUuq63eR2VjD9qWQ7knoqKKszHsqiuKvGdZ/PzzbqjsnlPR4tOsCSE1LVuTTOv8yW0ZHD2&#xA;5sa5q9V2xgwmr4peX4p2um7HzZRdcI82Pv58/OV5RL/i6OIVqYE020KdelWBf8c1h9pB0h/sv2Ox&#xA;Hs7/AE/9j+1NdL/Or8ztKZf0rZ2PmG0X+8MAayu/cjd4W+XEZmYO3sEzUrh7+TiZ+ws0Bcal97xL&#xA;85PPDec/Pd3q6xz29oscVvZ2tyoSWKONByVlBYA+ozt175uYyBFjk6cxMTR5sIySuxV2KvqL/nFD&#xA;8w572xu/JeoSl5LBPrWlMxqfQLASxCv8jsGUeBPYYsS+hsUOxVD6hqNhptlLfahcx2lnAvOa4mcR&#xA;xoo7szEAYq8tv/8AnKH8qLS8NvHc3d4gPE3Nvbn0utCf3hjYj5LimmZaD+Z3kXXtDu9a0vVoprHT&#xA;4mnv68kkgRFLMZInAcCgO9KHtXFD561nXtQ8+a6fMurqy6fGSPL+lP8AYt4K7SuvQyyUDE/wApy3&#xA;bPahs4sZ/rH9H6/k9T2P2YKGWY9w/T+pXzmHpHYq7FWO+bfKVtrVs0saiPUY1/cy9OVP2H9v1Ztu&#xA;zO05YJcJ/uz9nmHV9pdnRzxsf3g5efkXkMkckUjxyKVkQlXU9QQaEZ3IIIsPFEEGitwodir0H8gt&#xA;Qnsfzc8vPCf76Z7eRexSaJ0NflWuKC+58WLsVfGH/OQ35oX3mrzbc6Nazsvl7RpmgggQkJNPH8Mk&#xA;7j9r4qqngvT7RxZAPJsUpn5chuLnV4LGKV4o7wiG5CMy84SQzo3EioIXpmPqs3hYpT7g36XD4mSM&#xA;O8vblVVUKooqigA6ADPOCSTZfQgKFBvAla7qil2IVVBLE9ABhjEk0OaCQBZeV+Z/Pmo39xJBp8rW&#xA;1gpKqUPGSSn7TMNwD4DO27P7Hx4ogzHFP7B7v1vG67tbJlJEDww+0+/9SaflXLM8up8mZlIiZqkn&#xA;4iX3+ZzB9owKh8f0Ob7PE3P4fpeh/l95F8m+YvzC1HRvMOnLdQalYC+tJQ8kUiT28gjkVGjZftpJ&#xA;yIO22Z3YeczwUf4TTg9t4RDPY/iFvJvzS8pR+UvPusaDArLaW0waz5nkTBKolj+L9qivSvjm5dQG&#xA;K4penf8AOOGhS6r+bOlSKpMOmrNfXBFdljQoh/5GyJigvtrFi7FX5sySPJI0kjFnclnY9SSak4s1&#xA;uKso8jaZqCatp+rvbP8Aoxrh7RbsikZnMDtwBPVgNzTNb2tEnTTru/SHYdlSA1ML/GxetZwL3TsV&#xA;SPztcPB5W1B06lFjPykdUb8GzZdkREtTAHz+wEuu7VkY6aZH4sgPILKwvL64W3tIWmmboiCv0nwH&#xA;uc7rLljjjxSNB4nFilOXDEWXr/lHy7+hNL9GQhrqY+pcMOlaUCj2XOF7U135jJY+mPL9b23Zui/L&#xA;46P1Hn+pmn5Wo0n5w6XwFfQ029kl9kYxoCf9kaZu/ZyJ8OR83S+0MhxxHks/5y28jSOmnedLRKiI&#xA;Cw1Og6KWLQSH/ZMyE+650bzwfNGLJ9T/APOIflqCHy9rHmR6G5vLkWUXisUCrI3/AAbS7/6oxYl9&#xA;A4odir4L/OHyZc+UvzA1XTXjK2k0rXenORs1tOxZKHvw3Q+6nFkGF4peuflkt/5j/LXzJ5btQZtT&#xA;8vzweZNFiFSzNFWO5jAG/wAUfRR1Y5DJATiYnkRTLHMwkJDmC3D+YXlZwnK5aNmA5AxyEKSOhIXO&#xA;Jn2HqRdC/iHso9tac1Zr4FPbK/sr2L1rSdJ460LRsGAPgadM12bBPEamDEuxxZ4ZBcCCEu1vWfL0&#xA;fLTtRYTtKAWtFRpmIBBHJUDU3Fd8zNDotTIjJiFV1/tcTWavTx/d5Dd9Of3IWz80eT7RBBC62K0q&#xA;IzA8INP9gAeuX5uy9bM3IGX+cP1tGLtHSQFRPD/mkfoVZfOmhU42kj305BKQW6O7H6aUH04MXYep&#xA;lKiOEe8foZy7XwV6SZHuAL0z/nGbRNQvpNY896inpi/pp+lx9aW8TcpSDTdTIAK+KtnX6TSxwYxC&#xA;P9peQ1mqlmmZS/sD2zWdH07WdKutK1KEXFhextDcQt0ZGFOo3BHUEdDmS4r4w/ND8iPNvk2+nntL&#xA;aXVPLxYtb6hAhdo0rstwqiqMo6tTifwCytlX/OLX5kpo2tS+T75Xaz1qYSWMiAsI7vjxIYD9mVFU&#xA;cuxUdiSFS+scWLsVYf8AmX+WHl7z/ov1DUwYLuGrWGoxqDLA560rTkjU+JCd/Y0IVt8a/mN+WHmf&#xA;yDqi2esRq9tOWNjqEW8M6rStK7qy8hyU7j3G+LJn/wDziStwfzJvmjH7oaVMJz2oZ4OI+fIYqU0/&#xA;Pn/nH+/sb6580+UbU3GmTkzahpkCkyW7nd5IkH2oj1Kj7P8Aq9FQWJ+TLbTNM8uTXdtcR3M7IZ7q&#xA;RT0KKSEINCOPvnHdqSyZtRGEgYxuh8Tzev7Mjjw6eU4kSlVn4dFDyzoWo60IbfThdatdzql5qFjZ&#xA;wENJLJ8ai4uiQEiFV26fTnWjLDGOCIuhyH2btWHs793HLmyCGOfqN85dff8ABmWp6CnlvzPPBqeo&#xA;R3N2mnQza25YCC3uZZHdbdK9FjiC0qamte+HS34kjI2aF/qdt+chl0/FXDj4zw31iANz7y15S0qb&#xA;8ytZn0LRJls9BtOD63qIIWV4nJAitozufU4EFyKD7g2TkyXsHmdf2kJDgx/T1Pe+n9K0vT9J0220&#xA;zToVt7GzjWG3gToqIKAb7n5nrlLo0VirsVWrFEju6oqvJTmwABanSp74quxV2KuxV5d/zkV5L1Xz&#xA;X5DitNHsWvtUt76Ga3jTiGAIeN/iYqAtH33xSHfkR+UL+QNFuJ9SdJdf1Tgbz0zySGNKlIVb9o1Y&#xA;lm7nbtUqkvUcUPPPP/5U/lVqUNzrOuwRaPIFJutXt5vqTEN19Qikbk/5ak4CAebISI5PnTXNC0O5&#xA;vreD8vdQ1O+t7Rgn6a1BYIoERKKqwMIo5pOI26DE4BM2Q7nQ59YY8OOR4OW/L7f0IuLydoWlWMuo&#xA;6076lLAGuJ5ZiSnKlSVirxJPvXMiGCEA7XJp4iPHmkchiOvL4DklEnnrzJpWt23mHQIv0NerZukN&#xA;FE7zWko+Ayx8TEqKw5Dmduu+2Qmb6Ok10/FIPDw7fEjp7nqvkT/nKF5dFgXX9EvLlrFI49T1i1aO&#xA;QE0IMzQ8YqVpVgtafhkAC6+OGUgSBYHN73peqafqunW+padOl1Y3aCW3uIzVXRhUEYGpFYq7FUDZ&#xA;67ol9dT2llqFtdXdq3C6t4Zo5JIm/lkRSWU+xxVHYq7FXYq7FUh88ec9I8m+WrrXtV5m3twFSKMV&#xA;eSV9kjXtVj3OwxV8RfmN+Y/mfz1q/wCktYcx2o5fo+wSoghjqRRAftN/M/U/KgCzqkv8reb9S0C5&#xA;BjYzWTH99aMfhPuv8re+ShMxcvSayeE7bx7npPmLXtN1byJqF5ZTBozGFcE0ZGLqODDsd/pzInIG&#xA;OzvdXqI5dNKUT3feEP8AmTbzPo+mabAsrm4uooAkC8maikBViBHM1+yteuDNyau2PTiiB3/oQ97o&#xA;975XtbTWbHy/e6VpVs0cWqz3lzG7XSSHgS9qOXBqnYg0yiMqLo9JqTimDe3X3PbP+cadfgm0jW/L&#xA;kUwlt9LuhdaaRsPqd8DIiqPBJFevgT2wSG7DUxiJnh+np7ns2BoY1+Zes3mi+QNf1SxlEF5aWM0l&#xA;tMRXjJxopA23qdvfFXxFq8WraDPp9zH6tteW5MkGpQxtAzyMA/MT82ZyGPgMlIU5mfEYAAj7Ofx6&#xA;vqL/AJW15o/6F+/x19TT9Oen6VeB9Ll9Z+rfWeH8tPjp0r7ZFxKewYodirsVYV+c+iaXq/5YeYYd&#xA;SLLDa2ct7E6EBlmtUMsdK7bsvGncGmKh88af5X03UPJunaffRA0t0dXWgeN3XmSreNTv45liAMQH&#xA;rsWkhPTxjIdPv3eXeZ/Keo+X7rhOPVtXP7i6UUVvY/yt7ZjTgYvParRzwyo8uhS2wmmEn1YSMsF0&#xA;yR3EYNA6hwwB+RFciHHjIjboXqv5lXstqdHltwWuLa5N6qD+W2AcsflmRm6O/wC2jcYj3vV/PljH&#xA;rXkLVoYh6gms2ngH8zRgTR/8Mgyh5oPJv+cYPMR0r80YLJ2pBrNvNZsCfhDqPXjPzrFxH+tgZl9m&#xA;YsXm3/OQuqRWf5XalZiQLeavJBp9lGeskksyllHX/daucWUIkmg8G88abPqKaD5ft4i36S1CC0WY&#xA;U+BmPBQPduXhTY5kZuT0nbJrFEVtf6H139QsvqP1D0U+pen6P1enwenx48aeFNsx3mVfFXYq7FXn&#xA;f/OQF+9r+VOsxxmk9/6FlCDtU3E6Iw/4DlimIs08sijEUSRjoihR8gKZnPexjQpi2peadFvNPurW&#xA;6s2u5JLmWzttPWjyTtEac1pui1/a7ZWZgh1uXWY5xlGQs8RiI99dfJB+Uvy9s9MP6S1RVe6B5xQk&#xA;ho4ANxVj9ph49MEMVblq0XZscfryc+7oGDed/Mraxr0k1s5FpApgtyNuSbh2/wBnU/RlOSVl1Gv1&#xA;Xi5CR9I2H483uPlD8yPJ8PkTSf0xqtvFOlqsFxbli8v7msXxRpyf4glem+RdeQ8O8sPcab5i/T2l&#xA;sZYfL1xFfJIAVMkcVwvEUNKclqSD2riBbfDEZCRH8Iv7X3frvmvQNC8vy+YNTu0g0qOMS+ud+YcV&#xA;QIOrM9fhA64Gh87aprmsed/MSeZtYia0sbYMmgaQ25gjbrNL29aT8OmZGLH1L0fZfZ/D+8nz6D9K&#xA;bflZok/m3z9bazGlfLnld3b60fsXGoOnFEj8RCG5EjvTxyGWdlw+1dYMkhGP0x+99E5U6h2KuxV2&#xA;KvH/APnIu7WS18qaLU8r3Vhdso/ajsYmdh8uUi1yUBZDl6GHFmiPP7t3lWq+ZJ3u20nQo1u9UH99&#xA;If7i3B/alYd/8kZkyn0HN6bNqyZcGIcU/sHvVPLflOw0VWm/3o1GarXN4wAZmY1YKB9la9sMIAMt&#xA;Joo4d+cj1Qetzza7qJ8vWblLOKjazdKaUXtbqf5n/a9sjI8RoNOokc0/Cj9I+o/oYT+YHkm10Xjf&#xA;2MgWzmfh9VdvjVjU/BXdl/VlWTHW4dV2loBi9UT6T0YVlTqma+Qta0GDT9R0jUqQNqKspu3+wV4F&#xA;QjHqtKkg5bjkKILtez8+MRlCe3F1Zvolxr/mbSdGvfM9yZbDSLaKDR9OHwwKkCCNbmVSTzlYD7Ry&#xA;WLH1LkdmaAV4k/h+tP8Ayz5c1v8AMa/ey0mRrLytA3DVdcAIaXf4oLMkUZiPtP0H3BnJlvYMO0O0&#xA;+L0Y+XU/qfR2g6DpOgaRa6PpNutrp9mnpwQp0ArUkk7lmJJYncnfKHRI/FXYq7FXYq+Zv+cm/Ml1&#xA;F5506ytEZ5LDS3KSr0gm1Cb0uTHseEQp8xhiacjTzMCZDnXyvZDaNpFnpNhHaWqABRWST9qR/wBp&#xA;2PcnMyMaD2OnwRxREYoDzLrNxarDpumgSaxf1S2XtGv7Uz+CrgnKthzadXnMahD+8ly8vNF6LpFr&#xA;o2mrbo1SKyXNw/2pJDu8jk+OGMaDbp8EcUK+Z/S8f88+Zm13WGaJj9Rtqx2q+Ir8T/7I/hTMXJOy&#xA;8vr9V42Sx9I5IHRPLWra0Lk2EXqfVU5vU0qSdkWv7R3I+WCMSeTVg0s8t8I5JbJHJHI0cilJEJV0&#xA;YEEEdQQci0EEGi9M8l23mHWdM0ny3cyMsGvX0FjZt/u1LMEm5f3RUG3tXtTLeI8LsjnyR01SO0jQ&#xA;93X4cg+0NL0zT9K06307T4EtrK0QRW8EYoqoooAMqdSisVdirsVdirsVfNn5j2Fvc/m75mtdRj9S&#xA;O4tdNmtUaorFElGK0PaZe2XYQDYLu+x4Qnxxlvdfj7ks17XLLRdOkvbptlFI4wfikfsq5fKVB3up&#xA;1EcUDI/2sd/Lu9ttW+v6vM/qavLJwnB6Rw9Y0jHZP1kZXiN2ergdmTGTimfrv5DpSH/M/wAz/U7I&#xA;aPbPS5u1rcMOqQ+Hzf8AVjmnWzDtbV8MfDHM8/d+15XbW89zcR28CGSaVgkaL1LMaAZjPOxiZGhz&#xA;L3jyt5fh0LR4rJKNN9u5lH7ch6n5DoPbMyEaD2Wj0ww4xHr196Fn8gaT5u/MXy7o9zzto9SS++u3&#xA;VtxWWlvb+pEfiDKfj26dDlWYcnT9twiDGQG5u/se2fl3+Sln5V1ZNa1LVpdd1e3ia3sZXhS3ht4m&#xA;HFvThQvRyvwluXTKSSXTZc88lcR5PSsDU7FXYq7FXYq7FXln5/eWvK0nlefzVqMlzZ6xpERj067s&#xA;XEc0rzHjFbPVXDxtIwJFKjcjviDTPHOUTcTRfPus+QL298vLPLcTXvmBVWRjNKSvT44kB+Ef1GZE&#xA;sRI83oM3ZspYrJMsvmfsS/yxqnlvyraGW8S7i1to2W4t5I3QN8VVAB+DamzZGEhH3tOkzYtOLlxe&#xA;J3MG1PUbnUr+e+uW5TTsWbwHgo9gNhlRNm3UZchnIyPMvQfyt8rUB127Tc1SxVh26NJ/AfTl2GHV&#xA;3fZGk/ysvh+t6RmQ75G/l3CJ/wA5NHOxNrpt7Nv1HLhFX/hsxs3N5ztuXqiPJ9EZS6N2KuxV2Kux&#xA;V2KuxV4d+feqNqPmzy55VU1trRX1vUI+oYqTDag/J+ZyeMWXYdmYePMO4b/j4sbzMevUbuxs7yEw&#xA;3cCXER6pIoYfjgItjPHGYqQsMfP5c+UTc+v9SPXl6XqP6df9WvT2yHhRcH+S8F3X2skjjjijWONQ&#xA;kaAKiKKAAbAADLHYAACguxVMvyrnhh/OdFuGCfWdCmhsQwHxzC5SWQKfERpX5ZjZubzXbYPiD+r+&#xA;kvoPKXSuxV2KuxV2KuxV2Kvm7zdO15+bvmy4YnjaCysoAeyrbiR/vdzl+Ac3f9hx+o+79KnmQ9A7&#xA;FXYq04YqQp4sQeLUrQ+NMVLF4/NF7pn1yy15UF9bQSXFpcRgrFdRopPwg9HFN1yrjI2LrRq5Y+KO&#xA;T6gLB6S/aiJ9S1Sy0/RPN6RhdV0V4dQkijJUNGQPrEW9SFaMkHfBkFxtp1+M5dOJn6gL+fN9Xadq&#xA;FpqOn22oWbiW0vIknt5B0aORQyn6QcxnmERirsVdirsVdirsVfOHnW0fTvzg8ywSDimqQ2eo2ler&#xA;IIvq8p9wJIzl+A83fdhzFyj7vx9qjmQ9C7FXYq7FUg87eXk1vQ5YlWt3ADLaN35gbr/shtleSNhw&#xA;tfpvFxkfxDcfjzR2jX1rq+h29yij0LiLi8XYGnF0+ggjJRNhuwZI5cQPQh6j/wA48a1NL5UvfLVy&#xA;xe48s3bWsbk1LWs3763J+QZlp4AZhyFGnjdRi8PIY9z1XA0uxV2KuxV2KuxV5N+fvle5l02x85aZ&#xA;CZb/AMvFvrsSfal06T+/HuYqcx4b5KMqNuRpc5xZBIPPrW6gu7aK5t3EkEyh43HQgiozMBt7WExI&#xA;AjkVXCydirsVdirGtF/3FeZb/RztbXtdQsfAFjSZB1/a3plUdpU67T/us0sfSXqH6Xpv/OPqyf4u&#xA;8/Ma+kW0kL4chby8v1jKcv1F0Xav+MS+H3B7blbrnYq7FXYq7FXYq0yq6lHAZWFGU7gg9QRir5a/&#xA;MCx078tPPf6IhZh5a1eP69aR0JFk0kjI8YP++uY28K/fbjyVseTt+zdf4fpl9H3Jgjq6h0IZGAKs&#xA;DUEHoQcynqAb3DeKuxV2Ksd8528kdnb61brW60eUXAp1aE/DMn0p+rK8g69zga+JERkH1QN/Dq9Q&#xA;/wCccPSuv8XatC3OG7v4Io33oRDbKf8AmbmNM2XmtdkE8spDk9nyLiOxV2KuxV2KuxV2KvIP+cjf&#xA;LIudAsfNUcH1h9AkZdQgpX1NPuqRzgjvwPFh4bnDE0W7T5BCYJ3HX3PGre4k8rvHVzc+Vrkg29xU&#xA;s1oX3Cse8Rrse368kHh/qvSRkdMR1wnkf5v7Px75ajpIivGwdGAKspqCD0IIy12oIIsLsVdiq2SN&#xA;JI2jcckcFWU9CCKEYoIBFFmH/OMrWen6J5g8sqON5puptcPU/bguokEMnQdoSD8swZCjTxGpwnHk&#xA;Me57PgaHYq7FXYq7FXYq7FVK8s7a9tJ7O6jWa1uY2hnhbdXjkUqyn2INMVfH00UvkfzXqfkTX/3u&#xA;lo/+466lFUNvPvGHJ24sDQ+DVGXY59C7rs3WgDw8n0H8fJUZbzyk5khD3fllyWeNavJact+S92i/&#xA;V+uz6fc7GpaU2PVh+2P7Px75TbXNvdQJcW8iywSjlHIhqCD4HLAbdlCYkLBsKmFk7FVXyXqn+H/z&#xA;W0W9LcbTXkfRrwdvUb95atTxMi8a+BzHzDq8923h3Ex7n0hlDoXYq7FXYq7FXYq7FXYq8i/5yC8g&#xA;vq2mWvmjT7I32o6ODHfWSLza60+Q1ljCjq0RPqL4b96YQabcGQQlZFjqHiHlXzBYQakNCS9F5p06&#xA;ctMeT+8jp9q2lDb7fs1GZEJC66PRaLVREvD4uKB+n/iSjLqwvvLM73+kxtcaPIS99pineLuZYB+t&#xA;f8wSOHccm2eOWnPHAXj6x7vMfj9kjsL+0v7SO7tJBLbyiqOP1HwI7jLAbdhjyRnESibBRGFmknm2&#xA;5Nlp1tqini+mX1neI9aFTHcJuDQ+OVZR6XW9rQvAT3Efq/S+sMxXknYq7FXYq7FXYq7FXYqx3zx5&#xA;88v+TNHOpaxKaueFnZxUa4uJe0cKVHI779h3xSATsHzV5n03VPPOqz+YtYhg0e8dSdNs7NEVoTXk&#xA;j3EyqHmkqN69O1OmXxw7bu903ZB4eKRqXTy96J8s61JqFtJb3iiLVbFvRvoP8odHX/JcbjLYSv3u&#xA;20moMxUtpx2P480svoW8r6kdUtV/3CXsijUrYfZgkY0E6DsCftD/ADET6TfRx8kfy0+OP93L6h3e&#xA;YZYCCAQag7gjLXZpB58APlHUgRUemDv4h1OV5fpLg9p/3Evh94fWmYjxzsVdirsVdirsVdiqy4uI&#xA;beCS4ncRwQo0ksjGiqiirMT4ADFXy2dUufOPmC685amGZZ3aPQraTdbayQ0Tip6PJTkxzIxQ6vSd&#xA;k6MCPiSG55JkSACSaAbknL3dpLpXkvzh5pj1Hz15ZiQ2+mUtrK1KnnqiRsfrHBqj7HRNjUinUZiy&#xA;yeqw8vqO0P8ACOOHIbe9VstQ0nzBp00NOSurQ3lnJVJYz9l0ddmUg5eJCQd9izY9RDbcHmEyhiSG&#xA;JIoxRI1CIK1oFFBuckHJjERAA5BJPOtubvQxp6gl7+5tbVAOpMk6bDr4ZXlPpdf2rKsB86+99Z5i&#xA;vIuxV2KuxV2KuxV2KvOPz+12bTvy7uLC1cpfeYJ4tIt2G9Bcn99UeHoq4+nCBbPFAzkIjq8stbaK&#xA;1toraEcYoUWONR2VRQZmgU91CAjEAcghotH1Dzh5jg8naY7RJKon12+X/j3sqioB6epL9lR/DKcs&#xA;+jp+1tZwjw48zz/Hm+mNJ0rT9I0y10zToVt7GzjWG3hToqIKD5nxPfMd5piPnb8nPJvmu5OoyxSa&#xA;Zrn7Or6e3ozkjp6mxSQbD7S1ptUYgs4TlE2DRec6h+T/AOauk1GnXmn+Y7VR8HrcrG7PgP24T8+W&#xA;WjMXaYu2MsdpVJW8p/lT581HzVpOoeZ7K30jR9GuUvhbJcLczXFxECYaGMcFRX+I1/2hPJxNWt7R&#xA;OcAVQe85W612KuxV2KuxV2KuxV4V+eF+b/8AMTy9owNYdJsptTmA6GS4f0Ig3uojYj55ZiFydn2T&#xA;i4swP83dh2uaq9haoLeI3Oo3Trb6fZpu808hoigDfr1zInKg9FrNUMMOLr0e5flT+XyeTfLpiuWF&#xA;xr2osLrWrwb85yNkU/77iB4r9J75hkvGzmZEk8yzTFg7FXYq7FXYq7FXYq7FXYq7FXYq+ZfMmp29&#xA;7+ZPnPWJJR9WtJ4rBZCfhRbKACUV/wCMhJOX4epeh7GiIxlM8vxbLPyP8mTavf8A/KwtYhKxcXh8&#xA;r2sg3SA7PdkHo0vRf8n5g5XOXEXV67VnNO/4ej27IOE7FXYq7FXYq7FXYq7FXYq7FXYq89/Nv8zV&#xA;8q6eml6TS582aqrJplqKEQg7G5mB+yidRX7R9q0IFtmLFLJIRjzLxfyF5Fl82a5H5Y9V5tD0txee&#xA;a9QJblczu3MWwfrykfd96he9RvZM0OEOy1uUYoDBDp9R7y+p4IIYIY4IEWKGJQkUaAKqqooqqB0A&#xA;GVOpX4q7FXYq7FXYq7FXYq7FXYq7FWL/AJnea7nyp5D1fXrWMS3dpEq2qEVHrTyLBESO4DyAkYpD&#xA;5tvY77Tre41KeV9U8363KkAupKF5ruchY40GwVFPRR2HyzJoQj5vTHFHR4TL+M7X5vpX8uvJNl5N&#xA;8qWejW9HuFHq6hddWnupADLKxO5qdhX9kAZjPMk2yXFDsVdirsVdirsVdirsVdirsVdiry//AJyM&#xA;1S3g/LiXSQwOo61dWltp8PUs8VzHcM3Eb8VWLc+48cIDPHEykAOZYX+VehnzJ+Zj6jKvLSvKUdUr&#xA;9l9RuQQux2PpR1P+S1Msyys07XtjUcWTgHKP3voTKnTuxV2KuxV2KuxV2KuxV2KuxV2KuxV88/8A&#xA;OQN1cWH5j6Te3FvNdW50iSPRYY0eQNfidjKqKoPxtGYwT4ZOEgDbn6DPDFMyl0Br3vUfye8ny+Vv&#xA;Itla3acdWvi2oasxFGN1c/Gyt7ovFPoyDhTkZEks1xYuxV2KuxV2KuxV2KuxV2KuxV//2Q==</xmpGImg:image>
               </rdf:li>
            </rdf:Alt>
         </xmp:Thumbnails>
      </rdf:Description>
      <rdf:Description rdf:about=""
            xmlns:xmpMM="http://ns.adobe.com/xap/1.0/mm/"
            xmlns:stRef="http://ns.adobe.com/xap/1.0/sType/ResourceRef#"
            xmlns:stEvt="http://ns.adobe.com/xap/1.0/sType/ResourceEvent#">
         <xmpMM:InstanceID>xmp.iid:FF7F117407206811822A9DD448A483FF</xmpMM:InstanceID>
         <xmpMM:DocumentID>xmp.did:FF7F117407206811822A9DD448A483FF</xmpMM:DocumentID>
         <xmpMM:OriginalDocumentID>uuid:5D20892493BFDB11914A8590D31508C8</xmpMM:OriginalDocumentID>
         <xmpMM:RenditionClass>proof:pdf</xmpMM:RenditionClass>
         <xmpMM:DerivedFrom rdf:parseType="Resource">
            <stRef:instanceID>uuid:ba5dc92b-6d0a-484a-ab90-b9370a4a0965</stRef:instanceID>
            <stRef:documentID>xmp.did:0980117407206811822A897E387FE54C</stRef:documentID>
            <stRef:originalDocumentID>uuid:5D20892493BFDB11914A8590D31508C8</stRef:originalDocumentID>
            <stRef:renditionClass>proof:pdf</stRef:renditionClass>
         </xmpMM:DerivedFrom>
         <xmpMM:History>
            <rdf:Seq>
               <rdf:li rdf:parseType="Resource">
                  <stEvt:action>saved</stEvt:action>
                  <stEvt:instanceID>xmp.iid:FF7F117407206811822A9DD448A483FF</stEvt:instanceID>
                  <stEvt:when>2018-09-05T11:35:22-03:00</stEvt:when>
                  <stEvt:softwareAgent>Adobe Illustrator CS6 (Macintosh)</stEvt:softwareAgent>
                  <stEvt:changed>/</stEvt:changed>
               </rdf:li>
            </rdf:Seq>
         </xmpMM:History>
      </rdf:Description>
      <rdf:Description rdf:about=""
            xmlns:illustrator="http://ns.adobe.com/illustrator/1.0/">
         <illustrator:StartupProfile>Print</illustrator:StartupProfile>
      </rdf:Description>
      <rdf:Description rdf:about=""
            xmlns:xmpTPg="http://ns.adobe.com/xap/1.0/t/pg/"
            xmlns:stDim="http://ns.adobe.com/xap/1.0/sType/Dimensions#"
            xmlns:xmpG="http://ns.adobe.com/xap/1.0/g/">
         <xmpTPg:HasVisibleOverprint>False</xmpTPg:HasVisibleOverprint>
         <xmpTPg:HasVisibleTransparency>False</xmpTPg:HasVisibleTransparency>
         <xmpTPg:NPages>1</xmpTPg:NPages>
         <xmpTPg:MaxPageSize rdf:parseType="Resource">
            <stDim:w>21.000131</stDim:w>
            <stDim:h>29.700013</stDim:h>
            <stDim:unit>Centimeters</stDim:unit>
         </xmpTPg:MaxPageSize>
         <xmpTPg:PlateNames>
            <rdf:Seq>
               <rdf:li>Cyan</rdf:li>
               <rdf:li>Magenta</rdf:li>
               <rdf:li>Yellow</rdf:li>
               <rdf:li>Black</rdf:li>
            </rdf:Seq>
         </xmpTPg:PlateNames>
         <xmpTPg:SwatchGroups>
            <rdf:Seq>
               <rdf:li rdf:parseType="Resource">
                  <xmpG:groupName>Default Swatch Group</xmpG:groupName>
                  <xmpG:groupType>0</xmpG:groupType>
               </rdf:li>
            </rdf:Seq>
         </xmpTPg:SwatchGroups>
      </rdf:Description>
      <rdf:Description rdf:about=""
            xmlns:pdf="http://ns.adobe.com/pdf/1.3/">
         <pdf:Producer>Adobe PDF library 10.01</pdf:Producer>
      </rdf:Description>
   </rdf:RDF>
</x:xmpmeta>
                                                                                                    
                                                                                                    
                                                                                                    
                                                                                                    
                                                                                                    
                                                                                                    
                                                                                                    
                                                                                                    
                                                                                                    
                                                                                                    
                                                                                                    
                                                                                                    
                                                                                                    
                                                                                                    
                                                                                                    
                                                                                                    
                                                                                                    
                                                                                                    
                                                                                                    
                                                                                                    
                           
<?xpacket end="w"?>
	</metadata>
<g>
	<path fill="none" d="M-23.406-62.327c-0.215,0.107-0.328,0.245-0.39,0.356c-0.031,0.057-0.035,0.125-0.056,0.186
		C-23.736-62.007-23.582-62.184-23.406-62.327z"/>
	<path fill="none" d="M10.8-73.928l-0.011-0.057c-0.024,0.008-0.047,0.017-0.071,0.025L10.8-73.928z"/>
	<path fill="none" d="M-27.627,4.482c-0.339,2.43-0.43,4.89-0.123,7.241C-27.875,9.237-27.784,6.676-27.627,4.482z"/>
	<polygon fill="none" points="-6.249,-73.317 -6.018,-73.579 -6.999,-73.059 	"/>
	<path fill="none" d="M30.392-23.751c0.275,0.042,0.719-0.014,1.4-0.355C31.322-23.974,30.819-23.85,30.392-23.751z"/>
	<path fill="#D4732B" d="M-33.997-102.191c0.023,0.118,0.023,0.239-0.005,0.363c-0.012,4.261,1.06,8.559,3.292,12.459
		c5.976-1.205,11.25,1.726,11.479,1.854c0.207,0.118,0.357,0.315,0.419,0.546c0.06,0.232,0.024,0.477-0.1,0.683
		c-1.263,2.093-2.642,3.835-4.097,5.232c2.438,1.648,5.129,2.838,7.938,3.544c-0.058-0.719-0.116-2.149,0.134-3.81
		c0.477-3.167,1.855-5.617,3.987-7.086c2.387-1.643,5.936-1.282,9.691-0.901c6.259,0.635,12.729,1.292,16.326-5.883
		c0.053-0.105,0.125-0.194,0.209-0.267c1.777-6.81,0.707-14.323-3.59-20.559c-0.456-0.662-0.941-1.292-1.448-1.896l-3.411-3.35
		c-8.414-6.813-20.645-7.619-30.001-1.172C-30.093-117.666-33.863-110.015-33.997-102.191z M-1.425-110.632
		c2.072-1.427,4.637-2.384,7.621-2.843c0.426-0.065,0.836,0.185,0.975,0.593c0.031,0.094,3.083,9.489-4.99,15.052
		c-2.265,1.561-5.207,2.675-8.752,3.315c-0.234,0.042-0.479-0.012-0.672-0.151c-0.195-0.138-0.324-0.349-0.361-0.585
		C-7.667-95.662-9.068-105.367-1.425-110.632z"/>
	<path fill="#CF75A8" d="M16.096-71.839c-0.034,1-0.245,1.833-0.259,1.883c-0.039,0.149-0.116,0.286-0.229,0.396l-0.16,0.161
		c2.003,0.535,3.642,2.152,4.085,4.317l0.143,0.697c0.667,0.574,2.604,2.367,4.267,5.084c-0.909-3.296-1.745-6.155-2.333-7.82
		C19.804-72.241,16.619-71.928,16.096-71.839z"/>
	<path fill="#CF75A8" d="M-5.886-12.537C-4.068-15.689,7.259-33.64,9.463-37.13c-1.898-1.605-3.889-3.293-5.939-5.035
		c-3.909,5.129-11.427,14.977-15.678,20.457c0.009,0.015,0.024,0.023,0.033,0.039l3.115,5.766c0.219,0.4,0.095,0.896-0.274,1.15
		c-0.025,0.018-0.055,0.033-0.082,0.051c-0.431,0.232-0.968,0.07-1.201-0.359l-0.407-0.752l-2.277,3.861
		c0.414,0.159,0.959,0.361,1.604,0.594c0.523,0.12,1.159,0.236,1.834,0.282C-7.841-10.943-6.522-11.433-5.886-12.537z"/>
	<path fill="#CF75A8" d="M53.123-63.352c-0.09,0.081-0.189,0.161-0.306,0.237c0.465,0.489,0.955,1.147,1.29,1.973
		C54.203-61.833,54.135-62.858,53.123-63.352z"/>
	<path fill="#CF75A8" d="M11.01-50.458L9.92-55.786c-0.027,0.269-0.055,0.536-0.087,0.797c-0.115,0.925-0.358,1.89-0.664,2.836
		C10.393-51.113,10.839-50.724,11.01-50.458z"/>
	<polygon fill="#CF75A8" points="10.581,-64.157 10.913,-64.835 10.152,-64.07 	"/>
	<path fill="#CF75A8" d="M50.456-66.991c0.353-0.101,0.864-0.086,1.38,0.049c-0.063-0.51-0.283-1.105-0.902-1.477
		c-0.927-0.556-1.515-0.52-1.771-0.456l-1.242,2.084C48.958-66.83,50.2-66.918,50.456-66.991z"/>
	<path fill="#CF75A8" d="M1.045,63.267c-1.41,1.032-7.432,5.509-10.948,9.218c-3.833,4.045-8.758,24.184-9.604,30.246
		c-0.812,5.816-8.155,12.244-10.92,14.662l-0.243,0.215c-1.828,1.605-1.53,5.441-1.353,7.734l0.026,0.352
		c0.162,2.141-0.827,3.76-1.973,5.635c-0.345,0.566-0.702,1.15-1.056,1.793c-0.941,1.707-0.049,3.773,0.447,4.689
		c0.688-0.143,1.328-0.354,1.518-0.508c0.14-0.293,0.741-1.678,1.43-3.27c2.622-6.049,7.502-17.305,8.964-19.318
		c1.824-2.509,29.222-41.57,29.998-42.677C5.1,69.172,2.836,65.934,1.045,63.267z"/>
	<path fill="#CF75A8" d="M-6.798,53.366c-0.896-0.805-1.745-1.566-2.461-2.293c-0.277-0.281-0.569-0.596-0.869-0.929
		c2.202,4.265,4.193,7.875,4.703,8.387c0.662,0.663,2.757,1.377,4.573,1.86c-0.738-1.142-1.266-1.986-1.491-2.365
		C-3.187,56.61-5.023,54.962-6.798,53.366z"/>
	<path fill="#CF75A8" d="M53.999-66.643c-0.113-0.222-0.259-0.409-0.414-0.576c0.1,0.755-0.005,1.387-0.046,1.584
		c0.09,0.188,0.16,0.386,0.195,0.6c0.167,0.07,0.321,0.147,0.465,0.231C54.323-65.506,54.261-66.125,53.999-66.643z"/>
	<path fill="#CF75A8" d="M55.943-64.449c-0.068,0.368-0.173,0.748-0.314,1.138c-0.009,0.025-0.026,0.043-0.037,0.067
		c0.073,0.172,0.135,0.347,0.181,0.524c0.204-0.255,0.397-0.595,0.399-0.983C56.173-63.958,56.082-64.209,55.943-64.449z"/>
	<path fill="#CF75A8" d="M4.584-71.821c-0.983,0.344-1.301,2.336-1.299,3.246c0,0.012,0,0.024-0.001,0.037L2.648-52.702
		c-0.011,0.256-0.13,0.495-0.33,0.656c-0.059,0.047-1.899,1.523-4.53,3.626c-0.014,0.02-0.018,0.042-0.034,0.061
		c-0.055,0.062-0.113,0.115-0.176,0.157c-0.047,0.033-0.102,0.05-0.153,0.072c-5.896,4.712-15.356,12.246-18.11,14.287
		c-3.629,2.69-2.692,8.657-2.684,8.717c0.057,0.35-0.099,0.684-0.372,0.873c-0.104,0.072-0.226,0.122-0.357,0.145
		c-0.482,0.079-0.938-0.248-1.019-0.73c-0.02-0.124-0.225-1.447-0.103-3.178l-1.658,1.018c-0.3,1.581-0.488,2.543-0.497,2.588
		c-0.009,0.047-1.008,5.906,2.266,8.271c0.723,0.227,5.103,1.354,8.809-3.166c2.64-3.219,20.076-26.119,20.88-27.174
		c0.27-0.443,3.036-5.074,3.489-8.729c0.49-3.946,0.234-9.053,0.23-9.104c-0.009-0.18,0.053-0.347,0.146-0.498
		c0.109-0.71,0.341-1.394,0.705-2.01c-0.223-0.013-0.442-0.108-0.604-0.287C8.22-67.469,8.247-68.03,8.61-68.358l2.808-2.543
		l-0.103-0.503L7.421-69.92c-0.457,0.175-0.969-0.054-1.145-0.512C6.104-70.889,6.333-71.4,6.79-71.575l4.167-1.587L10.8-73.928
		l-0.082-0.032C8.56-73.208,5.703-72.213,4.584-71.821z"/>
	<path fill="#CF75A8" d="M-6.999-73.059l-5.939,3.149c1.337,0.428,2.633,1.171,3.643,2.087c0.656,0.596,4.239,3.769,10.415,9.034
		l0.395-9.803c0.002-0.498,0.1-4.064,2.482-4.9c0.814-0.286,2.551-0.891,4.269-1.489l-2.771-4.245
		c-2.672,1.712-5.543,2.89-8.486,3.557c-0.018,0.264-0.139,0.516-0.367,0.673c-0.028,0.02-0.057,0.037-0.087,0.054l-2.571,1.364
		l-0.231,0.262L-6.999-73.059z"/>
	<path fill="#CF75A8" d="M32.414-24.456c1.478-0.925,1.958-2.722,2.521-4.801c0.616-2.282,1.316-4.871,3.575-6.67
		c4.408-3.508,11.726-10.743,12.8-13.55c0.441-1.154,0.917-2.957,1.34-4.765c-0.034,0.032-0.062,0.071-0.101,0.097
		c-0.3,0.207-0.711,0.214-1.022-0.013c-0.396-0.289-0.482-0.844-0.194-1.239c1.16-1.593,1.612-3.075,1.342-4.402
		c-0.298-1.475-1.415-2.406-1.853-2.721l-1.624,0.025c-0.49,0.007-0.893-0.383-0.902-0.873c-0.007-0.489,0.386-0.892,0.873-0.899
		l1.844-0.028c0.456-0.077,0.928-0.3,0.987-0.43c-0.017-0.102-0.056-0.229-0.232-0.353c-0.297-0.205-0.713-0.233-0.822-0.21
		c-0.572,0.165-2.371,0.246-2.988,0.27c-0.545,0.086-0.68,0.305-0.725,0.378c-0.238,0.387-0.089,1.067-0.039,1.215
		c0.035,0.1,0.051,0.205,0.047,0.311c-0.006,0.172-0.143,4.267-0.867,8.206c-0.679,3.69-7.288,10.223-12.713,15.055
		c-2.612,2.325-3.367,5.064-3.504,5.644c2.095,1.729,3.3,2.708,3.328,2.73c0.381,0.309,0.438,0.865,0.131,1.245l-4.319,5.324
		c0.044,0.072,0.088,0.141,0.133,0.221c0.256,0.46,0.482,0.82,0.871,0.92c0.028,0.007,0.061,0.012,0.093,0.017
		c0.427-0.099,0.93-0.222,1.4-0.355C31.982-24.201,32.185-24.312,32.414-24.456z"/>
	<path fill="#CF75A8" d="M-27.75,11.723c0.1,0.764,0.241,1.517,0.43,2.252c2.605,10.162,10.042,17.297,17.23,24.193
		c1.334,1.279,2.713,2.602,4.021,3.906c2.313,2.311,5.374,5.037,8.613,7.924c8.725,7.766,17.742,15.799,18.787,21.086
		c0.071,0.358-0.083,0.708-0.366,0.903c-0.096,0.064-0.207,0.113-0.328,0.139c-0.48,0.094-0.948-0.219-1.042-0.699
		C18.667,66.728,9.074,58.185,1.368,51.321c-3.26-2.902-6.34-5.646-8.688-7.992c-1.296-1.295-2.668-2.609-3.994-3.883
		c-2.123-2.036-4.264-4.096-6.306-6.247c0.068,0.456,0.232,1.189,0.62,2.361c0.472,1.427,1.803,4.358,3.404,7.662
		c0.154,0.058,0.299,0.143,0.403,0.285c0.031,0.043,3.131,4.227,5.194,6.322c0.679,0.688,1.507,1.432,2.384,2.219
		c1.875,1.684,3.813,3.426,4.793,5.072c1.902,3.199,10.864,16.811,15.161,19.92c3.609,2.613,13.479,6.766,18.054,5.818
		c0.854-0.178,1.438-0.527,1.742-1.037c2.319-3.912,2.885-20.055,1.01-28.787c-1.801-8.381-15.049-37.789-15.183-38.084
		c-0.041-0.092-3.688-8.309-8.193-10.793c-0.431-0.236-0.585-0.773-0.35-1.203c0.236-0.428,0.773-0.584,1.203-0.348
		c2.567,1.416,4.802,4.315,6.399,6.867l1.225-5.57c0.105-0.479,0.577-0.781,1.057-0.676c0.479,0.105,0.778,0.578,0.676,1.057
		l-1.641,7.452c0.745,1.378,1.19,2.377,1.241,2.495c0.323,0.714,4.994,11.082,9.127,21.189c0.747-6.133,1.695-16.804,0.427-20.103
		C29.277,10.471,24.053-2.521,24-2.654c-0.052-0.125-0.071-0.258-0.062-0.393l1.284-17.947c0.003-0.03,0.079-1.122-0.033-2.906
		c-1.424-1.191-3.972-3.324-7.268-6.096C15.506-26.097,6.12-10.994,4.256-8.601c-0.394,0.504-0.836,0.907-1.3,1.227
		C0.593-5.747-2.353-6.261-2.501-6.288c-0.043-0.008-0.086-0.02-0.127-0.033c-0.302-0.104-6.015-2.068-9.483-3.323
		c-0.787-0.185-1.324-0.375-1.399-0.403c-0.139-0.051-0.249-0.14-0.342-0.242c-0.125-0.048-0.253-0.097-0.354-0.137
		c-1.942-0.773-2.992-3.588-3.461-5.278c-1.196,0.776-2.367,1.2-3.392,1.414c-0.015,0.038-0.018,0.079-0.039,0.115
		c-0.069,0.121-5.203,9.151-6.529,18.657C-27.784,6.676-27.875,9.237-27.75,11.723z"/>
	<path fill="#CF75A8" d="M14.251-71.079l-1.968,1.784c0.198-0.063,0.39-0.143,0.596-0.185c0.059-0.012,0.117-0.017,0.176-0.027
		l1.116-1.123C14.195-70.744,14.224-70.899,14.251-71.079z"/>
	<path fill="#CF75A8" d="M-4.347-48.981c-8.002-6.803-12.423-10.581-13.124-11.218c-0.894-0.809-2.069-1.479-3.178-1.882
		c-0.571,1.486-0.979,3.133-1.191,4.928c-0.936,7.86-3.275,20.773-4.593,27.805l1.268-0.779c0.091-0.056,0.19-0.086,0.29-0.106
		c0.438-1.809,1.336-3.699,3.134-5.032c1.387-1.028,4.5-3.469,7.998-6.238l0.791-5.673c0.068-0.485,0.517-0.823,1-0.755
		c0.484,0.068,0.82,0.515,0.754,1l-0.536,3.835C-9.178-45.126-6.559-47.215-4.347-48.981z"/>
	<path fill="#CF75A8" d="M29.564-37.622c-0.029-0.113-1.393-5.629-3.038-11.979c-0.094,1.577-0.413,3.149-1.007,4.696
		c-0.174,0.45-0.316,0.833-0.453,1.2c-0.397,1.06-0.75,1.997-1.585,3.946c1.983,1.662,3.729,3.115,5.185,4.321
		c0.185-0.553,0.483-1.291,0.932-2.111C29.59-37.575,29.571-37.595,29.564-37.622z"/>
	
		<rect x="12.149" y="-63.27" transform="matrix(-0.9798 0.2002 -0.2002 -0.9798 20.8785 -110.3453)" fill="#C2C4C6" width="7.738" height="18.306"/>
	<path fill="#C2C4C6" d="M17.51-65.573c-0.649-1.401-2.084-2.291-3.643-2.234l-2.954,2.972l-0.332,0.678L17.51-65.573z"/>
	<path fill="#CF75A8" d="M16.842-93.589c0,0-0.169,0.191-0.453,0.491c-0.097,0.284-0.201,0.564-0.307,0.845
		C16.583-93.085,16.842-93.589,16.842-93.589z"/>
	<path fill="#CF75A8" d="M12.489-89.411c-4.149,2.859-9.433,2.323-13.924,1.866c-3.426-0.347-6.659-0.676-8.508,0.598
		c-4.195,2.891-3.332,9.625-3.323,9.694c0.006,0.044-0.008,0.085-0.008,0.129c1.81,0.317,3.655,0.436,5.5,0.352
		c-1.343-0.328-2.847-0.945-4.526-1.884c-0.271-0.152-0.407-0.453-0.36-0.744c-0.019-0.039-0.033-0.081-0.044-0.124
		c-0.101-0.386,0.131-0.781,0.518-0.88l5.151-1.341l4.97-5.434c0.185-0.201,0.467-0.281,0.729-0.208
		c0.263,0.074,0.461,0.29,0.513,0.558c0.055,0.28,1.243,6.724-1.874,9.304c2.757-0.708,5.438-1.901,7.917-3.602
		c0.021-0.017,0.034-0.041,0.057-0.056c0.018-0.012,0.038-0.012,0.056-0.022c3.329-2.309,5.92-5.288,7.729-8.629
		C12.872-89.685,12.682-89.544,12.489-89.411z M-5.864-85.624l-2.341,2.177c-0.032,0.03-0.064,0.057-0.101,0.081
		c-0.089,0.062-0.188,0.105-0.292,0.132l-1.904,0.464c-0.475,0.116-0.955-0.176-1.069-0.65c-0.115-0.476,0.175-0.954,0.649-1.071
		l1.68-0.41l2.172-2.02c0.358-0.333,0.919-0.313,1.253,0.045C-5.485-86.517-5.505-85.958-5.864-85.624z"/>
	<path fill="#231F20" d="M55.709-67.172c-0.011-0.008-0.025-0.009-0.037-0.017c-0.039-0.091-0.058-0.189-0.104-0.277
		c-0.926-1.798-2.879-2.363-2.961-2.385c-0.197-0.056-0.392-0.026-0.568,0.046c-0.064-0.044-0.123-0.091-0.193-0.133
		c-2.249-1.349-3.648-0.47-3.799-0.366v0.001c-0.105,0.072-0.193,0.166-0.26,0.275l-2.381,3.994
		c-0.195,0.326-0.15,0.723,0.074,1.003c-0.266,0.812-0.114,1.638-0.02,1.999c-0.03,0.746-0.205,4.388-0.836,7.803
		c-0.451,2.458-4.88,7.58-12.146,14.052c-0.604,0.538-1.118,1.095-1.562,1.648c-1.307-5.244-5.701-22.705-7.633-28.181
		c-2.185-6.184-6.409-6.019-7.443-5.877c-0.107-0.147-0.254-0.264-0.433-0.324c-0.212-0.069-0.437-0.051-0.636,0.037
		c-0.224-0.337-0.644-0.499-1.038-0.348l-0.612,0.233l-0.154-0.756c0.252-0.087,0.409-0.142,0.409-0.142l-0.583-1.673
		c0,0-1.238,0.431-2.806,0.977l-3.035-4.649c4.277-3.152,7.358-7.361,9.127-12.022c0.106-0.28,0.21-0.561,0.307-0.845
		c2.118-6.195,1.956-13.1-0.737-19.326c0.984,0.441,2.226,0.895,3.695,1.21c0.758,0.163,1.613,0.289,2.542,0.353
		c0.51,2.69,3.341,15.669,11.44,21.172c3.339,2.269,7.145,2.96,11.306,2.054c0.115-0.025,0.22-0.071,0.312-0.135
		c0.176-0.121,0.306-0.304,0.359-0.52c0.079-0.33-0.033-0.676-0.296-0.892c-0.043-0.038-4.242-3.618-4.164-8.909
		c0.389-1.363,0.91-2.794,1.458-4.293c1.667-4.557,3.557-9.722,2.612-15.504c-0.987-6.047-4.033-11.839-8.356-15.891
		c-4.857-4.551-11.009-6.574-17.32-5.693c-7.2,1.004-10.756,5.322-12.471,8.769c-1.18,2.369-1.663,4.622-1.861,5.976
		c-8.742-5.267-20.131-5.299-29.069,0.859c-4.461,3.074-7.695,7.27-9.596,11.949c-1.824-1.897-7.743-6.981-15.577-2.874
		c-9.252,4.853-10.494,16.403-6.354,24.77c1.982,4.006,5.431,6.358,8.472,8.433c0.779,0.532,1.527,1.044,2.217,1.561
		c2.267,3.201,1.812,7.553,1.807,7.597c-0.036,0.315,0.098,0.625,0.35,0.813c0.255,0.189,0.59,0.228,0.88,0.103
		c0.785-0.339,1.506-0.734,2.161-1.186c1.855-1.277,3.189-3.004,3.982-5.159c1.191-3.242,1.139-7.347-0.161-12.202
		c-0.75-2.8-1.696-5.002-2.095-5.876c1.066-0.929,1.885-1.919,2.498-2.818c0.477,4.237,1.968,8.42,4.552,12.169
		c5.586,8.107,14.873,12.174,24.049,11.511l-7.026,3.727c-0.235,0.072-0.811,0.266-1.581,0.672
		c-0.179,0.093-0.299,0.247-0.378,0.418c-0.801,0.096-1.545,0.364-2.169,0.854c-2.196,1.726-6.001,5.355-6.265,5.607
		c-0.396,0.239-0.722,0.56-0.949,0.972c-0.438,0.791-0.702,2.167,0.51,4.223c0.416,0.706,0.889,1.293,1.187,1.637
		c-1.369,11.198-5.422,32.006-5.467,32.229c-0.053,0.291-1.233,7.16,3.104,10.129c0.06,0.041,0.124,0.075,0.193,0.1
		c0.051,0.02,1.106,0.394,2.655,0.416c-1.998,3.762-8.687,17.531-5.872,28.508c1.749,6.82,5.506,12.268,9.914,17.162
		c-0.398,0.512-0.564,1.505,0.439,4.54C-17.284,40.342-8.2,58.256-6.681,59.781c1.18,1.184,4.396,2.091,6.076,2.5
		c-2.103,1.558-7.305,5.526-10.585,8.988c-4.252,4.487-9.261,25.397-10.072,31.219c-0.721,5.162-7.956,11.494-10.333,13.574
		l-0.245,0.217c-2.493,2.187-2.153,6.578-1.948,9.201l0.026,0.348c0.119,1.572-0.653,2.832-1.718,4.578
		c-0.357,0.582-0.724,1.183-1.097,1.859c-1.766,3.203,0.718,6.871,0.823,7.025c0.189,0.277,0.521,0.422,0.854,0.375
		c0.795-0.111,2.049-0.363,2.823-0.898c0.235-0.163,0.428-0.35,0.55-0.572c0.105-0.191,0.458-1.002,1.522-3.457
		c2.409-5.558,7.424-17.128,8.771-18.982c1.743-2.397,26.606-37.838,29.714-42.272c1.779,2.186,3.477,4.019,4.823,4.993
		c3.844,2.781,14.146,7.215,19.449,6.115c0.73-0.152,1.351-0.402,1.856-0.752c0.437-0.301,0.787-0.672,1.051-1.113
		c1.808-3.051,2.235-10.49,2.334-13.549c0.2-6.153-0.216-12.327-1.116-16.516c-0.633-2.947-2.578-8.275-4.878-14.044
		c0.058-0.098,0.101-0.206,0.117-0.326c0.109-0.756,2.615-18.55,0.672-23.611c-1.74-4.534-6.414-16.174-7.07-17.805l1.271-17.734
		c0.007-0.081,0.053-0.724,0.035-1.778c0.036,0,0.071-0.009,0.107-0.014c0.048-0.005,0.096-0.004,0.142-0.018
		c0.09-0.026,0.177-0.066,0.256-0.121c0.068-0.048,0.131-0.105,0.187-0.173l0.389-0.479c0.322,0.515,0.846,1.156,1.756,1.39
		c0.985,0.252,2.13-0.044,3.498-0.906c0.062-0.039,0.126-0.081,0.188-0.123c1.908-1.315,2.512-3.55,3.099-5.714
		c0.572-2.119,1.164-4.309,2.969-5.745c3.953-3.145,12.021-10.83,13.349-14.303c1.191-3.117,2.548-10.322,2.698-11.126
		c0.066-0.203,0.124-0.437,0.168-0.689c0.166-0.004,0.332-0.039,0.479-0.14c0.066-0.046,1.619-1.135,1.637-2.88
		C57.954-64.924,57.202-66.101,55.709-67.172z M53.734-65.035c-0.035-0.214-0.105-0.412-0.195-0.6
		c0.041-0.198,0.146-0.829,0.046-1.584c0.155,0.167,0.301,0.354,0.414,0.576c0.263,0.518,0.324,1.137,0.2,1.84
		C54.055-64.887,53.901-64.964,53.734-65.035z M55.592-63.244c0.011-0.023,0.028-0.042,0.037-0.067
		c0.142-0.39,0.246-0.77,0.314-1.138c0.139,0.24,0.229,0.49,0.229,0.746c-0.002,0.388-0.195,0.728-0.399,0.983
		C55.727-62.897,55.665-63.072,55.592-63.244z M50.933-68.419c0.619,0.372,0.839,0.967,0.902,1.477
		c-0.516-0.136-1.027-0.15-1.38-0.049c-0.255,0.073-1.498,0.161-2.535,0.201l1.242-2.084C49.419-68.939,50.007-68.975,50.933-68.419
		z M53.123-63.352c1.012,0.494,1.08,1.519,0.984,2.21c-0.335-0.826-0.825-1.484-1.29-1.973
		C52.934-63.191,53.033-63.271,53.123-63.352z M-13.248-11.953l2.277-3.861l0.407,0.752c0.233,0.429,0.771,0.591,1.201,0.359
		c0.027-0.018,0.057-0.033,0.082-0.051c0.369-0.254,0.493-0.75,0.274-1.15l-3.115-5.766c-0.008-0.016-0.023-0.024-0.033-0.039
		c4.25-5.48,11.769-15.328,15.678-20.457c2.05,1.742,4.041,3.429,5.939,5.035C7.259-33.64-4.068-15.689-5.886-12.537
		c-0.636,1.104-1.955,1.594-3.924,1.461c-0.675-0.046-1.311-0.162-1.834-0.282C-12.288-11.592-12.834-11.794-13.248-11.953z
		 M13.867-67.807c1.559-0.056,2.994,0.833,3.643,2.234l-6.929,1.416l-0.429,0.087l0.761-0.766L13.867-67.807z M21.641-45.924
		l-7.581,1.549l-3.668-17.934l7.583-1.551L21.641-45.924z M9.833-54.989c0.032-0.262,0.061-0.529,0.087-0.797l1.089,5.328
		c-0.17-0.266-0.617-0.655-1.841-1.695C9.474-53.099,9.718-54.063,9.833-54.989z M19.677-64.385l-0.143-0.697
		c-0.443-2.166-2.082-3.783-4.085-4.317l0.16-0.161c0.112-0.11,0.189-0.247,0.229-0.396c0.014-0.05,0.225-0.883,0.259-1.883
		c0.523-0.089,3.708-0.402,5.515,4.719c0.588,1.665,1.424,4.524,2.333,7.82C22.281-62.018,20.344-63.811,19.677-64.385z
		 M12.879-69.48c-0.207,0.042-0.398,0.121-0.596,0.185l1.968-1.784c-0.026,0.18-0.056,0.335-0.08,0.449l-1.116,1.123
		C12.996-69.497,12.937-69.492,12.879-69.48z M23.481-39.759c0.835-1.949,1.188-2.886,1.585-3.946c0.137-0.367,0.279-0.75,0.453-1.2
		c0.594-1.546,0.913-3.119,1.007-4.696c1.646,6.35,3.009,11.866,3.038,11.979c0.007,0.027,0.025,0.047,0.034,0.073
		c-0.449,0.82-0.747,1.558-0.932,2.111C27.21-36.645,25.465-38.097,23.481-39.759z M10.8-73.928l0.157,0.765L6.79-71.575
		c-0.457,0.175-0.686,0.686-0.514,1.143c0.176,0.458,0.688,0.687,1.145,0.512l3.895-1.484l0.103,0.503L8.61-68.358
		c-0.363,0.328-0.39,0.889-0.062,1.251c0.162,0.179,0.38,0.273,0.604,0.287c-0.364,0.617-0.596,1.3-0.705,2.01
		c-0.092,0.151-0.155,0.318-0.146,0.498c0.004,0.051,0.26,5.158-0.23,9.104c-0.453,3.655-3.22,8.286-3.489,8.729
		c-0.804,1.055-18.24,23.955-20.88,27.174c-3.706,4.52-8.086,3.393-8.809,3.166c-3.273-2.365-2.274-8.224-2.266-8.271
		c0.009-0.044,0.196-1.007,0.497-2.588l1.658-1.018c-0.122,1.73,0.083,3.054,0.103,3.178c0.08,0.482,0.536,0.809,1.019,0.73
		c0.132-0.023,0.254-0.073,0.357-0.145c0.273-0.189,0.429-0.523,0.372-0.873c-0.009-0.06-0.945-6.027,2.684-8.717
		c2.754-2.041,12.214-9.575,18.11-14.287c0.052-0.022,0.106-0.04,0.153-0.072c0.062-0.042,0.121-0.095,0.176-0.157
		c0.016-0.019,0.02-0.042,0.034-0.061c2.631-2.103,4.471-3.579,4.53-3.626c0.2-0.161,0.319-0.4,0.33-0.656l0.636-15.836
		c0.001-0.013,0.001-0.025,0.001-0.037c-0.002-0.91,0.315-2.902,1.299-3.246c1.119-0.392,3.976-1.387,6.134-2.139
		c0.023-0.008,0.047-0.017,0.071-0.025L10.8-73.928z M-3.447-74.943c0.03-0.017,0.059-0.034,0.087-0.054
		c0.229-0.157,0.35-0.409,0.367-0.673c2.943-0.667,5.814-1.845,8.486-3.557l2.771,4.245c-1.717,0.598-3.454,1.204-4.269,1.489
		c-2.383,0.836-2.48,4.402-2.482,4.9L1.119-58.79c-6.175-5.265-9.758-8.438-10.415-9.034c-1.01-0.916-2.306-1.659-3.643-2.087
		l5.939-3.149l0.981-0.52L-3.447-74.943z M6.828-121.262l3.411,3.35c0.507,0.604,0.992,1.234,1.448,1.896
		c4.296,6.236,5.367,13.749,3.59,20.559c-0.083,0.073-0.156,0.162-0.209,0.267c-3.597,7.175-10.067,6.518-16.326,5.883
		c-3.756-0.381-7.305-0.742-9.691,0.901c-2.132,1.469-3.511,3.919-3.987,7.086c-0.25,1.661-0.192,3.091-0.134,3.81
		c-2.809-0.706-5.5-1.896-7.938-3.544c1.455-1.397,2.834-3.139,4.097-5.232c0.124-0.206,0.159-0.451,0.1-0.683
		c-0.062-0.231-0.212-0.428-0.419-0.546c-0.229-0.129-5.503-3.06-11.479-1.854c-2.232-3.901-3.304-8.198-3.292-12.459
		c0.028-0.124,0.029-0.245,0.005-0.363c0.135-7.824,3.904-15.475,10.824-20.243C-13.817-128.88-1.586-128.075,6.828-121.262z
		 M5.331-81.204c-0.018,0.01-0.038,0.011-0.056,0.022c-0.023,0.015-0.036,0.039-0.057,0.056c-2.48,1.7-5.16,2.894-7.917,3.602
		c-1.673,0.429-3.375,0.675-5.076,0.752c-1.845,0.084-3.689-0.035-5.5-0.352c0-0.044,0.014-0.085,0.008-0.129
		c-0.009-0.069-0.872-6.803,3.323-9.694c1.849-1.274,5.082-0.945,8.508-0.598c4.491,0.457,9.774,0.993,13.924-1.866
		c0.193-0.133,0.383-0.274,0.571-0.422C11.251-86.491,8.66-83.512,5.331-81.204z M-11.952-47.932c-0.483-0.068-0.932,0.27-1,0.755
		l-0.791,5.673c-3.498,2.769-6.611,5.21-7.998,6.238c-1.798,1.333-2.696,3.224-3.134,5.032c-0.099,0.02-0.198,0.05-0.29,0.106
		l-1.268,0.779c1.318-7.031,3.657-19.944,4.593-27.805c0.212-1.795,0.62-3.441,1.191-4.928c1.109,0.404,2.285,1.073,3.178,1.882
		c0.701,0.637,5.121,4.415,13.124,11.218c-2.211,1.767-4.831,3.855-7.387,5.884l0.536-3.835
		C-11.132-47.417-11.468-47.864-11.952-47.932z M-23.795-61.971c0.062-0.111,0.174-0.249,0.39-0.356
		c-0.176,0.143-0.331,0.32-0.445,0.542C-23.83-61.846-23.826-61.915-23.795-61.971z M-27.627,4.482
		c1.326-9.506,6.46-18.536,6.529-18.657c0.021-0.037,0.023-0.077,0.039-0.115c1.024-0.213,2.196-0.637,3.392-1.414
		c0.47,1.69,1.52,4.504,3.461,5.278c0.101,0.04,0.229,0.089,0.354,0.137c0.093,0.102,0.203,0.19,0.342,0.242
		c0.075,0.027,0.613,0.218,1.399,0.403c3.468,1.255,9.182,3.219,9.483,3.323c0.041,0.013,0.084,0.025,0.127,0.033
		c0.148,0.027,3.094,0.541,5.457-1.086c0.464-0.32,0.906-0.723,1.3-1.227c1.865-2.393,11.25-17.496,13.666-21.395
		c3.295,2.771,5.844,4.905,7.268,6.096c0.112,1.784,0.036,2.876,0.033,2.906L23.938-3.047c-0.01,0.135,0.01,0.268,0.062,0.393
		c0.054,0.133,5.277,13.125,7.135,17.971c1.268,3.299,0.32,13.97-0.427,20.103c-4.133-10.107-8.804-20.475-9.127-21.189
		c-0.051-0.118-0.497-1.117-1.241-2.495l1.641-7.452c0.103-0.479-0.197-0.952-0.676-1.057c-0.479-0.105-0.951,0.197-1.057,0.676
		l-1.225,5.57c-1.597-2.552-3.832-5.452-6.399-6.867c-0.43-0.236-0.967-0.08-1.203,0.348c-0.235,0.43-0.081,0.967,0.35,1.203
		c4.505,2.484,8.152,10.701,8.193,10.793c0.134,0.295,13.382,29.703,15.183,38.084c1.875,8.732,1.31,24.875-1.01,28.787
		c-0.304,0.51-0.889,0.859-1.742,1.037c-4.574,0.948-14.444-3.205-18.054-5.818C10.044,73.931,1.082,60.319-0.821,57.12
		c-0.98-1.646-2.918-3.388-4.793-5.072c-0.877-0.787-1.705-1.531-2.384-2.219c-2.063-2.095-5.163-6.279-5.194-6.322
		c-0.104-0.142-0.249-0.227-0.403-0.285c-1.602-3.304-2.932-6.235-3.404-7.662c-0.388-1.171-0.552-1.905-0.62-2.361
		c2.042,2.151,4.183,4.21,6.306,6.247c1.326,1.274,2.698,2.588,3.994,3.883c2.348,2.346,5.428,5.09,8.688,7.992
		c7.706,6.864,17.299,15.407,18.228,20.106c0.094,0.48,0.562,0.793,1.042,0.699c0.121-0.026,0.232-0.075,0.328-0.139
		c0.283-0.195,0.438-0.545,0.366-0.903c-1.045-5.287-10.062-13.32-18.787-21.086c-3.239-2.887-6.301-5.613-8.613-7.924
		c-1.309-1.304-2.687-2.627-4.021-3.906c-7.188-6.896-14.625-14.031-17.23-24.193c-0.189-0.736-0.33-1.489-0.43-2.252
		C-28.057,9.372-27.966,6.912-27.627,4.482z M-31.631,134.033c-0.688,1.592-1.29,2.977-1.43,3.27
		c-0.189,0.154-0.829,0.365-1.518,0.508c-0.496-0.916-1.389-2.982-0.447-4.689c0.354-0.643,0.711-1.227,1.056-1.793
		c1.146-1.875,2.135-3.494,1.973-5.635l-0.026-0.352c-0.178-2.293-0.476-6.129,1.353-7.734l0.243-0.215
		c2.765-2.418,10.108-8.846,10.92-14.662c0.847-6.062,5.771-26.201,9.604-30.246c3.517-3.708,9.539-8.186,10.948-9.218
		c1.791,2.667,4.055,5.905,6.286,8.771c-0.776,1.107-28.174,40.168-29.998,42.677C-24.129,116.728-29.009,127.984-31.631,134.033z
		 M-0.852,60.391c-1.816-0.483-3.911-1.197-4.573-1.86c-0.51-0.513-2.5-4.123-4.703-8.387c0.299,0.333,0.592,0.648,0.869,0.929
		c0.716,0.727,1.564,1.488,2.461,2.293c1.775,1.596,3.611,3.244,4.455,4.66C-2.118,58.405-1.591,59.249-0.852,60.391z
		 M30.392-23.751c-0.032-0.005-0.065-0.009-0.093-0.017c-0.389-0.1-0.615-0.46-0.871-0.92c-0.045-0.08-0.089-0.148-0.133-0.221
		l4.319-5.324c0.307-0.38,0.25-0.936-0.131-1.245c-0.028-0.021-1.232-1.001-3.328-2.73c0.137-0.58,0.893-3.319,3.504-5.644
		c5.425-4.832,12.034-11.365,12.713-15.055c0.725-3.939,0.861-8.034,0.867-8.206c0.004-0.105-0.012-0.211-0.047-0.311
		c-0.05-0.148-0.199-0.828,0.039-1.215c0.045-0.073,0.18-0.292,0.725-0.378c0.617-0.024,2.416-0.105,2.988-0.27
		c0.109-0.023,0.525,0.005,0.822,0.21c0.177,0.124,0.216,0.251,0.232,0.353c-0.06,0.13-0.531,0.353-0.987,0.43l-1.844,0.028
		c-0.487,0.007-0.88,0.41-0.873,0.899c0.01,0.49,0.412,0.88,0.902,0.873l1.624-0.025c0.438,0.315,1.554,1.246,1.853,2.721
		c0.271,1.327-0.182,2.809-1.342,4.402c-0.288,0.395-0.201,0.95,0.194,1.239c0.312,0.227,0.723,0.22,1.022,0.013
		c0.038-0.026,0.067-0.065,0.101-0.097c-0.423,1.809-0.899,3.611-1.34,4.765c-1.074,2.807-8.392,10.042-12.8,13.55
		c-2.259,1.799-2.959,4.388-3.575,6.67c-0.562,2.079-1.043,3.876-2.521,4.801c-0.229,0.144-0.432,0.255-0.622,0.35
		C31.111-23.766,30.667-23.71,30.392-23.751z"/>
	<path fill="#231F20" d="M-7.07-86.921l-2.172,2.02l-1.68,0.41c-0.475,0.117-0.765,0.595-0.649,1.071
		c0.114,0.474,0.595,0.766,1.069,0.65l1.904-0.464c0.104-0.027,0.203-0.07,0.292-0.132c0.036-0.024,0.068-0.051,0.101-0.081
		l2.341-2.177c0.358-0.334,0.379-0.893,0.047-1.252C-6.151-87.234-6.711-87.254-7.07-86.921z"/>
	<path fill="#FFFFFF" d="M-2.051-85.057l-4.062,4.445c-0.095,0.102-0.217,0.176-0.351,0.211l-4.055,1.054
		c2.319,1.153,5.053,2.015,6.715,0.868c0.018-0.011,0.033-0.022,0.049-0.033C-2.04-79.75-1.884-82.916-2.051-85.057z"/>
	<path fill="#AE161B" d="M-0.825-86.828c-0.052-0.268-0.25-0.484-0.513-0.558c-0.262-0.073-0.544,0.007-0.729,0.208l-4.97,5.434
		l-5.151,1.341c-0.387,0.099-0.618,0.494-0.518,0.88c0.011,0.043,0.025,0.085,0.044,0.124c-0.047,0.291,0.09,0.592,0.36,0.744
		c1.679,0.938,3.184,1.556,4.526,1.884c1.701-0.078,3.402-0.323,5.076-0.752C0.418-80.104-0.77-86.548-0.825-86.828z M-3.755-78.512
		c-0.016,0.011-0.031,0.022-0.049,0.033c-1.662,1.147-4.396,0.285-6.715-0.868l4.055-1.054c0.134-0.035,0.256-0.109,0.351-0.211
		l4.062-4.445C-1.884-82.916-2.04-79.75-3.755-78.512z"/>
	<path fill="#231F20" d="M-7.243-94.666c0.193,0.139,0.438,0.193,0.672,0.151c3.545-0.64,6.487-1.754,8.752-3.315
		c8.073-5.563,5.021-14.958,4.99-15.052c-0.139-0.408-0.549-0.658-0.975-0.593c-2.984,0.459-5.549,1.416-7.621,2.843
		c-7.643,5.265-6.242,14.97-6.18,15.381C-7.568-95.015-7.439-94.804-7.243-94.666z"/>
</g>
</svg>
