<?xml version="1.0" encoding="utf-8"?>
<!-- Generator: Adobe Illustrator 16.0.0, SVG Export Plug-In . SVG Version: 6.00 Build 0)  -->
<!DOCTYPE svg PUBLIC "-//W3C//DTD SVG 1.1//EN" "http://www.w3.org/Graphics/SVG/1.1/DTD/svg11.dtd" [
	<!ENTITY ns_extend "http://ns.adobe.com/Extensibility/1.0/">
	<!ENTITY ns_ai "http://ns.adobe.com/AdobeIllustrator/10.0/">
	<!ENTITY ns_graphs "http://ns.adobe.com/Graphs/1.0/">
	<!ENTITY ns_vars "http://ns.adobe.com/Variables/1.0/">
	<!ENTITY ns_imrep "http://ns.adobe.com/ImageReplacement/1.0/">
	<!ENTITY ns_sfw "http://ns.adobe.com/SaveForWeb/1.0/">
	<!ENTITY ns_custom "http://ns.adobe.com/GenericCustomNamespace/1.0/">
	<!ENTITY ns_adobe_xpath "http://ns.adobe.com/XPath/1.0/">
]>
<svg version="1.1" id="Layer_1" xmlns:x="&ns_extend;" xmlns:i="&ns_ai;" xmlns:graph="&ns_graphs;"
	 xmlns="http://www.w3.org/2000/svg" xmlns:xlink="http://www.w3.org/1999/xlink" x="0px" y="0px" width="595.279px"
	 height="841.89px" viewBox="0 0 595.279 841.89" enable-background="new 0 0 595.279 841.89" xml:space="preserve">
<metadata><?xpacket begin="﻿" id="W5M0MpCehiHzreSzNTczkc9d"?>
<x:xmpmeta xmlns:x="adobe:ns:meta/" x:xmptk="Adobe XMP Core 5.3-c011 66.145661, 2012/02/06-14:56:27        ">
   <rdf:RDF xmlns:rdf="http://www.w3.org/1999/02/22-rdf-syntax-ns#">
      <rdf:Description rdf:about=""
            xmlns:dc="http://purl.org/dc/elements/1.1/">
         <dc:format>image/svg+xml</dc:format>
         <dc:title>
            <rdf:Alt>
               <rdf:li xml:lang="x-default">Print</rdf:li>
            </rdf:Alt>
         </dc:title>
      </rdf:Description>
      <rdf:Description rdf:about=""
            xmlns:xmp="http://ns.adobe.com/xap/1.0/"
            xmlns:xmpGImg="http://ns.adobe.com/xap/1.0/g/img/">
         <xmp:MetadataDate>2018-09-05T11:33:42-03:00</xmp:MetadataDate>
         <xmp:ModifyDate>2018-09-05T11:33:42-03:00</xmp:ModifyDate>
         <xmp:CreateDate>2018-09-05T11:33:42-03:00</xmp:CreateDate>
         <xmp:CreatorTool>Adobe Illustrator CS6 (Macintosh)</xmp:CreatorTool>
         <xmp:Thumbnails>
            <rdf:Alt>
               <rdf:li rdf:parseType="Resource">
                  <xmpGImg:width>96</xmpGImg:width>
                  <xmpGImg:height>256</xmpGImg:height>
                  <xmpGImg:format>JPEG</xmpGImg:format>
                  <xmpGImg:image>/9j/4AAQSkZJRgABAgEASABIAAD/7QAsUGhvdG9zaG9wIDMuMAA4QklNA+0AAAAAABAASAAAAAEA&#xA;AQBIAAAAAQAB/+4ADkFkb2JlAGTAAAAAAf/bAIQABgQEBAUEBgUFBgkGBQYJCwgGBggLDAoKCwoK&#xA;DBAMDAwMDAwQDA4PEA8ODBMTFBQTExwbGxscHx8fHx8fHx8fHwEHBwcNDA0YEBAYGhURFRofHx8f&#xA;Hx8fHx8fHx8fHx8fHx8fHx8fHx8fHx8fHx8fHx8fHx8fHx8fHx8fHx8fHx8f/8AAEQgBAABgAwER&#xA;AAIRAQMRAf/EAaIAAAAHAQEBAQEAAAAAAAAAAAQFAwIGAQAHCAkKCwEAAgIDAQEBAQEAAAAAAAAA&#xA;AQACAwQFBgcICQoLEAACAQMDAgQCBgcDBAIGAnMBAgMRBAAFIRIxQVEGE2EicYEUMpGhBxWxQiPB&#xA;UtHhMxZi8CRygvElQzRTkqKyY3PCNUQnk6OzNhdUZHTD0uIIJoMJChgZhJRFRqS0VtNVKBry4/PE&#xA;1OT0ZXWFlaW1xdXl9WZ2hpamtsbW5vY3R1dnd4eXp7fH1+f3OEhYaHiImKi4yNjo+Ck5SVlpeYmZ&#xA;qbnJ2en5KjpKWmp6ipqqusra6voRAAICAQIDBQUEBQYECAMDbQEAAhEDBCESMUEFURNhIgZxgZEy&#xA;obHwFMHR4SNCFVJicvEzJDRDghaSUyWiY7LCB3PSNeJEgxdUkwgJChgZJjZFGidkdFU38qOzwygp&#xA;0+PzhJSktMTU5PRldYWVpbXF1eX1RlZmdoaWprbG1ub2R1dnd4eXp7fH1+f3OEhYaHiImKi4yNjo&#xA;+DlJWWl5iZmpucnZ6fkqOkpaanqKmqq6ytrq+v/aAAwDAQACEQMRAD8A9U4q7FXYq7FXYq7FXYq7&#xA;FXYq7FULq18LDTLq9K8/q0TyhfEqpIH05XlycEDLuDXmycEDLuDHPI96Lbyyt9qlwI2v7qSRXkNO&#xA;TSNxAH+sVJzC0M+HFxTP1FwNBk4cPFM/VL72W5sXZuxV2KuxV2KuxV2KuxV2KuxV5d+Zn5h20mm/&#xA;obRJi1xdy+jcXIBCCMU5BWPXmTSvhXNVqtbCUTGJ97rsusxzjIRN1zSGwv8AUda1zR7Sdy8MDwQw&#xA;wrsixxlQzcR3KrVjmrhlllyRB5WNnSRyyzZYjpYodwe351L1jsVdirsVdirsVdiqC1uea30a/uIT&#xA;SaG2mkiP+UqEr+IyrPIiEiOYBas8jHHIjmAUm/L3WbzVfL/q3jGSe3laAyn7ThVVgT7/AB0zG7Oz&#xA;SyY7lzBpxOzc8smK5cwaSnzh54k0zU9Q0yekVm1kyRTUPMTypRGr4VYD265RqtWYzlDpw/bTTqdX&#xA;IZJYxy4D86eO3bGaSKeIcobdwWYb8iWAIQd6ZpoChR5l1WGAiDE/VIfi3pf5a2mnrrMckaveXYiZ&#xA;pZVHCG2DLTq27ux+Hbbr1zP7NhEZNvUfsDldmQiMm3qPf0H63qeb96F2KuxV2KuxV2KuxVAaxrGk&#xA;6XamTUp0iicEBG3Z/EKoqWynNmhjFyLTnzwxi5l5Pqv52eUfJPl5LXT7N59VmaSSPT+RonJzxeaU&#xA;j+Wmy18MwtLnhHH6Q67BqsePEOEc72eGeYPzW83eY9Ta5uzE7ysFihCnio3Cou42FcpyREpcUubi&#xA;T1EpS4q3ZxpMk00FvEV4xwFWncbcmDcuK9e++aydRNtWcDHIyO5PR9JaFp2lWOmwrpsIit5VWQHq&#xA;zchUFmO5OdNgxwhEcA2eg0+KEIDgFAphlze7FXYq7FXYq07pGjO7BEQFmZjQADckk4q8381fmNqe&#xA;ha9fiFEurJYYvqsbGicnRXEnJdyPjPffNRm108eYx5xr9DqJ62UdQYfw1+i3nev+bbnUbg3V9OLm&#xA;74hVWMUjUeC02C/jmsymeWXFJ1+TFkz5OKWweP6po3mDU9WuLmWGnquSHZlCha/DtU/hmbGcYimw&#xA;4ZXy2ZJ5T8kW1uGv7+XlImyBdlQ0FTUjfrmPm1B5BrnI45ADeTPNG0+e6+q2VpGZJ5gqoi9yRUn+&#xA;JzE4ZTnQ5uJMSyZSBuSX0PY231Wyt7avL0I0j5ePBQtfwzroR4Ygdz1+OPDEDuCtkmbsVdiqT+bP&#xA;Nug+VNGl1jW7kW9pGQqgDlJJI32Y40G7u3gPn0xV4tqP/OQ3ni9m56BoNnp9kT8D6q8s0zL/ADGK&#xA;Bogh9uR+eYk9bjjtzaZZ4DzYZ5j/AOcg/wAwrjTdQ0O5k0yVLyJ7aee2t5kkjWReLhGMxWtCR9k5&#xA;CWq4o7BwtTrgYmMeaA8va7qN75Zs7a5fmlunoRuR8XpRuSi18FrQewpmrzi535OHigDUjzGybabY&#xA;fWnYvURJStOpJ6DKMk+ELqc/hjbmVeaK3uryO2t1CxRAmR1H379/nkQSI2WqE5QxmcuZXX1oZJI7&#xA;W1SixglzU8QW/mJ70wQntZRgzVEymeb1jyh5X1CfyrYz6PfLY3bCRLycxgyOQ5ACyD4lVQAKClep&#xA;zZ4NOZ4xLGeEnn3/ADcvDpzkgJ4jwXd9/wA2beXdL1bT7Z01LUm1GRyCpZacKVqAxJZq++bHTYpw&#xA;HqlxOx02GcBU5cSbZkOS7FWmZUUu5CqoqzHYADqScVfK/wCZnna184ecpdQFyp8saDyttJZiBFLP&#xA;/wAfFyK9dxxQ+AqMwNZlP0R5lx88z9I5sLnnvtdlppzNBp9sS63TVX1plHwBe/AHcmmYgiMQ9W8j&#xA;07g48o8ET/OP2JfbeSr9pR9ZlRIurFSWb5CoGQOYOtGnPVmFlZRQRRWlsnFFoqL7k9z7nMeUupcn&#xA;aI8gyNbNIrL05nLJGrFgpKjf4j86dq5i8dy2dX+YMsnpHMpPHfTRRBIgqGhBkCjmQfE5eYA83Yyw&#xA;xkbO7IPLzaNdlLebV7HTmABmkv7hIKsx+Lj6hBc18MY6WWSXQDzcPJpZZJmzEDzL6A8t2mn2miWl&#xA;vp86XNrGnwXEbBlckkswKkjdiTnR4MQhARHR6LT4hjgIjkEyy1ufIGq+c/Mnm4Sa7rmtXVrYTM72&#xA;um29w1tawQ8zwVvTKc2AH2m3zXajVTE+GIcbLmkJcMQkltYeWrhqW9+8jj9lbuQt93OuUyz5xz+5&#xA;rOXKOf3JjNo0c0TxS3l7JFICrxvdzsrKdiCC+4OQGuyMRqZoe28p6DblSLUSFfs+qzSAd9gxK/hk&#xA;JavIerE55nqn1ndNatyjRDtQVHSnhTpmJKPE4uXFxiiSiWmu9TZYQqKEq1dxTtud/wAMgAINAhDA&#xA;Lsq1vpV5BKsyPGXWtA1aGop4ZE5QdmuWshIUQaKX3Nx5n1jXU8taXBFFevD9YlmmbhDHErcS/Vmk&#xA;IJGy45s2DTYfGyXw3QA5k/odl2b2dDIeKKban+TWrWmmrdaPrE19rCgm7t7shbe5r1WMD+5P8u5+&#xA;jNHpva6M8vDlxiOI8jH6o+/+d57fN6HL2ZEwoc2P+Xvycs/N00tvoWspp+s2oH6S8v6ujR3UDU+I&#xA;o6BhNHX7LhRsd87jFjjkiJ45CUT1eey9lkHY/N7Z+T35P615DuLm4u9eN3FdR8JNLgRhbB6giXk5&#xA;qWFCNlG2ZWHEY9W/S6U4+Z+D1LL3NfFf5h+W38u6rrHkx0YOLxZdCRaj1be6kMkND4Jure4zDyQ4&#xA;cvH0rdpmOGXH0rdPdH/Lry7Z6YtreWyX1ywrcXMgJYtTfgftKo7UzS5u0Mkp3E0HnM3aeWU7ieEd&#xA;Aler6E2kXEUGh6hPLeT1+r6KyNeFx/kU/eIop9ommXQ1IlEyygCI5zvh/tdjoc2TUGjC/wCkNv7U&#xA;S9t5zsLdJtZ8t3cKMKma2C3KqPF1iLMn05iY9do8siMeaN/0vT8rq/g7LJ2bkG4QkPmbQpNjeJE4&#xA;NGSasTAjsQ/HMw6bIOjiSwTHREHX9KtuMv1+GMkVRhItSD4UO+R/LzO3CWBwmWxDVt5s1nU7uP6g&#xA;fT02M8prySMAy+CRBh08TTGWlhCPq+ru7ve0y0GKI3Hq7rREmpapp/mDTPMVrEbyewd0ntgwQyW8&#xA;ylXVa/DVa8h75jajSw1GCeCR4eLke4jcftc7s/LHDLyZB5a82/mpcC8mk+oz2sTqLaHVF+pXUyuC&#xA;37s2/qQgL0Jc/wAc12b2Z0E4j1eFP+jIyj/shf3Oee2ccDRkD+PJOY7S289wXM89pJ5e836FN6MN&#xA;9bTo80EpjEkbJcQ0EkTB+nzp45p55M/YmeMYz8TFMcVcge/vo+Y8r7nYwMNRC3qf5TecbvzT5Rjn&#xA;1IBNc06aTTdZjAoBdWx4swAp9tSr7bCtO2en4csckBOO8ZAEe4uslGjTMssQ+U/zM1i882fnnBBa&#xA;XENpa6VK+jWd1JF6o+sxRPJLzUFCaysUHxbdaZrO1tSMOnnLh4+EXQNbX3+XNfBjm/dk/UjtWs/P&#xA;2iRt6+kprCsONvc6aWP71tkEsD/GilurKSBnKaTtTRZ/4zjPUT+2pDb4c3XZ/ZsgjgOyeWGn/wCD&#xA;NNt1ht/0z548wSCFFBo09wRyKBj/AHdvAu56AAV6nNRGOXtnVcEfRp4f7Ed/9aX42D0ePHDTYwAH&#xA;m35leY/N+h+YDaaj5pnl1KzmA1DRbNLjT4VSiMohmjNZEdXb4mINKHcnbu9L7PaLDHhGOMvOQ4j9&#xA;v6KcWWonLqz/AEpbSLyHrXmDVIn1SxBurzRF1lVuZ/qSJxthIzjkTLx5df2vpzie05RPaUcGlJxR&#xA;uMZcB4d79XLbYfc5uIHw+KW/vee201hr1/o1y+gW+kWunwD660VtHatc3UihWbjGK+knVf8AOnU4&#xA;NPk0wyA5ZZDOXpuRlwxHLn173S9oam4VChKkf5yim0/TXuLCSlaMnGjFVDCvWtRQ4cB4ju6KGaco&#xA;GxUg7yVq9hrNu8V1GBfREchVgGU9CtD4jpg1EZQ3HJqy5slXH4vUvId15asbhrbWrcXEcrL6FxNR&#xA;1iIqKMKfZNeu+S0mbFdZIj3rpdRhMv3kRv1VFgj0384vNVpGAtvqllp2o2yLTgFjjNs5WnYsmaX2&#xA;5w/u8UxyBkPnRH3F7bs8jcBW8l3X+HfzfvdNY8dP84Wgu7Ydhf2IpKqjp8cJ5t7jNl7Ha7xdJ4Z+&#xA;rEa+B3H6R8GGshUr73seda4b4pvLK5vbbUzBI0WpRand3EE4JV1uI7lyGDDcN75qtRMDLUhcSKI8&#xA;i4s8hhltm35MeafPmt3c6X7G60S2DRz3N2V9eO5BqIkZArP8JHLmv09jxPtX2focEQcY4M0t+EfS&#xA;R3+XlXy6jfaTJOXPeLNNf0uFtai8x2nmJtE1HR4HgecC1ljijnozF0uEdUZgOvhmr7D7Y1GjHBjx&#xA;8fiHbY2a22rn8mzPhjPcmqSuy8s6L52mt/MWta1P5sSBmjtWnhitrasTFT+7hih9QK1fFTv1zY9r&#xA;+02uiTiMRhlW9by3872+8NeHTQ580t/O3W5F0m38safC9zd35FxeW0Aq62Nuwd6AUpzZQB40Iyj2&#xA;U0o8U6nIeGENgT/Plt9g5/Ap1cjw8I5lhlnqum3Nn9ZgmT6ui1c1A4ADow/ZpnaTxSjKiN3l5Y5A&#xA;0UNHqF5qcUn6O0me/s2BUznhFG478DIV5DJnFGH1yET82OQ44bTkAe7moeQ9EZ/PNvpTqbCW9rFF&#xA;bX7ejWpBHGT7D07cTyPShy2eGWSPoIPm0x0hlZxyBB6/rfRPljyjo1/HLpWr2klprFj9pkdgZYid&#xA;n+Lkrb7VHtkNNpITuMxU4/aGGm0kMlxyDhyR7uo+5JvOWlQ6D+aflBoWcw3+lXulK8nxMRaut0ql&#xA;hT+c0zX+1elH8nmv8nKJ/wB7/vnpezoDGREcqQP5mQ3Vto9r5lsF5aj5YuotUhAr8UUTUnjNP2Wi&#xA;JLfLOO9ktd4GsET9OT0/H+H7dvi7HVw4oe57XpuoWuo6da6haP6lreQx3FvJ/NHKodD9KnPXXTvm&#xA;b81fLF15L8539/JEw8sa/cG7tr0KTHBdy7zQykbLyerJ2p8jmDrNOZ+ocw4+fEZbjmw++tdRSO7u&#xA;tBufSbUIjBqFuvExXUR6g8g6B6Vo1M1hhjmYjLG+A3E9Yn7DXkx0+qlj9J5Iv8vbDR70yaJPNaW+&#xA;o3L1mnvwyXkK0oy2tswNo8r9FuKl1G4A2yHaXak9LjlkjiMpdJD1RrzP1R91VfXq7PDAZK9Wz13z&#xA;D5i8ueQ/LUTOgit4EEGnafF9uVlGyIPxZj8zvnm2i0Wo7R1BreUjcpHkPP8AUHZznHHFjPkDy/fa&#xA;zbyecNQuY5dQ10CQulSsMCmiW8Y7BKfFv18eubXtrVwwSGlgCMeH/ZS6yPv6eXyacUDL1HmWP+cP&#xA;Kvlq/wDOcdha2ys9iouNdu0+ASPIKxWxCkAk05uT2pm97C1WojpjOcjwy2gDvy5y93QD3um7b1Uc&#xA;Eaj9ZZAiIiKiKFRQAqgUAA6ADLibeIJvcoTVdI07VbU2t/As8R3FdmU/zKw3U+4yzFmljNxNNuHP&#xA;PGbiaKY+WfzD87+SSlveCXzT5aj+EKxB1K2jA6I52nUfytv7gZvdN2lGe0/TL7HodL2pDJtP0y+x&#xA;OvzG86eV/M2neUPNGg3yXK6brtvBexUKzW8d6jxP60Z+NPiAG4oe1ce2sPiaPLH+gfsFh3WA1MMo&#xA;uIIbiCS3mUPDMrRyIejKwoQfmM8ShMwkJR2I3DuyLUfyF1KZPLd/5Tu35X3lS8ksan7TWkhMtrIf&#xA;YoSo9lz3bQasajBDKP4hf6x8Ds6HJDhkQ9IvLO0vbaS1vII7m1mXjNBMqyRup7MrAgj55lsHzd50&#xA;8h+SNN8+XWnRRXPl6xPpNFc6bK3FTLGpZ5IJvVjZAxPwoF6d81+bOBk4ZgGLjTygSqQ2X+Y/+ceP&#xA;Oq23OwvNP802gXlHFcJ9SuWB3HpyKZIq0/a5Llw00RvAmLYMQH07PM79IdJW/bVIbuHWdNj9AWGp&#xA;O7yQc6hFi51+Bya1HbMXwZRmIgAAmzwir9/mxmchkATszv8ALTzOfL35P/XJFE863U1tpVuD/fTS&#xA;P+7Ra02MhYn2qc4ntzs7812oIR2BjEzPcBzPyr4u5xZhjwmR5BW0TTZbGzP1iT17+5drm/uD1knl&#xA;NXb5dh7DNzlkCQIioRFRHcByfPdbqjnyGZ+CPZlVSzGijck5WA4oYdquu+arEXV9FLZzWcHOQW7x&#xA;yIxiWppzDH4uPtmxxYcMqj6uIuzw4cE6jUuI9duf6k40fzVZXzx2tzHJpupuiyCwu1McjI45K8fI&#xA;DmrDcEdsq1Ohni35x72rVdn5MW/OPelXn3y5pz6Zc61BEIdVswJ0uI/hLemwY+oB9rZep3y3Q6iX&#xA;EMZNwltTf2ZrJxyCF+k/jZ7nZXSXdnBdR/YuI0lTvs6hh+vPI8uMwmYnnEkfJ9FBsWkOn3X+HPzi&#xA;0y8LcNP82Wr6Zd/yi8tv3ts7f5TLWNc9I9idbxYZYTzgbHuP6j97rtdDcF7RncOAwP8AM78u5PMk&#xA;cd/pxVdVtk4em54rNHUkLy7MCTxPTxzD1em8Tcc2jNi4txzZD5IttStfKmmWupRmK8ghEUkbEEqE&#xA;JVBUE/sAZdgBEADzbMYIiLeE/mymj+aPzeUwwh4vLVqlvqFxQFZbpmMqQ+DCINU+DbZidpajw4UP&#xA;qk4Paep8PHQ+qX3Mb0DQ9TguIbS+CrpOhNOuixLT4zcyNI00n+UqsEH05pMpx3LJH+8y8PF5cIqh&#xA;5dXB13ani4YwHxZOSACSaAbknMZ0jGz5ktNVlnhsSz21swVrmn7uRt6iNq/Fx75mHTnGAZcy5k9N&#xA;LEAZcz06hKfMqTTaRJaQCs968VrEP8qeRU/jmToY3lDldnRvMPJ9S+Yvy98o+Y9Hh0rWNPS5gtY1&#xA;jtJvsTw8AApilTi6nbsaHuM6B6R435v/ACf886BZXMejyP5r8vTRvE9nIVTU4Y3UqeLUCT0HybwG&#xA;YGXQQMhKPpkN/JwMvZ8DITj6ZA35fJjnkP8AN610loPLXmST04bYC1tL90MMsQjHAQ3kLfEjLSnM&#xA;VHj3OcX277LTnKWfAPUd5Q8+pif0fLoHfaXWGuGYpmv5lPH+hdI1KB1Mlnq+m3VnKu4LeuqgqQe6&#xA;ueman2QnKGvEe+Mgfv8AvDkasXje656y6hgv5l+f9W8sXeh6bo9hBfalrclwIlupjBEqWqK7/EFb&#xA;4m5imYut1kNNiOSd8Me7fmaZwgZGgwnQv+cpPLxvTaeZ7JNMRlDQ31jcrqMLVYA81iRZI6A13B6H&#xA;2yzDnGQWBIe8EfeiUKYrr9sfLfnbUTcN6mh+bbp9Y0LV1NYZmuwrvDy6BlP2d9xTxzW9qaaUvWOg&#xA;3dJ2tpZTrJHoN0Lqy+aVuVl0p7SS3CgPa3IdWJqalZEJ/VmqxHFVT4r7w6jCcPDU+K+8JPq1j5u1&#xA;O3MOoyW9jppIE8NozvNKp6qZGChVPtmTjyYYG4gyl58nJxZcGM3AGUunFyCrb28FvCkECCOKMcUR&#xA;RQADKZSMjZ5uPOZkbO5V9Fsv0j598oad9oSarFculK8ks1adgR4fBvmx7Mj6ifJ2fZMfVI9w+/8A&#xA;sfWGbl3jsVSjVvKHlPWJvX1bRbHULgLwE9zbRSyBSKUDupYffirz5fyBtLfW7I2GuXMPlK1vItRP&#xA;lqRBMgmgYuiRXDNzSItuUIPz8MT8jh8bxuEeLVX5fjrzZ+IeHh6PWMy2DCfzc8nXfmTyqX0o8PMO&#xA;jyrqOiyjr9Yh39L5SrVKHatK9Mqz4Y5YGEhcZCj8WUZEGw+b/wAwXs9f8tjX4hqkkFxH9YdYba1e&#xA;1s7pP3L28sgEc8YDVrWuxB3zjexoT0uoOA+GDE8O8pCU48xIR3if2Vs5uYiUeLd6v+WGraH548iJ&#xA;+XPnS1ht9U060tooLQuElltRbo1tcwcviWWNCA/GtD12PHOxwZ4ZY8UDYsj5Gj9ocKUSDuxHVdN1&#xA;vyNrMfl/zG7XFjcNx0TXiKR3C9opj0SZem/X8Tqdd2fXrhy6j9Tz/aHZtXPHy6j9SMmjEkTof2gR&#xA;mniaLpImix0ggkEUI2IzJchPfylhtrr85NNWV1WTT9Nu7qFWNCXlKwUXxPBmPyGbjsyPpJ83e9lR&#xA;9Ej5/j730tmzdo7FXYq7FXYq7FXknnb8uNb0XVLzzX5GjW4+tt62u+V5CBFdn9ua3J/u5iOo6N89&#xA;jp+1+xcOthUvTMfTIcx+seXypvw5zA+SRCHyZ+YumrccXh1Gybj6i1t9RsJ1P2a/bQhh7qc8249b&#xA;2PmrkD8YS/HwkHZVDMGLfmX51816P5Tu/I/mg23mNNViC6Jqx4peIySJxNxCepAqFlXevWu+ei9i&#xA;dtx12MyETGUefd8D+C67Ph8M80qsD5p0R47GeFtZ07ZYLyNlW4jHTjKrleQH8wOYs/CyjiB4Jd3T&#xA;4PHZBhzDiB8OfUdD7kVfBBdyBCKV3p49/wAcojycaPJIb4axpWv6d5t0aQLf6MfU9E1HrRqatHUd&#xA;nRnUj3zZ6HUiHpPUu17O1Yh6D1L668va7p+vaHY61p787PUIUnhPcBxXi3gynZh2Obp3qYYq7FXY&#xA;q7FXYq7FXjf58aHoeiW0fnfTLhtK84erHbWot1DDUmY0FvPDUB/hH2+oA7/DmFr9Fi1GMwyi4fd5&#xA;g9CGcMphvyp51pegySSy6rr5S/129YSXM0ihlj4mqRQg1CrH2pnO8cccRjxenHHl5+Z8y8r2h2lP&#xA;NM0SIp3lLrGO3EnqTu9ahmJB9u2ZIckLMKs7/wCce/Mp0vV9Q8j3L0tp+epaFXoAT/pMC/6p+NR/&#xA;rHOh0mbxIeYen0efxcYPUbF7xmU5TsVdirsVdirsVfOfnfV280/mdqE7tz0vysTpunxHdfrZAa7l&#xA;p/MrUT5DNR2rnqIgOvN0/a+oMYiA/i5+5bmhedQ+oi/NlMLD0/rnH9z61fT5f5XHfJ4jHiHFy8mz&#xA;Fw8Q4r4fJh1rrEi3g07VLdrDUTXhG5rHKB3ik6N8sz54PTxQPFH7ve7DJpvTxwPFD7R70zJA6mld&#xA;hXxzHcSltnevpfmzyxrMTBGs9Ut0lfv9XuW9CZa+6Pmx7NnUyO8O07KnUyO8PrbN0712KuxV2Kux&#xA;V2Kvl3RR/pvmDly9U63qPrcuvP6w1a1znO1f734PNdsf3w/qj9KaZrXVOxVAa3olhrFk1peJUfai&#xA;lGzxuOjo3YjLcOaWOVxbsGolilxR/teeztqsuo2nly+UteWVws9xdAUWS3i+KOT5uSAffNvEQETl&#xA;jykKrzLuQIRhLNH6ZRoDuJZI1q1/rnl7S41LSX+rWcdF6hFlEkj/ACVVJOQ7OjeS/Jh2VG8hPcH1&#xA;3m8d87FXYq7FXYq7FXzd5i046B+aPmTSnHCHVpF1uwbpzFwONx9KzKc0va+LlP4Oj7Zw/TP4fqX5&#xA;pHQuxV2KsT88W5tJbHzBGP8AeN/Qvad7aY0JO37D0OZ+iPEJYz13HvDstAeMSxH+Lce8Mp/JvSf0&#xA;x+asd5Tla+XLF5+fVfrN7+6jH/Irmwza9nY6gT3u27LxcMDI9T9z6RzYuydirsVdirsVdirzr86P&#xA;Id55h0a31jRUr5l0FmuLBRsbiIj99bE/8WKPh/yvnleXGJxMTyLXlxjJExlyLyjRdYtNX0+O9tiQ&#xA;G+GSJtnjkGzI47FTnJ58MscjEvH6jBLFMxkjsqaXYqo31nBe2c9pOOUNwjRyD2YUOShMxkJDmGeO&#xA;ZhISHMMp/wCcXdPtLLQfMEMkpk1yLURBqBYUb0YYlW1PU1UjmQfnnX4pCUQRyL2mKcZREo8ju9ry&#xA;xm7FXYq7FXYq7FXYq+ZPzmgm8tfmy0+g2JNtqGmJqes2kZIE0n1iSGSSJTt6oUKxp137nMHX4oTi&#xA;OLY3sXB1+HHOAEtjdA+f6lTTdSstSsor2ylEtvKKqw/EEdiO4zm8mOUJcMuby+XFLHIxkN0TkGt2&#xA;Kr/JWtf4X/NGwunbhpnmdBpd9vRRdL8VpIR3JNY/kc33ZOa4mB6PQ9j57iYHpuPd+PvfRebd3LsV&#xA;dirsVdirsVdirxz/AJyG0ZrO203z3bPGJtFJtb63kcIbi1uWACxk9ZEf4lXvU+GUanAMsDEtGpwD&#xA;LAwLwLRfNtuNRm1PSoGh9RmfVNFBB9RR/wAfNv25qPtr/t5r82kJjwzN/wA2X6D+h1+fREwEJm/5&#xA;sv0H9BelafqFnqFnFeWcomt5hyR1/UfAjuM0mTGYHhlzefyY5QkYyFEIjIMEs8yaW+p6NcW0TFLk&#xA;AS2kqmjJNGecbAjp8QzI0ubw8gk5Ojz+FkEunX3PfPy382r5s8laXrZ+G5ni4X0dKFLmI+nMpHb4&#xA;1JHtTOtexZLirsVdirsVdirsVfOv55a4+ufmFB5erXTfLUMdzcRdnvrpeUZYdD6cNCvuTmDr83BC&#xA;hzk4HaOcwx0OcvueTecfL1siHWLRjb3kbqWWOoMjFgAUpUrJXoRmLotQSfDO4/H2OJ2fqpE+HLcf&#xA;j7EDofmzU/LOqyJfW7rbySmPUrYp6bJMuzN6Zp6cg/aXof1ZGq0Yyxr+IcnM1ehjmjXKQ5fq9z16&#xA;0u7e7to7m2kEsEyh45FNQQc5ycDE0eYeVnAxJidiFXIsU9/I3U5NJ86655VP+8GpxfpuxHZJgyw3&#xA;Kj/Xqre1M6fs7Nx4hfMbPV9m5vEwi+cdnuOZznuxV2KuxV2KuxV8qeZZPV/MXzjIWDN+kjHyFOkc&#xA;KKBt4Upmm7TPqA8nSdrH1RHkmH5Y+Wj5q/Mi2Eic9H8shb++rur3bVFrEfdSDJ9GX9nYajxnq39l&#xA;4OGJmeZ+57D56/JbyD51u1vtWs3h1EALJe2j+jLIq7BZdmV6bUJWo7GmbJ2lvJfMH5Ya7+Wk1xda&#xA;XFPrXkyZ/Ub06yXdh/MXjH246dXUfOnfX67ReKLH1D7XX6/Q+MLG0h9qWRec/KksPrLqtsFoDRpA&#xA;jb/5DUb8M0Z0eUGuEvPnQ5ga4Szf8jdGvdY8z3vniSN4dGitW03ReYKG45usk1wFah4DgFU99/DO&#xA;g0OnOKFHmXo9Bpjhx0fqO5e4ZmOa7FXYq7FXYq7FXx/rOqQwax5x1iSnpPrOoSR02LKkpjQb9zxz&#xA;T62BnmER3Ol1+M5M8Yju/W+gvyU8mS+WPJFub6PjrWrsdQ1UkUYSzCqxGvT0kotPGubaMREUOjuY&#xA;xEQAOQZ9kkuxVKbjyj5UuLg3NxothNcseTTSW0LOT1qWKk4qmqqqKEQBVUUVRsAB0AGKt4q7FXYq&#xA;7FXYqh9SvoNP066v7g8be0hknmbwSJS7H7hir5N/KDy3L5w81aPY3Q9Sxsi2va21DwdmlLwQmv8A&#xA;O7AkHqoOYmLHeSU/gP0uLix3llk+A/T9r66zLcp2KuxV2KuxV2KuxV2KuxV2KvHf+cifzDtdM8t3&#xA;XlKxk56zqtuxvOO4trD/AHdJJ/xkWsar3r8qxlIBBkAmn/OPvktvL3kaPULqPhqevlb64Ugco4Ct&#xA;LWHoPsRb0psWOGIoKBQp6dhS7FXYq7FXYq7FXYq7FXYqxX8zPPEfkzypNqyw/Wb6WRLTTLStPVup&#xA;yRGpPgKFj7DBKQAsoJAFnk+cn0Ka41bRDr8raheeY9esY/MU53MyyyUEIO3GJTxUAdunhmp02p8b&#xA;PfQDZ1Ol1fj6gn+GMTw/r9763AAAAFANgBm3du7FXYq7FXYq7FXYq7FXYq7FXn/52eUNS8xeUo59&#xA;KYfpTQrldUtIH+xOYEcNEd9iyueJ8fnkMkBKJierGcBOJieRFPF7W/j1jUvI8luh/wByGtadMIyS&#xA;GVI5PVk6fyhc0vZ2EwzyB6B0XZuA488on+EfpD6ozeu/dirsVdirsVdirsVdirsVdiqyeFJ4JIX+&#xA;xKpRqeDChxV8weWtA1vyb+cvlLy5qts91HYT3Uel3oQ+jcWlxA6pMKbLJD0cdvxNGPDwzlIfxU04&#xA;8AjOUh/FX2PqLL252KuxV2KuxV2KuxV2Kv8A/9k=</xmpGImg:image>
               </rdf:li>
            </rdf:Alt>
         </xmp:Thumbnails>
      </rdf:Description>
      <rdf:Description rdf:about=""
            xmlns:xmpMM="http://ns.adobe.com/xap/1.0/mm/"
            xmlns:stRef="http://ns.adobe.com/xap/1.0/sType/ResourceRef#"
            xmlns:stEvt="http://ns.adobe.com/xap/1.0/sType/ResourceEvent#">
         <xmpMM:InstanceID>xmp.iid:FA7F117407206811822A9DD448A483FF</xmpMM:InstanceID>
         <xmpMM:DocumentID>xmp.did:FA7F117407206811822A9DD448A483FF</xmpMM:DocumentID>
         <xmpMM:OriginalDocumentID>uuid:5D20892493BFDB11914A8590D31508C8</xmpMM:OriginalDocumentID>
         <xmpMM:RenditionClass>proof:pdf</xmpMM:RenditionClass>
         <xmpMM:DerivedFrom rdf:parseType="Resource">
            <stRef:instanceID>uuid:ba5dc92b-6d0a-484a-ab90-b9370a4a0965</stRef:instanceID>
            <stRef:documentID>xmp.did:0980117407206811822A897E387FE54C</stRef:documentID>
            <stRef:originalDocumentID>uuid:5D20892493BFDB11914A8590D31508C8</stRef:originalDocumentID>
            <stRef:renditionClass>proof:pdf</stRef:renditionClass>
         </xmpMM:DerivedFrom>
         <xmpMM:History>
            <rdf:Seq>
               <rdf:li rdf:parseType="Resource">
                  <stEvt:action>saved</stEvt:action>
                  <stEvt:instanceID>xmp.iid:FA7F117407206811822A9DD448A483FF</stEvt:instanceID>
                  <stEvt:when>2018-09-05T11:33:42-03:00</stEvt:when>
                  <stEvt:softwareAgent>Adobe Illustrator CS6 (Macintosh)</stEvt:softwareAgent>
                  <stEvt:changed>/</stEvt:changed>
               </rdf:li>
            </rdf:Seq>
         </xmpMM:History>
      </rdf:Description>
      <rdf:Description rdf:about=""
            xmlns:illustrator="http://ns.adobe.com/illustrator/1.0/">
         <illustrator:StartupProfile>Print</illustrator:StartupProfile>
      </rdf:Description>
      <rdf:Description rdf:about=""
            xmlns:xmpTPg="http://ns.adobe.com/xap/1.0/t/pg/"
            xmlns:stDim="http://ns.adobe.com/xap/1.0/sType/Dimensions#"
            xmlns:xmpG="http://ns.adobe.com/xap/1.0/g/">
         <xmpTPg:HasVisibleOverprint>False</xmpTPg:HasVisibleOverprint>
         <xmpTPg:HasVisibleTransparency>False</xmpTPg:HasVisibleTransparency>
         <xmpTPg:NPages>1</xmpTPg:NPages>
         <xmpTPg:MaxPageSize rdf:parseType="Resource">
            <stDim:w>21.000131</stDim:w>
            <stDim:h>29.700013</stDim:h>
            <stDim:unit>Centimeters</stDim:unit>
         </xmpTPg:MaxPageSize>
         <xmpTPg:PlateNames>
            <rdf:Seq>
               <rdf:li>Cyan</rdf:li>
               <rdf:li>Magenta</rdf:li>
               <rdf:li>Yellow</rdf:li>
               <rdf:li>Black</rdf:li>
            </rdf:Seq>
         </xmpTPg:PlateNames>
         <xmpTPg:SwatchGroups>
            <rdf:Seq>
               <rdf:li rdf:parseType="Resource">
                  <xmpG:groupName>Default Swatch Group</xmpG:groupName>
                  <xmpG:groupType>0</xmpG:groupType>
               </rdf:li>
            </rdf:Seq>
         </xmpTPg:SwatchGroups>
      </rdf:Description>
      <rdf:Description rdf:about=""
            xmlns:pdf="http://ns.adobe.com/pdf/1.3/">
         <pdf:Producer>Adobe PDF library 10.01</pdf:Producer>
      </rdf:Description>
   </rdf:RDF>
</x:xmpmeta>
                                                                                                    
                                                                                                    
                                                                                                    
                                                                                                    
                                                                                                    
                                                                                                    
                                                                                                    
                                                                                                    
                                                                                                    
                                                                                                    
                                                                                                    
                                                                                                    
                                                                                                    
                                                                                                    
                                                                                                    
                                                                                                    
                                                                                                    
                                                                                                    
                                                                                                    
                                                                                                    
                           
<?xpacket end="w"?>
	</metadata>
<g>
	<path fill="none" d="M22.444-63.051c3.306-0.604,5.13,0.809,5.205,0.868c0.188,0.149,0.288,0.384,0.265,0.623
		c-0.021,0.239-0.166,0.45-0.378,0.562c-0.886,0.461-1.833,0.785-2.816,0.965c-1.038,0.189-1.992,0.191-2.822,0.119
		c-0.07,0.868-0.19,1.766-0.362,2.679c5.25,2.459,6.909,6.326,7.003,6.556c0.088,0.215,0.064,0.461-0.062,0.655
		c-0.111,0.164-0.279,0.275-0.469,0.309c-0.034,0.007-0.071,0.011-0.108,0.011c-3.324,0.078-6.062-0.671-8.277-1.747
		c-0.169,0.342-0.349,0.683-0.542,1.022c0.794,0.311,1.458,0.907,1.746,1.913c0.523,1.833,1.827,3.23,2.079,3.488
		c0.129,0.104,0.221,0.25,0.253,0.425c0.072,0.382-0.183,0.752-0.569,0.822c-0.01,0.002-0.02,0.003-0.029,0.005
		c-0.145,0.021-0.293-0.001-0.432-0.073c-0.146-0.077-2.93-1.557-4.904-3.855c-0.671,0.836-1.428,1.65-2.286,2.433
		c6.888,4.499,15.035,9.266,18.101,11.039l-4.76-29.408l-6.116-1.594c-0.059,0.228-0.153,0.473-0.272,0.725
		c0.04,0.498,0.067,1.023,0.083,1.566C22.131-62.98,22.289-63.022,22.444-63.051z"/>
	<path fill="#65873B" d="M1.073-85.428c-1.753,1.854-3.68,2.982-5.731,3.357c-2.758,0.504-4.732-0.558-4.814-0.604
		c-0.277-0.152-0.42-0.469-0.351-0.779c0.05-0.216,1.244-5.299,4.771-7.041c0.594-0.293,1.119-0.618,1.606-0.956
		c-13.274-1.221-16.355,4.853-18.622,9.325c-0.861,1.699-1.821,2.901-2.666,3.739c6.585-0.637,11.104-3.461,13.737-8.583
		c0.224-0.435,0.759-0.606,1.192-0.383c0.436,0.224,0.607,0.758,0.383,1.192c-3.468,6.747-10.086,9.999-19.669,9.667
		c-1.293-0.045-2.548-0.097-3.76-0.146c-8.671-0.357-15.52-0.64-17.337,2.647c-1.581,2.859,1.386,9.169,3.102,12.155
		c0.652-1.743,1.442-3.176,2.255-4.345c-0.036-0.022-0.078-0.032-0.111-0.06c-0.146-0.122-1.438-1.237-1.487-2.605
		c-0.023-0.643,0.225-1.233,0.717-1.71c0.85-0.821,2.477-1.113,4.834-0.868c2.072,0.215,4.574,0.824,7.237,1.762
		c0.555,0.195,1.354,0.513,2.366,0.913c4.326,1.715,12.38,4.906,20.102,6.054c8.733,1.299,14.453-0.424,17.038-5.104
		c-5.808,0.359-8.864-3.193-9.002-3.359c-0.145-0.172-0.196-0.402-0.145-0.62c0.054-0.218,0.205-0.396,0.411-0.485
		c1.448-0.617,2.867-1.056,4.214-1.302c7.203-1.316,10.375,3.062,10.508,3.248c0.123,0.174,0.161,0.393,0.104,0.597
		c-0.058,0.205-0.202,0.373-0.396,0.458c-1.233,0.548-2.458,0.942-3.649,1.189c-0.005,0.11-0.028,0.221-0.077,0.328
		c-1.863,4.045-5.25,6.088-9.331,6.871c0.032,0.142,0.042,0.29-0.001,0.439c-1.229,4.226-3.031,5.765-4.328,6.312
		c-0.21,0.089-0.41,0.149-0.604,0.184c-0.538,0.099-1.008,0.001-1.405-0.196c-0.476,2.125-1.134,4.098-1.904,5.908
		c0.035,0.038,0.072,0.078,0.131,0.144c3.15,3.516,5.958,4.492,7.872,4.646c1.442-1.618,7.722-7.728,16.021-2.261
		c0.216,0.142,0.435,0.285,0.654,0.428c0.858-0.782,1.615-1.596,2.286-2.433c-0.497-0.578-0.944-1.206-1.283-1.878
		c-0.099-0.194-0.101-0.423-0.007-0.62c0.092-0.197,0.271-0.341,0.481-0.39c0,0,0.039-0.009,0.11-0.021
		c0.816-0.149,1.752-0.128,2.555,0.186c0.192-0.339,0.372-0.68,0.542-1.022c-5.076-2.464-7.367-6.666-7.399-6.727
		c-0.118-0.225-0.108-0.496,0.027-0.71c0.135-0.215,0.375-0.34,0.63-0.329c3.628,0.16,6.451,0.95,8.655,1.982
		c0.172-0.913,0.292-1.811,0.362-2.679c-1.656-0.145-2.785-0.609-2.854-0.639c-0.251-0.107-0.418-0.353-0.427-0.626
		c-0.01-0.274,0.141-0.529,0.383-0.654c1.012-0.521,2.01-0.887,2.975-1.111c-0.015-0.543-0.042-1.068-0.083-1.566
		c-0.029,0.061-0.05,0.12-0.083,0.182c-0.931,1.726-4.441,1.023-5.137,0.865c-1.611-0.368-2.491-2.858-2.725-3.613l-1.645-5.288
		c-0.123-0.396,0.046-0.823,0.406-1.03c0.046-0.027,4.727-2.721,6.449-4.016c1.867-1.403,4.036-0.181,4.958,0.689
		c0.198,0.154,1.207,0.938,2.526,1.952c0.354-0.38,0.708-0.759,1.047-1.159c-1.025-0.706-1.571-1.346-1.627-1.414
		c-0.146-0.173-0.196-0.402-0.146-0.621c0.054-0.217,0.205-0.397,0.41-0.485c1.449-0.617,2.865-1.055,4.211-1.301
		c0.453-0.687,0.893-1.394,1.323-2.12c-0.996,0.146-2.11,0.152-3.331,0.004c-0.191-0.021-0.366-0.124-0.482-0.278
		c-0.114-0.155-0.164-0.352-0.131-0.541c0.03-0.194,0.822-4.763,3.81-6.067c2.569-1.123,4.768-2.675,4.791-2.69
		c0.029-0.021,0.065-0.021,0.096-0.037c0.449-1.051,0.893-2.129,1.333-3.223c-0.182,0.074-0.354,0.155-0.543,0.224
		c-0.038,0.013-0.077,0.025-0.116,0.032c-0.166,0.03-0.34,0-0.487-0.086c-0.183-0.107-0.308-0.292-0.341-0.501
		c-0.044-0.284-1.054-6.987,2.196-10.132c2.864-2.771,3.811-4.884,3.819-4.905c0.11-0.254,0.36-0.421,0.64-0.425
		c0.172-0.002,0.331,0.063,0.458,0.169c0.12-0.466,0.231-0.928,0.336-1.384c-0.03-0.013-0.063-0.018-0.092-0.035
		c-0.188-0.111-0.312-0.303-0.34-0.52c-0.122-0.973,0.05-2.673,1.203-3.6c0.085-0.588,0.156-1.164,0.219-1.73
		c-0.184,0.058-0.363,0.116-0.56,0.172c-0.022,0.004-0.044,0.009-0.065,0.013c-0.17,0.031-0.345,0-0.494-0.09
		c-0.168-0.102-0.286-0.268-0.327-0.459c-0.053-0.255-1.287-6.26,1.325-9.137c0.082-0.09,0.17-0.184,0.255-0.276
		c-0.113-1.297-0.264-2.387-0.408-3.235c-0.03,0.036-0.054,0.075-0.085,0.111c-0.108,0.126-0.255,0.208-0.413,0.237
		c-0.094,0.017-0.195,0.015-0.293-0.009c-0.26-0.062-0.461-0.266-0.522-0.526c-0.011-0.048-0.034-0.151-0.062-0.291
		c-0.751,1.265-1.974,3.311-3.726,6.204c0.934,2.115,1.131,6.176-3.745,9.471c-0.084,0.055-0.176,0.092-0.271,0.11
		c-0.12,0.022-0.249,0.012-0.367-0.031c-0.216-0.077-0.378-0.252-0.44-0.47c-0.005-0.019-0.145-0.535-0.243-1.323
		c-0.514,0.594-1.07,1.174-1.658,1.74c-0.198,1.053-0.647,1.99-1.065,2.594c-0.108,0.157-0.274,0.261-0.458,0.295
		c-0.033,0.006-0.068,0.01-0.105,0.011c-0.225,0.007-0.44-0.095-0.577-0.272c-0.113-0.145-0.213-0.291-0.309-0.437
		c-3.254,2.585-7.069,4.807-10.617,6.588c-1.75,6.252-6.604,7.854-8.805,8.255c-0.786,0.144-1.303,0.149-1.324,0.15
		c-0.281,0.002-0.536-0.16-0.651-0.415c-0.116-0.255-0.071-0.554,0.113-0.764l1.852-2.091c0.136-0.534,0.314-1.012,0.519-1.451
		c-0.539,0.21-1.031,0.397-1.455,0.555c-1.251,0.464-2.327,1.307-3.252,2.315c1.045,3.412-1.058,6.413-1.086,6.452
		c-0.107,0.149-0.268,0.248-0.447,0.281c-0.048,0.009-0.098,0.013-0.146,0.012c-0.235-0.007-0.451-0.13-0.578-0.328
		c-0.332-0.522-0.594-1.03-0.821-1.529c-0.363,0.812-0.648,1.558-0.859,2.167C3.343-90.729,3.377-87.865,1.073-85.428z
		 M-3.483-76.76c-0.887,0.462-1.834,0.785-2.817,0.965c-3.105,0.567-5.572-0.474-5.676-0.519c-0.251-0.109-0.418-0.353-0.427-0.627
		c-0.01-0.274,0.14-0.529,0.385-0.654c1.177-0.605,2.335-1.015,3.442-1.217c3.307-0.604,5.131,0.808,5.207,0.868
		c0.188,0.149,0.288,0.383,0.265,0.623C-3.127-77.082-3.27-76.871-3.483-76.76z M3.881-53.336c0.001,0-0.053,0.015-0.148,0.031
		c-0.417,0.077-4.1,0.585-5.12-4.923c-0.042-0.228,0.03-0.463,0.193-0.628c0.162-0.165,0.397-0.239,0.626-0.199
		c1.544,0.272,4.569,1.656,4.97,4.948C4.443-53.76,4.218-53.432,3.881-53.336z M41.101-117.058c0.192-0.092,0.418-0.092,0.61,0.002
		c0.191,0.093,0.334,0.269,0.381,0.478c0.037,0.158,0.851,3.907-3.516,7.086c-0.088,0.063-0.187,0.105-0.29,0.125
		c-0.13,0.023-0.264,0.01-0.391-0.04c-0.228-0.09-0.392-0.291-0.435-0.53C37.15-111.654,37.505-115.35,41.101-117.058z
		 M14.239-52.272c0.716,2.456,0.419,4.431,0.407,4.515c-0.034,0.221-0.171,0.412-0.368,0.517c-0.065,0.034-0.135,0.058-0.206,0.071
		c-0.146,0.027-0.293,0.008-0.428-0.055C9.384-49.227,7.7-52.352,7.04-54.62c-0.716-2.456-0.42-4.433-0.407-4.515
		c0.034-0.22,0.169-0.412,0.368-0.517c0.197-0.104,0.432-0.11,0.634-0.016C11.895-57.664,13.579-54.54,14.239-52.272z
		 M28.902-89.204c-2.019,2.642-4.743,3.574-6.528,3.9c-1.038,0.189-1.759,0.174-1.836,0.171c-0.393-0.011-0.698-0.338-0.687-0.729
		c0.011-0.392,0.338-0.698,0.729-0.687c0.029,0,1.229,0.019,2.761-0.466c0.177-0.625,0.762-2.556,1.752-4.346
		c1.24-2.244,4.137-3.667,4.261-3.727c0.198-0.098,0.436-0.094,0.636,0.01c0.199,0.104,0.339,0.297,0.372,0.519
		C30.38-94.442,30.787-91.672,28.902-89.204z M34.825-98.828c-0.706,1.286-2.131,2.202-4.234,2.725
		c-0.015,0.003-0.028,0.006-0.044,0.009c-0.211,0.039-0.432-0.021-0.594-0.165c-0.176-0.153-0.263-0.383-0.236-0.614
		c0.181-1.557,1.383-4.659,4.642-5.255c0.348-0.063,0.688,0.138,0.801,0.472C35.177-101.599,35.612-100.257,34.825-98.828z
		 M30.294-110.988c1.572-0.288,3.288-0.384,5.1-0.288c0.197,0.011,0.381,0.103,0.507,0.255c0.128,0.152,0.184,0.35,0.157,0.546
		c-0.011,0.094-1.381,9.506-11.812,11.413c-1.596,0.292-3.343,0.395-5.192,0.307c-0.201-0.011-0.389-0.105-0.515-0.261
		c-0.128-0.157-0.183-0.36-0.149-0.56C18.401-99.671,20.029-109.112,30.294-110.988z M13.975-88.476
		c-0.128-2.479,1.536-3.952,2.522-4.423l4.355-2.81c0.221-0.143,0.507-0.151,0.736-0.018c0.229,0.132,0.366,0.381,0.354,0.646
		c-0.115,2.505-2.985,6.848-6.714,7.714c-2.649,0.616-2.521,1.906-2.514,1.961c0.073,0.386-0.185,0.746-0.568,0.816
		c-0.385,0.07-0.756-0.194-0.826-0.58C11.303-85.268,10.955-87.398,13.975-88.476z M11.068-83.113
		c2.57-1.123,4.769-2.675,4.791-2.69c0.198-0.141,0.452-0.17,0.677-0.079c0.224,0.091,0.386,0.291,0.43,0.529
		c0.493,2.706-0.006,8.085-5.437,9.078c-1.072,0.196-2.303,0.212-3.657,0.049c-0.191-0.023-0.366-0.124-0.482-0.279
		c-0.115-0.154-0.163-0.351-0.132-0.542C7.29-77.241,8.082-81.809,11.068-83.113z"/>
	<path fill="#65873B" d="M-20.56-25.363c1.163-2.322,2.289-4.723,2.591-5.88c0.645-2.462-0.06-4.686-0.067-4.708
		c-0.006-0.02-0.002-0.04-0.007-0.061c-2.464,2.48-4.379,3.781-4.484,3.852c-0.103,0.067-0.218,0.113-0.335,0.134
		c-0.137,0.025-0.279,0.018-0.415-0.023c-12.743-3.832-18.802-10.759-21.638-15.896c-2.065-3.739-2.77-7.05-3.012-8.904
		c-1.659,3.632-3.663,10.254-0.281,16.623c2.278,4.292,8.39,5.826,14.299,7.31C-28.016-31.436-21.972-29.902-20.56-25.363z"/>
	<path fill="#F5DA00" d="M-15.246-25.215c-0.052,0.182-0.161,0.329-0.299,0.439l1.115,2.868l11.409-19.194l-13.417,3.571
		C-15.415-35.885-13.396-31.579-15.246-25.215z"/>
	<path fill="#F5DA00" d="M-2.675-41.685l0.049-0.082c-0.081-0.013-0.162-0.027-0.245-0.042L-2.675-41.685z"/>
	<path fill="#F5DA00" d="M-16.555-27.375c0.231-1.221,0.309-2.339,0.276-3.346c-0.145,0.527-0.417,1.241-0.773,2.069L-16.555-27.375
		z"/>
	<path fill="#F5DA00" d="M-32.137-59.09c-2.246,2.447-3.435,4.914-3.447,4.938c-0.09,0.187-0.257,0.327-0.457,0.38
		c-0.018,0.005-0.037,0.009-0.055,0.012c-0.184,0.034-0.375-0.006-0.53-0.113c-2.781-1.922-5.438-2.724-7.179-3.059
		c-1.007-0.193-1.824-0.256-2.377-0.273c0.155,1.229,0.551,3.299,1.547,5.741c1.001,0.167,4.189,0.821,6.913,2.703
		c0.297,0.206,0.393,0.602,0.22,0.919c-0.042,0.079-0.948,1.702-3.46,2.632c4.026,5.076,10.085,8.956,17.782,11.34
		c2.032-1.503,12.674-10.005,14.199-24.115c0.053-0.486,0.489-0.838,0.976-0.786c0.487,0.053,0.838,0.49,0.785,0.976
		c-0.06,0.555-0.135,1.101-0.22,1.639c0.004,0.008,0.011,0.014,0.015,0.022c0.294,0.64,0.758,0.443,0.911,0.378
		c0.748-0.316,2.143-1.375,3.219-4.863c-6.253,0.635-13.745-1.215-19.931-3.267C-26.418-63.655-29.414-62.056-32.137-59.09z
		 M-36.069-43.452c0.182-0.345,0.606-0.478,0.951-0.298c0.075,0.037,1.588,0.762,3.191-0.738c0.286-0.267,0.734-0.253,1.002,0.033
		c0.269,0.286,0.252,0.734-0.033,1.001c-0.83,0.778-1.658,1.134-2.387,1.267c-1.352,0.247-2.366-0.272-2.43-0.307
		C-36.12-42.677-36.252-43.106-36.069-43.452z M-23.447-45.275c-0.096,0.18-2.369,4.461-6.079,6.867
		c-0.061,0.039-0.125,0.064-0.193,0.077c-0.095,0.018-0.194,0.009-0.287-0.027l-6.562-2.529c-0.244-0.093-0.384-0.354-0.327-0.609
		c0.055-0.257,0.291-0.434,0.552-0.416l3.29,0.211l8.903-4.3c0.206-0.1,0.454-0.056,0.613,0.109
		C-23.376-45.727-23.341-45.478-23.447-45.275z M-14.347-59.765c0.359,0.085,0.593,0.43,0.538,0.795
		c-0.013,0.083-1.347,8.323-9.472,9.808c-2.179,0.398-4.668,0.273-7.395-0.37c-0.188-0.044-0.351-0.165-0.448-0.331
		c-0.098-0.168-0.123-0.369-0.069-0.555c0.096-0.334,2.449-8.186,10.321-9.624C-18.872-60.407-16.678-60.314-14.347-59.765z"/>
	<path fill="#72BF44" d="M35.103-23.002c-0.183-0.137-0.303-0.339-0.338-0.563l-1.362-8.413C33.162-32.115,22.04-38.47,13.312-44.22
		c-8.047-5.299-13.716,1.916-13.953,2.226c-0.094,0.124-0.221,0.21-0.361,0.27l-12.954,21.792c-0.104,0.18-0.282,0.301-0.48,0.336
		c-0.062,0.011-0.123,0.015-0.188,0.009c-0.27-0.023-0.503-0.197-0.601-0.45l-2.646-6.807c-1.673,3.551-3.992,7.814-4.133,8.072
		c-0.025,0.048-0.057,0.094-0.092,0.136c-0.092,0.115-2.301,2.96,0.622,6.21c3.428,3.812,12.8,12.629,12.895,12.719
		C-8.57,0.3-8.561,0.309-8.552,0.317c1.958,1.999,5.75,5.127,7.582,5.011c0.489-0.032,0.909,0.339,0.94,0.826
		c0.028,0.453-0.288,0.85-0.725,0.929c-0.033,0.006-0.067,0.011-0.104,0.012C-2.314,7.188-4.223,6.287-6.694,4.34
		c-0.61-0.481-1.17-0.96-1.644-1.384c-0.088,1.881-0.361,4.638-1.188,6.396c-0.125,0.269-0.37,0.445-0.643,0.495
		c-0.176,0.032-0.362,0.012-0.535-0.07c-0.442-0.208-0.633-0.735-0.425-1.178c0.016-0.034,0.029-0.074,0.045-0.109
		c-3.323,3.166-11.445,11.637-12.136,19.436c-0.44,4.967,0.18,9.261,1.952,13.514c1.971,4.73,5.506,9.663,10.805,15.077
		C0.54,67.756,12.853,80.823,12.977,80.955c0.31,0.328,0.305,0.827,0.024,1.165c0.008,0.006,0.017,0.013,0.025,0.019
		c4.581,3.521,5.669,4.358,9.005,4.606c3.883,0.29,5.635-0.281,7.729-4.068c2.074-3.751-0.608-8.348-0.635-8.396
		c-0.022-0.034-0.043-0.074-0.059-0.114c-0.109-0.264-10.959-26.481-15.882-37.435C8.426,26.143-1.035,22.725-1.131,22.691
		c-0.461-0.161-0.705-0.667-0.544-1.128c0.14-0.4,0.537-0.619,0.941-0.571L1.988,9.661C0.824,6.844,3.051,6.003,3.051,6.003
		l-6.12-18.762c-0.708,0.337-1.481,0.572-2.249,0.712c-2.086,0.381-4.07,0.178-4.202,0.164c-0.053-0.006-0.104-0.016-0.153-0.03
		l-4.043-1.175c-0.47-0.136-0.739-0.627-0.604-1.097c0.137-0.471,0.629-0.74,1.098-0.604l3.966,1.152
		c1.29,0.123,4.719,0.126,6.286-1.252c0.858-0.754,1.979-1.792,3.034-2.784L10.599-30.24c-0.264-0.104-0.479-0.317-0.546-0.614
		c-0.107-0.477,0.191-0.951,0.669-1.06c0.175-0.04,4.336-0.946,7.373,1.311c2.66,1.976,19.346,10.823,19.514,10.912
		c0.016,0.008,0.03,0.015,0.043,0.023c0.878,0.527,2.411,1.197,3.561,1.268C38.167-20.669,35.323-22.835,35.103-23.002z"/>
	<path fill="#72BF44" d="M-8.419,69.574c-0.045,0.044-0.094,0.096-0.147,0.15l1.864,1.375C-7.293,70.577-7.867,70.066-8.419,69.574z
		"/>
	<path fill="#72BF44" d="M-21.726,133.768c0.026-0.057,2.687-5.893,1.053-15.726c-0.03-0.177-0.004-0.359,0.073-0.521
		c0,0,0.616-1.31,1.628-3.459c0.133-0.84,0.285-1.811,0.455-2.895c-0.11,0.157-0.221,0.305-0.334,0.436
		c-2.635,3.032-7.132,8.563-7.631,9.178c-0.546,0.968-1.761,3.778-0.785,5.077c0.306,0.407,0.595,0.769,0.875,1.116
		c1.16,1.45,2.079,2.595,1.917,4.474c-0.157,1.829-0.16,2.412,0.774,3.657c1.523,2.025,2.413,2.938,2.896,3.347
		c-0.033-1.146-0.557-2.948-0.95-3.993C-21.838,134.234-21.828,133.985-21.726,133.768z"/>
	<path fill="#72BF44" d="M-8.071,67.062c-0.37-0.321-0.41-0.88-0.091-1.248c0.32-0.37,0.881-0.41,1.25-0.092
		c0.098,0.086,8.432,7.296,14.745,12.375C3.31,73.33-4.493,65.147-11.729,57.755c-0.085-0.087-0.162-0.172-0.247-0.259
		c-0.107,2.263,0.086,6.572,2.785,9.008c4.113,3.715,12.148,10.732,12.229,10.803c0.013,0.012,0.027,0.024,0.04,0.036
		c1.342,1.325,3.425,2.81,4.618,2.912C1.268,75.141-7.966,67.153-8.071,67.062z"/>
	<path fill="#72BF44" d="M-38.998-69.329c-0.079,0.103-0.176,0.194-0.3,0.256c-0.024,0.013-1.332,0.686-2.834,2.342
		c-1.346,1.484-3.118,4.09-4.07,8.105c1.669,0.04,5.508,0.456,9.718,3.145c0.538-0.964,1.644-2.76,3.303-4.567
		c2.206-2.402,4.671-3.999,7.255-4.767c-2.345-0.842-4.405-1.658-6.001-2.291c-0.994-0.395-1.779-0.705-2.302-0.89
		C-35.901-68.584-37.525-69.03-38.998-69.329z"/>
	<path fill="#F5DA00" d="M49.689-26.325c-1.933-5.993-12.908-35.744-13.021-36.043c-0.006-0.017-0.012-0.032-0.016-0.049
		c-0.33-1.074-1.545-4.089-3.193-5.125c-2.309-1.451-10.136-7.55-10.47-7.809c-0.024-0.021-0.049-0.041-0.071-0.062
		c-0.061-0.058-1.545-1.448-2.697-0.581c-1.44,1.082-4.661,2.988-6.018,3.779l1.435,4.615c0.357,1.154,1.049,2.323,1.426,2.409
		c1.582,0.361,2.969,0.243,3.192,0.006c0.094-0.175,0.155-0.344,0.193-0.497l-1.93-0.503c-0.475-0.123-0.756-0.607-0.634-1.081
		s0.609-0.757,1.08-0.634l2.126,0.554c0.042-0.014,0.086-0.025,0.131-0.034c0.314-0.058,0.622,0.059,0.82,0.281l7.24,1.887
		c0.34,0.088,0.596,0.369,0.652,0.716l6.522,40.3c1.646,1.251,10.031,7.611,12.578,9.244c0.297,0.19,0.385,0.122,0.461,0.062
		C50.695-15.811,51.268-21.419,49.689-26.325z"/>
	<path fill="#F5DA00" d="M-18.865,13.253c-1.113-0.912-2.892-2.367-4.744-3.877C-21.754,10.953-20.025,12.383-18.865,13.253z"/>
	<path fill="#F5DA00" d="M-26.772-6.848c0.032-0.92-0.061-1.791-0.395-2.271c-0.151-0.218-0.387-0.486-0.653-0.528
		c-0.158-0.025-0.306,0.029-0.408,0.08C-27.787-8.728-27.253-7.735-26.772-6.848z"/>
	<path fill="#F5DA00" d="M-29.501,2.331c1.547,1.194,10.002,8.112,12.336,10.024c2.103-2.495,4.097-4.451,5.27-5.542l-11.249-7.083
		c-0.177-0.112-0.311-0.283-0.373-0.483c-0.523-1.662-1.208-2.545-1.742-3.014c0.067,0.285,0.13,0.641,0.147,1.034
		c0.056,1.317-0.449,2.356-1.424,2.927C-26.956,0.443-27.5,0.3-27.747-0.121c-0.237-0.405-0.108-0.915,0.274-1.174l-3.206-0.314
		c-0.486-0.048-0.843-0.481-0.795-0.968c0.048-0.486,0.481-0.843,0.968-0.795l3.589,0.352c-0.05-0.322-0.131-0.589-0.167-0.695
		c-0.095-0.174-0.36-0.657-0.704-1.288l-4.777-0.521c-0.389-0.042-0.669-0.393-0.627-0.781c0.042-0.389,0.39-0.67,0.78-0.627
		l3.802,0.415c-0.315-0.584-0.64-1.19-0.942-1.759c-0.004,0-0.008,0.001-0.013,0l-4.818-0.526c-0.389-0.043-0.67-0.392-0.627-0.782
		c0.043-0.389,0.391-0.669,0.782-0.627l3.888,0.424c-0.147-0.29-0.268-0.536-0.344-0.704c-0.258-0.569-1.372-0.827-1.871-0.862
		c-0.011,0-0.024-0.001-0.035-0.003l-4.438-0.479c-0.27,0.146-0.645,0.562-0.272,1.709c0.71,2.192,4.543,8.815,4.862,9.363
		C-32.267-0.526-31.028,1.151-29.501,2.331z"/>
	<path fill="#FFFFFF" d="M-32.715-40.682c-0.073,0.034-0.152,0.052-0.23,0.052l3.065,1.182c2.041-1.393,3.628-3.425,4.562-4.806
		L-32.715-40.682z"/>
	<path fill="#FFFFFF" d="M-42.916-49.608c-0.368-0.107-0.707-0.195-1.002-0.265c0.188,0.382,0.384,0.767,0.603,1.159
		c0.175,0.314,0.364,0.621,0.553,0.928c-0.043-0.105-0.083-0.208-0.114-0.306c0.135,0.172,0.353,0.271,0.582,0.228
		c0.33-0.06,0.549-0.376,0.488-0.706c-0.061-0.33-0.376-0.549-0.706-0.488c-0.244,0.044-0.423,0.228-0.479,0.453
		C-43.047-49.024-42.996-49.36-42.916-49.608z"/>
	<path fill="#FFFFFF" d="M-19.672-52.106c-0.153,0.05-0.303,0.104-0.465,0.134c-1.937,0.354-3.792-0.929-4.146-2.864
		c-0.188-1.031,0.097-2.031,0.688-2.801c-3.628,1.861-5.373,5.384-5.979,6.896c2.23,0.448,4.258,0.51,6.038,0.186
		C-21.977-50.84-20.71-51.403-19.672-52.106z"/>
	<path fill="#FFFFFF" d="M-17.273-56.118c0.125,0.686,0.037,1.358-0.205,1.961c1.307-1.662,1.896-3.44,2.13-4.375
		c-1.459-0.288-2.848-0.371-4.15-0.259C-18.381-58.359-17.504-57.384-17.273-56.118z"/>
	<path d="M-41.537-69.704c-1.705-0.121-2.639,0.123-2.942,0.417c-0.165,0.157-0.184,0.276-0.18,0.371
		c0.018,0.463,0.593,1.095,0.854,1.312c0.016,0.014,0.023,0.033,0.038,0.048C-42.953-68.507-42.172-69.213-41.537-69.704z"/>
	<path fill="#C0AE0D" d="M-10.533-46.479c-1.544,3.157-3.374,5.748-5.002,7.708c-0.328,0.395-0.652,0.767-0.974,1.127
		c0.022,0.035,0.047,0.077,0.07,0.114l13.417-3.571l0.347-0.583l-0.196-0.124C-4.95-42.199-7.64-43.404-10.533-46.479z"/>
	<path fill="#5B9B37" d="M3.238-20.699c0.353-0.34,0.913-0.331,1.253,0.021c0.34,0.352,0.331,0.913-0.021,1.252
		c-0.041,0.039-4.034,3.898-6.272,5.867c-0.372,0.328-0.809,0.581-1.268,0.8l6.12,18.762c0,0-2.227,0.841-1.062,3.658l-2.722,11.331
		C-0.672,21-0.61,20.996-0.548,21.017c0.378,0.132,8.49,3.066,13.793,12.029c0.812-1.382,2.067-3.937,1.774-6.127
		c-0.064-0.485,0.28-0.931,0.76-0.996c0.486-0.064,0.932,0.275,0.997,0.761c0.452,3.377-1.867,7.123-2.558,8.148
		c0.195,0.388,0.397,0.765,0.581,1.173c1.244,2.768,2.864,6.507,4.594,10.553c0.857-2.699,2.806-8.942,4.07-13.861
		c2.325-9.044-2.057-16.959-2.103-17.038c-0.005-0.009-0.01-0.019-0.014-0.028L15.43,4.226c0.01,0.292-0.109,0.583-0.368,0.76
		c-0.107,0.072-0.225,0.118-0.342,0.139c-0.334,0.062-0.688-0.073-0.892-0.372c-2.044-2.994-1.005-8.25-0.911-8.698l4.122-25.236
		c-2.392-1.776-5.893-1.011-5.927-1.004c-0.181,0.041-0.354,0.008-0.514-0.055L0.063-17.673C1.722-19.233,3.214-20.675,3.238-20.699
		z"/>
	<path fill="#5B9B37" d="M-10.725,96.573c2.873-6.08,5.165-10.924,6.814-14.393c0.934-1.964,1.712-3.599,2.264-4.741
		c0.272-0.568,0.488-1.013,0.64-1.32C-2.635,74.69-4.728,72.85-6.702,71.1l-1.864-1.375c-1.319,1.374-5.032,5.944-5.167,13.963
		c-0.145,8.738-1.764,23.133-4.784,27.479c-0.17,1.084-0.322,2.055-0.455,2.895C-17.115,110.121-13.925,103.348-10.725,96.573z"/>
	<path fill="#231F20" d="M4.47-19.426c0.352-0.339,0.36-0.9,0.021-1.252c-0.34-0.353-0.9-0.361-1.253-0.021
		c-0.024,0.024-1.516,1.466-3.175,3.026c-1.055,0.992-2.176,2.03-3.034,2.784c-1.567,1.378-4.996,1.375-6.286,1.252l-3.966-1.152
		c-0.469-0.136-0.961,0.133-1.098,0.604c-0.136,0.47,0.134,0.961,0.604,1.097l4.043,1.175c0.05,0.014,0.101,0.024,0.153,0.03
		c0.132,0.014,2.116,0.217,4.202-0.164c0.768-0.14,1.541-0.375,2.249-0.712c0.458-0.219,0.896-0.472,1.268-0.8
		C0.436-15.528,4.429-19.387,4.47-19.426z"/>
	<path fill="#231F20" d="M51.375-26.867c-1.919-5.958-12.678-35.122-13.035-36.092c-0.128-0.405-1.462-4.527-3.936-6.082
		c-1.424-0.896-5.194-3.755-7.763-5.728c-1.32-1.014-2.329-1.798-2.526-1.952c-0.922-0.87-3.091-2.092-4.958-0.689
		c-1.723,1.295-6.403,3.989-6.449,4.016c-0.36,0.207-0.529,0.634-0.406,1.03l1.645,5.288c0.233,0.755,1.113,3.245,2.725,3.613
		c0.695,0.158,4.206,0.861,5.137-0.865c0.033-0.062,0.055-0.121,0.083-0.182c0.119-0.251,0.213-0.497,0.272-0.725l6.116,1.594
		l4.76,29.408c-3.066-1.773-11.213-6.54-18.101-11.039c-0.219-0.143-0.438-0.286-0.654-0.428
		c-8.299-5.467-14.578,0.643-16.021,2.261c-1.914-0.154-4.722-1.13-7.872-4.646c-0.059-0.066-0.096-0.106-0.131-0.144
		c0.77-1.811,1.428-3.783,1.904-5.908c0.396,0.197,0.867,0.294,1.405,0.196c0.193-0.035,0.394-0.095,0.604-0.184
		c1.297-0.547,3.1-2.086,4.328-6.312c0.043-0.15,0.033-0.298,0.001-0.439c4.082-0.782,7.468-2.825,9.331-6.871
		c0.049-0.106,0.071-0.217,0.077-0.328c-0.119,0.025-0.24,0.056-0.358,0.078c-0.589,0.107-1.146,0.163-1.687,0.196
		c-2.584,4.68-8.305,6.403-17.038,5.104c-7.722-1.147-15.775-4.339-20.102-6.054c-1.012-0.4-1.812-0.718-2.366-0.913
		c-2.663-0.938-5.165-1.547-7.237-1.762c-2.357-0.245-3.984,0.047-4.834,0.868c-0.492,0.477-0.74,1.067-0.717,1.71
		c0.049,1.368,1.341,2.483,1.487,2.605c0.034,0.028,0.075,0.038,0.111,0.06c-0.813,1.169-1.603,2.602-2.255,4.345
		c-1.716-2.985-4.683-9.296-3.102-12.155c1.817-3.287,8.666-3.004,17.337-2.647c1.212,0.049,2.467,0.101,3.76,0.146
		c9.583,0.332,16.201-2.92,19.669-9.667c0.225-0.434,0.053-0.968-0.383-1.192c-0.434-0.223-0.969-0.052-1.192,0.383
		c-2.633,5.121-7.152,7.946-13.737,8.583c0.844-0.838,1.804-2.04,2.666-3.739c2.267-4.472,5.348-10.546,18.622-9.325
		c0.685-0.476,1.264-0.989,1.726-1.534c-0.09-0.046-0.186-0.083-0.292-0.096c-15.544-1.866-19.21,5.368-21.645,10.169
		c-1.776,3.505-4.003,4.564-4.051,4.585c-0.043,0.019-0.072,0.054-0.11,0.079c-0.4-0.001-0.799-0.001-1.212-0.016
		c-1.289-0.044-2.541-0.096-3.75-0.146c-9.644-0.397-16.611-0.684-18.96,3.562c-2.515,4.55,2.876,13.538,3.569,14.656
		c-1.358,2.183-6.517,11.539-1.601,20.798c2.648,4.988,9.147,6.619,15.433,8.197c6.832,1.714,12.731,3.195,12.312,8.5
		c-0.004,0.057,0.014,0.107,0.02,0.162c-0.764,1.462-1.373,2.59-1.518,2.855c-0.2,0.268-0.838,1.202-1.108,2.532
		c-0.291,1.436-0.207,3.626,1.845,5.907c3.192,3.55,11.134,11.067,12.721,12.562c-0.001,0.75-0.035,2.568-0.292,4.342
		c-0.027,0.003-0.054,0.003-0.08,0.009c-0.038-0.034-0.065-0.076-0.109-0.104l-11.38-7.165c-0.928-2.711-2.296-3.768-3.149-4.177
		c0.155-1.396,0.156-3.219-0.634-4.355c-0.644-0.927-1.374-1.204-1.874-1.273c-0.6-0.084-1.106,0.087-1.445,0.257
		c-0.011-0.024-0.027-0.057-0.037-0.079c-0.746-1.646-2.999-1.872-3.347-1.896l-4.637-0.5c-0.112-0.013-0.224-0.004-0.333,0.027
		c-0.102,0.029-1.002,0.304-1.51,1.249c-0.408,0.759-0.438,1.688-0.089,2.764c0.796,2.456,4.864,9.449,5.037,9.745
		c0.013,0.021,0.025,0.042,0.042,0.063c0.059,0.084,1.468,2.073,3.322,3.504c0.862,0.667,4.008,3.223,6.975,5.644
		c1.852,1.511,3.631,2.966,4.744,3.877c0.226,0.185,0.423,0.346,0.589,0.482c-4.069,5.138-6.339,9.857-6.71,14.034
		c-0.89,10.038,2.429,18.299,11.383,28.015c-0.105,0.688-1.133,8.101,3.223,12.034c0.201,0.181,0.417,0.375,0.635,0.571
		c-1.466,1.469-5.611,6.391-5.76,15.269c-0.086,5.182-0.627,11.23-1.446,16.179c-0.893,5.398-2.073,9.261-3.238,10.604
		c-2.798,3.219-7.665,9.217-7.715,9.279c-0.027,0.035-0.055,0.074-0.077,0.111c-0.026,0.045-0.642,1.107-1.054,2.454
		c-0.602,1.966-0.483,3.527,0.351,4.637c0.323,0.43,0.633,0.818,0.907,1.16c1.134,1.415,1.631,2.088,1.534,3.215
		c-0.171,1.99-0.198,3.111,1.124,4.872c3.167,4.215,4.229,4.489,4.947,4.357c0.014-0.002,0.028-0.005,0.045-0.006
		c0.236-0.05,0.806-0.248,0.998-1.045c0.377-1.56-0.495-4.304-0.844-5.301c0.582-1.441,2.529-7.155,1.093-16.147
		c4.943-10.5,16.859-35.775,19.253-40.697c0.818,0.717,1.368,1.197,1.479,1.293c0.763,0.752,4.05,3.808,6.507,3.36
		c0.35-0.063,0.679-0.21,0.986-0.432c0.23,0.178,0.456,0.352,0.674,0.518c0.704,0.537,1.342,1.028,1.927,1.477
		c4.678,3.596,6.088,4.681,9.953,4.969c1.387,0.103,2.587,0.106,3.663-0.09c2.283-0.418,4.004-1.735,5.748-4.89
		c2.456-4.441-0.265-9.461-0.631-10.1c-0.393-0.95-5.564-13.434-10.305-24.574c0.123-0.103,0.22-0.239,0.274-0.402
		c0.026-0.089,2.866-8.844,4.531-15.32c2.473-9.616-1.976-17.815-2.267-18.336L14.593-1.235c-0.054-0.104-0.126-0.189-0.209-0.261
		c0.085-1.195,0.268-2.08,0.272-2.101c0.002-0.014,0.006-0.028,0.007-0.043l4-24.486c4.936,3.008,17.274,9.554,18.096,9.99
		c0.427,0.255,3.218,1.853,5.376,1.459c0.174-0.031,0.344-0.075,0.507-0.136c0.148-0.054,0.262-0.15,0.358-0.262
		c2.079,1.533,4.033,2.942,5.081,3.614c0.538,0.345,1.1,0.47,1.623,0.374c0.307-0.056,0.604-0.19,0.876-0.398
		C52.846-15.229,52.868-22.232,51.375-26.867z M37.609-19.691c-0.168-0.089-16.854-8.936-19.514-10.912
		c-3.037-2.257-7.198-1.351-7.373-1.311c-0.478,0.109-0.776,0.583-0.669,1.06c0.067,0.297,0.282,0.51,0.546,0.614
		c0.16,0.062,0.333,0.095,0.514,0.055c0.034-0.007,3.535-0.772,5.927,1.004L12.918-3.945c-0.094,0.448-1.133,5.704,0.911,8.698
		c0.203,0.299,0.558,0.434,0.892,0.372c0.117-0.021,0.234-0.067,0.342-0.139c0.258-0.177,0.377-0.468,0.368-0.76l5.917,11.406
		c0.004,0.009,0.009,0.019,0.014,0.028c0.046,0.079,4.428,7.994,2.103,17.038c-1.264,4.918-3.212,11.162-4.07,13.861
		c-1.73-4.046-3.351-7.786-4.594-10.553c-0.184-0.409-0.386-0.785-0.581-1.173c0.69-1.025,3.01-4.771,2.558-8.148
		c-0.065-0.486-0.511-0.825-0.997-0.761c-0.479,0.065-0.824,0.511-0.76,0.996c0.293,2.191-0.962,4.746-1.774,6.127
		C7.942,24.083-0.17,21.149-0.548,21.017C-0.61,20.996-0.672,21-0.734,20.992c-0.404-0.048-0.801,0.171-0.941,0.571
		c-0.161,0.461,0.083,0.967,0.544,1.128c0.096,0.034,9.557,3.452,14.315,14.041c4.923,10.954,15.772,37.171,15.882,37.435
		c0.016,0.04,0.036,0.08,0.059,0.114c0.026,0.048,2.709,4.645,0.635,8.396c-2.094,3.787-3.846,4.358-7.729,4.068
		c-3.336-0.248-4.424-1.085-9.005-4.606c-0.008-0.006-0.017-0.013-0.025-0.019c0.281-0.338,0.286-0.837-0.024-1.165
		C12.853,80.823,0.54,67.756-10.462,56.517c-5.299-5.414-8.834-10.347-10.805-15.077c-1.772-4.253-2.393-8.547-1.952-13.514
		c0.691-7.799,8.813-16.271,12.136-19.436c-0.016,0.035-0.029,0.075-0.045,0.109c-0.208,0.443-0.018,0.97,0.425,1.178
		c0.173,0.082,0.359,0.102,0.535,0.07c0.272-0.05,0.518-0.226,0.643-0.495c0.827-1.759,1.101-4.516,1.188-6.396
		c0.474,0.424,1.034,0.903,1.644,1.384c2.471,1.947,4.38,2.848,5.836,2.755c0.036-0.001,0.07-0.006,0.104-0.012
		c0.437-0.079,0.753-0.476,0.725-0.929c-0.031-0.487-0.451-0.858-0.94-0.826c-1.832,0.116-5.624-3.012-7.582-5.011
		C-8.561,0.309-8.57,0.3-8.578,0.292c-0.095-0.09-9.467-8.906-12.895-12.719c-2.923-3.25-0.714-6.095-0.622-6.21
		c0.035-0.042,0.066-0.088,0.092-0.136c0.141-0.258,2.46-4.521,4.133-8.072l2.646,6.807c0.098,0.253,0.331,0.427,0.601,0.45
		c0.064,0.006,0.126,0.002,0.188-0.009c0.198-0.035,0.376-0.156,0.48-0.336l12.954-21.792c0.14-0.06,0.267-0.146,0.361-0.27
		c0.237-0.31,5.906-7.525,13.953-2.226c8.728,5.75,19.85,12.104,20.091,12.242l1.362,8.413c0.035,0.224,0.155,0.426,0.338,0.563
		c0.22,0.167,3.063,2.333,6.109,4.602c-1.149-0.07-2.683-0.74-3.561-1.268C37.639-19.676,37.625-19.683,37.609-19.691z
		 M-23.7,135.104c-0.935-1.245-0.932-1.828-0.774-3.657c0.162-1.879-0.757-3.024-1.917-4.474c-0.28-0.347-0.569-0.709-0.875-1.116
		c-0.976-1.299,0.239-4.109,0.785-5.077c0.499-0.615,4.996-6.146,7.631-9.178c0.113-0.13,0.224-0.278,0.334-0.436
		c3.021-4.345,4.639-18.74,4.784-27.479c0.134-8.02,3.848-12.589,5.167-13.963c0.053-0.055,0.102-0.106,0.147-0.15
		c0.552,0.492,1.126,1.003,1.717,1.526c1.974,1.75,4.067,3.59,5.695,5.019c-0.151,0.307-0.367,0.752-0.64,1.32
		c-0.552,1.142-1.33,2.777-2.264,4.741c-1.649,3.469-3.941,8.313-6.814,14.393c-3.2,6.775-6.391,13.548-8.247,17.488
		c-1.012,2.15-1.628,3.459-1.628,3.459c-0.077,0.162-0.104,0.344-0.073,0.521c1.634,9.833-1.026,15.669-1.053,15.726
		c-0.103,0.217-0.112,0.466-0.028,0.69c0.394,1.045,0.917,2.847,0.95,3.993C-21.287,138.042-22.177,137.129-23.7,135.104z
		 M3.038,77.307c-0.08-0.071-8.115-7.088-12.229-10.803c-2.698-2.437-2.892-6.746-2.785-9.008c0.084,0.087,0.161,0.172,0.247,0.259
		C-4.493,65.147,3.31,73.33,7.834,78.097C1.521,73.019-6.814,65.808-6.911,65.722c-0.369-0.318-0.93-0.278-1.25,0.092
		c-0.319,0.368-0.279,0.927,0.091,1.248c0.104,0.091,9.338,8.079,15.766,13.192c-1.192-0.102-3.275-1.586-4.618-2.912
		C3.065,77.331,3.051,77.319,3.038,77.307z M-37.028-11.835l4.438,0.479c0.011,0.002,0.024,0.003,0.035,0.003
		c0.499,0.035,1.613,0.293,1.871,0.862c0.076,0.168,0.197,0.414,0.344,0.704l-3.888-0.424c-0.392-0.042-0.739,0.238-0.782,0.627
		c-0.043,0.39,0.238,0.739,0.627,0.782l4.818,0.526c0.004,0,0.009-0.001,0.013,0c0.302,0.569,0.627,1.175,0.942,1.759l-3.802-0.415
		c-0.391-0.043-0.738,0.238-0.78,0.627c-0.042,0.388,0.238,0.739,0.627,0.781l4.777,0.521c0.344,0.631,0.608,1.114,0.704,1.288
		c0.036,0.106,0.117,0.374,0.167,0.695l-3.589-0.352c-0.486-0.048-0.92,0.309-0.968,0.795c-0.048,0.487,0.309,0.92,0.795,0.968
		l3.206,0.314c-0.382,0.259-0.511,0.769-0.274,1.174c0.247,0.421,0.791,0.564,1.212,0.316c0.975-0.571,1.479-1.61,1.424-2.927
		c-0.017-0.393-0.081-0.749-0.147-1.034c0.535,0.469,1.219,1.352,1.742,3.014c0.062,0.2,0.196,0.371,0.373,0.483l11.249,7.083
		c-1.172,1.091-3.167,3.046-5.27,5.542c-2.334-1.912-10.79-8.83-12.336-10.024c-1.526-1.18-2.766-2.857-2.937-3.094
		c-0.319-0.548-4.152-7.171-4.862-9.363C-37.672-11.273-37.297-11.689-37.028-11.835z M-27.167-9.119
		c0.334,0.48,0.427,1.351,0.395,2.271c-0.48-0.887-1.015-1.88-1.457-2.719c0.103-0.051,0.25-0.104,0.408-0.08
		C-27.554-9.605-27.319-9.337-27.167-9.119z M-48.208-40.226c-3.382-6.368-1.377-12.991,0.281-16.623
		c0.242,1.854,0.947,5.165,3.012,8.904c2.836,5.137,8.895,12.064,21.638,15.896c0.136,0.041,0.278,0.048,0.415,0.023
		c0.117-0.021,0.232-0.067,0.335-0.134c0.105-0.07,2.021-1.371,4.484-3.852c0.005,0.021,0,0.041,0.007,0.061
		c0.008,0.022,0.712,2.246,0.067,4.708c-0.303,1.157-1.429,3.558-2.591,5.88c-1.412-4.539-7.456-6.073-13.349-7.553
		C-39.819-34.4-45.93-35.934-48.208-40.226z M-43.806-67.604c-0.261-0.217-0.836-0.849-0.854-1.312
		c-0.004-0.095,0.015-0.214,0.18-0.371c0.303-0.294,1.238-0.538,2.942-0.417c-0.635,0.491-1.416,1.197-2.23,2.148
		C-43.783-67.571-43.79-67.59-43.806-67.604z M-3.297-60.62c-1.076,3.488-2.471,4.547-3.219,4.863
		c-0.153,0.065-0.617,0.262-0.911-0.378c-0.004-0.008-0.011-0.014-0.015-0.022c0.085-0.538,0.16-1.084,0.22-1.639
		c0.053-0.486-0.298-0.923-0.785-0.976c-0.486-0.052-0.923,0.3-0.976,0.786c-1.525,14.11-12.167,22.612-14.199,24.115
		c-7.697-2.384-13.756-6.264-17.782-11.34c2.512-0.93,3.419-2.553,3.46-2.632c0.173-0.317,0.077-0.713-0.22-0.919
		c-2.724-1.882-5.911-2.535-6.913-2.703c-0.996-2.442-1.392-4.512-1.547-5.741c0.553,0.017,1.37,0.08,2.377,0.273
		c1.74,0.335,4.397,1.137,7.179,3.059c0.155,0.107,0.347,0.147,0.53,0.113c0.018-0.003,0.037-0.007,0.055-0.012
		c0.2-0.053,0.367-0.193,0.457-0.38c0.013-0.024,1.201-2.491,3.447-4.938c2.723-2.966,5.719-4.565,8.909-4.797
		C-17.042-61.835-9.55-59.985-3.297-60.62z M-41.347-48.252c-0.034-0.185,0.089-0.363,0.273-0.397
		c0.188-0.034,0.364,0.089,0.398,0.275c0.034,0.185-0.089,0.363-0.275,0.396C-41.135-47.944-41.313-48.067-41.347-48.252z
		 M-42.513-49.058c0.33-0.061,0.646,0.158,0.706,0.488c0.061,0.33-0.158,0.646-0.488,0.706c-0.229,0.043-0.447-0.056-0.582-0.228
		c0.031,0.098,0.071,0.201,0.114,0.306c-0.188-0.307-0.377-0.614-0.553-0.928c-0.218-0.392-0.415-0.777-0.603-1.159
		c0.295,0.069,0.634,0.157,1.002,0.265c-0.08,0.248-0.13,0.584-0.075,1.003C-42.936-48.83-42.757-49.014-42.513-49.058z
		 M-2.675-41.685l-0.347,0.583l-11.409,19.194l-1.115-2.868c0.138-0.11,0.247-0.258,0.299-0.439
		c1.851-6.364-0.168-10.67-1.192-12.315c-0.023-0.037-0.048-0.08-0.07-0.114c0.321-0.36,0.646-0.732,0.974-1.127
		c1.628-1.96,3.458-4.551,5.002-7.708c2.894,3.075,5.583,4.28,7.662,4.67c0.083,0.016,0.164,0.03,0.245,0.042L-2.675-41.685z
		 M-16.279-30.721c0.033,1.007-0.045,2.125-0.276,3.346l-0.497-1.277C-16.696-29.48-16.424-30.194-16.279-30.721z M-25.927-64.815
		c-2.584,0.768-5.049,2.365-7.255,4.767c-1.659,1.807-2.765,3.603-3.303,4.567c-4.209-2.689-8.048-3.105-9.718-3.145
		c0.952-4.015,2.724-6.621,4.07-8.105c1.502-1.656,2.81-2.329,2.834-2.342c0.124-0.062,0.221-0.153,0.3-0.256
		c1.473,0.299,3.097,0.745,4.769,1.333c0.522,0.185,1.308,0.495,2.302,0.89C-30.332-66.473-28.271-65.657-25.927-64.815z
		 M49.037-14.952c-2.547-1.633-10.932-7.993-12.578-9.244l-6.522-40.3c-0.057-0.347-0.312-0.628-0.652-0.716l-7.24-1.887
		c-0.198-0.222-0.506-0.339-0.82-0.281c-0.045,0.009-0.089,0.02-0.131,0.034L18.967-67.9c-0.471-0.123-0.958,0.16-1.08,0.634
		s0.159,0.958,0.634,1.081l1.93,0.503c-0.038,0.153-0.1,0.322-0.193,0.497c-0.224,0.237-1.61,0.355-3.192-0.006
		c-0.377-0.086-1.068-1.255-1.426-2.409l-1.435-4.615c1.356-0.791,4.577-2.697,6.018-3.779c1.152-0.867,2.637,0.523,2.697,0.581
		c0.022,0.021,0.047,0.041,0.071,0.062c0.334,0.259,8.161,6.358,10.47,7.809c1.648,1.036,2.863,4.051,3.193,5.125
		c0.004,0.017,0.01,0.032,0.016,0.049c0.112,0.299,11.088,30.05,13.021,36.043c1.579,4.906,1.006,10.514-0.191,11.435
		C49.422-14.83,49.334-14.762,49.037-14.952z"/>
	<path fill="#72BF44" d="M28.008-49.715c0.189-0.034,0.357-0.145,0.469-0.309c0.126-0.194,0.149-0.44,0.062-0.655
		c-0.094-0.23-1.753-4.096-7.003-6.556c-2.204-1.032-5.027-1.822-8.655-1.982c-0.255-0.011-0.495,0.114-0.63,0.329
		c-0.136,0.214-0.146,0.485-0.027,0.71c0.032,0.061,2.323,4.263,7.399,6.727c2.215,1.075,4.954,1.824,8.277,1.747
		C27.936-49.704,27.973-49.708,28.008-49.715z"/>
	<path fill="#204F10" d="M19.052-98.755c1.85,0.088,3.597-0.015,5.192-0.307c10.432-1.907,11.802-11.319,11.812-11.413
		c0.026-0.196-0.029-0.394-0.157-0.546c-0.126-0.152-0.31-0.244-0.507-0.255c-1.812-0.096-3.527,0-5.1,0.288
		c-10.265,1.876-11.893,11.317-11.905,11.412c-0.033,0.2,0.021,0.403,0.149,0.56C18.664-98.86,18.851-98.766,19.052-98.755z"/>
	<path fill="#72BF44" d="M12.148-84.59c0.384-0.07,0.642-0.43,0.568-0.816c-0.008-0.055-0.136-1.345,2.514-1.961
		c3.729-0.866,6.599-5.209,6.714-7.714c0.012-0.265-0.125-0.514-0.354-0.646c-0.229-0.133-0.516-0.125-0.736,0.018l-4.355,2.81
		c-0.986,0.471-2.65,1.944-2.522,4.423c-3.021,1.078-2.672,3.208-2.653,3.306C11.392-84.784,11.763-84.52,12.148-84.59z"/>
	<path fill="#72BF44" d="M29.989-95.078c-0.2-0.104-0.438-0.108-0.636-0.01c-0.124,0.06-3.021,1.483-4.261,3.727
		c-0.99,1.79-1.575,3.721-1.752,4.346c-1.531,0.485-2.731,0.466-2.761,0.466c-0.391-0.011-0.718,0.295-0.729,0.687
		c-0.012,0.391,0.294,0.718,0.687,0.729c0.077,0.003,0.798,0.018,1.836-0.171c1.785-0.326,4.51-1.258,6.528-3.9
		c1.885-2.468,1.478-5.238,1.459-5.355C30.328-94.781,30.188-94.974,29.989-95.078z"/>
	<path fill="#204F10" d="M-3.447-91.451c-0.488,0.338-1.013,0.662-1.606,0.956c-3.526,1.742-4.721,6.825-4.771,7.041
		c-0.069,0.31,0.073,0.627,0.351,0.779c0.082,0.046,2.057,1.108,4.814,0.604c2.052-0.375,3.979-1.503,5.731-3.357
		c2.304-2.437,2.27-5.301,1.653-7.565c-0.618-2.27-1.822-3.938-1.846-3.97c-0.187-0.252-0.518-0.353-0.812-0.246
		s-0.485,0.394-0.468,0.707c0.07,1.232-0.404,2.431-1.322,3.517C-2.183-92.439-2.762-91.926-3.447-91.451z"/>
	<path fill="#72BF44" d="M43.452-117.957c0.041,0.191,0.159,0.357,0.327,0.459c0.149,0.09,0.324,0.121,0.494,0.09
		c0.021-0.004,0.043-0.009,0.065-0.013c0.197-0.056,0.376-0.114,0.56-0.172c4.442-1.397,5.155-3.317,6.031-5.722
		c0.072-0.2,0.147-0.404,0.225-0.613c1.056-2.809,1.195-8.505,1.201-8.746c0.008-0.281-0.153-0.539-0.408-0.657
		c-0.254-0.121-0.554-0.079-0.765,0.106c-0.157,0.137-3.745,3.263-6.15,5.855c-0.085,0.092-0.173,0.186-0.255,0.276
		C42.165-124.217,43.399-118.212,43.452-117.957z"/>
	<path fill="#72BF44" d="M35.141-115.329c0.118,0.043,0.247,0.053,0.367,0.031c0.095-0.018,0.187-0.055,0.271-0.11
		c4.876-3.295,4.679-7.356,3.745-9.471c-0.087-0.197-0.178-0.384-0.275-0.545c-0.192-0.321-0.602-0.437-0.934-0.267
		c-4.083,2.1-4.129,6.398-3.857,8.57c0.099,0.788,0.238,1.304,0.243,1.323C34.763-115.581,34.926-115.406,35.141-115.329z"/>
	<path fill="#72BF44" d="M43.834-130.266c0.098,0.024,0.199,0.026,0.293,0.009c0.158-0.029,0.305-0.111,0.413-0.237
		c0.031-0.036,0.055-0.075,0.085-0.111c3.135-3.806,2.383-9.114,2.352-9.341c-0.051-0.33-0.322-0.58-0.654-0.602
		s-0.635,0.19-0.728,0.51c-0.221,0.759-0.977,2.958-1.809,4.007c-1.11,1.396-0.717,4.033-0.537,4.948
		c0.028,0.14,0.051,0.243,0.062,0.291C43.373-130.532,43.574-130.328,43.834-130.266z"/>
	<path fill="#72BF44" d="M43.476-112.263c0.027,0.217,0.151,0.409,0.34,0.52c0.028,0.017,0.062,0.021,0.092,0.035
		c0.127,0.054,0.265,0.08,0.4,0.055c0.043-0.007,0.086-0.019,0.127-0.039c3.496-1.351,6.197-5.427,6.311-5.6
		c0.193-0.294,0.142-0.686-0.125-0.92c-0.266-0.232-0.66-0.234-0.93-0.005c-0.017,0.015-1.635,1.387-3.719,1.768
		c-0.534,0.098-0.952,0.313-1.293,0.587C43.526-114.936,43.354-113.236,43.476-112.263z"/>
	<path fill="#72BF44" d="M22.128-43.849c0.139,0.072,0.287,0.094,0.432,0.073c0.01-0.002,0.02-0.003,0.029-0.005
		c0.387-0.07,0.642-0.44,0.569-0.822c-0.032-0.175-0.124-0.321-0.253-0.425c-0.252-0.258-1.556-1.655-2.079-3.488
		c-0.288-1.006-0.952-1.602-1.746-1.913c-0.803-0.314-1.739-0.335-2.555-0.186c-0.071,0.012-0.11,0.021-0.11,0.021
		c-0.211,0.049-0.39,0.193-0.481,0.39c-0.094,0.197-0.092,0.426,0.007,0.62c0.339,0.673,0.787,1.3,1.283,1.878
		C19.198-45.406,21.982-43.926,22.128-43.849z"/>
	<path fill="#72BF44" d="M37.896-109.407c0.127,0.05,0.261,0.063,0.391,0.04c0.104-0.02,0.202-0.062,0.29-0.125
		c4.366-3.179,3.553-6.928,3.516-7.086c-0.047-0.209-0.189-0.385-0.381-0.478c-0.192-0.094-0.418-0.094-0.61-0.002
		c-3.597,1.708-3.951,5.404-3.64,7.121C37.505-109.698,37.669-109.497,37.896-109.407z"/>
	<path fill="#72BF44" d="M31.172-112.481c0.037-0.001,0.072-0.005,0.105-0.011c0.184-0.034,0.35-0.138,0.458-0.295
		c0.417-0.604,0.867-1.541,1.065-2.594c0.279-1.479,0.06-3.19-1.465-4.552c-0.151-0.135-0.354-0.199-0.555-0.175
		c-0.202,0.023-0.385,0.134-0.5,0.3c-0.799,1.159-1.753,3.955,0.005,6.619c0.096,0.146,0.196,0.292,0.309,0.437
		C30.731-112.576,30.947-112.474,31.172-112.481z"/>
	<path fill="#72BF44" d="M42.474-110.068c-0.009,0.021-0.955,2.134-3.819,4.905c-3.25,3.145-2.24,9.848-2.196,10.132
		c0.033,0.209,0.158,0.394,0.341,0.501c0.147,0.086,0.321,0.116,0.487,0.086c0.039-0.007,0.078-0.019,0.116-0.032
		c0.189-0.069,0.361-0.15,0.543-0.224c3.11-1.267,5.229-3.191,6.275-5.743c1.878-4.581-0.36-9.439-0.456-9.644
		c-0.045-0.096-0.115-0.172-0.193-0.237c-0.127-0.105-0.286-0.171-0.458-0.169C42.835-110.489,42.585-110.322,42.474-110.068z"/>
	<path fill="#72BF44" d="M31.725-88.75c-2.987,1.304-3.779,5.873-3.81,6.067c-0.033,0.189,0.017,0.386,0.131,0.541
		c0.116,0.154,0.291,0.256,0.482,0.278c1.22,0.148,2.334,0.142,3.331-0.004c0.108-0.016,0.221-0.025,0.326-0.044
		c5.43-0.992,5.931-6.372,5.437-9.077c-0.043-0.238-0.205-0.437-0.43-0.529c-0.191-0.077-0.4-0.049-0.58,0.042
		c-0.031,0.016-0.067,0.017-0.096,0.037C36.493-91.425,34.295-89.873,31.725-88.75z"/>
	<path fill="#72BF44" d="M43.025-94.95c-1.108,0.203-2.268,0.613-3.444,1.218c-0.243,0.125-0.394,0.38-0.386,0.654
		c0.01,0.273,0.176,0.518,0.428,0.626c0.104,0.045,2.569,1.087,5.676,0.52c0.982-0.18,1.93-0.505,2.818-0.965
		c0.213-0.11,0.356-0.322,0.379-0.561c0.023-0.239-0.077-0.474-0.265-0.623C48.155-94.141,46.331-95.554,43.025-94.95z"/>
	<path fill="#72BF44" d="M24.719-60.033c0.983-0.18,1.931-0.504,2.816-0.965c0.212-0.112,0.356-0.323,0.378-0.562
		c0.023-0.239-0.077-0.474-0.265-0.623c-0.075-0.059-1.899-1.472-5.205-0.868c-0.155,0.028-0.313,0.07-0.471,0.107
		c-0.965,0.224-1.962,0.59-2.975,1.111c-0.242,0.125-0.393,0.38-0.383,0.654c0.009,0.274,0.176,0.519,0.427,0.626
		c0.069,0.03,1.199,0.494,2.854,0.639C22.728-59.842,23.682-59.844,24.719-60.033z"/>
	<path fill="#72BF44" d="M-8.575-78.812c-1.107,0.202-2.266,0.612-3.442,1.217c-0.245,0.125-0.395,0.38-0.385,0.654
		c0.009,0.274,0.176,0.518,0.427,0.627c0.104,0.045,2.57,1.086,5.676,0.519c0.983-0.18,1.931-0.503,2.817-0.965
		c0.213-0.111,0.355-0.322,0.379-0.561c0.023-0.24-0.076-0.474-0.265-0.623C-3.445-78.004-5.269-79.416-8.575-78.812z"/>
	<path fill="#204F10" d="M25.916-77.963c-0.051,0.219,0,0.448,0.146,0.621c0.057,0.068,0.603,0.708,1.627,1.414
		c1.707,1.176,4.742,2.537,9.061,1.748c1.301-0.237,2.65-0.664,4.008-1.267c0.194-0.086,0.338-0.254,0.396-0.459
		c0.055-0.204,0.018-0.423-0.105-0.597c-0.131-0.186-3.306-4.563-10.508-3.247c-0.001,0-0.002,0-0.004,0.001
		c-1.346,0.246-2.762,0.684-4.211,1.301C26.121-78.36,25.969-78.18,25.916-77.963z"/>
	<path fill="#72BF44" d="M7.872-76.226c1.354,0.163,2.585,0.147,3.657-0.049c5.431-0.993,5.93-6.372,5.437-9.078
		c-0.044-0.238-0.206-0.438-0.43-0.529c-0.225-0.091-0.479-0.062-0.677,0.079c-0.022,0.015-2.221,1.567-4.791,2.69
		c-2.986,1.304-3.778,5.872-3.811,6.066c-0.031,0.191,0.017,0.388,0.132,0.542C7.506-76.35,7.68-76.249,7.872-76.226z"/>
	<path fill="#72BF44" d="M11.954-69.722c0.058-0.204,0.02-0.423-0.104-0.597c-0.133-0.186-3.305-4.564-10.508-3.248
		c-1.347,0.246-2.766,0.685-4.214,1.302c-0.206,0.088-0.357,0.267-0.411,0.485c-0.052,0.218,0,0.448,0.145,0.62
		c0.139,0.167,3.194,3.719,9.002,3.359c0.542-0.034,1.098-0.089,1.687-0.196c0.118-0.021,0.239-0.053,0.358-0.078
		c1.191-0.247,2.416-0.641,3.649-1.189C11.752-69.349,11.896-69.517,11.954-69.722z"/>
	<path fill="#204F10" d="M7.635-59.668c-0.202-0.094-0.437-0.088-0.634,0.016c-0.199,0.105-0.334,0.297-0.368,0.517
		C6.62-59.053,6.324-57.076,7.04-54.62c0.66,2.268,2.344,5.393,6.604,7.396c0.135,0.063,0.282,0.082,0.428,0.055
		c0.071-0.013,0.141-0.037,0.206-0.071c0.197-0.104,0.334-0.296,0.368-0.517c0.012-0.084,0.309-2.059-0.407-4.515
		C13.579-54.54,11.895-57.664,7.635-59.668z"/>
	<path fill="#65873B" d="M-34.155-19.515c0.135,0.063,0.284,0.082,0.429,0.055c0.071-0.014,0.14-0.036,0.205-0.07
		c0.197-0.104,0.334-0.297,0.368-0.517c0.014-0.083,0.309-2.059-0.407-4.515c-0.661-2.269-2.344-5.393-6.605-7.396
		c-0.202-0.096-0.438-0.089-0.634,0.015c-0.197,0.105-0.334,0.296-0.368,0.517c-0.013,0.082-0.309,2.059,0.407,4.515
		C-40.099-24.643-38.415-21.518-34.155-19.515z"/>
	<path fill="#72BF44" d="M9.002-99.375c-0.185,0.21-0.229,0.509-0.113,0.764c0.115,0.255,0.37,0.417,0.651,0.415
		c0.021-0.001,0.538-0.006,1.324-0.15c2.201-0.401,7.055-2.003,8.805-8.255c0.229-0.816,0.41-1.702,0.52-2.684
		c0.04-0.359-0.196-0.688-0.549-0.769c-0.352-0.08-0.708,0.119-0.826,0.459c-0.005,0.014-0.491,1.372-1.752,2.017
		c-0.196,0.1-0.439,0.209-0.694,0.325c-1.47,0.665-3.77,1.712-4.995,4.336c-0.205,0.439-0.383,0.917-0.519,1.451L9.002-99.375z"/>
	<path fill="#72BF44" d="M34.358-102.128c-3.259,0.596-4.461,3.698-4.642,5.255c-0.026,0.231,0.061,0.461,0.236,0.614
		c0.162,0.144,0.383,0.204,0.594,0.165c0.016-0.003,0.029-0.006,0.044-0.009c2.104-0.523,3.528-1.439,4.234-2.725
		c0.787-1.429,0.353-2.771,0.334-2.828C35.046-101.99,34.706-102.191,34.358-102.128z"/>
	<path fill="#72BF44" d="M-0.569-59.055c-0.229-0.04-0.464,0.034-0.626,0.199c-0.163,0.165-0.235,0.4-0.193,0.628
		c1.021,5.508,4.703,5,5.12,4.923c0.096-0.016,0.149-0.031,0.148-0.031c0.337-0.096,0.562-0.424,0.521-0.771
		C4.001-57.399,0.975-58.783-0.569-59.055z"/>
	<path fill="#72BF44" d="M19.147-111.308c0.049,0.002,0.099-0.002,0.146-0.011c0.178-0.033,0.338-0.132,0.447-0.283
		c0.039-0.051,3.688-5.235-1.015-9.735c-0.16-0.153-0.381-0.222-0.6-0.189c-0.222,0.036-0.41,0.167-0.514,0.361
		c-0.096,0.175-2.321,4.379,0.956,9.529C18.695-111.438,18.911-111.315,19.147-111.308z"/>
	<path fill="#72BF44" d="M4.985-93.302c0.049,0.001,0.099-0.003,0.146-0.012c0.18-0.033,0.34-0.132,0.447-0.281
		c0.028-0.04,2.132-3.04,1.086-6.452c-0.331-1.081-0.971-2.202-2.102-3.284c-0.159-0.152-0.381-0.222-0.6-0.188
		c-0.22,0.034-0.407,0.167-0.513,0.36c-0.086,0.158-1.879,3.572,0.135,8c0.227,0.499,0.489,1.007,0.821,1.529
		C4.534-93.432,4.75-93.309,4.985-93.302z"/>
	<path fill="#231F20" d="M-31.193-50.418c-0.054,0.186-0.028,0.387,0.069,0.555c0.098,0.166,0.26,0.287,0.448,0.331
		c2.727,0.643,5.216,0.768,7.395,0.37c8.125-1.485,9.459-9.725,9.472-9.808c0.055-0.365-0.179-0.71-0.538-0.795
		c-2.331-0.549-4.525-0.642-6.524-0.277C-28.743-58.604-31.097-50.752-31.193-50.418z M-15.348-58.532
		c-0.234,0.935-0.823,2.713-2.13,4.375c0.242-0.603,0.33-1.275,0.205-1.961c-0.231-1.266-1.108-2.241-2.226-2.673
		C-18.196-58.903-16.807-58.82-15.348-58.532z M-29.573-50.741c0.606-1.512,2.351-5.035,5.979-6.896
		c-0.59,0.771-0.875,1.771-0.688,2.801c0.354,1.935,2.209,3.218,4.146,2.864c0.162-0.03,0.312-0.084,0.465-0.134
		c-1.039,0.703-2.305,1.267-3.864,1.551C-25.316-50.231-27.343-50.293-29.573-50.741z M-20.162-55.787
		c0.047,0.26-0.124,0.508-0.384,0.556c-0.259,0.048-0.507-0.125-0.554-0.384c-0.047-0.259,0.124-0.508,0.383-0.555
		S-20.209-56.046-20.162-55.787z M-21.711-56.297c0.094,0.518-0.249,1.016-0.766,1.11c-0.52,0.095-1.016-0.249-1.11-0.768
		c-0.094-0.519,0.249-1.015,0.768-1.11C-22.302-57.159-21.805-56.815-21.711-56.297z"/>
	<path fill="#231F20" d="M-35.774-42.494c0.063,0.035,1.078,0.554,2.43,0.307c0.729-0.133,1.557-0.489,2.387-1.267
		c0.285-0.267,0.302-0.715,0.033-1.001c-0.268-0.286-0.716-0.3-1.002-0.033c-1.604,1.5-3.116,0.775-3.191,0.738
		c-0.345-0.18-0.77-0.047-0.951,0.298C-36.252-43.106-36.12-42.677-35.774-42.494z"/>
	<path fill="#231F20" d="M-24.15-46.001l-8.903,4.3l-3.29-0.211c-0.261-0.018-0.497,0.159-0.552,0.416
		c-0.057,0.255,0.083,0.516,0.327,0.609l6.562,2.529c0.093,0.036,0.192,0.045,0.287,0.027c0.068-0.013,0.133-0.038,0.193-0.077
		c3.71-2.406,5.983-6.687,6.079-6.867c0.105-0.203,0.07-0.452-0.09-0.617C-23.696-46.057-23.944-46.101-24.15-46.001z
		 M-29.88-39.448l-3.065-1.182c0.078,0,0.157-0.018,0.23-0.052l7.396-3.572C-26.252-42.873-27.839-40.841-29.88-39.448z"/>
	<circle fill="#FFFFFF" cx="-22.649" cy="-56.126" r="0.953"/>
	<circle fill="#FFFFFF" cx="-41.011" cy="-48.313" r="0.341"/>
	<circle fill="#FFFFFF" cx="-20.631" cy="-55.701" r="0.477"/>
</g>
</svg>
