<?xml version="1.0" encoding="utf-8"?>
<!-- Generator: Adobe Illustrator 16.0.0, SVG Export Plug-In . SVG Version: 6.00 Build 0)  -->
<!DOCTYPE svg PUBLIC "-//W3C//DTD SVG 1.1//EN" "http://www.w3.org/Graphics/SVG/1.1/DTD/svg11.dtd" [
	<!ENTITY ns_extend "http://ns.adobe.com/Extensibility/1.0/">
	<!ENTITY ns_ai "http://ns.adobe.com/AdobeIllustrator/10.0/">
	<!ENTITY ns_graphs "http://ns.adobe.com/Graphs/1.0/">
	<!ENTITY ns_vars "http://ns.adobe.com/Variables/1.0/">
	<!ENTITY ns_imrep "http://ns.adobe.com/ImageReplacement/1.0/">
	<!ENTITY ns_sfw "http://ns.adobe.com/SaveForWeb/1.0/">
	<!ENTITY ns_custom "http://ns.adobe.com/GenericCustomNamespace/1.0/">
	<!ENTITY ns_adobe_xpath "http://ns.adobe.com/XPath/1.0/">
]>
<svg version="1.1" id="Layer_1" xmlns:x="&ns_extend;" xmlns:i="&ns_ai;" xmlns:graph="&ns_graphs;"
	 xmlns="http://www.w3.org/2000/svg" xmlns:xlink="http://www.w3.org/1999/xlink" x="0px" y="0px" width="595.279px"
	 height="841.89px" viewBox="0 0 595.279 841.89" enable-background="new 0 0 595.279 841.89" xml:space="preserve">
<metadata><?xpacket begin="﻿" id="W5M0MpCehiHzreSzNTczkc9d"?>
<x:xmpmeta xmlns:x="adobe:ns:meta/" x:xmptk="Adobe XMP Core 5.3-c011 66.145661, 2012/02/06-14:56:27        ">
   <rdf:RDF xmlns:rdf="http://www.w3.org/1999/02/22-rdf-syntax-ns#">
      <rdf:Description rdf:about=""
            xmlns:dc="http://purl.org/dc/elements/1.1/">
         <dc:format>image/svg+xml</dc:format>
         <dc:title>
            <rdf:Alt>
               <rdf:li xml:lang="x-default">Print</rdf:li>
            </rdf:Alt>
         </dc:title>
      </rdf:Description>
      <rdf:Description rdf:about=""
            xmlns:xmp="http://ns.adobe.com/xap/1.0/"
            xmlns:xmpGImg="http://ns.adobe.com/xap/1.0/g/img/">
         <xmp:MetadataDate>2018-09-05T11:34:21-03:00</xmp:MetadataDate>
         <xmp:ModifyDate>2018-09-05T11:34:21-03:00</xmp:ModifyDate>
         <xmp:CreateDate>2018-09-05T11:34:21-03:00</xmp:CreateDate>
         <xmp:CreatorTool>Adobe Illustrator CS6 (Macintosh)</xmp:CreatorTool>
         <xmp:Thumbnails>
            <rdf:Alt>
               <rdf:li rdf:parseType="Resource">
                  <xmpGImg:width>104</xmpGImg:width>
                  <xmpGImg:height>256</xmpGImg:height>
                  <xmpGImg:format>JPEG</xmpGImg:format>
                  <xmpGImg:image>/9j/4AAQSkZJRgABAgEASABIAAD/7QAsUGhvdG9zaG9wIDMuMAA4QklNA+0AAAAAABAASAAAAAEA&#xA;AQBIAAAAAQAB/+4ADkFkb2JlAGTAAAAAAf/bAIQABgQEBAUEBgUFBgkGBQYJCwgGBggLDAoKCwoK&#xA;DBAMDAwMDAwQDA4PEA8ODBMTFBQTExwbGxscHx8fHx8fHx8fHwEHBwcNDA0YEBAYGhURFRofHx8f&#xA;Hx8fHx8fHx8fHx8fHx8fHx8fHx8fHx8fHx8fHx8fHx8fHx8fHx8fHx8fHx8f/8AAEQgBAABoAwER&#xA;AAIRAQMRAf/EAaIAAAAHAQEBAQEAAAAAAAAAAAQFAwIGAQAHCAkKCwEAAgIDAQEBAQEAAAAAAAAA&#xA;AQACAwQFBgcICQoLEAACAQMDAgQCBgcDBAIGAnMBAgMRBAAFIRIxQVEGE2EicYEUMpGhBxWxQiPB&#xA;UtHhMxZi8CRygvElQzRTkqKyY3PCNUQnk6OzNhdUZHTD0uIIJoMJChgZhJRFRqS0VtNVKBry4/PE&#xA;1OT0ZXWFlaW1xdXl9WZ2hpamtsbW5vY3R1dnd4eXp7fH1+f3OEhYaHiImKi4yNjo+Ck5SVlpeYmZ&#xA;qbnJ2en5KjpKWmp6ipqqusra6voRAAICAQIDBQUEBQYECAMDbQEAAhEDBCESMUEFURNhIgZxgZEy&#xA;obHwFMHR4SNCFVJicvEzJDRDghaSUyWiY7LCB3PSNeJEgxdUkwgJChgZJjZFGidkdFU38qOzwygp&#xA;0+PzhJSktMTU5PRldYWVpbXF1eX1RlZmdoaWprbG1ub2R1dnd4eXp7fH1+f3OEhYaHiImKi4yNjo&#xA;+DlJWWl5iZmpucnZ6fkqOkpaanqKmqq6ytrq+v/aAAwDAQACEQMRAD8A9U4q7FXYq7FXYqkvnbXj&#xA;5f8AKGs62Kepp9nNPED0MiofTG/i9Bir4V8p+d9a0TztZ+ZzeTPdrdLNfzMzM00bPWZZP5g61BxZ&#xA;P0DVldQ6EMrCqsNwQehBxYt4q7FXYq7FXYq7FXYq7FXYq8584fn7+X3lPzMPL2qS3L3icPrctvD6&#xA;kVvzAZfVPJXPwsDSNW+/FNMd/wCcivOmk3P5NPPpF7FeWmt3VvawzwMHVgrG4cVHSnoUYHp0OKh8&#xA;f4sn2/5c/NXyrpH5T+XPMHmHUEtvXsIoxH9uaaaBRFKI41qzfGhr2Hc4saTP8ufze8ofmALpNFM8&#xA;N1Z0ae0u0WOXgxoJF4NIpWu2zbd8Vpm2KHYq7FXYq7FXYq7FXYq+Q/8AnKfyXNpnnyLXoFLWnmCN&#xA;ST1C3MCrG6+3JODD6fDFPEALLzG3sY7e19O7mYxM4k9DkRH6gFAeI+01DTKTMnk6PL2jlyy4cI+P&#xA;45BNrnytqEFgL+50G9gsJF5C8ksp44eP8wkKBae9camgYdaNwft/ASK+0uSSJZLV2nhiQ8I6luEY&#xA;rI3H/JFSx+k4Rk6FydJ2gZS8PIOGb6O/5xI8mPaaLqXm25Uq+pN9TsK94IGrK48Q0vw/7A5a7Qvo&#xA;PFDsVdirsVdirsVcSACSaAbknFVGzvbK+tkurK4juraSvpzwuskbcSVNGUkGhBGKvm3/AJye1ie6&#xA;856Vo3M/VNNsvrfp70M91I6VPjxSEU+ZyvIdnV9rZTHFQ/iKv+R+ieTdB8uz/mV5vkjiU3Rs9Jmn&#xA;RpFtwj+mZFVQ9JHlBHKnwheoqclCNBydDgGPGAOZ3KRan/zlZ5ut/NEv1GOzvvL1vczrEjwvFJc2&#xA;plPpMzFiUcR0A292U9Mk5tIj8y9K8t6Nqnlzz75fthD5e81QlrmwVQqxzNFyJVNlUujmqjbkvvmN&#xA;qsPiQIHN1PauDix8Y+qL0/8A5xv1uK98k3mmRy+pDo2oT29pX7QtZQs8VfkZWX6Mux3wi+bsMMzK&#xA;AJFEjd6vk2x2KuxV2KuxVKfNfmXTvLHl2/17USRaWERkdVpyduiRrXbk7kKvucVfJ/n/APODzf50&#xA;9SG7m/ROgt00m2cgOv8Ay8zbNL7jZfbKpZO502o7TJPDhFnv/UGff84r+Z7sXereVQrTaYsY1K0l&#xA;XdIGZhHJGSenqVDKB4Nk4E1u52hyTlj9YIkNt1H/AJyJ8sXFx+YGl3cRCLqmmtBAW6PcWUjOyV7F&#xA;opwR8so1WTgjZ5ON2vjJxcQ/hKW+QYLHz3+V+p/ldc3SWXmGxuJL7Q/X2SQFzMafaPwu8iuFFQrc&#xA;qHfL4ysW5eizjJijIdzB7H/nGz827nVVsZtKS0h58ZL+WeEwKtft/Azuw9lWvtknLtk/53ax5fif&#xA;yl+WOj3cc1r5d4Q6jey1MK3BCxD1BHWrIObyBa7tx61GKhj3ly/u/J/5n+XZNGvVmiuLyK0uHjiW&#xA;2E8MsiRzI0cYVWQ8yULry2B2OwUPtLFDsVdirsVdir5t/wCcl/PP1/WbbydZy1s9N43erlejXDCs&#xA;MRP/ABWh5kf5Q7jITlQdf2lqODHwj6pbfrTr8jvyf8qan5IGueZtJi1C71l5HtvrAYmK0/u4wgr8&#xA;JfiZAwofiGSiKDlafCMUBEdPvep+RPy88seR9OnsNBgaOO5lM08srepK56Kpc/souyj+JJJbkJ+a&#xA;fkdvN3lhrW0cQ6zYyLe6PcN0W5iBorH+SRSUb517ZGcBIEHkWMoiQIPIvj67t9elvtQlawuotT0u&#xA;Rp9SKJJG1nIGJLu6iqUO4pv4ZTGPBtbp9J2bqIZDwmoDr3/Bleu67+ZMXlu0nk8z+YLuzvikcUc1&#xA;leWkU/q/ZSG8JYzFh0Bpyy2z1DvsmMGNQl6vcgfy58v2dz56XQNZ09lT6pcrd2FyjRsOQRlJrQ12&#xA;5KwPuDjjNh1+kw5sZl4v1W9E1/yH5Y8uw6Vc6ZalbqbWdLje4lkkmk4C6Q8FaQtxWu9BljmAvpDA&#xA;rsVdirsVSHz15stfKflXUNduF9Q2sf8Ao1uOs1w54QxCm/xyMBt23xJV8sXnkq41e5061nmkl80e&#xA;Zr4LeTD4l53DGW5kIH7MKcunhmq02qlmzGvoDocB/Marj/ghy/R9u76+0+xtdPsLawtIxFaWkSQW&#xA;8Q6LHEoRFHyUZtXfIfXNe0bQtNm1PWLyKxsYBWSeZuI+QHVmPYDc4q8qm/5yk8jJe+nFpuqTWQah&#xA;vViiVSAacxG0qycfmoPtkeIOOdXiEuEyFtfmzp3lrX/Ic/5l+Vr36vq1nbCe21ez+E3EIYI9vcoa&#xA;cwOnFxVSKeIwyiDzcuEzE7POda8h6z5d0yPWrLVbSO5lnt4beeHTYopkN5KkbOtZHjiID/7qQV9s&#xA;xIZBM8JH2uxy4TjiZg/YyH8zPLnl78qr/wAreYtN5XU7vc2mqRzM0l9fCVVZ7j1SKFoyOhoNwB3z&#xA;MGzrDK9ylU/5oeV/NPmXy7pUkj6RpEWoQX1/qOoqYVJtW9WOBCpcKZHUVdyABjbCMonkQX07FLFN&#xA;EksLrJFIAySIQysp3BBGxBxZLsVdirsVfNP59fmJHf8Aniy0O0AuNN8tSetepX4Jb9lpxqK7wIdv&#xA;BiQemY+pHFAxurdX2rqeDHwj6pfcu/LLzP5VXzLeedvMF5HpulaLb/UNMW5/vJLy4Ae4aGNOTuyQ&#xA;8VooOzZTodN4UTfMsuysPBivrJOtY/5yJv8AWrt9O8m2sWnxU/46+rfbbx9C1U7nw5t/scuz6gYx&#xA;dGXuZajtPDj68R8v1vK/PUsd5JHNqmq3Gva4X5Pc3EnNIk3qkcSUiiBanwquYeDUZchJkOGPc6XU&#xA;dp5Muw9MfL9bFgQehrmRTgmJHNFaXHoBg1Gw1SJohfRUsdRD3Hp2s/jLDC1HR+54MQex7WCR2p6f&#xA;sjXY5Q8PIal0L2Xzpr3kLXPKKaWfMdnwZ7Z2EL+tK6wSK7KsMLeryZVIFBXMbHGUZXT1mfJjlCjI&#xA;PFfOEOmzalfS2Onz6bYxpSztbmSZ5gFWvqP6zOymTrxBpTMiGS63t5DV9pRlqIxxfRxUfNPfKvln&#xA;TNd0u9FyeXJRHCyn7BIqJB49qZga3UyxTFOllmlh1BI6E/emWg+dPOH5eQg2DXFosTUuNPnQ3Ok3&#xA;PxULxsG5WzMPiNCMydPqeOWxEo/7IfDq77DqzI+kicT0upD4dXt35f8A/ORHkrzOYrLUZF0PWH2E&#xA;Fy6m3latP3Nx8Kmv8r8W8K5nufE2Leqggio6Ypdir4GjuZ7vle3DmS5vHa5uJGNS0kzF3Jr4s2Y2&#xA;Tm8p2lInPK+iYeT/AC9ps8tzeapIlvbW7F5pGZVrzYlF5HoKKa5javUSiAICyU6jUZMtQgSY8I2H&#xA;uZRB5Hu/Nbxp5I0e5uI+VJNRk5Q6fStG/fT7sR/kV+WHS48x/vKr7W/B2RklvM8P2lf+Yv5Ia95O&#xA;8sWeuajqUd56l0tvf2tojrHCsoPpuJSQ7/GAp+EdRmbwUNnYy0UMWMnGPWBzO7AYrW3iYtFGqMdi&#xA;VFMoMiXn8mpyTFSJLO4/y9jbTgWuGW/KhqUHpBqV4kbn25V+jNUe0alVelx7Y15f1f8AQ+ofW1hW&#xA;UMhjdPskhiDs1DTcDM7UYvEjw2kkt+YNZfV776yYxEqoI4461oBU7mgrux7Y6bF4UQObKBogpV5Z&#xA;j1+xvreDSZSmo3s8VtBboeUUrylY0V0Ipux69cycuOGXYi3fDNDUZBCuKO5JPMe77A9M8+/l7+b1&#xA;qoW/0ldQ0+I19fRuU6E0PxPCf9I2/wBSmVYtDHHvHn5tWXsXrCXzeVy22nzyNHLGFnUgSIwKSKRt&#xA;RgaEeGXXIOPx6rT87r5hnHkn82fP/k6JbWwvxqOmJsmnaiGlRAOgikUrJH8gePtkhl73Kxds/wA+&#xA;Py/V+17/APlZ+d2l+d7yXSLmybStchi9YW5f1YZo1IDNFJRDVSd0Za08d6Wggu2waiGUXEvONT/5&#xA;xp80XPnHUl0+8tLDyzNO1xa3T8pJkSYl2hWBeIrGxIBLAUp3yJgCbcfN2fjyZOOV+56P5R/5x9/L&#xA;3QGjubu2bXdRSh+tajSRAw7pAAIl36VUkeOSApyseKMBURT0pEREVEUKigKqqKAAbAADC2JJ558s&#xA;w+Z/KGraDLQfX7d44nPRJh8cL/7CVVb6MVfDz/XESjR8biFjHcwNUMHQlXXfuGGYxiAaLymbBCGW&#xA;UJbDofuTxPP+rppos0ryAMSy+m4mAA6cq8enfMQ9nwMuL+xr/JS748PfxCv1/Ygf0bqZ046ilpI9&#xA;mhIkkWh40G5415EDuQMu8SPFw3u1QxiUiOID37X+PND2az313DaWUfO4mIC+oGRAD3Ymm3y3yU6g&#xA;CZcg3DSiO+QiMfIgk+6r+17f+VPlm31L8x7UCFBZeVLUXVw0aBVa/ul9OEMPFYw8g360yns4EgzN&#xA;+o7e52/ZOACJnX1Hb3B9EZsnbpH5l8i+T/M0fDXtItr804rNIgEyj/ImXjIv+xbFXlPmP/nFvRpe&#xA;cvlnWLjTXNSLS8H1uCp7K1UlX5lmyJgC4mbQ4snMb+WyZflT+Q915Q8xnzBq2qx393FDJBaW9vE0&#xA;caerTm7M7Ek8RQCmMYgMtNpYYQRHq9gyTkuxV2KuxV8ifnn5Y/w/+Zd+0ScLLW1GpW1OnqOStwvh&#xA;X1QX/wBllOUdXSdsYdhP4fqYHlLoUxg1/U4dMfTY5aWslQRTcK32lB8DlJwQMuIjdFICOeSCRZ42&#xA;KyREOjDqCu4OWmN7MhEyNDq+rvyE0GfT/IcWrXq/7kvMcrapcmlCI5QBbqPYQqpA9zmVjgIRERyD&#xA;2uLGIRER0D0fJs3Yq7FXYq7FXYq7FXYq8N/5yYGhXE/lS0u5livvrFxIWBoyWno/vWPXYyLHSvU9&#xA;Mp1EiIEgWXC7RI8CVvnrKXk0+8waNo1jY2s1je/WJpftrVTyWn2wB9kVFKH+GYuDNOUiJCgGINsa&#xA;v/8AeKf/AFG6fLMyHNy9HXjRv+cH3d5dW1Xy/pi2hBtRaQC3K9PTEa8Ke3HMp7BMMVdirsVdirsV&#xA;dirsVUry8trK0nvLqRYbW2jaaeZtlSONSzMfYAVxV8d+fb6/8y3cvna9Zl/SU3pWFo/+6bFQTbJ7&#xA;EhS7eJbNedTx5DAcovN9q6njnwD6Y/e3pnkIXWnR3E10Y5p0EkaKtVUNuOVSCdvlmFl7Q4ZEAXTq&#xA;LLFbq3ktrmW3kp6kLtG9OlVNDTM+MhIAjqyC6bT72OATTW0qQOPhkZGVCD0oxFN8RMXsd0xlRBD3&#xA;7/nG38xHu7J/JGpy8rvTY/V0eVjvJZg0MNT1MBpT/JP+TmZGVh67R6kZocXXq9yyTlOxV2KuxV2K&#xA;uxV2KvLv+cifMEen+RY9LaX0Tr15DYzOK8ltgTLcMKb7pHw/2WQyEiJI5tWfL4cDLuD538z+Yo9T&#xA;MNvaRmKxth+7U7FjSlaDYADYZq9Lpzjsk3IvF2SbKJ07z1e2enratbpM8ShIZSSKKuwDKPtUHgRk&#xA;MmgjKXFaKQ3lUR33mWOS8IkdzJNQjZpKFug+/J6q4Yjwok9KkjSRGjkUOjgqykVBB2IIzRAkGwl5&#xA;TYa5J5X802uv6YTIdIuzLHuB6luGKSISf9+REjOqwSO1uz7JzcOWukvwH25pepWeqaba6lZSCWzv&#xA;YUuLeQftRyqGU/ccynp0TirsVdirsVdirsVfPP8AzlTcM2p+VrX9hIr6b5sWgQfcK/fkMnJ1/ahr&#xA;AfMh4dmM8s9D0+18rt5ZjllSD0hCBcS0X1BJxqw5H4udeg+7NPOWbxtr5/CmDz+OSSKRZI2KSIQy&#xA;OpoQR0IObci9izTW482a/cW7QSXR9NxxfiqKSPmADmPHSY4mwEUksqo0bq4qhBDD2pmVHm24ZcMw&#xA;e4h9B/8AOLHnkXvlyTyheyf6bpYNzp/Lq9nK1WAPf0pWIPsy5lAvZQyCd10JHye7YWbsVdirsVdi&#xA;rsVeM/n3ZKvmHyfqEkYeB2vrCYsKjlNEksQ3239FhmF2gD4Jro4HacOLBL4fe8V886PZ2N1bz2qC&#xA;JbkPyiUUUMlNwO1eXTMLQ5pTiQejygYlcNcJxeJQ6j+8TuR/knNhGurk4I45XGRonkenxU5bmR/T&#xA;jt/tyDkWYfYXxI8fDCI1uW3FgjEGeT6Ymtv4j+pERoUQKWLEdWbqciTbi5J8UiaA9yMubvTF0ZYx&#xA;bFbyNmea5LEhkp9nj/n098rhGXHd+nuTghxZIjvIa8q63qPlbVtK12wHK90tlcxdpYyOM0J2OzoS&#xA;MyIyqTtdNquDUyH8MpH79n3HpGq2Wr6VZ6pYv6lnfQpcW7+KSKGWvvQ75e9Ai8VdirsVdirsVYB+&#xA;eeiyal+XGoXFuvK90Vo9WtPZrNub/fDzH05GcRIEHqxlESBieRfKura3daxcLcz8QOIEUafZVeu3&#xA;WtfHMDFgGMUHiZQMSQeYZf5P8uaa+mR31zEtxNPyKrIOSqoYrTiag1pWua3WaqYnwxNUwYz5k022&#xA;i1rVZ7eNYY7eW3t/TUUB9WD1qgdt67Zn6bKTjjfM39hpz8wrBj8+L71TSPKWpapafWomjiiJKoZC&#xA;w5U6kUB2rtkc2rhjNFwbSDVYZYRJayLSX1PQkXqQeXFqfLfMzEQd+jm6D+84v5oMvkGXfl/pttPd&#xA;3FxKoc2qoIkIqAXr8X0Bc1vaGQxiAOrhF7r/AM4/6u0em6v5RlaraDc+pYgnf6le1ljA8eD81+7N&#xA;ppcviYxJ7LS5vExxl+LesZkOQ7FXYq7FXYqp3FvDc28tvOgkgmRo5UPRkcUYH5g4q+E9R0mXRtW1&#xA;DRZjWXSrqazZvEQuVVv9koBzGyDd5btPFwZj/S3Tzy95wl0u2+qTQ+vbhiYyG4snI1I6EEV3zX6j&#xA;RjIbBouuISXUtXfUdV1G4CmKKeWJjDy5DlHAiA1oPf78ysWHghEc6v73Oz/3GL/O+9NNG833+l2Z&#xA;tEjSaMEmLnWqlt+x3Fd6Zj5tHHIbLgkMdvp5LrUo5JTWV2kndwKVY7HYbbl8zYREY0Pc52D04Zy7&#xA;6j+k/cm2ha1PpF79YjUOjDjLEdgy1r17HwOY+fCMkaLgkPUvyj83Wc35uWH1VZETVbC4sbhZAoq8&#xA;P+lRHYtU0jcZLs/DLHExPe9B2NkuMo9xv5/2PpTNg7p2KuxV2KuxV2Kvl787PJc7fmxctbOkSazZ&#xA;RX686hTLDS2lUEA70RGPzzE1mUY4iRdL2zj9MZdxp5heWdxZ3MltcJwmjNGX8QfkRkITEhY5OgBQ&#xA;sNvKGupSvwCWNSajq8Ssv4DLCRQDm5z+5xf53+6ZD5S0GLVr1zcE/VbcBpFBoWLV4rXqBsa5havU&#xA;eHHbmXBKd2vl/SL/AMyatEbZVtbKC3tY+Hw0kcNK7AjqwDLUnMSepnDFE3vIk/oc7KOHTwH84k/o&#xA;YprOmtp2pz2XLmIyODeKsAy/TQ75scOXjgJOCCyD8trPUrD8z/Kck0Mlv6l9wX1EK8g0Tq1OQ8Dl&#xA;+DJGRNG3b9jS/eEf0f0h9k5lPRuxV2KuxV2KuxV5F/zkLaR2tr5c8zmqrpl81pduATS3voyrFqdQ&#xA;skaZjavF4mIxHNxdbj48Mh5X8t3zx5j1OLUtWluohSE0SOooSFFKn55i6fEYQES8dEJLb/39z/xk&#xA;X/k2uZUuQdhqP7jH/nfeyryXrdtpt5LFdHhBdBQZf5WSvGvseRzX63AckRXMOAUXovma3tbl2DRl&#xA;9Uvrq6uZHagitYSYkO25ZvTAUd98qzaUyHX0xA95/HN2+rwjhuRoQjGPvlzSbU9a+seYDqkSfCkq&#xA;PEjdxFTjyp48d8ysWHhx8B7nUAM78ia2vmX8zfKdnDC0K21zLeTFmqf3FtK21B0rt9PbDoNJ4RJu&#xA;3c9ixPFI+X4+59T5s3oXYq7FXYq7FXYqxb80PLU3mXyBrejW68rue3L2a+NxAwmhFfeSMDFXxfE5&#xA;dPiUo6krIjDiyspoysOxBzEkKLxuownFMxKnYq091OkILu8qoiruS3BVoPpwz2iLcjVRMcOO+6X3&#xA;p9rPle80rT1ubmaL1ZCI4rWMs0ru+wSMBfibMTDqo5JUAa73G02GWSddOvkGO6faG3hHM8pSAGPg&#xA;B0UewzMnKy5Ov1fiz2+kcv1orIOA9k/5xg8uvdeaNW8xSJ/o+m24sbdyOs9wRJJT3SNAP9nmRjFB&#xA;6fsrDw4rPOX3PpPLHZOxV2KuxV2KuxV2KsA8z/kV+XHmLVpNWvbCSC9nYvdPaTPAszE1LSIp48j3&#xA;YAE98aYyhGXMAvnr807PQ/J/5mXVnpFmlvY6f9Ta3sYian9xGx+JizFmNSWavicx9Rj4xw94dV2p&#xA;gOWUByG9nu5KenavpYlbX9XuVutVKkWllGr8LZSP7tOQ+0f2nPXtmoyYJ/3cBUOp7/x3Oo1GoiI+&#xA;Hi+nr/S/Z5MYgi+uXqRl0h9d6c2+FF5H9WbGR4Y33OFyC8aVqFzrUWh6YgvtTupvq1pHFuruf2q9&#xA;kUbsx2AyeL1gFzdDpjnlX8PX8eb7H/LryTZ+TPKVnoVuwlliBlvbkCnrXMnxSyfKuy+CgDMt60AA&#xA;UGS4pdirsVdirsVdirsVS7zH5h0ry7od5rWqzCCwsYzLM/c9lVRtVmYhVHcnFXxX5u8xXPm3zZf+&#xA;Z72BYJr1lEFuu/pQxqEjUn9puCjkfHKMk72ec7S13GeCJ9I+39iXAEkACpOwAyp1Kc6h5Vv7K2tz&#xA;I6SX126xWumxcnnlkcgBI1UHk1Tv298x8OoGSXDEH39G/TaaeaVRG3f3Por8lfyfXyhaHWdaVJfN&#xA;F4nF+PxJaQtQ+hGehY/tuOvQbbnZxFPWYMEcUeGL1PC3OxV2KuxV2KuxV2KuxV8yf85Ied5NX8yx&#xA;eU7SSumaNxm1ADpJeutVQ+Iijb/gmPhleSVB1naep8OHCPql9zy/UtLudPaFZyhM8SzJwYMOLfL/&#xA;AGsw8eUTuujzAKjppvJtZsLLTYhc6rczxx2VtUDnKzDgGLEACvUnLhj4tujm6XQzznbaPe+r/wAt&#xA;fypi8uP+nNclTUvNdwnGS5A/c2qNuYLVT9lR0Ln4m9umW4cMcceGL1GHDHHHhiNnoWWtrsVdirsV&#xA;dirsVdirsVUb26is7Oe7lr6VvG8slNzxRSx/AYq+RJY4rvyXcatqNDf6pLJqcspA5G4upOYp/sSF&#xA;+WaKWaUtUQOXL5fteS7Uy8Wc+W36/wBLBoEvtQvVsNNT1rpvtEkcUFK71I7DNjIxhHilsE49PGER&#xA;ky/SeQ6y/Z5s6/Ijy76/5taUjxEvp63N7dtIPi5RRmFa16UlmXL8UuLfo7fszKchlI7RFADoH2Bl&#xA;rtXYq7FXYq7FXYq7FXYq7FUk88KzeSvMCqCWOm3gAG5JMD4q+MfLFlqfmjVvL/leK6kBv3igjZiX&#xA;EEKpWWRV2FUjUmmY0MUeImnn9Noxk1E5S+mMj96f/mb5e0/yp+Yl9puhqbS0soLKODiaSchbKXkZ&#xA;hSrOWqx7nJZwCKLPtvfg+P6Gf/8AOLWl+tr/AJj1p6sbeC3so3NesztNKK/88o65PENnL7Kx8OEe&#xA;ZP6v0PovLHZOxV2KuxV2KuxV2KuxV2Kqd1bxXNtLbTDlFOjRyDxVxxP4HFXyD+RGnvp/562mlXqk&#xA;XWkrfWZ2qPWhiljYivSqhsADDHiELr+I2mH53i2b83tUFyzJbn6mJWQVYL9WjrTKNRdbc3Sdt/w/&#xA;H9D13/nG/SYrTyFcX8Y/d6tqV1cQMftejEwto6/8iCfpy3GDwi+dO40+Pgxxj3APVcm3OxV2KuxV&#xA;2KuxV2KuxV2KuxV85fm1o7eQ/wA5/L35jQJx0fULmOPU5FG0UpQwzE/8ZLdiw8SGxSGHf85Bfufz&#xA;U1u42ZJLSzlj4mtVEHH9a5VMWQ6jtLHx5Mce8n9D6c/LrRBofkTQNKK8ZLWxgWYf8WsgaU/TIzZa&#xA;7ZkWKuxV2KuxV2KuxV2KuxV2KuxVJ/N/lTSfNfl290HVU52l4nHmKc43G6SIT0ZG3H9MVfIuueWv&#xA;M/8AyszT/KPmSRJ7uOXTNJS5XpcWfq8IpDuT/cfarvtvvkSNw4uWF5oHuEj9w/S+0sk5TsVdirsV&#xA;dirsVdirsVdirsVdirsVfNd01pqv/OV8RRgUt7xIia7F7TTGc9O4kBXA0kjxAOoiftI/U+lMLc7F&#xA;XYq7FXYq7FXYq7FXYq7FXYqp3MwgtpZiOQiRn49K8RWmKvi78t9Rvrr8zfLeqSytJqGoastxcOBU&#xA;u10zGc/Li7ZWD6nV4Mhlq59wjX3PtXLHaOxV2KuxV2KuxV2KuxV2KuxV2KqdxCJ7eWEmglRkJHbk&#xA;KYq+Tv8AnHjy5d3f5mWnrwMg8twTyXyupHp3HE2yRsegbk7ED/JyIG5Lh6fTmOWcj/Edn1rknMdi&#xA;rsVdirsVdir/AP/Z</xmpGImg:image>
               </rdf:li>
            </rdf:Alt>
         </xmp:Thumbnails>
      </rdf:Description>
      <rdf:Description rdf:about=""
            xmlns:xmpMM="http://ns.adobe.com/xap/1.0/mm/"
            xmlns:stRef="http://ns.adobe.com/xap/1.0/sType/ResourceRef#"
            xmlns:stEvt="http://ns.adobe.com/xap/1.0/sType/ResourceEvent#">
         <xmpMM:InstanceID>xmp.iid:FC7F117407206811822A9DD448A483FF</xmpMM:InstanceID>
         <xmpMM:DocumentID>xmp.did:FC7F117407206811822A9DD448A483FF</xmpMM:DocumentID>
         <xmpMM:OriginalDocumentID>uuid:5D20892493BFDB11914A8590D31508C8</xmpMM:OriginalDocumentID>
         <xmpMM:RenditionClass>proof:pdf</xmpMM:RenditionClass>
         <xmpMM:DerivedFrom rdf:parseType="Resource">
            <stRef:instanceID>uuid:ba5dc92b-6d0a-484a-ab90-b9370a4a0965</stRef:instanceID>
            <stRef:documentID>xmp.did:0980117407206811822A897E387FE54C</stRef:documentID>
            <stRef:originalDocumentID>uuid:5D20892493BFDB11914A8590D31508C8</stRef:originalDocumentID>
            <stRef:renditionClass>proof:pdf</stRef:renditionClass>
         </xmpMM:DerivedFrom>
         <xmpMM:History>
            <rdf:Seq>
               <rdf:li rdf:parseType="Resource">
                  <stEvt:action>saved</stEvt:action>
                  <stEvt:instanceID>xmp.iid:FC7F117407206811822A9DD448A483FF</stEvt:instanceID>
                  <stEvt:when>2018-09-05T11:34:21-03:00</stEvt:when>
                  <stEvt:softwareAgent>Adobe Illustrator CS6 (Macintosh)</stEvt:softwareAgent>
                  <stEvt:changed>/</stEvt:changed>
               </rdf:li>
            </rdf:Seq>
         </xmpMM:History>
      </rdf:Description>
      <rdf:Description rdf:about=""
            xmlns:illustrator="http://ns.adobe.com/illustrator/1.0/">
         <illustrator:StartupProfile>Print</illustrator:StartupProfile>
      </rdf:Description>
      <rdf:Description rdf:about=""
            xmlns:xmpTPg="http://ns.adobe.com/xap/1.0/t/pg/"
            xmlns:stDim="http://ns.adobe.com/xap/1.0/sType/Dimensions#"
            xmlns:xmpG="http://ns.adobe.com/xap/1.0/g/">
         <xmpTPg:HasVisibleOverprint>False</xmpTPg:HasVisibleOverprint>
         <xmpTPg:HasVisibleTransparency>False</xmpTPg:HasVisibleTransparency>
         <xmpTPg:NPages>1</xmpTPg:NPages>
         <xmpTPg:MaxPageSize rdf:parseType="Resource">
            <stDim:w>21.000131</stDim:w>
            <stDim:h>29.700013</stDim:h>
            <stDim:unit>Centimeters</stDim:unit>
         </xmpTPg:MaxPageSize>
         <xmpTPg:PlateNames>
            <rdf:Seq>
               <rdf:li>Cyan</rdf:li>
               <rdf:li>Magenta</rdf:li>
               <rdf:li>Yellow</rdf:li>
               <rdf:li>Black</rdf:li>
            </rdf:Seq>
         </xmpTPg:PlateNames>
         <xmpTPg:SwatchGroups>
            <rdf:Seq>
               <rdf:li rdf:parseType="Resource">
                  <xmpG:groupName>Default Swatch Group</xmpG:groupName>
                  <xmpG:groupType>0</xmpG:groupType>
               </rdf:li>
            </rdf:Seq>
         </xmpTPg:SwatchGroups>
      </rdf:Description>
      <rdf:Description rdf:about=""
            xmlns:pdf="http://ns.adobe.com/pdf/1.3/">
         <pdf:Producer>Adobe PDF library 10.01</pdf:Producer>
      </rdf:Description>
   </rdf:RDF>
</x:xmpmeta>
                                                                                                    
                                                                                                    
                                                                                                    
                                                                                                    
                                                                                                    
                                                                                                    
                                                                                                    
                                                                                                    
                                                                                                    
                                                                                                    
                                                                                                    
                                                                                                    
                                                                                                    
                                                                                                    
                                                                                                    
                                                                                                    
                                                                                                    
                                                                                                    
                                                                                                    
                                                                                                    
                           
<?xpacket end="w"?>
	</metadata>
<g>
	<path fill="none" d="M-60.736-67.574c-0.272-0.659-0.556-1.396-0.825-2.188C-61.353-69.051-61.081-68.321-60.736-67.574z"/>
	<path fill="none" d="M11.157-99.197v-0.85c-0.911,0.807-1.848,1.512-2.81,2.1c-0.082,0.191-0.223,0.358-0.426,0.454
		c-0.022,0.011-2.342,1.148-2.213,3.218c0.069,1.095,0.083,2.627,0.076,4.085h5.665c0.317-0.499,0.658-0.945,1.009-1.362
		c-0.083-0.306-0.131-0.531-0.148-0.616c-0.053-0.26,0.016-0.53,0.184-0.735c0.168-0.205,0.42-0.323,0.686-0.323h1.15
		C12.417-94.524,11.157-96.716,11.157-99.197z"/>
	<path fill="none" d="M-0.45,113.057c-0.37-10.089-0.034-18.56,0.148-22.047c-1.758,1.574-3.237,3.225-4.444,4.946
		c-3.293,8.399-1.683,16.477,0.276,21.802c1.406,3.825,3.178,6.809,4.265,8.456C-0.182,122.516-0.263,118.159-0.45,113.057z"/>
	<path fill="#086632" d="M57.66-73.867c-0.01-0.002-0.021-0.006-0.031-0.009l-23.834-7.611c-0.79,2.677-3.263,4.633-6.195,4.633
		c-0.255,0-0.505-0.019-0.753-0.047l0.771,0.39l28.331,9.566c0.468,0.1,5.356,1.073,6.072-1.791
		C62.923-72.345,57.874-73.806,57.66-73.867z"/>
	<path fill="#086632" d="M-12.787-109.392c0,1.032-0.253,2.002-0.684,2.867c0.288,0.43,0.573,0.863,0.883,1.276
		c0.563,0.75,1.154,1.447,1.761,2.099c0.675,0.239,1.818,0.426,3.221-0.567c0.236-0.167,0.476-0.34,0.721-0.516
		c1.571-1.133,3.289-2.354,5.125-2.894c-6.294-1.196-11.07-6.732-11.07-13.37c0-7.508,6.108-13.616,13.616-13.616
		c7.509,0,13.617,6.108,13.617,13.616c0,0.011-0.001,0.021-0.001,0.032c1.139-0.754,2.502-1.196,3.968-1.196
		c0.157,0,0.311,0.014,0.466,0.023c-0.026-0.714-0.093-1.417-0.198-2.109c-2.684-0.785-4.655-3.247-4.656-6.185
		c0-1.01,0.245-1.959,0.658-2.811c-3.405-4.133-8.561-6.773-14.321-6.773c-2.309,0-4.511,0.443-6.552,1.217
		c-0.165,0.191-0.399,0.316-0.66,0.316c-0.043,0-0.085-0.006-0.128-0.012c-6.586,2.851-11.209,9.408-11.209,17.03
		c0,1.723,0.256,3.531,0.706,5.348C-14.794-114.861-12.787-112.363-12.787-109.392z"/>
	<path fill="#086632" d="M24.429-88.942l-1.748-2.513h-8.34c0.265,0.781,0.681,1.729,1.232,2.324v-0.78
		c0-0.489,0.396-0.885,0.885-0.885c0.49,0,0.888,0.396,0.888,0.885v8.173c0.099,0.039,0.185,0.096,0.263,0.165l5.277,2.669
		c-1.082-1.155-1.749-2.704-1.749-4.411C21.137-85.73,22.466-87.833,24.429-88.942z"/>
	<path fill="#086632" d="M34.061-83.315c0,0.018-0.002,0.035-0.002,0.052l10.199,3.257l-10.682-5.745
		C33.883-84.999,34.061-84.179,34.061-83.315z"/>
	<path fill="#086632" d="M20.95-77.898v3.056c-0.001,0.489-0.396,0.886-0.886,0.886h-3.038c-0.489,0-0.886-0.396-0.886-0.886v-5.488
		l-0.08-0.041c-0.299-0.151-0.486-0.457-0.486-0.791v-5.843c-0.025-0.009-0.053-0.018-0.077-0.029
		c-1.068-0.468-1.811-1.518-2.311-2.55c-0.162,0.236-0.325,0.471-0.478,0.729c-0.148,0.253-0.413,0.408-0.703,0.428
		c-0.568,2.531-2.218,4.705-4.509,6.167c1.473,0.397,2.564,1.73,2.564,3.33c0,1.911-1.552,3.461-3.461,3.461
		c-1.912,0-3.463-1.55-3.463-3.461c0-0.625,0.179-1.202,0.468-1.708c-0.979,0.229-2.003,0.355-3.06,0.355
		c-5.615,0-10.403-3.454-11.459-8.136h-0.044c-0.312,0-0.604-0.166-0.763-0.436c-1.377-2.334-3.102-3.678-5.124-3.991
		c-4.066-0.628-8.142,2.964-8.183,3c-0.066,0.06-0.142,0.108-0.223,0.146l-2.16,0.989c0.053,0.33,0.085,0.667,0.085,1.012
		c0,3.569-2.894,6.461-6.462,6.461c-1.979,0-3.739-0.899-4.925-2.3l-12.474,5.711l0.294,3.814c0.038,0.488-0.328,0.913-0.815,0.951
		c-0.023,0.002-0.048,0.003-0.069,0.003c-0.458,0-0.847-0.354-0.883-0.818L-53-78.308c0-0.007,0.003-0.013,0.003-0.02
		c-0.006-0.123,0.01-0.245,0.053-0.358c0.001-0.002,0-0.005,0.001-0.007l2.224-5.782c-2.469-0.033-4.59-1.454-5.649-3.516
		l-3.483,6.619c-0.021,0.04-0.045,0.078-0.072,0.114c-0.177,0.242-3.549,4.989-1.637,11.498c0.269,0.792,0.553,1.528,0.825,2.188
		c0.313,0.678,0.68,1.369,1.123,2.073l11.187-4.6c-0.076-0.395-0.129-0.797-0.129-1.214c0-3.569,2.893-6.461,6.461-6.461
		c2.236,0,4.199,1.142,5.359,2.868l12.854-5.286c0.504-0.291,3.387-1.789,6.319,0.043c0.415,0.259,0.541,0.806,0.28,1.221
		c-0.259,0.415-0.806,0.541-1.221,0.281c-2.23-1.395-4.492-0.014-4.514,0c-0.042,0.026-0.086,0.049-0.133,0.068l-3.497,1.438
		l9.497,25.83c0.163,0.335,1.018,2.168,1.369,4.359c1.222,0.238,2.146,1.312,2.146,2.604c0,1.466-1.188,2.654-2.655,2.654
		c-0.055,0-0.105-0.013-0.16-0.017c-0.333,0.597-0.774,1.317-1.287,2.154c-0.474,0.772-1.006,1.643-1.567,2.596
		c1.027,1.449,1.636,3.214,1.636,5.126c0,4.536-3.4,8.275-7.792,8.813c-1.164,4.156-1.846,8.826-1.538,13.922
		c0.418-0.08,0.846-0.132,1.288-0.132c3.823,0,6.923,3.1,6.923,6.923c0,3.267-2.266,6-5.309,6.727
		c2.268,7.662,4.385,15.348,6.139,21.934c0.438-0.102,0.894-0.16,1.363-0.16c3.313,0,6,2.686,6,6c0,2.74-1.836,5.047-4.343,5.766
		c1.02,4.013,1.641,6.562,1.709,6.844c0.06,0.195,0.647,2.035,1.849,3.758c1.588,2.277,3.472,3.301,5.602,3.045
		c3.637-0.436,4.846-2.795,5.143-6.326c-0.034-4.625-0.065-9.692-0.086-14.674c-0.494-0.377-0.817-0.965-0.817-1.634
		c0-0.664,0.318-1.248,0.805-1.625c-0.015-4.607-0.02-9.032-0.005-12.846c-1.03,0.608-2.228,0.963-3.51,0.963
		c-3.822,0-6.923-3.1-6.923-6.924c0-3.824,3.101-6.924,6.923-6.924c1.385,0,2.671,0.411,3.753,1.111
		c0.32-2.917,1.81-5.771,4.355-8.276c1.986-1.956,3.897-3.016,3.979-3.06c0.43-0.235,0.969-0.077,1.202,0.351
		c0.236,0.43,0.078,0.968-0.35,1.203C8.58-6.999,1.659-3.095,1.22,3.278c-0.018,0.254-0.034,0.58-0.048,0.956
		c0.938,1.182,1.503,2.674,1.503,4.3c0,1.701-0.616,3.257-1.634,4.462c-0.02,4.023-0.017,8.881-0.001,13.979
		c0.887,0.23,1.546,1.03,1.546,1.991c0,0.954-0.651,1.75-1.531,1.984c0.017,3.964,0.041,7.975,0.066,11.768
		c0.06,0.119,0.101,0.248,0.101,0.39c0,0.687-0.004,1.543-0.081,2.462c0.049,6.758,0.102,12.533,0.132,15.635
		c1.751-1.928,3.48-3.692,5.087-5.267c-0.788-1.016-1.262-2.287-1.262-3.671c0-3.314,2.686-6,6-6c1.436,0,2.753,0.506,3.787,1.348
		c0.336-0.383,0.663-0.772,0.983-1.163c0.167-0.906,0.667-3.602,1.426-7.549c-3.229-1.331-5.505-4.507-5.505-8.215
		c0-4.908,3.979-8.884,8.886-8.885c0.002,0,0.005,0,0.007,0c1.33-6.516,2.861-13.793,4.503-21.183
		c4.425-19.905-3.68-31.659-7.572-37.309c-0.298-0.433-0.57-0.827-0.81-1.186c-3.562-5.343-0.613-14.507-0.485-14.894
		c0.004-0.013,0.009-0.026,0.013-0.038l1.597-4.202c-1.885-1.237-3.139-3.357-3.139-5.78c0-0.19,0.014-0.377,0.028-0.563
		c-1.169,0.888-2.685,1.725-4.497,2.032c-0.486,0.082-0.972,0.123-1.457,0.123c-2.106,0-4.221-0.771-6.303-2.302
		c-0.315-0.232-0.385-0.675-0.151-0.991c0.231-0.314,0.675-0.382,0.99-0.15c2.237,1.646,4.481,2.293,6.673,1.925
		c2.539-0.426,4.468-2.126,5.477-3.217c1.146-2.242,3.473-3.779,6.164-3.778c0.344,0,0.68,0.034,1.01,0.083l2.313-6.086
		c0.013-0.034,0.039-0.057,0.056-0.088L20.95-77.898z M-8.286-76.391c2.612,0,4.731,2.117,4.731,4.73
		c0,2.614-2.119,4.731-4.731,4.731s-4.73-2.117-4.73-4.731C-13.017-74.273-10.899-76.391-8.286-76.391z M-17.552-66.073
		c-0.221-0.323-0.139-0.764,0.184-0.985c0.323-0.222,0.765-0.14,0.985,0.183c0.036,0.052,2.479,3.523,6.261,4.158
		c2.19,0.369,4.437-0.279,6.673-1.925c0.315-0.231,0.76-0.164,0.991,0.151c0.232,0.315,0.165,0.759-0.151,0.99
		c-2.08,1.531-4.194,2.303-6.303,2.303c-0.485,0-0.972-0.041-1.457-0.123C-14.758-62.065-17.439-65.91-17.552-66.073z
		 M-2.171-30.697c0,2.803-2.272,5.076-5.077,5.076c-2.804,0-5.077-2.273-5.077-5.076c0-2.804,2.273-5.077,5.077-5.077
		C-4.444-35.774-2.171-33.501-2.171-30.697z M-12.326-14.89c0-2.359,1.912-4.27,4.271-4.27c2.357,0,4.27,1.911,4.27,4.27
		c0,2.358-1.912,4.269-4.27,4.269C-10.414-10.621-12.325-12.532-12.326-14.89z M-2.117-1.253c-0.173,0.205-0.421,0.31-0.671,0.31
		c-0.204,0-0.408-0.07-0.577-0.214l-5.046-4.325C-8.783-5.801-8.826-6.36-8.508-6.731c0.318-0.372,0.877-0.415,1.249-0.097
		l5.046,4.326C-1.841-2.184-1.798-1.625-2.117-1.253z M-0.324-41.083c-1.529,0-2.77-1.239-2.77-2.769s1.24-2.769,2.77-2.769
		s2.77,1.239,2.77,2.769S1.205-41.083-0.324-41.083z M21.149-8.156c1.137,0,2.062,0.924,2.062,2.063
		c0,1.138-0.924,2.062-2.062,2.062c-1.141,0-2.064-0.924-2.063-2.062C19.086-7.232,20.009-8.156,21.149-8.156z M17.907,10.149
		c0,2.295-1.86,4.154-4.154,4.154c-2.295,0-4.153-1.859-4.153-4.154c0-2.293,1.858-4.154,4.153-4.154
		C16.047,5.995,17.907,7.856,17.907,10.149z M10.521-31.159c3.825,0,6.925,3.099,6.925,6.923c0,3.824-3.101,6.923-6.925,6.923
		c-3.822,0-6.922-3.099-6.922-6.923C3.599-28.06,6.698-31.159,10.521-31.159z M4.866-60.006c0,1.465-1.187,2.654-2.652,2.654
		c-1.467,0-2.654-1.188-2.654-2.654c0-1.466,1.188-2.654,2.654-2.654C3.678-62.66,4.866-61.472,4.866-60.006z"/>
	<path fill="#086632" d="M26.916,1.004c-1.625,7.312-3.141,14.516-4.46,20.978c4.054,0.825,7.106,4.409,7.106,8.707
		c0,4.122-2.814,7.58-6.622,8.583c-1.285,2.222-3.144,5.151-5.453,8.009c-0.07,0.172-0.185,0.311-0.334,0.407
		c-0.346,0.419-0.7,0.834-1.065,1.245c0.639,0.954,1.013,2.1,1.013,3.334c0,3.312-2.688,6-6,6c-1.289,0-2.48-0.41-3.458-1.102
		c-2.006,1.965-4.205,4.224-6.393,6.731C1.174,64.151,1,64.362,0.76,64.464c-3.983,4.638-7.867,10.08-10.402,16.033
		c2.44,0.761,4.214,3.03,4.214,5.72c0,3.314-2.687,6-6,6c-0.367,0-0.721-0.044-1.069-0.107c-0.372,5.922,0.301,11.427,2.044,16.758
		c-0.002-0.075-0.008-0.147-0.01-0.224c-0.08-3.613,0.712-8.44,4.1-13.432c0.038-0.096,0.071-0.194,0.11-0.29
		c0.079-0.193,0.226-0.332,0.395-0.426c1.381-1.899,3.137-3.813,5.387-5.688c1.886-1.572,4.076-3.32,6.395-5.172
		c3.319-2.649,6.973-5.567,10.632-8.675c-0.386-0.792-0.611-1.677-0.611-2.618c0-3.314,2.686-6,6-6.001
		c1.159,0,2.233,0.344,3.149,0.915c6.455-6.27,12.02-12.989,14.547-19.659c3.761-9.929,4.536-20.257,2.308-31.159
		c-0.317,0.034-0.639,0.054-0.965,0.054c-4.906,0-8.885-3.979-8.885-8.885c0-3.265,1.774-6.1,4.399-7.643
		c-1.892-4.199-4.18-8.484-6.877-12.868c-0.019-0.031-0.036-0.063-0.051-0.096l-1.742-3.814C28.527-11.75,28.437-5.841,26.916,1.004
		z M-1.116,80.969c-1.14,0-2.062-0.923-2.062-2.063c0-1.138,0.923-2.062,2.062-2.062s2.063,0.924,2.062,2.062
		C0.946,80.045,0.023,80.969-1.116,80.969z M26.773,59.902c-1.139,0-2.062-0.924-2.062-2.062c0-1.138,0.923-2.062,2.062-2.062
		c1.138,0,2.062,0.924,2.062,2.062C28.836,58.978,27.911,59.902,26.773,59.902z M39.368,28.728c1.974,0,3.578,1.601,3.578,3.576
		c0,1.976-1.604,3.578-3.578,3.578c-1.974,0-3.576-1.602-3.576-3.578C35.792,30.33,37.394,28.728,39.368,28.728z"/>
	<path fill="#086632" d="M-8.369,104.479c-0.235,1.319-0.347,2.667-0.321,4.045c0.095,5.174,2.094,8.855,2.113,8.893
		c0.048,0.086,0.069,0.18,0.086,0.272c0.106,0.183,0.203,0.367,0.312,0.55C-7.877,113.576-8.604,108.936-8.369,104.479z"/>
	<path fill="#086632" d="M-46.373-95.779l5.358-13.931c0.103-0.266,0.327-0.467,0.604-0.539l7.84-2.044
		c0.475-0.124,0.958,0.16,1.08,0.633c0.124,0.473-0.16,0.957-0.634,1.081l-1.186,0.309c0.389,0.257,0.842,0.551,1.307,0.846
		l2.8-3.92l-3.391-6.382l-10.333,6.193l-8.531,16.212c0.271-0.035,0.544-0.071,0.825-0.071
		C-48.999-97.392-47.51-96.78-46.373-95.779z"/>
	<path fill="#086632" d="M7.03,85.022c-1.956,1.561-3.805,3.041-5.465,4.405c-0.011,0.146-0.727,10.483-0.245,23.566
		c0.55,14.973,0.222,23.518-1.062,27.707c-0.391,1.275-0.744,2.193-1.058,3.002c-0.761,1.971-1.181,3.057-1.028,6.887
		c0.04,1.002,0.062,1.957,0.083,2.801c0.073,3.086,0.138,5.75,1.012,5.939c0.137,0.03,0.254,0.096,0.357,0.178
		c0.115-0.061,0.241-0.104,0.38-0.109c0.896-0.031,1.434-2.643,2.059-5.666c0.171-0.824,0.363-1.762,0.582-2.738
		c0.836-3.742,0.617-4.887,0.221-6.961c-0.164-0.852-0.348-1.818-0.504-3.143c-0.514-4.352,0.69-12.818,3.91-27.449
		c0.355-1.614,0.732-3.378,1.122-5.229c-0.158,0.039-0.323,0.063-0.494,0.063c-1.14,0-2.062-0.923-2.062-2.062
		c0-1.14,0.922-2.062,2.062-2.062c0.471,0,0.902,0.163,1.249,0.43c1.935-9.386,3.971-19.874,4.832-24.343
		C10.928,81.91,8.925,83.509,7.03,85.022z M5.774,92.15c-1.14,0-2.062-0.924-2.062-2.062c0-1.138,0.922-2.062,2.062-2.062
		c1.139,0,2.062,0.924,2.062,2.062C7.837,91.226,6.913,92.15,5.774,92.15z"/>
	<polygon fill="#086632" points="22.557,-93.226 22.422,-93.235 22.409,-93.226 	"/>
	<path fill="#086632" d="M26.2-89.718c-0.033-0.017-0.122-0.061-0.232-0.116l0.161,0.231c0.066-0.016,0.13-0.035,0.197-0.048
		L26.2-89.718z"/>
	<polygon fill="#086632" points="53.082,-77.188 53.04,-77.21 53.045,-77.2 	"/>
	<polygon fill="#086632" points="19.178,-75.727 19.178,-78.793 17.912,-79.434 17.912,-75.727 	"/>
	<path fill="#086632" d="M19.003,39.411c-0.285,1.483-0.533,2.786-0.738,3.876c0.92-1.31,1.733-2.573,2.425-3.714
		c-0.004,0-0.009,0-0.014,0C20.103,39.573,19.545,39.514,19.003,39.411z"/>
	<path fill="#086632" d="M2.63-107.02c1.7,0.587,3.293,1.729,4.76,2.787c0.244,0.176,0.482,0.349,0.721,0.516
		c1.286,0.913,2.356,0.828,3.047,0.624v-8.601C9.035-109.198,6.031-107.483,2.63-107.02z"/>
	<path fill="#086632" d="M-6.212-130.033c2.042-1.419,4.518-2.256,7.192-2.256c0.798,0,1.576,0.083,2.333,0.224
		c-0.815-0.178-1.66-0.278-2.528-0.278C-1.833-132.343-4.248-131.478-6.212-130.033z"/>
	<path fill="#C9CACC" d="M23.734-99.024v-13.503c-0.353,2.561-2.533,4.546-5.189,4.546c-2.659,0-4.841-1.99-5.189-4.556v13.513
		c0,2.862,2.328,5.19,5.189,5.19S23.734-96.162,23.734-99.024z"/>
	<path fill="#C9CACC" d="M13.355-114.335v0.389c0.349-2.565,2.53-4.556,5.189-4.556c2.655,0,4.837,1.986,5.189,4.547v-0.38
		c0.001-2.862-2.328-5.19-5.189-5.19S13.355-117.197,13.355-114.335z"/>
	<path fill="#656668" d="M15.056-113.241c0,1.924,1.563,3.489,3.488,3.489s3.488-1.565,3.488-3.489
		c-0.001-1.924-1.563-3.489-3.488-3.489S15.056-115.165,15.056-113.241z M16.789-113.193c-0.5,0-0.906-0.406-0.906-0.906
		c0-0.501,0.406-0.906,0.906-0.906s0.907,0.405,0.907,0.906S17.29-113.193,16.789-113.193z M19.075-115.27
		c0,0.276-0.223,0.5-0.498,0.5c-0.277,0-0.5-0.223-0.5-0.5c0-0.276,0.223-0.499,0.5-0.499
		C18.853-115.769,19.075-115.545,19.075-115.27z"/>
	<circle fill="#FFFFFF" cx="16.789" cy="-114.099" r="0.906"/>
	<circle fill="#FFFFFF" cx="18.576" cy="-115.27" r="0.499"/>
	<path fill="#FFFFFF" d="M-6.212-130.033c-2.932,2.158-4.847,5.623-4.847,9.536c0,6.53,5.313,11.845,11.845,11.845
		s11.846-5.314,11.846-11.845c0-5.664-3.997-10.406-9.318-11.568c-0.757-0.142-1.535-0.224-2.333-0.224
		C-1.695-132.289-4.171-131.452-6.212-130.033z M8.23-120.497c0,4.104-3.34,7.443-7.444,7.443c-4.104,0-7.444-3.339-7.444-7.443
		c0-0.978,0.194-1.91,0.539-2.767c0.458,0.351,1.024,0.568,1.645,0.568c1.501,0,2.723-1.223,2.724-2.724
		c0-0.684-0.262-1.302-0.68-1.781c0.364-0.175,0.741-0.324,1.134-0.439c0.059,0.797,0.719,1.43,1.532,1.43
		c0.851,0,1.544-0.692,1.544-1.543c0-0.04-0.009-0.078-0.012-0.117C5.408-127.387,8.23-124.27,8.23-120.497z"/>
	<circle fill="#72BF44" cx="-7.248" cy="-30.697" r="5.077"/>
	<circle fill="#72BF44" cx="-0.324" cy="-43.852" r="2.769"/>
	<circle fill="#72BF44" cx="10.521" cy="-24.236" r="6.923"/>
	<path fill="#72BF44" d="M-18.786-2.312c0-3.823-3.1-6.923-6.923-6.923c-0.441,0-0.869,0.053-1.288,0.132
		c0.186,3.073,0.726,6.297,1.746,9.659c0.389,1.282,0.774,2.57,1.156,3.858C-21.052,3.688-18.786,0.955-18.786-2.312z"/>
	<circle fill="#72BF44" cx="-8.286" cy="-71.661" r="4.73"/>
	<circle fill="#72BF44" cx="2.213" cy="-60.006" r="2.653"/>
	<path fill="#72BF44" d="M-13.635-44.351c0-1.292-0.923-2.366-2.146-2.604c0.271,1.695,0.241,3.604-0.646,5.202
		c-0.006,0.012-0.016,0.027-0.023,0.039c0.054,0.003,0.105,0.017,0.16,0.017C-14.823-41.697-13.635-42.885-13.635-44.351z"/>
	<path fill="#72BF44" d="M-11.171,8.534c0,3.824,3.101,6.924,6.923,6.924c1.282,0,2.479-0.355,3.51-0.963
		c0.02-5.471,0.076-9.682,0.19-11.34c0.01-0.145,0.037-0.29,0.053-0.434c-1.082-0.7-2.369-1.111-3.753-1.111
		C-8.071,1.61-11.171,4.71-11.171,8.534z"/>
	<path fill="#72BF44" d="M1.172,4.234c-0.071,1.785-0.111,4.883-0.131,8.763c1.018-1.206,1.634-2.761,1.634-4.462
		C2.676,6.908,2.111,5.416,1.172,4.234z"/>
	<path fill="#72BF44" d="M15.55-65.933c0.499-0.539,0.776-0.931,0.784-0.942c0.224-0.322,0.664-0.403,0.986-0.182
		c0.322,0.222,0.404,0.662,0.184,0.984c-0.066,0.096-1.023,1.459-2.686,2.721c-0.015,0.187-0.028,0.374-0.028,0.563
		c0,2.423,1.253,4.543,3.139,5.78l4.795-12.62c-0.33-0.049-0.666-0.083-1.01-0.083C19.023-69.711,16.697-68.174,15.55-65.933z"/>
	<path fill="#72BF44" d="M6.599-75.469c1.909,0,3.461-1.55,3.461-3.461c0-1.599-1.091-2.932-2.564-3.33
		c-1.155,0.737-2.473,1.29-3.892,1.622c-0.29,0.506-0.468,1.083-0.468,1.708C3.136-77.019,4.687-75.469,6.599-75.469z"/>
	<path fill="#72BF44" d="M-33.787-81.238c3.568,0,6.462-2.892,6.462-6.461c0-0.345-0.033-0.682-0.085-1.012l-11.301,5.173
		C-37.527-82.137-35.766-81.238-33.787-81.238z"/>
	<path fill="#72BF44" d="M-42.095-77.776c-3.568,0-6.461,2.892-6.461,6.461c0,0.417,0.053,0.819,0.129,1.214l11.691-4.807
		C-37.896-76.634-39.859-77.776-42.095-77.776z"/>
	<path fill="#72BF44" d="M-50.72-84.476l4.347-11.303c-1.138-1.001-2.626-1.613-4.261-1.613c-0.281,0-0.554,0.036-0.825,0.071
		l-4.91,9.329C-55.31-85.93-53.189-84.509-50.72-84.476z"/>
	<path fill="#72BF44" d="M33.575-85.751l-7.25-3.899c-0.066,0.013-0.131,0.032-0.197,0.048l3.405,4.895l4.526,1.445
		c0-0.018,0.002-0.035,0.002-0.052C34.061-84.179,33.883-84.999,33.575-85.751z"/>
	<path fill="#72BF44" d="M33.795-81.487l-5.088-1.625c-0.186-0.059-0.346-0.178-0.458-0.338l-3.82-5.492
		c-1.963,1.109-3.292,3.212-3.292,5.627c0,1.708,0.667,3.256,1.749,4.411l3.96,2.002c0.248,0.029,0.498,0.047,0.753,0.047
		C30.531-76.854,33.005-78.81,33.795-81.487z"/>
	<path fill="#72BF44" d="M-12.787-109.392c0-2.971-2.006-5.469-4.737-6.224c0.771,3.123,2.163,6.268,4.053,9.091
		C-13.04-107.39-12.787-108.36-12.787-109.392z"/>
	<path fill="#72BF44" d="M18.638-123.747c-0.512-3.379-1.917-6.47-3.998-8.995c-0.414,0.852-0.658,1.8-0.658,2.811
		C13.983-126.993,15.954-124.532,18.638-123.747z"/>
	<circle fill="#72BF44" cx="-8.056" cy="-14.89" r="4.27"/>
	<path fill="#72BF44" d="M-17.667-31.838c0-1.912-0.609-3.678-1.636-5.126c-2.074,3.523-4.562,8.247-6.155,13.939
		C-21.068-23.563-17.667-27.302-17.667-31.838z"/>
	<path fill="#72BF44" d="M32.099,7.61c0,4.906,3.979,8.885,8.885,8.885c0.326,0,0.648-0.02,0.965-0.054
		c-1.092-5.346-2.909-10.831-5.451-16.474C33.874,1.51,32.099,4.345,32.099,7.61z"/>
	<path fill="#72BF44" d="M11.79,30.688c0,3.708,2.276,6.885,5.505,8.215c0.844-4.393,2.006-10.33,3.388-17.1
		c-0.002,0-0.005,0-0.007,0C15.769,21.804,11.79,25.78,11.79,30.688z"/>
	<path fill="#72BF44" d="M29.561,30.688c0-4.298-3.052-7.882-7.106-8.707c-1.414,6.925-2.6,12.989-3.453,17.429
		c0.542,0.104,1.101,0.163,1.673,0.163c0.005,0,0.009,0,0.014,0c1.655-2.729,2.617-4.73,2.637-4.773
		c0.209-0.441,0.737-0.631,1.18-0.422c0.441,0.209,0.632,0.738,0.421,1.18c-0.07,0.148-0.774,1.615-1.987,3.713
		C26.747,38.268,29.561,34.81,29.561,30.688z"/>
	<circle fill="#72BF44" cx="39.368" cy="32.305" r="3.577"/>
	<path fill="#72BF44" d="M17.099,52.267c0-1.234-0.374-2.381-1.013-3.334c-0.689,0.778-1.408,1.541-2.16,2.265
		c-0.592,0.57-1.27,1.205-2.055,1.938c-1.226,1.147-2.67,2.5-4.23,4.029c0.978,0.692,2.169,1.102,3.458,1.102
		C14.411,58.267,17.099,55.579,17.099,52.267z"/>
	<path fill="#72BF44" d="M5.099,52.267c0,1.384,0.474,2.656,1.262,3.671c1.586-1.555,3.054-2.93,4.301-4.097
		c0.78-0.73,1.453-1.361,2.036-1.922c0.761-0.732,1.49-1.508,2.188-2.305c-1.033-0.842-2.351-1.348-3.787-1.348
		C7.785,46.267,5.099,48.953,5.099,52.267z"/>
	<path fill="#72BF44" d="M-10.594,32.188c0-3.314-2.687-6-6-6c-0.469,0-0.924,0.058-1.363,0.16c1.201,4.51,2.23,8.498,3.02,11.605
		C-12.43,37.235-10.594,34.928-10.594,32.188z"/>
	<path fill="#72BF44" d="M15.945,72.345c0,0.94,0.225,1.826,0.611,2.618c2.898-2.461,5.798-5.042,8.539-7.704
		c-0.917-0.571-1.99-0.915-3.149-0.915C18.631,66.345,15.945,69.03,15.945,72.345z"/>
	<path fill="#72BF44" d="M-5.428,86.218c0-2.69-1.774-4.959-4.214-5.72c-1.524,3.578-2.564,7.336-2.836,11.216
		c-0.009,0.134-0.01,0.264-0.018,0.397c0.348,0.063,0.702,0.107,1.069,0.107C-8.115,92.218-5.428,89.532-5.428,86.218z"/>
	<circle fill="#72BF44" cx="-1.116" cy="78.906" r="2.063"/>
	<circle fill="#72BF44" cx="26.773" cy="57.84" r="2.062"/>
	<path fill="#72BF44" d="M-1.538,28.967c0,0.669,0.323,1.257,0.817,1.634c-0.005-1.092-0.009-2.181-0.012-3.26
		C-1.22,27.719-1.538,28.303-1.538,28.967z"/>
	<path fill="#72BF44" d="M2.587,28.967c0-0.96-0.659-1.761-1.546-1.991c0.004,1.313,0.009,2.641,0.015,3.975
		C1.935,30.716,2.587,29.92,2.587,28.967z"/>
	<circle fill="#72BF44" cx="21.149" cy="-6.094" r="2.062"/>
	<circle fill="#72BF44" cx="5.774" cy="90.088" r="2.062"/>
	<path fill="#72BF44" d="M4.837,106.213c0,1.139,0.923,2.062,2.062,2.062c0.171,0,0.335-0.024,0.494-0.063
		c0.248-1.18,0.501-2.396,0.755-3.631c-0.347-0.267-0.778-0.43-1.249-0.43C5.759,104.151,4.837,105.073,4.837,106.213z"/>
	<circle fill="#72BF44" cx="13.753" cy="10.149" r="4.154"/>
	<path fill="#F8C1AC" d="M0.544-81.701c4.833,0,8.955-2.831,10.006-6.718H5.766c-0.021,1.388-0.053,2.445-0.056,2.544
		c-0.014,0.481-0.407,0.86-0.886,0.86c-0.008,0-0.018,0-0.027,0c-0.488-0.015-0.873-0.423-0.856-0.912c0-0.056,0.165-5.592,0-8.236
		c-0.047-0.758,0.097-1.421,0.341-2c-1.22,0.337-2.458,0.528-3.708,0.528c-1.516,0-2.999-0.269-4.435-0.748
		c0.377,0.77,0.627,1.657,0.567,2.625c-0.166,2.644,0,8.18,0.001,8.235c0.016,0.489-0.37,0.897-0.858,0.912
		c-0.009,0-0.019,0-0.026,0c-0.477,0-0.871-0.379-0.885-0.859c-0.003-0.108-0.041-1.367-0.062-2.95h-4.337
		C-8.41-84.533-4.282-81.701,0.544-81.701z"/>
	<path fill="#F8C1AC" d="M-6.787-102.562c-0.794,0.563-1.609,0.878-2.439,0.973c3.052,2.693,6.471,4.183,9.801,4.183
		c4.01,0,7.285-2.014,9.627-4.143c-0.994-0.006-1.969-0.343-2.913-1.012c-0.239-0.169-0.481-0.345-0.729-0.523
		c-0.116-0.083-0.235-0.168-0.353-0.253c0.042,0.045,0.097,0.077,0.127,0.133c0.124,0.228,0.113,0.506-0.027,0.723
		c-0.099,0.153-2.451,3.715-5.929,3.715c-2.058,0-4.013-1.238-5.812-3.68c-0.158-0.215-0.184-0.501-0.062-0.739
		c0.121-0.239,0.365-0.39,0.634-0.39H5.712c0.095,0,0.18,0.038,0.264,0.073c-1.629-1.163-3.401-2.314-5.156-2.473
		c-0.058,0.006-0.115,0.019-0.175,0.01c-0.127-0.018-0.256-0.007-0.384-0.012c-0.134,0.005-0.268-0.005-0.401,0.013
		c-0.062,0.009-0.12-0.004-0.179-0.011c-1.966,0.18-3.954,1.604-5.737,2.89C-6.304-102.907-6.548-102.731-6.787-102.562z"/>
	<path fill="#FFFFFF" d="M0.378-100.182c1.619,0,2.994-1.093,3.84-1.975h-7.579C-2.137-100.845-0.883-100.182,0.378-100.182z"/>
	<path fill="#231F20" d="M-7.259-6.828C-7.631-7.146-8.19-7.103-8.508-6.731c-0.318,0.371-0.275,0.93,0.097,1.249l5.046,4.325
		c0.169,0.144,0.373,0.214,0.577,0.214c0.25,0,0.498-0.105,0.671-0.31c0.319-0.372,0.276-0.931-0.096-1.249L-7.259-6.828z"/>
	<path fill="#231F20" d="M-8.912-61.198c2.108,0,4.223-0.771,6.303-2.303c0.316-0.231,0.384-0.675,0.151-0.99
		c-0.231-0.315-0.676-0.382-0.991-0.151c-2.236,1.646-4.482,2.294-6.673,1.925c-3.782-0.635-6.225-4.106-6.261-4.158
		c-0.221-0.323-0.662-0.405-0.985-0.183c-0.322,0.221-0.404,0.662-0.184,0.985c0.113,0.163,2.794,4.008,7.183,4.752
		C-9.884-61.239-9.398-61.198-8.912-61.198z"/>
	<path fill="#231F20" d="M17.504-66.073c0.221-0.322,0.139-0.762-0.184-0.984c-0.322-0.221-0.763-0.14-0.986,0.182
		c-0.008,0.012-0.285,0.404-0.784,0.942c-1.009,1.09-2.938,2.791-5.477,3.217c-2.191,0.368-4.436-0.279-6.673-1.925
		c-0.315-0.232-0.759-0.164-0.99,0.15c-0.233,0.316-0.164,0.759,0.151,0.991c2.082,1.531,4.196,2.302,6.303,2.302
		c0.485,0,0.971-0.041,1.457-0.123c1.812-0.307,3.328-1.144,4.497-2.032C16.48-64.614,17.438-65.978,17.504-66.073z"/>
	<path fill="#231F20" d="M58.152-75.569l-5.07-1.619L53.045-77.2c-0.002-0.003-0.003-0.007-0.005-0.011
		c-0.073-0.092-0.164-0.171-0.273-0.23l-25.74-13.845c-0.009-0.005-0.02-0.011-0.029-0.015c-0.021-0.01-2.106-1.036-3.404-1.802
		c-0.006-0.004-0.014-0.003-0.02-0.007c-0.035-0.02-0.075-0.024-0.112-0.039c-0.088-0.034-0.175-0.06-0.266-0.065
		c-0.018-0.001-0.032-0.012-0.05-0.012h-0.587h-0.147c0.004-0.003,0.008-0.006,0.012-0.009c1.905-1.3,3.159-3.487,3.159-5.962
		v-15.252c0-3.189-2.082-5.897-4.956-6.846c-0.054-3.281-0.884-6.374-2.322-9.104c0.163-0.089,0.301-0.225,0.383-0.407
		c0.132-0.29,3.222-7.127,3.646-8.527c0.627-2.072-0.556-3.594-1.339-4.174c-0.678-0.698-2.349-1.673-4.321-0.769
		c-1.156,0.53-6.107,3.607-7.561,4.515c-0.604-3.073-2.924-14.819-3.611-17.178c-1.071-3.671-3.488-4.358-4.755-4.209
		c-1.267-0.149-3.684,0.538-4.755,4.209c-0.695,2.387-3.062,14.375-3.631,17.281c-0.03,0.013-0.059,0.03-0.089,0.043
		c-1.029-0.643-6.561-4.096-7.793-4.661c-1.964-0.898-3.629,0.063-4.312,0.76c-0.783,0.574-1.982,2.102-1.35,4.183
		c0.424,1.401,3.514,8.238,3.646,8.528c0.013,0.028,0.033,0.049,0.048,0.075c-1.597,2.9-2.509,6.228-2.509,9.766
		c0,8.431,5.195,18.238,12.382,22.778c0.061,0.111,0.14,0.212,0.248,0.292c0.025,0.018,2.445,1.854,2.311,4.026
		c-0.062,0.993-0.08,2.347-0.077,3.678h-5.325c-1.62-2.547-3.673-4.028-6.11-4.406c-4.537-0.704-8.792,2.71-9.528,3.338
		L-50.51-80.084l10.987-28.565l3.994-1.042c0.159,0.155,0.347,0.29,0.515,0.407c0.272,0.192,0.655,0.447,1.134,0.759
		c0.81,0.527,1.635,1.043,1.644,1.048c0.396,0.248,0.918,0.144,1.189-0.237l3.604-5.046c0.195-0.273,0.22-0.634,0.062-0.93
		l-4.085-7.69c-0.114-0.215-0.311-0.373-0.545-0.438c-0.235-0.065-0.485-0.031-0.693,0.094l-11.346,6.801
		c-0.14,0.084-0.253,0.203-0.329,0.347L-61.393-82.25c-0.262,0.373-1.584,2.366-2.2,5.403c-0.616,3.043-0.613,7.758,2.905,12.942
		c0.169,0.249,0.445,0.389,0.732,0.389c0.112,0,0.228-0.021,0.336-0.069l31.333-12.884l9.489,25.81
		c0.012,0.031,0.025,0.061,0.039,0.09c0.024,0.05,2.438,4.974,0.782,7.956c-0.317,0.571-0.759,1.292-1.271,2.127
		c-2.055,3.352-5.494,8.962-7.627,16.051c-2.581,8.575-2.604,17.156-0.071,25.506c6.405,21.117,11.947,43.941,12.002,44.17
		c0.004,0.014,0.008,0.027,0.012,0.041c0.102,0.348,2.464,8.133,8.492,8.133c0.282,0,0.574-0.018,0.873-0.054
		c2.425-0.291,3.973-1.296,4.975-2.602c0.05,6.17,0.097,10.882,0.113,12.425C-7.075,70.837-13.483,80.71-14.246,91.59
		c-0.955,13.618,3.521,25.78,13.682,37.18c0.092,0.102,0.202,0.175,0.321,0.225c-0.125,5.33-0.519,8.988-1.192,11.185
		c-0.373,1.217-0.715,2.102-1.018,2.883c-0.791,2.047-1.312,3.399-1.146,7.596c0.039,0.988,0.061,1.894,0.082,2.773
		c0.103,4.301,0.17,7.143,2.406,7.629c0.063,0.014,0.127,0.02,0.188,0.02c0.148,0,0.285-0.047,0.411-0.115
		c0.151,0.121,0.337,0.203,0.545,0.203c0.01,0,0.021,0,0.031-0.001c2.286-0.078,2.861-2.861,3.73-7.076
		c0.179-0.859,0.361-1.748,0.576-2.713c0.916-4.1,0.644-5.524,0.231-7.678c-0.157-0.823-0.336-1.756-0.484-3.018
		c-0.482-4.092,0.75-12.627,3.882-26.863c2.73-12.412,6.794-33.631,7.121-35.343c10.688-8.853,22.112-19.522,26.175-30.248
		c7.181-18.955,3.864-39.24-10.137-62.012l-5.711-12.503c-0.035-0.076-0.089-0.133-0.141-0.194c-1.968-5.016-4.503-8.7-6.235-11.213
		c-0.292-0.424-0.56-0.811-0.794-1.163c-3.017-4.526-0.421-12.904-0.282-13.342l8.668-22.809l0.21,0.106
		c0.037,0.019,0.076,0.036,0.116,0.049l28.435,9.6c0.026,0.009,0.055,0.017,0.081,0.023c0.116,0.027,1.29,0.294,2.728,0.294
		c2.119,0,4.806-0.581,5.506-3.372C64.794-72.524,60.555-74.897,58.152-75.569z M62.02-68.737c-0.716,2.864-5.604,1.891-6.072,1.791
		l-28.331-9.566l-0.771-0.39l-3.96-2.002l-5.277-2.669c-0.078-0.069-0.164-0.126-0.263-0.165v-8.173
		c0-0.489-0.397-0.885-0.888-0.885c-0.488,0-0.885,0.396-0.885,0.885v0.78c-0.552-0.595-0.968-1.543-1.232-2.324h8.34l1.748,2.513
		l3.82,5.492c0.112,0.16,0.272,0.279,0.458,0.338l5.088,1.625l23.834,7.611c0.011,0.003,0.021,0.007,0.031,0.009
		C57.874-73.806,62.923-72.345,62.02-68.737z M22.724-69.628l-4.795,12.62l-1.597,4.202c-0.004,0.012-0.009,0.025-0.013,0.038
		c-0.128,0.387-3.077,9.551,0.485,14.894c0.239,0.359,0.512,0.753,0.81,1.186c3.893,5.65,11.997,17.404,7.572,37.309
		c-1.643,7.39-3.174,14.667-4.503,21.183c-1.382,6.771-2.544,12.708-3.388,17.1c-0.758,3.947-1.259,6.643-1.426,7.549
		c-0.32,0.391-0.647,0.78-0.983,1.163c-0.698,0.796-1.427,1.572-2.188,2.305c-0.583,0.561-1.256,1.192-2.036,1.922
		c-1.247,1.167-2.715,2.542-4.301,4.097c-1.607,1.575-3.336,3.339-5.087,5.267c-0.03-3.102-0.083-8.877-0.132-15.635
		c0.076-0.919,0.081-1.775,0.081-2.462c0-0.142-0.041-0.271-0.101-0.39c-0.026-3.792-0.049-7.803-0.066-11.768
		c-0.006-1.334-0.011-2.662-0.015-3.975c-0.016-5.098-0.019-9.956,0.001-13.979c0.02-3.879,0.06-6.978,0.131-8.763
		C1.187,3.857,1.203,3.532,1.22,3.278C1.659-3.095,8.58-6.999,8.692-7.061c0.428-0.235,0.586-0.773,0.35-1.203
		C8.808-8.692,8.269-8.85,7.84-8.615C7.758-8.571,5.846-7.511,3.86-5.555C1.315-3.049-0.175-0.196-0.495,2.721
		C-0.511,2.866-0.538,3.01-0.548,3.155c-0.114,1.658-0.171,5.869-0.19,11.34c-0.014,3.814-0.01,8.239,0.005,12.846
		c0.003,1.079,0.007,2.167,0.012,3.26c0.021,4.981,0.053,10.048,0.086,14.674c-0.297,3.531-1.506,5.89-5.143,6.326
		c-2.13,0.256-4.014-0.768-5.602-3.045c-1.201-1.723-1.789-3.563-1.849-3.758c-0.068-0.282-0.689-2.832-1.709-6.844
		c-0.79-3.108-1.819-7.095-3.02-11.605c-1.754-6.585-3.871-14.271-6.139-21.934c-0.381-1.289-0.767-2.577-1.156-3.858
		c-1.02-3.361-1.56-6.586-1.746-9.659c-0.308-5.096,0.375-9.766,1.538-13.922c1.594-5.692,4.081-10.416,6.155-13.939
		c0.561-0.953,1.093-1.823,1.567-2.596c0.512-0.836,0.953-1.557,1.287-2.154c0.007-0.012,0.017-0.027,0.023-0.039
		c0.887-1.597,0.917-3.507,0.646-5.202c-0.351-2.191-1.206-4.024-1.369-4.359l-9.497-25.83l3.497-1.438
		c0.047-0.019,0.091-0.042,0.133-0.068c0.021-0.014,2.283-1.395,4.514,0c0.415,0.26,0.962,0.134,1.221-0.281
		c0.261-0.415,0.135-0.962-0.28-1.221c-2.933-1.832-5.815-0.334-6.319-0.043l-12.854,5.286l-11.691,4.807l-11.187,4.6
		c-0.442-0.704-0.81-1.395-1.123-2.073c-0.345-0.748-0.617-1.478-0.825-2.188c-1.912-6.508,1.46-11.256,1.637-11.498
		c0.027-0.036,0.051-0.074,0.072-0.114l3.483-6.619l4.91-9.329l8.531-16.212l10.333-6.193l3.391,6.382l-2.8,3.92
		c-0.464-0.295-0.918-0.589-1.307-0.846l1.186-0.309c0.474-0.124,0.758-0.608,0.634-1.081c-0.122-0.473-0.605-0.757-1.08-0.633
		l-7.84,2.044c-0.276,0.072-0.501,0.273-0.604,0.539l-5.358,13.931l-4.347,11.303l-2.224,5.782c-0.001,0.002,0,0.005-0.001,0.007
		c-0.043,0.113-0.059,0.235-0.053,0.358c0,0.007-0.003,0.013-0.003,0.02l0.341,4.431c0.036,0.464,0.425,0.818,0.883,0.818
		c0.021,0,0.046-0.001,0.069-0.003c0.487-0.038,0.854-0.463,0.815-0.951l-0.294-3.814l12.474-5.711l11.301-5.173l2.16-0.989
		c0.081-0.038,0.156-0.086,0.223-0.146c0.041-0.036,4.116-3.628,8.183-3c2.022,0.313,3.747,1.657,5.124,3.991
		c0.159,0.27,0.45,0.436,0.763,0.436h0.044c1.057,4.682,5.844,8.136,11.459,8.136c1.057,0,2.082-0.126,3.06-0.355
		c1.418-0.332,2.736-0.884,3.892-1.622c2.292-1.462,3.941-3.635,4.509-6.167c0.291-0.02,0.555-0.175,0.703-0.428
		c0.153-0.259,0.315-0.494,0.478-0.729c0.5,1.033,1.242,2.083,2.311,2.55c0.024,0.011,0.052,0.02,0.077,0.029v5.843
		c0,0.334,0.188,0.64,0.486,0.791l0.08,0.041v5.488c0,0.49,0.396,0.886,0.886,0.886h3.038c0.489,0,0.885-0.397,0.886-0.886v-3.056
		l4.143,2.095c-0.017,0.032-0.043,0.055-0.056,0.088L22.724-69.628z M29.621-12.901c2.698,4.384,4.985,8.669,6.877,12.868
		c2.542,5.644,4.359,11.128,5.451,16.474c2.228,10.902,1.453,21.23-2.308,31.159c-2.527,6.67-8.092,13.389-14.547,19.659
		c-2.741,2.662-5.64,5.243-8.539,7.704c-3.659,3.107-7.313,6.026-10.632,8.675c-2.318,1.852-4.509,3.6-6.395,5.172
		c-2.25,1.875-4.006,3.79-5.387,5.688c-0.169,0.094-0.315,0.233-0.395,0.426c-0.039,0.096-0.072,0.193-0.11,0.29
		c-3.388,4.992-4.18,9.819-4.1,13.432c0.001,0.076,0.007,0.148,0.01,0.224c-1.743-5.331-2.416-10.835-2.044-16.758
		c0.008-0.133,0.009-0.263,0.018-0.397c0.272-3.88,1.312-7.639,2.836-11.216c2.535-5.953,6.418-11.396,10.402-16.033
		C1,64.362,1.174,64.151,1.248,63.896c2.188-2.508,4.387-4.767,6.393-6.731c1.561-1.529,3.004-2.882,4.23-4.029
		c0.785-0.734,1.463-1.369,2.055-1.938c0.752-0.724,1.471-1.486,2.16-2.265c0.365-0.411,0.719-0.826,1.065-1.245
		c0.15-0.097,0.264-0.235,0.334-0.407c2.31-2.858,4.168-5.788,5.453-8.009c1.213-2.098,1.917-3.565,1.987-3.713
		c0.211-0.442,0.021-0.971-0.421-1.18c-0.442-0.209-0.971-0.019-1.18,0.422c-0.02,0.042-0.982,2.044-2.637,4.773
		c-0.691,1.141-1.504,2.404-2.425,3.714c0.206-1.09,0.454-2.393,0.738-3.876c0.853-4.44,2.039-10.504,3.453-17.429
		c1.32-6.462,2.836-13.665,4.46-20.978c1.521-6.845,1.611-12.753,0.912-17.815l1.742,3.814
		C29.585-12.964,29.602-12.932,29.621-12.901z M8.148,104.581c-0.254,1.234-0.507,2.451-0.755,3.631
		c-0.389,1.851-0.767,3.615-1.122,5.229c-3.22,14.631-4.424,23.097-3.91,27.449c0.156,1.325,0.34,2.291,0.504,3.143
		c0.396,2.074,0.615,3.219-0.221,6.961c-0.219,0.976-0.411,1.914-0.582,2.738c-0.625,3.023-1.163,5.635-2.059,5.666
		c-0.139,0.004-0.265,0.048-0.38,0.109c-0.103-0.082-0.22-0.147-0.357-0.178c-0.874-0.189-0.938-2.853-1.012-5.939
		c-0.021-0.844-0.043-1.799-0.083-2.801c-0.152-3.83,0.268-4.916,1.028-6.887c0.313-0.809,0.667-1.727,1.058-3.002
		c1.284-4.189,1.612-12.734,1.062-27.707c-0.481-13.083,0.234-23.42,0.245-23.566c1.66-1.364,3.509-2.844,5.465-4.405
		c1.895-1.513,3.898-3.112,5.95-4.784C12.119,84.707,10.083,95.195,8.148,104.581z M-6.491,117.69
		c-0.017-0.093-0.038-0.186-0.086-0.272c-0.02-0.038-2.019-3.719-2.113-8.893c-0.025-1.378,0.086-2.726,0.321-4.045
		c-0.235,4.457,0.492,9.097,2.189,13.761C-6.288,118.058-6.385,117.874-6.491,117.69z M-18.23-120.964
		c0-7.622,4.623-14.18,11.209-17.03c0.042,0.006,0.085,0.012,0.128,0.012c0.261,0,0.495-0.125,0.66-0.316
		c2.041-0.774,4.243-1.217,6.552-1.217c5.761,0,10.916,2.64,14.321,6.773c2.081,2.525,3.485,5.616,3.998,8.995
		c0.105,0.692,0.172,1.395,0.198,2.109c-0.155-0.01-0.309-0.023-0.466-0.023c-1.466,0-2.829,0.442-3.968,1.196
		c0-0.011,0.001-0.021,0.001-0.032c0-7.508-6.108-13.616-13.617-13.616c-7.508,0-13.616,6.108-13.616,13.616
		c0,6.637,4.776,12.173,11.07,13.37c-1.836,0.54-3.554,1.76-5.125,2.894c-0.245,0.176-0.484,0.349-0.721,0.516
		c-1.403,0.994-2.546,0.806-3.221,0.567c-0.607-0.652-1.198-1.348-1.761-2.099c-0.311-0.413-0.595-0.846-0.883-1.276
		c-1.89-2.823-3.281-5.968-4.053-9.091C-17.973-117.433-18.23-119.241-18.23-120.964z M-5.063-85.469
		c0.014,0.479,0.408,0.859,0.885,0.859c0.008,0,0.018,0,0.026,0c0.488-0.015,0.874-0.423,0.858-0.912
		c-0.001-0.055-0.167-5.591-0.001-8.235c0.061-0.969-0.189-1.856-0.567-2.625c1.436,0.479,2.919,0.748,4.435,0.748
		c1.25,0,2.488-0.19,3.708-0.528c-0.244,0.579-0.388,1.242-0.341,2c0.165,2.644,0,8.18,0,8.236
		c-0.017,0.489,0.368,0.896,0.856,0.912c0.01,0,0.02,0,0.027,0c0.479,0,0.872-0.379,0.886-0.86c0.003-0.099,0.034-1.156,0.056-2.544
		h4.783c-1.051,3.887-5.173,6.718-10.006,6.718c-4.826,0-8.954-2.832-10.005-6.718h4.337C-5.103-86.836-5.066-85.577-5.063-85.469z
		 M13.179-93.226c-0.266,0-0.518,0.118-0.686,0.323c-0.168,0.205-0.236,0.475-0.184,0.735c0.017,0.085,0.065,0.31,0.148,0.616
		c-0.351,0.417-0.691,0.863-1.009,1.362H5.785c0.007-1.458-0.007-2.99-0.076-4.085c-0.129-2.07,2.19-3.207,2.213-3.218
		c0.203-0.096,0.344-0.263,0.426-0.454c0.962-0.588,1.899-1.293,2.81-2.1v0.85c0,2.481,1.26,4.673,3.172,5.971H13.179z
		 M23.734-114.335v0.38c-0.353-2.561-2.534-4.547-5.189-4.547c-2.659,0-4.841,1.991-5.189,4.556v-0.389
		c0-2.862,2.328-5.19,5.189-5.19S23.735-117.197,23.734-114.335z M11.157-103.093c-0.69,0.204-1.761,0.289-3.047-0.624
		c-0.238-0.167-0.477-0.34-0.721-0.516c-1.467-1.058-3.06-2.2-4.76-2.787c3.401-0.464,6.405-2.178,8.527-4.675V-103.093z
		 M13.355-99.024v-13.513c0.349,2.565,2.53,4.556,5.189,4.556c2.657,0,4.837-1.985,5.189-4.546v13.503
		c0,2.862-2.328,5.19-5.189,5.19S13.355-96.162,13.355-99.024z M22.033-113.241c0,1.924-1.563,3.489-3.488,3.489
		s-3.488-1.565-3.488-3.489c0-1.924,1.563-3.489,3.488-3.489S22.032-115.165,22.033-113.241z M-0.32-105.975
		c0.059,0.007,0.117,0.02,0.179,0.011c0.133-0.019,0.268-0.008,0.401-0.013c0.128,0.005,0.256-0.005,0.384,0.012
		c0.061,0.009,0.117-0.004,0.175-0.01c1.755,0.159,3.527,1.31,5.156,2.473c-0.084-0.035-0.169-0.073-0.264-0.073H-4.863
		c-0.269,0-0.513,0.151-0.634,0.39c-0.121,0.238-0.096,0.524,0.062,0.739c1.799,2.442,3.754,3.68,5.812,3.68
		c3.478,0,5.83-3.562,5.929-3.715c0.141-0.217,0.151-0.495,0.027-0.723c-0.03-0.056-0.085-0.088-0.127-0.133
		c0.118,0.084,0.237,0.169,0.353,0.253c0.248,0.178,0.49,0.354,0.729,0.523c0.944,0.669,1.919,1.005,2.913,1.012
		c-2.342,2.129-5.617,4.143-9.627,4.143c-3.33,0-6.749-1.49-9.801-4.183c0.83-0.095,1.645-0.41,2.439-0.973
		c0.239-0.169,0.483-0.345,0.73-0.523C-4.273-104.371-2.286-105.794-0.32-105.975z M4.218-102.157
		c-0.846,0.882-2.221,1.975-3.84,1.975c-1.261,0-2.515-0.663-3.739-1.975H4.218z M12.632-120.497
		c0,6.531-5.314,11.845-11.846,11.845s-11.845-5.315-11.845-11.845c0-3.913,1.915-7.378,4.847-9.536
		c1.964-1.445,4.379-2.31,6.998-2.31c0.868,0,1.712,0.1,2.528,0.278C8.635-130.903,12.632-126.161,12.632-120.497z M19.178-78.793
		v3.066h-1.267v-3.707L19.178-78.793z M34.059-83.263l-4.526-1.445l-3.405-4.895l-0.161-0.231c0.111,0.055,0.2,0.099,0.232,0.116
		l0.125,0.067l7.25,3.899l10.682,5.745L34.059-83.263z M-4.47,117.758c-1.959-5.325-3.569-13.402-0.276-21.802
		c1.207-1.722,2.687-3.373,4.444-4.946c-0.183,3.487-0.519,11.958-0.148,22.047c0.187,5.102,0.268,9.459,0.245,13.156
		C-1.292,124.567-3.064,121.583-4.47,117.758z"/>
	<path fill="#231F20" d="M1.779-127.753c0,0.851-0.693,1.543-1.544,1.543c-0.813,0-1.473-0.632-1.532-1.43
		c-0.393,0.115-0.771,0.264-1.134,0.439c0.418,0.479,0.68,1.097,0.68,1.781c-0.001,1.501-1.223,2.724-2.724,2.724
		c-0.62,0-1.186-0.217-1.645-0.568c-0.345,0.856-0.539,1.789-0.539,2.767c0,4.104,3.341,7.443,7.444,7.443
		c4.104,0,7.444-3.339,7.444-7.443c0-3.772-2.822-6.89-6.463-7.373C1.77-127.831,1.779-127.793,1.779-127.753z"/>
</g>
</svg>
