<?xml version="1.0" encoding="utf-8"?>
<!-- Generator: Adobe Illustrator 16.0.0, SVG Export Plug-In . SVG Version: 6.00 Build 0)  -->
<!DOCTYPE svg PUBLIC "-//W3C//DTD SVG 1.1//EN" "http://www.w3.org/Graphics/SVG/1.1/DTD/svg11.dtd" [
	<!ENTITY ns_extend "http://ns.adobe.com/Extensibility/1.0/">
	<!ENTITY ns_ai "http://ns.adobe.com/AdobeIllustrator/10.0/">
	<!ENTITY ns_graphs "http://ns.adobe.com/Graphs/1.0/">
	<!ENTITY ns_vars "http://ns.adobe.com/Variables/1.0/">
	<!ENTITY ns_imrep "http://ns.adobe.com/ImageReplacement/1.0/">
	<!ENTITY ns_sfw "http://ns.adobe.com/SaveForWeb/1.0/">
	<!ENTITY ns_custom "http://ns.adobe.com/GenericCustomNamespace/1.0/">
	<!ENTITY ns_adobe_xpath "http://ns.adobe.com/XPath/1.0/">
]>
<svg version="1.1" id="Layer_1" xmlns:x="&ns_extend;" xmlns:i="&ns_ai;" xmlns:graph="&ns_graphs;"
	 xmlns="http://www.w3.org/2000/svg" xmlns:xlink="http://www.w3.org/1999/xlink" x="0px" y="0px" width="595.279px"
	 height="841.89px" viewBox="0 0 595.279 841.89" enable-background="new 0 0 595.279 841.89" xml:space="preserve">
<metadata><?xpacket begin="﻿" id="W5M0MpCehiHzreSzNTczkc9d"?>
<x:xmpmeta xmlns:x="adobe:ns:meta/" x:xmptk="Adobe XMP Core 5.3-c011 66.145661, 2012/02/06-14:56:27        ">
   <rdf:RDF xmlns:rdf="http://www.w3.org/1999/02/22-rdf-syntax-ns#">
      <rdf:Description rdf:about=""
            xmlns:dc="http://purl.org/dc/elements/1.1/">
         <dc:format>image/svg+xml</dc:format>
         <dc:title>
            <rdf:Alt>
               <rdf:li xml:lang="x-default">Print</rdf:li>
            </rdf:Alt>
         </dc:title>
      </rdf:Description>
      <rdf:Description rdf:about=""
            xmlns:xmp="http://ns.adobe.com/xap/1.0/"
            xmlns:xmpGImg="http://ns.adobe.com/xap/1.0/g/img/">
         <xmp:MetadataDate>2018-09-05T11:39:45-03:00</xmp:MetadataDate>
         <xmp:ModifyDate>2018-09-05T11:39:45-03:00</xmp:ModifyDate>
         <xmp:CreateDate>2018-09-05T11:39:45-03:00</xmp:CreateDate>
         <xmp:CreatorTool>Adobe Illustrator CS6 (Macintosh)</xmp:CreatorTool>
         <xmp:Thumbnails>
            <rdf:Alt>
               <rdf:li rdf:parseType="Resource">
                  <xmpGImg:width>256</xmpGImg:width>
                  <xmpGImg:height>196</xmpGImg:height>
                  <xmpGImg:format>JPEG</xmpGImg:format>
                  <xmpGImg:image>/9j/4AAQSkZJRgABAgEASABIAAD/7QAsUGhvdG9zaG9wIDMuMAA4QklNA+0AAAAAABAASAAAAAEA&#xA;AQBIAAAAAQAB/+4ADkFkb2JlAGTAAAAAAf/bAIQABgQEBAUEBgUFBgkGBQYJCwgGBggLDAoKCwoK&#xA;DBAMDAwMDAwQDA4PEA8ODBMTFBQTExwbGxscHx8fHx8fHx8fHwEHBwcNDA0YEBAYGhURFRofHx8f&#xA;Hx8fHx8fHx8fHx8fHx8fHx8fHx8fHx8fHx8fHx8fHx8fHx8fHx8fHx8fHx8f/8AAEQgAxAEAAwER&#xA;AAIRAQMRAf/EAaIAAAAHAQEBAQEAAAAAAAAAAAQFAwIGAQAHCAkKCwEAAgIDAQEBAQEAAAAAAAAA&#xA;AQACAwQFBgcICQoLEAACAQMDAgQCBgcDBAIGAnMBAgMRBAAFIRIxQVEGE2EicYEUMpGhBxWxQiPB&#xA;UtHhMxZi8CRygvElQzRTkqKyY3PCNUQnk6OzNhdUZHTD0uIIJoMJChgZhJRFRqS0VtNVKBry4/PE&#xA;1OT0ZXWFlaW1xdXl9WZ2hpamtsbW5vY3R1dnd4eXp7fH1+f3OEhYaHiImKi4yNjo+Ck5SVlpeYmZ&#xA;qbnJ2en5KjpKWmp6ipqqusra6voRAAICAQIDBQUEBQYECAMDbQEAAhEDBCESMUEFURNhIgZxgZEy&#xA;obHwFMHR4SNCFVJicvEzJDRDghaSUyWiY7LCB3PSNeJEgxdUkwgJChgZJjZFGidkdFU38qOzwygp&#xA;0+PzhJSktMTU5PRldYWVpbXF1eX1RlZmdoaWprbG1ub2R1dnd4eXp7fH1+f3OEhYaHiImKi4yNjo&#xA;+DlJWWl5iZmpucnZ6fkqOkpaanqKmqq6ytrq+v/aAAwDAQACEQMRAD8A9U4q7FXYq7FXYq7FXYq7&#xA;FXYq7FXYq7FXYq7FXYq7FXin/OQv5pXmjww+UfL900GtXyiXULuE0e1tewVh9mSXt3C/MHKdRmGO&#xA;BkXadj9lz1uoGKPLmT3R6n9Xm+dbe1Nrci7tZ57a9BLfXIZpEmq3U8wa5ox2llu7D6nP2M7PMOER&#xA;kD/O4jf2+n/Ys00X84/zX0UKsGu/pKBB/canGtxyI8Zhxm/4fMvH2qP4h8nn9X7AHnhyfCQ/SP8A&#xA;iXvX5T/nNpnnhH067hGm+ZbVedxYcqpKg2Mtux+0vip3X365tMeSMxcTYeC1miy6bIceWJjIfj4j&#xA;zej5NxXYq7FXYq7FXYq7FXYq7FXYq7FXYq7FXYq7FXYq7FXYq7FXYq7FXYq0zKqlmICgVJOwAGKv&#xA;KNV/5yL8r2t/cLp+lalq+i2DcNR16zh5WkXxBSVckcwpPXavUVGUT1WKMxCUoicuQsWfcGQiat6p&#xA;b3ENzbxXEDc4ZkWSJxXdWFVO/iDl7FUxV2KvN/PP59eRPLCzWtvdDWdaQER6fYkS0foBNKP3cYDf&#xA;a+LkP5cjKQiLJoN2DT5MsuGETKR6AWXy3dX2papqV5rOrSetqupSGe7lpShPRFHZUHwqOwznNbqf&#xA;Fnt9I5Ps/sx2J+R0/qH72e8vLuj8PvvyUZbi3ip6sqR16cmA/XmNDFOXIEu71GuwYSBknCBP86QH&#xA;3qX6T0+tPrCfeMtGkyn+EuDP2g0MRZzQ+d/cr6V5lbR/MGla1pcok1HT7qJ4o4iOUiluLxfKRSVP&#xA;zzY6HHkxE8QqFeTxftd2hoNXhBxzEs0DtsdweYuq83135N/Nryz5m1BtHMdzo/mCNeTaNqcf1e4K&#xA;jctHUlZBQV+E1pvTNnhz48seLHISj3g2HzoxI5s1y1DsVdirsVdirsVdirsVdirsVdirsVdirsVd&#xA;irsVdirsVQ9/qOn6fbNdX91FZ2yfbnndYox82cgYqwHV/wA/vy4spza2F1Pr96P+PXR4Hum+h/gi&#xA;P0PleXNDGOKZER3k0yjAyNAKelfn75LutRhsNVtNT8tSXG1vNrdsLSF28BIHkVfm1BleDV4s1+HO&#xA;M6/mkH7mU8Uo8wQlv5o+Y77zNrcH5ceXLkxR3MS3XmfVITX0LFqFYEYftzj/AIUjqCaa/tzteGh0&#xA;5yHeR2iO8/qHMpxY+IqfnrypHH+VmqeX9AtxCkNmVtbeMbkRESMvizPxNfEnfPJ+yO0Se0YZ85sm&#xA;e5Pnt8hfwAc/JD0EBnfkrzXoOreRdM123uIodO+qx+s7uqpA0ahZI3Y0C+mw4mue4OrYH5w/5yX8&#xA;o6Y0lp5bgfzFfrt6sR9KzVvedgedKg/ApHvleTNGAuRpztF2bqNVLhxQMj9g955D4vE/N35k+f8A&#xA;zhzj1nUzbac9R+idP5QW5U/syEEyS/7NiM1WbtTpAfEve9m+wYFS1Mv82P6ZfqHxY1DbwQLxiQIP&#xA;YZq8mWUzcjb3mj0GHTR4cURAeX6TzPxVbW31HUdSh0nSbZr3VLn+6t07AdWdjsqgdScPDCEDlyng&#xA;xR5n9Xe6bt72ix6KPBH15zyj3ecv1cz9rPbH8lbawfUbvzrdra6HYRxvd344c7mQqHKwMwdooYyw&#xA;T4Rzkb6ANPk9qDk4IaOPFlmSIx3qI5erkJSP1bnhiPiT5NqcmTPkOTNLikeZ/HIJN5c8tS6HcR/m&#xA;BYaXJN5fjuWCaLMBPOdLdSpuCG6tU8+P09M2Gt14zg6GeQDOY/WNo+Jd8P6Ps57NcdNIR8Stu7y7&#xA;30L5bvvK2saZBqWhfVprN943hRV4N1KlQAUYV3B3zzLXYtRhyGGbiE/P8bhtiQRsk35n+VpNX0Bt&#xA;S00GHzJon+naNeRj96ssPx+mD3EgFOPStM2fs12tLSaqNn91M1IdN+vw+6wwzQ4ovQfI/mi280+U&#xA;tK1+3oFv7dZJEG4SUfDKn+wkVlz251ieYq7FXYq7FXYq7FXYq7FXYq7FXYq7FXYq7FWL+Y/zQ/L7&#xA;y3yXWNetLeZPtWyv604/54xc5P8AhcVphl3+fN1fHh5R8pajqtdlvL3jp9qa/tK8nNnHtQZrNV2x&#xA;pMH15Ig93M/IWXIx6XJPkEou9S/OnXdr3XLLy5at9q30mAzTcfAzzklW90znNV7a4o7YoSl7/SP0&#xA;/oc7H2VI/UaSm5/L/wAm2zDUvNF9Nq1woNb7W7xpAPH7bIlPmM0OT2k7Q1J4ce3lCO/6T8nMjocO&#xA;MXL7XW35h+SbV/0b5btJtUmWlLHQ7NpfYUCBE7djgx+zfaGpPFk285y3/SUnXYcew+wIyy80eUPN&#xA;Yn0S+gMV4NrjRdUh9G4BpX+7fqR/kmozF1XZOt7PkMm4r+OHL493xG7Zj1GLMK+wpbaeR9e8n3s+&#xA;oeQruNIbgqbzRL4c4ZQleISf+8QgE8an6cvydr4ddAY9bE3H6ckOYuuceR8/sDjZNAY74z8CybQP&#xA;zd0W6vV0nzBby+W9cPw/VL2noyHp+5uBSNx4VpXtXNVrPZvLCHi4CM+HvjzH9aPMfbXWnG46NSHC&#xA;Un86/kTZay802halJpMdzL9autLIaSwmn6er6QZAjb9RX2GbPsn2zzaeAx5o+JEcjdSA/T9h82Bw&#xA;C7DELX/nGvzPE8kg160gO5jijikaNjXYMGI4170rTNtm9t9NOgcUpe8gEe78BztHr9Tpp8WGXB/R&#xA;G8fkb/HJiuveS/O/l1yNW0iV7df+P+yBuLcgDqSo5JU/zgZsNLrNJqv7nIOL+bP0y/b8Hs9D7bjl&#xA;qYEH+dDcfI7j5lDeWvLnmLzZerZaDavwJpc6jMjJbwKDQlmI3bwUb5Zq82HRw49QfdAfVL9nmy7W&#xA;9socPBpPVI/xEUI/A8z9nve56fp3kb8o/LbXF1KZL65oJrggNeXsw6RxIO1T8KjZe575w+bNrO2s&#xA;/DEVCPIfwQHeT+nmeg6Pn850TKRuR5k8yXnHnlvPvmtXv/MOkahFoUSJPpWi6Y0TOZBKtfrZPORX&#xA;MPOjek3E0+HqD2XYP8maImEckZZuRmdr8ok7V8d/PZqzYMxF8OzOfy182S+YvLqvdxNBqliRbahE&#xA;yFPjVQQ4BApzWhp2Ocl292aNLnqJvHP1R93d8HcaTP4kN/qHNJ/MXlzzJomvxax+X9k8F7OQ2oxr&#xA;LAlhMK0ImgkdDypvyQfjvmw0Gu0+owHFrpAxH07SM4+6QB28j92zi6nSnivGN+vKkb5S8xeavP19&#xA;e2l9r3+GrnTn43GhadEou+I29Rrif1arX+RadK9q0do6LTdnQjOGLx4zG2SZ9Pu4Y1/sj7urhAyk&#xA;SCaroyn8k+fljzD5i/LyeZ5orVl1fRZZePN7W5osw+EKvwS0B4rSpOeh9hdpjW6WOXYS5SA6Efi/&#xA;i4eWHDKnr+bdqdirsVdirsVdirsVdirsVdirsVdiryPzT+anmnUvMV95d8hQ2nDS29HVdevubwpP&#xA;+1BBGn2nT9otUV2p0J1HavbWDRAeJZlLkBz9/ucrT6SWXkxbU/Lmr6mYx5186Xt6LglVsIpU061k&#xA;YAsVEMdOfFQfem+cjn9r9TlB8HGIgczvIjz6AfG3ZQ7Nxx+o/oQMWpfk75SdYrIWYvVIREtkN5cl&#xA;uy81Er1+bZgHTdra76uPhPf6I/LYfIN3Hp8XKr+ac2ut/mDrhA8t+TLwQN0vtXZLCIL/ADBHJdx/&#xA;q75sdL7EzO+XIB5RF/aa+5oydqj+EfNNrb8p/wAz9Wo3mDzXBpMJ3ez0SAlt/wDl5no6kewOdFpf&#xA;ZfRYd+HjP9I39m0fscLJ2hll1r3J/pH5A/ltYzLc3tlNrt6Njd6vO90x7/Eh4xH/AIDN7jxQgOGI&#xA;ER3DZw5TJNlntjp9hp9uttYW0VpbL9mCBFjQfJUAGWMXlH/OReiaXqWmeW7draP9Kalrdnp8WoKo&#xA;FzDBJzeQxyU5ADiPbMTX5/B0+TJz4ISPyFs8YsgMcuNG/MnyfQ2rN5w0FOsbnhqcKex6T0/4I+2e&#xA;WQ1Og131f4Nm/wClZ/4n7h5u3x6nJj5+qP2q1jrfkfz1ZSWUiR3TpX19Nu04XETDY/A3xAj+ZD9O&#xA;VZdJrOzpiYuPdKJuJ+P6D8nOjlxZxXPyPNCQ6B538pEP5O1H6/pa9fL2qMXQD+W3nJ5J7AmnjXL5&#xA;a3Sa3bVw4Mn+qQ/30evmefdTi5NFKO+M7dxZH5b/ADa0HUbsaXrUUnl3XdgbC/8AgVye8MxokgPb&#xA;oT2GazW+zubFHxMRGfD/ADodP60eY8+ddXG46NSHCWcZz7Ngn5jfmvpnlKGS0tIjqmviJpRYRVYQ&#xA;xqKmW4K14IBv4n2G+dF2J7PZNYRKR8PDdcR6nuj3n8c9mvJkrluWMaP5R1HUrZvNWoaml/5rv7cS&#xA;affunqWtksi8kFtCaCgB6kfxrtNV2lDFL8tCBhp4S9UbqU658Uvx91ZuDS+nju5kbHuY3caR578t&#xA;XFvrC6XPq2tQSsb/AFW2u2uFvLV6Vt3tHVGi4U5RmMGh6g7U6Ma7szWab8uCMPdYqj33y+2y4vg5&#xA;8U+P6npGq61qNvocOq6dpkt8zCOWWx/u7gQuOTcUYbyKD9j6M4fT6THLMcWSYhzAlzjfTf8Amn+c&#xA;7WeQiPEBfl1SLzB5Y/x1psFyLvVNC4hkFnMPTRxX7U1vyBNe3xDbNlou0P5NymPDizf0hv8A6WVf&#xA;PZoy4fHjdyj5fseaeZvLHnHy9560y70yewtL24a4k0uLTYvq6RrGWmeN4yCShMhUc3b4fhrxAA7T&#xA;F2zpdfpsniQPhxoSB/pHofL4F1GbSywyG/N6Rcec4Zh5O/NOBPq/1C5OleZoBX91Bcn0pg9d6Qyf&#xA;Elf5hmp9m4y0OtyaORuMhxwPf7vfHn/VY5vVESfRQIIqOmd84bsVdirsVdirsVdirsVdirsVdiry&#xA;T88vzktvKlqnl/R7yNPMmo/A1wautjC2xmkVA7c/5FofE9gYzkREkC/L+3ZlEWUv8o6HpuiaFb2F&#xA;hIZ40q8tw325ZX+J5H78iT0PTpninaetyanPLJk2J6dw6D8e96rBijCAiEt8qeSdK/NDzVqesa9C&#xA;115U0Njp2k2wd41nulKtczloyjFVoFFDRvoz0z2a7M/LaYGQ/eZPUf0D4D7SXQ6/Ucc9uQey6B5O&#xA;8qeXo+GiaRaaftQvBCiO3+tIBzb6TnQuCnGKuxV2KuxV5f8AnyPRsfKGo9FsvM2ntM/ZYXEiP127&#xA;jNd2vAz0mWI5nHP/AHJZ4j6gyTPAXasY82/lx5X8z0mvbc2+pJvBqtofRuoyOhEgHxU8Grm27O7b&#xA;1Gk2geLGecJbxPw/UwljB97D7iH8yfJxAu4T5u0FOt5bLw1GJP8AiyGpE1B3Xc9Sc3kDoNd9J/LZ&#xA;v5sv7s+4/wAP4oFvx6rJDaXqH2oy2vfJPnzS5I+MOpQRmk1vKpWaBmqN1NJI22O4+g5jZMWs7NyA&#xA;745HkRyl+g+4/FzYyxZ497Ftet/OHkdbS08ua3KuhaxPHpoS+rctYSTNRJLcnfjxBFDsPnQjcaPJ&#xA;pe0OKeoxDxsUTP0+nxAOYl531/RzwNRpjjI4T6ZGvcy/y95J0bRLC4t41N1c3wb9I31z+8muWevI&#xA;yMexr9npmk1va2XUZIyPpjD6Yx2Ea7v1uwxaaMI0OvNg1vqmrfl25Dlr/wAnmTiYC1biyLH/AHWW&#xA;Pxx1/Zr/AFPQzwY+1Nvo1QHP+Gdd/cfP+wYUZyweeP7Q9L0fWtL1mwjv9MuUurSX7MiHv3DA7qR3&#xA;B3zktTpcmCZhkiYyDsseSMxcTYR2Y7NKPMnmnRfLlgbzU5xGDtDCvxSyv2SNOrH/ADOZ2g7Ozaqf&#xA;BjF956D3n8eTVmzRxi5PP9Kj1XWNcuPNOswm2mlT6vpdgxqbe2rX4/8ALc7n/MDo9VkxYMI02E8U&#xA;QbnL+dL9Q/V7zo8mQ5JcR+DKvKfkiC+8veb9JlmVrXXZDLHDxp6MskVPUrvU+ogbp2zVa/tYwzaf&#xA;KB6sIq/5wB5fI18VhCwR3vRPyV8yT65+X9it7UarpBbStURvtLPZ/u/i/wApk4sfc569jyRnESib&#xA;jIWPcXXkUWdZNDsVdirsVdirsVdirsVdir5N/Mrzv+e88FzLrVve6BpfrfV0tLULaRs7sVSOO4q0&#xA;90WC7hNjudhlcifIBmAGJ+V/J+mte3eseZ7s2/lfRuP6ae3qJLi+kBZdOt5eReaUn7Z5UWh6CjZT&#xA;pp+JHjrY8r6joa6X93PfYTyDhNMg8gWOv6l5j1ez8i6XHps+pKqS25klktNJthUI9xLIZGkuWofh&#xA;HQ126qut1mghr5RMx+6gb85e7uh5/wAXTaibsWY4Qa+o/Z+37n1B5F8o2flDypp3l60cyxWMZV5y&#xA;Apkkdi8jkCtOTsTSu2bxw0+xV2KuxV2KuxVhH51eX5td/LLXLW3BN5bwi9tCoq3qWjCcBR/MwQqP&#xA;ngItIQvlXXYde8t6brMRHG+t0mYD9lyPjX/YvUZ8+9oaQ6fUTxH+CRHw6H4jd2sJWLVbjzDosAJe&#xA;7jJH7KHmf+FrkIaPLLlH9CeIMT80/mOLHS7u6s4+EdtE8hmkpyPEVAVem58c2/Z/Y3i5YwkbMjWz&#xA;XPJQYP8Al35N1nTrzRvMQcl9WtJ5PMPqN8TSTv68DcT+18VD/bnRdt9qYcscuCv7ucRjofzfTIe7&#xA;uczSaeUTGQ6j1foZ7rmg2OtW9vBeFwltcw3cfptxPqQNyUGoNVPfOa0msnpzIwr1RMTfdJz8mITA&#xA;vobRWoXiWVhc3sgLJbRPM6jqRGpYgfdlODCcuSMBzkQPnsynLhiT3PIdI0eTzI8PmTzA4uTcEz2O&#xA;mCv1a3RzVfhP22p1LZ2mq1Y0gOn044a2lP8Aikf0finnpSOQ8UkfL5cvtO1BtV8rXY0u+kNbm2Yc&#xA;rSf/AIyRDof8pcx4doQyw8LVR8SA5H+OPuP6/wBiYSlA3E0jJPNH5qSxegtppNtKdmuw8zqPdYzv&#xA;XwrlQ0PZcfVxZZf0dvv/AFOSddlPSKF0zyssd9+ltXupNX1o/wDH5cfZj/yYY/soPlktR2kZQ8LF&#xA;EYsX80df6x6/i7cU2TcjZT7NYllfkF6TXieKofuJ/rmr7Uj6YlsxrfKE/wDhn85dU0hjw03zjajU&#xA;bIfsi+tRxuEX3eOsjfRnpPsbr/H0YgT6sR4fhzj+r4OHqYVK+96/nWuO7FXYq7FXYq7FXYq7FXYq&#xA;wr8zfyvs/Pdvpqy6jcaZdaXM01tc23En4wA4o37VF+FgfhORnCMhUhYKYyI5On/KDyXN5HtPJhgl&#xA;j0mzdJ4ZIpDHP66En1jIo3dixrtTfam1CRa2yDyz5V8v+WNKj0rQrJLGxjPL00qSzEAF3diWdjTq&#xA;xrhQmuKuxV2KuxV2KuxVxAIIIqDsQcVeFeW7GTyz5l8wflrO3oWk/qal5WkP2WtLgkyQr/xheoI6&#xA;n4j0zzj2z7O4MkNXEWNhP/en9HwDm6edjhQV5Z3FncPb3CFJUO4Pf3HiM0MJiQscmZDFfNsTapc6&#xA;R5ZjPxaxdqLkDqLWD97MdvYDN32VLwY5NSf8lDb+tLaKiHHIR7y9ZVVVQqgKqiiqNgAOwzjSbeiX&#xA;YFWTQxzQvDKvKORSjqehVhQjJQkYkEcwgixTyPy7MdA1G48n6k5jntJHOlSSAgXFqx5IUY7FlrQj&#xA;6O2dp2hD8zAavGLjIeuv4ZDn8P7erz0oHHIwPwZRmkV2KuxV2Kst8gxnleydqRqD/wAETmp7UO0f&#xA;i2Y0D+bbDTrfy95pT4ZPL+r2s8sn/LtM4inQ+z8lBzeew2q4NYcfTJE/Mb/dxNepjcbe0564692K&#xA;uxV2KuxV2KuxV2KuxV2KuxV2KuxV2KuxV2KuxV2KuxVgn5teRrzzFpNtqeiMIfNegSG70WfpzYf3&#xA;lu/T4JlFPnTtXKNVpoZ8cscxcZCiyjKjbznU/wA2PKmpeWLaSSzluPNE7Nap5fhBF5FeJtIjVB4R&#xA;hv2mHTtUEDymHs1qsGplAkRwR3OSX08P/FeXf1rd2AyCQ259yUeWtP0jy5dvr3nLU7SHzLeLRIZJ&#xA;kC2sB6RRKxrX+Zh/UnK1+bLqYDBpITOnj1ET65d5/QP2AZ2nxQxerIRxn7Gc6XrmjatG0mmX0F6i&#xA;bOYJFk4/63Emn05zuo0mXCayRlC+8EOfDJGX0kFHZjs3YqwbzfDY+adQv/Kn1YrqGn2aahZamGAa&#xA;G5ZiI1XoRWgJ33H0HOj7MlPR446q/ROfBKH86PUuDqAMpOOtwLvzSrynq76v5dsdQkp6s0dJSBQF&#xA;0Yo5p/rKcu7T0wwaieMcgdvcd/0upgbCb5gsnYq7FWf+TbM2+jiRhRrhzJ/sfsr+quaHtHJxZK7m&#xA;6A2ST87o0f8AK3XlcVAjianutxGw/EZs/ZM/644v87/cSYZ/oL13T3eSwtpHPJ3iRmY9yVBJz211&#xA;ivirsVdirsVdirsVdirsVdirsVdirsVdirsVdirsVdirsVeO/mr+fdhock+heWJoLjWo6pe6lMa2&#xA;dj2PIgN6so7RoDv1qRxyrLlEByJPcOZ/HeaHeWcYW8t8raL5p1aa4vtKElk+osX1LzhqSA391z+1&#xA;9UgNfSjPb6N9qZw/a/aOES/wg+LKPLFA+iJ/py/iP3fzd3babBKvR6R/OPP4Bneiflv5T0tCzWa6&#xA;jeyb3F/fgXE8jHqxZwaV9s5fVdvarKdpHHEcow9IHy/S7DHpMcelnvO6A8z+Qoov9zvlKKPTPMVk&#xA;C8SwKEhuVA+KCWMUU8x0PjmToO2TL9zqicmCfO9zH+kDz2a82lr1Y9pj7fJP/KfmO28xaDa6rApj&#xA;9YFZoD1jlQ8ZENafZYZrO0tDLS5pYpb1yPeOhcjBlGSIkE4zBbXn/ldbjUda8+araMfrEtwNNtHP&#xA;RXs4OG3+zcHOn7QMMWLSY57xEeOXunK/1uBhuUskhz5D4BJfy+eA+UNPSJSnpK0cqEUIlV29So2/&#xA;aqcyu3YyGrnfWvlQp1OPkyPNSzdiqO0bSptSvUgSojHxTSfyr/XwyjUZhjjZSBb0yONIo0jQcUQB&#xA;VUdgBQDOalIk2W9gn51s9x5Nj0OEn615gv7PTbdV+0WknVzT6I86r2M05ya+MukIyl9nD/vmnUGo&#xA;vaERERUQBUUAKo6ADYDPZHWt4q7FXYq7FXYq7FXYq7FXYq7FXYq7FXYq7FXYq7FVK8vLSytZbu8m&#xA;S2tYFMk08rBI0RRUszNQAD3xV89eevza83+frify5+W0UlvolTFf+Y5OUPqDoViYjlGlPAeo3go6&#xA;63tDtbBpI3klv0A+o/D9PJyMGmnkPpCh5L/Jvy5oHp3V9/uV1RfiEsy/uY28Y4jUV/ymqfCmeddq&#xA;e1GfU3GH7vH5cz7z+gV527zT6CENz6izi/v7PT7Ka9vZVgtbdS80rmiqoznsOGeWYhAXKXIOZKQi&#xA;LPJAeVvMH+INJTVEs5bO3mdvqqz0DyRD7EtB0D9sye0dF+Wy+HxCcgN66HqPgww5fEjxVSbMyqpZ&#xA;iAoFSTsABmEA2vNfy/1V7Ww1nVEVY9I1TV7u408ueKemWC8lPbkVO2dX21gEp48Z3yY8MIyrvdbp&#xA;pkCUv4ZSNI3UvzY0uAm20/hqmqueFtYWfKd3kPRfgqBv1ynT+zuSXqmDjxjnKRAofFlk10Y8qJW/&#xA;lC1/aWOr6Hq8Qg1vT71pb6OoJP1tRKrmnjuPow+0whOePNiN4ZwqP+aaIR2dL0kHmD96U6dB+ifO&#xA;nmLQyOMMsq6pZDsUuR+9CjsFk2zK1MvH0eHN1A8OX+b9PzG7g54cGWQ+Kf5qWCb6V5Y1K/YMUMFv&#xA;3lkFNv8AJXqcxM+shj8z3MhElmOmfoHTrgaPbXMI1Dh6z2xkQ3DKKAyGOvLjv4UzUZxmyR8WUTwX&#xA;V0eG+6+VtgobJpmIyYJoKHzz+bMd7D+88teRw6iYbpPqsw4kKf2hCu+3Rh4Nnr3sb2SdNpzlmKnl&#xA;390enz5/JwNRks09nzsXGdirsVdirsVdirsVdirsVdirsVdirsVdirsVdiriQASTQDck4q+ftY1K&#xA;7/NTW5Z5pXj/AC902do9PskJUalNE1GuJabmIMPgH6jXOR9pPaA6b9zi/vTzP80frP3Oz0Oi4/VL&#xA;6fvZXa2ttaW6W1rCkFvEOMcMahEUeAUUAzzPJklORlImUj1LvoxAFBueeGCGSeZxHDEpeSRjRVVR&#xA;UknwAwQgZERAslSQBZed20N9+Y2oR3t2jW3kizl5Wdo2z6hJGaepIP8AfQI2Hf8AV1OSUOy4GEfV&#xA;q5Dc/wCpg9B/S/HvwADqDZ2xj7f2PRkRUUIgCooAVQKAAdABnKk3uXYMO/MzU7wada+XNNamq+Yp&#xA;fqcRHWOClbiX5Kn6833YGnh4ktRk/u8A4j5y/hHz+5w9ZM0IR+qe360BfeVfL3mDzp5V/LuT4dH0&#xA;+2mu7+NZPTfgsXpW6qRSrtIanvvXOp9ksc8ssupnzma/Sfhy+Tr+0pCIjjHRk9n+U3n7yIX/AMD3&#xA;VhrOlEknTdRiS2uwpNeK3cIUSHpvJQe2bXtj2cwa7eZnGXeDt/pTt8qdfjzGLE59W8xWX5q2Woa3&#xA;5cuvLw1y2/Rt4JmSa3kuoqvC8dxH8DsVHCmc/rvZ+en7OljMvE8KXHE1R4T9Qrev53NztHqB4o/p&#xA;bK/5hGw0bzP5d803yO2mo8mnar6YZm9GZS8RonxfDICc1PYonqNNm00Pr2nD3jY/MUHK7QgAYz+B&#xA;Tyy/MDQnIHlfyjrGsTH+7mhsXWKv+VPMRwHvTJY/ZDtDL/eTjAe/9ERR+bgHPAckXf2P5uatp11q&#xA;Gsz23kPy7axPPdmA/X9TMMa8moyfu0+Efs/ED2OdH2d7FaXAeLKTll57R/0v6yR5NM9STy2YP+WO&#xA;k+VE15vPk17FpWmQxyR6dHf3sct7cFwVku76QtxV2BIEaig+jk2F7V6yc4fktPilLldRNCtxGO32&#xA;jatu+p4I16iWYTeYfMn5izPonkISWmiFvS1XzfKrJGiftx2YNGkkI2r29tmzH9n/AGOMZDLqhy5Q&#xA;5/6b9Xz7k5dR0D1vyl5U0byroFroejxelZ2q9W3eR23eSRtuTsdyfu2z0Zwk3xV2KuxV2KuxV2Ku&#xA;xV2KuxV2KuxV2KuxV2KuxV2KsI/O3WZ9G/KrzJfQMVlNqLZWHUfW5Ftqj5erikMW0LSodJ0ay0yE&#xA;AR2cKQincqoBb5sdznhes1Jz5pZDzlIn8e567FDgiI9yPzGZsI/M6ae8t9K8rW0hjm8w3QhnZftC&#xA;0hHqXDD/AGNM6HsCMYSyamQsYI2P652i4WsJIEB/Efs6sytba3tbaK1t0EVvAixwxr0VEFFUfIDN&#xA;DkySnIykbkTZcyIAFBUyCXlln5ltJdY13z7ch7q0sB+i/L9pEOTyAMA8igV/vJDQN/LXOyy6GUcW&#xA;LQx9Mp/vMhPTbYH3Dp3gOsjmBlLKdwNooPT/ACZb6tFc6n5qtkutY1ST151JI9BaUjhRlII4LQdc&#xA;sz9rSwmOPSnhxYxQ5ervkff+ObCGnErlkFyKbWWl+aNGofLXmvU9NVB+7tZpPrlspHhDPyXMvT+1&#xA;WaP95GMvsP6R9jXPs+J5GkH5/wDMn5q6t5Z+papHpupjTp4tRtNSt0eC7jmtiW5+nX0m+EsKKO+b&#xA;nB2/ptT+7kDHj9O/LfarH7HFlo5w9Q6Mm8zRxeb/AMtpriyr6l1aJe2ZU0ZZowJVUEdG5Lxzg+z5&#xA;HQ9oAS/hnwn3Ha/0u5zAZcNjqLerfl15+0TzZ5a0y8gv7eXU5raNr6zSWNpopwg9VXjB5L8VaVHT&#xA;fPX3mGVkAih6Yqw9vye/K5rw3beWNPMzMXYGFShJ6/u/7v6OOK2yy3t7e2gSC3iSGCMcY4o1CIoH&#xA;ZVFAMVVMVdirsVdirsVdirsVdirsVdirsVdirsVdirsVdirsVYV+dGiTa3+VvmOwhUvMbX6xGgrV&#xA;mtXW4AFO59LbFIYh5b1iDWtBsNUhcOt3CkjEdnpR1NO6tUHPDdfpTp888Z/hkfl0PxD1uHJxwEu9&#xA;M8xGxgyMup/m6x2aHQ9LovtcXUlCf+RYpnRkHD2V55svzjEf8U4QPFqP6sftLOc5xzWH/mfrtzp/&#xA;l4afp5/3La1ILGyA6r6n95J8kTv2JGb3sDSRy5/En/dYhxy+HIfE9OtFxNZkMYUPqlsgtI0y30vT&#xA;LbT7cUhtowi+5HVj7sdzktVqJZskskucj+PkwxwEYgBGZQzdirTKrKVYAqRQg7gg4gqg/wAprk2t&#xA;rq3lmQ/Hol231cH/AJZbmssXX35Zm+0cBOWPUj/Kw3/rR2P6GGhNAw/mn7Cw/TPJPlw675g0O+s1&#xA;Nxp9569pMhaOQW9wPUhoyFa8OmbzU9r6gYcOfHLacKOw+qOx597iQ00OKUSOR+wsos4PPGj0Pl/z&#xA;hqNsi/3drest/AB/KqTA8R8sng9q8g/vICXu2/Wxn2fE8iyjSvzP/OOzQtfaHp3mG2Tb1bOZrGdh&#xA;3JEvOMn2UZtcftVoztMmHvH6rcc9nZOm6f2H/OQXlUXMdr5k0/UfLE0hCLLqEB+rFj2WeMuKe5AG&#xA;bvT63Dm/u5xl7iC4k8M4fUKemW11bXVvHc2sqT28yh4ZomDo6ncMrLUEHxGZLWqYq7FXYq7FXYq7&#xA;FXYq7FXYq7FXYq7FXYq7FXYq7FXYq8P8zeSde8gard6z5YspNV8nXrtcaholuK3FjK27y2qftxnq&#xA;UHT5b5zvbvYENaOKJ4co69D5H9bnaPWnFsd4oGL8x/KupWgOm6lC08mxhkPpSp41R+LVHTPP5dha&#xA;rFL145UO7cfMO5/N45DYpV+W/G580+btQDB1aW0to2BqAIYTWnzLZm9uxMNNp4HnUz8yGrRm5zPu&#xA;ehZy7sHjOoeb/L+o/mDfalqF9FDaaIpsdLjdvtSEn6xMBv3+EEdRneYuy8+PQxx44kyy+ufu/hj+&#xA;nyNunnnhLKZE7R2H6UzT8wfJjsVGqxAj+YOo+8qMwj2FrB/k/tH62383j70bB5q8szmkWrWjMei+&#xA;vGDt7E1zFl2bqRzxz/0pZjPDvHzR0d9ZSkCO4jcmlOLqevTocx54Jx+qJHvDMTB5FXypkkHr/ob8&#xA;xdH1GvG11mN9LuvD1a+pbn5lvhzbRj4+gyY/4sR8SPu5S+AG/vaL4M0T0lt+pE+eIv0V580XWPs2&#xA;2qxPpd03RfUU+pAT2qx+EZV2VLxtDlxfxYyMg93KXy5/FlqBw5Yy6S2/UyXTdMa5Ikk+GAH6W9hm&#xA;nzZhHbq5EIWyBEVFCIAqrsAM15JJsuQAsurW1u7d7a6hSe3lHGSGRQ6MPAq1QcljyShISiSJDqES&#xA;iCKLFdD1jUPyp1SVo4Lm/wDy9vayT20X72TTJyd5I1J5GFh9odvn9r072e9oo6mPh5iBmHL+l+3y&#xA;+XlodbojA8Ufp+57lomu6PrumQ6ppF3He2FwKxXERqp8Qe4Ydwdx3zrHWI7FXYq7FXYq7FXYq7FX&#xA;Yq7FXYq7FXYq7FXYq7FXYq7FWP65+XvkbXZWn1fQbG8uG+1cSQJ6p+cgAf8AHFXi/wCVlhYW9p5g&#xA;msYVgtLnW742sSdEgRwkUY3Oyhds8w9s8l6uI/mwH3l6DssfuyfNMvzA1250ry+0WngvrOqSJp+k&#xA;xJ9pri4PBSv+qKt86Zq+wOzvzWqjE/RH1S9w6fE7ORrM3h4yep5PSfJf5aeWPLXlzT9LGn2lxdWs&#xA;Krc3zwRtJLN9qRy7Ly3diVqdhtnsby7IZtG0eZAk1jbyoNwrxIw+4jFUmu/yz/Lq7/3o8saU52+L&#xA;6nAG2/yggOKpPdfkN+UV1X1PLVutQR+6eaHr/wAY3TFNoBv+cc/yqFfqthc2Y/ZEF7dDifEc5HyJ&#xA;iDzCiRYh+aH5F+VtD8k6nr2k3mppqGkRreWqy3LTxepE4PJkcHotd67ZWdPjN+kbiuXTuZDJLvWe&#xA;cNHbzX5CdIqG8lt472xdO06KJE4Hty+zX3zyPszU/ktbv9IkYS93I37ufwelzw8XF51YRn5dflL5&#xA;E82eStK15tQ1iaW7hH1hW1CT93OnwTRigX4VkVqV7Z6zHR4Y8oRHwDzZyy7yyT/oXnyJ/wAtOrf9&#xA;xCbJ/lsf82PyCPEl3vLfzH8h61+X/mS3vNM1/UbLytqCiK3vJZWuYbW8A2S7R6hopOoam1T4b6zt&#xA;Ps/FLGZDDDIeoqpEf0T3/fycjT55A1xEfc9ItDK9nCZ2SWVo19V4/wC7Zio5Fa/sk9M8fy0JnhsC&#xA;9r5/HzeljdbsXbyxrnlnU5Ne/L+4SxupDyvtDlr+j7ynYoCPSfwZafRvnYdje1k8VY9Rcofzv4h7&#xA;/wCcPt9/J1uq7OEt4bHuej/l/wDmxonmt3024jfR/M9sP9M0S6+GUU6vCxoJU9138R0r6JhzwywE&#xA;4ESieodHOBiaPNnOWsXYq7FXYq7FXYq7FXYq7FXYq7FXYq7FXYq7FXYqhtTvUsdNu76SnC1hknev&#xA;Skalj+rFXg/5S2zwfl/pRkNZbhZbiRj3M0zvX7iM8f8AaXJx67JXSh8oj9L0+hjWEJl5D0//ABd+&#xA;alzrD/Honk1Ta2g6pJqU4pKw7H0U29moRnceynZ3gabjkPXl3/zf4f1/F1PaOfjnQ5Re351DrnYq&#xA;7FXYq7FUNqenWmp6bdabeJ6tpewyW9xGf2o5VKOPpBxV4P5Be+0iTUPI+rtXVfLcnpROdvXsW3t5&#xA;l9uJA9tq755f7W9mnDn8aI9GT/ddfnz+b0PZ2fihwnnH7k9/J++OgeePMXkyU8bO/wD9zuiqdgBI&#xA;RHdRr2+FwCFHapztPZ3XfmdJEn6o+k/D9Youq12HgyHuO72TN44aF1XStO1bTrjTdSt0urG6Qx3F&#xA;vIKqynsf4HtirxHWfJnnD8uHefRI5vMfkgEs2nj47/T06n06/wB9Ev3j23Y8z2z7NYtXc4ejL39J&#xA;e/8AX97sNLr5Y9jvFMvL3mfQ/MNmLvSbpLiMbSINpIz/ACuh+JT88801vZ+bSz4csTE/YfcXe4s0&#xA;cguJQ/mfyfpPmGOJrgPb6hbHlY6nbMY7mBwagpIu/Xt/HMjsztfPo5XjPp6xPI/t82GfTQyij81b&#xA;y9+bOv8AlO4i0f8AMUfWdOdhFY+bYE/dmuyrexr/AHbf5Y/Hds9Q7K7cwa2PpPDPrE8/h3j8GnQa&#xA;nSTxHfl3vZLa5trq3jubaVJ7eZQ8M0bB0dGFQystQQR3GblxFTFXYq7FXYq7FXYq7FXYq7FXYq7F&#xA;XYq7FXYqwP8APHzB+h/y21ZIvivtWT9FWEINGkmvf3VF9xGWb6MjOYiDI7AJiLNB57rd+PJnkGGK&#xA;Aepe21vDYafGoqZLpkEcdB3+L4j7A55BotOe0NedvTOZlLyjd/s9702Wfg4fMCvi9V/LHyaPKHkv&#xA;T9HkIe+CmfU5upku5jzmYt+1QniD4AZ7AAAKDzJNspwodirsVdirsVdiryT89tFfTv0V+Yenwlrv&#xA;QZBBqyoPil02c8Xr4mJmqvhUntmv7U0I1WnliPUbeR6fjub9PmOOYkxbzteHS30Hz9p375tBuUnm&#xA;Me5l0+6AjnUeNUYU8NznB+yWrODVSwT24/slH8H407jtLGJ4xMdPuL6At7iC5t4riBxJBMiyRSLu&#xA;GRxVWHzBz0x0CpirsVef+cvyX8s6/eNq+nSS+XvMhJYatp/wF2P+/wCLZJQe/QnxynPp8eWPDkiJ&#xA;R7izhklE2DTBdQf8yPJYP+KdNGuaOnXX9IUs6KP2rm12ZfFmX4R75xfaXsbE3LTnh/oy5fA8/nfv&#xA;drg7UPKY+KZ6brHlzzNprvZTwalYyrxmi2YUb9mSNhUfJhnE59LqNJkHGJY5jkf1EfodrDJDINtw&#xA;k2n2vm78vbh7zycW1Py87GS88q3Dk8a7s9lIalG/ye/+UaU7Xsb2tEqx6nY/z+n+d3e/l31zdVqu&#xA;zesPk9a8jfmJ5Z852DXGkTlbqCi32mzj07q3foVljPvtyFQfHO6jIEWNwXUEUybCh2KuxV2KuxV2&#xA;KuxV2KuxV2KuxV2KuxV4b5q1RfOn5pCCI89A8k1Un9mXVZdm+foKtPZvnnJe1vaXg4PCifXk/wBz&#xA;1+fL3W7Ls3BxT4jyj97Xl3Tz5w/NiJWAk0LyWq3NwDusmpzA+ivv6Kjn7MKd8j7IdneFgOaQ9WTl&#xA;/VH6zv7qZdp5+KXCOQ+97nnXurdirsVdirsVdirsVQ+padZ6lp9zp17EJrO8ieC4ibo0cilWU/MH&#xA;FXz/AOT7J7e21z8u9b/fT6G72fxbGbT7hSYJPpjanttnmftRpJaXVx1GPbi9XunH8A+e7v8As/IM&#xA;mMwPT7mcfkJrdyfL995R1GT1NT8p3H1IMer2bjnaSfLhVR7AZ6FotVHUYY5Y8pC/1j4HZ0ubGYSM&#xA;T0eoZlNTsVdirsVYB5t/JXynrd22q6cZPL3mDcrqumn0izHf99EKRyg/tVoT45Tn0+PLHhyREo9x&#xA;ZwySibBpguov+Y3kuv8AifTf07oqf9L/AElCXRR+1c2v2l/ymX4R75xfaXsbE3LTnh/oy5fA8/nf&#xA;vdrg7UPKY+KAl03y95qli8yeUtXFh5htwDDqtkQJB4JcxGhZTShDjp7bZpdF2lrOy5+HlifD/mn/&#xA;AHp5fLZysuDFqBcTv+ObMvJ/5zTQ38Plz8wYI9H1p/gtNUQkafensUkO0Tn+Vtq+FQuei9n9pYdX&#xA;DixG+8dR7x+A6TNp5YzUg9WBBFR0zPaHYq7FXYq7FXYq7FXYq7FXYq7FWEfm355l8qeWCNOpJ5i1&#xA;ZxY6HbihZriTb1KH9mIHke1aA9cry5Y44GcjUYiyyhEyNB5pHFZ/l7+X00rN601nE008rGpnvJTS&#xA;pJ3+KRgPlnkk8k+1NeOgma90R+zf3vSADT4fd970v8nfJ83lnyRaxXwrrWps2paxKRR2ubn42Vvd&#xA;Foh9xnrmPHGERGIqIFB5uUiTZZvk2LsVdirsVdirsVdirsVeO/nVpx0HzJoXn+AcbZWGkeYKbD6t&#xA;O1YZm/4xydT/AKozT9u9n/mtLKA+oeqPvH6+XxcrR5vDyA9EDo1wdD/OvR7hSVtvM9jcadcr+z61&#xA;oPXic/5RA4DNH7F6oywzxH+CVj3S/aD83M7Vx1IS7/0PcM7R1LsVdirsVdirsVefeb/yT8o67dtq&#xA;un+p5e8wbldW0w+kzMd/30QokgP7XQnxyrNghljwzAlE9DuyhMxNg08680aF560TT5bDzpoqebvL&#xA;hFG1bTErOgH7c1r8LKw684zRfHOU1HsucU/F0czjmOh5fPu8jxW7KHaAkOHKOIITyR+Zmo+UrYSa&#xA;bfP5u8hxU9a3rXVNMQ9PhfizxL4NT2oBvstD2vPiGHVR8LKeR/hl/VPf5f2NGbTCuLGeKP2h9BaD&#xA;r2ka/pNvq2j3SXmn3S84Z460I6EEGhVgdipFQeub5wkfirsVdirsVdirsVdirsVdirw3WmbWvzv1&#xA;2S8POPyraWdrpkR+yjX0PryygfzGpWvhnF+2mrlDDDEOWQm/82tvmfsdt2VjBkZd36UN5gshr3nz&#xA;yb5Xk3s57uTUr9D0aOwT1FRvEO22a/2J0wM8mU84gRHx3P3Bu7VyVERe956I6N2KuxV2KuxV2Kux&#xA;V2KuxV57+ft9YWv5Ua7Hduoa7iS3tImoWkneRSiovdhTlt4V7YlIYFFBNP8AmB+W2lMCJonuLuev&#xA;VfqlpWh69WNM4X2RAlmzzHKxXxMi7ftLaEAfxye/53Tp3Yq7FXYq7FXYq7FXYq8U/MXS7PRfzg8u&#xA;alawJbr5isr2yvDGqoskttSdXkpSrtypU7mmc17WYBPRSP8AMMT9tfpc/s2dZQO9JTNefllrbeZ9&#xA;EjZ/K126jzJokf2YwSF+t26dFZP2l6H5fZ1nsz7QnIRgzH1fwy7/ACPn3Hr7+eRr9EB648ur36xv&#xA;rS/soL6zlWe0uo1mt5kNVeNxyVh7EHO4dQr4q7FXYq7FXYq7FXYq7FXiGpxLb/nh5mVRw+u6bYXE&#xA;gO3NowYQ48aAcc4j22gDixy7pEfMfsdt2SfUR5K3kqE6j+eNxNSsGh6Jwr4T3c4I++IHMv2OwmOk&#xA;Mj/HM/IUPvBa+1J3kruD2nOsda7FXYq7FXYq7FXYq7FXYq8J1+5fzl+at9JcMH0LyY62un22/F9Q&#xA;ZQ007jpyiPwD5AjvnHe1/aZw4hhh9WTn/V/b91u07M04lLiPT70VoiCf88tEU/8AHppF5OK/8WOs&#xA;Xw+++Q9iYVgnLvnXyH7WXap9YHk9sztHUuxV2KuxV2KuxV2KuxVgn5seR9Y8y2Wl3ugywRa7oV39&#xA;bs0uuXoyqylJIXZfiXkKb+30jH1emjnxSxy+mQpsxZDCQkOjyfUfzNOkaofLXnXy/c6ZqU6hGgjM&#xA;d3BKkvwgqykclb2B8Ouef6n2Pz4Tx4skTw77+kivmPjYd1j7ShLaQ5/Fkn5ZebpPI2pQeQ/MEgGh&#xA;3UjnyrrDE8f3jlvqczHYMC3wH6PCnXdi9sQ1uK+WSP1D9PuLrNXpjil5dHt+bpxHYq7FXYq7FXYq&#xA;7FXYq8U/MWSLRvzp07Ubt1gsdZ0SS0WaRgqfWLSczNVm6fu2Gcx7WaSebSDgFmMwaHPqP0uw7NyC&#xA;OTfqEf8AkHHHqF75z80I3qRalqi2VtN1V4LCIKjo3Qo3q7EeGbTsbTHDpMcCKPDv7zuftLj6vJxZ&#xA;CfN65mzcd2KuxV2KuxV2KuxV2KofUb6Cw0+6v56+haRPPLTc8I1LtT6Bir5b/Kjy7qv5kmW0uDNb&#xA;eW3u7jU/NN5GxjN3eXTkpaRv3ATi0n/XNdZHs8S1UtROiQBGHkOZPvJJ+Hvck56xiA95XWN7qPkb&#xA;8y9Ks9VneWfy3qH6Pe7lO9xoupjjDM5/a9BiK+BIHbIYNMNPqZcIrHlF+QnHn/phv/mlM58eMXzj&#xA;937P0vqrNs4rsVdirsVdirsVdirsVdiqUeZPKHljzNaC11/TINRhSpj9ZAWQnqUcUdP9iRirArz/&#xA;AJxp/K64VI4oL20t1cObeG8mMZpWgIlMu2/bf3yPCLut08ReqZJDsVdirsVdirsVdirsVSrzD5V8&#xA;t+Y7eK213TbfUYYX9SFLhA/BvFa7ivfxxVG6fp2n6bZxWWn20VnZwDjDbQIscaDwVVAAxVEYq7FX&#xA;Yq7FXYq7FXYq7FWnRHRkdQyMCrKwqCDsQQcVQ2m6Vpml2i2emWcFjaISUt7aNIYwWNSQiBV3xV4p&#xA;/wA5TeRpL/y5F5tsI63elr9W1FQK+pZSsCCfH0ZaMPCpPbIyiD8GUS9L/KvzK/mb8vNB1qU8p7i1&#xA;VLlz+1NATDK2/jJGxyTEsqxV2KuxV2KuxV2KuxV2KuxV2KuxV2KuxV2KuxV2KuxV2KuxV2KuxV2K&#xA;uxV2KuxV2KuxV2KuxV2KoTV/0Z+irz9K+n+jPQk+vevT0vQ4n1OdduPGtcVQflH/AAx/hyx/wt6H&#xA;6B4N9R+q09HjzPLjTvz5cu9a1xVN8VdirsVdirsVdirsVdirsVdir//Z</xmpGImg:image>
               </rdf:li>
            </rdf:Alt>
         </xmp:Thumbnails>
      </rdf:Description>
      <rdf:Description rdf:about=""
            xmlns:xmpMM="http://ns.adobe.com/xap/1.0/mm/"
            xmlns:stRef="http://ns.adobe.com/xap/1.0/sType/ResourceRef#"
            xmlns:stEvt="http://ns.adobe.com/xap/1.0/sType/ResourceEvent#">
         <xmpMM:InstanceID>xmp.iid:63221B6208206811822A9DD448A483FF</xmpMM:InstanceID>
         <xmpMM:DocumentID>xmp.did:63221B6208206811822A9DD448A483FF</xmpMM:DocumentID>
         <xmpMM:OriginalDocumentID>uuid:5D20892493BFDB11914A8590D31508C8</xmpMM:OriginalDocumentID>
         <xmpMM:RenditionClass>proof:pdf</xmpMM:RenditionClass>
         <xmpMM:DerivedFrom rdf:parseType="Resource">
            <stRef:instanceID>uuid:ba5dc92b-6d0a-484a-ab90-b9370a4a0965</stRef:instanceID>
            <stRef:documentID>xmp.did:0980117407206811822A897E387FE54C</stRef:documentID>
            <stRef:originalDocumentID>uuid:5D20892493BFDB11914A8590D31508C8</stRef:originalDocumentID>
            <stRef:renditionClass>proof:pdf</stRef:renditionClass>
         </xmpMM:DerivedFrom>
         <xmpMM:History>
            <rdf:Seq>
               <rdf:li rdf:parseType="Resource">
                  <stEvt:action>saved</stEvt:action>
                  <stEvt:instanceID>xmp.iid:63221B6208206811822A9DD448A483FF</stEvt:instanceID>
                  <stEvt:when>2018-09-05T11:39:45-03:00</stEvt:when>
                  <stEvt:softwareAgent>Adobe Illustrator CS6 (Macintosh)</stEvt:softwareAgent>
                  <stEvt:changed>/</stEvt:changed>
               </rdf:li>
            </rdf:Seq>
         </xmpMM:History>
      </rdf:Description>
      <rdf:Description rdf:about=""
            xmlns:illustrator="http://ns.adobe.com/illustrator/1.0/">
         <illustrator:StartupProfile>Print</illustrator:StartupProfile>
      </rdf:Description>
      <rdf:Description rdf:about=""
            xmlns:xmpTPg="http://ns.adobe.com/xap/1.0/t/pg/"
            xmlns:stDim="http://ns.adobe.com/xap/1.0/sType/Dimensions#"
            xmlns:xmpG="http://ns.adobe.com/xap/1.0/g/">
         <xmpTPg:HasVisibleOverprint>False</xmpTPg:HasVisibleOverprint>
         <xmpTPg:HasVisibleTransparency>False</xmpTPg:HasVisibleTransparency>
         <xmpTPg:NPages>1</xmpTPg:NPages>
         <xmpTPg:MaxPageSize rdf:parseType="Resource">
            <stDim:w>21.000131</stDim:w>
            <stDim:h>29.700013</stDim:h>
            <stDim:unit>Centimeters</stDim:unit>
         </xmpTPg:MaxPageSize>
         <xmpTPg:PlateNames>
            <rdf:Seq>
               <rdf:li>Cyan</rdf:li>
               <rdf:li>Magenta</rdf:li>
               <rdf:li>Yellow</rdf:li>
               <rdf:li>Black</rdf:li>
            </rdf:Seq>
         </xmpTPg:PlateNames>
         <xmpTPg:SwatchGroups>
            <rdf:Seq>
               <rdf:li rdf:parseType="Resource">
                  <xmpG:groupName>Default Swatch Group</xmpG:groupName>
                  <xmpG:groupType>0</xmpG:groupType>
               </rdf:li>
            </rdf:Seq>
         </xmpTPg:SwatchGroups>
      </rdf:Description>
      <rdf:Description rdf:about=""
            xmlns:pdf="http://ns.adobe.com/pdf/1.3/">
         <pdf:Producer>Adobe PDF library 10.01</pdf:Producer>
      </rdf:Description>
   </rdf:RDF>
</x:xmpmeta>
                                                                                                    
                                                                                                    
                                                                                                    
                                                                                                    
                                                                                                    
                                                                                                    
                                                                                                    
                                                                                                    
                                                                                                    
                                                                                                    
                                                                                                    
                                                                                                    
                                                                                                    
                                                                                                    
                                                                                                    
                                                                                                    
                                                                                                    
                                                                                                    
                                                                                                    
                                                                                                    
                           
<?xpacket end="w"?>
	</metadata>
<g>
	<path fill="none" d="M-11.481-1.334L6.457,3.208L4.72-1.873c-0.007-0.001-0.014,0-0.021-0.002
		C-0.053-2.819-4.904-4.571-9.735-7.066C-9.9-6.047-10.352-3.916-11.481-1.334z"/>
	<path fill="#FFF301" d="M25.187-76.06c0.608,0.477,1.527,1.108,2.59,1.839c1.553,1.068,3.48,2.399,5.466,3.942
		c0.839-0.268,1.777-0.63,2.816-1.131c2.507-1.211,4.346-1.376,5.604-1.211c-1.029-2.67-1.861-4.779-2.337-5.891
		c-1.765-4.12-5.456-5.234-7.012-5.528c-0.013,0.284-0.015,0.563-0.055,0.855c-0.058,0.421-0.407,0.742-0.832,0.764l-9.555,0.497
		C21.95-80.913,22.422-78.223,25.187-76.06z"/>
	<path fill="#FFF301" d="M36.676-70.134c-0.757,0.366-1.459,0.654-2.124,0.899c4.763,3.901,9.487,8.993,9.972,14.799
		c0.03,0.366-0.166,0.698-0.471,0.858c2.092,8.959,1.748,21.242-3.35,30.799C33.245-8.794,16.367-6.825,13.954-6.614l1.174,3.783
		c9.356-0.427,16.098-4.057,19.37-5.825c1.97-1.063,2.706-1.46,3.385-0.877c0.474,0.406,0.73,0.942,0.741,1.548
		c0.022,1.22-0.919,2.641-3.051,4.608c-0.514,0.475-1.061,0.857-1.5,1.165c-0.176,0.124-0.39,0.272-0.558,0.402
		c0.14,0.078,0.341,0.177,0.631,0.297c3.55,1.481,7.756-0.923,7.798-0.948c20.442-11.979,11.946-37.522,11.858-37.779
		c-0.087-0.236-7.157-19.375-11.531-30.798C41.444-71.332,39.656-71.573,36.676-70.134z"/>
	<path fill="#FFF301" d="M-37.355-25.77l5.073-4.08c-1.961-1.236-7.251-4.738-9.125-7.654c-0.71-1.105-0.892-2.109-0.539-2.982
		c0.621-1.536,2.669-2.034,2.756-2.055c7.038-0.418,13.588-4.65,15.523-6.008l0.412-1.236c-4.598-2.397-18.31-9.552-26.226-13.753
		c-0.957,3.438-0.956,6.101-0.576,10.212c1.29,13.972,10.36,25.076,12.605,27.631L-37.355-25.77z"/>
	<path fill="#FFF301" d="M-10.622-54.419L9.591-70.39c2.281-1.596,7.348-5.754,9.08-9.448c-4.729-1.326-7.126,3.244-7.234,3.458
		c-0.125,0.247-0.375,0.39-0.634,0.39c-0.107,0-0.215-0.024-0.317-0.076c-0.349-0.175-0.491-0.6-0.316-0.949
		c0.036-0.072,0.899-1.773,2.621-3.065c1.375-1.031,3.521-1.949,6.351-1.112c0.046-0.201,0.085-0.401,0.103-0.596l-6.175,0.321
		c-1.931,1.73-14.356,12.834-17.355,14.679c-0.569,0.35-1.276,0.508-2.106,0.508c-2.759,0-6.884-1.751-11.78-4.013
		c-0.011,0.003-0.02,0.012-0.031,0.016c-1.544,0.425-3.047,0.635-4.479,0.635c-2.082,0-4.01-0.454-5.714-1.326
		c-0.136-0.034-0.268-0.09-0.38-0.191c0,0,0-0.001-0.001-0.001c-0.61-0.342-1.189-0.74-1.731-1.196
		c-2.537-2.131-4.004-5.319-3.738-8.121c0.039-0.407,0.092-0.779,0.141-1.122c0.208-1.46,0.258-1.808-0.785-2.408
		c-1.006-0.575-2.696,0.64-3.209,1.113c-0.047,0.043-4.152,3.8-7.541,9.967c8.541,4.487,23.902,12.288,31.021,15.882
		C-14.083-56.902-12.106-56.269-10.622-54.419z"/>
	<path fill="#FAC617" d="M-121.042-45.033l-2.878,4.063c-0.029,0.041-0.061,0.079-0.096,0.114c-0.003,0.003-0.649,0.706-0.397,1.082
		c0.024,0.037,0.048,0.073,0.179,0.077c0.417-0.019,1.062-0.369,1.253-0.624c0.356-0.474,2.949-3.824,4.536-5.873
		c-0.847,0.317-1.689,0.632-2.497,0.936C-120.969-45.18-120.993-45.103-121.042-45.033z"/>
	<path fill="#FAC617" d="M7.481-21.486c-0.064-0.206-0.05-0.429,0.038-0.625c3.348-7.458-4.403-12.114-4.735-12.309
		c-0.126-0.074-0.233-0.178-0.309-0.303c-0.066-0.108-1.633-2.691-2.836-6.126c-0.231-0.661-0.326-1.282-0.327-1.862
		c-0.159-0.396-0.178-0.805-0.05-1.223c0.097-0.319,0.277-0.619,0.502-0.896c0.416-0.924,1.045-1.629,1.599-2.068L-0.955-58.26
		c-0.158-0.381-0.302-0.779-0.419-1.208L-9.56-53c-0.042,0.033-0.09,0.049-0.135,0.074c0.636,1.354,0.986,3.128,0.723,5.45
		c-0.051,0.452-0.435,0.786-0.879,0.786c-0.033,0-0.067-0.001-0.101-0.005c-0.486-0.055-0.835-0.494-0.78-0.98
		c0.74-6.514-4.167-7.623-4.376-7.667c-0.076-0.016-0.153-0.042-0.222-0.077c-1.438-0.727-35.26-17.806-37.331-19.359
		c-1.398-1.05-4.308-0.744-5.311-0.536c-0.415,0.119-47.487,13.36-50.153,14.194c-1.916,0.599-3.805,3.895-4.371,5.114
		c-0.033,0.072-0.077,0.14-0.128,0.201l-3.821,4.496l1.319-0.484c0.458-0.169,0.968,0.066,1.137,0.526
		c0.168,0.459-0.067,0.968-0.526,1.137l-13.375,4.91c-0.07,0.026-0.143,0.042-0.217,0.05c-0.322,0.036-0.691,0.196-0.738,0.294
		c0.025,0.214,0.088,0.308,0.218,0.376c0.239,0.125,0.573,0.095,0.712,0.025c0.685-0.343,11.758-4.464,13.971-5.287
		c0.064-0.024,0.131-0.041,0.199-0.049c0.578-0.073,3.489-0.339,4.009,1.482c0.4,1.4-0.699,2.5-1.491,2.982l-3.645,3.644
		c-0.089,0.089-0.196,0.158-0.314,0.203c-0.061,0.026-0.237,0.133-0.281,0.25c-0.029,0.08,0.001,0.221,0.085,0.388
		c0.061,0.122,0.112,0.169,0.125,0.177c0.09,0.023,0.402-0.007,1.407-0.811c0.827-0.661,5.351-4.515,5.397-4.553
		c0.061-0.052,0.129-0.096,0.203-0.13c0.495-0.233,1.832-1.09,2.04-2.233c0.356-1.956,4.538-9.275,5.014-10.103
		c0.243-0.424,0.783-0.572,1.209-0.327c0.393,0.226,0.532,0.704,0.359,1.111l40.445-11.015c0.102-0.03,2.767-0.768,4.941,0.616
		c1.447,0.92,22.434,11.895,33.329,17.569c0.144,0.075,0.264,0.188,0.348,0.326c0.551,0.908,2.319,3.995,1.922,5.583
		c-0.101,0.403-0.461,0.672-0.859,0.672c-0.071,0-0.143-0.009-0.215-0.027c-0.475-0.118-0.764-0.599-0.645-1.074
		c0.128-0.513-0.576-2.201-1.378-3.643l-5.217,15.651c-0.04,0.119-0.104,0.228-0.188,0.319l-3.894,4.232
		c-0.031,0.034-0.065,0.066-0.102,0.095l-17.045,13.49l17.406-10.042c0.081-0.046,7.805-4.349,13.297,1.874
		c2.357,2.671,3.604,4.959,4.071,7.046l1.744,2.326l11.744,0.036c0.151-0.328,0.284-0.687,0.388-1.085
		c0.996-3.814,2.677-13.709,2.694-13.809c0.082-0.482,0.542-0.807,1.021-0.726c0.482,0.082,0.807,0.539,0.726,1.021
		c-0.068,0.401-1.642,9.656-2.661,13.693l14.419,42.198c0.048,0.142,0.06,0.294,0.034,0.442c-0.641,3.59,3.505,10.43,5.157,12.763
		c0.03,0.042,0.056,0.087,0.078,0.134C27.067,51.829,33.19,65.026,33.19,66.03l0.003,0.34c0.03,2.493-0.098,5.201-1.279,6.382
		c-0.88,0.879-2.785,4.026-3.524,5.299l-2.341,9.026c-0.098,0.277-0.175,0.571-0.222,0.821c0.129-0.125,0.256-0.267,0.349-0.39
		c0.053-0.065,2.544-3.06,3.85-5.181c0.62-1.008,1.373-1.22,1.896-1.22c0.001,0,0.002,0,0.003,0c1.49,0.002,2.618,1.724,2.829,2.069
		l5.86,11.711l-4.411-13.687c-0.03-0.095-0.044-0.193-0.042-0.292c0.007-0.307,0.183-7.583,1.2-13.339
		c0.953-5.404-5.275-17.949-5.338-18.075L20.987,22.001L7.481-21.486z"/>
	<path fill="#FAC617" d="M128.11,81.298c-0.046-0.034-0.088-0.073-0.127-0.116l-4.571-5.08c-0.076-0.085-0.135-0.183-0.174-0.29
		c-2.583-7.102-12.776-14.233-12.878-14.304l-57.063-40.3c-0.099-0.07-0.183-0.16-0.246-0.264c-3.206-5.274-8.824-6.349-8.88-6.359
		l-6.741-1.655L24.931,24.589c1.721-0.035,3.416-0.08,5.045-0.127c10.032-0.291,17.279-0.5,19.778,2.576
		c0.309,0.38,0.251,0.938-0.129,1.246c-0.164,0.133-0.362,0.198-0.558,0.198c-0.257,0-0.513-0.112-0.688-0.327
		c-0.608-0.749-1.77-1.243-3.346-1.559c5.607,9.033,22.996,16.778,23.179,16.859c15.854,7.96,39.937,19.929,41.473,20.351
		c1.327,0.163,1.808,2.415,2.646,7.902c0.248,1.621,0.504,3.297,0.71,3.812c0.495,1.021,7.01,2.829,8.489,2.829
		c0.489,0,0.886,0.396,0.886,0.886s-0.396,0.886-0.886,0.886c-0.185,0-0.837-0.093-1.727-0.268c2.031,1.126,5.298,1.517,6.652,1.561
		c0.079,0.002,0.158,0.016,0.233,0.039c0.709,0.219,1.504,0.385,2.035,0.438C128.56,81.692,128.331,81.465,128.11,81.298z"/>
	<path fill="#FAC617" d="M-126.153-41.12c-0.374-0.124-0.31,0.243-0.049,0.742c0.048-0.266,0.132-0.52,0.247-0.754
		C-126.031-41.108-126.097-41.102-126.153-41.12z"/>
	<path fill="#FAC617" d="M6.89-50.749c-0.101-0.074-0.2-0.147-0.301-0.222l0.226,0.275L6.89-50.749z"/>
	<path fill="#FAC617" d="M-18.813-21.933c-4.529-5.131-10.822-1.659-11.088-1.509L-56.308-8.207
		c-0.162,0.094-0.338,0.114-0.51,0.101l-1.922,1.521c-0.446,0.322-10.067,7.43-5.489,20.462c0.33,0.654,3.561,6.71,10.568,8.784
		l7.6-9.937c0.045-0.279,0.087-0.52,0.125-0.71c1.006-5.027,2.76-12.107,6.352-15.534c3.646-3.482,8.185-8.851,8.23-8.904
		c0.315-0.374,0.875-0.422,1.248-0.105c0.374,0.315,0.421,0.874,0.106,1.248c-0.046,0.055-4.646,5.496-8.361,9.043
		c-3.603,3.438-5.285,11.839-5.838,14.6c-0.291,1.451-0.859,6.125-1.476,11.255c0.076,0.114,0.135,0.24,0.151,0.386
		c0.034,0.29-0.088,0.553-0.287,0.738c-0.772,6.427-1.646,13.691-2.279,17.395c-1.103,6.465-8.709,18.954-11.573,23.655
		l-0.729,1.203c-1.813,3.021-0.592,7.91-0.58,7.959c0.016,0.061,0.025,0.125,0.027,0.188c0.093,2.508,0.448,9.36,0.971,10.927
		c0.102,0.307,0.189,0.605,0.272,0.89c0.483,1.653,0.571,1.951,2.059,1.58c1.774-0.445,1.734-1.511,1.708-1.721
		c-0.012-0.099-0.01-0.219,0.011-0.317c0.025-0.116,2.526-11.65,2.69-14.759c0.177-3.347,3.655-11.002,3.804-11.327
		c1.262-2.692,30.854-65.769,33.042-69.809C-14.307-13.238-14.037-16.521-18.813-21.933z"/>
	<path fill="#FAC617" d="M-14.83-8.552c-0.602,1.112-3.401,6.955-7.133,14.819h3.404c-0.015-0.244,0.062-0.493,0.249-0.68
		c6.136-6.136,6.891-13.388,6.898-13.46c0.015-0.16,0.079-0.304,0.169-0.429c-0.02-0.173-0.004-0.352,0.084-0.517
		c0.041-0.075,0.1-0.13,0.157-0.188l-2.47-2.91C-13.75-10.782-14.223-9.673-14.83-8.552z"/>
	<path fill="#FAC617" d="M10.463-68.823L0.164-60.684c0.312,1.602,0.894,2.842,1.756,3.653c4.021,3.784,13.044,9.791,13.135,9.851
		c0.003,0,0.77,0.391,1.961,0.709c1.224,0.164,2.708,0.209,3.838,0.209c0.371,0,0.696-0.004,0.98-0.01
		c0.638-0.131,1.287-0.336,1.934-0.641l3.32-1.877c3.552-2.254,6.589-4.842,6.628-4.875c-0.003,0,2.935-3.002,3.575-6.957
		l-8.833-2.781c-0.3-0.094-0.502-0.375-0.496-0.69s0.219-0.587,0.522-0.669l6.513-1.771c-0.817-0.724-1.649-1.415-2.479-2.068
		c-1.413,0.354-2.5,0.444-3.187,0.444c-0.538,0-0.838-0.049-0.876-0.056c-0.386-0.068-0.643-0.436-0.575-0.821
		c0.068-0.384,0.431-0.64,0.817-0.576c0.014,0.003,0.843,0.125,2.339-0.125c-1.551-1.158-3.032-2.18-4.264-3.027
		c-1.088-0.748-2.027-1.394-2.679-1.903c-1.88-1.471-2.875-3.159-3.407-4.584c-0.114,0.041-0.237,0.043-0.36,0.021
		c-0.946,2.087-2.702,4.158-4.464,5.889l3.996,6.073c0.164,0.249,0.155,0.574-0.023,0.813c-0.136,0.183-0.349,0.285-0.568,0.285
		c-0.068,0-0.136-0.01-0.204-0.03l-8.465-2.54C10.547-68.754,10.51-68.796,10.463-68.823z M21.842-62.025
		c0.257-0.295,0.705-0.324,1-0.066l1.777,1.555l1.699-0.212c0.393-0.05,0.742,0.227,0.791,0.615s-0.227,0.743-0.615,0.791
		l-2.015,0.252c-0.029,0.004-0.059,0.005-0.088,0.005c-0.17,0-0.337-0.062-0.467-0.175l-2.017-1.764
		C21.614-61.282,21.584-61.73,21.842-62.025z M12.794-65.783l4.281,5.71c0.149,0.13,0.244,0.321,0.244,0.535
		c0,0.392-0.317,0.708-0.708,0.708c-0.008,0-0.014,0-0.02,0c-0.077,0-0.154-0.012-0.229-0.038L7.145-62.02
		c-0.265-0.091-0.452-0.33-0.477-0.609c-0.024-0.279,0.119-0.547,0.365-0.682l4.853-2.668
		C12.195-66.149,12.583-66.065,12.794-65.783z"/>
	<path fill="#FAC617" d="M-37.355-25.77l5.058-4.003l0.05-0.054c-0.013-0.008-0.022-0.014-0.035-0.022L-37.355-25.77z"/>
	<path fill="#EE1B22" d="M-5.215-68.296c3.05-1.876,17.191-14.569,17.333-14.698c0.15-0.135,0.343-0.215,0.546-0.226l17.904-0.93
		c0.219-5.557-5.974-9.26-6.788-9.721c-0.907-0.228-7.033-1.772-10.835-2.891c-3.479-1.023-5.556,1.818-5.576,1.848L0.6-84.518
		c-0.093,0.143-0.225,0.255-0.38,0.325l-22.574,10.104c1.217,0.469,2.777,1.193,4.422,1.957
		C-13.629-70.136-7.129-67.121-5.215-68.296z"/>
	<path fill="#EE1B22" d="M-20.914-71.551c-0.874-0.393-1.676-0.739-2.33-0.98c-1.181-0.435-2.269-0.294-3.3,0.43
		C-24.862-71.478-22.958-71.29-20.914-71.551z"/>
	<path fill="#FFF301" d="M-2.866-8.96l-4.326,1.18c3.771,1.802,7.538,3.125,11.243,3.95l-2.827-8.274
		C-0.323-9.632-2.74-8.992-2.866-8.96z"/>
	<path fill="#AEA71C" d="M40.703-22.778c5.098-9.558,5.442-21.84,3.35-30.799c-0.102,0.054-0.216,0.088-0.338,0.098
		c-0.025,0.002-0.05,0.003-0.075,0.003c-0.456,0-0.843-0.35-0.882-0.812c-0.234-2.804-1.641-5.468-3.584-7.91
		c0.056,5.438-4.062,9.641-4.254,9.833c-0.261,0.227-5.281,4.51-10.172,6.956c-1.664,0.832-3.327,1.118-4.825,1.118
		c-3.186,0-5.63-1.292-5.779-1.372c-0.232-0.152-2.778-1.847-5.739-3.981l-5.732,3.979c-0.113,0.075-2.295,1.563-1.362,4.229
		c0.97,2.77,2.213,4.995,2.574,5.616c1.352,0.878,8.725,6.128,5.385,14.122l4.684,15.084C16.367-6.825,33.245-8.794,40.703-22.778z"
		/>
	<path fill="#AEA71C" d="M-0.688-42.712c-0.002-0.792,0.175-1.504,0.452-2.119c-0.225,0.277-0.405,0.577-0.502,0.896
		C-0.865-43.517-0.847-43.108-0.688-42.712z"/>
	<path fill="#AEA71C" d="M23.956-46.994c1.048-0.524,2.111-1.146,3.133-1.795l-3.32,1.877
		C23.831-46.941,23.894-46.962,23.956-46.994z"/>
	<path fill="#AEA71C" d="M17.016-46.471c1.253,0.334,2.98,0.576,4.818,0.2c-0.284,0.005-0.609,0.01-0.98,0.01
		C19.725-46.261,18.24-46.307,17.016-46.471z"/>
	<path fill="#AEA71C" d="M-41.947-40.485c-0.353,0.873-0.171,1.876,0.539,2.982c1.875,2.916,7.165,6.418,9.125,7.654
		c0.013,0.008,0.022,0.014,0.035,0.022l3.668-3.986l4.912-14.734c-1.935,1.358-8.485,5.59-15.523,6.008
		C-39.278-42.52-41.326-42.021-41.947-40.485z"/>
	<path fill="#C9A115" d="M-47.422,23.304c0.558-4.643,1.045-8.64,1.36-10.581l-7.6,9.937
		C-51.842,23.199-49.767,23.467-47.422,23.304z"/>
	<path fill="#C9A115" d="M-29.683,22.593l7.897-0.633c0.053-0.005,0.108-0.004,0.162,0.001c0.221,0.023,21.796,2.229,35.389,2.632
		L7.14,5.209l-19.403-4.914c-1.092,2.098-2.626,4.377-4.793,6.545c-0.173,0.173-0.4,0.259-0.626,0.259s-0.454-0.086-0.626-0.259
		c-0.159-0.159-0.236-0.365-0.249-0.573h-3.404C-24.278,11.146-26.95,16.801-29.683,22.593z"/>
	<path fill="#C9A115" d="M18.586,8.304l4.069,13.104l1.285,3.202c0.334-0.005,0.66-0.014,0.991-0.021l12.499-11.659L18.586,8.304z"
		/>
	<path fill="#C9A115" d="M-13.413-16.06c0.327,1.458,0.268,2.818-0.058,4.142l2.47,2.91c0.27-0.274,0.689-0.361,1.043-0.17
		c0.132,0.072,0.265,0.136,0.397,0.206l6.246-1.703c0.116-0.03,2.282-0.628,3.389-3.024l-11.744-0.036L-13.413-16.06z"/>
	<path fill="#C9A115" d="M1.686-47.136l5.128-3.56l-0.226-0.275c-2.165-1.608-4.35-3.327-5.883-4.77
		c-0.7-0.658-1.244-1.514-1.662-2.52l2.318,11.361C1.474-46.988,1.584-47.069,1.686-47.136z"/>
	<polygon fill="#FFFFFF" points="12.03,-64.44 9.121,-62.841 14.644,-60.953 	"/>
	<path fill="#231F20" d="M6.669-62.629c0.024,0.28,0.211,0.519,0.477,0.609l9.216,3.152c0.076,0.026,0.153,0.038,0.229,0.038
		c0.006,0,0.012,0,0.02,0c0.392,0,0.708-0.317,0.708-0.708c0-0.214-0.095-0.405-0.244-0.535l-4.281-5.71
		c-0.211-0.282-0.599-0.366-0.908-0.196l-4.853,2.668C6.787-63.176,6.644-62.908,6.669-62.629z M12.03-64.44l2.615,3.488
		l-5.523-1.889L12.03-64.44z"/>
	<path fill="#231F20" d="M129.246,79.937l-4.404-4.894c-2.86-7.565-13.038-14.689-13.466-14.986L54.467,19.866
		c-3.645-5.84-9.725-6.978-9.928-7.012l-26.504-6.51c-0.02-0.005-0.038,0.001-0.058-0.002l-2.306-7.428
		c9.517-0.54,16.334-4.208,19.67-6.01c0.56-0.303,1.133-0.612,1.51-0.787c-0.034,0.353-0.38,1.269-2.478,3.205
		c-0.427,0.394-0.898,0.724-1.314,1.015c-0.836,0.585-1.626,1.138-1.528,2.038c0.094,0.868,0.986,1.354,1.937,1.75
		c1.076,0.448,2.179,0.618,3.233,0.618c3.217,0,5.985-1.582,6.139-1.672c21.708-12.72,12.733-39.616,12.633-39.904
		c-0.49-1.328-12.037-32.588-14.517-38.375c-2.262-5.277-7.083-6.405-8.711-6.64c-0.903-5.953-7.406-9.469-7.721-9.635
		c-0.063-0.034-0.13-0.06-0.2-0.077c-0.068-0.017-6.819-1.706-10.878-2.9c-3.739-1.099-6.552,1.166-7.539,2.549l-6.649,10.209
		l-25.225,11.291c-0.084,0.038-0.159,0.086-0.225,0.144c-0.739,0.261-1.446,0.71-2.115,1.328c-0.371-0.232-0.726-0.49-1.064-0.773
		c-2.393-2.01-3.288-4.761-3.113-6.596c0.036-0.377,0.085-0.722,0.131-1.04c0.22-1.54,0.427-2.995-1.654-4.193
		c-2.336-1.343-5.174,1.235-5.287,1.339c-0.178,0.161-4.373,3.992-7.914,10.448c-2.395-1.27-4.022-2.166-4.39-2.441
		c-2.325-1.745-6.555-0.892-6.793-0.839c-1.941,0.546-47.573,13.382-50.263,14.223c-2.843,0.889-4.979,5.076-5.397,5.948
		l-5.68,6.683c-0.025,0.029-0.033,0.065-0.053,0.097l-8.625,3.166c-0.37,0.054-1.29,0.254-1.827,0.94
		c-0.312,0.398-0.438,0.884-0.363,1.404c0.104,0.726,0.511,1.309,1.147,1.643c0.704,0.368,1.639,0.385,2.325,0.042
		c0.209-0.101,1.5-0.598,3.303-1.281l-1.502,2.121c-0.218,0.23-0.451,0.55-0.629,0.917c-0.114,0.234-0.198,0.488-0.247,0.754
		c-0.092,0.51-0.04,1.059,0.314,1.588c0.359,0.539,0.928,0.845,1.604,0.864c0.022,0,0.044,0.001,0.066,0.001
		c1.037,0,2.156-0.669,2.653-1.333c0.498-0.664,5.696-7.37,5.749-7.438c0.125-0.162,0.172-0.354,0.171-0.544
		c0.769-0.287,1.517-0.565,2.215-0.825c0.843-0.087,1.828,0.027,1.987,0.222c0.117,0.41-0.587,0.914-0.763,1.014
		c-0.072,0.04-0.138,0.09-0.196,0.148l-3.616,3.615c-0.302,0.156-0.845,0.515-1.1,1.166c-0.154,0.392-0.253,1.028,0.148,1.83
		c0.382,0.764,0.933,1.027,1.328,1.114c0.133,0.029,0.265,0.042,0.397,0.042c0.999,0,1.956-0.765,2.499-1.199
		c0.794-0.635,4.714-3.971,5.356-4.518c0.523-0.27,2.55-1.433,2.92-3.465c0.184-1.007,2.073-4.637,3.708-7.589
		c0.127,0.023,0.259,0.026,0.392-0.01l41.657-11.345c0.021-0.005,2.024-0.547,3.516,0.403c0.376,0.239,1.908,1.072,4.11,2.247
		c-1.133,3.87-1.141,6.841-0.737,11.229c1.341,14.52,10.471,25.742,12.975,28.572L-59.805-8.001
		c-0.112,0.08-11.151,8.172-6.039,22.611c0.054,0.112,5.26,10.517,17.102,10.516c0.361,0,0.73-0.012,1.104-0.032
		c-0.752,6.264-1.591,13.189-2.198,16.743c-1.046,6.131-8.525,18.409-11.34,23.031l-0.736,1.213c-2.063,3.439-0.987,8.432-0.8,9.214
		c0.049,1.299,0.378,9.295,1.057,11.331c0.095,0.284,0.175,0.562,0.252,0.826c0.394,1.35,0.869,2.978,2.902,2.978
		c0.374,0,0.799-0.055,1.287-0.176c2.601-0.651,3.132-2.49,3.051-3.523c0.305-1.411,2.534-11.804,2.697-14.898
		c0.159-3.013,3.611-10.608,3.642-10.677c0.164-0.349,8.856-18.878,17.293-36.769c0.084,0.02,0.17,0.039,0.26,0.03l8.544-0.685
		c1.495,0.152,22.904,2.311,36.101,2.651l0.54,1.579c-0.655,4.904,4.838,12.927,5.446,13.797
		c4.114,8.727,10.68,22.896,11.058,24.346l0.002,0.287c0.035,2.85-0.221,4.569-0.76,5.107c-1.233,1.231-3.6,5.31-3.866,5.771
		c-0.04,0.069-0.07,0.143-0.09,0.22l-2.346,9.063c-0.284,0.782-0.81,2.668,0.437,3.296c1.241,0.62,2.454-0.821,2.769-1.241
		c0.105-0.126,2.596-3.122,3.969-5.351c0.143-0.232,0.291-0.377,0.387-0.377c0.324,0,0.964,0.645,1.283,1.155l6.389,12.776
		c0.105,0.414,0.404,1.346,1.05,1.746c0.216,0.134,0.457,0.203,0.702,0.203c0.105,0,0.212-0.013,0.317-0.039
		c1.053-0.264,1.297-1.542,1.174-2.65c-0.006-0.059-0.019-0.118-0.037-0.174l-4.865-15.093c0.031-1.073,0.254-7.741,1.169-12.924
		c1.054-5.978-5.23-18.639-5.468-19.109l-8.99-22.401c1.837-0.036,3.646-0.084,5.382-0.134c4.894-0.142,9.411-0.271,12.797,0.053
		c5.072,10.061,23.871,18.437,24.633,18.771c11.752,5.902,38.704,19.386,41.717,20.432c0.525,0.726,1.095,4.458,1.406,6.487
		c0.332,2.169,0.548,3.533,0.816,4.202c0.492,1.233,2.901,2.228,5.253,2.911c1.605,3.58,8.375,4.038,9.629,4.09
		c0.739,0.223,1.814,0.492,2.705,0.492c0.443,0,0.841-0.066,1.129-0.238c0.308-0.183,0.515-0.47,0.583-0.809
		C130.943,81.386,129.659,80.262,129.246,79.937z M53.804-40.239c0.088,0.256,8.584,25.8-11.858,37.779
		c-0.042,0.024-4.248,2.429-7.798,0.948c-0.29-0.121-0.492-0.22-0.631-0.297c0.168-0.13,0.381-0.279,0.558-0.402
		c0.439-0.308,0.985-0.69,1.5-1.165c2.132-1.967,3.073-3.388,3.051-4.608c-0.011-0.606-0.268-1.142-0.741-1.548
		c-0.68-0.583-1.416-0.186-3.385,0.877c-3.272,1.768-10.014,5.397-19.37,5.825l-1.174-3.783L9.27-21.698
		c3.339-7.994-4.033-13.244-5.385-14.122c-0.361-0.621-1.604-2.846-2.574-5.616c-0.933-2.665,1.249-4.153,1.362-4.229l5.732-3.979
		c2.961,2.134,5.507,3.829,5.739,3.981c0.148,0.08,2.593,1.372,5.779,1.372c1.498,0,3.161-0.286,4.825-1.118
		c4.891-2.446,9.911-6.729,10.172-6.956c0.192-0.192,4.31-4.396,4.254-9.833c1.943,2.442,3.35,5.106,3.584,7.91
		c0.039,0.462,0.426,0.812,0.882,0.812c0.025,0,0.05-0.001,0.075-0.003c0.122-0.01,0.236-0.044,0.338-0.098
		c0.305-0.16,0.501-0.493,0.471-0.858c-0.484-5.806-5.209-10.897-9.972-14.799c0.664-0.245,1.366-0.534,2.124-0.899
		c2.98-1.439,4.768-1.198,5.597-0.904C46.647-59.614,53.717-40.475,53.804-40.239z M19.065-66.198c0.067,0.02,0.136,0.03,0.204,0.03
		c0.22,0,0.432-0.103,0.568-0.285c0.178-0.239,0.188-0.564,0.023-0.813l-3.996-6.073c1.762-1.73,3.519-3.801,4.464-5.889
		c0.123,0.022,0.246,0.021,0.36-0.021c0.531,1.426,1.526,3.113,3.407,4.584c0.651,0.51,1.591,1.156,2.679,1.903
		c1.232,0.847,2.713,1.87,4.264,3.027c-1.496,0.25-2.326,0.128-2.339,0.125c-0.386-0.064-0.749,0.192-0.817,0.576
		c-0.068,0.385,0.189,0.753,0.575,0.821c0.038,0.007,0.338,0.056,0.876,0.056c0.687,0,1.774-0.091,3.187-0.444
		c0.83,0.653,1.662,1.345,2.479,2.068l-6.513,1.771c-0.303,0.083-0.516,0.355-0.522,0.669s0.196,0.596,0.496,0.69l8.833,2.781
		c-0.641,3.955-3.579,6.957-3.575,6.957c-0.039,0.033-3.076,2.621-6.628,4.875c-1.022,0.648-2.084,1.271-3.133,1.795
		c-0.062,0.031-0.125,0.052-0.188,0.082c-0.647,0.304-1.296,0.51-1.934,0.641c-1.838,0.376-3.565,0.134-4.818-0.2
		c-1.191-0.318-1.958-0.709-1.961-0.709c-0.091-0.061-9.114-6.067-13.135-9.851c-0.862-0.812-1.444-2.051-1.756-3.653l10.299-8.139
		c0.047,0.027,0.083,0.068,0.137,0.084L19.065-66.198z M12.971-69.906c0-0.489,0.396-0.885,0.884-0.885
		c0.489,0,0.885,0.396,0.885,0.885c0,0.488-0.396,0.885-0.885,0.885C13.367-69.021,12.971-69.417,12.971-69.906z M15.344-70.697
		c0-0.283,0.229-0.512,0.511-0.512c0.284,0,0.513,0.23,0.513,0.512c0,0.282-0.229,0.512-0.513,0.512
		C15.574-70.185,15.344-70.414,15.344-70.697z M35.355-65.206c0.284,0,0.513,0.229,0.513,0.513c0,0.282-0.229,0.511-0.513,0.511
		c-0.281,0-0.511-0.229-0.511-0.511C34.844-64.976,35.073-65.206,35.355-65.206z M34.24-63.903c0,0.489-0.396,0.884-0.885,0.884
		c-0.488,0-0.884-0.396-0.884-0.884c0-0.488,0.396-0.884,0.884-0.884C33.844-64.787,34.24-64.391,34.24-63.903z M32.26-83.184
		c0.041-0.292,0.042-0.572,0.055-0.855c1.556,0.294,5.247,1.408,7.012,5.528c0.477,1.111,1.309,3.22,2.337,5.891
		c-1.258-0.166-3.098,0-5.604,1.211c-1.039,0.501-1.977,0.863-2.816,1.131c-1.986-1.542-3.913-2.874-5.466-3.942
		c-1.063-0.731-1.982-1.362-2.59-1.839c-2.766-2.164-3.237-4.853-3.314-5.864l9.555-0.497C31.853-82.442,32.202-82.763,32.26-83.184
		z M0.22-84.192c0.155-0.07,0.288-0.183,0.38-0.325l6.77-10.397c0.021-0.029,2.097-2.871,5.576-1.848
		c3.802,1.119,9.928,2.663,10.835,2.891c0.814,0.461,7.007,4.165,6.788,9.721l-17.904,0.93c-0.203,0.011-0.396,0.09-0.546,0.226
		C11.976-82.866-2.165-70.173-5.215-68.296c-1.915,1.176-8.415-1.839-12.717-3.835c-1.645-0.764-3.206-1.487-4.422-1.957
		L0.22-84.192z M-23.244-72.531c0.654,0.241,1.457,0.587,2.33,0.98c-2.044,0.261-3.948,0.073-5.63-0.55
		C-25.513-72.825-24.425-72.965-23.244-72.531z M-38.1-82.895c0.513-0.473,2.203-1.688,3.209-1.113
		c1.042,0.6,0.993,0.947,0.785,2.408c-0.049,0.342-0.102,0.714-0.141,1.122c-0.267,2.802,1.201,5.99,3.738,8.121
		c0.542,0.456,1.122,0.854,1.731,1.196c0,0,0,0.001,0.001,0.001c0.112,0.101,0.244,0.157,0.38,0.191
		c1.704,0.873,3.633,1.326,5.714,1.326c1.432,0,2.935-0.21,4.479-0.635c0.012-0.003,0.02-0.012,0.031-0.016
		c4.896,2.262,9.021,4.013,11.78,4.013c0.83,0,1.538-0.158,2.106-0.508c2.999-1.845,15.424-12.948,17.355-14.679l6.175-0.321
		c-0.018,0.195-0.057,0.395-0.103,0.596c-2.83-0.836-4.976,0.082-6.351,1.112c-1.722,1.292-2.585,2.993-2.621,3.065
		c-0.175,0.35-0.033,0.774,0.316,0.949c0.102,0.051,0.21,0.076,0.317,0.076c0.259,0,0.509-0.143,0.634-0.39
		c0.108-0.215,2.505-4.784,7.234-3.458c-1.732,3.693-6.799,7.852-9.08,9.448l-20.213,15.971c-1.484-1.85-3.461-2.483-3.997-2.626
		C-21.739-60.64-37.1-68.441-45.641-72.928C-42.252-79.094-38.147-82.852-38.1-82.895z M-122.982-40.32
		c-0.191,0.254-0.835,0.604-1.253,0.624c-0.131-0.004-0.155-0.04-0.179-0.077c-0.251-0.376,0.395-1.079,0.397-1.082
		c0.035-0.036,0.067-0.074,0.096-0.114l2.878-4.063c0.049-0.07,0.073-0.147,0.1-0.225c0.808-0.303,1.649-0.619,2.497-0.936
		C-120.033-44.144-122.626-40.794-122.982-40.32z M-50.057-53.325c-0.379-4.111-0.381-6.774,0.576-10.212
		c7.916,4.201,21.627,11.356,26.226,13.753l-0.412,1.236l-4.912,14.734l-3.668,3.986l-0.05,0.054l-5.058,4.003l-0.097,0.077
		C-39.698-28.249-48.768-39.353-50.057-53.325z M-49.43,60.413c-0.148,0.324-3.627,7.98-3.804,11.327
		c-0.164,3.109-2.665,14.643-2.69,14.759c-0.021,0.098-0.023,0.218-0.011,0.317c0.026,0.209,0.066,1.276-1.708,1.721
		c-1.487,0.371-1.576,0.074-2.059-1.58c-0.083-0.285-0.17-0.583-0.272-0.89c-0.523-1.567-0.878-8.419-0.971-10.927
		c-0.002-0.063-0.012-0.126-0.027-0.188c-0.012-0.049-1.233-4.938,0.58-7.959l0.729-1.203c2.864-4.702,10.47-17.19,11.573-23.655
		c0.633-3.704,1.506-10.968,2.279-17.395c0.199-0.186,0.32-0.448,0.287-0.738c-0.017-0.146-0.075-0.272-0.151-0.386
		c0.617-5.13,1.186-9.804,1.476-11.255c0.553-2.761,2.235-11.162,5.838-14.6c3.715-3.548,8.315-8.989,8.361-9.043
		c0.315-0.374,0.268-0.933-0.106-1.248c-0.373-0.317-0.933-0.269-1.248,0.105c-0.046,0.054-4.584,5.422-8.23,8.904
		c-3.592,3.427-5.346,10.507-6.352,15.534c-0.038,0.19-0.08,0.431-0.125,0.71c-0.315,1.941-0.802,5.938-1.36,10.581
		c-2.345,0.164-4.419-0.105-6.239-0.644c-7.007-2.074-10.239-8.13-10.568-8.784c-4.578-13.032,5.043-20.14,5.489-20.462l1.922-1.521
		c0.172,0.014,0.349-0.007,0.51-0.101l26.407-15.235c0.266-0.15,6.559-3.622,11.088,1.509c4.775,5.412,4.505,8.695,2.425,12.537
		C-18.576-5.356-48.168,57.721-49.43,60.413z M32.021,49.495c0.063,0.126,6.291,12.671,5.338,18.075
		c-1.017,5.756-1.192,13.032-1.2,13.339c-0.002,0.099,0.012,0.197,0.042,0.292l4.411,13.687l-5.86-11.711
		c-0.211-0.345-1.338-2.066-2.829-2.069c-0.001,0-0.002,0-0.003,0c-0.523,0-1.275,0.212-1.896,1.22
		c-1.306,2.121-3.796,5.115-3.85,5.181c-0.092,0.123-0.22,0.265-0.349,0.39c0.047-0.25,0.125-0.543,0.222-0.821l2.341-9.026
		c0.739-1.273,2.644-4.42,3.524-5.299c1.182-1.181,1.31-3.889,1.279-6.382l-0.003-0.34c0-1.004-6.123-14.201-11.259-25.096
		c-0.022-0.047-0.048-0.092-0.078-0.134c-1.652-2.333-5.798-9.173-5.157-12.763c0.026-0.148,0.015-0.3-0.034-0.442L2.243-14.603
		c1.019-4.037,2.593-13.292,2.661-13.693c0.082-0.482-0.243-0.939-0.726-1.021c-0.48-0.081-0.94,0.243-1.021,0.726
		c-0.017,0.1-1.698,9.995-2.694,13.809c-0.104,0.398-0.236,0.757-0.388,1.085c-1.107,2.396-3.273,2.994-3.389,3.024L-9.56-8.972
		c-0.132-0.07-0.265-0.134-0.397-0.206c-0.354-0.191-0.773-0.104-1.043,0.17c-0.057,0.058-0.117,0.113-0.157,0.188
		c-0.089,0.165-0.104,0.343-0.084,0.517c-0.09,0.125-0.154,0.269-0.169,0.429c-0.007,0.073-0.762,7.324-6.898,13.46
		c-0.187,0.187-0.264,0.436-0.249,0.68c0.013,0.208,0.09,0.414,0.249,0.573c0.173,0.173,0.4,0.259,0.626,0.259
		s0.454-0.086,0.626-0.259c2.167-2.167,3.702-4.447,4.793-6.545L7.14,5.209l6.624,19.384c-13.592-0.402-35.168-2.609-35.389-2.632
		c-0.054-0.005-0.108-0.006-0.162-0.001l-7.897,0.633c2.732-5.792,5.405-11.447,7.72-16.326c3.731-7.865,6.531-13.708,7.133-14.819
		c0.606-1.121,1.08-2.23,1.359-3.365c0.326-1.324,0.384-2.684,0.058-4.142c-0.467-2.087-1.714-4.375-4.071-7.046
		c-5.492-6.223-13.216-1.919-13.297-1.874l-17.406,10.042l17.045-13.49c0.037-0.029,0.071-0.061,0.102-0.095l3.894-4.232
		c0.085-0.092,0.149-0.201,0.188-0.319l5.217-15.651c0.802,1.442,1.506,3.13,1.378,3.643c-0.119,0.475,0.17,0.956,0.645,1.074
		c0.072,0.018,0.144,0.027,0.215,0.027c0.397,0,0.758-0.269,0.859-0.672c0.396-1.589-1.371-4.675-1.922-5.583
		c-0.084-0.139-0.205-0.251-0.348-0.326c-10.895-5.674-31.882-16.649-33.329-17.569c-2.174-1.384-4.839-0.646-4.941-0.616
		L-99.63-57.732c0.173-0.407,0.033-0.885-0.359-1.111c-0.426-0.245-0.967-0.098-1.209,0.327c-0.476,0.828-4.658,8.147-5.014,10.103
		c-0.208,1.143-1.545,2-2.04,2.233c-0.073,0.034-0.142,0.078-0.203,0.13c-0.046,0.039-4.57,3.893-5.397,4.553
		c-1.005,0.804-1.317,0.834-1.407,0.811c-0.013-0.007-0.064-0.055-0.125-0.177c-0.083-0.167-0.114-0.308-0.085-0.388
		c0.044-0.117,0.221-0.225,0.281-0.25c0.118-0.044,0.225-0.113,0.314-0.203l3.645-3.644c0.792-0.482,1.891-1.582,1.491-2.982
		c-0.52-1.821-3.431-1.555-4.009-1.482c-0.068,0.008-0.135,0.025-0.199,0.049c-2.213,0.822-13.287,4.944-13.971,5.287
		c-0.139,0.069-0.474,0.1-0.712-0.025c-0.13-0.068-0.193-0.162-0.218-0.376c0.047-0.098,0.416-0.258,0.738-0.294
		c0.074-0.007,0.147-0.024,0.217-0.05l13.375-4.91c0.459-0.168,0.695-0.678,0.526-1.137c-0.168-0.46-0.679-0.696-1.137-0.526
		l-1.319,0.484l3.821-4.496c0.052-0.061,0.095-0.128,0.128-0.201c0.566-1.22,2.456-4.516,4.371-5.114
		c2.666-0.834,49.739-14.076,50.153-14.194c1.003-0.208,3.913-0.514,5.311,0.536c2.07,1.553,35.892,18.633,37.331,19.359
		c0.069,0.035,0.146,0.061,0.222,0.077c0.209,0.044,5.116,1.153,4.376,7.667c-0.055,0.486,0.294,0.925,0.78,0.98
		c0.034,0.004,0.068,0.005,0.101,0.005c0.445,0,0.828-0.333,0.879-0.786c0.264-2.322-0.087-4.096-0.723-5.45
		C-9.65-52.951-9.602-52.967-9.56-53l8.186-6.469c0.117,0.429,0.261,0.827,0.419,1.208c0.418,1.005,0.962,1.861,1.662,2.52
		c1.533,1.443,3.718,3.162,5.883,4.77c0.101,0.075,0.201,0.148,0.301,0.222l-0.076,0.053l-5.128,3.56
		c-0.103,0.066-0.212,0.148-0.324,0.237c-0.553,0.439-1.183,1.144-1.599,2.068c-0.276,0.615-0.454,1.326-0.452,2.119
		c0.001,0.58,0.096,1.201,0.327,1.862c1.203,3.435,2.77,6.019,2.836,6.126c0.076,0.125,0.183,0.229,0.309,0.303
		c0.332,0.195,8.083,4.851,4.735,12.309c-0.088,0.197-0.102,0.419-0.038,0.625l13.506,43.487L32.021,49.495z M4.699-1.875
		C4.706-1.873,4.713-1.874,4.72-1.873l1.736,5.081l-17.938-4.543c1.129-2.581,1.582-4.713,1.746-5.732
		C-4.904-4.571-0.053-2.819,4.699-1.875z M-7.192-7.781l4.326-1.18c0.127-0.032,2.544-0.672,4.09-3.145l2.827,8.274
		C0.345-4.655-3.421-5.979-7.192-7.781z M126.689,81.453c-0.076-0.023-0.154-0.037-0.233-0.039
		c-1.354-0.043-4.621-0.434-6.652-1.561c0.89,0.175,1.542,0.268,1.727,0.268c0.489,0,0.886-0.396,0.886-0.886
		s-0.396-0.886-0.886-0.886c-1.479,0-7.995-1.807-8.489-2.829c-0.206-0.515-0.462-2.19-0.71-3.812
		c-0.838-5.487-1.319-7.739-2.646-7.902c-1.537-0.422-25.62-12.391-41.473-20.351c-0.183-0.081-17.572-7.826-23.179-16.859
		c1.577,0.316,2.738,0.81,3.346,1.559c0.175,0.215,0.431,0.327,0.688,0.327c0.196,0,0.394-0.065,0.558-0.198
		c0.38-0.309,0.438-0.866,0.129-1.246c-2.499-3.077-9.746-2.867-19.778-2.576c-1.629,0.047-3.325,0.092-5.045,0.127
		c-0.331,0.007-0.657,0.015-0.991,0.021l-1.285-3.202L18.586,8.304l18.843,4.627l6.741,1.655c0.056,0.01,5.674,1.085,8.88,6.359
		c0.063,0.104,0.146,0.193,0.246,0.264l57.063,40.3c0.103,0.071,10.295,7.202,12.878,14.304c0.039,0.107,0.098,0.205,0.174,0.29
		l4.571,5.08c0.039,0.042,0.081,0.082,0.127,0.116c0.222,0.167,0.45,0.394,0.614,0.593
		C128.194,81.837,127.398,81.671,126.689,81.453z"/>
	<path fill="#231F20" d="M23.925-59.261c0.13,0.114,0.296,0.175,0.467,0.175c0.029,0,0.059-0.001,0.088-0.005l2.015-0.252
		c0.388-0.048,0.664-0.403,0.615-0.791s-0.398-0.665-0.791-0.615l-1.699,0.212l-1.777-1.555c-0.295-0.257-0.743-0.229-1,0.066
		c-0.258,0.295-0.228,0.743,0.066,1L23.925-59.261z"/>
	<circle fill="#FFFFFF" cx="33.356" cy="-63.903" r="0.884"/>
	<circle fill="#FFFFFF" cx="35.355" cy="-64.694" r="0.512"/>
	<circle fill="#FFFFFF" cx="13.856" cy="-69.906" r="0.884"/>
	<circle fill="#FFFFFF" cx="15.856" cy="-70.697" r="0.512"/>
</g>
</svg>
