<?xml version="1.0" encoding="utf-8"?>
<!-- Generator: Adobe Illustrator 16.0.0, SVG Export Plug-In . SVG Version: 6.00 Build 0)  -->
<!DOCTYPE svg PUBLIC "-//W3C//DTD SVG 1.1//EN" "http://www.w3.org/Graphics/SVG/1.1/DTD/svg11.dtd" [
	<!ENTITY ns_extend "http://ns.adobe.com/Extensibility/1.0/">
	<!ENTITY ns_ai "http://ns.adobe.com/AdobeIllustrator/10.0/">
	<!ENTITY ns_graphs "http://ns.adobe.com/Graphs/1.0/">
	<!ENTITY ns_vars "http://ns.adobe.com/Variables/1.0/">
	<!ENTITY ns_imrep "http://ns.adobe.com/ImageReplacement/1.0/">
	<!ENTITY ns_sfw "http://ns.adobe.com/SaveForWeb/1.0/">
	<!ENTITY ns_custom "http://ns.adobe.com/GenericCustomNamespace/1.0/">
	<!ENTITY ns_adobe_xpath "http://ns.adobe.com/XPath/1.0/">
]>
<svg version="1.1" id="Layer_1" xmlns:x="&ns_extend;" xmlns:i="&ns_ai;" xmlns:graph="&ns_graphs;"
	 xmlns="http://www.w3.org/2000/svg" xmlns:xlink="http://www.w3.org/1999/xlink" x="0px" y="0px" width="595.279px"
	 height="841.89px" viewBox="0 0 595.279 841.89" enable-background="new 0 0 595.279 841.89" xml:space="preserve">
<metadata><?xpacket begin="﻿" id="W5M0MpCehiHzreSzNTczkc9d"?>
<x:xmpmeta xmlns:x="adobe:ns:meta/" x:xmptk="Adobe XMP Core 5.3-c011 66.145661, 2012/02/06-14:56:27        ">
   <rdf:RDF xmlns:rdf="http://www.w3.org/1999/02/22-rdf-syntax-ns#">
      <rdf:Description rdf:about=""
            xmlns:dc="http://purl.org/dc/elements/1.1/">
         <dc:format>image/svg+xml</dc:format>
         <dc:title>
            <rdf:Alt>
               <rdf:li xml:lang="x-default">Print</rdf:li>
            </rdf:Alt>
         </dc:title>
      </rdf:Description>
      <rdf:Description rdf:about=""
            xmlns:xmp="http://ns.adobe.com/xap/1.0/"
            xmlns:xmpGImg="http://ns.adobe.com/xap/1.0/g/img/">
         <xmp:MetadataDate>2018-09-05T11:38:41-03:00</xmp:MetadataDate>
         <xmp:ModifyDate>2018-09-05T11:38:41-03:00</xmp:ModifyDate>
         <xmp:CreateDate>2018-09-05T11:38:41-03:00</xmp:CreateDate>
         <xmp:CreatorTool>Adobe Illustrator CS6 (Macintosh)</xmp:CreatorTool>
         <xmp:Thumbnails>
            <rdf:Alt>
               <rdf:li rdf:parseType="Resource">
                  <xmpGImg:width>204</xmpGImg:width>
                  <xmpGImg:height>256</xmpGImg:height>
                  <xmpGImg:format>JPEG</xmpGImg:format>
                  <xmpGImg:image>/9j/4AAQSkZJRgABAgEASABIAAD/7QAsUGhvdG9zaG9wIDMuMAA4QklNA+0AAAAAABAASAAAAAEA&#xA;AQBIAAAAAQAB/+4ADkFkb2JlAGTAAAAAAf/bAIQABgQEBAUEBgUFBgkGBQYJCwgGBggLDAoKCwoK&#xA;DBAMDAwMDAwQDA4PEA8ODBMTFBQTExwbGxscHx8fHx8fHx8fHwEHBwcNDA0YEBAYGhURFRofHx8f&#xA;Hx8fHx8fHx8fHx8fHx8fHx8fHx8fHx8fHx8fHx8fHx8fHx8fHx8fHx8fHx8f/8AAEQgBAADMAwER&#xA;AAIRAQMRAf/EAaIAAAAHAQEBAQEAAAAAAAAAAAQFAwIGAQAHCAkKCwEAAgIDAQEBAQEAAAAAAAAA&#xA;AQACAwQFBgcICQoLEAACAQMDAgQCBgcDBAIGAnMBAgMRBAAFIRIxQVEGE2EicYEUMpGhBxWxQiPB&#xA;UtHhMxZi8CRygvElQzRTkqKyY3PCNUQnk6OzNhdUZHTD0uIIJoMJChgZhJRFRqS0VtNVKBry4/PE&#xA;1OT0ZXWFlaW1xdXl9WZ2hpamtsbW5vY3R1dnd4eXp7fH1+f3OEhYaHiImKi4yNjo+Ck5SVlpeYmZ&#xA;qbnJ2en5KjpKWmp6ipqqusra6voRAAICAQIDBQUEBQYECAMDbQEAAhEDBCESMUEFURNhIgZxgZEy&#xA;obHwFMHR4SNCFVJicvEzJDRDghaSUyWiY7LCB3PSNeJEgxdUkwgJChgZJjZFGidkdFU38qOzwygp&#xA;0+PzhJSktMTU5PRldYWVpbXF1eX1RlZmdoaWprbG1ub2R1dnd4eXp7fH1+f3OEhYaHiImKi4yNjo&#xA;+DlJWWl5iZmpucnZ6fkqOkpaanqKmqq6ytrq+v/aAAwDAQACEQMRAD8A9U4q7FXy/wDn3+bev6z5&#xA;pHkbyhcyww2svo31xayNG89yPtx81IpFF+14mtdgMQLbcOKWSQjEXIsAP5P+YLpjNf6rE1w32mPq&#xA;TE71+03E5b4Jd9H2dy9ZR+39TaflP5q05xPpOrpHcLuGR5bdtvBk5Y+CUS9ns3SUT8/1Jxpv5rfn&#xA;h5DkX9IzyappqkBlv63UZFe1wD6qHwq/0ZAxI5uq1Ogy4frjQ7+j3/8AK/8APPyn57VbRD+jNeC1&#xA;fS52BL0FSYJKASAfIN7UyLh09HxQ7FXYqlHmLzf5Y8t2wuNd1S306NvsCeQK70/kT7b/AOxBxV5X&#xA;rv8Azlj+XdkzR6XbXurOPsyJGIIT/spSJP8AknimmKXP/OY8palr5UUKD9qW9JJH+qsAp9+K0vs/&#xA;+cx1qFvfKpC95Ib2p/4BoR/xLFaZl5f/AOcpvyy1N0ivjd6PK2xa6i5xV9ngMpp7soxWnqmj65o2&#xA;tWa3ukX0GoWjbCe2kWVK+BKk0PscUI3FXYq7FXjX5of85KeW/Ks0ul6FGut61HVZSrUtYHG1HkXe&#xA;Rh3VPpYHFNPF7/zd+e/nhmll1C4sNPl+zFC31CDie3FOMki+7cskIEux0/ZefLvGO3edvx8EuP5O&#xA;67ckzXurRNcN9piJJa/7JuJP3ZPwS7EezuXrKP2/qWt+Vvm3Ska50jVR60Y58YXlgkYqDspWu/hU&#xA;jE4iwyez+aIJBifn+p7T/wA43/nBf6+k3lHzJcPNrdmpksbqcn1Z4U2kjkJ3aSPrvuV6/ZOVOhkK&#xA;e74sXYq7FWNfmV5pPlbyJrWuqQJ7O2b6qTQj15SIoag9vUda4q+U/wAntF5R3mv3NXnmcwwO9Saf&#xA;alep6lmIFfY5fhj1es9ntKKOU+4fpZyfMeiDWRoxu0/SZHIW9Gr05U5U41470rXLeIXTvfzmLxPC&#xA;4vX3Jlhclp0R0KOoZGFGUioIPYg4oIBFF5r5z/Lp7R/075Y5W1zbMJmtoSVKsh5CSAg1VlpXiPo8&#xA;Monj6h5ntTsUAHJiHvj+r9Xye5/kH+dI87ae2jay6p5msUDM4oou4RQeqq9nX9tR8xtsKXlSHq99&#xA;fWVhZzXt7OltaW6l555WCIijqWY7AYofNv5kf85PanqF02ifl5Cyq5Mf6WePnPIf+XaEg8R/lOK+&#xA;y4s4YzI0BZefWP5YeYNbum1PzVqMpuJzyl5OZ7lq/wA8jlgPxy2OI9XodL7PzlvkPCO7r+ofazDT&#xA;vy78oWKgLp6XDjrJc1mJ+hvh+4ZaMYDvMPZGnx/w379/2fYncWm6dCAIrWGMDoEjVf1DJUHNjp8c&#xA;eUQPgFs+kaVcKVnsoJlPVZIkYH7xjwhjLTYpc4xPwCQap+WXlG/U8bU2cp6SWzFKf7A8k/4XInEC&#xA;4ObsXTz5DhPl+KYm/kvzz5Nvv0v5S1GYvHuWtiY5uINeLx7rKvtvX+XKZYiHQavsLLj3h64/b8v1&#xA;PXPyt/5yftNQni0XzyiaffkiJNXUcLd36UuEP9y3i32fHiMrdGQ9/VlZQykFSKgjcEHFi+dv+chf&#xA;zpv0vX8ieUZn+usfS1e8t6+oGb/j1hZdw3+/CP8AV/mxZwgZGhuSwvyR+W1lpMUd7qiLc6oQGCNR&#xA;o4T1oo6Fv8r7syIY65vZ9m9jxxASyC5/YP2/gM4y13jsVWrLG7MqOrMho4BBIPvigSB5Hk8u83SX&#xA;Hkz8w9J816cvGsy3TIuwZ42AmT5SI2/zOY2WNF4vt3SjHl4hyn9/V9qWd3BeWkF3btzt7mNZYXH7&#xA;SOoZT9IOVuiVcVdirxr/AJyuvWt/yujhBIF5qVvAwHcBJZt/pixSHnn5fW6W/k3S0QfaiMh9zIxc&#xA;/rzKx/S9/wBkRrTQ+P3lh35o6BeWGqQ+adNJQhk+sMvVJUoEk+TAAH+3K8saNh0/belljyDPDyvy&#xA;PQ/j9LNPJ/m2y8x6cJoyI7yIAXdt3VvEeKnscthOw7vs/Xx1ELH1DmPx0T/JOe7FXlPm+2v/ACR5&#xA;x0/zboR9A+v6ygbIsy7vGQP2JVrUfMZjZY0Xi+29CMWTjj9M/sKZfmH+Z/mj829bh0bSYZLHQIqO&#xA;tmzbEinKe5ZdjQ/ZXt23OQAJdXpdLPNMQgN/uZP5W8naT5dtQlsglu2H7+8cfGx8B/KvsMyowAe5&#xA;0PZ2PTjbeXU/jknuSc92KuxV2KuxV2KsS86fl/p2vwvcW6rbaqBVJwKLIQNllp1/1uo/DK547dT2&#xA;j2VDOOKPpyd/f7/1pT5K/Pbzj5E0HVPKmoRPcSQQPFozS0L2c52WpP24QDyUfKnwnMYiniMuKUJG&#xA;MhRCj+VPlppBL5m1Cst1cM4tWkqzbk+pKSerM1RX5+OX4o9Xp+wdCK8aX+b+k/oek5c9M7FWP+dP&#xA;Ndt5d0l5iQ19MClnD1q9PtEfyr1P3ZCcqDr+0tcNPjv+I8vx5MY/KDR75Y73XLpm/wBNPCLl1ko3&#xA;J5D/ALLYfTkMQ6ur7A08vVll/Ft7+8/jzRP5y23Py5bTgfFDdKCfBXRwfxAw5hs2+0MAcMT3S/QX&#xA;0p+T13Ld/ld5XmlNXGnwx1O+0S+mPwTMd4wswxV2KvHf+cq7Frn8rPWC1FlqFvOx32DLJDXb3mpi&#xA;kPN/y6u1ufJumsOsaNEw8DG5X9QrmVj+l77sefFpo+V/eyC4t4LiCSCdBJDKpSSNhUMrChBGTdjO&#xA;AkCDuC8p8w/l/rnl6+/S/leSR4UqwjjNZoh3FDX1E/zI75jyxkbh5TV9lZdPPxMF19o/WPwUboX5&#xA;xR0EGvWrRyr8LXMAqKjb44yaj6Cflko5u9u0vtB0yj4j9X49zM7Hzp5Vvgpg1S3q3RJHETf8DJxO&#xA;WCYPV3OPtLTz5Tj8dvvYL+anmGTUL638s6cPWbmjTcaEtK/92in2DVPzyrLK9nR9uas5JjBDf9fQ&#xA;M38neVrXy7pKWyANdygPeT92fwH+SvQZbCNB3fZ2hGnx1/EeZ/HcnuSc92KuxV2KuxV2KuxV2KsO&#xA;/Mfyamt6aby1T/cpaKTHTrLGNzGffuvv88ryQsOm7Y7P8aHFH64/aO79SB/KfzQL3TTotyQLqxX9&#xA;x0BeGtOnih2+VMGKXRo7C1vHDwj9UeXu/Yzq5u7W1iM11MkES9ZJGCKPpYjLSad7PJGAuRAHmwjz&#xA;H+bWjWKNDpI/SF3uBJusCnxLdW/2P35VLKOjpNX29jgKx+uX2ft/G7G/L/lDX/N+pjWvMDulg1GB&#xA;b4WlXqEiX9lPf7t98hGBkbLrdJoMurn4uW+H7/d5PXIIIbeCOCBBHDEoSONRQKoFABmQ9dCAiABs&#xA;AwL857kJoFnbg0aW6D0r1WONq7fNxlWY7Oh9opgYox75fcP2vpn8orGSy/LDyxBICH/R0EhB2I9V&#xA;BJQ/LnmO8aWXYq7FWM/mb5bPmXyBruionOe6tHNsnjPFSWEf8jUXFXyr+TOrVtr7R5TSSFxcRKev&#xA;FqI4+hgPvy/Cej1vs7qNpYz7x9x/Q9Ky56V2KpPrPlHy7rFWv7KOSU/7vWqSf8GlCfpyJgC4eo7P&#xA;w5t5xF9/IvFPO2l6FpetvYaRLLKkIpcGRlYLJ3RSFX7I6++Y0wAdni+0cGLFlMMZJrnfeyf8ntAW&#xA;5v7jWZ15JZ/urav+/XHxH/Yp+vJ4o727L2f0vFM5Dyjy9/7B971zMh652KuxV2KuxV2KuxV2KuxV&#xA;2KvD/wAxNKuPL3ml7qwke2ivlM0TxMUKltpUBUg9d/kcxsgovEdrYDp8/FA0Jbivt/HmgvKfl5/N&#xA;mpSQXWpmGeNQ49UGV5ErRuNWH2cjGPEXH0Ok/NTMTKj5729S0H8tfLOkssphN7dLuJrijAEb1VBR&#xA;R91cvjjAep0vY2DFvXFLz/UyvLHbOxV5V55im80/mFpHleyNXMkVrUbhZLl15t8lTiT8sxspsvGd&#xA;v6jjzcI5QH2n8B9rWttDa2sNrAvGGBFiiXwVAFUfcMrdAq4q7FXYq+OPza0Cf8uPzeOqWyEaRqrt&#xA;ewKv2THM1LmEdqo5JUdgVwxNG3M0WqOHKJjpz9zPoJ4biCOeFxJDKoeNx0ZWFQR8xmY+iQkJAEci&#xA;vxZMA89/mTb2Ecmm6NIJtRb4JLhN0hrsaH9p/wBX4ZVPJWwef7U7YjAGGM3Pv7v2sd8z/lre+VPy&#xA;+stc19DFruv3QWzspPtw2kaGSSSQHf1ZHKbfsr13agx3j7tnv5eactj5Q09QPjuE+syHpUzfEP8A&#xA;haDMrGKD33ZGHw9PHz3+f7GSZN2TsVdirsVdirsVdirsVdirsVYJ+cGmrceW4r0D95YzKa0/Yl+B&#xA;h/wXHKsw2dD7QYeLCJfzT9h/AYxJ5D1e28iaN+Yvl3m0MZeHVkjHJrW4gkZFl71ilTiWrsrEjoRm&#xA;ODTyGPJKEhKJohm/kvz7p/mC3SCZlt9VUfvLcmgen7UVeo9uo/HMqGS3uOzu1IZxR2yd3f7mV5N2&#xA;qX69rFvo2kXOozn4YEJVf5nOyKPm2CRoW4+q1Aw4zM9EF/zi15OutZ806j581Jecdkzw2jkfbu7g&#xA;VlYf8Y4np/sx4ZhvnOXIZSMjzO76jxa3Yq7FXYqwD87Py3j89eTJrSBR+mbGtzpMhoKygfFESafD&#xA;Kvw/Oh7YpD5S8tfmTe+XNMl0i9snuJ7WRkhR3MbR7kPG9Qx+Fu1PbLIZKFO90PbMsGPgMeLu3TSw&#xA;T82/zHf6toenyx6dIeMk0KmG3A7+pcvQH3UNv4YJZCXH1fa+bMKJ4Y9w/Fvc/wAp/wDnHHQvKUsO&#xA;sa9Imr6/HRolAP1W3bxjVhWRx2dh8lB3yDqiWF/85jzubryrB/utUvXHuWMA3/4HFQ8g8tflD+Y3&#xA;mbSk1bQ9Ge80+RmSO4EsEYYoeLUEkiNsRTpim1DzB+Vv5h+Xonm1fQLy3t4xykuVj9aFRWnxSxc4&#xA;1+lsVtCeVvLdjr04tDqsdjesaRQzRmkn+o4NK+x38M1+v1stPHj4DOPWunvDmaXTDMeHiEZefVmH&#xA;/KjNS/6usP8AyLb+uaL/AEW4f5kvsdn/ACBk/nR+13/KjNS/6usP/Itv64/6LcP8yX2L/IGT+dH7&#xA;Xf8AKjNS/wCrrD/yLb+uP+i3D/Ml9i/yBk/nR+13/KjNS/6usP8AyLb+uP8Aotw/zJfYv8gZP50f&#xA;td/yozUv+rrD/wAi2/rj/otw/wAyX2L/ACBk/nR+1bJ+SF9FG0kmrwJGgLO7IwUAbkkk7ZKPtXik&#xA;aEJkn3IPYMwLMosC1LTrWC/+p6dd/pM14CSKNlVnrSiA1Zvu+WdJgySnG5R4PI8/sdNlhGMqB4vN&#xA;lOlfkj+a+qQeva+WrtY+31gJak+4W4aJj92XtVpN5u8hebfKE1vD5j05tPku1Z7cM8cgcIQGoYmc&#xA;bchir6Z/5xKmjuPy11K1lpII9UmVo2FR6clvAaGooanligpT+Z3/ADi5DdXEms+RJVsrst6jaPI3&#xA;CEvWtbeT/dXsrfD4FRikSp5TN5o/MvyVOLDzRpcxVTxU3iMjNT/fdwtUkHv8XzyyOUh3Wm7czY9p&#xA;esefP5/rtBanrWtfmRrmk+XdGtWia4kCpbs3IGU15SOwH2I0qSabCpwTnxNXaXah1NCuGI6eb7O8&#xA;leUtN8peWLDQNPH7iyjCvKRRpZDvJK3u7En8Mg6hO8VdirsVdirsVSSbyP5Lm1OTVJtB0+XUpTyk&#xA;vJLWFpSw/aLspau/XFU6VVVQqgBQKADYADFW8VfNH/OY9q4m8q3XVCt7EfYgwMPvr+GKQo/84o/m&#xA;Db2VxeeSNRf0jeyfXdJZ9g0pQCWKpP7SIrp8m7kYAkh9O4WLxr83P+cdtA8z2s2qeWoItK8xoDJw&#xA;jAjt7o9eMiCio5PSQd/tV6hSC8n/AC786ag93J5W8xK8OsWZaKIzArIxjqHikB39RKfT8+vBe0PY&#xA;gxfvsQ9H8Q7vMeX3e7l1fZPaRn+7n9XQ9/7Xomck752KuxVokKCzGgG5J6AYVeVajd+ZPzO81J5S&#xA;8qrXT1YtNPUrGUQgPcTMOkSk/CO+3ViBno3YXYo08RkmP3p/2Pl7+8/D38f2p2kcx4Y/3Y+38dH0&#xA;x+W/5QeUPIllGNPt1udWK0udXnUGd2P2uHX0k/yV7dSx3zo3TWzZ3SNGkkYIiAs7saAAbkknFD4g&#xA;/Ozzp/jzzzqOp6eeei6PCttaS7gNCknH1ab/AN7NKeO32aV6HITyCJAPORofK/uDZGBIJHR7r/zi&#xA;VaND+Wt7MygfWdVndGpuUWCBOtOzK2TYF7XihTuLa2uYWguYknhcUeKRQ6ke6tUHFUs0ryh5T0i8&#xA;kvdJ0ax0+7mHGWe1t4oXYVrQsiqdz1xVN8VdirsVdirsVad0RC7sFRRVmJoAPcnFUFb69odxKsNv&#xA;qNrNK2yxxzRsx+QBJxVHYq7FXjP/ADlZ5ffUfy3j1KJayaPeRTSEdoZgYW/4d0OKQ8DsfKk3mPyn&#xA;p+uaG/o6/pn7iVUfgXNuaxMrCnGRU40Ocxk7U/JaqWLJ/dT9UT3Xz+HFbvI6H8xgE4fXHYjvrl8a&#xA;p6V5H/5yl1LSFXR/zA02eae3+A6jbqqXG2w9aB+CsfFlYf6pO+dJjyRnHiiQQeodLPGYmiKL1TT/&#xA;APnIP8ob7iE8wxwu3VLiGeGhpXdnjC/jk2NPCv8AnIrWPy/1PXLDzT5Q1qCfXUdYdRitw/xemvKG&#xA;4DlQhK8eDfEf2fA5CcBOJjIWCyhIxII5hlfljWk1vQLLU1XibiOsi9hIpKuB7clNM8l7R0n5fPLH&#xA;/NP2cx9j3+kz+LijPvTXMJyHYqwT83fMcul+X0sbditxqhaIsOohUD1Pv5BfkTnS+zOhGbOZy+nH&#xA;v8Ty/SffTp+2tSceLhHOf3dWY/kF5n/KLyd5OUXHmC0j8wagFudWeQOjJsfTt1LotfSU7ha/EW7U&#xA;z0V44sy1f/nJX8o9PgZ4tUl1GVRUW9pbzF2+TSrFH974rTxfzz+dPnn8zmk8veWbF9N0OX4bpVbl&#xA;LKhP/HxMAFRCP2F69CW6Zi6vW4tPDiyGh9p9wcjT6WeWVQFsZ87aHZeUfJlto8LiXUNTnEt9P/Os&#xA;C14qOyq7LT6c57snWS1urllIqGONRHdxdffQNu31+njpsAxj6pmz8H1L+R3l99C/Kvy/ZyLxnmt/&#xA;rkwOx5XbGcA+6q4X6M6t0BZ1ihTuLi3t4mmuJUhiXdpJGCqPmTQYqh7TWdIvJPStL63uZAKlIpUd&#xA;qfJScVRmKuxV2KuxVBa3rOn6JpF5q+oyejY2MTz3EnWiIKmg7k9AO5xV8h3N/wDmR+ePmW6VLg2e&#xA;g2zBlt2ZhaW0ZJ9MFV/vZmp1Ir/qr00/bHbeHQQEslmUuURzP7G7HiMuSb3f/OLF+tsWtPMUU1zT&#xA;aKW1aJK/66yyn/hM5TH7fwMvVhIj5Ss/LhH3t50p70FDrf8AzkD+Vp/ePNfaLD2lrfWXEf5VfUhH&#xA;0pnVdn9v6TV0McxxfzTtL9vwtonhlHmHqPkX/nKjyfrJS18yQtoN8aD1yTNaMen2wOcdf8paD+bN&#xA;y1U9Y1jT9J81eV7zT/WS403V7WSEXMLLIhSVSokRlPE0rUEHFD48/Lu7vfKnnTUfKWrj0ZHma3ZT&#xA;0FzCSFp7SDoe/wAOcx7T6DxcIyR+rH/uevy5+63e9iargycB5T+/8foeo6poWjarGE1GziugBRTI&#xA;oLL/AKrfaH0HOG02tzYDeORj+O7k9Pm02PKKnEFjM/5Q+SpCSlvNBXtHM5p/wfPNxj9p9XHmYy94&#xA;/VTr59iac8rHx/Xbofyg8lR05wTTU685mFf+A445PafVy5GMfcP12sexMA52fj+plmnadZadZRWV&#xA;jCsFrCKRRL0AJqeu+5NTmjz555Zmczcj1dnixRxxEYigG3v7GNiklxEjDqrOoI+gnGGnySFxjIj3&#xA;FEs0AaJA+KrHLFKvOJ1dD0ZSCPvGVyiYmiKLMSB3CW695Y0PXoY4tVthcCEkwtyZGQtStGUg70G2&#xA;Zej7QzaYk4pcN8/wWjUaTHmAExdMck/J3yY5qqXEfssv/NQbNxH2p1Q6QPw/a689h4D/ADvn+xE2&#xA;f5VeSbaQObJp2Xp60jsPpUEKfpGUZfaTWT5SEfcB+m22HY+nj0v3llFpZ2dlAILSCO3gX7MUShFH&#xA;0LQZpcuWeSXFMmUvPd2MMcYCoig8qtNPk/M/83rLSbesmkwyBZpFJoLOA8p5K9vU3Cn3XPT+xND+&#xA;W04ifrl6j8enwDxPaeq8bKSPpGwfWHm/8wvJXkqzV9c1GKzPCtvZJ8U7quwEcKVanatOI8c27rXg&#xA;fmj/AJyl82a3dHS/IekNbNKeMNxJH9avH90hUNGh9jzyvLmhjiZTIjEdSaDIRtIofyZ/NrzrcDUf&#xA;N+qtb8t0+vStcTKDvRIUPCMf5PJaeGclrvbXSYdsd5ZeWw+Z/QC5EdNI89lbVf8AnGXzBp9sbzQt&#xA;cS9voPjjhaI2jkruPTkEkoDeFafPMLSe3mKcwMuMwj3iXF8xQ+y/czlpT0LOf+cdfzj1jVb+byT5&#xA;sneXVoFY6ddXFRO/o19W3mJ3aRACwLb0DV6DO8hMSAINguIQ9/yTF2KuxV8/f85aedms9E0/yhay&#xA;Um1RvreoKOv1eFqRKfZ5RX/YYpDIvyl8nL5V8k2VlInC/uV+tagT19aUA8T/AMY1on0Z4b7Rdp/n&#xA;NXKYPoj6Y+4dfid/i7TDDhizLNG2OIrsemKvPPOn5G+SfMoeeGD9Eak1SLuzUKjN4yQ7I3uRRj45&#xA;03ZftXq9LQJ8TH3S/RLmPtHk0zwRl5PKfqH5x/k3dteaZcNdaCG5SmPlNZOD/v6E/FE3+UKeAbPS&#xA;eyfaTS62oxPDk/my5/Dofv8AJw8mExSb8z/Ovl3z0bbzXZxfofzTAqRatY1qk4TaK4t5RT4kpxZW&#xA;o1ONK8Sc3xAIotY2Zz+XvnaHzHpgjnYLqtsoW6j2HMDYSqPA9/A/RnmXbfZJ0uS4j91Ll5eX6u8f&#xA;F7TszXjPCj9Y5/rZbmjdmxDzp+Y+leXeVrGBeapTa2U0VKjYyt2+XXN92V2Fk1XqPpx9/f7v1us1&#xA;3akMHpHqn3d3vea2mrecPPWq/UJNattOik6JcXC2dsKmnECpaQ+3xHOtnptL2dj4445TI/mx45fs&#xA;+wPM5tbmzmpS27uQeg2f/OLN1JAr3HmWKN2ANIbUypv4MZo6/dnN5fb+IlUcJI85V9nCfvaxpfNI&#xA;/Mf5HebvKFu2p2GvWgjTq5uPqEhI3oDIwjP/AAebDQ+1em1p8OeKdn+jxj7N/wDYr4c8e8TXxpLP&#xA;LH5yapaOtvrqfXrbp9ZQKsy+5Aor/gffMnX+y+LIOLD6Jd38P6x+NnZaTtucdsnqHf1/a9b0rVtO&#xA;1WyS90+dbi3fo69j3DDqCPA5w+p02TBPgyDhk9NhzQyR4omwjMx2151+avnlNNs30Owk/wByFytL&#xA;mRT/AHMTDp/rOPuH0Z1Xs52QcsxmmPRH6fM/qH3/ABdH2x2hwR8OP1Hn5D9rC/IXnnzJ5etbnTPJ&#xA;9of8Q6yRFLqKR+tciFa0htkoQlT8TNuenTjXO8y5YY4mUyIxHMnYPKVb0Lyr/wA4867rNz+mPPeo&#xA;yrLOfUltVk9a6kP/ABdO3NV+jkfcZwfavtxCFx0w4z/Oly+A5n418XKhpj1e2eXPKXlvy3a/VtE0&#xA;+GyjoA7otZHp/vyRqu/+yOefa3tHPqpcWaZl9w9w5D4OVGAjyTfMJk7FXzh+delXnkv8xtL87aOP&#xA;TF1Kt1UfZF3bkeorU7SoQT4/FnrXsV2n42mOGR9WLl/VPL5cvdTg6mFG+99W6BrVlrmiWGs2LcrT&#xA;UII7iEnqFkUNQ+4rQ++do4iPxVxIAqemKvj+2m/5Wf8A85Az37fvtHs5zKndfqljRIdvCWQKSP8A&#xA;KOaD2m7Q/K6KcgfVL0x95/ULLfhhcg+k88Qdk7FXYq7FWmVWUqwDKwoyncEHscQaV4v+af5BabqF&#xA;tNq/lOBbPU0Bkl01PhgnpuREvSN/AD4T7dc7vsD2wyY5DFqTxY/538Uff3j7ffycbLpwdw+fNKn1&#xA;jT9S+s6eJYr6y5SPxU8kEf8Aec1/lA+1Xt1z0rUQxZMfDOjCW3z5fs+xxsWSUJCUTRD0XUfzoaby&#xA;5wtYDBrktY3brFGKbyoT1PgD0/Xy2H2VEdRcpXhG/mfI/pPXy6b7J26TioCsn2e8Jp5N/InUNT8q&#xA;al5g10SNql3aTSaNYsTzMrRlo5pz9qrNTiv0nwzG7T9rIYtTDBhrw4ziJy6Ve4j7hzPy73TxwmQM&#xA;jzL1j8qPKX5X+evyu0qO+0KxmvbKIWWpFYxDdJcQfCS8sXCUGQAP9reud0HDKJb/AJxo8r27P+h/&#xA;MGu6TC7V+rW92vpKK7hQU5dPFjlGbR4cpucIyPmAfvSJkIvS/wDnGz8uLe7+uaqb/wAwXNQQ+p3L&#xA;OAQa9IhDyHs1ctx4owHDECI7hsgyJYJ+aHk3yZ5h/NTy/wCStG063srbTbS4uddbToooPTWVVMSs&#xA;Y1+2Cqn4h+2PHNR2/wBpnRaWWWNcdgRvqb/VbbhhxGnmfmHy15w/KbX1uIXN3oly/GO4pSGZevpy&#xA;rv6coHT8KiozW6TW6XtnBwkcOWPTrHzHfH8Ho5eDPk00+KPL70z8x/nLYjS4hoSM2oXCVdpVotue&#xA;4IP228Kbd/bMHQ+y0/EJzH0RPT+L9Q+373c6rtyPB+7+o/Z+v7mG+QvImu+f/MMkEcpWJT62pajL&#xA;Vgisf+Gdt+K9/lnQdr9rYezsAkR5RiOv6gOp6POxjLJLd9U+TPy+8seULIQaRahZ2UC4vpKNPL/r&#xA;P4f5IoPbPH+0+2dRrZ3llt0iPpHw/Sd3OhjEeTJM1bN2KuxV2KsI/OTyr/iPyBqNvGnO8s1+u2e1&#xA;T6kAJZR7vHyUfPN/7M9ofldbCRPpl6Ze6X6jRas0bilv/OJvnD9IeUb3y1O9bjRZvUtlPX6tcktQ&#xA;ePGUPX/WGe3usL3bFDA/zw82/wCF/wAtNXvY5OF5dR/UbE9D6tz8FV90Tk/0YpDyf/nGbyyLPy3e&#xA;+YJVHrapL6Nux6+hbkgkH/KkLA/6ozyv2613HnjgHLGLPvl+yvm5+mjtb2fOFcl85ee9e/OD8v8A&#xA;zdcavNqL3ej39zIbOOV/WtGjLFlh9EkGJlSleFPmc9Q7I0nZfaWmGIQ4csIjioVK/wCdxfxb99+Y&#xA;cLJKcJX0Zv5J/wCchvKet+na60P0JqDUHKVuVq59pduH+zAHuc0HansZqcFyxfvYeX1fLr8Pk2w1&#xA;APPZ6pFLHLGskTiSNwGR1IKkHcEEdc4+USDR5uQuwK7FXzV5+tI/L3/OQGm3VgojF9cWdzLGNlJu&#xA;H9Gcf89AGJ/1s9U7IynU9izjPfgjOP8ApRxR+W1e5wsgrJsy38w/+cddN1SSXUfKrx6betVn096i&#xA;1c/8VkVMR9qFf9XNN2N7aZMQGPUgzj/O/iHv/nff72zJpwdww6w/ND82vy8nTTPM1lJe2afDGt7X&#xA;kQP983acg/TvzzeZuweze04nJp5CMv6P++h0/wBi1DLOGxaX8zvL9vr0vmrydfz+VNcuTy1PTbuJ&#xA;rjTrs15Hl6PqMCd/919TUcdzmz7Mwa7RxGLJWfENomJqYHmJUCP86x5sJmMt+RZlY/8AOW+sQxel&#xA;qHluzu7lftT2uorbxN7qkiTsPpaudB4g8/kWnhQusf8AOSXm7XYmt9Pl0vyhZuKS38s51C5Ud/SS&#xA;FG3p4xfIjMfPqzEeiE5y7gK+2XCPtSId5SnQ/wA2vy88j2FwuiQ3vmLXL1jLqOsXX7g3EpJJLSSF&#xA;5QKkmnH5knfOM13YGv7SyieolHFjHKI9VfcCe825McsYDbdJr7Wvze/NpvqVraGHRGcco4lMNmOJ&#xA;qGlmepkK0rQE+y5mYtL2Z2N65SvLXXefwiOV9/zkgynk9yv59/J7TfI/5dvqFzN+kNcubmGBpxVY&#xA;YVbk7CJepJ4ULN27DIdj+0k+0NdwRHBhjGRrrLkN/nyHzK5MIhHzerfkJoVtpn5cafPGgFxqZku7&#xA;mTarEuUQV8BGq7fPOO9r9VLLr5RJ9OOoj5WftJcjTxqL0TOYbnYqk3mXzh5b8s2n1rW7+K0QgmNG&#xA;NZHp2jjWrt9AzO0PZuo1UuHDAy+4e88gxlMR5vCvO3/OSOq33Ox8p25sIWPH6/OFe4YHb4E+JI6+&#xA;/I/LPQuyvYjHjqepPGf5o+n4nmfs+LiT1JPJ6d+Tui+f9N0S6bzjeS3NxdSLJawXExuJoV4/EHcl&#xA;qctvhDbZyftNqtFlyxGliIiIokDhB9w8u/q34YyA9T0Aiux6Zzbc+cfJM/8Ayrb/AJyFOmkiLStQ&#xA;nay32X6tfUe336fu5PTBPsc947E135rSY8p+oij/AFhsft3dXlhRIfXebZqfMP8Azll5jl1HzDoX&#xA;k6xPqPAPrM8Smtbi5PpwIR2ZUBPyfITmIxMjsBuyiHr3lnQ4NC8vado8FOFjbxwlh+0yr8b/AOya&#xA;rZ8/6/VnUZ55T/HIn9Q+A2dtGNCkzzES+c/z5vrzzT+Y+jeTNOPKSAxQBd6fWr1l3anZY+Br23z1&#xA;f2G0Ph6aWY88p/2MdvvtwdTKzXc9Z83f84xeQNa0+JNLVtE1KCJIku7cco5PTUKGmgJCsTSpZSpJ&#xA;3JOdu4tvHL/y7+d/5Pu88DNd+X4m5NNFW5sCCf8AdkZo8Na7mi79GOajtLsPS6wfvY+r+cNpfPr8&#xA;bDbDKY8nrv5X/mppXnixdQgs9ZtVBu7EmoKnb1Ij+0lfpU9exPlHb3s/k0EwfqxS5S/QfP7/AJgZ&#xA;2LKJe9nOc+2vnvXdB1/zN/zkND69lNHp+mzW8gmKMI/q1qolB5kUpJICBTxp2z0vSavDpewzUgZz&#xA;jIVe/FLbl/RH3OHKJlkfQmeaOYpXVpaXcD293DHcQSCjwyqHRh7qwIOTx5JQkJRJjIdRsVItg+sf&#xA;kb+WmpsXOkizlP7dm7wj6EB9P/hc6DTe1mvxbcfGP6QB+36vtajgiejGp/8AnGHyS71h1HUYlNTx&#xA;Z4Hp8v3S5tI+3mr6wx/KX/FMPysV9r/zjH5GjblcX2o3FD9j1IUUj3pFy/HIz9u9YeUcY+Ev+KX8&#xA;tFleifk3+W+juslvosU860Iluy1yajvxlLID8lGajVe02vzCjkIH9H0/aN/tZxwxHRmUcaRoqRqE&#xA;RRRVUUAA7ADNCSSbLawb87PLd1r35eahb2cbTXloyXkEKCrOYT8YAG5Pps1AOpzovZXXR02tiZGo&#xA;SuJPv5fbTVnjcUH/AM4/z6o/5c21vqFtJbGzuJoLYyqVMkJIkDgMBsHkZP8AY5f7YwxjXmUJCXFG&#xA;JNdDyr5AH4o098L0OeeC3gkuLiRYoIlLyyuQqqqipZidgAM5iEDIiMRZPINxLwPzj+fPmHWtV/QH&#xA;5e2skjSMYo71YjNczHuYIqMFX3YE03+HPTOxvYqEYieq9Uv5g5D3kcz7tve4eTUn+FF+UP8AnGPz&#xA;d5juxrP5g6nLaCYh5LZZBPfOPB5G5xxf8Me1Bnd4cEMURGAEYjoNg4hlav8A85Ffk95a8t+SdK1T&#xA;yxpy2kWmzmDUHUs8kiXAHCWWRiWbjInEb7c9stQC9B/KrzL/AIj8h6VqDtyuVi+r3ZPX1oP3bE+7&#xA;0D/TnhXtDofyusyQH03xR90t/s5fB2mKXFEFluaZseCf85PeXWQ6P5otwUkQmxuZFqCCKywHbpT9&#xA;5v8ALPR/YLXf3mnP9cfdL/euJqo8i9j/AOVo2/8AypP/AB16ifWf0dypUU+v09H0/wDpI2+WejuF&#xA;TwH8nrQ+efzX1LzTq7GSS2d9SWMmv755KQj/AFYh9nw4rnI+2evlg0fBHnlPCf6tb/Pl7rcnTwuX&#xA;ufS2ePueoX97b2NjcX1y3C2tYnnnfwSNSzH6AMsw4pZJiEd5SIA95Umngn/OOul3Hm/82tV8436F&#xA;o7D1bsE1Krc3bMkSfJY+dPCgz6B0emjgxRxR5QiB8nUzlZt9X5ksFssUUsTxSoskUilZI2AZWVhQ&#xA;gg7EEYq+QvzZ8o3n5SfmRYeZPLqmPR712ntIv2EYGlxaN/kFW+H/ACT4rXMPX6KGqwyxT+mQ+Xcf&#xA;gWyEyDb6F0XV7PWNIs9Vsm5Wt7Ck8R78XFaH3HQjxzwTVaaWDLLHP6oEg/B2kTYtG5Ql2KuxV2Kp&#xA;jpenxXEcryg0+yhBpQ03Odr7K+z+LW48k8oNfTGjyNWT8LFXt5ONqMxiQAl7KyMVYUZSQR7jONy4&#xA;pY5GEhUomj7w5IN7tZBXYq7FXYq8K/5yL87XhktPJGklmnvOEuoLFUu4dqQwADryPxEf6ueiexHZ&#xA;AleqmOW0P0y/QPi4mpyfwvXvyY/KfTvIfl2L1Ykk8xXiK2qXnVgTv6EbdkTpt9o7ntT0pwiXomKE&#xA;j88eWoPM/lHVtBmoBqFu8UbHostOUT/7GRVbFXzb/wA4z6/NaalrPlS8rHIf9KhibYrLEfSnWnjT&#xA;j/wJzzz280Nwx5x09J+O4/T83N0suYfQOeaOYkXnfytaeafLF/otzt9YjJgk7pMnxRP9DAV9s2HZ&#xA;XaEtJqI5Y/wnfzHUfJjOHEKfGn+JdZ/w3/hv6y36H+tfXvq1Tx9fh6fL/gc9+dW9T8t+p+V3553e&#xA;iXZMelXcrWiyN0NtcsHtZK9PhPAMe3xZzntT2cdVo5CP1w9Q+HMfK/jTbgnUn0rnijsUm846DJr/&#xA;AJW1TRo5fQlvrd4o5akAORVeVKnjX7Xtmd2ZqxptTDKRYhIH8efd5sZxsEPBfyw8967+Tvm2fy55&#xA;nswmkX0iNeMqgulfhS5ikA/eRgdV+dKNUH3TQ6/FqsQyYjcT9nkfN1k4EGi+vopY5YkliYPHIoZH&#xA;U1BUioIPvmY1rsVed/n95UTzF+V+roqcrvTE/SVoe4a2BaSn+tDzX6cUh5v/AM40eYGvvJ13pMj8&#xA;pNJuf3Yr0huAXUf8jFkzyf250fh6qOUcskftjt93C7DTSuNPX84lyHYq7FXYqyXT4fSs4l7kcm+b&#xA;b57n7OaP8voccepHEffLf7OXwdXmlcik+rw+neMQKLIOY+ff8c8z9r9F4GukQPTkHF8+f2gn4ubp&#xA;pXH3ILOYb3Yq7FXYq+dPyhtF89fn/d67c0ltbCSfU0ruOMLCG0FfFOSMP9XPf+y9INPpseL+bEX7&#xA;+v226rJKyS+uMz2t2KsD/OH807L8vfLYvDGLnVr0tFpdoxorOoBaR6b+nHyHKm5qBtWoUgPCPyS8&#xA;neata85H8xNW/cW00lzcB6CI3M1wGV2WNQB6dZCa7b9K75wftl21hGGWlj6skqv+jRB+fk5enxm7&#xA;6PobPLXNYf8Amv5uTyt5Iv79X43s6m1sB3M8wIBH+otX+jN37PdmnV6uECPQPVL3D9fL4teWfDF8&#xA;z/8AKstX/wCVW/4+o31T699V9Gh/uKcPrFafZ9f93889zdY94/5yt8gHUNCtfONlHW80mlvqHEbt&#xA;ayN8Dn/jFK33MT2xQE4/J7zsPNnky2uJpOep2VLXUQT8RdB8Mh/4yLRq+NfDPEPaXsr8nqpAD93P&#xA;1R93d8Dt7qdnhnxRZxmgbXhP/OTdxod1o+m+hPbzapZXhhmSORGmiSWJmKuqnktTGOoz0L2Fhmhl&#xA;nYkMc4WLGxINbH49HF1NV5vdvyknaf8ALDytIz+of0ZbKWrX7EYWn0UpnpjgFluKqdzbxXNtLbzL&#xA;yimRo5F8VcUI+44q+Sf+cbXl0/zzr+iu1SLZi/gXtZ1j8f8Ai05wvt7iB02OfUTr5xP6nM0p3L6N&#xA;zytzVezjt5Jwk7lEI+0KDf5nNp2Pp9NmziGomceMjnsN+m5sAebDJKQFhNf0Hafzyfev9M9E/wBA&#xA;mi/n5fnH/iHD/Ny8mxodoD9qQ+1R/TJD2E0QP1ZT8Y/8Sj81LyTDO0cZD3djDdcfULApWhWg6/MH&#xA;NJ2x2Dg7Q4fFMhwXXDXWu8HubceUw5Ib9BWn88n3r/TNL/oD0X8/L84/8Q2fm5eSHvtNsraAt6je&#xA;ofsKSDU/KgzSdu+zWg0WAz8SfifwgmJv4cINd56fYbcWecjy2SvOBctLvMdy1r5e1S5WvKC0nlWn&#xA;WqRM3f5ZlaDEMmfHA/xTiPmQiRoF5P8A84c2KmTzTfMPiUWcEZ26MZmf/iK59COoL6WxQ7FXyt/z&#xA;lk4m/MHy9Zu/KMWKMYq9PVuXUn/ZcPwyMzQJZB7fo95o1zZIuj3FvcWVt/o6fVZEkjT0wF9OqEgF&#xA;RtTPnvVYssJ/vRKM5b+oEE313dtEjojcx0vm7829VvvzB/M3TvJOiPzhtJvqgYVKfWWP+kStT9mF&#xA;Vof9VvHPXvY3sr8vpvFkPXl3/wA3+H58/l3OBqMlmu59Pf4H0H/BH+DfS/3D/UvqHHblw4cedf56&#xA;/Hy/m3zsHFTjUtOs9S0+5069iE1neRPBcRN0aORSrKfmDir5C8sXNz+UX5v32ganIV0a5cW8k7/C&#xA;pt3PK1uSenw8qN4Vbwzm/ajsn85pTwj95j9UfPvj8fvAcjBk4S+kob2zmtRdwzxy2pXmJ0dWjKjf&#xA;lzBpTPGJYpxlwkES7uvydjb4tbRNf83+ZtXm8v6dcam0lxNdMltG0hWOWUlWag2Hxd8+gtHhOPDC&#xA;B/hjEfIU6qRs2+2Pyn0XVtE/LnQdK1eIQaja23CeEEHgS7MqkqSKhSAad8yWssj1PVdM0qylv9Tu&#xA;orKyhFZbid1jjUe7MQMVeSa5/wA5V/lpp9wYLJL7VuJoZ7eJUi28DO8Tn/gcU08K/LTz55d0r809&#xA;T8xak72emaibsxEoXMf1mcSIHWPl0XrSuc37U9nZtXpeDELkJA1dd/e34JiMt31FpWr6Xq1jHfaZ&#xA;dRXlnL9ieFg6nxFR0I7jPG9RpsmGZhkiYyHQuwBB5IvKUo2x1SW3oj1kh8O4+WdT2H7U5tHUJ/vM&#xA;Pd1j/V/4nl7mjLgEtxsU9gninjEkTclP4HwOes6HX4dVjGTFLij9x7j3F18oGJor8zGLsVS++1aO&#xA;GscNHlGxP7I/rnF9ve1+PTE4sFTyjmf4Y/rPlyHU7U5OLTmW55JJJLJK5eRizHqTnlmp1WTPMzyS&#xA;MpHqfxy8uQc+MQBQW5QlKPOH/KJa3/zAXX/Jlsz+yv8AG8X/AAyH+6DGf0n3POP+cOf+Ob5o/wCM&#xA;1p/xGXPf3Ul9F4odir5k/wCcnfy988a550stX0nSZ9S05dPjtvUtU9Qo8cssjK6rVh/eVrSmKQlv&#xA;/OLOp2yvr+mu4W4k+r3EKE7sq+orkD/J5LX55517f4ZEYpgekcQPx4a+4ubpTzD0v80/zBsfKPlm&#xA;7mjuIv01Knp6faFlMnqPsJCla8U+0e3bvnKez/Y09bqIgg+EDcj0odL7zy+1uy5OEebF/wDnFL8v&#xA;3S3vPPWpRlri7L2ulPJUn0wf9ImFevNxwB9m8c9vArYOsJfRWFDsVYB+af5MeWvzDjgmvpZbHVbR&#xA;DHa6hBxY8CeXCVG+2gYkgVB9+uKQXi03/OJv5gW00kGm+YrFrCWokZ2uYGZf8qJElU/LnkJY4kgk&#xA;Cwniez/k5+Udl+Xej3ERuBfatfsr314F4LRAQkUYJJ4ryJqdyT8gJoJZxqWo2Wmadc6jfSiCzs4n&#xA;nuJm6LHGpZj9wxQ+QdW1bzn+ennZ7e3c2fl+xYtDE1fRtYCSFkkUH455B/QUUZqe2O2MWgxcc9yf&#xA;pj1J/V3n9NBux4zI0HrPl38i/wAutHt1SXThqdzSklzekyFj7R7RqPkv055XrfazXZztPw490dvt&#xA;5/a5scEQqa7+R/5catbtGNLXT5iKJc2RMLKadeIrGfpXI6T2r1+E/Xxjulv9vP7UywRPR4xPB5x/&#xA;JTzfCyTG80O8bkeNVhuolNGVlNQkyA9q09xndwnpe3tKQRw5Y/OJ/TE/b5FxfVil5PpjR9WsdY0u&#xA;11Swk9WzvI1mhf8AyWFaHwI6EdjnlGp008GSWOYqUTRc4GxYRmUpZHpkPpWcY/ab42+Z/sz272Y0&#xA;P5fQwB+qfrP+dy+yh8HV55cUiiiQOppXYZvpSA5nm1OySsd1WD0r16fZf4x9PX8c8U9q9D+X106+&#xA;nJ6x/nc/9lfwdnp5XBCZzjc7FUn85Mq+UNcZiFVdPuizHYACBtzmf2T/AI3i/wCGQ/3QY5PpPuec&#xA;/wDOHIP6N80Ht61p/wAQlz391JfReKHYq7FXzl52/wCcWtYm8x3Wr+S9XgsIbp2lFpcNLCYWkNXS&#xA;OWFZCU3NBxFOnvkZwEhRFhkCo+Wf+cQ5Dci48166JErWS209SWc+88wFP+Rf3YQEW+idK0uw0nTb&#xA;XTNPhW3sbOJYLaFa0VEFFFTufmeuFCKxV2KuxV2KuxV5B/zlNrNzp35WNbwsVGqX0FnKRseHF7gj&#xA;6TAAcUhLPyE0C20r8ubG4RQLnVC93cv3NWKRivgI1G3jXPGPa/Vyy66UT9OOoj5WftLstPGopl+Z&#xA;X5naP5H05JLhDdancg/UrBGClqdXkbfgg8ab9u9MXsPsHL2hMiJ4ccfql+gd5/HcyyZRF43a+bP+&#xA;cg/OzG90SOaCxJPpC2SK2t9uoWWcgvT/AFznc5Oz+xNB6MvCZ/0rlL4xjy+QcYTyS5Me8/3f5v22&#xA;kjS/OsU0tg8iyQTXCRSqkq1oY7iGo5FSRQt0PTNl2Pj7Mnk8TSGInVEAkbecT05b1z6sMhnVSet/&#xA;840azJd+SbrTpW5HTbtliH8sUyiQD/kZzzjPbnTCGrjkA+uH2jb7uFyNMfTT2O0h9a5ji7Md/kNz&#xA;+Gc32RovzWqx4ukpb+4by+wFtyS4Ykp9eX8FqtG+KQj4Yx1/sz2Dtnt/T6CNS9WStoD9P80fgA06&#xA;7HiM/ckNzeT3EnORun2VGwHyzyLtPtjUa3Jx5Dy5Aco+79fN2MMYiKCPsNYIpFcmo6CXv/sv6513&#xA;YHtkY1i1RuPSfX/O7/63Pvvm42XTdYqutxCS3jnQ1CnqOnFu+Z/tvpY5tNj1EDxCJ5iq4ZdfmBXv&#xA;Y6WVSISXPLnOdirF/wA0boWv5deYpCacrCeL/kchj/43zbdgYzPXYQP58T8t/wBDDKaiWNf84gWr&#xA;L5L1q734y6l6Q6UrFBGx9/8Adue8OqL3rFDsVdirsVdirsVdirsVdirsVdirxD/nLr/yW2m/9tmD&#xA;/qFucUhM/wAo/wDyWvl7/mEX/iRzwz2k/wAfy/1v0O0w/SHiUFiv5kfnreQ6ixfTLSaUNED1tbJu&#xA;CRinQSNTlT+Y530s38l9jxOPbJKI/wBNPcn4DlfcHFrjybvpiCCC3gjt7eNYoIlCRRIAqqqigVQN&#xA;gAM8onMyJlI2TzLnAKWo6dY6nYz2F/AlzZ3KGOeCQVVlOTwZ54picDwyjyKkXsXzn+XiXPkX88rj&#xA;yykrNYXUj2jg9WjeP17ZiP5hVRX3OeodsmPaHZA1FeuIEviDwz+HP5BwsfoyU+lkd0YMhKsOhGxz&#xA;y7DmnikJwJjIciNi5hAPNzMzMWYlmPUnc4MmSU5GUiZSPMncpAprIK7FV/qy+n6XM+nWvCu1cyPz&#xA;eXwvC4peHd8N7X7kcIu+qzMdLsVeZ/8AOQ+qCy/LW6t+XF9RuILZaGh2f1m/CHOr9i9P4mvEv5kZ&#xA;S+zh/wB80ag1Fk//ADjTpLaf+UmmSOvF9QluLtgfBpTGh+lIlOexuuL1LFDsVdirsVdirsVdirsV&#xA;dirsVdirxD/nLr/yW2m/9tmD/qFucUhM/wAo/wDyWvl7/mEX/iRzwz2k/wAfy/1v0O0w/SHkP5Bj&#xA;/kLvmL/mFvP+o2HO29sP+M3F/Xh/uJONp/rL6Nzy5zXYq+ctb/8AWoo/+Yqz/wCoGLPUNH/zj5/q&#xA;T/3cnCl/evo3PL3NdirsVdirsVdirsVfPP8AzknrMup+YtF8p2AMs8Q9WSJdy090wjhT/WCrX/ZZ&#xA;6f7B6ExxTzn+M8I9w5/Mn7HD1UtwH1B5Y0SLQvLml6LFQpp1rDbBh0YxIFLb+JFc79wkzxV2KuxV&#xA;2KuxV2KuxV2KuxV2KuxV4t/zlnZzz/ljbSxrVLTVLeaY+CGGaIH/AIOVRikKn5Kahb3v5ZaI0Jqb&#xA;eN7eVa7q8UjKQfmKN8jniPtVhlDtDJfUgj4gf2OzwG4B5V+Qf/k3fMX/ADC3n/UbDnYe2P8Axm4v&#xA;68P9xJx9P9ZfRueXua7FXzlrf/rUUf8AzFWf/UDFnqGj/wCcfP8AUn/u5OFL+9fRueXua7FXYq7F&#xA;XYq7FUt8x+YNN8v6Jd6xqMgjtLRC7eLHoqL4s7UUe+ZWi0eTU5Y4sY9Uj+D7hzRKQAsvDPyF8v6j&#xA;5+/NS888asnK002U3bV3U3T1FtEte0KjkPDiteue9aLSQ0+GOKH0wFft+PN1U5WbfWWZTB2KuxV2&#xA;KuxV2KuxV2KuxV2KuxV2KpP5w8sWPmjyxqXl+92t9QhMRcCpR/tRyAeKOoYfLFXyf5H81a3+UPm6&#xA;+8seabd102aQGfiC3E/ZS6h/nR1G9N6e60zlvab2f/PYxKG2aHL+kP5p/R+23Jw5eH3Ir/nHueK4&#xA;/NbXriFucM1ldyRtuKq15AQd9+hzWe2cTHs7EDzE4/7iTPT/AFl9I55a5rsVfLP5mp5hf8+r1fLg&#xA;Y64ZbT6gI+HL1PqUXTn8PTxz2T2ZwQzdlQhMXGXGCP8APk6/MamSnMf51fm15RvEtvOejtNGx6XV&#xA;ubOVgOpjkRRE3/AHMbW+xGkyD90ZYpf6YfI7/wCyDKOpkOe72XyN+Y3lnznZmbSpyt1EoNzYTUWe&#xA;Ku1SKkMv+UpI+nPOu1uxNRoZVkHpPKQ5H9vkXLhkEuTKM1LN2KuxVJfM/nHy35Ysjd61fR2qUJji&#xA;JrLIR2jjHxN9A+eZ2g7Mz6ufDhiZfcPeeQYymI83zT508/6z+aPmzTNCtD+j9KubyG10+1kO3qzu&#xA;Ilmn41q3x9BXiOncn17sD2fx6CFn1ZpfVL9A8vv+QGBlymXufXvkTyVpHkzyza6Dpi1igHKecijz&#xA;TMB6kr+7U+gUHbOicdkGKuxV2KuxV2KuxV2KuxV2KuxV2KuxV2KsV8//AJZeU/PWnra65bEzRAi1&#xA;v4SEuIS3Xg9DUf5LAr7Yq+Z/yQtk8ufnNq2gzPWSOO+02Nn+Es1vOrVp4lYCc4/23wmehsfwTiT9&#xA;sf0uVpj6n0rnkLnuxV88QSLqP/OVtu1n+9CX0StTehtbILN0/lMTfdnt3stjlDs7EJdxPwMiR9hd&#xA;bnPqL6p1XSNL1ewl0/VLWK9spxxlt5lDoR8j38DnQND5Y/Nz8oNW/LPVIfOnkqaVNHilBZal5LN3&#xA;NArE/bgevGrf6rVrU0anTY8+M48g4oS5hnGRBsPW/wAt/Pll508txanCBFeRn0tQtQf7uYDen+Sw&#xA;+JT/ABBzw/tvsiehznGd4neJ7x+sdXZ48nELZVmoZvMfzf0782766sIvJUrx6e0bC8ME0VvKJeWx&#xA;Z5GRuPHpxPj7Z1vs1n7MxxkdWBx3tcTIV7gDvff5V1aMwmfpYRof/ON3mHUrv695w1jiXIMkcDtc&#xA;XD+zTSDip/4LN9q/bfBijwaXHy7/AExHuA5/7FqjpifqKVa55b0fy5+fvlTStIgFvZw32kFUqWJY&#xA;3KcmZmJJJzovZjW5dVpBkynimZSac0RGVB9j50LQ7FXYq7FXYq7FXYq7FXYq7FXYq7FXYq7FXYq+&#xA;Z/8AnIf8s9e0fzKv5k+VlfiGSbUhAKvbzxAAXHEVrG4Hx7UrWuzZVnwQywMJi4yFEMoypX8qf85K&#xA;eV7qxjTzHDLp+oIoEskSGaByB9peNXWv8pXbxOeXdoew+ohMnAROHQE1IfoPvv4OdDUjqg/O3/OS&#xA;ekR2Mtr5TikuL6RSq386enFFX9pUb4nYdgwA+fTL+yvYfIZiWpIEB/CDZPkTyA91n3c0T1I6J9/z&#xA;jV+U+raZNP548xxPHqN9Gyabbzg+sqSnlJcSctw0nRa70qe+emxiIgAbAOCS9/ySEPqWnWWpafc6&#xA;ffQrcWd3G0NxC4qro44sD9BxV8k+SFvPyy/O678p3EjNp19MLIM37aS/HZS7bcvjVT4cmzl/a7s4&#xA;ajRykPrxeoe7+L7N/eA5OnnUve+kc8Zdg7FXYq+ePP3/AK0n5Z/5jtH/AOolM9i9i/8AEI/1pfe6&#xA;/U/U+tM6xxnYq7FXYq7FXYq7FXYq7FXYq7FXYq7FXYq7FXEAih6YqwDXvyF/KjW7prq60GKG4Y1d&#xA;7R5LYMT1qkLJHue/GuKbRHlj8lfyy8tXa3mmaHF9djPKO5uWkuXQg1DJ6zOEI8VAOK2zfFDsVYZ+&#xA;a35lad5A8rvqs6C4vp29HTbKtDLMRWppuEQbsfo6kYqHyLp/mrzD5q/Nny9rmvP6l7danYFCEEaC&#xA;JblVRY1A+ytKA7+5JzWdsEHR5v8AhU/9yW3H9Q977AzwR2jsVdir548/f+tJ+Wf+Y7R/+olM9i9i&#xA;/wDEI/1pfe6/U/U+tM6xxnYq7FXYq7FXYq7FXYq7FXYq7FXYq7FXYq7FXYq7FXYq7FXYq+Vf+coZ&#xA;rjV/zT8v+Xi5W2W2gRB4SXlyyOw/2KJ92U6nN4WOU/5sSfkLZxFpR58srSw/PvyzZWkSw2ttPpEU&#xA;ESiiqiTIFA+QGcX2Tllk7GzTkblKOYk+dFyZisg+D6UzytzXYq7FXzx5+/8AWk/LP/Mdo/8A1Epn&#xA;sXsX/iEf60vvdfqfqfWmdY4zsVdirsVdirsVdirsVdirsVdirsVdirsVdirsVdirsVdirsVfKn5/&#xA;/wDk/vL3+ppv/UU+YPaf+K5f+Fy/3JbMfMJZ+ccw0n88NE1W6HG1jOn3ZboPThn+Pf29M5yPs1Hx&#xA;+yMmKP1fvI/Ex/a5GbbIC+kAQQCDUHcEZ5a5reKuxV86+ZZBrH/OTeiwWVJGstQ05ZCDUf6MyTy/&#xA;8CAQfcZ7R7IYTDs+F/xcR+38F12oPqL63zpnHdirsVdirsVdirsVdirsVdirsVdirsVdirsVdirs&#xA;VdirsVdir5U/P/8A8n95e/1NN/6inzB7T/xXL/wuX+5LZj5hmP57fl3P5q8ux32mx+prGk8pIolF&#xA;WmhYfvIh4tsGX7u+eV+yXbI0mcwyGsWT7D0Pu6H59HOz4+IWOYYt+UP55adHp8Hl3zZN9UntFENp&#xA;qUlfTeNBRUmP7DKBTkdj3oeu39pPZSZmc+mHEJbyj1vvj3g93Pu25Qw5xVF7VFrWjzQieG+t5ICO&#xA;QlSVGQjx5A0zgp6XLGXCYyEu6jbk8QedfmP+enlzy9Yy2uiXEWq644KxCFhJBCTtzldaqeP8gNfG&#xA;mdP2L7J59TMSzA48Q53tI+QH6fvacmcDlzQH/OMX5b6lJf3H5ia8jetdCQaT6w/eSNOT610a7/EC&#xA;VU96sfDPXscIwiIxFRAoOvkX0bk2LsVdirsVdirsVdirsVdirsVdirsVdirsVdirsVdirsVdirsV&#xA;fKv/ADlDDcaR+afl/wAwlC1s1tA6Hxks7lndR/sXT78p1OHxccofzokfMUziae7WF9aX9jb31pIJ&#xA;rW6jWaCVdwyOOSkfQc+e82KWOZhIVKJo+8O2Btg3nn8k/J/myeS+ZH03VZN3vLWgEjeMsZHFj7ij&#xA;e+dB2T7U6rRgQ/vMY/hl09x6faPJpngjL3vnU/l59Y/MyPyPpWoC+aS6S0OoLFxVdg0z+mHevojl&#xA;y+L9k5652bq5anBHLKPAZi6u/d0HMbuDOPCafSHkn/nFvyPoNzHe6zPJ5hu4iGSOdFitQR0JgBcv&#xA;8ncr7ZnNdvZlVVUKoAUCgA2AAxQ3irsVdirsVdirsVdirsVdirsVdirsVdirsVdirsVdirsVdirs&#xA;VYZ+a35a6d5/8rvpU7i3voG9bTb2lTFMBShpuUcbMPp6gYqHzTZ63+b/AOT8smlalpzTaMjkoJ0e&#xA;S0PI1LW9ylOPLrxrt3UHOf7X9mtNrpccrjk/nR6+/ofv82/HmMeSte/nf+Z3nBDo/lrSzbzzjg7a&#xA;fHLPcUY0+F9xGP8AKpUeIzXaL2K0mGYnMyyV0NcPxHX7vJnLUyI7nrf5B/kfc+TvU8xeYuD+YrpD&#xA;HDbqQ4tY33erjZpX6MRsBsCanOxcYl7Rih2KuxV2KuxV2KuxV2KuxV2KuxV//9k=</xmpGImg:image>
               </rdf:li>
            </rdf:Alt>
         </xmp:Thumbnails>
      </rdf:Description>
      <rdf:Description rdf:about=""
            xmlns:xmpMM="http://ns.adobe.com/xap/1.0/mm/"
            xmlns:stRef="http://ns.adobe.com/xap/1.0/sType/ResourceRef#"
            xmlns:stEvt="http://ns.adobe.com/xap/1.0/sType/ResourceEvent#">
         <xmpMM:InstanceID>xmp.iid:60221B6208206811822A9DD448A483FF</xmpMM:InstanceID>
         <xmpMM:DocumentID>xmp.did:60221B6208206811822A9DD448A483FF</xmpMM:DocumentID>
         <xmpMM:OriginalDocumentID>uuid:5D20892493BFDB11914A8590D31508C8</xmpMM:OriginalDocumentID>
         <xmpMM:RenditionClass>proof:pdf</xmpMM:RenditionClass>
         <xmpMM:DerivedFrom rdf:parseType="Resource">
            <stRef:instanceID>uuid:ba5dc92b-6d0a-484a-ab90-b9370a4a0965</stRef:instanceID>
            <stRef:documentID>xmp.did:0980117407206811822A897E387FE54C</stRef:documentID>
            <stRef:originalDocumentID>uuid:5D20892493BFDB11914A8590D31508C8</stRef:originalDocumentID>
            <stRef:renditionClass>proof:pdf</stRef:renditionClass>
         </xmpMM:DerivedFrom>
         <xmpMM:History>
            <rdf:Seq>
               <rdf:li rdf:parseType="Resource">
                  <stEvt:action>saved</stEvt:action>
                  <stEvt:instanceID>xmp.iid:60221B6208206811822A9DD448A483FF</stEvt:instanceID>
                  <stEvt:when>2018-09-05T11:38:41-03:00</stEvt:when>
                  <stEvt:softwareAgent>Adobe Illustrator CS6 (Macintosh)</stEvt:softwareAgent>
                  <stEvt:changed>/</stEvt:changed>
               </rdf:li>
            </rdf:Seq>
         </xmpMM:History>
      </rdf:Description>
      <rdf:Description rdf:about=""
            xmlns:illustrator="http://ns.adobe.com/illustrator/1.0/">
         <illustrator:StartupProfile>Print</illustrator:StartupProfile>
      </rdf:Description>
      <rdf:Description rdf:about=""
            xmlns:xmpTPg="http://ns.adobe.com/xap/1.0/t/pg/"
            xmlns:stDim="http://ns.adobe.com/xap/1.0/sType/Dimensions#"
            xmlns:xmpG="http://ns.adobe.com/xap/1.0/g/">
         <xmpTPg:HasVisibleOverprint>False</xmpTPg:HasVisibleOverprint>
         <xmpTPg:HasVisibleTransparency>False</xmpTPg:HasVisibleTransparency>
         <xmpTPg:NPages>1</xmpTPg:NPages>
         <xmpTPg:MaxPageSize rdf:parseType="Resource">
            <stDim:w>21.000131</stDim:w>
            <stDim:h>29.700013</stDim:h>
            <stDim:unit>Centimeters</stDim:unit>
         </xmpTPg:MaxPageSize>
         <xmpTPg:PlateNames>
            <rdf:Seq>
               <rdf:li>Cyan</rdf:li>
               <rdf:li>Magenta</rdf:li>
               <rdf:li>Yellow</rdf:li>
               <rdf:li>Black</rdf:li>
            </rdf:Seq>
         </xmpTPg:PlateNames>
         <xmpTPg:SwatchGroups>
            <rdf:Seq>
               <rdf:li rdf:parseType="Resource">
                  <xmpG:groupName>Default Swatch Group</xmpG:groupName>
                  <xmpG:groupType>0</xmpG:groupType>
               </rdf:li>
            </rdf:Seq>
         </xmpTPg:SwatchGroups>
      </rdf:Description>
      <rdf:Description rdf:about=""
            xmlns:pdf="http://ns.adobe.com/pdf/1.3/">
         <pdf:Producer>Adobe PDF library 10.01</pdf:Producer>
      </rdf:Description>
   </rdf:RDF>
</x:xmpmeta>
                                                                                                    
                                                                                                    
                                                                                                    
                                                                                                    
                                                                                                    
                                                                                                    
                                                                                                    
                                                                                                    
                                                                                                    
                                                                                                    
                                                                                                    
                                                                                                    
                                                                                                    
                                                                                                    
                                                                                                    
                                                                                                    
                                                                                                    
                                                                                                    
                                                                                                    
                                                                                                    
                           
<?xpacket end="w"?>
	</metadata>
<g>
	<path fill="none" d="M32.903,6.873c0.004,0.001,0.01,0.001,0.014,0.002l-0.534-0.64C32.512,6.571,32.683,6.818,32.903,6.873z"/>
	<path fill="none" d="M30.293,4.316h0.023c0-0.065,0-0.126,0.002-0.18l-0.012,0.006C30.301,4.199,30.297,4.264,30.293,4.316z"/>
	<path fill="none" d="M40.408-2.64c0.024-0.071,0.052-0.146,0.07-0.207c0.208-0.696,0.106-1.337-0.07-1.848V-2.64z"/>
	<path fill="#FFF105" d="M0.164-16.108c1.219,0,2.388-0.379,3.327-0.685c0.339-0.11,0.654-0.211,0.948-0.289
		c-1.826-0.877-3.631-1.256-5.401-1.097c-1.287,0.116-2.455,0.503-3.493,1.02c0.386,0.076,0.815,0.211,1.292,0.366
		C-2.224-16.487-1.055-16.108,0.164-16.108z"/>
	<path fill="#FFF105" d="M39.818-5.802c-0.079-0.09-0.138-0.195-0.175-0.308c-0.036-0.109-3.574-10.899-5.397-13.94
		c-1.479-2.467-4.879-1.164-5.023-1.107c-0.096,0.034-5.088,1.721-11.028,5.408c-5.341,3.315-3.156,7.5-3.061,7.677
		c0.233,0.43,0.073,0.968-0.357,1.201c-0.43,0.233-0.969,0.073-1.201-0.357c-0.021-0.039-1.396-2.67-0.24-5.663
		C9.757-10.194,5.323-8.573,0.507-8.573c-5.619,0-10.724-2.196-14.542-5.755c2.377,3.533,0.535,7.054,0.51,7.099
		c-0.232,0.431-0.771,0.592-1.201,0.357c-0.429-0.232-0.589-0.767-0.359-1.197c0.094-0.178,2.239-4.394-3.058-7.68
		c-5.941-3.688-10.932-5.375-10.981-5.392c-0.19-0.074-3.591-1.377-5.071,1.091c-1.823,3.04-5.361,13.831-5.396,13.939
		c-0.037,0.113-0.097,0.218-0.175,0.308c-0.043,0.051-1.14,1.359-0.661,2.955c0.478,1.595,3.246,6.871,4.434,9.073
		c0.706,0.339,2.164,0.892,3.142,0.647c0.624-0.156,0.872-1.801,0.805-2.878c-0.03-0.488,0.341-0.909,0.829-0.939
		c0.492-0.017,0.909,0.341,0.939,0.829c0.004,0.067,0.011,0.224,0.012,0.433h0.025c-0.058-0.711-0.12-1.743-0.12-2.907
		c0-1.288-1.684-2.484-2.273-2.802c-0.384-0.207-0.56-0.662-0.416-1.073l2.78-7.942c-0.785-0.404-1.287-0.666-1.301-0.674
		c-0.434-0.227-0.601-0.762-0.374-1.196c0.227-0.433,0.762-0.601,1.196-0.374c0.044,0.023,4.451,2.329,7.975,3.986
		C-19.839-7.281-16.842-1.806-17,5.646c3.31,0.884,5.771,3.851,5.887,7.407c0.797,1.038,1.277,2.332,1.277,3.739v7.195
		c7.818,0.832,10.062,8.719,10.084,8.801c0.021,0.075,0.031,0.153,0.031,0.231v7.691c0,3.08,2.434,5.594,5.478,5.739
		c0.115-0.056,0.241-0.092,0.378-0.092c0.13,0,0.252,0.032,0.363,0.082c2.954-0.239,5.285-2.714,5.285-5.729V26.915
		c-1.523,1.074-3.28,1.795-5.291,2.131c-0.049,0.008-0.098,0.012-0.146,0.012c-0.425,0-0.801-0.307-0.873-0.741
		c-0.08-0.482,0.246-0.939,0.728-1.02c7.606-1.269,11.256-8.907,10.85-22.702c-0.226-7.674,2.97-11.939,5.776-13.26
		c3.524-1.658,7.93-3.963,7.974-3.986c0.436-0.227,0.969-0.059,1.196,0.374c0.227,0.434,0.06,0.969-0.374,1.196
		c-0.015,0.008-0.516,0.27-1.3,0.673l2.779,7.943c0.143,0.41-0.033,0.864-0.415,1.072c-0.632,0.344-2.275,1.519-2.275,2.803
		c0,1.079-0.053,2.033-0.106,2.734l0.012-0.006c0.002-0.116,0.007-0.207,0.01-0.253c0.03-0.488,0.443-0.849,0.938-0.829
		c0.488,0.03,0.859,0.45,0.83,0.938c-0.042,0.697,0.051,1.626,0.287,2.241l0.534,0.64c0.977,0.236,2.425-0.312,3.126-0.649
		c1.144-2.118,3.743-7.071,4.365-8.865v-2.055C40.18-5.355,39.824-5.795,39.818-5.802z M9.864,2.441l-5.68,4.016l2.235,6.588
		c0.087,0.26-0.004,0.546-0.225,0.707c-0.109,0.079-0.238,0.119-0.368,0.119c-0.132,0-0.262-0.042-0.374-0.124l-5.574-4.162
		l-5.574,4.162c-0.221,0.163-0.521,0.166-0.741,0.005c-0.223-0.161-0.314-0.447-0.227-0.707l2.237-6.587l-5.679-4.016
		C-10.329,2.285-10.423,2-10.34,1.739c0.085-0.258,0.325-0.432,0.596-0.432c0.003,0,0.007,0,0.01,0l6.954,0.087l2.064-6.644
		c0.162-0.522,1.031-0.522,1.193,0l2.066,6.644l6.952-0.087c0.003,0,0.007,0,0.009,0c0.271,0,0.511,0.173,0.596,0.431
		C10.183,1.999,10.089,2.284,9.864,2.441z"/>
	<path fill="#FFF105" d="M-19.046,7.141c-3.404,0-6.174,2.77-6.174,6.173v7.376c0,2.223,1.188,4.236,3.075,5.331v-9.229
		c0-3.394,2.76-6.155,6.153-6.155c1,0,1.943,0.245,2.778,0.67C-14.049,8.887-16.344,7.141-19.046,7.141z"/>
	<path fill="#FFF105" d="M10.035-12.831C8.904-14,7.775-14.979,6.652-15.767c0.004,0.065,0.015,0.12,0.015,0.19
		c0,2.799-2.917,5.076-6.502,5.076c-3.586,0-6.503-2.277-6.503-5.076c0-0.165,0.014-0.309,0.034-0.442
		c-1.46,1.082-2.502,2.292-3.038,2.992c2.898,1.694,6.257,2.682,9.85,2.682C3.965-10.345,7.212-11.253,10.035-12.831z"/>
	<path fill="#FFF105" d="M-11.608,16.792c0-2.417-1.967-4.383-4.384-4.383c-2.416,0-4.382,1.966-4.382,4.383V27.96
		c0,2.417,1.966,4.384,4.382,4.384c2.417,0,4.384-1.967,4.384-4.384V16.792z"/>
	<path fill="#FFF105" d="M-1.492,40.71v-4.746c-0.868,0.76-1.391,1.867-1.391,3.059v8.219c0,2.241,1.825,4.065,4.067,4.065
		c1.919,0,3.522-1.341,3.946-3.132C1.406,47.728-1.492,44.554-1.492,40.71z"/>
	<path fill="#F37CB2" d="M-19.958-36.275l0.067-0.06c0.014-0.045,0.034-0.087,0.049-0.133
		C-19.882-36.405-19.918-36.335-19.958-36.275z"/>
	<path fill="#F37CB2" d="M-16.787-42.547c-0.154-0.432-3.875-10.479-15.594-8.326c-1.075,1.115-6.517,7.706,1.685,19.734
		c1.597-0.235,6.742-1.432,9.916-7.2c-2.613-0.447-8.156-2.022-10.723-7.499c-0.208-0.443-0.017-0.97,0.426-1.178
		c0.442-0.207,0.97-0.017,1.178,0.426c2.891,6.167,10.546,6.653,10.624,6.657c0.301,0.017,0.545,0.19,0.692,0.428
		c0.528-1.051,1.139-2.049,1.827-2.993C-16.765-42.516-16.781-42.528-16.787-42.547z"/>
	<path fill="#F37CB2" d="M19.851-32.982c-1.466-9.37-9.569-16.569-19.344-16.569c-9.774,0-17.877,7.199-19.343,16.569H19.851z"/>
	<path fill="#F37CB2" d="M17.722-42.563c0.786,1.07,1.472,2.213,2.051,3.421c0.128-0.085,0.271-0.15,0.435-0.159
		c0.077-0.004,7.732-0.489,10.624-6.657c0.208-0.442,0.736-0.634,1.178-0.426c0.443,0.208,0.634,0.735,0.426,1.178
		c-2.462,5.252-7.661,6.915-10.388,7.438c3.189,5.269,8.034,6.402,9.579,6.63c8.197-12.021,2.767-18.611,1.685-19.734
		C21.668-53.012,17.928-43.134,17.722-42.563z"/>
	<path fill="#F69A1F" d="M9.881-22.066c-1.083,0-2.25-0.103-3.47-0.306c-0.257-0.043-0.481-0.196-0.615-0.419
		c-0.134-0.223-0.162-0.494-0.078-0.74c0.023-0.068,1.92-5.409,6.816-7.679h-24.387c4.895,2.27,6.792,7.61,6.815,7.679
		c0.084,0.246,0.056,0.517-0.078,0.74c-0.133,0.223-0.358,0.376-0.615,0.419c-1.219,0.203-2.386,0.306-3.468,0.306c0,0,0,0-0.001,0
		c-5.701,0-8.412-2.776-9.697-5.241c0.744,5.481,3.75,10.243,8.057,13.314c1.143-1.53,4.569-5.489,9.718-5.951
		c4.225-0.383,8.494,1.695,12.706,6.153c4.713-3.242,7.935-8.488,8.441-14.5C18.977-25.651,16.364-22.066,9.881-22.066z"/>
	<path fill="#FFFFFF" d="M9.505,1.307c-0.002,0-0.006,0-0.009,0L2.544,1.394L0.477-5.25c-0.162-0.522-1.031-0.522-1.193,0
		l-2.064,6.644l-6.954-0.087c-0.003,0-0.007,0-0.01,0c-0.271,0-0.511,0.174-0.596,0.432C-10.423,2-10.329,2.285-10.105,2.442
		l5.679,4.016l-2.237,6.587c-0.088,0.26,0.004,0.546,0.227,0.707c0.22,0.161,0.521,0.158,0.741-0.005l5.574-4.162l5.574,4.162
		c0.112,0.082,0.242,0.124,0.374,0.124c0.13,0,0.259-0.04,0.368-0.119c0.221-0.161,0.312-0.447,0.225-0.707L4.184,6.457l5.68-4.016
		c0.225-0.157,0.319-0.442,0.236-0.703C10.015,1.48,9.776,1.307,9.505,1.307z"/>
	<path fill="#231F20" d="M41.277-6.812c-0.458-1.39-3.687-11.106-5.512-14.149c-1.807-3.013-5.498-2.521-7.15-1.86
		c-0.202,0.067-4.828,1.633-10.613,5.116c2.437-3.472,3.88-7.689,3.88-12.243c0-2.167-0.33-4.257-0.932-6.229
		c4.267,6.386,10.759,6.844,11.052,6.861c0.017,0.001,0.035,0.001,0.052,0.001c0.288,0,0.559-0.14,0.725-0.377
		c10.237-14.593,1.64-22.583,1.552-22.662c-0.119-0.107-0.264-0.179-0.421-0.21c-11.147-2.191-16.057,5.643-17.435,8.455
		c-3.918-4.414-9.616-7.215-15.968-7.215c-6.381,0-12.103,2.826-16.022,7.274c-1.336-2.76-6.233-10.729-17.465-8.515
		c-0.157,0.031-0.302,0.103-0.421,0.21c-0.088,0.079-8.684,8.068,1.552,22.662c0.166,0.237,0.438,0.377,0.725,0.377
		c0.017,0,0.035,0,0.052-0.001c0.294-0.017,6.85-0.482,11.114-6.959c0.04-0.061,0.076-0.13,0.116-0.192
		c-0.015,0.045-0.035,0.088-0.049,0.133c-0.633,2.018-0.976,4.163-0.976,6.386c0,5.121,1.813,9.823,4.827,13.508
		c-0.353-0.277-0.741-0.549-1.169-0.815c-6.129-3.804-11.145-5.496-11.306-5.548c-1.7-0.681-5.393-1.172-7.2,1.842
		c-1.824,3.042-5.053,12.759-5.511,14.149c-0.398,0.527-1.551,2.301-0.899,4.474c0.651,2.17,4.54,9.346,4.705,9.65
		c0.082,0.15,0.205,0.273,0.354,0.355c0.226,0.123,1.959,1.037,3.673,1.037c0.328,0,0.655-0.034,0.971-0.112
		c1.199-0.3,1.737-1.424,1.975-2.503h1.183c0.254,0,0.496-0.109,0.664-0.299c0.168-0.19,0.247-0.444,0.215-0.696
		c-0.002-0.016-0.204-1.662-0.204-3.683c0-1.891-1.618-3.297-2.557-3.954l2.467-7.05c1.531,0.777,3.44,1.729,5.149,2.533
		c2.002,0.943,4.843,5.533,4.76,12.445c-0.092-0.003-0.183-0.014-0.275-0.014c-4.381,0-7.945,3.564-7.945,7.945v7.376
		c0,3.199,1.902,6.071,4.847,7.318c0,0,0.001,0,0.002,0c0.026,3.372,2.774,6.107,6.151,6.107c3.394,0,6.155-2.761,6.155-6.156
		v-2.196c6.079,0.754,8.072,6.489,8.344,7.381v0.706c-1.927,0.997-3.162,2.981-3.162,5.172v8.219c0,3.218,2.619,5.836,5.839,5.836
		c2.9,0,5.307-2.129,5.754-4.905c3.721-0.451,6.616-3.623,6.616-7.463V25.958c0-0.16-0.054-0.302-0.128-0.432
		c3.876-3.933,5.691-10.943,5.396-20.982c-0.188-6.381,2.255-10.427,4.759-11.605c1.709-0.804,3.618-1.756,5.149-2.533l2.467,7.05
		c-0.938,0.656-2.557,2.062-2.557,3.954c0,2.021-0.201,3.667-0.203,3.684c-0.031,0.252,0.047,0.505,0.215,0.696
		c0.168,0.19,0.41,0.299,0.664,0.299h1.181c0.238,1.079,0.776,2.203,1.977,2.503c0.315,0.079,0.642,0.112,0.97,0.112
		c1.713,0,3.447-0.914,3.672-1.037c0.15-0.082,0.273-0.205,0.354-0.355c0.165-0.305,4.055-7.48,4.706-9.65
		C42.827-4.512,41.675-6.286,41.277-6.812z M-18.584-39.505c-0.147-0.238-0.392-0.412-0.692-0.428
		c-0.077-0.004-7.732-0.49-10.624-6.657c-0.208-0.443-0.736-0.633-1.178-0.426c-0.443,0.208-0.634,0.735-0.426,1.178
		c2.567,5.477,8.11,7.052,10.723,7.499c-3.173,5.769-8.318,6.965-9.916,7.2c-8.202-12.028-2.76-18.619-1.685-19.734
		c11.72-2.152,15.44,7.894,15.594,8.326c0.007,0.019,0.022,0.031,0.03,0.049C-17.446-41.555-18.056-40.556-18.584-39.505z
		 M0.507-49.551c9.775,0,17.878,7.199,19.344,16.569h-38.688C-17.371-42.352-9.268-49.551,0.507-49.551z M33.311-50.874
		c1.082,1.123,6.513,7.713-1.685,19.734c-1.545-0.228-6.389-1.361-9.579-6.63c2.728-0.522,7.926-2.186,10.388-7.438
		c0.208-0.443,0.017-0.971-0.426-1.178c-0.442-0.208-0.971-0.016-1.178,0.426c-2.891,6.168-10.546,6.653-10.624,6.657
		c-0.164,0.009-0.307,0.074-0.435,0.159c-0.579-1.208-1.265-2.351-2.051-3.421C17.928-43.134,21.668-53.012,33.311-50.874z
		 M-4.992-16.16c0.338,0,0.876,0.175,1.5,0.378c1.01,0.328,2.268,0.737,3.656,0.737s2.645-0.409,3.656-0.737
		c0.624-0.203,1.162-0.378,1.5-0.378c0.158,0,0.283,0,0.283,0.583c0,2.212-2.44,4.012-5.439,4.012c-3,0-5.44-1.8-5.44-4.012
		C-5.276-16.16-5.151-16.16-4.992-16.16z M-0.963-18.179c1.77-0.16,3.576,0.219,5.401,1.097c-0.293,0.078-0.609,0.179-0.948,0.289
		c-0.939,0.306-2.108,0.685-3.327,0.685s-2.388-0.379-3.327-0.685c-0.477-0.155-0.906-0.29-1.292-0.366
		C-3.417-17.676-2.25-18.063-0.963-18.179z M11.585-13.791c-4.212-4.458-8.481-6.536-12.706-6.153
		c-5.149,0.462-8.575,4.421-9.718,5.951c-4.307-3.072-7.313-7.833-8.057-13.314c1.285,2.464,3.996,5.24,9.697,5.241c0,0,0,0,0.001,0
		c1.083,0,2.25-0.103,3.468-0.306c0.257-0.043,0.481-0.196,0.615-0.419c0.134-0.223,0.162-0.494,0.078-0.74
		c-0.023-0.068-1.92-5.409-6.815-7.679h24.387c-4.896,2.27-6.793,7.61-6.816,7.679c-0.084,0.246-0.056,0.517,0.078,0.74
		c0.133,0.223,0.358,0.376,0.615,0.419c1.219,0.203,2.387,0.306,3.47,0.306c6.483,0,9.097-3.585,10.146-6.225
		C19.519-22.279,16.298-17.032,11.585-13.791z M-16.473-30.451c5.579,0,8.353,4.44,9.334,6.489c-0.718,0.083-1.407,0.124-2.06,0.124
		c0,0,0,0-0.001,0c-6.915,0-8.57-4.656-8.954-6.485C-17.58-30.408-17.017-30.451-16.473-30.451z M18.83-30.324
		c-0.397,1.882-2.073,6.486-8.949,6.486c-0.651,0-1.338-0.042-2.053-0.123c0.998-2.041,3.807-6.49,9.327-6.49
		C17.697-30.451,18.257-30.409,18.83-30.324z M-6.305-16.019c-0.021,0.134-0.034,0.278-0.034,0.442c0,2.799,2.917,5.076,6.503,5.076
		c3.585,0,6.502-2.277,6.502-5.076c0-0.071-0.011-0.125-0.015-0.19c1.123,0.788,2.252,1.767,3.383,2.936
		c-2.823,1.578-6.07,2.486-9.528,2.486c-3.593,0-6.952-0.988-9.85-2.682C-8.807-13.726-7.766-14.937-6.305-16.019z M-15.991,32.344
		c-2.416,0-4.382-1.967-4.382-4.384V16.792c0-2.417,1.966-4.383,4.382-4.383c2.417,0,4.384,1.966,4.384,4.383V27.96
		C-11.608,30.377-13.574,32.344-15.991,32.344z M-15.991,10.637c-3.393,0-6.153,2.761-6.153,6.155v9.229
		c-1.887-1.095-3.075-3.108-3.075-5.331v-7.376c0-3.404,2.77-6.173,6.174-6.173c2.702,0,4.998,1.746,5.833,4.167
		C-14.049,10.882-14.991,10.637-15.991,10.637z M1.184,51.307c-2.243,0-4.067-1.824-4.067-4.065v-8.219
		c0-1.191,0.523-2.299,1.391-3.059v4.746c0,3.844,2.898,7.018,6.623,7.465C4.706,49.966,3.103,51.307,1.184,51.307z M40.478-2.847
		c-0.018,0.061-0.046,0.136-0.07,0.207c-0.622,1.794-3.221,6.747-4.365,8.865c-0.702,0.337-2.15,0.886-3.126,0.649
		c-0.004-0.001-0.009-0.001-0.014-0.002c-0.22-0.055-0.391-0.302-0.52-0.638c-0.236-0.615-0.329-1.544-0.287-2.241
		c0.029-0.488-0.342-0.908-0.83-0.938c-0.496-0.02-0.908,0.341-0.938,0.829c-0.003,0.046-0.007,0.137-0.01,0.253
		c-0.001,0.053-0.001,0.114-0.002,0.18h-0.023c0.004-0.052,0.008-0.118,0.013-0.173c0.054-0.701,0.106-1.655,0.106-2.734
		c0-1.284,1.643-2.458,2.275-2.803c0.382-0.208,0.558-0.662,0.415-1.072l-2.779-7.943c0.784-0.404,1.285-0.666,1.3-0.673
		c0.434-0.227,0.601-0.762,0.374-1.196c-0.227-0.433-0.76-0.601-1.196-0.374c-0.044,0.023-4.45,2.329-7.974,3.986
		c-2.806,1.321-6.001,5.586-5.776,13.26c0.406,13.795-3.244,21.434-10.85,22.702c-0.482,0.081-0.808,0.537-0.728,1.02
		c0.072,0.434,0.448,0.741,0.873,0.741c0.048,0,0.097-0.004,0.146-0.012c2.011-0.335,3.768-1.057,5.291-2.131V40.71
		c0,3.014-2.332,5.489-5.285,5.729c-0.111-0.05-0.233-0.082-0.363-0.082c-0.137,0-0.263,0.037-0.378,0.092
		c-3.044-0.145-5.478-2.659-5.478-5.739v-7.691c0-0.078-0.01-0.156-0.031-0.231c-0.022-0.083-2.266-7.969-10.084-8.801v-7.195
		c0-1.407-0.479-2.701-1.277-3.739C-11.229,9.497-13.69,6.53-17,5.646c0.158-7.452-2.839-12.927-5.777-14.311
		c-3.524-1.657-7.931-3.963-7.975-3.986c-0.434-0.227-0.969-0.059-1.196,0.374c-0.227,0.434-0.06,0.969,0.374,1.196
		c0.015,0.008,0.516,0.27,1.301,0.674l-2.78,7.942c-0.144,0.411,0.032,0.866,0.416,1.073c0.59,0.317,2.273,1.514,2.273,2.802
		c0,1.164,0.062,2.196,0.12,2.907h-0.025c0-0.208-0.007-0.366-0.012-0.433c-0.03-0.488-0.447-0.846-0.939-0.829
		c-0.488,0.031-0.859,0.451-0.829,0.939c0.067,1.077-0.181,2.722-0.805,2.878c-0.978,0.244-2.436-0.308-3.142-0.647
		c-1.188-2.202-3.956-7.478-4.434-9.073c-0.479-1.595,0.617-2.903,0.661-2.955c0.079-0.09,0.138-0.195,0.175-0.308
		c0.036-0.109,3.573-10.899,5.396-13.939c1.48-2.468,4.881-1.165,5.071-1.091c0.049,0.017,5.04,1.704,10.981,5.392
		c5.297,3.287,3.152,7.502,3.058,7.68c-0.23,0.43-0.07,0.964,0.359,1.197c0.43,0.235,0.968,0.074,1.201-0.357
		c0.025-0.045,1.868-3.566-0.51-7.099c3.819,3.559,8.923,5.755,14.542,5.755c4.816,0,9.25-1.621,12.829-4.318
		c-1.155,2.992,0.219,5.624,0.24,5.663c0.232,0.43,0.771,0.59,1.201,0.357c0.43-0.233,0.59-0.771,0.357-1.201
		c-0.096-0.177-2.281-4.362,3.061-7.677c5.94-3.687,10.932-5.375,11.028-5.408c0.145-0.057,3.544-1.36,5.023,1.107
		c1.824,3.041,5.362,13.831,5.397,13.94c0.037,0.113,0.097,0.218,0.175,0.308c0.006,0.007,0.362,0.447,0.59,1.107
		C40.585-4.184,40.687-3.543,40.478-2.847z"/>
	<path fill="#FFFFFF" d="M7.828-23.961c0.715,0.082,1.402,0.123,2.053,0.123c6.876,0,8.552-4.604,8.949-6.486
		c-0.573-0.084-1.133-0.127-1.675-0.127C11.635-30.451,8.826-26.002,7.828-23.961z"/>
	<path fill="#FFFFFF" d="M-9.2-23.838C-9.199-23.838-9.199-23.838-9.2-23.838c0.654,0,1.343-0.042,2.061-0.124
		c-0.982-2.049-3.755-6.489-9.334-6.489c-0.543,0-1.106,0.043-1.681,0.128C-17.77-28.494-16.115-23.838-9.2-23.838z"/>
	<path fill="#FFFFFF" d="M0.164-11.564c2.999,0,5.439-1.8,5.439-4.012c0-0.583-0.125-0.583-0.283-0.583
		c-0.338,0-0.876,0.175-1.5,0.378c-1.011,0.328-2.268,0.737-3.656,0.737s-2.646-0.409-3.656-0.737
		c-0.624-0.203-1.163-0.378-1.5-0.378c-0.159,0-0.284,0-0.284,0.583C-5.276-13.364-2.836-11.564,0.164-11.564z"/>
</g>
</svg>
