<?xml version="1.0" encoding="utf-8"?>
<!-- Generator: Adobe Illustrator 16.0.0, SVG Export Plug-In . SVG Version: 6.00 Build 0)  -->
<!DOCTYPE svg PUBLIC "-//W3C//DTD SVG 1.1//EN" "http://www.w3.org/Graphics/SVG/1.1/DTD/svg11.dtd" [
	<!ENTITY ns_extend "http://ns.adobe.com/Extensibility/1.0/">
	<!ENTITY ns_ai "http://ns.adobe.com/AdobeIllustrator/10.0/">
	<!ENTITY ns_graphs "http://ns.adobe.com/Graphs/1.0/">
	<!ENTITY ns_vars "http://ns.adobe.com/Variables/1.0/">
	<!ENTITY ns_imrep "http://ns.adobe.com/ImageReplacement/1.0/">
	<!ENTITY ns_sfw "http://ns.adobe.com/SaveForWeb/1.0/">
	<!ENTITY ns_custom "http://ns.adobe.com/GenericCustomNamespace/1.0/">
	<!ENTITY ns_adobe_xpath "http://ns.adobe.com/XPath/1.0/">
]>
<svg version="1.1" id="Layer_1" xmlns:x="&ns_extend;" xmlns:i="&ns_ai;" xmlns:graph="&ns_graphs;"
	 xmlns="http://www.w3.org/2000/svg" xmlns:xlink="http://www.w3.org/1999/xlink" x="0px" y="0px" width="595.279px"
	 height="841.89px" viewBox="0 0 595.279 841.89" enable-background="new 0 0 595.279 841.89" xml:space="preserve">
<metadata><?xpacket begin="﻿" id="W5M0MpCehiHzreSzNTczkc9d"?>
<x:xmpmeta xmlns:x="adobe:ns:meta/" x:xmptk="Adobe XMP Core 5.3-c011 66.145661, 2012/02/06-14:56:27        ">
   <rdf:RDF xmlns:rdf="http://www.w3.org/1999/02/22-rdf-syntax-ns#">
      <rdf:Description rdf:about=""
            xmlns:dc="http://purl.org/dc/elements/1.1/">
         <dc:format>image/svg+xml</dc:format>
         <dc:title>
            <rdf:Alt>
               <rdf:li xml:lang="x-default">Print</rdf:li>
            </rdf:Alt>
         </dc:title>
      </rdf:Description>
      <rdf:Description rdf:about=""
            xmlns:xmp="http://ns.adobe.com/xap/1.0/"
            xmlns:xmpGImg="http://ns.adobe.com/xap/1.0/g/img/">
         <xmp:MetadataDate>2018-09-05T11:32:55-03:00</xmp:MetadataDate>
         <xmp:ModifyDate>2018-09-05T11:32:55-03:00</xmp:ModifyDate>
         <xmp:CreateDate>2018-09-05T11:32:55-03:00</xmp:CreateDate>
         <xmp:CreatorTool>Adobe Illustrator CS6 (Macintosh)</xmp:CreatorTool>
         <xmp:Thumbnails>
            <rdf:Alt>
               <rdf:li rdf:parseType="Resource">
                  <xmpGImg:width>256</xmpGImg:width>
                  <xmpGImg:height>252</xmpGImg:height>
                  <xmpGImg:format>JPEG</xmpGImg:format>
                  <xmpGImg:image>/9j/4AAQSkZJRgABAgEASABIAAD/7QAsUGhvdG9zaG9wIDMuMAA4QklNA+0AAAAAABAASAAAAAEA&#xA;AQBIAAAAAQAB/+4ADkFkb2JlAGTAAAAAAf/bAIQABgQEBAUEBgUFBgkGBQYJCwgGBggLDAoKCwoK&#xA;DBAMDAwMDAwQDA4PEA8ODBMTFBQTExwbGxscHx8fHx8fHx8fHwEHBwcNDA0YEBAYGhURFRofHx8f&#xA;Hx8fHx8fHx8fHx8fHx8fHx8fHx8fHx8fHx8fHx8fHx8fHx8fHx8fHx8fHx8f/8AAEQgA/AEAAwER&#xA;AAIRAQMRAf/EAaIAAAAHAQEBAQEAAAAAAAAAAAQFAwIGAQAHCAkKCwEAAgIDAQEBAQEAAAAAAAAA&#xA;AQACAwQFBgcICQoLEAACAQMDAgQCBgcDBAIGAnMBAgMRBAAFIRIxQVEGE2EicYEUMpGhBxWxQiPB&#xA;UtHhMxZi8CRygvElQzRTkqKyY3PCNUQnk6OzNhdUZHTD0uIIJoMJChgZhJRFRqS0VtNVKBry4/PE&#xA;1OT0ZXWFlaW1xdXl9WZ2hpamtsbW5vY3R1dnd4eXp7fH1+f3OEhYaHiImKi4yNjo+Ck5SVlpeYmZ&#xA;qbnJ2en5KjpKWmp6ipqqusra6voRAAICAQIDBQUEBQYECAMDbQEAAhEDBCESMUEFURNhIgZxgZEy&#xA;obHwFMHR4SNCFVJicvEzJDRDghaSUyWiY7LCB3PSNeJEgxdUkwgJChgZJjZFGidkdFU38qOzwygp&#xA;0+PzhJSktMTU5PRldYWVpbXF1eX1RlZmdoaWprbG1ub2R1dnd4eXp7fH1+f3OEhYaHiImKi4yNjo&#xA;+DlJWWl5iZmpucnZ6fkqOkpaanqKmqq6ytrq+v/aAAwDAQACEQMRAD8A9U4q7FXYq7FXYq7FXyb+&#xA;YGr6rqf58/peG5ljttE1zS9GtQrEcBJyMqqQejPFJyH+VviyfWWLF2KuxV2KuxV2KuxV2KuxV2Ku&#xA;xV2KuxV2KuxV2KuxVh35k/mj5e8h6bHPqHK61G6JXTtKgoZ536e/FAerfdU7Yq8dvfMX50+cGM95&#xA;qw8o6Y+8Vhp4IuQv+XKCJA1P8sf6ozZYezJy3l6fvdDqvaDDjNQHGfkPmlx/Lq+MvrnzZrZuaf33&#xA;1puVaU69fxzL/kmHeXW/6Jct/TH7UfZ6x+dHlFhPpmunzRp6Gsum6mC8zKOySsxkrT/LH+qcxc3Z&#xA;c4i4nidjpfaHFkNTHB58w9d/LP8ANry/57tJEt1aw1u0H+5DRpz++iIPEspIXmnLatKjuBmtIp34&#xA;IIscmcYFdirsVdirsVdirsVSPzz5hufLnk/WNdtrcXVxp1rJcRQGvEsg25cd+I6t7Yq82/JL88rv&#xA;zZcHQ/NKQ2euzJ9Z0uSJTHFdwGtQlWYc4yp6Heh7q2KSHktqVu9PtvMbkA6t+YiyGQ0FUUeoGr4V&#xA;mbFL6/xYuxV2KuxV2KuxV2KuxV2KuxV2KuxV2KuxV2KuxVLvMmvWPl/Qb/W79uNpp8Dzy06kIKhV&#xA;r+0x+Ee+Kvmvylaah5l1W48/+ZP32qakxbTYWqUtbYEhFjB6bfZ9t+rHN52bpAB4kufR5Ht7tImX&#xA;gwPpH1eZ7vh97Nc27zLsVdirDPOmmajpV5b+ePLbfV9e0Y+rLxHwzwAUkWQCnL4K18VqPDNV2jpR&#xA;KPGOY5+56LsLtIwmMUj6JcvI/t+99F+T/M1l5o8sabr9ltb6hCsoQkEo/wBmSMkd0cFT8s0L2ScY&#xA;q7FXYq7FXYq7FWHfmz50t/KHkq61GSyGoy3DLZW1g1eE0txVQr0348eRPj074CaV8n3en+aNG0HS&#xA;bW9FtB9Su/V0rWIHkFzp8sxD+lI4oPQMnxbA8WqwO9GxcGtx5ZcMebiaftDHmkYxu/vei+aPIeve&#xA;Uv8AnHjSjqNssGraHrUeq3cPJJOIeV4EBdOS7+pHWhOZbmPpaxvIL2yt723blb3UaTQt4pIoZT9x&#xA;xQrYq7FXYq7FXYq7FXYq7FXYqsnuILeFpriRIYUFXkkYKoHuTQDFWM3P5qflrbSenN5o0sOOqrdw&#xA;tT2PFjTFaTTR/NnlbWjx0fWLLUWpUpa3EUzAdd1RmIxVNcVdiqTebfOHl7ylo8mr69draWaHilas&#xA;8khBIjjQbsxp0HzO2Kvnj82/zuTzr5U/w/pei6hp9hql5bxDU7tAkUsavzCDiWFSyq1OR2GT8OVA&#xA;1sWvxoWRYMgLq92WW9vFb28VvCoSKFFjjUdAqigH3DOujEAUHzGczKRkeZcJ4DM0AkUzoodogw5h&#xA;WqASvWhpjxC66rwGrrZUyTF2KrXRJEZHAZHBVlPQg7EYCLSCQbCM/wCcXbtk8p65ohcuukavPFBW&#xA;u0TqpA6fzq5+nOPnHhkR3PqGOfHAS7wC9myLN2KuxV2KuxV2KsJ/OTyZd+bvIN/pth/x1YCl5pu4&#xA;FZ7duQWp6F15KPc4CLV883eoQeZfJWpIY2S9ihdbuyIKyRXUI58Cp3+2m39a5zscRwZxfK/seXjh&#xA;lptTG+V7HyOz0Hzf+Zvk28/IOy0/VNREuta3o8cdvaRAyytdwKELOo+wv1iKlW96VpnRvUs3/Inz&#xA;lpXmH8vNJtoLtZdS0i1istRtiaSxtCvpoWU70ZUqG6HfuDipeiYodirsVdirsVdirsVdiry38yPz&#xA;iudL1dfKHkuyGt+cJh+8Trb2an9qcgj4qH7PIAdWPQHG1esxabGcmWXDEfj4llGBkaDEovyb1HzF&#xA;MmpfmPr91rl8fi+oQuYbOInqqKoX/hAmeb9o+3WWRI08RGP86W8vlyH+yc2GmA5sktvyi/LW2j9O&#xA;Py9aMtONZVaVqf60hZq+9c5zJ7R6+Zs5ZfDb7qbhhj3JZq35EflxfDnbWMml3S7x3NjM8bKR0IVi&#xA;8f8AwuZmm9r9fiO8xMd0gPvFH7WJwRKWrrP5s/leRPcXD+dPJsdPX9Wv1+1jHVgxLMQo8Sy7fsdc&#xA;7zsb2swasiE/3eU9DyPuP6D8LcXJpzHcPZPJ3nTy75v0aPVtCuhc2zfDIh+GWJ6bxyp1Vh+PUVGd&#xA;Y4zxD87Lm01L85dJ0vWp400XSdM+uxQTsqxNPLIwJflsa8U2/wAnMvRRgcg4+Q73Xdq5MkcB8MHi&#xA;O23NjnnPzN+X+oW1pBd60g+pXcV2gtAZyzRVHGqBloQx3rm11WfDMAGXI3tu832bo9XikZRx/VEj&#xA;1bc/tbk/NGW+rH5b0K91KU7JM6enB8yw5bfOmJ7QMv7uJko7DGPfPkjAfb9tfpR/kryxq9ne3uv6&#xA;/Ksmt6kFV4490hiWlIwfoHTbbv1y3S6eUSZz+uTj9pa3HOMcOEfuofae/wDHey7M51DsVSTzP5Us&#xA;vMUNvFdXV1a/VnLo1pL6ZJIp8QKuD7bVGY+o00coAJIruc3Ra+emJMRE33hI9K8l+b/Kkktz5K80&#xA;XFlLK3qTWt0FlhmYdDIKFSfcxk5rsnZP82Xzd7g9pemSH+l/Uf1s+8mfn9cRanD5f/MSxTRdRlPG&#xA;21aI/wCgznoORJb06+NSPHjmqy4ZYzUhT0em1WPPHixmw9pBBFR0ypvdirsVdirsVeUfmb+cms+X&#xA;vNEXlfy3pEWpaotst7eS3MvpRRxM/EKoHEsx8a7V6HelWbPHGLlyas+eGKPFM0HkGr69ea55+s9Z&#xA;g8uXGg6lco8XmNAwlsZwq1jnSVVA9TbfbfbfrXA1ubFkxE2PLvddr8+HJgJ4ge7vtKrCw0/yP5nn&#xA;1S5sPrGi3X91exqXeyYncFf5STSvWn3HYdi9p479f1fjcfpcDNOetwCEZVkHMfzvx+O9MdXvtAg1&#xA;BPN/kzzHaaV5hh+NlEyRpcg7lJYmI3bvyWh/a8RvNXjw5BxwlES+9HZuo1WA+FlhMw76uvj1H4Hc&#xA;9t/KL88dC892y2N1w0/zNCv7+xLfBNx6yWzE/Evcr9pfcfFmnenem4odirsVdirsVdirAvzo8/ze&#xA;TfJ0k9gOeuanILHR4gOR9eUH95x78F3H+VQd8jKQiCTsAkC2Pfll5Ag8p6Lyuf8ASPMGofv9Yv2P&#xA;N3lc8inM1JVSfpNT3zxD2g7anrs5P+Sj9I/T7z+x2eLHwjzZiSBuemaFtUzc2w2MqV/1hlvgz/mn&#xA;5IsKisrCqkEeIysgjmlxFdj0wK8N/N38s7vRIrrzT5PmubC1kIbX9MsJXgDxAkmVAm1FqeS8SB9q&#xA;nXPSvZP2mlOQ02oN39Muv9U/oPw7nC1GHa4pd5e/Ln8vtTsLfVokn1KO5UOJbmZyxYbEOEKDkCKE&#xA;Z7Jg0OCURIWQfx0eA1nbGsxzMCREjuH67ZVYeVPLWnkGz0u2hcdJBEpf/giC345mw02OPKIdTl1+&#xA;fJ9U5fP9CagACg2A6DL3EbxV2KuxV2KuxVLte0HTNc06Sw1CISQuPhb9pG7Oh7MMqzYY5I8MnI0u&#xA;qngmJwO/3+9NPyF87apa6hd/lv5imM19pcfraJeMd57Mf7rqepjBBXr8NR+znLZ8JxyMS+iaXUxz&#xA;4xkj1+wvbcqch2KuxV2KsD/Mj8svI3mi4tdT1u6l0jUrZfSg1W0uEtZ/TqT6ZeQMrCrHtUVNOuCU&#xA;QRRQYgiiLD59/M/TfI3kzzRo9h5W1HUda8wLcK2rzyXAunaFiAtrRFRWkevTtt3OU5cEZQMQA1Zt&#xA;PGeMwobhD+YfOutWNhfxjSnsdW024hhv7W7HP0Y51LI7cafaoB7VzVQ7OEcgEjsQ6XF2SI5QJysE&#xA;bVtuEs0PzL5UuLuSx8xaNY6fqSsVeVoI/RZq78iwJQ/Mke+WajTZoD0SkR3Xu26rR6iAvHOUo917&#xA;pl5w0/yhb6DJeWotbG+iAm024swkcpmUhk9MxcS1T93XtlGiyZ/EAPER1tx+z8up8UA8Rj1u/wBL&#xA;1r8rfz0u5Li18r/mFH+jdelVPqOpSARw3YYfCHp8KSnpt8JO2x2PRZMcoGpCnf4c8MouB4g9tyDY&#xA;7FXYq7FXYq8P/MB/09/zkB5b0eX47Ly9p76m0ZptcSMeJ+gpCc5r2t1Rw6Cdc51H58/9jbfp43Jm&#xA;2qamllGABymf7CfxOeO4MBmfJ2BNMYvNRmmq9zNRPAnio+jpmzx4gNohrJQ8csUgJjdXA2JUg/qy&#xA;ZiRzQiLe6uLd+ULlD3p0PzGVyiJCim2SaVqyXi8Hok6jdeze4zXZ9Pwbjk2RlaPkjSRGjkUPG4Ku&#xA;jCoIOxBB7ZjgkGwyfNd3fP8Aln+Y155fmJ/wxfOtzahjX0Y5/suvsjAo3sK59BeyPbpz6aM5H+jL&#xA;+sOvx2PxeU7c7JGYXH+8jy8x3fqeoghgGU1B3BHQjO+fPSG8KuxV2KuxV2KuxV2KsM87XX+H/Mfl&#xA;bzlCeEmmX8cN04oOVtLX1FJ8OPNf9lmn7Wx7CXwen9ms54pY+hHF+j8e59R5pHrXYq7FWK/mZ59s&#xA;/JPlW41eVRPeuRBpllvynupP7tABvT9pqdh44CQBZSBZoPn9fJr6/M+s+eJpNX1u7+ORXldYbcNU&#xA;+jCsbKAq17beGcD2j7S5pZCMJ4YDrQs/N6/R9iY4wvIOKR+z5N+QvKugeWPzs8tukHq2eprdJZxO&#xA;xb6vcxw1DjlXkKGi1NQTXsM6DsDtSeqhIT+uFb99/wBjp+19DHBIGP0y/Qm/5u+U9e0fz1ruqpol&#xA;3rWg+aYIqmxjaZ47iGL0jHIF3QNuwb7q0ObTVaeWQxMTRiXm9XppZDExNSiV1/8A84/axqv5XeX9&#xA;QFtHF580q3rPazBeN1AsjNBbTA/D6kcPBFJ8OJ2oVzAacyW4pj/kKw8jaohuYdGhs9bsX4XtnIGL&#xA;wyqaVCyE0HIbGmx26jN9ooYJjiEQJB43tfJq8J4JTJxy5HYfA0yvzH5a0nzDp7WWoxc13MUo2kjb&#xA;+ZG7fx75nZ8Ecsak6fSazJp58UD8Oh96n5I/NTX/AMvbuDy554kkv/LDkRaX5hUF3gH7Mc/VioH+&#xA;yXtyHTm9TpZYjvy73u9B2jj1MbjtLqPx0fQlrdW13bRXVrKk9tMoeGaNg6OrCoZWFQQcxnPVcVdi&#xA;rsVeG6jcxW3/ADkxeK7qTeaAqIAd1ZXSSh268YiflnG+3GIy0QI/hyRP2SH6XJ0p9TC/zN/NLUYr&#xA;6/sPLkJuL20Qy6hehecdrGCFApuOQqK8tgdtz00/YXs9CUYzzmoS2jHkZfs58tzz5c7MmU9GYeTv&#xA;+cefK+v6HpvmDzRq+oa9c6nbQ3qq8pghVZ41kCqq8n2DU+2PkM9EwafHijwwiIjycQyJYD+bn5E3&#xA;PkIp5l8sXl2dAVlW+4P/AKVacmADhl4c46mnYg9etQc2MTiQQJeR5KCnPkS+85GUWuqtHqmkSQCe&#xA;w12IgF1NOKOux5U9tu5OeZds4dJXFivHlEqljPTzHT9B6U5mMy68mbxSvFIskZ4upqDnOkAii2sw&#xA;srtLq2SZdq7MPBh1GajLj4JU2g28j/OzytZa3548lWs68V1Z7jTJZh9pC/AQv1FfTeUvTPR/YDKT&#xA;HNDoDE/OwfuDiaocigfy2v746VdaFqY46r5euH0+6U7mkRKp93Er9Gezdm5uPHR5x/AfOe3tJ4Wf&#xA;iH0z3+PX9fxZdmxdItZ1UcmIUDuTQYCVAJ5KcF5bTuyxOHKU5U6b4BIFlKBHNWyTF2KuxV2KsG/O&#xA;Qg+TTD1lnuoY4V7s5JNB9CnNb2of3Xxd77Oj/CP80/ofVOc89u7FWmZUUu5CqoqzHYADqScVfNOs&#xA;a+/5h+fJdfJLeWdBZ7Xy9GfsSzA/vbuh8SBx2/l7qc5T2m7S4IeBA+qX1e7u+P3e96HsPQ8UvFly&#xA;jy9/7E3kkjijeWVwkaAs7sQFVQKkknoBnCRiZGhuS9WSALPJ35Q6Ld+cPPMXnV4mi8taAs0GiyOO&#xA;JurqUGOaVQd+CLt86d+QHpnYfZh0uL1fXLc+XcHiO1dcM+Tb6Y8v1voDN06p2KvGfzl/KvUpNQTz&#xA;55LhA8w2in9J6egoL6EDf4VpykAHTqwpT4gK2YssscuKPNp1OnhmgYT5Fi3lXzppHmKAiBvQv4vh&#xA;utPl+GaNhs2x+0K9x9NDtnS6bVwyjbn3PA6/s3JppeoXHpLp+wpvfWFnf2klpewrPbTDjJE4qCMv&#xA;nASFHcOHiyyxyEompBjOgeY/NX5SXZa39XWvIMrlriwY8p7Lkd3iJ7V3/lPeh+LOf1mhOPeO8fue&#xA;37M7YjqPTP05PsPu/U+ivLXmfQ/M2jwaxol0l3Yzj4ZE6qw6o6ndXWu6nfNe7lNMVdir468+3vmR&#xA;PzH83/mDpjBx5d1WPTJRTkFR4pbTk3go9EJ/rNmLrdJDUYjjn9Jr7Df3hnGVFNtN/Jj814vIIv8A&#xA;y9cwalH5utI59X0ub04rgGUmSNkllKqSEerVddydjlefs3DknjmR6sX0+Xw5JGQix3vpnyhpM2j+&#xA;U9E0icgz6dYWtpKRuC8EKxtT6VzOa0ffWNpf2U9jeRLPaXUbQ3ELiqvG44sp+YOKvmhLO8/K/wA3&#xA;v5R1Z2PlrUXaby3qcn2VDGrQu3SqlgG99+jbch7TdinMPHxj1j6h3jv94+0e5ycOStizjPO3KTjy&#xA;5dcZ3tyfhkHJf9YdfwzE1cLjfcyiWKa26+Yfz68n6Jb/AL1PL0c+p6gy7iMsoZA3vyjj/wCDGehe&#xA;wejlDBPKf8pIAe6N7/MkfBxdVLekk81eloH57eYo+BFvq9jb36qveRQsZP0tzOendmZOGZHeHl/a&#xA;DBx4YnqJfeP7FW41+4eohURj+Y/Ef6ZuTkLykdPEc90vlnmmblK5c+5yBLcAByRmhMRfU/mUg/ry&#xA;WM7teceko6/1WW0vOAUPGVBK9CCffJymQWqGESiCqw63YvTkTGTtRh/EVwjKGMtPIclf9I2NK+un&#xA;3jJeIGPgT7kPPrlnGD6dZW7ACg+85E5QyjpyebFrCC688fmr5e0BfjstLmGqamF3VEgIZVb/AFtk&#xA;/wBmM0faWfikI9z1/YOkGOBn/O2H4/HJ9VZrXfOxV5D+fvnG7S0tfIeiScdZ8wqfrsqne30/cSu2&#xA;4/vKFR4jkOtMxdbq46fEckuQ+3uDkaXTyzZBAdWKafY2Ok6bDZ24ENnaR8VqQAFUVLMdtz1Y55Tn&#xA;zTz5DOW8pH8fsfQMWOOKAiNoxCA8teWtR/NTVvQi52vkOwmH6RvhyRr+RDX0IaUPDxPbr1oM7vsL&#xA;sT8uPEyf3h6fzf2vKdq9qeL6IfR9/wCx9Iafp9jp1jBYWECW1nbIIre3iAVERRQAAZ0rokRirsVd&#xA;irAPPH5IeRPN12dRuYJdO1mtf0pp7iGZm7FxRkc+5Xl74gqdxReW+dfy084flxbw+ZdJ1i98y6Nb&#xA;fDrNhdku8VuN/Vj+JhRe5A+HqfhrTLw63JCVkkjuddq+ysOaBiIiMuhArdM9J1XTta0yK+snE9pc&#xA;LtWnyZGHYjoRnSY8kckbHIvB58E8MzGW0h+LY2mneZfIWsSeZPInxW0hDar5dNTDOi7/ALtR0Yb8&#xA;abj9nb4c1Gs7O/ix/L9T0vZfbl1jzH3S/X+v5vdfy6/M3y1570r65pcnpXkIAvtMlIE8D9KMP2lJ&#xA;+y42Psagad6hluKvlrStK/MG789/mTovl3VLG0s5dVlm1Cy1G2juUlFzLK8bBJIplPEda7dNs0fb&#xA;Pb2Ls/h8SMpcd/TXSu8jvbseIz5IIax+ZWofma3kPVvPl3bFEot3p6rbIZPRE4iVYTDx+FiPmKUz&#xA;Hzdvkdn/AJyGOx/NJrbi4b5H+xkMXq4Sq2lxrllLq9x5O86azN5j8tvI1/outPzS6hgJ9R44izq6&#xA;7Gld/wDVqDmNh7e1MJYjqIR8HPXDOBJ4TLkJX+PfRScUTdcw+jfy/wDN1v5v8n6Z5hhQRfXoqzQg&#xA;19OZGMcqV8A6mntnWuMh/wAxfL3kzzD5dl0rzXLBb2UvxQ3M0iQvDKB8MkTvsGX8RsajFXg0Nt+Y&#xA;HlWVrHTDb+f9BiqLW50ydJb1EUbI8MZlk+Ef5LD/ACu2cz2l7MYdRIzgfDmee1g/Dbf3N8MxCPg1&#xA;z82dSnW38ueSL+yuz0vNVja2ijrtypKI1ag/yvoOa7B7GQv97Pij3AV9v7GZ1Hc9S/Kb8rm8nW97&#xA;qOrXY1PzXrDepquo7lepIiiqAeAJqTQV8AAAOyw4YYoCEBUYigHGlKy8p/NS4Sf89LxE/wCPTRoY&#xA;pT4M0gkA/wCBkGbPs8fvPg6jto/uB/WH6UFm5eUWySRxoZJGCIu7MxAAHuTgJA3LKMSTQ3KWW3n3&#xA;y1a3yhdQiMg2/aKEHbdwOH45SNZjB5uXLsvPKP0mvhfyTie4e4laZyCz71HT2pmQTe7giNClmBLs&#xA;VSPV/MEq3cWjaJCdS8wXbCK2s4hyKu3d6dKdf10G+Yep1YhsN5O10HZssx4pbQ+/3PfPya/K4eR9&#xA;Fmm1CQXXmXVWE2rXY3AO5WFD/KlTU9z7UppSSTZerAAFDkHoeBKWeZvMWmeXNBvtc1OT07KwiaWU&#xA;inJqbKi1pVnaiqPE4q+cfLX6R1W81DzprgC6trreqqE1FvZinowqT0HEA/Kld65577R9o+Nl8KH0&#xA;Q+2X7OXzey7F0fhY/El9UvsH7eaI0HQdV/NHVZNO06R7PyXZvw1jWE2a6Ybm2tietf2m6U9qBtx2&#xA;F2F4VZco9fQfzf2/d73W9q9q+JePGfT1Pf8As+99G6No+maLpdtpWl26Wun2aCO3gToqj57kk7kn&#xA;cnc51Tz6MxV2KuxV2KuxVqSNJEaORQ8bgq6MKgg7EEHFXzb+YHky9/KzXZPMWiRPN5F1OUfpGwTr&#xA;ZTOaBkH8h/Z/4E/snMvSas4pf0Tzdb2n2bHUw7pjkf0Hy+5PbO8tb21iu7SVZraZQ8UqGoYHOmhM&#xA;SFjk8BkxyhIxkKkGNa5+W+gatqDah6lzp93KvC4ksZFi9UVB+MFXB6f1zDzaDHklZsHydnpO2s+C&#xA;HAKkPPp9oQ8HkDV9NpJoHm7WNPmQDhyuC6bdAyJ6QK+xzHn2TH+En8fJz8ftLkB9cIn3WP1oTyRr&#xA;XmjQ/wA5S3myZJpvM0Itfr8aqkc8sSosL8UCgOfTCEcerV71zz7257JnLSE16sZ4veOUv1n3PWdl&#xA;doY844oe4jqF1p5A1jzl5r8+a/5fmCeZ/L+sW7aTzbij+gZlliJb4at6aU5bfDTYHMjsjSQl2djx&#xA;yHpniF/5ws/e5OSVTJ80zu/Omn6b5itvMPn3yFqOka7ZxtANVhR5LZg6GJi1THG44uyipegPyzmt&#xA;R7K63HhlgwZgcMjfDIVyNijR61y4W4Z4k2Rum/8AzjhrEWo+W/OPk7SNQe3+rzTS6Hf0PqRw3iNH&#xA;HKqNQ1ieMOQe7Z3enMzjiZip0LHn1cWXNg/lzyf5VtvOF95f/NhLl/NDScra/vLub6rdxtsjJMDG&#xA;29Niz79NmHHOa9pc3aWGInpSOAfVUQZDz3ux7hs34RA83o2o/kB+XNwnPT7afSbofFFdWlxKWVux&#xA;AlaRdvamcNp/bLX45XKQmO4xH+9ouSdPEoPSfzF83/lhr9noHnq//Tnle+PCw11j/pUFDT98pLOy&#xA;j9rlU03VjTjnpHYfbuPtDGZRBjOP1R/Uev3+Th5cRiXvs00UELzTOI4olLyOxoFVRUkn2GbxpfI2&#xA;nas/mXzV5k83NX0tVuylly6/V4Bwi6/5AUfRm17Ox7GTzvbmazGA6bobX/Oum6YzW8AN7fgE/V4t&#xA;wtBUl2FaU+/L82rjDYbycPSdmTy7y9MO8/oSvTNGvvNEMWp63ec7GT4oNOtyVjABp8Z61BHz98px&#xA;4pZhxTO3cHLz6mGlJx4o+rrI/j9nkyeDQdFgjWOKxgVEIZf3ak1G9akVrmYMEB0DqpazNI7yl80f&#xA;lrjMe1Eeefrsv6PNibOo9H1efOlP2qd65iz8a/Tw07LD+U4Rx8fF1QVxo/m66haTVtZSztUUtNHZ&#xA;qQeIFW+M8D0+eVSxZSPXKh5ORDU6aJAx4+KR/nfgvYv+cVfKtnaeSJ/MMlon1/VLuYW146gzfVI+&#xA;MYQORWnqo5NOv0Zp3qC9vxQ7FXgP5ya7J5t87w+SYSRoXl8x3uvnos1y68oID4qFNT9PdRmm7b7R&#xA;/LYfT/eT2j+k/D76dp2VovGyb/RHc/q+KQaNourfmdrj6PpUjW3k6ycLrmsR7euRuba3alDUdT0p&#xA;udqBtd2F2J4dZso9fQd3n7/u97mdrdqcf7vGfT1Pf+z730houi6Xoml22laVbJaafaII4IIxQKB+&#xA;JJO5J3J3OdU8+jcVdirsVdirsVdirsVUb2ytL6zms7yFLi0uEaKeCQBkdGFGVgeoIxV8z+ZfLt/+&#xA;UXmIRkyXP5f6tKfqdwxaRrGY7mNzTp4fzDf7Qauw0Os8I1L6T9jpu1+yxqI8UP7wfb5fqZIdT04T&#xA;20BuYvWvFZ7SPmKyqoDEoP2qA12zoPEjYF8+TxHgzomjUefl70Vk2t5v+Z19+mLu18r6PbNd69FI&#xA;t2JkYJ9V471LGm5B8fDvTNR2jWX90BxSel7EgcETqJy4cfL3/j9aY/kZ+cflvysvmtvONw9rqWo3&#xA;wvOCQSOZJX5+soCKVQq38xHXOew4I4YDHHaMAIj4bPYcXFuOrNL/APOX8wPOKmz/AC78uS2dnNVW&#xA;8wauoSNVP7UcfxIT9L/6uaztHt7SaQHxJji/mjeXy6fGg2Qwykxjyj5evfyx/Nvy3cXt+b6PzXHP&#xA;Y6pdFQifWpXDqqAdAZTFSvXf5DF7A7fHaHienh4CKH9E8r87B+xlmxcNPe/OPkTyr5x04WHmCwS7&#xA;iQkwS7pLEx6mORaMvuK0PeudE0POB/zjjJZkQ6L5517TdPU/DaLOSFFOimNol/4XMHL2ZpskuKeL&#xA;HKXeYxJ+5mMkh1Tzyn/zj/5D0LUF1W7W41/V1YOt7qkgn4uDUMsdFSo7FgxHY5l48cYDhiAAOgYk&#xA;ksM/5yV/Nu1sLGTyNpVzTUL4KutXCVP1e2ahMW37cg6j+X/WyavKJvLX5j3PkObWdK0qbTfKmnQo&#xA;3NzwuriIkB5UWnLh8XNmApSpqcyp6o8PDHaLr8XZ8RM5MnqmfkPcmnlTTvLselpNpKLJHOtJZn+K&#xA;Vj3Vz7eGbTTY8fDcerz2vzZzkrIarl3e8JPpl2PKmsSaNeuF0m7YzadcMdkJO6MT0H+33zHxy8Gf&#xA;BL6TyczPj/N4hlh/eR2kO/8AH45M0BBFRuD0ObF0beKHYqkU9rqnnPXYfJflwepPcMDqt4ATFbW4&#xA;I5s7D8fH7PU5rNbqRXBH4vQ9k6Ag+LMe79f6n1j5f0Ow0HRLHRtPThZafCkEAPXigpyY92bqT3Oa&#xA;t6BH4q7FXlPnH8gdP8x+ab/Wo9dvdMt9YEQ1ixtgh9b0l9P4ZD9gMnUFW7+NMpyafHOQlIAmPLyb&#xA;YZ5wBjE0Jc3o2gaBpGgaRbaRpFslpp9onCGFPvJJO7Mx3ZjuTlzUxb8y/wA3PLvka2WKauoa9cil&#xA;jotuazSFtlZ6cvTQnapFT+yDikC3lhvvzy8w11DUvMyeWIXq8Wm2UCP6SdQHYlWr/rSNkxjdni7M&#xA;kRcjwsQvPzf/ADE8t6iLfSfOo80zK/72yeyEiNTqPUXkf+AkyJDiZsMYmoy4npPlP/nJyzcwW3nn&#xA;Rbjy/NKQqagscjWjN3JVx6iD5c/c4GmWOUeYp7XY31lf2kV5Yzx3VpOoeG4hYPG6nurLUEYsFfFX&#xA;Yq7FXYqgNe0LSte0i60jVrdbrT7xDHPC3cdQQRuGUioI3B3xV8k6p5N1jyr+bWj+VPri6hZaa73m&#xA;nzijSx2kwJMc1PslfT6e9R9oDM3SSlLJCP8ANLq+04Y8eDJPrMV8enx/U9TkfhGz0LcQTxHU0HTO&#xA;lJeAAs08P8n6hrms/WNM0BD/AIh124aTVdVbZbeBmoqIx6VJJr70G/TncGWUgRH65byl3B7rWafH&#xA;CUZZP7uAAhD+dL8ft2Zb5i/KW88pyWN1osrWevabRmlkKyCV2FauBzSjVp4djjq+ycOpwcI9UZCj&#xA;5/q8nFwds5sWcxzCvIdP1+bM/KX58aTO6aZ5wgOg6wKBpXBNpIf5lffhX/K+H/Kzxjtn2I1GnkTh&#xA;/eQ7v4h/xXw+T2Gn1sMkbBTP839El8zeRhf6BIt1f6VNHqWnS2zCTmYq8hGVryPAlgB1IGYHsxrf&#xA;yWuAy+gTHDK9q7r+PyBbc0eKOz0b8t/zB0fzx5attWsZUFzwVdQsgwL289KMjL14kglCeoz2Z1qc&#xA;a55j0DQbQ3etahb6fbAE+pcSLGDTsvI1Y+w3xV4/5g/OjzR5xuJPL/5S6bNds5MVz5lnjMdvCKbm&#xA;P1AApoesm/gpNMU0mf5c/wDOOnl3y/ONZ8zSDzF5jdvWkmuKvbxyk8iyI9TI1T9uT5gKcVt648cb&#xA;xtG6ho2BVkYAqVIoQQe2KHkOv/8AOM3k+81KS/0PUL3y487Fprexcehv/IhoyfINx8AMlGZjyNMZ&#xA;44zFSAPvX6L/AM4yfl/apO+sy3mv3c8bRfWLyUr6Yb9qMR8SGHixOAkncpjERFAUGHaz+QP5h+XZ&#xA;GPk3Uoda0kf3WnagRHcRjsqv8MbfPkv+rl+LVThsDs4ep7Pw5tyKl3hIG8vfnOkogfyTIZSD8S3E&#xA;Rj2r+2GK9v5syf5RPc4B7Chf1H5Jxpf5Jfm35ilCa7c23ljS2/vo4HFxdsv8o9NmTfx9QfI5Rk1m&#xA;Se3IeTmYOy8OM3XEfN7h5D/Lzyx5H0k6foduUMhDXd3IeU87jo0j0HSuwFAOwzFdgyXFXYq8T8x/&#xA;85U+UNJ1i5sbXTLzUba1laBtQjKJE8iGjiPkasB47V+W+KaWQf8AOXH5cOhM2n6tE4Unj6NuwJH7&#xA;KkT9T7gYrSS61/zkL5s8ywvb+TrCHQLJ9n17V5YlZF/mjjNUr7/HhAbseAy7h79mGabrvkTyzevf&#xA;fXJ/OHnG8YtLeRAzyM5FDwduQAp3BZvo2yYoOyxSw4eXrn5Jo2geffO7hvMMp0Dy+xr+ibdv9IlX&#xA;wlY/8bf8Dhonm3eFlzfX6Yd3X8fik1uPMX5b+QbY2Fv6UVwtA9paKJbl2H+/DX7X+uww2A2nLhwC&#xA;h9nNLL3zx5j1q1aJPIVze6VKPjW7YIXXxCNGfoIrg4iejVLUzmK8MmP48mQ/k3Le+VPzSk8oWkkn&#xA;6A1jTjqcenTPzNpOCQQpqR+wwNOopuaZCQour1mAY50Oot9C5FxHYq7FXYqxD80vzBtPI3lOfV5F&#xA;E19IRb6XaGv765cHiKDfitOTew8SMVeKeSvLt9bG58wa9I1z5m1g+tfzyU5IG3EQpsKd6bdB0Azo&#xA;9BpPDjZ+ovC9s9pfmJ8Mf7uP2nv/AFJX5g8ya15h1j/CXk2r3LN6eo6mm6QhjxKIw/a9xvXYb9K9&#xA;TqpTJhj+Mu5yNB2fDFEZs45/TDrI+79HzZX5e8n2nlKz/RcERjnQg3UrikkklK8mp+A7ZlaXFCEP&#xA;TuD173Wdo6nLlyk5NiOncml48t5z+tSNMzjizOxZqfM75eIACgKDiSyylLiJJPmwjWNGtJma0voE&#xA;uI1NVEig7diK9MxMmIHaQt2WDUSh6oEhL/yW/K/RvONx5jlttcvdEuNPuljsoNPmCuIWDj1JA1XY&#xA;EgAEN2PtnL6nBiykiURKN8iL+97zDKYhHiPqrf3s9sv+cUrW01GS+h836lDO5LGeFRFOSxqxaUOS&#xA;ST7YYxERQ2AZ2yXR/wDnG38uLS6F5qi3nmC8FCZdTuDIKj/JjEQYez1yS29MsNPsNOtI7OwtorS0&#xA;iFIreBFjjUeCqoAGKERirsVdirsVdirsVdirsVdirsVfKlnaeYPy2tr3yz5l8sXWp6LHO8tvq1pB&#xA;9Yt5YnP2n5fADQdCwI8MnGVOy0usjCPDIWEsk1T/AJx/1Rq3NqtlI3YRXMFCdv8Aj3+AU99sNxcj&#xA;j0kuYr5/oVINL/5x9jHrevFIFNAsk111/wBSoJ+7H0pEdJ+LTS1/MP8ALDRK23lmyN3eS/Clvp9q&#xA;wkkbspd1Qt+OHiA5Nn5vBjHoHyCfad5H/OLz2Q+oMPJPl2Tf0t3v5UPYqCrL4Hlw/wBVsgZkuvz9&#xA;oTnsNgnl9/zix5Wihtp/Lmr3+ka1aiq6g7LOJH/nkSkdCenwMBTsci4cZmJsc0pl8kf85EaVS2gb&#xA;R9diJ4peOxjdV/mdSbcbd9m+nJ8Zc6HaWQDoWY/lR+U2r+XtYvfNfmu/j1HzPfxC3CwA+hbQ1DFE&#xA;JC1J4ruFFPepORJtwsuWUzZ5vUcDW7FXYq7FXz7+bzNrH526JpV18Vho2mG/hgO6meSVgXI/2Cf8&#xA;Dmb2fjEsovpu6rtrOcemNc5bfNifmrzBq+tau/lDyy3pzAf7ltT/AGYIzsyKR+14/cO5G01GaWSX&#xA;hY/ie557Q6THhx/mM/L+GPf+P2sr8q+XrDyzYQ2mmAxtERI1x/ux5R/uxiO/h4ZlYdPDHDhHLr5u&#xA;t1WuyZsniE7jl5e5N7i5nuZmnuJGlmenJ2NSaCgqfkMujARFDYONkySnLikbJU8kwSPzfFKuiXd5&#xA;bRtJdWsMjxolSzUUmgp75j6kEQJHMBzdAQcsYy+kkPPPK2m+a/IkGledNHgkW8tYy2r2T1AntZG5&#xA;Mjp1FFpXbagbqM0U9FIYhKt+r2GHtWEtQcZI4SfSfPu/U+uPKXmnSPNXl+z13SZfUs7xOQB+0jjZ&#xA;43HZkbY5gu3TfFXYq7FXYq7FXYq7FXYq7FXYq7FXYq7FUDqGg6HqJrqGnWt4T1NxDHL0/wBdT4Yq&#xA;lTflr+XLOXbyro5cmpY2FqSSd619PFU307RNG0wEabYW1kG2YW8SRA9/2AuKozFWNebPzJ8jeUiq&#xA;eYNYgspmHJbb4pZyp2DejEHkofHjTFUh0X/nID8ptXvEs4NdSCeQ0j+txS26E/8AGSRVjH0timno&#xA;YIIqOmKHYq7FXYq7FXy5+fvmKXQfzfmvIFL3kuhRW9moFf30k7BTT/JFT79MyNPm8MkjnWzh67SD&#xA;PERP08QJ9wtPvyt0a18o6YfrtpHqF/fIZNQaWhJmc1qGIb7G4+85usWiIxgAmMrsn9Dyeo7WjPOZ&#xA;GInjA4Yg9PPl+PgmubF0bsVdirsVaIBBBFQdiDgVivlbX5/yp85xkuf8B+YZhHdxE/DZXLfZlXwX&#xA;x8U91XOc1+k8KVj6S932P2l+Yhwy/vI/aO/9b6bBBAINQdwRmA7l2KuxV2KuxV2KuxV2KuxV2Kux&#xA;V2KuxV2KuxV2KsW/NLzZP5S8gazr9soa6s4QLbkKqJppFhjYjuFeQEjFWH/lP+T+gW+j23mbzLAm&#xA;veatZjS+u72+AuBGZ1DqkavVQVBFWpWvQ0oMUkpj+dWi/l3D+X2q3evWFrH6Vu6afMscaXAuSpEC&#xA;QOByDFwNulOu1cVCZ/ksdcb8rfLra2zvqDW1S0lefomRjb8q719Dh1xUs1xQ7FXYq7FXzl+auj22&#xA;u/8AORehWds0U80GmRSzwh1r68UtwyI1TRWAKNQ023zJ0nD4gMuQ3cHtLjOCUYfVLb5pd531rX/K&#xA;fmezuL0V8uP/AKJqESqrNBPyakpYVPQjoaGnjTNzm1MoSjPnil+LeV0nZ8MuOeIitRA2N+fl3f2s&#xA;rilimiSWJxJFIAyOpBVlIqCCOoObAEEWHSSiYmjsQvwodirsVdiqQ+e9Ni1Hyhqtu68iLd5ov+Mk&#xA;I9RKHt8S5jayAlikD3fc5/ZeY49RAj+cB89nrn5OatPq35X+W724YvMbNIndurGAmHkfn6dc5V9F&#xA;LMsVdirsVdirsVdirsVdirsVdirsVdirsVdirsVSrzV5b07zN5dv9B1EN9T1CIxSMhoynqrrWo5I&#xA;wDCvcYq8m0vyz/zkf5WsofL+i3+j6rpFoPSsL28DrNHCNkVl2+yOg+OnStMUo/SPyP1jWdah1780&#xA;Nc/xHd2x5WukQgpp8R/1SE5j24LWnxcsVt6+AAKDpih2KuxV2KvGfzg/NbV01b/Afkhx/iGVQdT1&#xA;MfZsYiASFP8AvwqQSf2QdviPw24cMskuGLRqdTDBAznyH2vHfKGlWWn/AJm26aPcz39xp8Ezazqh&#xA;J3un5AnlXY8jTrWvcmubHBgiM4jH1AD1e/d0Wt1mSWjM5+iUpDgHWtj+16lqdnbapbTWuoILmC4B&#xA;WZZPi5A+/Wvgc3MscZR4SNnlMeecJiYJ4h1efwaf518kyPFpcB1/y4SWita0uYK1JC7EkfIGvgM1&#xA;whm0+0Rxw+0O+ll02tFzPhZu/wDhP4+HxRa/m7okLBNU0/UNMYmlZ4Ph6V7Hl/wuTHaUBtISi0ns&#xA;DKRcJQmPI/j72S6F5p0DXkdtKvFuTGAZEAZXUGtKq4Vu2ZeHUQyfSbdZqtDmwV4kav8AHRGanczW&#xA;um3dzAglmghkkijJIDMillUkeJGWZJcMSR0DVgxieSMTsCQED5R10695dstVZVSS4U+oiV4h0Yow&#xA;Fd+q5Xps3iYxLvb+0NMMGaWMbgfqtU80LM3lnV1hBMxsrgRgdeXpNSn04dR/dy/qn7mOh/v4X/Pj&#xA;970T8gZLd/yg8tmBiyCGVWJ7OtxIHH0NXOSfSy9AxQ7FXYq7FXYq7FXYq7FXYq7FXYq7FXYq7FXY&#xA;q7FXYq7FUs8xeZdC8t6W+q65eJY2EbKjTyVI5OaKoChmJPsMVYPN/wA5Ifk3GrU14yMppwS0vKne&#xA;mxMIX8cU0gZv+coPykjYBL26mBFeSWsoA9vjC4rSU61/zlL5UfRrs+XtP1K51V42Sw9S2UQ+sRRW&#xA;ciRjxU7kAVPTCAUEgc3kqxazpFjb6Fp/O78+ebH9fULg1aaJZSSSx3NRVvp5HwzagHDAQj/eT5+Q&#xA;/H6XnDIarMcs/wC4xbRH84/p/sHe9D8s+U7Xyvpi6ZFGyzqeV3I4KySSkbswO49h4ZtNLhjjgBHf&#xA;z73nO0dXkz5SZiq5DuTbMlwXYqtZFdSrgMp2KkVBwUoNIWHT9JsGmuYLa3tGkHK4nREjLBe7sAK0&#xA;98gIQhuAA3SzZMlRJlLuFk/JjMeq+Z/Pepy+X/IUIaBfg1LzBKKW0CNseJINSe1Kk9hTfNRq+0b9&#xA;OP5/qem7M7Cqp5vhH9f6lL8qY57HStU0K5/3p0bUbi0k7fZIB2/1w2X9lTvGR3Fw/aPHWcS/nR+7&#xA;8BmroroyOKowKsD3B2ObMi3nwSDYRf8Azi/etF5Y1zy3K3KXQtVmjQHtDKBx++RJDnHzhwyI7i+o&#xA;4sgnCMx/EAfm9nyLN2KuxV2KuxV2KuxV2KuxV2KuxV2KuxV2KuxV2KuxVD3+o6fp9s11f3UVnbJ9&#xA;ued1ijHzZyBir4z/AD8/NZ/PHmUWOmyFvLulO0diFrSeU/C9wR35dE8F/wBY4sgGUflTcadqXlWO&#xA;GazhF7pzm2uQ0Shjx3RjUVrx2Ne4Ob/s4wyY+QsPEdujLizkiUuGW43PxH472cRwQRnlHGqHpVQA&#xA;afRmzAAdCZk8ytu7qG0tJrqY8YbeNpZW8FQFmP3DBKQiCT0ZY8ZnIRHMmmF/lXBd3FzdeeLrbU9R&#xA;mJsmPxelBE1FC1H8y0+SjNbosXiCWSf8f3O+7W1HgGGDGaGKj/nc/wBvxegXt5c3ty91cv6k8lC7&#xA;0C1oABsoA6DNjjxiEeGPJ0WbNLLMzmbkVHJtbsVdirCfNGmzeYfzA8r+U7q7mj0TV2f67b2pCyt6&#xA;YLFmY1+Gg8NqE5pe1ZyBEb2L1ns3igYymR6wef6n0toHl7RfL2lQaVo1pHZWFuKRwRigr3ZiaszH&#xA;uzGp75pnqHz3Lbfoj87POulgER3/AKOpwg9D6iq8jD/npOR9GbbsmfqlHy/H3vN+0uK8cJ9xr5/2&#xA;MkzevHpf+UF2dJ/OzzDpRbjb67p8V9EvjLbsF+n7cpzme0IcOY+e73/YmXj0se+Nj8fCn0BmE7V2&#xA;KuxV2KuxV2KuxV2KuxV2KuxV2KuxV2KuxVAa7r2kaDpVxq2r3SWen2q8pp5DsOwAAqWYnYAbk9MV&#xA;eM3H5p/mf58keP8AL/Tk0LQK8R5h1JQZZADQmGMh1+5W/wBZc0XavtFpdF6Znin/ADY7n49B8W7H&#xA;hMlK1/IzTL64W+856xf+aNQ/aNzM6Qj2VQxcDt9untnB67251WTbEI4x/ppfbt/sXKjpojmzfRfK&#xA;PlfRFA0nSrWyIFPUiiVZD/rPTmfpOctqu0tRqP73JKXvO3y5N8YAcg8g84NbeR/zXnv7lvq+h+aL&#xA;f1pJaHgl1Ds/QE9TU/6+ex/8D3tgS03hzO+P0n3c4n74/B5n2i7OlnhcBcwbH6f1rp/za8hxEgai&#xA;ZSK1CQzHp7lAM9EPaOEdfsLyMewtUf4a+I/Wk3mH80PLmq6FqOn6fDe3M11bywRtFD8IZ4yByJYH&#xA;jXrt0zF1HamIwI33H46ufo+wc8MsZkxqMgeZ/Uy/8tpNGufyx0i4iuW/SSAwyWpU8QsbshPKlK7A&#xA;9cu7PnMxAr0Vz83H7bw4hkkeI+LxDatqr8dU6zZOhdirsVYjq/lnzrcalPc6f5oa0tZTWO1a3RxG&#xA;AKcQa7/OmYOTBlMiYzoe522DW6aMBGeGyOvFzSIWWreQvN3l7ztqOqy6qYbwW2pyyJxEdtMhjbgt&#xA;WoAjP9NM1mu0soASlLieh7I7Rx5ZHHCAxgCx+n9D66VlZQykFSKgjcEHNa714F+c1qdL/OXytrAH&#xA;GHWbKbT5T2LwMWH0/vox9GZmgnw5h57Os7Zxcell5b/L9lo7OnfPmL392dF/NfyPrwbjHLdNply3&#xA;bjcj0lr7fvmPtTNJ2tDeMvg9b7NZfTOHuP4+QfTGad6d2KuxV2KuxV2KuxV2KuxV2KuxV2KuxV2K&#xA;oPWNY03RtLudV1O4W1sLNDLcTv0VR8tyT0AG5OwxV4Fbx6z+cuuJrutpJZeQNOlP6H0ckq126mnr&#xA;TU6+BPb7K/tMeL9qPaX8oDhwn98eZ/mf8e7vm5WDDe55PWooYoYkhhRY4owFjjQBVVRsAANgBnk0&#xA;pGRsmyXPU7++tbCxuL67kEVraxvNPIeipGpZj9AGSw4pZJiERcpGh7ygmnn3lvQvzN/MaxPmT/EL&#xA;+UtDuix0bTre3Wad4QSqzTOzIfipsK79RQUr7F2d7I6PDjAyRGSfUn9A7vtdfPUSJ2SWeLWYvN0/&#xA;kvz6trrd5awLf6RqTwpxnt2bhy9JgVjcMCDTwPXqdP232SOz4jLpTLHGRqQBPw35172zHk49insO&#xA;kaTB/c2UEX+pEi9fkM5aeszT+qcj75Ft4Qvv7u2sbCe7uSEtraNpJSegRBU/hleHFLJMQj9UjXzS&#xA;TTyP8l9dltmk0C+Bi+uL9e0zmKB1NVkC+3wVHybPofsvLXoPXcPC+0WmEgMsd+H0y/R9/wBoetZu&#xA;nk3Yq7FXYqknnTRxrHlfUbALykkhZ4B/xbH8af8ADKBmPqsfHjIc3s3UeFnhLpe/uOxeofkf5lPm&#xA;H8r9CvHblcW8H1K5qannan0at7sqq305yj6QWL/85P6a/wDg3S/MUKcp/L2pwXJbuIpDwI+mT08l&#xA;CXCQR0a8mMTiYnlIUl8Msc0KTRnlHIodD4hhUZ2ANiw+XziYkg8ww/8ANm1lk8ovewVFzpk8N3C4&#xA;6qVbhUfIPXMDtOF4r7i7r2fy8OpA/nAj9P6H0toeqRatomn6rFT0r+2huo6dOM0YkH4NnOPco3FX&#xA;Yq7FXYq7FXYq7FXYq7FXYq7FXYq7FXhv/OUd5LDZ+VYL9bg+Upb93176sPib0ghhjJJUfEDIQCe1&#xA;eoGUaoZDil4VeJR4b5X0tlCr3ZB5Q88+R9dtIbfy/qEDLEipHYD91KiqKBRC/FqAbbCmeG9pdk6z&#xA;TyMs8Jbn6uYP+cNv0uzhOJ5Jxfaxa2tVr6ko/wB1r2+Z7Zg4tPKXkGRlTzf82tWvbjyLrNX4IYQB&#xA;GuwoXUGvjtnU+zWCEdbj26n7i0ZpHhL2vydHZx+UdDjsSDZJp9qtqR0MQhUJ/wALTPXnXvA/zA87&#xA;eWp/z1uJri/it7bQ9MGmmRz8L3RlMkihh/IJOLV/aU5oPaTBly6bgxR4iZC/cP203YSAd05tPNHl&#xA;q7/3l1WzmP8AKk8ZP0gNXPOJ9m6mPPHMf5pcvjHew38w9Ql17VbDyTpku12VuNWnjNfTt0NaV3G9&#xA;K/8AA+Odj7F9jHJk8aQ8o/74/oHxdf2nrY4MRken39AjfOPkkX2lWb6KRZ6tooDaU6UGyAfujXah&#xA;oKV7+1c9a1Ok4ojg2lHk8D2f2lwZJDL6seT6vj1T7y9d6nd6Na3GqW31PUHU/Wbf+VlYrUbnZqch&#xA;88ycEpSgDIVJwNXjhDKY4zxQ6FMctcd2KuxV2Kr/APnGm4a0k86eW6gR6bqYuYF8I7pWUU+iAZyO&#xA;eHDOQ7i+m6TL4mGEjzMQ9Q89+Wk8z+TtX0FqBtQtpIoWb7KzU5RMfZZApypvfP35a6xJc6H+iL1W&#xA;h1jQ2Njf20mzoYiVSo+S8fmDnSdnZxPGB1j+A8J25pDizmX8M9x7+v2/en+v6cNS0S/sCK/WreSJ&#xA;fZmUhT9BzKzQ4oGPeHXaTL4eWM+6QZr/AM4663+lfym0cM3KbT/VsZfb0ZDwH/IpkzkX00vSsUOx&#xA;V2KuxV2KuxV2KuxV2KuxV2KuxV2KoTVdJ0zV9Pn03VLWO8sbleE9tModGHXcHuDuD2OKvnjzz/zi&#xA;W5uHvfJOoLEpPJdMvmYcO9IrhQx+Qdf9ljSbYOPI/wDzkfoT/V4rPUJFUgLwkivI6E0HE8pQB+rv&#xA;mtz9j6TL9WOPwFfdTYMhHVVf8pPz980TRy6zprSwJUpHe3EMEIJ7+jDIjA79QuWabs3DpwRijwX1&#xA;HP5m0GZPN6j5d8i/85B6R5Sj8vTeZtI03R4Iyn6QHrTX1rbgGqRuY44+Kr0Jaq9mFBTOYPFfJP5Z&#xA;WfmXUdQvJr25n0CCZ47W84iGa7cHeTi/q8QRudyd6V2Oc12927+TqGMA5DvvyA+xvx4+Lmn/AJl8&#xA;rflJ5ZtDFc2r3upuONvZpcStcO52WqowVRXuV+Vc1Gg13amsmDA8GPqeEcPwvc/P5M5RhFU/JXTd&#xA;Ogs9SuKenrAnMF3asGV7dFPwx0b4tzWtfCnbPV+yYRESbuTw3tLknxxifoqx5n9j0LUdSsNNtJLy&#xA;+nS3toxV5ZDQfL3PsM2s8kYC5Gg87hwzyS4YC5Fhkv5xeXfUpa2OoXkAJBuIYRwP+rydT94Gayfb&#xA;OGJr9X63pcHsfrskOKMdvdI/aIkJ1pPn3yzqto9xZ3JZoqCS2ZSsyk9PgPX5jbLpdp4RDjJ+HV0O&#xA;v0OXSGsg/H471N/N0vI+nbrx/Z5Ma/TTNNP2iN7Q297rPFKeabe/XbRbjgY+VRxO/TwOb7Ranx8Y&#xA;nVW2wlYRWZbNS/IAGb8w/wAwLqJa26tZwmTt6iiQMv3oc5XWkHLKu99F7LiY6aAPd9+73XMZz3z/&#xA;AP8AOQvlhPLmqab+YGgSG31jULyLTL6zoPRujJG7Iz7ihpDxbx2OxFTbgyyhIGPNx9Vp8ebGYz5f&#xA;d5hHitBy696dK51r5mVD/nHzU/0J5t80+R7n4RNMdY0zwaOTikgHuF9P7jnK6rFwZCH0js/UDNgj&#xA;PrW/vHN7xmO5jsVdirsVdirsVdirsVdirsVdirsVdirsVdirsVdiqD1nS7bV9IvtKui4tdQt5bWc&#xA;xni4jmQxtxbeho2xxV43D/zi/bW8As7fzlrEOnqTxtEcKgUkkigIXv8Ay5i5NFhlLjMIcfeYgn9b&#xA;MTLNvJH5Kfl/5PnW806xa61Rdxqd83r3AJ6ldlRD7ooOZQY2wP8AOn8v9T0PWH/MnypD6jotPMml&#xA;oDSaEUrOoFdwB8e3bl/Nl2nznFLiDiazSQ1GMwl8D3F4X5z83P5q1uNrWKSbR7RF+rwNSNTKwBd5&#xA;OW3IV409vfIdsa4ZNhLhDt/YjsE4pccsJzEc6rh57WTtVb11PPZQzjS+/gUKCe6fqOh6dZGR5Qkj&#xA;ANcyFGrUDoSAfs1oM2GCQIEQd351/wCCD7Odsa3X5dQcQ/LwAETxYwOHv+oEyJ8uLkOQDN9G0AX1&#xA;vBevKDaToksXCtXRwGU70pUHOm0fYRlUsh9PcOb5JPTyjIxlsYmmVRxxxRrHGoVFFFUdAM6mEBEA&#xA;DYBsApQ1XUIdO0y6v5jSK1ieZvkik0+nBknwxMj0bsGI5MkYD+I0yP8A5xq0Gaw/LldVulpfeYbq&#xA;bUZmI+Lgx9OP6CE5j/WzkSbNl9OEREADkHq+BLyn/nJjSrm7/LJ7+23l0S+ttRC7moQtCen8vr8j&#xA;8sQaWr2Y5p17Ff6fbXsJrFdRJMnydQw/XnYY58UQR1fL82I45mB5xJDGvMV//hnz55S84qeEUF0L&#xA;DUW8be4BU1/1UaQ/OmajtbFyn8Hp/ZrUfXjP9Yfcf0Pp7NM9S7FXYq7FXYq7FXYq7FXYq7FXYq7F&#xA;XYq7FXYq7FXYq7FXYq7FXmH/ADkfrt9pX5X3cdk5im1SeHTmlBoVjmqZN/8AKRCp9jgJoNmHHxzE&#xA;R1NPlqKKOKJYoxREFFGcnkyGcjI8y/QOk0sNPijjxioxC/IOQsliilQpKodD1BFcsx5JQNxNFx9V&#xA;pcWeBhkiJRPQp15H8x3nl/W7SxaVn0O/kFv6DsWEEsh+BkrWgJ6/jnWdh9qyMuCX48/1viH/AAQf&#xA;Y7Fp4ePhG33Eb8PmCOXXZ7VnZvirDPzPmu7nTLDy7Y1N/wCYbyGyhUeBcV/4YqD881namXhx8P8A&#xA;Od/7O6fjzmZ5QH2nb9b6Y0fS7TSdJstLtF42thBHbQL4JEgRfwGc+9qi8VS/zHo0Gt6BqWj3AHo6&#xA;jbS2rk9hKhSvzFajFXzb+VV5O/lg6bdAre6PcS2Nwh6go1QD8g3H6M6Ps3JxYq/mvDdv4ODUGXSY&#xA;v9CO/MTSf0p5N1K3VS0scX1iKnXlCfUoPmFIy3W4+PER8fk43ZGfw9TA9Ca+ez2v8rPMf+I/y80D&#xA;V2bnNPaIlw3jPB+5mP8AyMjbOXfQiynFXYq7FXYq7FXYq7FXYq7FXYq7FXYq7FXYq7FXYq7FXYq7&#xA;FWC/nfoWm6x+WGuw6hP9VjtYDew3FK8Jbb94gp35kcPpxSDRfHaX0sNvDJqEEtqZkDxSPGwSUMKh&#xA;oyBvXNBPRcUj4coyAO+/LyL6p2d7aYDiA1FxyAd1g+Ya0yR2N0JOayCYt6cgIZUYApWvsMjrcfDw&#xA;/wBWviObm+y3aA1Izmyf30pC+YjL6fuR2YD1aFuri3hu9OM0gjQXcLu7VoqIwLMaA9M23ZEf3vF0&#xA;Dwnt/qIjRjGN5ylYHuB/WA9wtPO3lG7oINYtCx6K0qox/wBi5U56JHV4pcpB+Z8nZmohzhL4C/ua&#xA;/L6zj81/net0pE2meUbMyBh8SG7n+Fd/H4iR7pmk7RzceShyD1vYWlOLBchUpm/1fr+L6MzAdy7F&#xA;XYq+bNSsh5c/O/zLpQHC016KPVrUdAXavq0+chk+7Np2VkqZj3j7nnvaPBxYoz/mn7D+AyF0V0ZH&#xA;HJWBDA9CD1zfEPGA0bCI/wCcZL9rbTPMnlKUn1NC1JnhBO/oXIPCntyiZv8AZZyGWHBIx7i+n4Mv&#xA;iY4z/nAF7VkG12KuxV2KuxV2KuxV2KuxV2KuxV2KuxV2KuxV2KuxV2KuxV4x/wA5Canc6xcaB+W2&#xA;nSFbnzDcLcakU3KWUDcqkeBZC4/1Mwe0tbHS6eeaX8I+Z6D4nZnjjxGk01jS7exitUtYxFbRRLbx&#xA;xjoqxKFQf8CKfRniWDPLIZGRuRN/P9rspCnmHn38uH1q7GsaRKltq6qEmSUH0p1XoGI3VgNq/wC3&#xA;nV9kdtjDDwcwMsXSucW7R63Npcvi4TUvsI7iwhfIX5hMwi/Q8atWhuWuoTF8+AbnTN7/ACj2fz8U&#xA;+7hlf3U9SfbfUcNDFHi77NfL9qH1rTYvK0E9oxj1fzbd27NcFUDwWFqq83Kqw+2QNiR7/wCtl6LO&#xA;dURON4tNE7b1LJLlv5eXU/Zx2v1uXUZDkynimfkB3B7b+Tf5M/l/rH5WaNea/okV3qF8s081yzSJ&#xA;IVeV1jAeNkYD0lXavvnUOtJeo+S/y88o+S7e6g8uWP1NLxxJckySSsxQEIOUjO1FqaDFCj5z/M/y&#xA;R5NQfp3U44bll5R2MdZblwehESVYA9mag98Vpglx+eHnLU6/4U8jXTwHdL3VpkswQehEJ3Yf6r5p&#xA;9T2/osJqWSN+Xq+63Jho8kuQQc3mz/nIaRxcRjy5Ai1IsqXTcvBWY13+TDNUfbPR3VT99D/ircj+&#xA;TMnkwH8wvzG07XdT8qeZLmJdK806LdvpfmPSmJ5rFL9mSMn7UVPU8acqHsT1+h1USY5IG4nr5On7&#xA;Q0xninjI3r7en2s+zsXzJJvIl5+gfz7iQ0W1806e8J7D6xbjmD8+MNP9lnO9p4+HLfeHufZ/Nx6f&#xA;h/mGv0vonNc7t2KuxV2KuxV2KuxV2KuxV2KuxV2KuxV2KuxV2KuxV2KtSSJGjSSMEjQFndjQADck&#xA;k4q8B/LWSTzj578yfmNcKTaySnTNBDV+G2ipVgD05KF+ktnnHt32j9Gmif6UvuiPvPyc3Sw6vRda&#xA;jjfTpeZpxoyk/wAw6ff0zz/TEiYpypcmJ5tGtiP5iefLbytpf7vjJq1yCLOA7gdjK/8Akr+J+nN5&#xA;2J2PLWZLO2KP1H9A8/u+TXknwhgl3ot9pfkelyjT+cfONxHb1c8pissgYR9NqigYeLewzqdLmGq1&#xA;4jj/AMX042rlxcv7PdtzaSKjvzL6+8uaNDonl/TdGhoYtOtYbVGG1RDGE5fTSudc4zz381fzH1q3&#xA;1aHyP5MKnzNeR+rfX7DlHp9sf92MKEeo1fhr7bVYZg9o9oY9JiOTJy7upPcG7BhOSVBIPK/5faHo&#xA;UjXsnLU9cmPO71m8Pq3Ekh+0wZi3Cte2/iTnlHanb2o1hPEeHH/NHL49/wAXf4NLDHy596zX/wAx&#xA;tE0vUV0i0iuNa119l0rTYzPMD/l02X3H2u9Mn2Z7OanVjiA4Ifzpdfd3/d5oz6yGPY7luy8qfnV5&#xA;so1ybfyRpEnVdrvUWUjfpRE/4RhnbaH2Q0uLfJeWXnsPl+sl1mXtGcuWzz7z75VtdIv7ny5+Yly7&#xA;skL3HlnzeiVlmhQVNvMB/eOp/ZY1r0b4lJv1Ghz6TIJ6MXCRqWP+Hf8AiH83zr30xhljkFZOY5H9&#xA;Ce/ltq+qat5StbzUSjSkvHHInV44zwDOB0aoNc9M0OSU8QMnzDtjBjxagxhy/Se7yQX5kTyaTL5f&#xA;81wqTLoOpQzvTqYmYF1/2RRV+nMbtXHcBLuP3uf7N5qyyh/OH2j+0vqKGaKaFJomDxSqHjcdCrCo&#xA;I+YzQvYr8VdirsVdirsVdirsVdirsVdirsVdirsVdirsVdirsVeYf85C+a7jR/Ip0jTqtrPmaVdL&#xA;sol+0Vl2mI6fsnh82GQy5IwiZSNRiLPuCYiyivJ/ly38t+WdO0SChWyhVJHUUDyH4pH/ANk5JzwH&#xA;tLWy1WonmP8AEfkOg+AdtCPCKQvmC+9SYWyH4It392/syzS46FnqxkWGecPNmn+WNHkv7oh5TVbW&#xA;2Bo0slNlHt/Mewzd9mdm5NXl4I8up7h+OQapzEQ8j8qxjVdQvPzA83yf7jrN6wIw2mnX+7iiU9Vj&#xA;7Duev7Wdz2hI4YR0OlHrkN/6MepJ8/x0ceO/qL2X8nfIur+Ztfh/MnzRGYLaIE+V9KahCowIFw4p&#xA;71Su5PxdAubjszs2GkxCEefU95/HINeSfEXrPn3zjYeTvKeoeYL2jLaR/uIa0Ms7/DFGP9ZiK+Aq&#xA;e2bFreTfl9oV9Yadda7rzc/MevSG+1aZ9inKrJFvTiI1PTsajoBnkXtJ2qdZqOGG+OG0fPvPx6eT&#xA;0WjweHDfmUKupeZvzB1afQfJEhs9Gt29LWPNZBKIf2orTpzen7QPvsKMd/2D7KgVl1I36Q/4r/if&#xA;n3OJq9f/AAw+f6nrvkX8u/K/knTPqWi2wWSQA3d9JRridh+1JJ+pRsOwzvgKdQSybFUr8w+VvLvm&#xA;O1itdd0+HUbeCVZ4op15BZF6MPvoR0I2OKvnDyHaPoWs+Z/J8hP+4XUJPqobqbeUn0yPmFDf7LN5&#xA;2TkuJj3PI+0uCpxyd4r5f2/Ym/naxhv/ACpqdpK6oJIGMbOQF9RPjj3P+WozO1cRLFIHudP2ZkMN&#xA;RCQ7/sOxZj+Sf5v+T9V8naJo17q8Fv5gs7ZLSa0uW9JnMNY4yjPxSQsiA/CSfHOVfRyHreKHYq7F&#xA;XYq7FXYq7FXYq7FXYq7FXYq7FXYq7FXYq7FXiv5ut9e/OX8utLJqtuLy947dQgcH/p3zQ+0+Uw7P&#xA;ykfza/0xEf0t2AXIMz1O9FpatJ/uw/DGP8o/0zxTBj45eTsiaYFrmt2Gj6bcanqMvp28I5O3VmY9&#xA;FUd2Y7DN/pNJPUZBjxj1FolKhbxHTtJ81/m75+jsYj9WhKmQswLxWVoN+TAUqzVHhyYjoOnrPZnZ&#xA;2PSYhCG56nvP45OHOdm3uXlX/nGlLW/sJPNWuHXdL0kVsNHSAQW/Ktayjk3MV3Ip8XckbHKxabHC&#xA;UpxHqnzPU/ju5MDIl7eqqqhVACgUAGwAGXsXiX5sXX+JPzR0PypKQNH0C3Ou6mjGiyTFvTgRq7fB&#xA;sd+qs2c/7S646fSHh+ufpHx5/Z9rmaHEJ5N+Q3Seys9c/NjVLjTdKmbT/IVlL6Orasm0t6y7tBbH&#xA;ccTtU9KbmtQp1vs77NjABmzC8vQfzf8Aj33e9v1mt4vTH6fve8aHoWkaFpdvpWkWqWen2q8YYIxQ&#xA;DuSe5Ynck7k9c7J1iOxV2KuxV43+YP5J+adc/MCXzL5d1yHRYdQtYrfU2ZGkmLxUUMiU4n4EQV5K&#xA;dvDLMeWUDcTTTn0+PKAJjiANvI/OH5cQ+UfPVvZeeby61jQNRjU6drMryRx+vt6iSgM3Chr0bYUP&#xA;jTVds5NX4JlgN5B37mvK+rfp8WOGwAiPLZmd5+W/ke8sEtDpUKRIKRSw1SQV3r6ink3+yJzzXH29&#xA;rITMuMk9QeXy6fCnOOOLH9H1rzT5XrB5L/MCyu7BPsaRqk8UyoFNCqElyor/ACBM7XS9u56rNgyA&#xA;98Ykj7eXzLjyxDoWWWP/ADkL+YNj8Ot+VLXU0Ar9Y0i7Xdf5hFW5Y/LbNtj7UwS5nh/rAx/3QDA4&#xA;yzDyR/zkN5O8065baAbS+0vV7rkIoryNBGzqpbiHVyakA05KMzoyEhYNsCHqOSQ7FXYq7FXYq7FX&#xA;Yq7FXYq7FXYq7FXYq7FXivn0oP8AnIjynypX9EXPGvj+/wCn0ZzPtf8A8Z2T/N/3cW/T/UEL5+/M&#xA;Ly9ozs+oXQBjBEFpHR5n9wle/iaDPPuyexc+o2hH3yPIfH9Aty8mQB4hrXmLWvO2sW0K2xuJ3fjo&#xA;nl2D96TI2wluT9nYb0PbqAtSfSOzOyY6UcMN5H6p8vhH8fEkOJOdvqj8nvy0t/IvlkQTETa7qBFx&#xA;rN5XkXlNSI1b+SPkQPE1PfN8AAKDSSzvCh2KvOvP35J6N5v10aydUvtKuZrcWWpCycKLm3BrwbkD&#xA;TwPUHwyrJhhOuIA8JsX0PeyjMjkzfQ9E0vQtJtdI0q3W10+zjEUEKdAB3J6lid2J3J3OWsUdirsV&#xA;dirsVdiqU+afK2h+adFuNG1u2W5sbgbqdmRh9mSNuquvYj9WKvAdZ8n/AJiflfze2jfzT5JiJZHQ&#xA;f6baR9fjUA/Co7iq9/gzne1vZ3FqiZx9GTv6H3j9P3t+PMQ880dPyzsvNMWrXlhHq/kjVD6N5CzS&#xA;x3Gmyudm4xMjhQenWq1puBXN7N1GavC1ArLHr0mO8fpH62MwOYfQaf8AOOf5K30EN1Z6UTbTIrxS&#xA;QXt08bowqrqxleoIO1Dm1a7Tjyt+R35aeWNXi1jStKK6jBX0JppppvTLAgsquzLyoetK+GK2zzFD&#xA;sVdirsVdirsVdirsVdirsVdirsVdirsVfPX/ADlD6/6e8q/4f+tf4v8ATvPQ+p/a+qen+86fHy+1&#xA;x49uXtmLrPB8M+Nw+HtfFy5ir+NM4Xez580L/Df6ck/xx+lPR5fv/qfp/Wudfi5/WP8Aby7Hw8I4&#xA;a4elcvgpfX35M/8AKmv0c3+APq/1nh/pnqV/SFKivq+r+948vD4K9MsYl6Vih2KuxV2KuxV2KuxV&#xA;2KuxV2KuxV2KvlH/AJyC/wCVLfpVv0L6n+IuR/Sn6H9P6pTkOX1iv7v1OX+++/296YDTIPoD8o/0&#xA;T/yrXy9+ifrP6P8Aqi+h9cp6/U8uVNvtV402pSm2FiWXYq7FXYq7FXYq7FX/2Q==</xmpGImg:image>
               </rdf:li>
            </rdf:Alt>
         </xmp:Thumbnails>
      </rdf:Description>
      <rdf:Description rdf:about=""
            xmlns:xmpMM="http://ns.adobe.com/xap/1.0/mm/"
            xmlns:stRef="http://ns.adobe.com/xap/1.0/sType/ResourceRef#"
            xmlns:stEvt="http://ns.adobe.com/xap/1.0/sType/ResourceEvent#">
         <xmpMM:InstanceID>xmp.iid:F87F117407206811822A9DD448A483FF</xmpMM:InstanceID>
         <xmpMM:DocumentID>xmp.did:F87F117407206811822A9DD448A483FF</xmpMM:DocumentID>
         <xmpMM:OriginalDocumentID>uuid:5D20892493BFDB11914A8590D31508C8</xmpMM:OriginalDocumentID>
         <xmpMM:RenditionClass>proof:pdf</xmpMM:RenditionClass>
         <xmpMM:DerivedFrom rdf:parseType="Resource">
            <stRef:instanceID>uuid:ba5dc92b-6d0a-484a-ab90-b9370a4a0965</stRef:instanceID>
            <stRef:documentID>xmp.did:0980117407206811822A897E387FE54C</stRef:documentID>
            <stRef:originalDocumentID>uuid:5D20892493BFDB11914A8590D31508C8</stRef:originalDocumentID>
            <stRef:renditionClass>proof:pdf</stRef:renditionClass>
         </xmpMM:DerivedFrom>
         <xmpMM:History>
            <rdf:Seq>
               <rdf:li rdf:parseType="Resource">
                  <stEvt:action>saved</stEvt:action>
                  <stEvt:instanceID>xmp.iid:F87F117407206811822A9DD448A483FF</stEvt:instanceID>
                  <stEvt:when>2018-09-05T11:32:55-03:00</stEvt:when>
                  <stEvt:softwareAgent>Adobe Illustrator CS6 (Macintosh)</stEvt:softwareAgent>
                  <stEvt:changed>/</stEvt:changed>
               </rdf:li>
            </rdf:Seq>
         </xmpMM:History>
      </rdf:Description>
      <rdf:Description rdf:about=""
            xmlns:illustrator="http://ns.adobe.com/illustrator/1.0/">
         <illustrator:StartupProfile>Print</illustrator:StartupProfile>
      </rdf:Description>
      <rdf:Description rdf:about=""
            xmlns:xmpTPg="http://ns.adobe.com/xap/1.0/t/pg/"
            xmlns:stDim="http://ns.adobe.com/xap/1.0/sType/Dimensions#"
            xmlns:xmpG="http://ns.adobe.com/xap/1.0/g/">
         <xmpTPg:HasVisibleOverprint>False</xmpTPg:HasVisibleOverprint>
         <xmpTPg:HasVisibleTransparency>False</xmpTPg:HasVisibleTransparency>
         <xmpTPg:NPages>1</xmpTPg:NPages>
         <xmpTPg:MaxPageSize rdf:parseType="Resource">
            <stDim:w>21.000131</stDim:w>
            <stDim:h>29.700013</stDim:h>
            <stDim:unit>Centimeters</stDim:unit>
         </xmpTPg:MaxPageSize>
         <xmpTPg:PlateNames>
            <rdf:Seq>
               <rdf:li>Cyan</rdf:li>
               <rdf:li>Magenta</rdf:li>
               <rdf:li>Yellow</rdf:li>
               <rdf:li>Black</rdf:li>
            </rdf:Seq>
         </xmpTPg:PlateNames>
         <xmpTPg:SwatchGroups>
            <rdf:Seq>
               <rdf:li rdf:parseType="Resource">
                  <xmpG:groupName>Default Swatch Group</xmpG:groupName>
                  <xmpG:groupType>0</xmpG:groupType>
               </rdf:li>
            </rdf:Seq>
         </xmpTPg:SwatchGroups>
      </rdf:Description>
      <rdf:Description rdf:about=""
            xmlns:pdf="http://ns.adobe.com/pdf/1.3/">
         <pdf:Producer>Adobe PDF library 10.01</pdf:Producer>
      </rdf:Description>
   </rdf:RDF>
</x:xmpmeta>
                                                                                                    
                                                                                                    
                                                                                                    
                                                                                                    
                                                                                                    
                                                                                                    
                                                                                                    
                                                                                                    
                                                                                                    
                                                                                                    
                                                                                                    
                                                                                                    
                                                                                                    
                                                                                                    
                                                                                                    
                                                                                                    
                                                                                                    
                                                                                                    
                                                                                                    
                                                                                                    
                           
<?xpacket end="w"?>
	</metadata>
<g>
	<path fill="none" d="M-65.974-84.693l0.97,2.649c0.584,0.05,1.139,0.232,1.639,0.574c1.153,0.786,2.029,2.326,2.603,4.573
		c0.36,1.41,0.482,2.647,0.509,2.948c0.044,0.191,0.238,0.965,0.655,1.919c0.121,0.06,0.243,0.111,0.367,0.147
		c0.07,0.021,0.125,0.062,0.186,0.098c0.825-0.949,1.954-1.768,3.453-2.149c-0.261-1.606-0.854-5.119-1.333-6.899
		c-0.623-2.313-0.491-11.516-0.453-13.597c-0.05,0.087-0.113,0.219-0.183,0.414c-0.625,1.751-1.651,10.523-1.994,13.756
		c-0.038,0.354-0.283,0.65-0.624,0.754c-0.34,0.104-0.709-0.007-0.938-0.28l-4.588-5.497c-0.031-0.038-0.061-0.079-0.086-0.122
		c-0.176-0.302-0.428-0.624-0.624-0.816c-0.221,0.649,0.214,1.179,0.271,1.243C-66.075-84.896-66.011-84.793-65.974-84.693z"/>
	<path fill="none" d="M2.85,19.139l-0.046,0.128C2.822,19.223,2.836,19.182,2.85,19.139z"/>
	<path fill="none" d="M-25.29,5.426C-26.07,6.2-26.9,7.141-27.734,8.263L-25.29,5.426z"/>
	<path fill="#FFFFFF" d="M-0.958-45.691c3.068-0.373,8.033-1.089,8.083-1.095c0.523-0.083,5.166-0.651,6.57,4.828
		c0.96,3.747,4.467,14.648,4.664,15.261c0.147,0.371,1.999,4.773,6.189,4.263c0.038-0.005,0.072,0.008,0.109,0.009
		c5.793-0.947,11.261-3.98,15.156-8.956c3.722-4.753,5.527-10.685,5.085-16.699c-0.306-4.159-1.684-8.106-3.931-11.523
		c0.635,2.404,0.832,4.706,0.68,6.713c-0.34,4.505-2.295,7.989-5.36,9.557c-4.52,2.312-8.419,1.036-11.598-1.453
		c-3.322-2.602-5.856-6.527-7.49-9.057l-0.021-0.034c-2.062-3.196-4.146-3.96-5.176-4.137c-1.974,0.102-3.906,0.666-5.627,1.675
		c0.938,3.834,0.039,6.624-0.002,6.747c-0.078,0.234-0.251,0.426-0.477,0.527c-0.226,0.102-0.483,0.104-0.71,0.007
		c-1.453-0.618-2.569-1.177-3.651-1.958c-0.51,1.089-0.877,2.244-1.048,3.443C0.435-47.2,0.15-46.901-0.22-46.83
		c-0.258,0.05-0.518-0.017-0.716-0.171c-0.087-0.069-0.162-0.154-0.22-0.254c-0.745-1.286-1.336-2.621-1.8-3.98
		c-0.343,1.66-0.516,3.334-0.507,5c0.022,0.045,0.053,0.085,0.067,0.135C-3.3-45.906-2.694-45.479-0.958-45.691z M17.564-39.562
		c0.055-0.253,0.219-0.467,0.445-0.59c0.34-0.184,8.4-4.412,15.798,1.38c0.898,0.703,1.759,1.539,2.556,2.482
		c0.155,0.185,0.229,0.425,0.203,0.664c-0.025,0.24-0.148,0.46-0.339,0.607c-0.073,0.058-7.514,5.674-15.06-0.233
		c-1.211-0.948-2.369-2.156-3.446-3.588C17.566-39.047,17.509-39.31,17.564-39.562z"/>
	<path fill="#66CEF6" d="M46.56-49.102c0.032,0.298,0.084,0.591,0.106,0.891c0.25,3.39-0.183,6.75-1.212,9.919
		C46.906-41.755,47.692-45.596,46.56-49.102z"/>
	<path fill="#66CEF6" d="M65.346-47.259c0,0,0.036,3.59,2.255,2.122c2.218-1.468,1.547-6.978,1.547-6.978s14.903,9.005,26.303-1.22
		c1.568-6.741-0.738-14.096-6.537-18.637c-3.304-2.587-7.429-3.972-11.615-3.903c-0.489,0.009-0.893-0.382-0.899-0.871
		c-0.009-0.488,0.382-0.891,0.87-0.9c0.964-0.016,1.922,0.054,2.872,0.176c0.207-5.114-2.04-10.01-6.08-13.175
		c-6.903-5.406-16.92-4.187-22.324,2.718c-2.619,3.345-3.778,7.51-3.265,11.726c0.058,0.486-0.288,0.927-0.773,0.986
		c-0.244,0.031-0.475-0.04-0.654-0.181c-0.178-0.139-0.303-0.347-0.332-0.591c-0.112-0.922-0.132-1.84-0.102-2.751
		c-1.875-0.318-3.786,0.395-4.975,1.915c-1.04,1.328-1.359,3.074-0.893,4.674c4.384-0.762,9.897-1.775,12.187-2.428
		c3.554-1.013,3.945-3.315,3.949-3.338c0.073-0.483,0.525-0.814,1.011-0.741c0.481,0.074,0.814,0.526,0.74,1.01
		c-0.021,0.141-0.578,3.452-5.217,4.773c-3.657,1.043-14.813,2.899-17.794,3.387c1.269,1.442,2.313,2.938,3.152,4.451
		c0.002,0.002,0.004,0.002,0.006,0.004c4.383,4.212,7.106,9.819,7.774,15.864l17.221-6.087
		C63.773-55.255,65.999-51.731,65.346-47.259z"/>
	<path fill="#66CEF6" d="M68.512-26.259l-2.14-0.444C67.078-26.502,67.793-26.358,68.512-26.259z"/>
	<path fill="#66CEF6" d="M-30.466,12.753c-0.022,0.044-0.06,0.074-0.088,0.114c-0.029,0.041-0.056,0.083-0.091,0.118
		c-0.045,0.044-0.095,0.077-0.147,0.11c-0.044,0.029-0.086,0.058-0.136,0.078c-0.058,0.023-0.118,0.034-0.179,0.045
		c-0.039,0.007-0.073,0.027-0.114,0.029l-17.082,0.822l4.198,10.641l13.026-1.098c-0.119-0.756-0.214-1.529-0.247-2.334
		c-0.232-5.645,7.85-14.435,9.466-16.136c-0.017-0.467-0.047-1.324-0.084-2.417c-0.749,0.465-1.958,1.325-3.345,2.701l-2.443,2.837
		C-28.668,9.521-29.604,10.998-30.466,12.753z"/>
	<path fill="#66CEF6" d="M-15.914-12.931l10.006-9.889c-0.689-2.318-0.065-4.822,1.806-7.244c1.045-1.353,2.19-2.312,2.697-2.706
		c-0.441-0.726-0.859-1.464-1.227-2.226c-0.021-0.032-0.051-0.054-0.069-0.089c-2.523-5.09-11.666-4.04-11.758-4.028
		c-0.242,0.029-0.483-0.041-0.674-0.198l-26.997-22.423c-0.174,1.194-0.83,2.157-1.91,2.75c-1.888,1.038-4.821,0.786-6.905-0.562
		l5.932,6.353c0.027,0.027,0.052,0.059,0.074,0.091c0.053,0.074,5.343,7.396,10.983,6.389c0.304-0.053,0.61,0.052,0.814,0.281
		l18.019,20.079c0.105-1.445-0.37-2.565-0.378-2.583c-0.195-0.448,0.009-0.971,0.456-1.167c0.449-0.196,0.973,0.009,1.167,0.456
		c0.058,0.131,1.155,2.728,0.046,5.509c-0.006,0.015-0.011,0.029-0.018,0.043c-0.228,0.56-0.538,1.127-0.973,1.683
		c-0.227,0.289-0.463,0.588-0.705,0.894c-2.173,2.739-4.874,6.146-4.974,8.923c-0.043,1.208,0,3.9,0.073,6.845
		c1.685-3.549,4.285-6.9,4.439-7.096C-15.966-12.876-15.941-12.904-15.914-12.931z"/>
	<path fill="#66CEF6" d="M19.872-8.433c-0.233-0.276-1.536-1.984-2.924-3.814l-3.921,0.357l-0.004,0.017
		c-0.114,0.476-0.593,0.769-1.068,0.656c-0.129-0.033-0.245-0.089-0.34-0.165c-0.243-0.189-0.366-0.498-0.323-0.814L1.726-27.875
		l-16.354,16.163c-0.434,0.562-4.931,6.486-5.412,10.355c-0.024,0.196-0.123,0.359-0.25,0.492c0.106,3.433,0.21,6.254,0.212,6.318
		c0.011,0.242-0.081,0.479-0.252,0.652c-2.628,2.688-9.411,10.639-9.228,15.1c0.347,8.373,6.45,14.176,6.513,14.233
		c0.356,0.334,0.376,0.895,0.043,1.251c-0.315,0.34-0.835,0.375-1.192,0.096c-0.021-0.017-0.039-0.033-0.059-0.051
		c-0.168-0.157-2.677-2.538-4.664-6.478c-0.183,0.638-0.456,1.346-0.873,2.109c-1.229,2.257-4.38,7.849-5.305,9.489
		c0.676,1.052,2.611,3.906,5.617,7.094c0.069-0.055,0.141-0.105,0.211-0.158c0.315-1.231,0.875-2.406,1.666-3.416
		c3.104-3.967,8.813-4.701,12.727-1.639c0.065,0.051,0.119,0.104,0.183,0.156c0.199-0.214,0.405-0.427,0.628-0.634
		c2.765-2.571,5.994-3.156,9.342-1.696c0.411,0.179,0.623,0.636,0.494,1.066c-0.065,0.22-1.438,4.495-7.483,5.765
		c0.119,0.569,0.167,1.17,0.155,1.805c0.669,0.282,1.301,0.649,1.875,1.098c2.974,2.33,3.905,6.341,2.583,9.829
		c0.307,0.032,0.61,0.071,0.921,0.093c0.022,0.002,0.045,0.005,0.067,0.008l7.249,1.06c0.979-2.875,4.724-13.948,6.167-19.608
		c0.649-2.55,0.026-7.145-1.8-13.287c-0.929-3.123-1.953-5.907-2.546-7.447c-2.39,1.637-6.762,0.828-7.338,0.711
		c-0.137-0.029-0.262-0.088-0.367-0.17c-0.256-0.199-0.391-0.534-0.321-0.874c0.098-0.48,0.563-0.788,1.044-0.691
		c1.396,0.282,5.599,0.704,6.527-1.002c0.126-0.231,0.22-0.446,0.298-0.651l0.046-0.128c0.514-1.489-0.14-2.249-0.174-2.286
		c-0.18-0.181-0.266-0.425-0.246-0.68c0.019-0.256,0.151-0.483,0.354-0.637l9.298-7.01c0.029-0.021,0.063-0.027,0.094-0.045
		c-0.364-2.073-0.599-3.467-0.639-3.706c-0.081-0.482,0.245-0.939,0.729-1.021c0.481-0.081,0.938,0.246,1.02,0.728
		c1.268,7.579,4.949,27.941,6.746,31.108c2.106,3.714,4.078,5.021,4.098,5.034c0.208,0.134,0.354,0.353,0.395,0.598
		c0.041,0.245-0.021,0.498-0.175,0.693c-0.662,0.846-0.432,3.306-0.056,4.782l6.607,23.432l1.439,1.052
		c0.191,0.138,0.321,0.355,0.354,0.594c0.033,0.238-0.031,0.479-0.179,0.666l-0.708,0.904l2.584,9.165l8.312-2.195
		c-1.211-4.652-7.01-26.881-8.585-32.051c-1.683-5.521-2.541-6.921-2.55-6.936c-0.055-0.086-0.099-0.191-0.121-0.292L23.736,5.469
		c-0.017-0.076-0.022-0.156-0.019-0.234l0.049-0.868C24.07-1.074,24.195-3.327,19.872-8.433z M-26.498,24.182
		c-0.421,0.538-1.248,0.594-1.846,0.126c-0.598-0.468-0.741-1.283-0.319-1.822c0.422-0.537,1.247-0.596,1.847-0.127
		C-26.219,22.828-26.077,23.643-26.498,24.182z M-23.115,14.954c-0.422,0.538-1.247,0.595-1.846,0.126
		c-0.599-0.469-0.742-1.282-0.319-1.822c0.422-0.538,1.247-0.595,1.846-0.126C-22.837,13.6-22.694,14.415-23.115,14.954z
		 M-0.375-24.351c0.422-0.539,1.248-0.596,1.848-0.127c0.598,0.469,0.74,1.285,0.318,1.822c-0.422,0.539-1.248,0.595-1.846,0.127
		C-0.654-22.998-0.796-23.812-0.375-24.351z M-6.92-17.776c0.421-0.537,1.247-0.595,1.846-0.127c0.598,0.47,0.74,1.285,0.319,1.823
		c-0.421,0.537-1.248,0.595-1.846,0.127C-7.199-16.422-7.342-17.237-6.92-17.776z M-14.568-9.791
		c0.421-0.538,1.248-0.595,1.846-0.127c0.597,0.469,0.741,1.284,0.319,1.822c-0.422,0.538-1.247,0.595-1.847,0.128
		C-14.847-8.438-14.99-9.252-14.568-9.791z M-17.283,1.707c-0.422,0.537-1.247,0.595-1.846,0.126
		c-0.599-0.468-0.741-1.284-0.319-1.822c0.422-0.538,1.247-0.596,1.847-0.126C-17.005,0.352-16.862,1.167-17.283,1.707z
		 M3.446,7.692C3.302,8.158,2.803,8.417,2.337,8.27c-0.02-0.007-2.081-0.638-7.882-1.486c-1.977-0.287-3.73-1.224-5.215-2.387
		c-3.29-2.574-5.254-6.263-5.37-6.485c-0.227-0.434-0.06-0.97,0.374-1.196c0.435-0.229,0.969-0.061,1.195,0.374
		c0.052,0.096,3.822,7.146,9.271,7.942c5.984,0.874,8.072,1.521,8.157,1.549C3.336,6.727,3.595,7.225,3.446,7.692z"/>
	<path fill="#66CEF6" d="M0.334-30.158c-0.271-0.354-0.518-0.717-0.74-1.089c-0.008-0.011-0.016-0.021-0.024-0.033
		c-1.026,0.827-4.201,3.673-3.955,6.954l5.163-5.103L0.334-30.158z"/>
	<path fill="#66CEF6" d="M-58.308-69.823c0.206,0.264,0.429,0.521,0.675,0.762c0.001,0.002,0.003,0.003,0.004,0.005
		c0.265,0.259,0.553,0.5,0.868,0.715c0.106,0.072,0.188,0.165,0.251,0.268c2.622,1.927,5.381,1.628,5.64,1.595
		c0.283-0.053,1.401-0.238,2.748-0.234l-6.722-5.583C-56.62-71.959-57.684-70.855-58.308-69.823z"/>
	<path fill="#66CEF6" d="M2.092-28.236L2.087-28.23c0.039,0.036,0.079,0.071,0.118,0.107C2.168-28.162,2.129-28.198,2.092-28.236z"
		/>
	<path fill="#66CEF6" d="M0.86-29.509l0.046-0.046c-0.304-0.361-0.597-0.729-0.879-1.105l0.307,0.502
		C0.501-29.938,0.677-29.722,0.86-29.509z"/>
	<path fill="#FFF200" d="M-0.622-50.445c0.108-4.626,2.639-15.079,15.726-15.86c14.266-0.848,19.638,17.18,20.661,21.218
		c2.305-1.346,3.841-4.27,4.118-7.937c0.42-5.543-1.998-13.527-10.03-19.309c-0.083-0.059-0.145-0.136-0.201-0.215
		c-0.075-0.03-0.151-0.057-0.217-0.109c-8.749-6.85-21.22-5.588-27.798,2.814c-4.352,5.558-5.183,13.025-2.329,19.583
		C-0.672-50.323-0.644-50.383-0.622-50.445z"/>
	<path fill="#FFF200" d="M19.623-22.146c-1.513-1.185-2.492-2.81-2.925-3.939c-0.006-0.014-0.011-0.029-0.016-0.044
		c-0.081-0.249-1.125-3.491-2.235-7.056c-1.846,1.583-6.212,3.641-9.172,4.188c-0.483,0.09-0.906,0.125-1.301,0.134
		c0.586,0.564,1.192,1.112,1.841,1.621c4.117,3.224,8.961,4.894,13.825,5.109C19.635-22.138,19.629-22.142,19.623-22.146z"/>
	<path fill="#FFF200" d="M1.856-44.267c-0.914,0.122-1.817,0.239-2.599,0.334c-1.138,0.139-1.976,0.056-2.602-0.13
		c0.398,4.161,1.858,8.178,4.261,11.626C0.655-36.083,1.486-41.925,1.856-44.267z"/>
	<path fill="#FFF200" d="M7.422-45.041c-0.011,0.002-0.029,0.006-0.042,0.007c-0.029,0.004-1.629,0.235-3.573,0.503
		c0.49,1.995,1.51,5.011,2.538,5.816c0.576,0.451,2.429,0.885,3.917,1.233c1.181,0.276,2.262,0.531,3.122,0.837
		c-0.589-1.944-1.108-3.723-1.403-4.874C10.941-45.577,7.78-45.108,7.422-45.041z M10.606-39.889
		c-0.314,0.347-0.838,0.389-1.201,0.105c-0.017-0.013-0.033-0.027-0.05-0.042l-2.603-2.355c-0.362-0.328-0.39-0.888-0.062-1.251
		c0.327-0.362,0.884-0.395,1.251-0.062l2.602,2.354C10.906-40.812,10.935-40.252,10.606-39.889z"/>
	<path fill="#FFFFFF" d="M3.146-40.72c-0.569,4.633-0.76,9.037-0.137,9.919c0.007,0.009,0.016,0.019,0.027,0.028
		c0.041,0.032,0.445,0.308,1.914,0.035c3.167-0.587,7.508-2.909,8.536-3.94c-0.679-0.387-2.304-0.768-3.632-1.078
		c-1.912-0.448-3.721-0.872-4.604-1.565C4.393-37.993,3.684-39.353,3.146-40.72z"/>
	<path fill="#FFF200" d="M22.261-36.647c5.171,4.048,10.17,1.873,12.078,0.753c-0.521-0.549-1.064-1.045-1.625-1.484
		c-5.085-3.981-10.66-2.498-12.879-1.647C20.614-38.098,21.426-37.301,22.261-36.647z"/>
	<path fill="#FFF200" d="M2.952-53.362c-0.198,0.253-0.365,0.527-0.542,0.795c0.688,0.518,1.429,0.955,2.489,1.445
		c0.138-0.896,0.232-2.36-0.102-4.124C4.129-54.695,3.507-54.07,2.952-53.362z"/>
	<path fill="#CCC320" d="M44.008,81.806l-4.236,1.119c0.392,1.603,3.545,4.376,5.79,5.921l7.281,4.399
		c0.099,0.061,0.186,0.139,0.255,0.231c0.046,0.059,0.481,0.587,1.161,0.494c-0.149-0.23-0.42-0.538-0.683-0.771
		c-0.036-0.031-0.07-0.068-0.103-0.105l-4.518-5.554c-0.226-0.275-0.263-0.66-0.095-0.974c0.166-0.314,0.504-0.499,0.859-0.469
		c3.237,0.281,12.045,0.951,13.884,0.674c0.204-0.03,0.345-0.067,0.44-0.101c-2.05-0.358-11.107-1.989-13.262-3.044
		c-1.532-0.75-4.5-1.88-6.144-2.491C44.57,81.449,44.341,81.717,44.008,81.806z"/>
	<path fill="#FFF200" d="M-68.412,27.789c-3.019,2.997-6.411,6.37-6.14,7.875c0.923,0.413,3.617,1.582,6.607,2.54
		c0.266,0.085,0.514,0.159,0.766,0.235l11.44-6.552c1.302-4.222,4.502-5.378,7.142-4.628c0.196,0.056,0.375,0.142,0.559,0.218
		l2.552-1.461c-0.007-0.016-0.019-0.028-0.024-0.044l-2.659-6.74c-0.078,0.043-0.156,0.085-0.248,0.103
		c-0.03,0.005-2.408,0.473-5.491,1.307c-0.092,0.042-0.186,0.07-0.286,0.079c-0.649,0.178-1.324,0.37-2.014,0.578
		c-5.357,1.616-9.095,3.38-10.808,5.098C-67.485,26.866-67.953,27.331-68.412,27.789z"/>
	<path fill="#FFF200" d="M-37.888,94.371c0.119-0.045,0.266-0.103,0.433-0.169l12.375-21.425l-4.24-11.442l-8.349,19.545
		c-0.089,0.597-0.517,3.562-0.708,6.618C-38.698,92.597-38.128,94.009-37.888,94.371z"/>
	<path fill="#CCC320" d="M-42.311,46.309c-0.897,0.238-1.742,0.371-2.516,0.433C-43.963,46.795-43.074,46.7-42.311,46.309z"/>
	<path fill="#CCC320" d="M-39.071,39.39c-0.196,0.035-2.459,0.434-5.527,0.959c-0.002,0.003-0.003,0.007-0.005,0.01
		c-1.456,1.733-2.759,3.663-3.087,4.529c2.046,0.319,6.401,0.358,10.874-3.582c0.134-0.238,0.447-0.793,0.865-1.536L-39.071,39.39z"
		/>
	<path fill="#CCC320" d="M-57.649,40.693c0.884-0.134,1.836-0.282,2.829-0.44c-0.205-0.26-0.391-0.546-0.554-0.858
		c-0.653,0.356-1.4,0.779-2.26,1.29C-57.639,40.688-57.644,40.69-57.649,40.693z"/>
	<path fill="#CCC320" d="M-46.594,38.472c-0.112,0.166-0.228,0.325-0.346,0.479c0.615-0.104,1.21-0.206,1.782-0.303L-46.594,38.472z
		"/>
	<path fill="#CCC320" d="M-46.828,28.15c1.903,1.49,2.526,4.181,1.668,7.198c-0.146,0.514-0.325,0.994-0.523,1.45l10.382,1.266
		c0.095,0.012,0.18,0.049,0.262,0.087c1.283-2.284,2.898-5.168,3.698-6.633c1.259-2.308,0.969-3.911,0.956-3.978
		c-0.042-0.214,0.007-0.422,0.106-0.6c-0.167-0.51-0.316-1.037-0.449-1.58l-13.885,1.171c-0.228,0.017-0.446-0.052-0.618-0.188
		c-0.108-0.084-0.194-0.198-0.253-0.329l-2.552,1.461C-47.603,27.654-47.191,27.867-46.828,28.15z"/>
	<path fill="#CCC320" d="M-58.539,39.16c0.987-0.586,1.83-1.06,2.559-1.453c-0.406-1.667-0.385-3.65,0.17-5.598
		c0.022-0.078,0.049-0.146,0.073-0.222l-11.44,6.552C-61.529,40.145-59.343,39.637-58.539,39.16z"/>
	<path fill="#CCC320" d="M-68.18,40.002c1.655,0.647,3.455,1.121,5.19,1.222C-64.671,40.993-66.472,40.535-68.18,40.002z"/>
	<path fill="#CCC320" d="M-31.923,93.539c2.546-0.842,5.103-2.122,6.196-3.518c0.809-1.033,2.784-3.76,4.995-6.847
		c-0.019-0.044-0.029-0.092-0.041-0.14c-2.105,2.454-3.85,4.49-4.781,5.583C-27.275,90.636-29.694,92.293-31.923,93.539z"/>
	<path fill="#CCC320" d="M-6.641,66.582c-1.048,1.219-2.328,2.708-3.73,4.341c0.109,0.27,0.099,0.584-0.082,0.84
		c-0.264,0.374-3.849,5.454-7.362,10.377c0.706,0.052,1.366,0.077,1.716,0.038c0.878-0.269,4.038-3.852,6.133-6.227l0.169-0.191
		c1.051-1.19,1.984-3.54,2.702-6.796C-6.906,68.102-6.758,67.29-6.641,66.582z"/>
	<path fill="#CCC320" d="M-37.456,94.202c2.071-0.825,7.58-3.245,10.553-6.733c3.41-4,17.622-20.535,20.968-24.427l-0.398-0.058
		c-0.545-0.038-1.083-0.095-1.616-0.162c-0.157,0.245-0.325,0.484-0.507,0.717c-3.02,3.857-8.484,4.643-12.179,1.75
		c-1.169-0.916-2.032-2.116-2.565-3.459c-2.102,0.879-4.215,0.688-6.104-0.533l-0.017,0.038l4.24,11.442L-37.456,94.202z"/>
	<path fill="#CCC320" d="M15.104-66.305C2.017-65.524-0.514-55.071-0.622-50.445c0.503-1.442,1.234-2.8,2.179-4.008
		c2.347-2.997,5.69-4.765,9.221-5.229c0.111-0.072,0.234-0.127,0.376-0.144c0.045-0.005,0.378-0.033,0.9,0.036
		c3.304-0.138,6.687,0.849,9.506,3.057c0.211,0.164,0.418,0.336,0.618,0.51c0.368,0.323,0.404,0.881,0.084,1.25
		c-0.321,0.368-0.883,0.408-1.25,0.084c-0.177-0.154-0.358-0.305-0.543-0.45c-1.2-0.94-2.52-1.615-3.888-2.063
		c0.689,0.662,1.394,1.496,2.083,2.564l0.023,0.034c3.136,4.856,8.97,13.896,16.793,9.895c0.099-0.05,0.188-0.121,0.284-0.177
		C34.742-49.125,29.37-67.153,15.104-66.305z"/>
	<path fill="#4F9FBE" d="M82.861-32.04c1.645-2.099,2.703-4.553,3.108-7.158c-3.309,1.514-7.021,2.122-10.803,1.666
		c-0.168-0.022-0.316-0.087-0.439-0.182c-0.235-0.185-0.372-0.485-0.334-0.805c0.059-0.485,0.5-0.831,0.984-0.772
		c6.444,0.778,12.678-1.805,16.675-6.91c1.7-2.17,2.812-4.611,3.399-7.134c-11.4,10.225-26.303,1.22-26.303,1.22
		s0.671,5.51-1.547,6.978c-2.219,1.468-2.255-2.122-2.255-2.122c0.652-4.472-1.573-7.996-1.573-7.996l-17.221,6.087
		c0.002,0.022,0.005,0.043,0.008,0.065c1.132,3.506,0.346,7.347-1.106,10.811c-0.931,2.867-2.348,5.58-4.245,8.002
		c-0.018,0.022-0.036,0.043-0.054,0.065c6.202-3.795,14.254-8.692,17.595-10.593c6.316-3.593,8.38-1.062,8.596-0.762l-1.441,1.03
		c0,0,0.007,0.012,0.023,0.031c-0.015-0.016-1.421-1.535-6.303,1.241c-0.947,0.539-2.282,1.324-3.843,2.255
		c0.042,0.064,0.089,0.125,0.113,0.203c0.951,2.944,2.747,5.514,5.194,7.429c1.62,1.268,3.417,2.153,5.282,2.687l2.14,0.444
		C73.804-25.531,79.336-27.539,82.861-32.04z"/>
	<path fill="#4F9FBE" d="M50.577-29.576c2.273,1.78,5.458,1.746,7.708,0.037c-1.817-1.858-3.188-4.094-4.016-6.577
		c-1.787,1.073-3.779,2.278-5.798,3.505C48.857-31.41,49.574-30.361,50.577-29.576z"/>
	<path fill="#4F9FBE" d="M0.027-30.66c-0.146-0.195-0.292-0.389-0.433-0.587c0.222,0.372,0.469,0.735,0.74,1.089L0.027-30.66z"/>
	<path fill="#4F9FBE" d="M0.779-29.428l0.082-0.081c-0.184-0.213-0.359-0.429-0.526-0.649L0.779-29.428z"/>
	<path fill="#4F9FBE" d="M11.3-12.286l2.178-9.079c-3.092-0.896-6.068-2.379-8.755-4.482c-0.9-0.705-1.731-1.473-2.518-2.276
		c-0.039-0.036-0.08-0.071-0.118-0.107l-0.36,0.356l9.565,15.678C11.296-12.227,11.292-12.256,11.3-12.286z"/>
	<path fill="#4F9FBE" d="M14.036-16.095l-1.009,4.205l3.921-0.357C15.874-13.663,14.758-15.141,14.036-16.095z"/>
	<path fill="#231F20" d="M21.168-35.252c7.546,5.907,14.986,0.291,15.06,0.233c0.19-0.147,0.313-0.367,0.339-0.607
		c0.025-0.239-0.048-0.479-0.203-0.664c-0.797-0.943-1.657-1.779-2.556-2.482c-7.397-5.792-15.458-1.564-15.798-1.38
		c-0.227,0.123-0.391,0.337-0.445,0.59c-0.056,0.252,0.002,0.515,0.157,0.722C18.799-37.408,19.957-36.2,21.168-35.252z
		 M32.715-37.378c0.561,0.439,1.104,0.935,1.625,1.484c-1.908,1.12-6.907,3.295-12.078-0.753c-0.836-0.654-1.647-1.451-2.426-2.378
		C22.054-39.876,27.63-41.359,32.715-37.378z"/>
	<path fill="#231F20" d="M90.008-73.367c-2.389-1.871-5.172-3.154-8.104-3.798c0.309-5.768-2.196-11.31-6.748-14.874
		c-7.674-6.008-18.804-4.653-24.813,3.02c-1.963,2.508-3.169,5.435-3.583,8.511c-2.463-0.364-4.954,0.597-6.517,2.593
		c-1.35,1.726-1.8,3.979-1.258,6.069c-2.501,0.427-4.32,0.721-4.371,0.729c-0.145,0.023-0.268,0.088-0.378,0.169
		c-1.001-0.98-2.104-1.929-3.347-2.823c-0.061-0.044-0.13-0.062-0.196-0.089c-0.048-0.068-0.095-0.138-0.164-0.192
		c-9.519-7.453-23.104-6.055-30.285,3.117c-3.67,4.688-5.046,10.612-4.058,16.359C-3.9-54.484-3.969-54.376-4.01-54.25
		c-1.606,5.011-1.591,10.278-0.185,15.14c-3.63-2.162-8.649-1.924-10.091-1.8l-28.35-23.547c-0.222-0.37-0.492-0.71-0.843-0.991
		c-0.012-0.009-0.022-0.018-0.033-0.027c-0.334-0.262-0.713-0.467-1.113-0.634l-9.137-7.589c-0.194-1.225-0.886-5.48-1.455-7.595
		c-0.507-1.88-0.45-10.319-0.386-13.413c0.003-0.167-0.042-0.334-0.13-0.479c-0.126-0.205-0.805-1.225-1.848-1.118
		c-0.722,0.074-1.278,0.644-1.652,1.693c-0.625,1.754-1.456,8.547-1.858,12.093l-3.207-3.844c-0.354-0.591-1.206-1.794-2.268-1.78
		c-0.316,0.004-0.908,0.123-1.316,0.874c-0.753,1.379-0.215,2.677,0.297,3.33l0.799,2.182c-1.151,0.445-1.94,1.253-2.256,2.389
		c-0.625,2.251,0.735,5.111,2.264,6.817c1.162,1.299,3.109,3.475,3.035,4.306c-0.004,0.047-0.012,0.134-0.178,0.266
		c-0.214,0.077-1.013-0.268-1.49-0.474c-1.467-0.632-3.685-1.59-5.32,0.5c-0.674,0.86-0.688,1.959-0.039,2.867
		c0.902,1.262,3.076,2.1,5.484,1.26c0.906-0.315,1.597-0.295,1.754,0.052c0.305,0.667-0.446,2.564-2.929,4.112
		c-0.737-0.217-1.665-0.356-2.714-0.172c-1.82,0.319-3.441,1.487-4.821,3.469c-3.637,5.229-14.846,24.116-15.601,25.388
		c-0.515,0.705-1.104,2.236-0.189,3.738c0.058,0.092,0.129,0.173,0.21,0.236c0.071,0.056,0.15,0.099,0.234,0.13
		c0.055,0.092,0.121,0.178,0.208,0.245c0.084,0.066,0.18,0.117,0.286,0.149c1.683,0.514,3.018-0.439,3.573-1.115
		c1.044-1.049,16.536-16.615,20.69-21.442c1.576-1.83,2.302-3.692,2.157-5.534c-0.088-1.115-0.488-2.015-0.904-2.685
		c0.909-2.753,2.559-3.927,3.275-3.791c0.376,0.071,0.56,0.733,0.471,1.688c-0.235,2.54,1.101,4.451,2.539,5.022
		c1.038,0.413,2.101,0.136,2.773-0.724c1.621-2.067,0.18-4.166-0.774-5.554c-0.327-0.477-0.875-1.274-0.837-1.512
		c0.016-0.034,0.029-0.057,0.04-0.075l9.498,10.173c0.244,0.333,1.622,2.172,3.696,3.909c2.882,2.416,5.813,3.52,8.51,3.219
		l18.452,20.562c-0.144,0.279-0.314,0.558-0.528,0.832c-0.223,0.285-0.458,0.581-0.698,0.885c-2.334,2.941-5.235,6.602-5.354,9.961
		c-0.078,2.169,0.108,8.759,0.258,13.381c-0.874,0.433-5.925,3.203-9.801,10.779l-17.811,0.856
		c-0.016,0.001-0.029,0.012-0.044,0.013c-0.101,0.01-0.196,0.041-0.289,0.084c-0.024,0.012-0.052,0.015-0.075,0.028
		c-0.104,0.062-0.197,0.142-0.271,0.246l-4.478,6.308c-4.671,1.289-10.782,3.39-13.491,6.107c-0.466,0.47-0.934,0.932-1.392,1.387
		c-4.316,4.286-7.726,7.672-6.384,10.198c0.008,0.016,0.022,0.033,0.031,0.048c0.005,0.009,0.011,0.017,0.017,0.026
		c0.313,0.548,0.923,1.185,1.76,1.839c2.973,2.328,8.702,4.858,13.316,4.298c1.901-0.231,5.031-0.715,8.336-1.253
		c0.942,0.199,2.002,0.025,3.036-0.501c0.79-0.132,1.571-0.263,2.331-0.392c-1.417,1.872-2.607,3.862-2.24,4.914
		c0.082,0.235,0.224,0.432,0.411,0.579c0.16,0.124,0.353,0.212,0.57,0.257c0.792,0.161,2.071,0.325,3.651,0.197
		c0.773-0.062,1.619-0.195,2.516-0.433c1.841-0.488,3.896-1.426,5.982-3.102c0.874,1.327,2.766,4.002,5.595,6.992
		c-0.031,0.038-0.065,0.071-0.096,0.109c-2.382,3.042-2.263,7.207,0.105,9.805l-8.617,20.174c-0.031,0.067-0.05,0.14-0.062,0.213
		c-0.005,0.034-0.558,3.623-0.765,7.232c-0.269,4.702,0.113,7.243,1.265,8.145c0.168,0.132,0.358,0.218,0.56,0.281
		c0.001,0,0.003,0,0.004,0.001c0.06,0.019,0.116,0.045,0.178,0.057c0.004,0.001,0.01,0.001,0.014,0.002
		c0.013,0.002,0.025,0.003,0.038,0.005c3.007,0.567,11.189-1.81,13.774-5.11c0.868-1.109,2.99-4.042,5.322-7.3
		c0.981,0.099,2.403,0.21,3.144,0.119c1.238-0.151,3.154-2.191,7.229-6.811l0.17-0.191c2.972-3.368,3.88-12.151,3.918-12.524
		c0.008-0.081-0.01-0.155-0.023-0.231c0.423-0.492,0.677-0.788,0.697-0.811c0.005-0.006,0.006-0.014,0.012-0.021l5.478,0.8
		c0.421,0.061,0.825-0.185,0.965-0.588c0.048-0.138,4.769-13.866,6.445-20.44c1.617-6.338-3.778-20.263-4.773-22.745
		c0.841-1.781,0.599-3.114,0.244-3.907l8.026-6.049c1.482,8.297,4.288,23.079,5.972,26.048c1.612,2.841,3.172,4.416,4.025,5.145
		c-0.793,2.021-0.038,5.137,0.066,5.548l6,21.277l-2.108-1.54c-0.16-0.323-0.489-0.849-1.094-1.322
		c-0.791-0.619-2.236-1.275-4.629-0.878c-0.217,0.036-0.451,0.074-0.698,0.114c-4.358,0.701-13.429,2.159-18.038,9.253
		c-2.236,3.44-3.987,6.568-5.062,9.04c-1.552,3.567-1.212,4.652-0.742,5.199l0.04,0.048c0.234,0.272,0.477,0.552,0.763,0.778
		c1.708,1.337,3.285-0.678,3.88-1.438c0.847-1.081,3.927-4.153,7.43-7.231c4.03-3.544,7.241-5.889,8.808-6.435
		c3.917-1.364,7.342-2.859,7.375-2.875c0.025-0.012,0.053-0.023,0.076-0.037c0.076,0.011,0.248,0.074,0.506,0.275
		c0.377,0.296,0.796,0.772,1.245,1.418c0.016,0.021,0.03,0.042,0.047,0.062l2.294,2.748c0.171,0.207,0.426,0.322,0.693,0.318
		c0.267-0.004,0.52-0.129,0.684-0.34l0.404-0.516l2.469,8.755c0.055,0.187,0.164,0.345,0.307,0.457
		c0.212,0.165,0.495,0.232,0.771,0.162l4.059-1.072c0.556,2.061,3.246,4.446,5.011,5.829c0.746,0.584,1.326,0.988,1.507,1.113
		c0.015,0.01,0.029,0.018,0.042,0.029l7.173,4.331c0.546,0.629,1.716,1.404,3.212,0.93c0.815-0.258,1.047-0.815,1.111-1.125
		c0.217-1.041-0.801-2.107-1.313-2.566l-3.159-3.885c3.559,0.283,10.385,0.767,12.226,0.489c1.103-0.167,1.767-0.603,1.979-1.298
		c0.306-1.004-0.567-1.865-0.745-2.027c-0.123-0.112-0.279-0.19-0.446-0.219c-3.048-0.528-11.344-2.087-13.092-2.943
		c-2.086-1.022-6.501-2.637-7.349-2.944c-1.546-5.939-6.891-26.383-8.403-31.341c-1.502-4.931-2.376-6.714-2.662-7.226L25.492,5.212
		l0.042-0.746c0.312-5.593,0.467-8.398-4.311-14.043c-0.405-0.481-4.859-6.371-6.541-8.6c-0.034-0.045-0.081-0.071-0.121-0.107
		l0.633-2.639c6.186,1.342,12.708,0.382,18.257-2.718c0.19,0.022,0.388-0.011,0.563-0.119c0.111-0.069,6.415-3.955,12.919-7.916
		c0.521,1.373,1.377,2.578,2.549,3.495l0.003,0.001c2.996,2.346,7.245,2.254,10.136-0.133c0.127,0.105,0.247,0.216,0.377,0.318
		c7.502,5.874,18.384,4.55,24.257-2.952c2.097-2.678,3.341-5.871,3.613-9.244c2.106-1.255,4.003-2.903,5.579-4.916
		C100.29-53.846,98.747-66.524,90.008-73.367z M68.512-26.259c-0.72-0.099-1.435-0.243-2.14-0.444
		c-1.866-0.533-3.663-1.418-5.282-2.687c-2.447-1.915-4.243-4.485-5.194-7.429c-0.024-0.077-0.071-0.138-0.113-0.203
		c1.561-0.931,2.896-1.716,3.843-2.255c4.882-2.776,6.288-1.257,6.303-1.241c-0.017-0.019-0.023-0.031-0.023-0.031l1.441-1.03
		c-0.216-0.3-2.279-2.831-8.596,0.762c-3.341,1.901-11.393,6.798-17.595,10.593c0.018-0.022,0.036-0.043,0.054-0.065
		c1.897-2.422,3.313-5.135,4.245-8.002c1.03-3.17,1.462-6.529,1.212-9.919c-0.022-0.3-0.074-0.593-0.106-0.891
		c-0.002-0.022-0.005-0.043-0.008-0.065c-0.668-6.045-3.392-11.651-7.774-15.864c-0.002-0.002-0.004-0.002-0.006-0.004
		c-0.839-1.512-1.884-3.008-3.152-4.451c2.981-0.488,14.137-2.343,17.794-3.387c4.639-1.321,5.196-4.632,5.217-4.773
		c0.074-0.484-0.259-0.936-0.74-1.01c-0.485-0.073-0.938,0.258-1.011,0.741c-0.004,0.023-0.396,2.325-3.949,3.338
		c-2.289,0.653-7.802,1.667-12.187,2.428c-0.467-1.601-0.147-3.346,0.893-4.674c1.189-1.52,3.1-2.233,4.975-1.915
		c-0.03,0.911-0.01,1.829,0.102,2.751c0.029,0.244,0.154,0.452,0.332,0.591c0.18,0.141,0.41,0.212,0.654,0.181
		c0.485-0.059,0.831-0.5,0.773-0.986c-0.514-4.216,0.646-8.381,3.265-11.726c5.404-6.905,15.421-8.124,22.324-2.718
		c4.041,3.165,6.287,8.061,6.08,13.175c-0.95-0.122-1.908-0.192-2.872-0.176c-0.488,0.009-0.879,0.412-0.87,0.9
		c0.007,0.489,0.41,0.88,0.899,0.871c4.187-0.069,8.312,1.316,11.615,3.903c5.799,4.541,8.104,11.896,6.537,18.637
		c-0.587,2.523-1.699,4.964-3.399,7.134c-3.997,5.105-10.23,7.688-16.675,6.91c-0.484-0.059-0.926,0.287-0.984,0.772
		c-0.038,0.32,0.099,0.62,0.334,0.805c0.123,0.095,0.271,0.16,0.439,0.182c3.782,0.457,7.494-0.152,10.803-1.666
		c-0.405,2.605-1.464,5.059-3.108,7.158C79.336-27.539,73.804-25.531,68.512-26.259z M23.736,5.469l7.713,35.567
		c0.022,0.101,0.066,0.206,0.121,0.292c0.009,0.015,0.867,1.415,2.55,6.936c1.575,5.17,7.374,27.399,8.585,32.051l-8.312,2.195
		l-2.584-9.165l0.708-0.904c0.147-0.187,0.212-0.428,0.179-0.666c-0.033-0.239-0.163-0.456-0.354-0.594l-1.439-1.052l-6.607-23.432
		c-0.376-1.476-0.606-3.937,0.056-4.782c0.153-0.195,0.216-0.448,0.175-0.693c-0.041-0.245-0.187-0.464-0.395-0.598
		c-0.02-0.013-1.991-1.32-4.098-5.034c-1.797-3.167-5.479-23.529-6.746-31.108C13.205,4,12.749,3.673,12.267,3.754
		c-0.484,0.082-0.811,0.539-0.729,1.021c0.04,0.239,0.274,1.633,0.639,3.706c-0.031,0.018-0.065,0.023-0.094,0.045l-9.298,7.01
		c-0.203,0.154-0.336,0.381-0.354,0.637c-0.02,0.255,0.066,0.499,0.246,0.68c0.034,0.037,0.688,0.797,0.174,2.286
		c-0.015,0.042-0.029,0.084-0.046,0.128c-0.078,0.205-0.172,0.419-0.298,0.651c-0.929,1.706-5.131,1.284-6.527,1.002
		c-0.48-0.097-0.946,0.211-1.044,0.691c-0.069,0.34,0.065,0.675,0.321,0.874c0.105,0.082,0.23,0.141,0.367,0.17
		c0.576,0.117,4.948,0.926,7.338-0.711c0.593,1.54,1.617,4.324,2.546,7.447c1.826,6.142,2.449,10.737,1.8,13.287
		C5.864,48.338,2.12,59.411,1.14,62.286l-7.249-1.06c-0.022-0.003-0.045-0.006-0.067-0.008c-0.311-0.021-0.615-0.061-0.921-0.093
		c1.323-3.488,0.392-7.5-2.583-9.829c-0.573-0.449-1.206-0.816-1.875-1.098c0.012-0.635-0.037-1.236-0.155-1.805
		c-0.545,0.114-1.138,0.197-1.761,0.257c0.076,0.33,0.127,0.672,0.145,1.035c-0.08-0.014-0.157-0.039-0.237-0.051
		c-0.483-0.07-0.934,0.265-1.004,0.749c-0.07,0.485,0.265,0.934,0.749,1.006c1.112,0.161,2.166,0.613,3.047,1.301
		c2.927,2.292,3.339,6.668,0.921,9.758c-2.418,3.089-6.767,3.737-9.692,1.446c-1.068-0.836-1.809-1.977-2.194-3.25
		c0.022-0.187,0.001-0.38-0.102-0.554c-0.017-0.028-0.044-0.045-0.064-0.071c-0.174-0.871-0.187-1.789-0.011-2.711
		c0.094-0.481-0.224-0.945-0.703-1.038c-0.48-0.091-0.944,0.224-1.036,0.704c-0.202,1.059-0.193,2.112-0.023,3.124
		c-1.798,0.826-3.56,0.629-5.127-0.598c-2.383-1.867-2.665-5.5-0.629-8.101c0.314-0.401,0.671-0.754,1.055-1.063
		c0.259-0.044,0.479-0.203,0.609-0.431c0.892-0.558,1.901-0.885,2.947-0.921c0.488-0.018,0.871-0.428,0.854-0.917
		c-0.018-0.488-0.428-0.87-0.916-0.854c-0.695,0.025-1.375,0.156-2.031,0.364c0.205-0.384,0.434-0.758,0.708-1.109
		c2.503-3.198,7.098-3.797,10.239-1.337c0.056,0.043,0.1,0.087,0.153,0.13c0.318-0.44,0.691-0.906,1.123-1.369
		c-0.063-0.052-0.117-0.105-0.183-0.156c-3.913-3.062-9.622-2.328-12.727,1.639c-0.791,1.009-1.351,2.184-1.666,3.416
		c-0.07,0.053-0.142,0.103-0.211,0.158c-3.006-3.188-4.94-6.042-5.617-7.094c0.925-1.64,4.076-7.232,5.305-9.489
		c0.417-0.763,0.689-1.471,0.873-2.109c1.987,3.939,4.496,6.321,4.664,6.478c0.02,0.018,0.038,0.034,0.059,0.051
		c0.357,0.279,0.877,0.244,1.192-0.096c0.333-0.356,0.313-0.917-0.043-1.251c-0.062-0.057-6.166-5.86-6.513-14.233
		c-0.184-4.461,6.6-12.412,9.228-15.1c0.171-0.173,0.263-0.41,0.252-0.652c-0.002-0.064-0.106-2.885-0.212-6.318
		c0.127-0.133,0.226-0.296,0.25-0.492c0.481-3.869,4.979-9.793,5.412-10.355L1.726-27.875l0.36-0.356l0.005-0.005
		c0.037,0.038,0.076,0.074,0.113,0.112c0.786,0.804,1.617,1.571,2.518,2.276c2.687,2.104,5.663,3.586,8.755,4.482L11.3-12.286
		c-0.007,0.03-0.004,0.06-0.008,0.09c-0.042,0.316,0.081,0.625,0.323,0.814c0.095,0.076,0.211,0.132,0.34,0.165
		c0.476,0.113,0.954-0.18,1.068-0.656l0.004-0.017l1.009-4.205c0.721,0.954,1.838,2.432,2.912,3.848
		c1.388,1.83,2.69,3.538,2.924,3.814c4.323,5.106,4.198,7.359,3.895,12.8l-0.049,0.868C23.714,5.313,23.719,5.393,23.736,5.469z
		 M50.783,83.626c2.154,1.055,11.212,2.686,13.262,3.044c-0.096,0.034-0.236,0.071-0.44,0.101
		c-1.839,0.277-10.646-0.393-13.884-0.674c-0.355-0.03-0.693,0.155-0.859,0.469c-0.168,0.314-0.131,0.699,0.095,0.974l4.518,5.554
		c0.032,0.037,0.066,0.074,0.103,0.105c0.263,0.233,0.533,0.541,0.683,0.771c-0.68,0.093-1.115-0.435-1.161-0.494
		c-0.069-0.092-0.156-0.17-0.255-0.231l-7.281-4.399c-2.244-1.545-5.398-4.319-5.79-5.921l4.236-1.119
		c0.333-0.089,0.562-0.357,0.632-0.671C46.283,81.746,49.251,82.875,50.783,83.626z M27.764,71.759
		c-0.543-0.775-1.075-1.37-1.585-1.768c-1.216-0.952-2.088-0.647-2.441-0.442c-0.456,0.198-3.614,1.555-7.189,2.801
		c-2.308,0.802-6.384,4.129-9.395,6.776c-3.249,2.856-6.611,6.138-7.655,7.47c-0.927,1.183-1.287,1.201-1.287,1.201
		c-0.001,0.001-0.032-0.007-0.106-0.066c-0.147-0.115-0.322-0.319-0.508-0.536c-0.184-0.755,1.001-4.622,5.903-12.169
		c4.182-6.436,12.728-7.809,16.833-8.469c0.252-0.04,0.489-0.078,0.709-0.115c1.392-0.232,2.514-0.05,3.245,0.524
		c0.477,0.371,0.63,0.777,0.63,0.781c0.059,0.175,0.171,0.33,0.32,0.438l5.32,3.886l-1.229,1.567L27.764,71.759z M-29.321,61.334
		l0.017-0.038c1.889,1.221,4.002,1.412,6.104,0.533c0.533,1.343,1.396,2.544,2.565,3.459c3.694,2.893,9.159,2.107,12.179-1.75
		c0.183-0.233,0.351-0.473,0.507-0.717c0.533,0.067,1.07,0.124,1.616,0.162l0.398,0.058c-3.346,3.892-17.558,20.426-20.968,24.427
		c-2.974,3.488-8.482,5.908-10.553,6.733c-0.167,0.066-0.313,0.124-0.433,0.169c-0.24-0.362-0.81-1.774-0.489-6.873
		c0.191-3.056,0.619-6.021,0.708-6.618L-29.321,61.334z M-9.966,75.95c-2.095,2.375-5.255,5.958-6.133,6.227
		c-0.351,0.039-1.011,0.014-1.716-0.038c3.513-4.923,7.098-10.003,7.362-10.377c0.181-0.256,0.191-0.57,0.082-0.84
		c1.402-1.633,2.683-3.122,3.73-4.341c-0.117,0.708-0.265,1.521-0.454,2.381c-0.718,3.256-1.651,5.606-2.702,6.796L-9.966,75.95z
		 M-20.773,83.035c0.012,0.047,0.021,0.095,0.041,0.14c-2.21,3.086-4.186,5.813-4.995,6.847c-1.093,1.396-3.65,2.675-6.196,3.518
		c2.229-1.246,4.648-2.903,6.369-4.921C-24.622,87.524-22.878,85.489-20.773,83.035z M-47.69,44.888
		c0.328-0.866,1.631-2.796,3.087-4.529c0.002-0.003,0.003-0.007,0.005-0.01c3.068-0.525,5.331-0.924,5.527-0.959l3.12,0.38
		c-0.418,0.743-0.731,1.298-0.865,1.536C-41.288,45.246-45.644,45.208-47.69,44.888z M-52.337,39.935
		c-0.238-0.068-0.463-0.184-0.669-0.345c-1.417-1.109-1.901-4.183-1.101-6.996c0.809-2.844,2.781-4.269,5.025-3.631
		c0.435,0.123,0.825,0.319,1.161,0.581c1.316,1.031,1.71,3.02,1.057,5.319C-47.776,38.072-50.386,40.49-52.337,39.935z
		 M-54.821,40.253c-0.992,0.158-1.945,0.306-2.829,0.44c0.005-0.003,0.01-0.005,0.015-0.008c0.86-0.511,1.607-0.934,2.26-1.29
		C-55.211,39.707-55.026,39.993-54.821,40.253z M-46.594,38.472l1.436,0.175c-0.571,0.098-1.167,0.199-1.782,0.303
		C-46.821,38.797-46.705,38.638-46.594,38.472z M-54.193,20.72c0.1-0.009,0.194-0.037,0.286-0.079
		c3.083-0.834,5.461-1.302,5.491-1.307c0.092-0.018,0.17-0.06,0.248-0.103l2.659,6.74c0.006,0.016,0.017,0.028,0.024,0.044
		c0.059,0.13,0.145,0.244,0.253,0.329c0.172,0.135,0.391,0.204,0.618,0.188l13.885-1.171c0.133,0.542,0.282,1.069,0.449,1.58
		c-0.1,0.178-0.148,0.386-0.106,0.6c0.013,0.067,0.303,1.67-0.956,3.978c-0.799,1.465-2.415,4.349-3.698,6.633
		c-0.083-0.038-0.167-0.075-0.262-0.087l-10.382-1.266c0.198-0.457,0.377-0.937,0.523-1.45c0.858-3.017,0.235-5.708-1.668-7.198
		c-0.362-0.283-0.775-0.496-1.208-0.673c-0.185-0.076-0.363-0.162-0.559-0.218c-2.64-0.75-5.84,0.406-7.142,4.628
		c-0.023,0.076-0.051,0.145-0.073,0.222c-0.555,1.948-0.576,3.931-0.17,5.598c-0.729,0.394-1.571,0.867-2.559,1.453
		c-0.803,0.477-2.99,0.985-8.639-0.722c-0.252-0.076-0.5-0.15-0.766-0.235c-2.991-0.958-5.684-2.127-6.607-2.54
		c-0.271-1.504,3.121-4.877,6.14-7.875c0.459-0.458,0.928-0.923,1.397-1.393c1.713-1.718,5.45-3.482,10.808-5.098
		C-55.517,21.089-54.842,20.897-54.193,20.72z M-62.99,41.224c-1.735-0.101-3.535-0.574-5.19-1.222
		C-66.472,40.535-64.671,40.993-62.99,41.224z M-20.5-12.596c0.1-2.777,2.801-6.184,4.974-8.923
		c0.242-0.306,0.479-0.605,0.705-0.894c0.435-0.556,0.745-1.123,0.973-1.683c0.007-0.014,0.012-0.028,0.018-0.043
		c1.108-2.781,0.011-5.378-0.046-5.509c-0.194-0.447-0.718-0.652-1.167-0.456c-0.447,0.196-0.651,0.719-0.456,1.167
		c0.008,0.017,0.483,1.137,0.378,2.583l-18.019-20.079c-0.204-0.229-0.511-0.334-0.814-0.281
		c-5.641,1.007-10.931-6.315-10.983-6.389c-0.022-0.032-0.047-0.064-0.074-0.091l-5.932-6.353c2.084,1.348,5.018,1.6,6.905,0.562
		c1.081-0.594,1.736-1.556,1.91-2.75l26.997,22.423c0.19,0.157,0.432,0.227,0.674,0.198c0.092-0.012,9.234-1.062,11.758,4.028
		c0.018,0.035,0.047,0.057,0.069,0.089c0.368,0.762,0.785,1.5,1.227,2.226c-0.506,0.395-1.651,1.353-2.697,2.706
		c-1.871,2.422-2.496,4.926-1.806,7.244l-10.006,9.889c-0.026,0.027-0.052,0.055-0.073,0.084c-0.154,0.195-2.755,3.547-4.439,7.096
		C-20.5-8.696-20.544-11.388-20.5-12.596z M-57.5-62.847c-0.483,1.085,0.269,2.178,0.994,3.236c1.032,1.503,1.606,2.485,0.842,3.46
		c-0.127,0.162-0.326,0.329-0.725,0.171c-0.693-0.277-1.594-1.454-1.43-3.213c0.275-2.95-1.388-3.497-1.906-3.596
		c-0.738-0.139-1.472,0.062-2.158,0.496c0.256-0.771,0.275-1.533-0.038-2.216c-0.218-0.478-1.148-1.962-3.947-0.988
		c-1.667,0.582-3.026-0.01-3.461-0.617c-0.251-0.349-0.136-0.582-0.009-0.744c0.716-0.914,1.574-0.679,3.226,0.034
		c1.135,0.49,2.31,0.998,3.271,0.248c0.646-0.502,0.826-1.099,0.863-1.51c0.134-1.487-1.291-3.201-3.481-5.646
		c-1.438-1.607-2.246-3.825-1.875-5.16c0.181-0.646,0.628-1.071,1.371-1.3c0.625-0.192,1.133-0.135,1.599,0.184
		c1.621,1.11,2.247,4.893,2.35,6.257c0.003,0.039,0.009,0.076,0.016,0.113c0.033,0.158,0.724,3.396,3.012,5.723
		c0.006,0.006,0.007,0.014,0.013,0.02c0.024,0.025,0.048,0.045,0.072,0.07c0.017,0.017,0.034,0.033,0.051,0.05
		c3.598,3.683,8.063,3.078,8.254,3.05c0.011-0.002,0.021-0.004,0.033-0.006c1.155-0.217,4.47-0.517,5.962,0.652
		c0.007,0.006,0.014,0.011,0.021,0.016c0.479,0.383,0.714,0.88,0.738,1.563c0.031,0.916-0.31,1.558-1.047,1.963
		c-1.341,0.737-3.673,0.485-5.199-0.561c-3.121-2.139-4.812-3.237-6.196-2.847C-56.664-63.839-57.182-63.563-57.5-62.847z
		 M-86.564-28.809c-0.024,0.025-0.048,0.051-0.069,0.079c-0.008,0.009-0.667,0.825-1.642,0.569
		c-0.524-0.863,0.056-1.696,0.117-1.782c0.022-0.027,0.043-0.057,0.06-0.087c0.118-0.2,11.909-20.077,15.556-25.321
		c1.332-1.914,2.852-2.855,4.517-2.794c1.262,0.047,2.177,0.665,2.191,0.675c0.04,0.028,0.086,0.036,0.129,0.056
		c0.046,0.072,0.092,0.146,0.161,0.204c0.005,0.004,0.239,0.219,0.51,0.589c0.001,0.001,0.001,0.002,0.002,0.004
		c0.351,0.48,0.764,1.228,0.839,2.188c0.106,1.354-0.477,2.779-1.733,4.24C-70.094-45.349-86.4-28.974-86.564-28.809z
		 M-64.657-58.75c0,0-0.001-0.001-0.001-0.002c0.001-0.001,0.002-0.002,0.004-0.003C-64.656-58.753-64.656-58.752-64.657-58.75z
		 M-50.869-66.478c-0.259,0.033-3.019,0.332-5.64-1.595c-0.063-0.103-0.146-0.196-0.251-0.268c-0.314-0.214-0.603-0.456-0.868-0.715
		c-0.001-0.002-0.003-0.003-0.004-0.005c-0.246-0.241-0.469-0.498-0.675-0.762c0.624-1.033,1.688-2.137,3.465-2.472l6.722,5.583
		C-49.469-66.716-50.586-66.531-50.869-66.478z M-2.956-51.235c0.464,1.359,1.056,2.694,1.8,3.98c0.058,0.1,0.133,0.185,0.22,0.254
		c0.198,0.154,0.458,0.221,0.716,0.171c0.37-0.071,0.655-0.37,0.707-0.744c0.171-1.199,0.538-2.354,1.048-3.443
		c1.082,0.781,2.198,1.341,3.651,1.958c0.227,0.097,0.484,0.095,0.71-0.007c0.226-0.101,0.398-0.293,0.477-0.527
		c0.041-0.123,0.94-2.913,0.002-6.747c1.721-1.009,3.653-1.573,5.627-1.675c1.031,0.177,3.114,0.941,5.176,4.137l0.021,0.034
		c1.634,2.53,4.168,6.455,7.49,9.057c3.179,2.489,7.078,3.765,11.598,1.453c3.065-1.568,5.021-5.052,5.36-9.557
		c0.152-2.008-0.044-4.31-0.68-6.713c2.247,3.417,3.625,7.365,3.931,11.523c0.442,6.014-1.363,11.946-5.085,16.699
		c-3.896,4.975-9.363,8.009-15.156,8.956c-0.037,0-0.071-0.014-0.109-0.009c-4.19,0.51-6.042-3.892-6.189-4.263
		c-0.197-0.613-3.704-11.514-4.664-15.261c-1.404-5.479-6.047-4.911-6.57-4.828c-0.05,0.006-5.015,0.722-8.083,1.095
		C-2.694-45.479-3.3-45.906-3.396-46.1c-0.014-0.05-0.045-0.09-0.067-0.135C-3.472-47.901-3.299-49.576-2.956-51.235z M1.636-69.843
		c6.578-8.402,19.049-9.664,27.798-2.814c0.066,0.052,0.143,0.079,0.217,0.109c0.056,0.08,0.118,0.156,0.201,0.215
		c8.032,5.782,10.45,13.766,10.03,19.309c-0.276,3.667-1.812,6.591-4.118,7.937c-0.096,0.056-0.185,0.127-0.284,0.177
		c-7.823,4.001-13.657-5.039-16.793-9.895l-0.023-0.034c-0.689-1.068-1.394-1.902-2.083-2.564c1.368,0.448,2.688,1.123,3.888,2.063
		c0.185,0.145,0.366,0.296,0.543,0.45c0.367,0.324,0.929,0.284,1.25-0.084c0.32-0.369,0.284-0.927-0.084-1.25
		c-0.2-0.174-0.407-0.346-0.618-0.51c-2.82-2.208-6.202-3.195-9.506-3.057c-0.521-0.069-0.855-0.041-0.9-0.036
		c-0.142,0.016-0.265,0.071-0.376,0.144c-3.531,0.465-6.874,2.232-9.221,5.229c-0.945,1.208-1.676,2.566-2.179,4.008
		c-0.022,0.062-0.05,0.123-0.071,0.186C-3.546-56.818-2.715-64.285,1.636-69.843z M4.899-51.122
		c-1.061-0.49-1.802-0.927-2.489-1.445c0.177-0.268,0.344-0.542,0.542-0.795c0.555-0.708,1.177-1.333,1.846-1.884
		C5.131-53.482,5.037-52.019,4.899-51.122z M-4.385-24.326c-0.246-3.281,2.928-6.127,3.955-6.954
		c0.008,0.011,0.016,0.021,0.024,0.033c0.141,0.198,0.287,0.393,0.433,0.587c0.283,0.375,0.575,0.744,0.879,1.105L0.86-29.509
		l-0.082,0.081L-4.385-24.326z M13.487-34.678c-1.028,1.031-5.369,3.353-8.536,3.94c-1.469,0.273-1.873-0.003-1.914-0.035
		c-0.012-0.009-0.021-0.019-0.027-0.028c-0.623-0.882-0.433-5.286,0.137-9.919c0.538,1.367,1.247,2.727,2.104,3.399
		c0.884,0.693,2.692,1.117,4.604,1.565C11.183-35.446,12.808-35.065,13.487-34.678z M-0.742-43.932
		c0.782-0.095,1.685-0.212,2.599-0.334c-0.37,2.342-1.202,8.183-0.939,11.831c-2.402-3.448-3.863-7.465-4.261-11.626
		C-2.719-43.876-1.88-43.793-0.742-43.932z M10.261-37.482c-1.488-0.348-3.341-0.782-3.917-1.233
		c-1.028-0.806-2.048-3.821-2.538-5.816c1.944-0.268,3.544-0.499,3.573-0.503c0.013-0.001,0.031-0.005,0.042-0.007
		c0.358-0.067,3.52-0.536,4.559,3.522c0.294,1.151,0.814,2.93,1.403,4.874C12.523-36.951,11.442-37.206,10.261-37.482z
		 M5.815-27.242c-0.649-0.508-1.255-1.056-1.841-1.621c0.396-0.009,0.818-0.044,1.301-0.134c2.959-0.547,7.326-2.605,9.172-4.188
		c1.11,3.565,2.155,6.807,2.235,7.056c0.005,0.015,0.01,0.03,0.016,0.044c0.433,1.129,1.412,2.754,2.925,3.939
		c0.006,0.004,0.012,0.008,0.018,0.013C14.776-22.349,9.932-24.019,5.815-27.242z M54.269-36.116
		c0.828,2.483,2.199,4.719,4.016,6.577c-2.25,1.709-5.436,1.743-7.708-0.037c-1.002-0.785-1.72-1.834-2.106-3.035
		C50.49-33.838,52.482-35.043,54.269-36.116z M-66.416-86.221c0.196,0.192,0.448,0.514,0.624,0.816
		c0.025,0.043,0.055,0.084,0.086,0.122l4.588,5.497c0.229,0.273,0.598,0.384,0.938,0.28c0.341-0.104,0.586-0.4,0.624-0.754
		c0.343-3.233,1.369-12.005,1.994-13.756c0.069-0.195,0.133-0.327,0.183-0.414c-0.038,2.081-0.17,11.284,0.453,13.597
		c0.479,1.78,1.072,5.292,1.333,6.899c-1.5,0.381-2.628,1.2-3.453,2.149c-0.061-0.035-0.116-0.077-0.186-0.098
		c-0.124-0.036-0.246-0.087-0.367-0.147c-0.417-0.954-0.61-1.729-0.655-1.919c-0.026-0.301-0.148-1.538-0.509-2.948
		c-0.573-2.247-1.449-3.787-2.603-4.573c-0.5-0.342-1.055-0.524-1.639-0.574l-0.97-2.649c-0.037-0.1-0.102-0.203-0.172-0.285
		C-66.202-85.042-66.637-85.572-66.416-86.221z M-25.29,5.426c1.387-1.376,2.596-2.235,3.345-2.701
		c0.037,1.093,0.068,1.95,0.084,2.417c-1.616,1.701-9.698,10.491-9.466,16.136c0.033,0.806,0.128,1.578,0.247,2.334l-13.026,1.098
		l-4.198-10.641l17.082-0.822c0.041-0.002,0.075-0.021,0.114-0.029c0.062-0.011,0.121-0.021,0.179-0.045
		c0.05-0.021,0.092-0.049,0.136-0.078c0.052-0.033,0.103-0.066,0.147-0.11c0.036-0.036,0.062-0.077,0.091-0.118
		c0.028-0.04,0.066-0.069,0.088-0.114c0.862-1.755,1.798-3.232,2.732-4.49C-26.9,7.141-26.07,6.2-25.29,5.426z"/>
	<path fill="#231F20" d="M2.868,6.581C2.783,6.553,0.695,5.906-5.289,5.032c-5.449-0.796-9.22-7.846-9.271-7.942
		c-0.227-0.435-0.761-0.603-1.195-0.374c-0.434,0.226-0.601,0.762-0.374,1.196c0.116,0.222,2.08,3.911,5.37,6.485
		c1.484,1.163,3.238,2.1,5.215,2.387C0.256,7.632,2.317,8.263,2.337,8.27c0.467,0.147,0.965-0.112,1.109-0.578
		C3.595,7.225,3.336,6.727,2.868,6.581z"/>
	<path fill="#231F20" d="M7.942-43.494c-0.367-0.333-0.924-0.3-1.251,0.062c-0.328,0.363-0.301,0.923,0.062,1.251l2.603,2.355
		c0.017,0.015,0.033,0.029,0.05,0.042c0.363,0.284,0.887,0.242,1.201-0.105c0.329-0.363,0.3-0.923-0.062-1.251L7.942-43.494z"/>
	<path fill="#F6951F" d="M-64.193-54.429c-0.076-0.96-0.489-1.707-0.839-2.188c-0.001-0.001-0.001-0.002-0.002-0.004
		c-0.271-0.37-0.505-0.585-0.51-0.589c-0.069-0.058-0.115-0.131-0.161-0.204c-0.042-0.021-0.089-0.028-0.129-0.056
		c-0.015-0.01-0.93-0.628-2.191-0.675c-1.665-0.061-3.185,0.88-4.517,2.794C-76.189-50.107-87.98-30.23-88.098-30.03
		c-0.017,0.03-0.037,0.06-0.06,0.087c-0.062,0.086-0.641,0.919-0.117,1.782c0.974,0.256,1.634-0.561,1.642-0.569
		c0.021-0.028,0.045-0.054,0.069-0.079c0.164-0.165,16.47-16.54,20.638-21.38C-64.669-51.65-64.086-53.075-64.193-54.429z"/>
	<polygon fill="#6EBE44" points="-64.657,-58.75 -64.655,-58.755 -64.658,-58.752 	"/>
	<path fill="#6EBE44" d="M-56.286-63.946c1.384-0.39,3.075,0.708,6.196,2.847c1.526,1.046,3.858,1.298,5.199,0.561
		c0.737-0.405,1.078-1.047,1.047-1.963c-0.024-0.683-0.259-1.18-0.738-1.563c-0.007-0.005-0.014-0.01-0.021-0.016
		c-1.492-1.169-4.807-0.869-5.962-0.652c-0.012,0.002-0.022,0.004-0.033,0.006c-0.191,0.027-4.656,0.632-8.254-3.05
		c-0.017-0.017-0.035-0.033-0.051-0.05c-0.024-0.025-0.048-0.045-0.072-0.07c-0.006-0.006-0.007-0.014-0.013-0.02
		c-2.288-2.327-2.979-5.565-3.012-5.723c-0.007-0.037-0.013-0.074-0.016-0.113c-0.103-1.364-0.729-5.147-2.35-6.257
		c-0.466-0.319-0.974-0.376-1.599-0.184c-0.743,0.229-1.19,0.654-1.371,1.3c-0.371,1.335,0.437,3.553,1.875,5.16
		c2.19,2.445,3.615,4.159,3.481,5.646c-0.037,0.411-0.217,1.008-0.863,1.51c-0.961,0.75-2.136,0.242-3.271-0.248
		c-1.651-0.713-2.51-0.948-3.226-0.034c-0.127,0.162-0.242,0.395,0.009,0.744c0.435,0.607,1.794,1.199,3.461,0.617
		c2.799-0.974,3.729,0.51,3.947,0.988c0.313,0.684,0.294,1.445,0.038,2.216c0.687-0.433,1.42-0.635,2.158-0.496
		c0.519,0.099,2.182,0.646,1.906,3.596c-0.164,1.759,0.736,2.936,1.43,3.213c0.398,0.158,0.598-0.009,0.725-0.171
		c0.765-0.975,0.19-1.957-0.842-3.46c-0.726-1.058-1.478-2.151-0.994-3.236C-57.182-63.563-56.664-63.839-56.286-63.946z"/>
	<path fill="#EBA4C9" d="M-76.603-18.352c3.672-1.354,5.922-2.766,7.909-4.01c2.104-1.32,3.897-2.439,6.563-2.87
		c-0.66-0.233-1.079-0.363-1.089-0.367c-0.047-0.015-5.545-1.618-8.6,0.489c-0.656,0.452-1.428,1.05-2.24,1.683
		c-3.251,2.527-7.614,5.909-12.378,6.194C-83.436-16.949-79.978-17.108-76.603-18.352z"/>
	<path fill="#EBA4C9" d="M-54.949-19.662c0.457,0.173,0.688,0.684,0.515,1.142c-0.173,0.457-0.685,0.688-1.143,0.515
		c-1.758-0.664-4.539,0.213-7.617,1.584c2.53,1.043,5.931,2.202,7.147,1.958c2.653-0.532,3.738-2.021,3.414-4.69
		c-0.081-0.655-0.669-1.415-1.688-2.214c-0.889-0.694-2.103-1.42-3.596-2.135c-0.108-0.052-0.215-0.102-0.323-0.152
		c-0.084,0.021-0.169,0.042-0.261,0.037c-4.445-0.26-6.357,0.939-9.254,2.756c-1.957,1.229-4.392,2.755-8.237,4.174
		c-8.385,3.091-16.945,0.111-19.26-0.823c-0.145,0.12-0.247,0.285-0.351,0.504c-0.414,0.867-0.458,1.783-0.12,2.516
		c0.173,0.371,0.52,0.852,1.199,1.031c2.828,0.751,14.673,2.967,20.958,0.098c1.59-0.726,3.207-1.536,4.771-2.322
		C-63.41-18.385-58.324-20.938-54.949-19.662z"/>
	<path fill="#E51F26" d="M-16.383,48.726c-0.185-0.01-0.362-0.077-0.503-0.187c-0.083-0.065-0.154-0.145-0.211-0.235
		c-0.152-0.25-0.172-0.561-0.051-0.828c0.028-0.062,0.479-1.033,1.334-2.215c-0.053-0.043-0.098-0.087-0.153-0.13
		c-3.142-2.46-7.736-1.861-10.239,1.337c-0.275,0.351-0.503,0.725-0.708,1.109c0.656-0.208,1.335-0.339,2.031-0.364
		c0.488-0.016,0.898,0.366,0.916,0.854c0.018,0.489-0.365,0.899-0.854,0.917c-1.046,0.037-2.056,0.363-2.947,0.921
		c-0.131,0.229-0.351,0.387-0.609,0.431c-0.384,0.309-0.74,0.662-1.055,1.063c-2.036,2.601-1.754,6.234,0.629,8.101
		c1.567,1.227,3.329,1.423,5.127,0.598c-0.17-1.012-0.179-2.065,0.023-3.124c0.092-0.48,0.556-0.795,1.036-0.704
		c0.479,0.093,0.797,0.557,0.703,1.038c-0.176,0.922-0.163,1.84,0.011,2.711c0.02,0.026,0.047,0.042,0.064,0.071
		c0.103,0.174,0.125,0.368,0.102,0.554c0.385,1.273,1.126,2.414,2.194,3.25c2.926,2.291,7.274,1.643,9.692-1.446
		c2.418-3.09,2.006-7.466-0.921-9.758c-0.881-0.688-1.935-1.14-3.047-1.301c-0.484-0.072-0.819-0.521-0.749-1.006
		c0.07-0.484,0.521-0.819,1.004-0.749c0.08,0.012,0.157,0.037,0.237,0.051c-0.017-0.363-0.068-0.706-0.145-1.035
		C-14.363,48.737-15.319,48.776-16.383,48.726z"/>
	
		<ellipse transform="matrix(0.7876 0.6162 -0.6162 0.7876 -14.3335 -5.4292)" fill="#FFFFFF" cx="0.708" cy="-23.504" rx="1.375" ry="1.239"/>
	
		<ellipse transform="matrix(0.7873 0.6166 -0.6166 0.7873 -11.6802 -0.0017)" fill="#FFFFFF" cx="-5.838" cy="-16.928" rx="1.375" ry="1.238"/>
	
		<ellipse transform="matrix(0.7874 0.6164 -0.6164 0.7874 -8.3795 6.4112)" fill="#FFFFFF" cx="-13.485" cy="-8.944" rx="1.375" ry="1.238"/>
	
		<ellipse transform="matrix(-0.7872 -0.6167 0.6167 -0.7872 -33.3528 -9.792)" fill="#FFFFFF" cx="-18.366" cy="0.859" rx="1.375" ry="1.237"/>
	
		<ellipse transform="matrix(-0.7872 -0.6167 0.6167 -0.7872 -51.9456 10.2859)" fill="#FFFFFF" cx="-24.198" cy="14.106" rx="1.375" ry="1.237"/>
	
		<ellipse transform="matrix(-0.7872 -0.6167 0.6167 -0.7872 -63.6825 24.6916)" fill="#FFFFFF" cx="-27.581" cy="23.334" rx="1.375" ry="1.237"/>
	<path fill="#231F20" d="M-68-14.097c0.891-0.446,1.785-0.896,2.671-1.325c0.037,0.023,0.076,0.043,0.117,0.063
		c1.165,0.525,7.099,3.12,9.514,2.635c3.547-0.711,5.26-3.07,4.823-6.641c-0.236-1.948-2.29-3.824-6.272-5.733
		c-2.771-1.325-5.436-2.156-5.556-2.193c-0.258-0.078-6.363-1.865-10.122,0.726c-0.696,0.48-1.485,1.094-2.32,1.742
		c-3.302,2.566-7.825,6.082-12.393,5.836c-1.682-0.091-3.035-0.236-4.123-0.353c-1.534-0.166-2.702-0.284-3.614-0.073
		c-0.389-0.093-0.792,0.075-0.981,0.438c-0.368,0.272-0.682,0.654-0.946,1.207c-0.642,1.344-0.689,2.81-0.128,4.022
		c0.254,0.553,0.619,1.015,1.067,1.366c0.375,0.294,0.807,0.508,1.285,0.636c0.139,0.037,14.351,3.557,22.147-0.003
		C-71.21-12.485-69.579-13.305-68-14.097z M-94.524-13.459c-0.68-0.179-1.026-0.66-1.199-1.031c-0.338-0.733-0.294-1.649,0.12-2.516
		c0.104-0.219,0.207-0.384,0.351-0.504c2.315,0.934,10.875,3.914,19.26,0.823c3.846-1.419,6.28-2.945,8.237-4.174
		c2.896-1.817,4.809-3.016,9.254-2.756c0.091,0.005,0.176-0.016,0.261-0.037c0.108,0.05,0.215,0.1,0.323,0.152
		c1.493,0.715,2.707,1.441,3.596,2.135c1.019,0.799,1.606,1.559,1.688,2.214c0.324,2.669-0.761,4.158-3.414,4.69
		c-1.217,0.244-4.617-0.915-7.147-1.958c3.078-1.371,5.859-2.248,7.617-1.584c0.458,0.173,0.97-0.058,1.143-0.515
		c0.174-0.458-0.058-0.969-0.515-1.142c-3.375-1.276-8.461,1.277-13.846,3.979c-1.563,0.786-3.181,1.596-4.771,2.322
		C-79.851-10.492-91.696-12.708-94.524-13.459z M-71.82-25.109c3.055-2.107,8.553-0.504,8.6-0.489
		c0.011,0.003,0.429,0.134,1.089,0.367c-2.666,0.43-4.459,1.549-6.563,2.87c-1.987,1.244-4.237,2.656-7.909,4.01
		c-3.375,1.244-6.833,1.403-9.835,1.121c4.764-0.285,9.127-3.667,12.378-6.194C-73.247-24.059-72.476-24.657-71.82-25.109z"/>
	<path fill="#FFFFFF" d="M-55.424-2.472c-0.14-0.404-0.412-0.767-0.805-1.075c-1.41-1.104-4.14-1.316-6.487-0.506
		c-2.558,0.885-4.753,3.396-3.947,5.732c0.181,0.519,0.481,0.947,0.896,1.272c1.153,0.903,3.146,0.99,5.337,0.232
		c1.592-0.55,3.062-1.518,4.035-2.656C-55.862-0.097-55.025-1.317-55.424-2.472z"/>
	<path fill="#231F20" d="M-55.136-4.943c-1.91-1.494-5.189-1.811-8.158-0.784c-3.844,1.328-6.104,4.909-5.043,7.983
		c0.291,0.848,0.79,1.551,1.479,2.09c1.65,1.294,4.206,1.482,7.007,0.513c1.88-0.649,3.631-1.807,4.804-3.179
		c1.347-1.575,1.809-3.253,1.297-4.729C-54.002-3.784-54.47-4.421-55.136-4.943z M-60.43,3.183c-2.19,0.758-4.184,0.671-5.337-0.232
		c-0.415-0.325-0.716-0.753-0.896-1.272c-0.806-2.335,1.39-4.847,3.947-5.732c2.348-0.81,5.077-0.598,6.487,0.506
		c0.393,0.308,0.665,0.671,0.805,1.075c0.399,1.155-0.438,2.375-0.971,2.999C-57.368,1.665-58.838,2.633-60.43,3.183z"/>
	<path fill="#FFFFFF" d="M-46.864,34.863c0.653-2.299,0.26-4.288-1.057-5.319c-0.336-0.262-0.727-0.458-1.161-0.581
		c-2.244-0.638-4.217,0.787-5.025,3.631c-0.801,2.813-0.316,5.887,1.101,6.996c0.206,0.161,0.431,0.277,0.669,0.345
		C-50.386,40.49-47.776,38.072-46.864,34.863z"/>
	<path fill="#00AF4D" d="M-4.227,42.628c0.129-0.43-0.083-0.887-0.494-1.066c-3.348-1.46-6.577-0.875-9.342,1.696
		c-0.223,0.208-0.429,0.42-0.628,0.634c-0.432,0.463-0.805,0.929-1.123,1.369c-0.854,1.182-1.306,2.153-1.334,2.215
		c-0.121,0.267-0.102,0.578,0.051,0.828c0.057,0.09,0.128,0.17,0.211,0.235c0.141,0.11,0.318,0.177,0.503,0.187
		c1.064,0.05,2.021,0.011,2.912-0.076c0.624-0.061,1.216-0.143,1.761-0.257C-5.664,47.123-4.292,42.848-4.227,42.628z"/>
	<path fill="#FFCD02" d="M30.558,72.071l-5.32-3.886c-0.149-0.108-0.262-0.263-0.32-0.438c0-0.004-0.153-0.41-0.63-0.781
		c-0.731-0.574-1.854-0.756-3.245-0.524c-0.22,0.037-0.457,0.075-0.709,0.115c-4.105,0.66-12.651,2.033-16.833,8.469
		c-4.902,7.547-6.087,11.414-5.903,12.169c0.186,0.217,0.36,0.421,0.508,0.536c0.074,0.059,0.105,0.067,0.106,0.066
		c0,0,0.36-0.018,1.287-1.201c1.044-1.332,4.406-4.614,7.655-7.47c3.011-2.647,7.087-5.974,9.395-6.776
		c3.575-1.246,6.733-2.603,7.189-2.801c0.354-0.205,1.226-0.51,2.441,0.442c0.51,0.398,1.042,0.993,1.585,1.768l1.565,1.879
		L30.558,72.071z"/>
</g>
</svg>
