<?xml version="1.0" encoding="utf-8"?>
<!-- Generator: Adobe Illustrator 16.0.0, SVG Export Plug-In . SVG Version: 6.00 Build 0)  -->
<!DOCTYPE svg PUBLIC "-//W3C//DTD SVG 1.1//EN" "http://www.w3.org/Graphics/SVG/1.1/DTD/svg11.dtd" [
	<!ENTITY ns_extend "http://ns.adobe.com/Extensibility/1.0/">
	<!ENTITY ns_ai "http://ns.adobe.com/AdobeIllustrator/10.0/">
	<!ENTITY ns_graphs "http://ns.adobe.com/Graphs/1.0/">
	<!ENTITY ns_vars "http://ns.adobe.com/Variables/1.0/">
	<!ENTITY ns_imrep "http://ns.adobe.com/ImageReplacement/1.0/">
	<!ENTITY ns_sfw "http://ns.adobe.com/SaveForWeb/1.0/">
	<!ENTITY ns_custom "http://ns.adobe.com/GenericCustomNamespace/1.0/">
	<!ENTITY ns_adobe_xpath "http://ns.adobe.com/XPath/1.0/">
]>
<svg version="1.1" id="Layer_1" xmlns:x="&ns_extend;" xmlns:i="&ns_ai;" xmlns:graph="&ns_graphs;"
	 xmlns="http://www.w3.org/2000/svg" xmlns:xlink="http://www.w3.org/1999/xlink" x="0px" y="0px" width="595.279px"
	 height="841.89px" viewBox="0 0 595.279 841.89" enable-background="new 0 0 595.279 841.89" xml:space="preserve">
<metadata><?xpacket begin="﻿" id="W5M0MpCehiHzreSzNTczkc9d"?>
<x:xmpmeta xmlns:x="adobe:ns:meta/" x:xmptk="Adobe XMP Core 5.3-c011 66.145661, 2012/02/06-14:56:27        ">
   <rdf:RDF xmlns:rdf="http://www.w3.org/1999/02/22-rdf-syntax-ns#">
      <rdf:Description rdf:about=""
            xmlns:dc="http://purl.org/dc/elements/1.1/">
         <dc:format>image/svg+xml</dc:format>
         <dc:title>
            <rdf:Alt>
               <rdf:li xml:lang="x-default">Print</rdf:li>
            </rdf:Alt>
         </dc:title>
      </rdf:Description>
      <rdf:Description rdf:about=""
            xmlns:xmp="http://ns.adobe.com/xap/1.0/"
            xmlns:xmpGImg="http://ns.adobe.com/xap/1.0/g/img/">
         <xmp:MetadataDate>2018-09-05T11:33:59-03:00</xmp:MetadataDate>
         <xmp:ModifyDate>2018-09-05T11:33:59-03:00</xmp:ModifyDate>
         <xmp:CreateDate>2018-09-05T11:33:59-03:00</xmp:CreateDate>
         <xmp:CreatorTool>Adobe Illustrator CS6 (Macintosh)</xmp:CreatorTool>
         <xmp:Thumbnails>
            <rdf:Alt>
               <rdf:li rdf:parseType="Resource">
                  <xmpGImg:width>132</xmpGImg:width>
                  <xmpGImg:height>256</xmpGImg:height>
                  <xmpGImg:format>JPEG</xmpGImg:format>
                  <xmpGImg:image>/9j/4AAQSkZJRgABAgEASABIAAD/7QAsUGhvdG9zaG9wIDMuMAA4QklNA+0AAAAAABAASAAAAAEA&#xA;AQBIAAAAAQAB/+4ADkFkb2JlAGTAAAAAAf/bAIQABgQEBAUEBgUFBgkGBQYJCwgGBggLDAoKCwoK&#xA;DBAMDAwMDAwQDA4PEA8ODBMTFBQTExwbGxscHx8fHx8fHx8fHwEHBwcNDA0YEBAYGhURFRofHx8f&#xA;Hx8fHx8fHx8fHx8fHx8fHx8fHx8fHx8fHx8fHx8fHx8fHx8fHx8fHx8fHx8f/8AAEQgBAACEAwER&#xA;AAIRAQMRAf/EAaIAAAAHAQEBAQEAAAAAAAAAAAQFAwIGAQAHCAkKCwEAAgIDAQEBAQEAAAAAAAAA&#xA;AQACAwQFBgcICQoLEAACAQMDAgQCBgcDBAIGAnMBAgMRBAAFIRIxQVEGE2EicYEUMpGhBxWxQiPB&#xA;UtHhMxZi8CRygvElQzRTkqKyY3PCNUQnk6OzNhdUZHTD0uIIJoMJChgZhJRFRqS0VtNVKBry4/PE&#xA;1OT0ZXWFlaW1xdXl9WZ2hpamtsbW5vY3R1dnd4eXp7fH1+f3OEhYaHiImKi4yNjo+Ck5SVlpeYmZ&#xA;qbnJ2en5KjpKWmp6ipqqusra6voRAAICAQIDBQUEBQYECAMDbQEAAhEDBCESMUEFURNhIgZxgZEy&#xA;obHwFMHR4SNCFVJicvEzJDRDghaSUyWiY7LCB3PSNeJEgxdUkwgJChgZJjZFGidkdFU38qOzwygp&#xA;0+PzhJSktMTU5PRldYWVpbXF1eX1RlZmdoaWprbG1ub2R1dnd4eXp7fH1+f3OEhYaHiImKi4yNjo&#xA;+DlJWWl5iZmpucnZ6fkqOkpaanqKmqq6ytrq+v/aAAwDAQACEQMRAD8A9U4q84/Mj82x5fv4/LXl&#xA;y0Gs+cLleS2laQWqEbS3TAig3qFqCR3FRVSwC48m+ZfMbG487+ZbzUHk3OmWUhtbFB/KI0A50/mo&#xA;D44aRaifyY/L0Kvo2EkEy/ZnjubgOCB13cj8MaW0Var+ZvktvrPlrWZfMOlx7y6Dq7mWQoOot7j7&#xA;SmnQbD2bpjS29Z/L38xNC88aOb7TuUF3bt6Wo6bNtPbSivwuvgaHi3f5ggBUr/Nb84dC/Lu0tTeW&#xA;8l9qF9yNrZQsqVWMjm7ua8V+LbY1P04pAb/Kz84PL/5iW94dPgmsr2wKfWbOfiTwkrxdGU/EtVIO&#xA;wofoxUhnmKHYq7FXYq7FXYq7FXYq7FWO/mH5ug8oeTNU8wyqHayhrbxN0eeQiOFDTehkYV9sVeRe&#xA;R9AbR9Km1jWpRJr2q1vdav5iAQz/ABlCxoFWMH5VrhUlJ9T/ADWtrm6Fl5elskVjxbWdVnFtZLQk&#xA;ExqSJZ6EUPAUxtaZH5e/L7TvM1ub7UfOtx5gSv7yHSZ0tbNSf2GSAs5I/wApwcCU7/5UZ+V3VtGZ&#xA;5Nv3zXd4ZNvB/W5D6DitsH8z6Zof5Nea9B806HcTx2mpXDWetabLK0wltSAWkQt8VYvtDkx3p74q&#xA;y78+fyX1P8wjpmq6Dd28d/ZxtC6XDMsUsDnmhR0WT4lNe1CD123VBeSL+U356fllEPMOgSB5HiIv&#xA;k01hcNGta8ZYJEpKB1qqtT8cU2oeRPzo/MBNUj4eYZbrV7mURtpWsUexuSxCqkUwKm1c1oBQJXdm&#xA;7YrT6B8rfnV5f1HUBofmK3l8q+Zl+F9M1L4Edun7ichUkB/Z6FuwOKKeiYodirsVdirsVdirsVeO&#xA;/wDOTWo29r5a8uRXjFNOm121a/YCv7iJJGccQDXx+jFISjQPKGq+fWi1jzPHJY+VaiTTfL1SklyB&#xA;us14RQ8T1WMf7ZRyYP8AmR5K8xfl95huvMfld7AabfSPMq3KWhmtjJHJFJDGLkVMJWY/CntUfCDg&#xA;ZB59+Wv+J9L8xQajo+r6dpTRMBcSX2oW0EDx/tJLGZC8in/JUkdRvvir3vzb+dFhfGTRfJd9Cbtq&#xA;Ld+YZ2WOysoz1dWloJpKfZVdu9djiinlH5hef11PT10fXntvNa2wmTStftjNZNDO6gVmVUaCelFN&#xA;E298Uh7h+QH5u6T5n8t2WgX06QeY9MhS3MEjBTcxRLxSWKp+JuK/GOoO/Q4oIevYofPXmv8AKS58&#xA;t+e7zzjB5Yi826DcXf6Rezglliv7SUnnIY4lYRzp6h5hOLdh8IrVTb0K21T8rvzh0G4sWVLt4VYT&#xA;WdynpX9lIw48wD8SMD+0hK12qemKsc/Lj8ztL8p2l95H896tDaar5ZnFna3kzHjdWZFYHUiu6pQE&#xA;HoONd64q9kjkjljWSNg8bgMjqQVZSKggjqDihdirsVdirsVdirzH/nIjSprr8vhqkEIuJfL19bas&#xA;YCKh44GKSA1/ZCSFm9hikL/N/nyHTPIq+YtJUXk2oJDHosZ6Sz3dBCCKjYcuTCvamKGGaT+X+kq3&#xA;6R8wIuueYLikl5qF4BN+868YkccI0Q7KFHTCtq/mLyjpdxoOowabptnFqEttKlpIIIlIlZCEo3Hb&#xA;fv2xRbzjyn+YfkbTobbQpfypt9Q8wWo9GUSMs0ksyjizOs8ErLU7nqF64GbD/wA1fzF8w+bNQt7L&#xA;UtPh0Wz0jmlno9unBYjJxLl605MeI7AU6DrVUMHjkeN1kjYpIhDI6mhBG4IIxSzHSfzl/NLSkVLP&#xA;zLelE+ys7i5AA7ATiTbFFM98o/8AOV3niwvIk8yRQaxp5IE7pGtvcgdCyGPjET3oU38RitMy/Oya&#xA;uk6P+avkXUHshqcX6M1S/tqKz2tz9l5P5XikQox+0GpuOOKA8kj0PTlt5IzGJHmBEs7/ABSMW3LF&#xA;jvWpyVIt9Hf846+bZNZ8iLpF4/LVPLcn6Pnqd2gArbPTw9P4B/q5FJep4odirsVdirsVU7m2t7q2&#xA;ltriNZbedGjmicVVkccWVgeoINMVfLH5jWWu/loNN8v3iNe+T4NZg1Xy9fV5NEkTMZrOUHuokLKf&#xA;HceCqXqdvcQXMEdxbyLLBKoeORTVWUioIOSYoXVtb0rSLR7rUrqO2hRWesjAFgoqQi9WPsMCvBvN&#xA;F/ceedRGo3VvHYaelRZoiJ9ZkTs00tK7jovQfiWmXJLpfJ+jPHxRXjbtIGJP3GoxpFpReeSbxCTa&#xA;TLKvZX+FqfiDjSeJI7vTr60NLmB4/wDKI+H/AIIbYEobFL6k/JLypqOrfl95n8larDMNA1K3t73R&#xA;b+VDwpqEHqDgxAVmgkRGIXbnXFiXk+mi7hjm0++Ux6hpsr2V5GeqywNwav3ZIILLPyn8zf4W/M6x&#xA;llfhpnmFRpl7XYCcmttIffn8FT0BOAqH1hgV2KuxV2KuxV2KvGv+crL3TofyxW2uQGurq/gFiO6u&#xA;gZnf/kXyX/ZYpD5V0Lzj5o0HbSdSmtY619EHnFXrX03DJ+GKaTww6j5oEesatcm5vZ5R6skgoBDH&#xA;UcI1WirUjsMNIumRAAAACgGwAwsXYqg5dX06K6NrNMIpgAaPVQeXSjHY42mkX8Dr2ZT9IOKEsvfL&#xA;WkXVSYRE5r8cXwmp70G34Y0m2YeUPzN/MjydZ2+naddW2q6NajhBp19EFZErWiTRcWr4ciR7YKW2&#xA;NebPOVrqvnm41x9Mk0VNVijN/BI4liF3GCvOORQoKuiivw/ariEqeo24v9OdYH+MgSW8qN0dd1II&#xA;9xhQH1l+VnnFfN/kXS9aY/6Y8fo6gnQrdQ/BLt25MOQHgRkVLLMVdirsVdirsVfK/wDzmDq8knmf&#xA;QdHqfStbJ7sDsWuZTH+q2xZB8/4pekaAipo1mFFB6YP0tufxOSDAo/FDsVU57W2uE4TxLKvg4B/X&#xA;iqWt5ejiJbT7mWybf4VPOOp8UbGk2q6VD5wu9VbS7TTjrFwkDXVLQUlMKEKxCH7RBYfCu+C1pUOr&#xA;W8V01nfJLp96lBJa3kbQSKT2IcDDa0i3SKWMq6rJGw3BoQRihJo9Lu7LVIjaO40yRizwKwojEeBB&#xA;+E+2Ck29g/5xt1u4sPOmteV61sNQtf0tClPsTxusMlKfzq1TX+UYlL6MwIdirsVdirsVfJv/ADl7&#xA;ZzJ570e9I/czaWsKH/KhuJmb8JlxZB4TilkvlzzMtsiWV5/cg0jm/lr2b2wgsSGYo6OodCGVhVWG&#xA;4IwsW8VdirTuqKzseKqCWJ6ADrir1P8A5xs8p3t1qN/58ukaKymhbTtGRgQZIxIGmnoe3JOK/wCy&#xA;8MiyZh/zkhpVpeflJrVw8Eb3Vn9XltpmUF4/9JiD8WpUVQsMVDH9R/5xr8rahYxaj5U1K60Ca5iW&#xA;aO35G6tPjUN/dyn1BWvXmflitsC1D8m/zlsJmgj0e11WNa0vba6ijRh2/dzNHJX2C4bRQZ//AM4z&#xA;+UrFdFn86zXP1rWdUD2ckQXgLSOCX4oKEk8mZFc17U+kJL23FDsVdirsVdiryn/nIz8urjzf5KF1&#xA;p0Rm1nRGa5to1FXkhYATxL3qQqsB3K074pD4tIIND1xZOxVNdF8w3WmsE/vbUmrRE9K9SvhiCghm&#xA;NnrK6g6w6Ta3Go3TAH0LeNmK1r9o0ovTJWxplOlfll541Qq+pTw6HbGhMUdLi5p4VB9Mff8ARgXZ&#xA;M9C/L611vzGfIegzzyaZbslz5x1qV+cnBSONnG9AFZyOg+mvEjAl9P2FhZ6fZQWNlCtvaWsaxW8C&#xA;CioiDiqj5AYoYv8Am/Z/XPyv80Qjqum3E23/ABShl/40xUI78ur3695A8t3ZNWm0uzdz1+IwJy3P&#xA;+VXFWQ4q8m8qf86Z+cut+Vz+70bzah1vRlpRVu1FLuJabVYKX9lVcUvWcUOxV2KuxV2KuxV82f8A&#xA;OSX5V+SbKJvNFpeLpWt38hVdKVC638xpyMSIOSPvVm+yT1oTUqQXknl38mfO2scZJbYaZbNv6t4S&#xA;jU9ogC/3gY0m3p3l78hvKmn8JdUkl1a4G5V/3UFR/wAVoeR+lyMNMeJ6JYadp+n2621jbRWtuv2Y&#xA;oUVF+5QMUJB538yXunwW2k6JF9a8z6y/1bSbVaEhm2aZq7BYxvU7eO1cUgPUPy18g2XknyzFpcT/&#xA;AFi/lY3Gq35ryuLp/tuSd6Doo8PeuBWV4qgtc0/9I6JqGn/8tltNb/8AI2Mp4jx8cVYT/wA4/ah9&#xA;d/KLy+zH95BHNbSKeqmCeSMA/wCxUYpL0PFDzX89tGvW8tWnmzSlrrXk+5TVLanVoFI+sxk/ylBy&#xA;bxC0xSGeaFrNlrei2Or2Lc7S/gjuICevGRQwB9xWhxQjsVdirsVdirsVeH/nVE+i/mP5b836nGZf&#xA;LotX0x56cls7p3Z1mbw9RX418AfaqlO0dXUOhDKwBVgagg9CDkmLeKoDXNa0/RNKudU1CT07W2Tk&#xA;57k9FVR3ZjsMCsD/AOcdfMN95p/NvWNYvrNZSNPf6vOST9TQSoqRx9vjViCaVO58cDIvp/FDsVdi&#xA;rwP8t/zE0TyH5z8w/l1r5+o241ae40nUJDSEJdcXihk2pHVCGVvs7mtMUvfAQRUdMULJ4YZ4ZIJk&#xA;EkMqlJI2FVZWFCCPAjFXln5KTS+X9Q8xflreOTJ5euTc6QzdZNNu29RCPEoz/F7tTFJerYodirsV&#xA;dirsVQmr6Tp2saZc6ZqVul1YXkZiuIHFVZW/Ue4I3B3GKvAZrPU/yu12Ly/q0j3Pk2/kK6Drcpr9&#xA;XY7/AFS4boKfsnYd+lQpUhmlRSvbxwofO/5seeJvNeux6HpL8tLtJCisD8M04qGkr/IvRfpPfIsg&#xA;F3l+DV9At2i0nXNR0/1WDzCzuGt1d1FAWEdOVOwauGkWyfTfzJ/NHSmU2nmae6QGph1GOK6Vh4Fy&#xA;qyD6GxpbeieV/wDnJSASR2vnTTP0dyPE6tY8prSp7yRmssY/4LAr2jTtS0/UrKG+0+5ju7O4UPDc&#xA;QsHR1PcMtRir5a/5yBGgy/m49vDKk73lhDHqsAFfTuo+Rjq1Nm9HjtiE9Ed+Wf5zap5JaHRfMrya&#xA;h5UqEtdQoXuLIE7K9N5Ih947dlwkLzfTFjfWV/Zw3tlOlzaXCh4J4mDo6noVYbEYEPLvzbDeVfN3&#xA;ln8yYAVtrWUaR5i497C6J4SN0/upCT168cUh6wCCAQag7gjFDsVdirsVdirsVeJ/85PeYkGg6b5P&#xA;hINzrc4muxsSlpakOT/klpOPE/5JGKQ8Hu/zN1rTfKV15RSV5bhJDBFqBPxrZld46/zb8Qey/Rit&#xA;JJ5IslaSe8ahKUjj9id2/hhCyZdhYuxVxAIodweoxVFeXPMnmvyfPPceU7xbdbkH6xp0452jsV4i&#xA;QR/suvWq9aUO2Ck2xvWraaKxOoPK9zqEdwLy6unb95NIzfvWZj15VxSCmyPDcQBxR4pVqOhBBGFi&#xA;nfkL8wvMP5dXpNmr6j5WmYte6OTVoix+KW2J+y3ivQ9/EAhk+jnuPKn5neQbyGwuku9K1e3eAyD7&#xA;cMpFV5od1kifi1D7dsCEo/I3zHean5LGk6p8Ou+WZn0fU4yatytTxjb3rHQV7kHFJeh4odirsVdi&#xA;rsVfE35/+Yden/NrWTcB7Q2YSys0OxFqqhlZT4SFjJX/ACsWQeYsxYlmJLE1JPUnFLNPJBX9GTD9&#xA;r1jX5cFphDCTIsKHYq7FXYqtkjSSNo3FUcFWHsdsVSry5oGvxaRql/p6tqFtos3HVtPQVnhgkHKK&#xA;7jA+1GaNzA+zSp2OwZFMrW6guoFngcPE4qrDCxRXl3XvMXk3WDrfliUK7/736XJX6tdIOzKKUfwY&#xA;b/jUEJBek+SvzH0O4/Na08xaXztdL86xLputWMoo1rrNsP3PI0AIlQ8UI+0S3cEAJfQeKHYq7FXY&#xA;q7FWL+evy18oed7H6tr1kskqKRbX0fwXMNf5JAK0rvxaqnuMVfK35m/847+bvJ/q3+nhta0Fat9Z&#xA;gQ+vCvX9/CKmg/nWo7nj0xZWw7yTehLmazY7SgPGO3Jev3j9WEIkyC61/T7ad4ZC5MVPWdEZlSv8&#xA;xGG0Uj4pY5Y1kjYPG4qrDcEHFC7FWi6KQGYAt9kE9flireKovyr5rm8k+cbLzOgL6e4+p63CtTyt&#xA;ZGFXA7tGwDDxpTAUh6J+aH5JPH6nm/8AL2JZYbhRcX2hQ09OZWHL1rMDYGhrwHX9n+UhLxiPUl1a&#xA;5tbOGZtOsJ7iG21LWJY3MVn67FRzIGzUVupHT5kElQHqv5j/AJGp5U8ny3vlzzUbTSYJIb5rHUnT&#xA;hJexLSOa3nVRwlfoNt6/aAwLbMfIP/OSXlfWLO0j8zRP5fvbhSI7ucH6jOyHi5jnoAnxDcPsOnI4&#xA;rT1367ZfU/rv1iP6nw9X6zzX0vTpy5868eNN61xQrYq7FXYq7FXYq+Rvz+8s2ll+bDLo1rFYSSad&#xA;DfqsSCOOSYzujsVWg+Onxe+ITbz2IVtLsN9v9Kjn7guo+nvhVMPqWo6W7vpyi4smbk1mxoyEnf0z&#xA;0p7YULjrf1oLBaOtrdk0kjugVZRSp4r+0fpxtaWafZXQvvWkty5UkNd3TgyEb/3SLUIMClO8KFk8&#xA;Mc8LwyDkkilWHsRTFXv/APzjf5km1P8AL4aVdOWvfLtw+nMW+00K0eBvlwbgP9XIsi9C1Dyv5d1D&#xA;Tr/TbzTreSy1MltQh9NVEztSruV4kvsKPXkD3xQ8X/MX8n7nyz5F1W80LzNqb6TpsP1hPL1+UvbI&#xA;pGQSnpyDjxUbrVTQiuKbeYeTdSuLXXdO8tyLaw6JrbJNq+lXNzBd6OtrOtXuojNIWtp4l6IXL8hS&#xA;v7OKWa/plv8AoUP0eY+s8/0d9paV/SVeNa/76/r0xR1fSuKHYq7FXYq7FXzP/wA5Dq6fm3p0p2jf&#xA;QkXlt1W7mY/rGEL0eLWpe41cMykaXcXjvGVIAeVRVSe5Hw1xSm0/mC49ZzZ2b3NnA3GedfEdeA70&#xA;w2ikZ6elavarIUS4iYbN+0p7ivVTivJDforUrPfTbstGOltc/GvyDD4hittpr3ouI9Tt3s3OwkPx&#xA;xE1p9sY2tJpHLHKgeNg6NurKQQR8xih6J/zjhqX1T8w9e0itE1PT4r2h6c7WT0tvmJicBT0fR+BV&#xA;G9srS+tJrO8hS4tLhGinglUOjo4oysp2IIxV4T5P/LL8v9c/Nfzii6JbN5e0KO2063taN6RunHOd&#xA;6V+0jIVOKXrn+APJf+Hf8N/oe2/QXP1PqHD93z5cuXjyr3rihkGKuxV2KuxV2Kvmn/nJy2mbzzpz&#xA;oQDLok8cZqahlmbw/wBcYpeJapKz6Votpb/DNIFZCp6EAL28S2FQyq2t4LCxWJKLFAnxH5CrMfn1&#xA;wsWUeWPyP8wat+Xlt5z0KY/py+lnuG0eaiRT2vqFY1Q0HGT4Syk7EEdO8WTFrS9E0k1vLE9rfWzG&#xA;O7s5lKSxOpoVZWoRQ5K0EIh0R1KuoZTsVIqD9BxQlE+iy2jNcaQ/oSfae2NTE/0djjSbZf8Aklrs&#xA;cn5ueW3WkZu4r61uYyRVGWBnCkf66CmApp9dYEJN5x8zWflfyvqWv3hHo6fA0oQmnOTpHGD4u5Cj&#xA;54qxj8jvLl7o/kK3utSqdY16aTWNSYijGW8IZQe4Ij41HY1xSXoGKHYq7FXYq7FXYq+eP+ck4aed&#xA;fLUpIKyWN3Hx/wBR0J/4nhCejwvSdFuIfMLCVW+rWYY27GvGjklQP+CJxpSU+1G1utQNro9nve6v&#xA;cRWNuDuOUzhan2wlAfaWj6XaaTpNlpdovG1sII7aBfBIkCL+AyKsE/NP8mdI86R/pGyddL80W60t&#xA;tSQUWSg2juQPtp2r1X3G2KXzjeQavouryaD5itW0/WYf91t/dzJvSSF+jq1O38MkCghfihd+W1pP&#xA;Y/nP5eukjX0bi9AWX3khdXWlfmcBZdH2fgQ8g85S/wDKxvzFs/I9p+98t+W5U1HzXOu8ck619Cyq&#xA;NjXfmPn3TFL18AAUHTFDsVdirsVdirsVdir58/5yfiCeZvJM5P8AeLqMfHw4rDQ/8PiEvMckxR3k&#xA;fSPOOq+dTqXlOG3ub/ypb/Xhb3dTFNLKeAg2Io7RlihJG46jAWQfS/5d/mJpXnXSpZ4InsdVsX9D&#xA;V9In2ntZxUFHBCkqSp4tQVp2IIAQyzFWNeffy98t+d9IOn6zD+8jq1lfR/DPbyH9uN/oFVOx74q+&#xA;cNc/Kz8zfLd5JaPpE3mCyU0tdT08BzIvb1Ia80bxrt7nrhtaT38rvyy8+XnnnR9Z1XSpdG0XSXa7&#xA;Zroos0soQqkaxAlxu29RSle9MSUvTvzJ/Ma/hvo/JPktRfeddRHEutGi06JvtXFw1GClVNVU/M9g&#xA;wVkf5eeRNO8l+XYtKtnNzdSMZ9S1CT+9ubp95JXJqfZRXYeJqSoZNirsVdirsVdirsVdir51/wCc&#xA;pdT04eY/J9ubmP17NdQmuouQLRxyLD6bOBuOfptx8aYhLzZpEWMyE0QDkT7UrkmL3b/nGfy+1n5G&#xA;uNfnTjd+Yrp7kE/aFvCTFCp+VHYezZFkXfmnZJ5M83aL+ZmmgQRvcR6X5qiXZZ7O4IVZnHTlEQN+&#xA;549hioeu4odiqUeZPN/ljyzafW9e1O30+GhK+s4DvTqI4xV3PsoOKvN5/PX5gfmETZfl/YyaJoEv&#xA;wz+b9RjKM0Z2JsoDuxPZv+IHfFLN/IP5daB5L0+SDTw9xfXbepqWq3B53NzLuS0jntUmi9vnUlQy&#xA;jFXYq7FXYq7FXYq7FUFrWtaXoml3Oq6rcpaafaIZJ55DQKB+JJOwA3J2GKvj38wdcT8yPOUnmKW1&#xA;az0mKJbXT4GoJpYoyxEkpUCnJnJpU06V2rhATdJBdeXZ5bi00zSp7g3mqTR2NtaGQtGzSsF3rWg3&#xA;3OJUF9Kab5B/O3y9p9tpuiec9PvNPso0gtLe+05YQkUYCqvKHmxoB1JrgVh/5yP+dR8npoPmN/Lt&#xA;1b+YL62sLVNPF4L1pjKssfASBYwtYqMSDsad8VDOmg/5yUuQvK58q2IIPIxLfO4PycOv44qtb8uf&#xA;za1bbXvzFmtoGryttHtI7Vh/q3IKyD6QcVTLy9+Rf5eaRdfX57OTW9UO7ahq8hvJWP8AMVekVffh&#xA;XFbegAAAACgGwAxQ7FXYq7FXYq7FXYq7FUHrOr6fo2lXeq6jMILGyiaa4mP7KIKnYbk+AHXFXyb5&#xA;7896z+Y2rrd3ivZ+WbVq6VpJP2/Ce4psznsOi9B3LEBSlE08FvEZJWCRoCST4DChnf5G2XleDUm8&#xA;+ebNX0/TliRotAsbu5hjlUNUSXLI7AgsAVTx3Pgciyeoat/zkD+X9vKbPRZLjzLqzA+lp+kwSTMx&#xA;7fvKBKV/lJ+WK0hvKflLzh5m832/nrz5AlgNPR18t+W0YS/VfU2aadhsZSB9/wDLxAxV6nih2Kux&#xA;V2KuxV2KuxV2KuxVDalqenaXYzX+o3MVnZQLymuZ3EcajpuzUGKvMn/OXXfMk8lr+WnlubW4lbg2&#xA;vX1bTTlYdSvPi8tO61VvbFNPLfzqvPzT9bTvLXmnzBaSpq6NdXmj6VDwhhhhcGNmlkUSvydTQHaq&#xA;4qwFPL1qiH1bm5l8S8zAUH+rx6ZKkWyv8m/yasPO2vNq13bsnlLTnKyMWflfTjcxo1aiNf22HyHX&#xA;4Ypt9D2f5MflVZkGLyxYNxpT1ovX6ePql64otlOm6PpOlw+hpllb2MP++raJIV/4FAoxVF4q7FXY&#xA;q7FXYq7FXYq7FXYqlvmTzFpPlzQ7zWtWmEFhZRmSZ+pPZVUd2ZqKo7nFXl2geTtW/M69g83+fI3h&#xA;8vg+r5e8o8iIhH+xcXdKc3cb08P8n4cUvX7e3t7aCO3tokht4lCRQxqERFUUCqooAB4DFD5B85eY&#xA;R5p/MPXdfR/Uskl/R+mMN1+r23w8kNT8Mj1f6cIUrfJ3k3UfzB8x/oKyZodItSr69qS/7rjJ/uYy&#xA;djJJSg+/oDiSofXGjaPpui6Xa6VpkC21hZxiK3gToqj9ZPUk7k74FRmKuxV2KuxV2KuxV2KuxV2K&#xA;uxV2KvJPN0Q8/fmvY+Tnq/lzyqiarrydUnu5KfVbd+uwQ8qdwWHhil62AAKDpih5T+ev5oReXdGf&#xA;y5o8ok806vGYokQ72sEgIe4cj7J414e+/bFL570LQdU1XUbDyh5dTnqVwP3k5HwW8IP7yeUjoBX7&#xA;/emFD658ieSNG8l+XLfRNLWqR/Hc3LAepPO325ZD4t+AoOgwKyHFXYq7FXYq7FXYq7FXYq7FXYq7&#xA;FXYq8s/IFBqGl+Y/NsnxXHmTWbqdZK1/0aFvTgSvgnx09sUljn5pf85C32meYLvyl5Tt4hqNufRu&#xA;NYuyDHHKB8aQw0+Nkr1Y0r+yRitPFJRffXTIWm1jzPrEoRXarz3E7mgA60UYeSOb6j/J/wDK+38j&#xA;6EzXLC58xalxl1e96/F1WGM/77jr9J38AArPsVdirsVdirsVdirsVdirsVdirsVdirsVeZ/843Mh&#xA;/J3Q4wKSRPeJMCKEP9cmah+gjFJeA/nJ5bm8ueefM1rcjnFq7y65plydiTOxeRQR0MclR8hXvhVl&#xA;3/OPFtZXX5p3c1wiTXFro/q2bNuUZ5kR3QdiVfiSOx98Sr6cwIdirsVdirsVdirsVdirsVdirsVd&#xA;irsVdiryv8mXGia9508jTfBJpeqPqGnodq2V+A8fHx4UHL3bFJSb/nKTSA/l7Qte9ESLpd/6N1JS&#xA;pS3u0KMx/wAnmiD5kYqHm3/OP1z+h/zhtLUSc7TVrC5tLR9j8K0uuNfYw0H0YlX1tih2KuxV2Kux&#xA;V2KuxV2KuxV2KuxV2KuxV2KvLPzZ0zUfL2uab+aGiQNcT6MhtfMVnH9q40tzViB3aFjy/E7LikM/&#xA;sL7y/wCavL0d1bmHU9F1OGoDAPHJG4oVdG7joynodjihiuh/kb+XOheZbfzDpVhJbXtqzvbxCeVo&#xA;EeRCjMsblv2W8aYptn2KHYq7FXYq7FXYq7FXYq7FXYq7FXYq7FXYq0yqylWAKkUIO4IOKvHb/wAt&#xA;+afys1W41vyZaSav5KvHM2reVo6mW1c/ansh4bboP1UKqXofk3z75V846cL7Qb5LgAD17Y/BPC38&#xA;ssR+Jfn0PYnFDIMVdirsVdirsVdirsVdirsVdirsVdirsVdirsVdirz/AM4fkt5Y13Uf03pss/lz&#xA;zKpLprGlt6Ls57zIKLJXv0Y+OKbSePU/z68p/u9R020886XHsLyycWd/x8XiYcGPsin/AFsVTfy5&#xA;+dvlfVtZtdCvrLUtA1y7b04LDVLV4S8gFSquOS9tuVK4rT0HFDsVdirsVdirsVdirsVdirsVdirs&#xA;Vf/Z</xmpGImg:image>
               </rdf:li>
            </rdf:Alt>
         </xmp:Thumbnails>
      </rdf:Description>
      <rdf:Description rdf:about=""
            xmlns:xmpMM="http://ns.adobe.com/xap/1.0/mm/"
            xmlns:stRef="http://ns.adobe.com/xap/1.0/sType/ResourceRef#"
            xmlns:stEvt="http://ns.adobe.com/xap/1.0/sType/ResourceEvent#">
         <xmpMM:InstanceID>xmp.iid:FB7F117407206811822A9DD448A483FF</xmpMM:InstanceID>
         <xmpMM:DocumentID>xmp.did:FB7F117407206811822A9DD448A483FF</xmpMM:DocumentID>
         <xmpMM:OriginalDocumentID>uuid:5D20892493BFDB11914A8590D31508C8</xmpMM:OriginalDocumentID>
         <xmpMM:RenditionClass>proof:pdf</xmpMM:RenditionClass>
         <xmpMM:DerivedFrom rdf:parseType="Resource">
            <stRef:instanceID>uuid:ba5dc92b-6d0a-484a-ab90-b9370a4a0965</stRef:instanceID>
            <stRef:documentID>xmp.did:0980117407206811822A897E387FE54C</stRef:documentID>
            <stRef:originalDocumentID>uuid:5D20892493BFDB11914A8590D31508C8</stRef:originalDocumentID>
            <stRef:renditionClass>proof:pdf</stRef:renditionClass>
         </xmpMM:DerivedFrom>
         <xmpMM:History>
            <rdf:Seq>
               <rdf:li rdf:parseType="Resource">
                  <stEvt:action>saved</stEvt:action>
                  <stEvt:instanceID>xmp.iid:FB7F117407206811822A9DD448A483FF</stEvt:instanceID>
                  <stEvt:when>2018-09-05T11:33:59-03:00</stEvt:when>
                  <stEvt:softwareAgent>Adobe Illustrator CS6 (Macintosh)</stEvt:softwareAgent>
                  <stEvt:changed>/</stEvt:changed>
               </rdf:li>
            </rdf:Seq>
         </xmpMM:History>
      </rdf:Description>
      <rdf:Description rdf:about=""
            xmlns:illustrator="http://ns.adobe.com/illustrator/1.0/">
         <illustrator:StartupProfile>Print</illustrator:StartupProfile>
      </rdf:Description>
      <rdf:Description rdf:about=""
            xmlns:xmpTPg="http://ns.adobe.com/xap/1.0/t/pg/"
            xmlns:stDim="http://ns.adobe.com/xap/1.0/sType/Dimensions#"
            xmlns:xmpG="http://ns.adobe.com/xap/1.0/g/">
         <xmpTPg:HasVisibleOverprint>False</xmpTPg:HasVisibleOverprint>
         <xmpTPg:HasVisibleTransparency>False</xmpTPg:HasVisibleTransparency>
         <xmpTPg:NPages>1</xmpTPg:NPages>
         <xmpTPg:MaxPageSize rdf:parseType="Resource">
            <stDim:w>21.000131</stDim:w>
            <stDim:h>29.700013</stDim:h>
            <stDim:unit>Centimeters</stDim:unit>
         </xmpTPg:MaxPageSize>
         <xmpTPg:PlateNames>
            <rdf:Seq>
               <rdf:li>Cyan</rdf:li>
               <rdf:li>Magenta</rdf:li>
               <rdf:li>Yellow</rdf:li>
               <rdf:li>Black</rdf:li>
            </rdf:Seq>
         </xmpTPg:PlateNames>
         <xmpTPg:SwatchGroups>
            <rdf:Seq>
               <rdf:li rdf:parseType="Resource">
                  <xmpG:groupName>Default Swatch Group</xmpG:groupName>
                  <xmpG:groupType>0</xmpG:groupType>
               </rdf:li>
            </rdf:Seq>
         </xmpTPg:SwatchGroups>
      </rdf:Description>
      <rdf:Description rdf:about=""
            xmlns:pdf="http://ns.adobe.com/pdf/1.3/">
         <pdf:Producer>Adobe PDF library 10.01</pdf:Producer>
      </rdf:Description>
   </rdf:RDF>
</x:xmpmeta>
                                                                                                    
                                                                                                    
                                                                                                    
                                                                                                    
                                                                                                    
                                                                                                    
                                                                                                    
                                                                                                    
                                                                                                    
                                                                                                    
                                                                                                    
                                                                                                    
                                                                                                    
                                                                                                    
                                                                                                    
                                                                                                    
                                                                                                    
                                                                                                    
                                                                                                    
                                                                                                    
                           
<?xpacket end="w"?>
	</metadata>
<g>
	<path fill="none" d="M-2.063-60.386l-3.316,1.145c0.009,0.046,0.02,0.091,0.021,0.137l3.253-1.225
		C-2.091-60.348-2.077-60.367-2.063-60.386z"/>
	<path fill="none" d="M-3.82,26.445l-4.272,13.031c4.429,0.713,8.654,1.104,12.672,1.168c0.319-3.019-0.615-6.016-2.812-8.951
		C-0.286,28.95-2.862,27.087-3.82,26.445z"/>
	<path fill="none" d="M21.645-63.693c-0.203-0.1-0.388-0.189-0.551-0.263c-0.429-0.192-3.304-1.186-7.296-2.543
		c0.249,3.246,1.524,19.238,2.978,24.74l30.347,25.525c0.19,0.16,0.306,0.394,0.315,0.643c0.011,0.248-0.085,0.489-0.264,0.664
		l-0.664,0.659l3.266,1.577L28.644-62.646c-0.316,0.098-0.628,0.175-0.935,0.226C25.133-61.984,22.918-63.069,21.645-63.693z"/>
	<path fill="none" d="M-9.222,42.923c-0.008,0.021-0.016,0.043-0.023,0.064c-0.075,0.182-1.871,4.445-4.038,6.973
		c-0.305,0.355-1.055,1.245-2.106,2.496c8.491-0.651,15.586-1.699,18.482-7.134c0.518-0.97,0.897-1.939,1.157-2.907
		c-4.097-0.083-8.399-0.495-12.901-1.232L-9.222,42.923z"/>
	<polygon fill="none" points="12.971,-26.85 13.006,-26.895 12.968,-26.854 	"/>
	<path fill="none" d="M50.67,0.466L50.194-3.85l-1.042-0.573c-1.207,0.104-5.401,0.101-7.978-4.47
		c-0.011-0.02-0.01-0.041-0.02-0.061l-1.876,1.861c-0.135,0.131-0.303,0.213-0.478,0.242c-0.254,0.043-0.524-0.024-0.731-0.207
		L23.485-19.874c1.357,3.412,2.914,6.722,4.708,9.576c6.301,10.025,6.732,27.826,6.748,28.578l0.206,6.209
		c0.001,0.061-0.003,0.123-0.015,0.184c-0.054,0.305-0.584,3-2.514,3.551c-0.55,0.156-1.22,0.318-1.957,0.443
		c-2.307,0.391-5.272,0.395-7.423-1.357C21.229,25.667,8.327,15.103,1.682,9.663l-4.931,15.04c0.397,0.242,3.742,2.352,6.403,5.886
		c2.437,3.237,3.502,6.64,3.199,10.05c11.44-0.092,21.153-2.871,29.004-8.374C48.863,22.801,53.156,7.716,54.421,1.237l-2.865,0.018
		C51.104,1.259,50.72,0.917,50.67,0.466z"/>
	<path fill="#BEC0C2" d="M-25.897-89.134c-2.188-0.396-3.957-1.564-5.041-2.797c-1.154-1.314-1.643-2.755-1.308-3.856
		c0.295-0.967,0.907-1.536,1.53-1.883c-0.183,0.042-0.355,0.102-0.544,0.133c-0.22,0.038-0.444,0.067-0.673,0.09
		c-2.084,0.206-3.297,0.104-4.368,0.011c-1.513-0.13-2.71-0.232-5.963,0.676c-1.637,0.458-3.891,2.409-4.845,5.126
		c-0.649,1.85-0.911,4.733,1.299,8.228c2.449,1.473,5.245,2.421,8.239,2.669c1.916-2.938,4.892-2.878,5.034-2.873
		c0.041,0.001,0.076,0.021,0.116,0.027C-30.545-86.683-28.108-88.302-25.897-89.134z"/>
	<path fill="#BEC0C2" d="M-55.041-99.112c5.83-5.843,14.539-12.45,24.891-13.614c3.691-0.415,6.612-0.031,8.533,0.413
		c-4.227-4.822-10.769-7.427-17.542-6.283C-48.694-116.985-55.37-108.522-55.041-99.112z"/>
	<path fill="#BEC0C2" d="M-17.244-99.795c0.139,0.141,0.253,0.306,0.354,0.481c0.009-0.375-0.009-0.75-0.022-1.125
		c-0.28,0.107-0.618,0.181-1.018,0.195C-17.636-100.126-17.406-99.959-17.244-99.795z"/>
	<path fill="#BEC0C2" d="M-20.247-90c0.224,0.009,0.435,0.022,0.635,0.039c0.151-0.251,0.3-0.503,0.438-0.76
		C-19.493-90.462-19.849-90.22-20.247-90z"/>
	<path fill="#BEC0C2" d="M-26.01-98.47c0.377-0.034,0.714-0.077,1.03-0.13c0.984-0.167,1.749-0.433,3.014-0.875
		c0.614-0.215,1.311-0.458,2.194-0.747c0.188-0.062,0.375-0.108,0.55-0.138c0.059-0.01,0.104-0.001,0.161-0.008
		c-0.271-0.062-0.556-0.143-0.866-0.264c-1.852-0.724-3.091-1.33-3.75-1.676c-0.762,0.955-2.621,2.962-5.318,4.09
		c0.626-0.101,1.288-0.142,1.93-0.179C-26.698-98.418-26.35-98.439-26.01-98.47z"/>
	<path fill="#E9E9EA" d="M-48.444-92.103c1.125-3.203,3.769-5.453,5.8-6.02c3.502-0.978,4.875-0.86,6.467-0.723
		c1.01,0.086,2.153,0.185,4.107-0.009c4.637-0.459,7.583-4.724,7.61-4.767c0.212-0.312,0.629-0.404,0.952-0.209
		c0.013,0.008,1.37,0.813,4.097,1.88c1.353,0.529,2.043,0.251,2.378-0.039c-0.038-0.32-0.063-0.641-0.117-0.96
		c-0.042-0.248-0.11-0.485-0.162-0.729l-1.552,0.149c-0.188,0.019-0.375-0.039-0.521-0.159c-0.145-0.121-0.236-0.294-0.253-0.482
		c-0.163-1.793,0.403-3.38,0.736-4.137c-0.368-0.734-0.791-1.431-1.244-2.104c-1.264-0.45-4.856-1.484-9.943-0.895
		c-5.812,0.675-14.801,3.685-24.792,14.067c0.029,0.218,0.04,0.434,0.077,0.652c0.666,3.937,2.515,7.425,5.146,10.132
		c0.019,0.013,0.041,0.017,0.059,0.031c0.012,0.01,0.317,0.271,0.727,0.748c0.193,0.177,0.4,0.339,0.601,0.508
		C-49.35-88.024-49.033-90.424-48.444-92.103z M-45.222-105.046c1.365-0.79,2.73-1.305,4.058-1.528
		c6.188-1.046,9.562,4.312,9.703,4.54c0.104,0.17,0.133,0.374,0.079,0.564c-0.055,0.19-0.185,0.35-0.362,0.438
		c-1.629,0.826-3.184,1.368-4.623,1.611c-6.871,1.161-9.143-4.706-9.165-4.765C-45.654-104.51-45.522-104.873-45.222-105.046z"/>
	<path fill="#616266" d="M0.432-63.875c2.752-3.87,1.077-6.405,1.061-6.43c-0.083-0.122-0.122-0.257-0.138-0.394
		c-5.83-1.958-11.592-3.883-15.14-5.065c-0.466-0.155-0.716-0.656-0.561-1.12c0.154-0.465,0.656-0.715,1.119-0.561
		c1.361,0.454,33.377,11.126,35.043,11.871c0.18,0.081,0.383,0.18,0.606,0.29c1.752,0.857,4.688,2.295,7.85-0.236
		c1.397-1.118,1.961-2.547,1.673-4.25c-0.223-1.316-0.879-2.324-0.885-2.334c-0.031-0.047-0.06-0.096-0.08-0.147L20.245-97.53
		c-1.207-0.005-4.476,0.345-7.489,3.881l6.9,16.494c0.642,0.327,1.182,0.542,1.66,0.728c1.136,0.44,2.056,0.81,3.188,2.227
		l2.37,0.03c0.489,0.006,0.882,0.407,0.875,0.896c-0.006,0.435-0.323,0.793-0.735,0.863c-0.054,0.009-0.107,0.013-0.16,0.012
		l-0.93-0.012c0.889,1.02,1.458,1.445,1.466,1.45c0.395,0.286,0.483,0.839,0.198,1.235c-0.143,0.197-0.35,0.319-0.572,0.356
		c-0.224,0.038-0.459-0.01-0.658-0.151c-0.053-0.037-1.289-0.93-3.002-3.276c-0.961-1.313-1.572-1.55-2.68-1.979
		c-0.562-0.219-1.265-0.491-2.131-0.956c-1.997-1.076-27.101-9.175-36.638-12.217c-0.107-0.027-0.476-0.114-1.027-0.189
		c-0.091,0.002-0.179-0.007-0.269-0.034c-3.009-0.345-10.31-0.124-13.206,9.366c-0.143,0.468-0.638,0.731-1.106,0.589
		c-0.468-0.144-0.73-0.638-0.588-1.105c0.266-0.87,0.566-1.669,0.896-2.404c-0.906,0.225-2.362,0.906-3.229,2.979l-1.009,7.833
		c-0.001,0.011-0.003,0.021-0.005,0.032c-0.006,0.039-0.623,4.05,2.053,6.2c3.083,2.477,13.459,10.286,13.565,10.365
		c0.041,0.031,0.064,0.074,0.098,0.11l15.382-5.693c0.457-0.169,0.969,0.065,1.138,0.523c0.017,0.045,0.012,0.091,0.021,0.137
		l3.316-1.145C-0.897-62.013-0.014-63.246,0.432-63.875z"/>
	<path fill="#616266" d="M45.241-15.503L17.587-38.762c0.033,0.125,0.064,0.243,0.099,0.371c1.064,4.007,2.522,9.483,4.477,14.997
		L38.617-8.935L45.241-15.503z"/>
	<path fill="#616266" d="M-13.816,17.61c0.569-1.921,1.532-5.243,2.056-7.469c0.505-2.146-0.241-4.207-0.687-5.173
		c-1.321,1.497-2.772,3.312-2.829,4.291C-15.375,10.918-14.982,14.516-13.816,17.61z"/>
	<path fill="#616266" d="M33.157,19.704c0.133,0.473-0.141,0.961-0.611,1.094c-0.03,0.008-0.061,0.015-0.093,0.021
		c-0.441,0.074-0.876-0.195-1.001-0.637l-1.271-4.516c-0.002-0.006-0.74-2.326-3.177-4.188c-1.987-1.516-8.069-4.377-16.688-7.844
		C2.729,0.585-5.283-2.833-7.17-5.037c-2.14-2.501-3.656-3.817-5.09-3.133c-1.266,0.604-1.301,2.078-1.213,4.259
		c0.014,0.328,0.027,0.65,0.031,0.961c0.01,0.539,0.047,1.283,0.088,2.068c0.084,1.617,0.143,2.977,0.122,4.074
		c0.249-0.275,0.5-0.552,0.756-0.831c0.533-0.578,1.037-1.125,1.22-1.383c0.362-0.633,0.287-4.412-0.015-7.539
		c-0.047-0.487,0.307-0.92,0.799-0.968c0.486-0.047,0.919,0.31,0.966,0.798C-9.295-4.531-8.9,0.724-9.812,2.007
		c-0.248,0.346-0.715,0.855-1.36,1.555c0,0,0,0-0.001,0.001c0.301,0.528,1.786,3.342,1.22,6.542c0.464-1.13,0.88-2.025,1.179-2.445
		c1.637-2.303,3.566-4.645,5.472-4.547c0.489,0.025,0.864,0.441,0.839,0.928c0,0.009-0.006,0.017-0.007,0.026
		c0.576,0.285,1.063,0.688,1.381,1.036c1.229,1.01,22.8,18.67,25.448,20.832c2.213,1.809,5.821,1.141,7.773,0.584
		c0.656-0.188,1.104-1.426,1.237-2.074l-0.201-6.119c0-0.033-0.016-0.626-0.072-1.619l-0.958-0.625L33.157,19.704z"/>
	<path fill="#616266" d="M-10.894,42.336l0.476-1.451c-2.157-0.39-4.364-0.86-6.61-1.397c-0.603,0.694-1.34,1.353-2.04,1.903
		c-1.385,1.09-4.828,4.422-7.597,7.098c-1.219,1.178-2.369,2.293-3.194,3.07c-0.516,0.486-1.054,1.364-1.597,2.469
		c4.393-0.739,8.805-1.056,12.993-1.349c0.208-0.015,0.412-0.029,0.62-0.044c1.919-2.29,3.159-3.763,3.216-3.83
		C-12.732,46.594-11.058,42.717-10.894,42.336z"/>
	<path fill="#616266" d="M-34.589,61.998c-0.998,2.805-2.03,5.705-3.059,7.84c-2.718,5.639-8.653,10.176-11.719,11.152
		c-0.177,0.057-0.323,0.148-0.466,0.242c1.245,0.529,3.468,1.805,3.703,4.244c0.106,1.1,0.076,1.904,0.049,2.551
		c-0.041,1.08-0.062,1.572,0.529,2.459c0.22,0.334,0.553,0.76,0.938,1.256c0.408,0.522,0.871,1.119,1.326,1.764
		c-0.071-0.437-0.133-0.865-0.169-1.264c-0.622-6.84-0.176-7.98-0.028-8.355c0.416-1.061,15.958-19.695,24.055-29.362
		c-4.188,0.295-8.575,0.644-12.906,1.458C-33.104,57.833-33.869,59.979-34.589,61.998z"/>
	<path fill="#616266" d="M-42.501,98.542c-0.23-2.066-2.004-4.354-3.231-5.93c-0.402-0.516-0.75-0.963-1.001-1.344
		c-0.842-1.27-0.808-2.164-0.763-3.299c0.024-0.633,0.054-1.354-0.045-2.357c-0.186-1.934-2.365-2.913-3.189-3.215
		c-0.382,0.97-0.358,2.117-0.334,2.509c0.4,0.805,2.214,4.441,2.798,5.664c0.315,0.662,0.436,1.566,0.562,2.521
		c0.167,1.27,0.358,2.709,1.01,3.523C-45.776,97.763-43.513,98.453-42.501,98.542z"/>
	<path fill="#616266" d="M-17.751,37.476c0.135-0.25,0.182-0.418,0.175-0.48c-0.082-0.482,0.243-0.939,0.727-1.02
		c0.481-0.082,0.938,0.244,1.021,0.727c0.066,0.391-0.002,0.8-0.167,1.214c2.092,0.489,4.131,0.892,6.142,1.25L0.211,8.458
		C-1.276,7.242-2.218,6.47-2.263,6.433C-2.3,6.402-2.337,6.369-2.367,6.331c-0.011-0.01-1.165-1.289-1.991-0.684
		c-0.179,0.131-0.39,0.175-0.594,0.158C-5.55,6.373-6.325,7.271-7.33,8.685c-0.846,1.188-3.322,8.281-4.782,12.76
		c-0.104,0.316-0.371,0.546-0.695,0.599l-0.009,0.002c-0.329,0.053-0.657-0.084-0.854-0.352c-2.69-3.686-3.524-9.986-3.374-12.541
		c0.06-1.006,0.758-2.214,1.761-3.526c-0.072-0.229-0.057-0.483,0.073-0.707c0.355-0.621,0.176-4.059,0.088-5.711
		c-0.042-0.801-0.082-1.561-0.09-2.133c-0.004-0.297-0.018-0.604-0.031-0.916c-0.087-2.127-0.194-4.776,2.22-5.929
		c2.938-1.404,5.504,1.595,7.2,3.58c1.857,2.17,13.105,6.695,16.803,8.182c5.148,2.072,14.216,5.873,17.103,8.08
		c1.837,1.403,2.855,3.018,3.365,4.049c0.149-0.011,0.302,0.013,0.437,0.101l1.096,0.715c-0.436-5.687-1.844-17.226-6.286-24.294
		c-2.41-3.835-4.402-8.433-6.047-13.013L20.041-22.9c-0.367-0.323-0.402-0.883-0.08-1.25c0.014-0.016,0.033-0.021,0.047-0.036
		c-0.791-2.321-1.491-4.605-2.116-6.762l-4.252,5.555c-0.11,0.143-0.271,0.239-0.444,0.268c-0.018,0.003-0.035,0.005-0.055,0.007
		c-0.195,0.018-0.393-0.047-0.538-0.18c-0.139-0.125-13.736-12.22-27.832-9.405c-1.665,2.026-3.586,4.873-4.747,8.471
		c-2.295,7.111-0.89,14.745,4.179,22.689c0.263,0.412,0.144,0.961-0.271,1.223c-0.104,0.063-0.217,0.104-0.329,0.124
		c-0.341,0.059-0.697-0.088-0.896-0.396c-0.753-1.18-1.42-2.354-2.02-3.522l1.126,32.622c0.074,0.935,0.471,6.526-0.191,10.811
		C-18.168,37.372-17.96,37.424-17.751,37.476z M12.115-3.165L7.599-1.354C7.551-1.335,7.502-1.321,7.451-1.313
		c-0.32,0.055-0.646-0.119-0.774-0.436c-0.146-0.361,0.03-0.775,0.396-0.92l4.515-1.812c0.365-0.146,0.776,0.03,0.922,0.394
		C12.655-3.723,12.479-3.31,12.115-3.165z M3.432-3.921l8.075-4.299c0.349-0.186,0.775-0.053,0.959,0.293
		c0.185,0.345,0.055,0.774-0.292,0.959L4.098-2.669C4.03-2.632,3.955-2.608,3.883-2.595C3.59-2.546,3.286-2.685,3.139-2.962
		C2.955-3.306,3.086-3.735,3.432-3.921z"/>
	<path fill="#616266" d="M-33.78-20.913c0.529-0.094,1.077-0.19,1.521-0.335c0.57-0.187,1.137-0.5,1.681-0.878
		c0.042-0.063,0.082-0.124,0.125-0.188c0.941-1.391,1.831-2.707-1.006-5.613c-0.021-0.021-0.043-0.045-0.064-0.066l-2.948,7.209
		C-34.241-20.83-34.01-20.873-33.78-20.913z"/>
	<path fill="#FFFFFF" d="M12.008-67.107c-2.582-0.875-5.501-1.859-8.474-2.859c0.416,1.455,0.565,3.99-1.657,7.117
		c-1.538,2.166-8.113,11.315-14.384,20.037c0.475,0.499,1.094,1.329,1.202,2.36c0.086,0.829-0.187,1.636-0.783,2.333
		c-0.152,0.179-0.373,0.402-0.676,0.712c-0.269,0.273-0.613,0.631-0.983,1.026c5.64-0.673,11.886,0.668,18.214,3.937
		c4.207,2.173,7.273,4.568,8.502,5.59l0.038-0.041l4.402-5.751c-0.541-1.928-1.02-3.725-1.436-5.292
		c-0.319-1.201-0.596-2.238-0.833-3.084c-1.689-5.987-3.095-25.119-3.15-25.931C11.985-67.007,12.003-67.056,12.008-67.107z"/>
	<path fill="#FFFFFF" d="M50.558-8.768l1.138,0.612l-0.873-2.062l-5.602-2.705c-0.015-0.007-0.023-0.021-0.038-0.028l-2.861,2.838
		c0.159,0.076,0.304,0.185,0.397,0.35c2.36,4.194,6.422,3.562,6.463,3.555c0.194-0.032,0.398,0.001,0.573,0.097l5.548,3.046
		l0.021,0.014c0.15,0.084,0.564,0.238,0.824,0.154c0.053-0.014,0.19-0.059,0.332-0.346c0.034-0.074,0.026-0.098,0.02-0.119
		c-0.061-0.178-0.373-0.404-0.521-0.479c-0.013-0.006-0.022-0.01-0.033-0.016l-6.227-3.351c-0.433-0.232-0.594-0.769-0.361-1.199
		C49.59-8.838,50.128-8.999,50.558-8.768z"/>
	<path fill="#FFFFFF" d="M58.931-6.304l-5.692-2.748l0.877,2.073c0.02,0.046,0.018,0.094,0.029,0.141l2.625,1.413
		c0.221,0.11,1.097,0.594,1.403,1.482c0.168,0.483,0.134,0.995-0.102,1.476c-0.396,0.814-0.988,1.139-1.416,1.268
		c-0.013,0.004-0.027,0.006-0.04,0.01c-0.021,0.176-0.049,0.387-0.085,0.642l3.036-0.018L58.931-6.304z"/>
	<path fill="#FFFFFF" d="M54.44-1.517l-2.349-1.291l0.25,2.285l2.391-0.014c0.048-0.313,0.086-0.583,0.113-0.791
		C54.64-1.408,54.494-1.486,54.44-1.517z"/>
	<path fill="#FFFFFF" d="M10.069-98.879c0.153,0.081,0.278,0.205,0.362,0.356l1.646,2.999c1.467-1.514,2.968-2.43,4.314-2.977
		l-3.222-5.379l-11.729-6.264l-1.408,0.401l4.927,2.658c0.443,0.239,0.769,0.637,0.911,1.119c0.146,0.483,0.093,0.993-0.146,1.437
		c-0.277,0.514-0.769,0.865-1.347,0.963c-0.412,0.07-0.841-0.001-1.209-0.199l-1.385-0.748l0.596,1.561L10.069-98.879z"/>
	<path fill="#BEC0C2" d="M-39.861-39.506c0.06,0.066,6.048,6.622,9.675,10.342c1.71,1.753,2.329,3.208,2.406,4.414
		c0.753-0.879,1.231-1.575,1.242-1.592c0.216-0.301,17.471-24.279,24.433-33.987l-3.253,1.225c0.015,0.372-0.197,0.728-0.564,0.864
		l-32.771,12.131c-0.02,0.007-0.04,0.013-0.06,0.02c-0.089,0.027-2.265,0.714-2.833,2.989c-0.311,1.242,1.152,3.031,1.689,3.56
		C-39.884-39.53-39.873-39.517-39.861-39.506z"/>
	<path fill="#BEC0C2" d="M-4.982-110.305c-0.019,0.034-0.046,0.061-0.066,0.095l9.057,4.886c0.023,0.013,0.05,0.017,0.074,0.012
		c0.021-0.003,0.06-0.016,0.082-0.058c0.015-0.028,0.019-0.058,0.009-0.087c-0.009-0.029-0.027-0.052-0.056-0.068l-9.057-4.885
		C-4.955-110.376-4.964-110.339-4.982-110.305z"/>
	<path fill="#FFFFFF" d="M-20.37-95.78c0.991-0.933,0.791-2.744,0.756-3.001c-0.736,0.244-1.344,0.456-1.882,0.645
		c-1.29,0.451-2.143,0.749-3.246,0.935c-0.353,0.06-0.724,0.107-1.138,0.144c-0.364,0.033-0.74,0.055-1.103,0.075
		c-0.625,0.037-1.271,0.075-1.839,0.171c-1.22,0.206-1.816,0.623-2.066,1.439c-0.036,0.119-0.048,0.267-0.034,0.434
		C-27.349-92.435-21.623-94.6-20.37-95.78z"/>
	<path fill="#BABCBE" d="M-23.089-90.501c0.093-0.016,0.185-0.033,0.276-0.052c0.611-0.126,1.14-0.317,1.61-0.543
		c-0.695-0.414-1.852-0.938-3.11-0.821c-0.858,0.08-1.659,0.46-2.387,1.122C-25.636-90.435-24.421-90.276-23.089-90.501z"/>
	<path fill="#231F20" d="M3.883-2.595C3.955-2.608,4.03-2.632,4.098-2.669l8.076-4.299c0.347-0.185,0.477-0.614,0.292-0.959
		c-0.184-0.346-0.61-0.479-0.959-0.293L3.432-3.921C3.086-3.735,2.955-3.306,3.139-2.962C3.286-2.685,3.59-2.546,3.883-2.595z"/>
	<path fill="#231F20" d="M11.587-4.481L7.072-2.669C6.707-2.524,6.531-2.11,6.677-1.749c0.128,0.317,0.454,0.491,0.774,0.436
		c0.051-0.008,0.1-0.022,0.148-0.041l4.516-1.811c0.364-0.145,0.54-0.558,0.394-0.922C12.363-4.451,11.952-4.627,11.587-4.481z"/>
	<path fill="#231F20" d="M60.638-6.986c-0.034-0.303-0.221-0.567-0.496-0.701l-7.949-3.838L30.26-63.374
		c0.371-0.217,0.744-0.461,1.121-0.761c3.636-2.907,2.398-7.035,1.198-8.883L21.661-98.729c-0.122-0.287-0.383-0.488-0.691-0.531
		c-0.101-0.014-1.23-0.151-2.842,0.209l-3.563-5.952c-0.082-0.139-0.201-0.251-0.343-0.327l-12.264-6.548
		c-0.201-0.108-0.437-0.132-0.66-0.07l-2.901,0.829c-0.168,0.048-0.298,0.151-0.406,0.273l-2.469-1.332
		c0.021-0.462-0.015-0.928-0.145-1.382c-0.312-1.099-1.035-1.999-2.028-2.537c-0.824-0.443-1.748-0.594-2.675-0.438
		c-1.317,0.223-2.44,1.034-3.083,2.223c-1.128,2.088-0.378,4.685,1.672,5.79c0.819,0.443,1.744,0.594,2.672,0.438
		c0.667-0.113,1.283-0.378,1.813-0.766l5.861,3.162c-0.036,0.163-0.042,0.333,0.022,0.501l1.211,3.175
		c0.076,0.2,0.225,0.366,0.414,0.467l7.748,4.104l1.826,3.326c0.016,0.028,0.04,0.048,0.058,0.074
		c-0.053,0.189-0.05,0.393,0.028,0.581l6.415,15.336c-2.159-0.795-5.701-2.002-9.731-3.344c0.147-3.115-0.832-5.524-1.95-7.21
		c2.238,1.667,2.871,4.195,2.906,4.341c0.106,0.457,0.549,0.751,1.01,0.673l0.01-0.001c0.463-0.083,0.784-0.515,0.723-0.983
		c-0.046-0.361-1.2-8.892-8.155-10.753c-1.696-0.453-3.425-0.665-5.098-0.869c-4.75-0.58-9.235-1.134-12.486-7.162
		c-2.005-11.24-12.729-18.818-24.011-16.912c-11.346,1.917-19.015,12.706-17.098,24.051c0.794,4.704,3.125,8.833,6.441,11.886
		c0.954,1.14,2.525,3.707,1.14,7.156c-2.176,5.416-2.661,11.375-1.33,16.35c1.528,5.72,5.382,10.195,11.186,13.054l-0.174,0.064
		c-0.375,0.119-3.236,1.121-4.019,4.25c-0.603,2.401,1.786,4.878,2.147,5.236c0.305,0.333,4.794,5.242,8.292,8.906l-4.083,9.99
		c-1.606,2.901,0.721,4.261,2.78,5.461c5.545,3.23,12.525,7.612,12.595,7.655c0.152,0.096,0.322,0.125,0.489,0.123l1.128,32.748
		c0.001,0.012,0.002,0.027,0.003,0.041c0.231,2.883,0.29,7.148-0.146,10.257c-0.055-0.015-0.108-0.026-0.164-0.041
		c-0.473-0.127-0.959,0.152-1.086,0.627c-0.128,0.471,0.151,0.957,0.625,1.084c0.097,0.026,0.192,0.049,0.289,0.075
		c-0.212,0.817-0.479,1.468-0.821,1.844c-0.168,0.186-0.241,0.423-0.225,0.655c-1.692,1.521-4.163,3.91-6.413,6.087
		c-1.214,1.174-2.362,2.283-3.179,3.053c-0.877,0.826-1.707,2.308-2.523,4.156c-5.85,1.189-11.596,3.258-16.659,7.215
		c-4.104,3.211-7.422,7.998-9.34,13.484c-2.033,5.811-2.396,11.951-1.049,17.758c1.862,8.033,8.82,22.316,34.5,27.732
		c0.111,0.024,0.225,0.026,0.331,0.008c0.348-0.061,0.642-0.326,0.72-0.692c0.101-0.479-0.205-0.949-0.683-1.049
		c-10.61-2.24-29.024-8.642-33.141-26.398c-1.271-5.48-0.926-11.281,0.995-16.773c1.81-5.17,4.921-9.67,8.761-12.672
		c4.455-3.483,9.523-5.442,14.739-6.624c-0.608,1.55-1.215,3.251-1.833,4.99c-0.982,2.76-1.999,5.613-2.985,7.662
		c-2.59,5.375-8.23,9.459-10.661,10.236c-1.464,0.469-2.43,1.68-2.792,3.504c-0.252,1.263-0.123,2.396-0.117,2.445
		c0.012,0.1,0.041,0.199,0.087,0.289c0.021,0.047,2.222,4.457,2.859,5.793c0.195,0.408,0.298,1.176,0.404,1.988
		c0.199,1.5,0.424,3.197,1.383,4.398c1.417,1.772,4.814,2.805,6.305,2.553c0.135-0.023,0.253-0.056,0.354-0.099
		c1.146-0.502,0.816-2.144,0.271-4.867c-0.224-1.122-0.456-2.28-0.542-3.227c-0.421-4.635-0.359-6.907-0.156-7.512
		c0.934-1.532,17.257-21.136,24.866-30.217c9.769-0.695,18.098-1.56,21.638-8.197c0.658-1.232,1.124-2.476,1.412-3.721
		c3.715-0.014,7.257-0.304,10.621-0.872c7.444-1.258,14.017-3.875,19.682-7.845c9.495-6.656,14.509-15.936,17.044-22.551
		c1.558-4.066,2.391-7.6,2.823-9.939L60.561,1.2c0.048,0,0.095-0.004,0.141-0.012c0.199-0.033,0.38-0.132,0.515-0.285
		c0.168-0.19,0.246-0.438,0.22-0.688L60.638-6.986z M4.58,40.644c-4.018-0.065-8.243-0.455-12.672-1.168l4.272-13.031
		c0.958,0.642,3.533,2.505,5.587,5.248C3.965,34.628,4.899,37.625,4.58,40.644z M-48.267,90.57
		c-0.584-1.223-2.397-4.859-2.798-5.664c-0.024-0.393-0.048-1.539,0.334-2.509c0.824,0.302,3.003,1.281,3.189,3.215
		c0.099,1.003,0.069,1.724,0.045,2.357c-0.045,1.135-0.079,2.029,0.763,3.299c0.251,0.381,0.599,0.828,1.001,1.344
		c1.227,1.575,3.001,3.863,3.231,5.93c-1.012-0.088-3.274-0.779-4.194-1.927c-0.651-0.814-0.843-2.253-1.01-3.523
		C-47.831,92.136-47.951,91.232-48.267,90.57z M-43.484,83.887c-0.147,0.375-0.594,1.515,0.028,8.355
		c0.036,0.399,0.098,0.827,0.169,1.264c-0.455-0.645-0.918-1.242-1.326-1.764c-0.386-0.496-0.719-0.922-0.938-1.256
		c-0.591-0.887-0.57-1.379-0.529-2.459c0.027-0.647,0.058-1.451-0.049-2.551c-0.235-2.438-2.458-3.715-3.703-4.244
		c0.143-0.094,0.289-0.186,0.466-0.242c3.065-0.976,9.001-5.513,11.719-11.152c1.028-2.135,2.061-5.035,3.059-7.84
		c0.72-2.02,1.485-4.166,2.255-6.015c4.331-0.814,8.718-1.163,12.906-1.458C-27.525,64.192-43.068,82.827-43.484,83.887z
		 M-18.464,52.679c-4.188,0.293-8.6,0.61-12.993,1.349c0.543-1.105,1.081-1.983,1.597-2.469c0.825-0.777,1.976-1.892,3.194-3.07
		c2.769-2.676,6.212-6.008,7.597-7.098c0.7-0.55,1.438-1.209,2.04-1.903c2.247,0.537,4.453,1.007,6.61,1.397l-0.476,1.451
		c-0.164,0.381-1.838,4.258-3.734,6.469c-0.057,0.067-1.297,1.541-3.216,3.83C-18.052,52.65-18.256,52.665-18.464,52.679z
		 M-41.585-43.1c0.568-2.275,2.744-2.962,2.833-2.989c0.02-0.007,0.04-0.013,0.06-0.02L-5.922-58.24
		c0.368-0.136,0.579-0.492,0.564-0.864c-0.001-0.046-0.012-0.091-0.021-0.137s-0.005-0.091-0.021-0.137
		c-0.169-0.458-0.681-0.692-1.138-0.523l-15.382,5.693c-0.034-0.036-0.057-0.08-0.098-0.11c-0.106-0.079-10.482-7.888-13.565-10.365
		c-2.676-2.15-2.059-6.161-2.053-6.2c0.002-0.011,0.004-0.021,0.005-0.032l1.009-7.833c0.866-2.073,2.322-2.754,3.229-2.979
		c-0.329,0.735-0.63,1.534-0.896,2.404c-0.143,0.467,0.12,0.961,0.588,1.105c0.469,0.142,0.964-0.121,1.106-0.589
		c2.896-9.489,10.196-9.711,13.206-9.366c0.09,0.027,0.178,0.037,0.269,0.034c0.552,0.075,0.92,0.162,1.027,0.189
		c9.537,3.042,34.641,11.141,36.638,12.217c0.866,0.465,1.568,0.737,2.131,0.956c1.107,0.429,1.719,0.666,2.68,1.979
		c1.713,2.346,2.949,3.239,3.002,3.276c0.199,0.141,0.435,0.189,0.658,0.151c0.223-0.037,0.43-0.159,0.572-0.356
		c0.285-0.396,0.196-0.949-0.198-1.235c-0.008-0.005-0.578-0.43-1.466-1.45l0.93,0.012c0.053,0.001,0.106-0.003,0.16-0.012
		c0.412-0.07,0.729-0.428,0.735-0.863c0.007-0.489-0.386-0.89-0.875-0.896l-2.37-0.03c-1.131-1.417-2.052-1.787-3.188-2.227
		c-0.478-0.186-1.018-0.401-1.66-0.728l-6.9-16.494c3.014-3.536,6.282-3.886,7.489-3.881L30.98-72.251
		c0.021,0.051,0.049,0.1,0.08,0.147c0.006,0.01,0.662,1.018,0.885,2.334c0.288,1.703-0.275,3.132-1.673,4.25
		c-3.162,2.531-6.098,1.093-7.85,0.236c-0.224-0.11-0.427-0.209-0.606-0.29c-1.666-0.745-33.682-11.417-35.043-11.871
		c-0.463-0.154-0.965,0.096-1.119,0.561c-0.155,0.464,0.095,0.965,0.561,1.12c3.548,1.183,9.31,3.108,15.14,5.065
		c0.017,0.137,0.055,0.272,0.138,0.394c0.017,0.025,1.691,2.56-1.061,6.43c-0.447,0.629-1.329,1.862-2.496,3.489
		c-0.014,0.02-0.027,0.038-0.042,0.058c-6.962,9.708-24.217,33.686-24.433,33.987c-0.011,0.017-0.489,0.713-1.242,1.592
		c-0.077-1.206-0.696-2.661-2.406-4.414c-3.627-3.72-9.615-10.276-9.675-10.342c-0.013-0.011-0.023-0.024-0.035-0.034
		C-40.433-40.069-41.896-41.858-41.585-43.1z M-21.617-112.313c-1.921-0.444-4.842-0.828-8.533-0.413
		c-10.352,1.165-19.061,7.771-24.891,13.614c-0.329-9.411,6.348-17.873,15.882-19.484
		C-32.386-119.741-25.844-117.135-21.617-112.313z M-20.247-90c0.398-0.219,0.754-0.462,1.073-0.722
		c-0.138,0.257-0.287,0.509-0.438,0.76C-19.813-89.978-20.024-89.992-20.247-90z M-32.536-83.61
		c-0.142-0.005-3.119-0.065-5.034,2.873c-2.995-0.249-5.791-1.197-8.239-2.669c-2.209-3.494-1.948-6.377-1.299-8.228
		c0.954-2.717,3.208-4.668,4.845-5.126c3.253-0.908,4.45-0.806,5.963-0.676c1.071,0.093,2.284,0.195,4.368-0.011
		c0.229-0.022,0.453-0.052,0.673-0.09c0.189-0.032,0.361-0.091,0.544-0.133c-0.623,0.347-1.235,0.917-1.53,1.883
		c-0.335,1.101,0.153,2.542,1.308,3.856c1.084,1.232,2.854,2.4,5.041,2.797c-2.211,0.832-4.648,2.452-6.524,5.552
		C-32.46-83.589-32.495-83.608-32.536-83.61z M-49.6-86.424c-0.018-0.015-0.04-0.018-0.059-0.031
		c-2.632-2.707-4.481-6.195-5.146-10.132c-0.037-0.218-0.047-0.434-0.077-0.652c9.991-10.383,18.98-13.392,24.792-14.067
		c5.087-0.59,8.68,0.444,9.943,0.895c0.454,0.673,0.876,1.369,1.244,2.104c-0.333,0.757-0.899,2.344-0.736,4.137
		c0.017,0.188,0.108,0.361,0.253,0.482c0.146,0.12,0.333,0.178,0.521,0.159l1.552-0.149c0.051,0.244,0.12,0.481,0.162,0.729
		c0.054,0.319,0.08,0.64,0.117,0.96c-0.335,0.29-1.025,0.568-2.378,0.039c-2.727-1.067-4.084-1.872-4.097-1.88
		c-0.323-0.195-0.74-0.103-0.952,0.209c-0.027,0.043-2.974,4.308-7.61,4.767c-1.954,0.194-3.098,0.095-4.107,0.009
		c-1.592-0.137-2.965-0.255-6.467,0.723c-2.031,0.567-4.675,2.817-5.8,6.02c-0.589,1.679-0.906,4.079,0.171,6.935
		c-0.201-0.169-0.407-0.331-0.601-0.508C-49.282-86.153-49.588-86.414-49.6-86.424z M-16.891-99.314
		c-0.1-0.175-0.214-0.34-0.354-0.481c-0.162-0.165-0.392-0.332-0.686-0.45c0.4-0.014,0.738-0.088,1.018-0.195
		C-16.9-100.064-16.882-99.688-16.891-99.314z M-30.888-95.373c0.25-0.816,0.847-1.233,2.066-1.439
		c0.567-0.096,1.214-0.134,1.839-0.171c0.362-0.02,0.738-0.042,1.103-0.075c0.414-0.037,0.785-0.084,1.138-0.144
		c1.104-0.186,1.956-0.484,3.246-0.935c0.539-0.188,1.146-0.401,1.882-0.645c0.034,0.257,0.235,2.068-0.756,3.001
		c-1.252,1.181-6.979,3.346-10.552,0.841C-30.936-95.106-30.924-95.254-30.888-95.373z M-24.313-91.917
		c1.258-0.118,2.416,0.407,3.11,0.821c-0.471,0.227-0.999,0.417-1.61,0.543c-0.092,0.019-0.184,0.036-0.276,0.052
		c-1.332,0.225-2.547,0.066-3.611-0.294C-25.972-91.457-25.171-91.837-24.313-91.917z M-23.677-102.308
		c0.659,0.346,1.898,0.952,3.75,1.676c0.311,0.122,0.595,0.202,0.866,0.264c-0.057,0.006-0.102-0.002-0.161,0.008
		c-0.175,0.03-0.361,0.076-0.55,0.138c-0.884,0.289-1.58,0.532-2.194,0.747c-1.265,0.442-2.029,0.708-3.014,0.875
		c-0.316,0.053-0.653,0.096-1.03,0.13c-0.34,0.031-0.688,0.052-1.056,0.073c-0.642,0.038-1.303,0.078-1.93,0.179
		C-26.298-99.346-24.439-101.353-23.677-102.308z M4.119-105.525c0.028,0.016,0.047,0.039,0.056,0.068
		c0.01,0.029,0.006,0.059-0.009,0.087c-0.022,0.042-0.062,0.055-0.082,0.058c-0.024,0.005-0.051,0.001-0.074-0.012l-9.057-4.886
		c0.02-0.034,0.047-0.061,0.066-0.095c0.018-0.034,0.027-0.071,0.044-0.105L4.119-105.525z M3.17-103.765
		c0.368,0.198,0.797,0.269,1.209,0.199c0.578-0.098,1.069-0.449,1.347-0.963c0.239-0.444,0.292-0.954,0.146-1.437
		c-0.143-0.482-0.468-0.88-0.911-1.119l-4.927-2.658l1.408-0.401l11.729,6.264l3.222,5.379c-1.347,0.547-2.848,1.463-4.314,2.977
		l-1.646-2.999c-0.084-0.151-0.209-0.275-0.362-0.356l-7.688-4.073l-0.596-1.561L3.17-103.765z M15.139-41.022
		c0.237,0.846,0.514,1.883,0.833,3.084c0.416,1.567,0.895,3.364,1.436,5.292l-4.402,5.751l-0.034,0.044
		c-0.001-0.001-0.003-0.002-0.004-0.003c-1.229-1.022-4.295-3.417-8.502-5.59c-6.328-3.269-12.574-4.61-18.214-3.937
		c0.37-0.395,0.715-0.753,0.983-1.026c0.303-0.31,0.523-0.533,0.676-0.712c0.597-0.697,0.869-1.504,0.783-2.333
		c-0.108-1.031-0.727-1.861-1.202-2.36c6.271-8.722,12.846-17.872,14.384-20.037c2.223-3.127,2.073-5.662,1.657-7.117
		c2.973,1,5.892,1.983,8.474,2.859c-0.005,0.052-0.023,0.1-0.019,0.154C12.045-66.141,13.45-47.009,15.139-41.022z M17.685-38.391
		c-0.034-0.128-0.065-0.247-0.099-0.371l27.654,23.259l-6.624,6.568L22.162-23.394C20.207-28.908,18.75-34.384,17.685-38.391z
		 M-31.458-27.928c2.837,2.906,1.947,4.222,1.006,5.613c-0.043,0.064-0.083,0.125-0.125,0.188c-0.544,0.378-1.11,0.692-1.681,0.878
		c-0.444,0.145-0.992,0.241-1.521,0.335c-0.231,0.041-0.462,0.083-0.691,0.128l2.948-7.209
		C-31.502-27.973-31.479-27.949-31.458-27.928z M-18.186,26.508l-1.126-32.622c0.6,1.168,1.267,2.342,2.02,3.522
		c0.198,0.308,0.555,0.455,0.896,0.396c0.112-0.02,0.225-0.061,0.329-0.124c0.414-0.262,0.533-0.811,0.271-1.223
		c-5.068-7.944-6.474-15.578-4.179-22.689c1.161-3.598,3.082-6.445,4.747-8.471c14.096-2.815,27.693,9.28,27.832,9.405
		c0.146,0.133,0.343,0.198,0.538,0.18c0.02-0.002,0.037-0.004,0.055-0.007c0.174-0.029,0.334-0.125,0.444-0.268l4.252-5.555
		c0.625,2.156,1.325,4.44,2.116,6.762c-0.015,0.015-0.034,0.021-0.047,0.036c-0.322,0.367-0.287,0.927,0.08,1.25l0.604,0.531
		c1.646,4.581,3.638,9.178,6.047,13.013c4.442,7.068,5.85,18.607,6.286,24.294l-1.096-0.715c-0.135-0.088-0.288-0.112-0.437-0.101
		c-0.51-1.031-1.528-2.646-3.365-4.049c-2.887-2.207-11.954-6.008-17.103-8.08C7.281,0.506-3.967-4.019-5.824-6.189
		c-1.696-1.985-4.263-4.984-7.2-3.58c-2.414,1.153-2.307,3.802-2.22,5.929c0.014,0.312,0.027,0.619,0.031,0.916
		c0.008,0.572,0.048,1.332,0.09,2.133c0.088,1.652,0.268,5.09-0.088,5.711c-0.13,0.224-0.145,0.478-0.073,0.707
		c-1.002,1.312-1.701,2.52-1.761,3.526c-0.15,2.555,0.684,8.855,3.374,12.541c0.197,0.268,0.525,0.405,0.854,0.352l0.009-0.002
		c0.324-0.053,0.591-0.283,0.695-0.599c1.46-4.479,3.937-11.572,4.782-12.76c1.005-1.415,1.781-2.312,2.377-2.88
		c0.205,0.017,0.416-0.027,0.594-0.158c0.826-0.605,1.98,0.674,1.991,0.684c0.03,0.038,0.067,0.071,0.104,0.102
		c0.045,0.037,0.987,0.809,2.474,2.025L-9.855,39.166c-2.011-0.358-4.05-0.761-6.142-1.25c0.165-0.414,0.233-0.823,0.167-1.214
		c-0.083-0.483-0.539-0.809-1.021-0.727c-0.483,0.081-0.809,0.538-0.727,1.02c0.007,0.062-0.04,0.23-0.175,0.48
		c-0.208-0.052-0.417-0.104-0.626-0.157C-17.715,33.034-18.112,27.443-18.186,26.508z M33.169,18.326l0.201,6.119
		c-0.134,0.648-0.581,1.886-1.237,2.074c-1.952,0.557-5.561,1.225-7.773-0.584C21.711,23.773,0.14,6.113-1.089,5.103
		C-1.406,4.756-1.894,4.352-2.47,4.067c0.001-0.009,0.006-0.017,0.007-0.026c0.025-0.487-0.35-0.903-0.839-0.928
		C-5.207,3.015-7.137,5.357-8.774,7.66c-0.299,0.42-0.715,1.315-1.179,2.445c0.566-3.2-0.919-6.014-1.22-6.542
		c0,0,0.001-0.001,0.001-0.001c0.646-0.7,1.112-1.209,1.36-1.555C-8.9,0.724-9.295-4.531-9.506-6.73
		c-0.047-0.488-0.479-0.845-0.966-0.798c-0.492,0.048-0.846,0.481-0.799,0.968c0.302,3.127,0.377,6.906,0.015,7.539
		c-0.183,0.258-0.687,0.805-1.22,1.383c-0.256,0.279-0.508,0.555-0.756,0.831c0.021-1.097-0.037-2.457-0.122-4.074
		c-0.041-0.785-0.078-1.529-0.088-2.068c-0.004-0.311-0.018-0.633-0.031-0.961c-0.088-2.181-0.053-3.655,1.213-4.259
		c1.434-0.684,2.95,0.632,5.09,3.133c1.887,2.204,9.899,5.622,17.487,8.671c8.618,3.467,14.7,6.328,16.688,7.844
		c2.437,1.862,3.175,4.182,3.177,4.188l1.271,4.516c0.125,0.442,0.56,0.711,1.001,0.637c0.032-0.006,0.062-0.013,0.093-0.021
		c0.471-0.133,0.744-0.621,0.611-1.094l-1.019-3.623l0.958,0.625C33.153,17.7,33.168,18.293,33.169,18.326z M-12.447,4.968
		c0.445,0.966,1.191,3.027,0.687,5.173c-0.523,2.226-1.486,5.547-2.056,7.469c-1.166-3.094-1.559-6.691-1.46-8.351
		C-15.219,8.28-13.767,6.465-12.447,4.968z M49.719-7.208l6.227,3.351c0.011,0.006,0.021,0.01,0.033,0.016
		c0.147,0.075,0.46,0.301,0.521,0.479c0.007,0.021,0.015,0.045-0.02,0.119c-0.142,0.287-0.279,0.332-0.332,0.346
		c-0.26,0.084-0.674-0.07-0.824-0.154l-0.021-0.014l-5.548-3.046c-0.175-0.096-0.379-0.129-0.573-0.097
		c-0.041,0.007-4.103,0.639-6.463-3.555c-0.093-0.165-0.238-0.273-0.397-0.35l2.861-2.838c0.014,0.008,0.023,0.021,0.038,0.028
		l5.602,2.705l0.873,2.062l-1.138-0.612c-0.431-0.231-0.969-0.07-1.2,0.361C49.126-7.977,49.287-7.44,49.719-7.208z M52.342-0.523
		l-0.25-2.285l2.349,1.291c0.054,0.031,0.2,0.109,0.405,0.189c-0.026,0.208-0.064,0.477-0.113,0.791L52.342-0.523z M56.616-1.189
		c0.013-0.004,0.027-0.005,0.04-0.01c0.428-0.129,1.02-0.454,1.416-1.268c0.235-0.481,0.27-0.993,0.102-1.476
		c-0.307-0.888-1.183-1.372-1.403-1.482l-2.625-1.413c-0.012-0.047-0.01-0.095-0.029-0.141l-0.877-2.073l5.692,2.748l0.636,5.738
		l-3.036,0.018C56.567-0.802,56.594-1.013,56.616-1.189z M49.777-12.691l-3.266-1.577l0.664-0.659
		c0.179-0.175,0.274-0.416,0.264-0.664c-0.01-0.249-0.125-0.483-0.315-0.643L16.777-41.759c-1.454-5.502-2.729-21.494-2.978-24.74
		c3.992,1.357,6.867,2.352,7.296,2.543c0.163,0.074,0.348,0.163,0.551,0.263c1.272,0.624,3.487,1.709,6.064,1.273
		c0.307-0.051,0.619-0.128,0.935-0.226L49.777-12.691z M3.093,45.322c-2.896,5.435-9.991,6.482-18.482,7.134
		c1.051-1.251,1.802-2.141,2.106-2.496c2.167-2.528,3.963-6.791,4.038-6.973c0.008-0.021,0.016-0.043,0.023-0.064l0.57-1.739
		c4.502,0.737,8.805,1.149,12.901,1.232C3.99,43.383,3.61,44.353,3.093,45.322z M35.358,32.265
		c-7.852,5.503-17.564,8.282-29.004,8.374c0.304-3.411-0.762-6.813-3.199-10.05c-2.661-3.535-6.006-5.644-6.403-5.886l4.931-15.04
		c6.645,5.44,19.546,16.004,21.557,17.647c2.15,1.752,5.116,1.748,7.423,1.357c0.737-0.125,1.407-0.287,1.957-0.443
		c1.93-0.551,2.46-3.246,2.514-3.551c0.012-0.061,0.016-0.123,0.015-0.184l-0.206-6.209c-0.016-0.752-0.447-18.553-6.748-28.578
		c-1.794-2.854-3.351-6.164-4.708-9.576L38.069-7.058c0.207,0.183,0.478,0.25,0.731,0.207c0.175-0.029,0.343-0.111,0.478-0.242
		l1.876-1.861c0.009,0.02,0.009,0.041,0.02,0.061c2.576,4.571,6.771,4.574,7.978,4.47l1.042,0.573l0.476,4.316
		c0.051,0.451,0.435,0.793,0.887,0.789l2.865-0.018C53.156,7.716,48.863,22.801,35.358,32.265z"/>
	<path fill="#231F20" d="M-36.367-99.42c1.439-0.243,2.994-0.785,4.623-1.611c0.178-0.089,0.308-0.249,0.362-0.438
		c0.054-0.19,0.025-0.395-0.079-0.564c-0.141-0.228-3.516-5.586-9.703-4.54c-1.327,0.223-2.692,0.738-4.058,1.528
		c-0.3,0.173-0.432,0.536-0.311,0.861C-45.51-104.126-43.239-98.259-36.367-99.42z M-42.073-103.433
		c-0.321,0.054-0.625-0.162-0.681-0.484c-0.054-0.321,0.162-0.626,0.483-0.68c0.323-0.055,0.627,0.162,0.681,0.483
		C-41.534-103.792-41.751-103.487-42.073-103.433z M-38.927-104.563c0.097,0.574-0.29,1.118-0.864,1.215
		c-0.574,0.097-1.118-0.29-1.215-0.864c-0.097-0.574,0.289-1.118,0.864-1.215C-39.568-105.524-39.024-105.138-38.927-104.563z"/>
	<circle fill="#FFFFFF" cx="-39.967" cy="-104.387" r="1.054"/>
	<circle fill="#FFFFFF" cx="-42.171" cy="-104.015" r="0.59"/>
</g>
</svg>
