<?xml version="1.0" encoding="utf-8"?>
<!-- Generator: Adobe Illustrator 16.0.0, SVG Export Plug-In . SVG Version: 6.00 Build 0)  -->
<!DOCTYPE svg PUBLIC "-//W3C//DTD SVG 1.1//EN" "http://www.w3.org/Graphics/SVG/1.1/DTD/svg11.dtd" [
	<!ENTITY ns_extend "http://ns.adobe.com/Extensibility/1.0/">
	<!ENTITY ns_ai "http://ns.adobe.com/AdobeIllustrator/10.0/">
	<!ENTITY ns_graphs "http://ns.adobe.com/Graphs/1.0/">
	<!ENTITY ns_vars "http://ns.adobe.com/Variables/1.0/">
	<!ENTITY ns_imrep "http://ns.adobe.com/ImageReplacement/1.0/">
	<!ENTITY ns_sfw "http://ns.adobe.com/SaveForWeb/1.0/">
	<!ENTITY ns_custom "http://ns.adobe.com/GenericCustomNamespace/1.0/">
	<!ENTITY ns_adobe_xpath "http://ns.adobe.com/XPath/1.0/">
]>
<svg version="1.1" id="Layer_1" xmlns:x="&ns_extend;" xmlns:i="&ns_ai;" xmlns:graph="&ns_graphs;"
	 xmlns="http://www.w3.org/2000/svg" xmlns:xlink="http://www.w3.org/1999/xlink" x="0px" y="0px" width="595.279px"
	 height="841.89px" viewBox="0 0 595.279 841.89" enable-background="new 0 0 595.279 841.89" xml:space="preserve">
<metadata><?xpacket begin="﻿" id="W5M0MpCehiHzreSzNTczkc9d"?>
<x:xmpmeta xmlns:x="adobe:ns:meta/" x:xmptk="Adobe XMP Core 5.3-c011 66.145661, 2012/02/06-14:56:27        ">
   <rdf:RDF xmlns:rdf="http://www.w3.org/1999/02/22-rdf-syntax-ns#">
      <rdf:Description rdf:about=""
            xmlns:dc="http://purl.org/dc/elements/1.1/">
         <dc:format>image/svg+xml</dc:format>
         <dc:title>
            <rdf:Alt>
               <rdf:li xml:lang="x-default">Print</rdf:li>
            </rdf:Alt>
         </dc:title>
      </rdf:Description>
      <rdf:Description rdf:about=""
            xmlns:xmp="http://ns.adobe.com/xap/1.0/"
            xmlns:xmpGImg="http://ns.adobe.com/xap/1.0/g/img/">
         <xmp:MetadataDate>2018-09-05T11:34:36-03:00</xmp:MetadataDate>
         <xmp:ModifyDate>2018-09-05T11:34:36-03:00</xmp:ModifyDate>
         <xmp:CreateDate>2018-09-05T11:34:36-03:00</xmp:CreateDate>
         <xmp:CreatorTool>Adobe Illustrator CS6 (Macintosh)</xmp:CreatorTool>
         <xmp:Thumbnails>
            <rdf:Alt>
               <rdf:li rdf:parseType="Resource">
                  <xmpGImg:width>160</xmpGImg:width>
                  <xmpGImg:height>256</xmpGImg:height>
                  <xmpGImg:format>JPEG</xmpGImg:format>
                  <xmpGImg:image>/9j/4AAQSkZJRgABAgEASABIAAD/7QAsUGhvdG9zaG9wIDMuMAA4QklNA+0AAAAAABAASAAAAAEA&#xA;AQBIAAAAAQAB/+4ADkFkb2JlAGTAAAAAAf/bAIQABgQEBAUEBgUFBgkGBQYJCwgGBggLDAoKCwoK&#xA;DBAMDAwMDAwQDA4PEA8ODBMTFBQTExwbGxscHx8fHx8fHx8fHwEHBwcNDA0YEBAYGhURFRofHx8f&#xA;Hx8fHx8fHx8fHx8fHx8fHx8fHx8fHx8fHx8fHx8fHx8fHx8fHx8fHx8fHx8f/8AAEQgBAACgAwER&#xA;AAIRAQMRAf/EAaIAAAAHAQEBAQEAAAAAAAAAAAQFAwIGAQAHCAkKCwEAAgIDAQEBAQEAAAAAAAAA&#xA;AQACAwQFBgcICQoLEAACAQMDAgQCBgcDBAIGAnMBAgMRBAAFIRIxQVEGE2EicYEUMpGhBxWxQiPB&#xA;UtHhMxZi8CRygvElQzRTkqKyY3PCNUQnk6OzNhdUZHTD0uIIJoMJChgZhJRFRqS0VtNVKBry4/PE&#xA;1OT0ZXWFlaW1xdXl9WZ2hpamtsbW5vY3R1dnd4eXp7fH1+f3OEhYaHiImKi4yNjo+Ck5SVlpeYmZ&#xA;qbnJ2en5KjpKWmp6ipqqusra6voRAAICAQIDBQUEBQYECAMDbQEAAhEDBCESMUEFURNhIgZxgZEy&#xA;obHwFMHR4SNCFVJicvEzJDRDghaSUyWiY7LCB3PSNeJEgxdUkwgJChgZJjZFGidkdFU38qOzwygp&#xA;0+PzhJSktMTU5PRldYWVpbXF1eX1RlZmdoaWprbG1ub2R1dnd4eXp7fH1+f3OEhYaHiImKi4yNjo&#xA;+DlJWWl5iZmpucnZ6fkqOkpaanqKmqq6ytrq+v/aAAwDAQACEQMRAD8A9U4q7FXYq7FXYq7FXmn5&#xA;w/nbo/5f2i2sKLqHmO4Xlb2HKixqeks5G4XwXq3t1xSA+S/N35neefNs8kmtatPLA5JFjGxitlB7&#xA;LClE2G1TU+JxSk2h+YNb0G/j1DRr6awvIyCs0DlCaGtGA2ZfFW2OKX3h+WHm5/N/kTSPMEqqlzdx&#xA;FbpV2UTwu0UtB2BdCQPDFglf52+ebzyZ+X17qthRdSmdLSxkIDBJZq/vCDt8CKzCu1aVxSHw7qWq&#xA;6nql295qV3Ne3cpJknndpHJO+7MScWTKPJf5u+fvKFxG+l6pJJaKfj066ZprZh4emx+D5oVPviin&#xA;1z+U/wCb2hfmFpjvbr9T1i1UHUNNc8itdhJG23OMnv1HQ9qqCGe4odirsVdirsVdirsVdirsVdir&#xA;sVQHmDWINF0LUdYuAWg062mu5VHUrDGZCB7njir89vMOval5g1u91rU5TNfX0rTTv2qeiqOyqKKo&#xA;7AYs0vxV2Kvt78mhpnlH8qfL9nrV9bafcTQNeSLczJCaXUrTJUSMOiSKMWJSr/nIiOz8y/lNfTaN&#xA;eQX/AOjJob+QW0qS1iQmNz8BbZVkLH2GKh8bYsnYqn3kTzff+UfNen6/ZM3K0lBniBoJYG2liPsy&#xA;VHz3xQ/Qe3niuII7iFg8UyLJG46FWFQfuxYr8VdirsVdirsVdirsVdirsVdiqWeZ9Ei17y5qmiyv&#xA;6cepWs1qZKV4eshQMB/k1rir4G83+SfMvlHVZNN12yktZVYiKUgmKVR+3FJ9l1Pt9O+LNI8Vdiq+&#xA;aaaaVpZnaSVzV5HJZifEk7nFWo5ZYiWjdkYgqSpIJVhQjbsRiq3FXYqyn8vvy48y+d9ahsNKtXNr&#xA;zUXuoFT6EEdfiZ3Pw8qdFrU9sUPvqztYrS0gtIaiG3jWKME1PFFCip+QxYquKuxV2KuxV2KuxV2K&#xA;uxV2KuxV2KqVzaWt1EYbqFJ4TuY5VDqaezAjFXiH5y2egLq+k+TdK0u0tY7qNtS1ZbaCOF5IUcRW&#xA;0NY1U8XmqxHfh88VeA/mt5Tj8va/6cMK28chkSSJPsrNC9JOI7LQrTEpBYTiydir0j8mPIcfmjVJ&#xA;hNbrPQGO2WUViLiNpJKjxCgAV8cWJL3n8lLby7qFvqflvVNKtLu50CSN9PnubeOWQ2VyC0a85FZm&#xA;9GRHjrXoFGKHskEEFvEsMEaxQoKJGgCqo8ABsMVX4q7FXYq7FXYq7FXYq7FXYq7FXYq7FXnt5568&#xA;1f4ludGtrayt3jkKW63ZkBkANFIfminmNxthQg7LyN5l1Hz8nmXXYIofhgWVYnDJxtebRKiVdt3k&#xA;q1TilR/ML8rp9c1576LTbbUracBzFcED05QArEVKfaA7HIkWzxz4TdA+95/qv5feX9KvVs7nQdMl&#xA;uT9qCAM7r7NRiAciYeZciOos0IRPz/Wi9B/KzQtdWX6lpGjrPETztJhKswA78e498eDzKDqaP0R+&#xA;39b0j8tfy3Ple8ubp7a1s1dOENtaVK1Ygu5r3ogHXJAU0TnxG6A9yhbeRPMui+ddQ1/QhaMt9E0H&#xA;G4ZwgiaX1gCiU+JGqFNehwsEw0vzf5lk80xaJdR2N2CG+svY+sfRoDUu7krt4eO1a4VZxgV2KuxV&#xA;2KuxV2KuxV2KuxV2KuxV2KsH/NrV/JOk+X1uvModpZH9HTY7ZQ15JM3RIQaV9+R4+O9MVpV/LbVL&#xA;6TyzNdapc1tIJWW3nnIBESKK8mPYHxwqivOusXP+EJ9Q0O6Vlqoe5hYMRGW4twYVoan6MCvN9PuN&#xA;CtU5C7hM7iskkkicyTua1NRmHkMiXptFjw44ggiyOfV17e6XX65aX0ceoQAtBLBKvqVA6bHfJYpS&#xA;Bro19oYsM4GVjiHc9b0bUZl8uWV7rM8cM0kKPPK5WJavuta0AJqK++ZTzqQfmnqmp6dokE9q8q2L&#xA;yFL4WtPrDLx5KsRJAHLiw6jenbFUV+WeqeTNW8rwah5UPKxlPGUuKTiVftLPXfmK/L+XamKsrxV2&#xA;KuxV2KuxV2KuxVh/5t+c7vyb5B1PXrKJZb2ARx2qyboJJpFjDsNqheXKnfpioeIeYvKerz6Jc6t5&#xA;z13VvMckEfrXGmW83pW/i/pwii0Trtx2HTtmN4xJoO9/k2GOBlK5Edyf/wDOPPm7VR5jn8oxXj6r&#xA;5cbThqunyXB5XNkHdF+rSNuP2+g27ilSMviSebqc8IxPpNg/jd9AZJodir5y81Xrec/zT1m/iBuN&#xA;M8pwjTdNUbobtz/pEigVqy/Ev0KcrlIAgOZp8EpQlIC6H3/sQXnXzZrmnaVo+lOnpWs5kjt4B8Kq&#xA;0amR5XXqzMzbV6fryNPwznwuf2P2V4+px48oIhPi8j6Yksf8q/mpqGjXE+i6tKPQvY2RpmFIJo2U&#xA;gmVRtG6/zrt8hks2PglTV212TLRZzj5x5xPeP2cir2ukaTPq0us6XceX9VuJwqX+la0Emi+ABVlj&#xA;eMmWNuO1Bse+YsslHk42DSeJCxKIPcS3Fp/l3StdTXNZu9Dtrs0iTR9JMVrbRQV5MQzn1WdunNul&#xA;fuMJ2eSNRphjiPUJG+il51/ODXPNGuizsmMVpb0cycSI0TqBDG435fzsN+21MycGPjlXRzuw+yDr&#xA;dQIGxAbyPl+39vRl3lPzrreseUNR0+eA3NhFMbRU5EvFJEscqvHsTw+MAr+rKshjGZi0a7s6WPLk&#xA;jAGUITlHz2RH5a3x8pfmydLm/wBH0vzlaCaGIbRrqVvuwp0UspaviWAyqErto1eEwokfUPt6voHL&#xA;HDdir5s/PnzdfXvnHUvLusXUtj5S0K2gu5bG0bhPqTXHBRUkgFEkk4kdqE9dxCRPRydPCBsy5D5l&#xA;CwaD5m8uaANc8oeYdT0owW/1z9CXsouLYBU9RoTGaqDTatDlUcxui7LN2bHw+ONja6L3/wAh+ZJP&#xA;M3k3R9eliEE2oWyTTRLuqyEUfjX9nkDT2zIdIn2KuxV5p/zkfbev+TmukAloTayqB/k3cQav+xJx&#xA;SGI+aLlpPIWrXIajPpdxIHGxq1uxBHhmBEeoe967PK8Mj/RP3Mx/IXyf5d0T8v8AStS020WK/wBZ&#xA;tILnUbkku8khStKsTxUEmijbM95EvSMUMR/NbzmPJ/kXU9ZQj66E+r6cnUtdTfBFQd+P2yPAHFIe&#xA;P6NBF5F/Lp7m8PK7ghe8vS5JMl3NvxJPUlyqVzCkeOT1GKI0+CzzAv4/jZ5/rPmG71/y55Q1G9mE&#xA;960+oJcsFCAMoPFeK7bJxzP0Uay/jucvsDMcmrwEmz+8/wByUturRbhUIZopomDwToaOjjoVObjL&#xA;hExRe+7U7Kx6zHwz2kPpl1ifxzH7EXbano5AXzD5TtdSlH/H/YcbZ3PjJEvBeR7kZqcmhyRPpLwW&#xA;p9ndTjO+IZR/Oga+cdjf2LptY01AV8t+VrXSZTsNRveNxMlR1iQ8wpHiTjj0OSR9R2Zab2e1OQ1H&#xA;EMQ/nS3PwHO0HbWwhDsztNPMxkuLiQ8pJHPVmJzbYsQgKD3nZnZePR4+CG5O8pHnIptp3m278seR&#xA;r++spVS6fXuCxMoYSILaFpE3rx+EfazR6iHFlP46vmnaWoOLLmI5+PJnXnm3bXfJ9tr+iP8A7kNN&#xA;MWsaTOo+IGICQjvvx/Z/mAzFxnhlSNbjGbDxD3h7p5J802nmrynpnmC1oI7+BZHQGvCUfDLH/sJF&#xA;ZfozMeYTvFXjn/OTnk/y7e/l7qHmW4s1OuaUtvHZ3qllcRy3ccbI1DR1pK1Aw2PTvikJR5huli8h&#xA;ajcrSg0uV0r0JMB4j6cwI/V8Xrs0v3JP9H9D0n8nLZrf8rPK8bVq2nwybim0q+oP+JZnvIFmOKux&#xA;VI/PXlseZfJ+saDUK+oWskULt0WWlYmPXYOATirwzyXfLrfla68r6vG1tq2mRPpOsWjbSLRDDzH+&#xA;so6+Ncw8kTGVvT6PLHNh4TzAosr/ACJ82y6cZPy010rHq2kKz6PP9lbyxLFgVr1dKmo/l/1WzKjK&#xA;xbz+owSxyMS9kyTQ8I/M7Uf8W/mrp3lqJuekeU0GoamBur3soHoRnseC0P0sMqyyoOw7OwceQE8h&#xA;ulfmSwPm3zx5d8ip8VpLL+k9doelpb7hGp/vw1X58crwR6ub2tm2EB72Afmtosvlv817vRkQR6Xd&#xA;3MmsWCjYD67CVkCjoB6kZUf6ubDSj94G/wBlp/4diB5er/cFj0Wv2MuomwXl6gJUPQcSy1qOvtmx&#xA;jqImXD1fQ8PtDp8mqOmHFxgkX0JHMc/0MZ1zWbu4vpEjlaOCJiiKpK9NiTQ5r9RmMpEdHz72g7Zy&#xA;6jPKAkRiiSAByNdT339jtC1m7gvo45JWeCVgjqxLddgRXDp8xjIDoU+zvbGbT6iELJxzkIkHz6ju&#xA;/SydNesn1I6eOXqgledPh5DquZ41ETPhfQMftFp5as6YcXHZF9LHTv8ALlzZj+SXlgeavzElstQh&#xA;E+haL9avriJ90eW7hjtlRh/sOQ/1TmqzD1n3vl3bUz+ayj/bJ/f+xlf5fxXOhXut+Rb9i1z5eumF&#xA;oz7GSynPOF9/Y1+kDMHPGjbmdlZuKBgen3J/+SGpHy35w178v5zwspydY8vg7D0pPhnhWp/ZIFB/&#xA;kscyMcrDqNbg8PIR06Pb8m4jwz87PMbebdYi/LLRmDQo8d15nvgOSwRxkPHAp6eozUJ+gfzUhOfC&#xA;HK0mmOWdDl1SH8w7me7trPyNoaerrfmArbQQr0itgf3krnsoVT9FT2zHwxs27rtLOIY+Acz9z6F0&#xA;XS4NJ0ew0q3/AN59Pt4rWHt8EKCNfwXMt5tGYq7FXYq8a/OzydfaZfRfmV5chL3+noI/MNkm31qx&#xA;FAX2/biA3NPs0P7O8Zx4hTkabOcUxIMX8waevmnR9N8z+V7n0dbsCLzRb1aK3Jd2gkrtRiOJB6Hr&#xA;tXMWEjA0Xf6nBHUYxKPPp+p6N5b/ADn0bUvy1v8AzZdqLa+0SJl1nTSeLx3aDisYDb0megSvjTqD&#xA;mY8yRRp53+XdncWfl668w604Gqa5JJqupzttxWSrqD4BUPKnauYeWVyem7PwjHis9d2Uf8496RNq&#xA;H6c/MG9QrPr85t9MDDdLC2PBaf67rQ/6lcyoRoU8/qcxyTMu9K/+cpfLi/UNC83RpV9Mufqd43/F&#xA;FzurH2R1p/ssuxT4ZAuV2Tq/y+phkPKMt/dyP2PEo9J09L03qRD6w1TzqSKnqQOlTm2GKIlxVu+w&#xA;4+x9NDOdRGH7w9d+vM1yssa1vy5ei8kmtYzLDKS9F6qTuRTMHUaaXESNwXge3/ZvURzyyYomcJm9&#xA;tyCeYr38q6N6J5cvTeRz3cfpQxENxbqxG4FBjp9NLis7AJ9n/ZvPLPHLmiYQgb35kjkK7u+2RNpm&#xA;nRXT6gYwJgCzOSaDbdqdK5neFAHird7qXZekxZjqjECYsk7925rk+hf+cYvLrWfki68wTpxuvMV0&#xA;86k7H6tATFCpH+t6hHsc08pWSXxnWag5sssh/jkT8zaC/PHTv8O+b/L/AOYEI42kp/Q+vMOghlJa&#xA;GVqdlINT7KMqyRsMtFn8PID06pB+YgvNJfSfO+mJy1DyzcrPIqmnq2khCTxkjsVO/gpbMfBKjTuO&#xA;1MHFDiHOP3PRfzK/Nm10Xynp8/l4i+13zNGn+HbdRUkTKCLh1PRUDA799ulaZRNPPQgZGhzec6fb&#xA;ab+XvlK71PU5jc6hMTc6ndE1kuruSp4Kx3PxGg+lj3zDJM5PTY4R0uKzz6+Z7mc/kl5Cv7KO587e&#xA;ZY/+dn19QyQsDWzszQxwKD9lmABbuKAda5mRjQp5zNlOSRker1XC1OxV2KuxVplV1KOAysKMp3BB&#xA;6gjFXzvrGjP+V/ncWABXyR5klZ9Mc/Ysrw7tASeiN+zXt8mynNjsW7Xs3V8EuGX0n70o87flrcal&#xA;r1tqGlsVstQnt08yWKyemk0Mcit6tD8LMoG469xvXKoZaFOdqtBx5BId/q/Wmf5iyXt9BpvkzSCF&#xA;1TzLOtolOkdstDNIwH7IXr/k1xwxs2ntPPwY+Ec5fc+gNE0ex0XR7LSLFPTs7CCO3gXvwjUKCfEm&#xA;lSe5zLebSr8xPL0HmLyNrejTUC3VpII2bosqD1InP+rIinFXx1oly1xpVtK27FeJPiUJWv4ZucEu&#xA;KAL7Z7P6mWbRY5y58Nf6UmP6EdlzuXYqgdZSaazFrCVWS7kjt1ZjRR6rhak/TmNqpVD3vNe1mqOL&#xA;RSA/jIj89z9gr4vtnQdHtdE0Sw0e0FLbT7eK2i2pVYkCAn3NKnNS+PoLzt5Ws/NflTU/L93QR38L&#xA;RpIRX05R8UUlP8iQBsVeH/l/fyar5Yn0LWo/9yekmTSdXtZOv7usfxePJNie5BzCyx4ZPUaHKMuK&#xA;j02KW/lv+X95ojNqmvyGW9tle10yOWQSC1tFZm+FgeILcidug+ZyWXJewa9DovDuUvq+5O/Imgv+&#xA;ZfnQa/eJy8k+W5uOmxMPgvr5eshB2aOP+g7sMuxQ4R5ur1+r8WVD6R+LfQWWuvdirsVdirsVdiqR&#xA;+dfKGk+b/Ld5oOqLW3ul+CUAF4pRukqV/aQ7+/Tpirwa21/zV5MU+X/OGi6hdXFkDHaatYwm4hu4&#xA;VNEbl8Pxcadd/wCahzGnhs7O803agjGp3YZl+Tnk7W7/AMxXv5heZrKSwuZkNn5f0y4BWW3tf25X&#xA;U7q8nQdOrdiMuhHhFOs1WoOWfE9jybjPEvz+/NS4s7W58keVw11rt5A36Vlg+I2lq4oy/wDGWRTt&#xA;vUA+JXFI83g+kyWZs0htmJWAcGVhR1YdeSncHNzglExAi+19hajTT00Y4JXGArzHvHmfh3IzLncu&#xA;xVKPMV3YiyltpCXmI5Kke7LQ7MfADMXVTjwkHm8p7Va/Sx08sOQ3klyA5g9Ce4feOT6T/IL85YfO&#xA;mkro2ryhfNGnx/vCdvrUK0AnX/LFQJB4/ENjQap8mIeu4oeH/mn5X1ryz51Hn3QdPm1HS9SjW38y&#xA;2FopeVXj2jukjHX4R8XyNftVFeSHEHM0Wq8Gd9OrG5ZfNX5jSL5c8u6XfaZpdwwXWdcvoTAkdv8A&#xA;txxg15uw2pWv0VIrx4aNlzdZ2kJx4YXvzfQnl7QNL8vaLZ6LpUIgsLGMRQxjrQdWY92Y1Zj3O+ZD&#xA;pkwxV2KuxV2KuxV2KuxV2KuxV5p+cf5qnypaR6JoYF15v1RCLKAfELeNqg3MoNRRaHiD1PsDil4v&#xA;pem22hWNze39yZr2ctc6pqMxJeSRiWZix36nb+uFB3YhpdqnnLVNV1KJjp7QCOOxmjAqa86mUft1&#xA;oK4YyINhyNPqsmCYnjkYyHULb2TUtILJrFsyomy3sKl4HGwrUbqST0ObDHrB/E+h9me2mOUeHUDh&#xA;l/OG4Pw5j7fgqaXa6r5h+LT/APRNODcZL+QAs1OqxJ4+5yvLqydouv7X9spTBhphwj+cefw7vfz9&#xA;zMtK8taRplo9vDCH9ZStxLL8ckoPXmx6j26ZhvCzmZEkmyXm/mDSNW8leYLbWtFmeBI5RLYXK7tF&#xA;IN+DV2P09Rse+RSC+tvyd/NnTfzA0ESHhb69Zqq6nYg9+nrRA7mNz/wJ2PYlQQ9AxQ7FXYq7FXYq&#xA;7FXYq7FXYq7FXYqwf81vzPsfI+jp6aC88wahWLR9NG5kk6c3AIIjQnfx6D2UvBtH0u9F1da3rc5v&#xA;fMOpMZb67ah48v8AdadlRelBt4bAYUEvPPzC84fpO4Om2T/7j4G/eOOksg7/AOqvb7/DAUgMi/KW&#xA;Arod3MRT1LkqD4hEX+LYQiSa/mL/AModqH/PH/k+mJUc2NflJq1GvNKdutLiAe4osn/GuITJ6ThY&#xA;obUdOtNRspbO7QSQTCjL39iPAg7jAryeG58y/lv5wg1HTJjHPA3O2l39OeGo5RyKCKq3R1+kdjgZ&#xA;832d+Wn5jaL588uR6rp59O5jpHqNixq8E9Kle3JT1Ru48DUBYssxV2KuxV2KuxV2KuxV2KuxVi35&#xA;kfmFo3kTy1LrOo1kkJ9Kxs1IDzzkEqg8BtVm7D3oCq+YfLfmOPzXr935j1q+S78y3VQLehRbeBdl&#xA;jgVv2QPAn33JJISUu/Mfzj9WjbRrCT/SJBS8lU/YQ/sA/wAzDr7YlQHl+Bk9n/LaAxeUrViKGVpX&#xA;/wCShUf8RwhgVT8xf+UO1D/nj/yfTEqObyfyzqp0rXbO9qRHHIBN7xt8L/ga4GRe9ggio3B6HJMG&#xA;8VSvzFoFnrmmvZ3A4t9qCYD4kfsR/EYFBeZ+UfN3mX8tfOJvLMj17dvSvrMsfSuITuUaniPiU9jv&#xA;7YGb7d8l+ctE84eXrbXdHkL2s9VeNtpIpV+3FIOzL+PUbEYsU8xV2KuxV2KuxV2KuxV2KvnH/nMT&#xA;TtQe08s6ioLafA91BKQNkllEbJX/AFlib7sUh89eVdM1PU/MFnZaXJ6WoSMxt5K0CtGhepI7fDkZ&#xA;SoW3YsRySERzKD1K3vre/uIb9XS9R2Fwsn2udd618cILCUTE0UNhQ948pQmHyzpiEUP1eNiP9deX&#xA;8cLWUv8AzHnhTylexPIqyyel6aEgM1JkJ4jvQYlIeL4Gb27yJq36S8tWrs3Ka3H1ebeprHsCfmtD&#xA;hDAshwoY95l165hlj0fRwJtbu9kA3EKHrLJ1pQdMjKVNmPGZmg8c1a0uLTVLy1uXMk8E0iSyGvxs&#xA;rEFt9/i64AbZTjwkjufVP/OI2n38HkXU7ucMtpeX5NoprRvTjVJHX2LfDX/JwtZe6YodirsVdirs&#xA;VdirsVdiqTecfK+meafLV/oWpIGtryIqGI3jkG6SL4MjUYYq+O/yD0w3Hm+e9I+CxtXIP+XKwQf8&#xA;LyynOdna9lQvLfcGbfmh+XtrrT/WoAsGoUrDPT4Wp1jenbuD2yrHkpz9bpBPcc3hOp6TqOl3TWt/&#xA;A0Ey9mGxHip6MPlmUDboJwlE0RT0TWPzLsLGxjs9GH1m4SNY/XYERJxWmwNCx/DJW1083vb68vrl&#xA;rm8maed/tO5qfkPAewwMlDFWaflr5ltNKu7m1v5hDa3Khkdq8RIu29OnJT+GIYkMxu/OEuoSmw8r&#xA;wm/vDs92VIt4Qf2mY9f8/ljKQDPFhlM0AnPlnyxDo0Uk0khutTuqNe3j7lm60WvRRmLOdu+0+mGM&#xA;ebzrznoIuvzIgsDJ6KavLaqJT0UTMsJb6CCcuxnZ1etjWQ+b7j0bR9O0bSrXStOhEFjZRrDbxL0C&#xA;qKfST1J7nLHBRmKuxV2KuxV2KuxV2KuxVhP516/eaD+VvmHUrM8blbdYI3HVTdSpblx7qJajFIeC&#xA;f8496Z6Wg6lqTCjXdwsKk91gStR/spTmLnO9PQdkQqJl3n7v7XpmqWv1m0dQKuvxJ8x2+nKAXZ5I&#xA;2Hl35g67aaVoTmSOOW7uKx2kcih6NTeShr9j9dMvxiy6vWZRGHmeTw3rmU6J2KuxVdFI8UiSJQOj&#xA;BlJAIqDUbGoOBQ+ofIOr6J5k8s299b2kEMq/ury3jRVEcyj4hQAbEUZfY5hZAQXqdJkhkxggAd6e&#xA;vounsSfTKk/yk5HibziDx3899C/R76Pqls7g1khZ60ZWXi8dCKf5WZGCXMOm7Vw1wyD6q/L/AF6f&#xA;zB5I0PWrkUub6zhluNqAylQJCB4FgSMyHSsgxV2KuxV2KuxV2KuxV2KsY/NAaV/yrvzGdVhW4sU0&#xA;+4kkhbYMyIWjAIpRvUC8T44q8h/KzTP0f5C0iIijzRG5cnqTOxkH/CsBmDlNyL1mhhw4Y/P5snnn&#xA;ht4JJ53EcMKtJLIxoqqoqzE+AGQcokAWXmGk/k7rv5t/WvNY1BdG0Z53g0aGaFpWlgjJDS0DoFBe&#xA;o+dR0AzOhGg8nqs/iTJ6dEw/6E51L/qaIf8ApEf/AKq5NxrUJP8AnDzzAHIj8xWjJ2ZoJFP3At+v&#xA;FNrf+hPfMn/Uw2f/ACKlxW1r/wDOH3mgITHr9iz/ALIaOZQfmQG/VitqVt5A82/k1f2mp6vdW975&#xA;c1aUWeoy2pkK28h3hlkDqlP2t/CvemV5YcQc3Q6rwp7/AEnm9SBBAINQdwRmC9QwX86tNW78izzl&#xA;PUNhPDchdxUcvTbcf5Mhy7CfU6/tOF4Se4/sfQ3l9dMXQtOXSo1h0wW0P1GJPsrB6Y9MDr0WmZjz&#xA;CPxV2KuxV2KuxV2KuxV2KvH/APnIXzn5ek/LPX9I0/WrCXVuUENxYR3ULXKqtzH6q+iH51AHxCmw&#xA;rikIfQ7jTrjSLOXTZVmsTCi28iEEFFHEDbuKUI7Zr5Xe72WIxMRw8mM+aIb7zh5msfy70mRoxdUu&#xA;vMN2n/HvYoQSv+tJtQf6o6Nl2CHV1famqoeGPi+hdM02x0vTrbTrCFYLKziSC2hXoscY4qN/YZlO&#xA;gROKuxV2KuxVLPM3l3TPMmgX2h6nH6llfxGKUbVUndXWtaMjAMp8RirwfyNdanpN7f8AkTXmrrOg&#xA;HjbzGoFzZH+5mSvYKQPYEd65iZoUbej7M1PHHgPOP3Jl5+n06HybrH6QlWK3ktZYwWIBMjIQirXq&#xA;xalBleP6g5mrMRilfczP8nPOXl2fyJ5Y0ibW7B9cFhDF+jhdQNc0RPgUwhy/IRgVFK5nvIl6Nih2&#xA;KuxV2KuxV2KuxVhn5vefY/JHke91hSv6QkpbaZG37VzKDxNO4RQXPsuKQ+DJZZZpXmlcySyMXkdj&#xA;VmZjUkk9STiyT3yv568y+WplbTbthb15PZS1eB/GqE7V8VochKAPNvwaqeI+k/Do+j/+cXtf8q31&#xA;rqzvdGTzvqMz3OqrMOLNArUiEBqeUaBt+hBPSgU5ICmjJMyJJ5l71hYOxV2KuxV2KuxV85f85Mea&#xA;vLWleY9EvdJuAfPGlPxuI0HKP6k6lvSuSCN2LVVRvRidqqcEo2KbcOWWOQkOj588x+b/ADD5in9X&#xA;Vrx51U1jgHwxJ/qxj4R8+uCMQOTZm1E8huRS/TdRvNN1C21GylMN5ZypPbyr1WSNgysPkRkml+gH&#xA;kLzfZ+b/ACjpvmC1oovIgZ4ga+nOvwyx+PwuDTxG+LBkGKuxV2KuxV2KuxV8df8AOTvnuXXvPJ0O&#xA;EsuneXuUAU7c7l6GaSntRUHyJ74sg8cxS7FX0Z/ziN5LaS81TzhcIfTgX9H2BPQyPR52/wBivBR/&#xA;rHwxYl9OYodirsVdirsVdir5K/5yu8lHTPN9t5nt0P1TXI+FyR0W6t1Cmvhzi4ke4bFkHhmKXYq9&#xA;8/5xP88zWPmS58n3BZrPVla5sxuRHcwIWf5CSJTU+KjxxQX1ZixdirsVdirsVdir4m/5yP13RNX/&#xA;ADS1BtKhVfqSJZ31ypr69zDUO5/1Nov9jiyDzDFKpbW091cRW1uhlnndY4Y1FWZ3PFVA8STir9Av&#xA;y98oweUfJulaBFxL2cI+syL0ed/jmf5GRjT2xYMixV2KuxV2KuxV2KsH/OfyUPOH5e6npsUfqahA&#xA;v1zTf5vrEALBV95F5R/7LFIfB5BBoeuLJ2Kvaf8AnFTXdD078wJ7K/iUXuqWxg0y7b9iRW5vEOw9&#xA;VV6+KgftYoL6/wAWLsVdirsVdirBfzn8/wAfknyLeajG4XVLoG00pe/ryKfjp4RqC/0Ad8Uh8JO7&#xA;u7O7FnYksxNSSdySTiyRejaPqOs6ra6VpsJuL+9kWG3hXqzsaDc7AdyT0GKvtj8u/wAjvJHlCysZ&#xA;W0+G/wDMECo8+qzgyN643Lwq9ViCt9niAadTXFjb0TFDsVdirsVdirsVdirsVeUfmj+QHlHzNo99&#xA;c6Lp0Gm+ZirS2tzAPSjllHxFJY1Ij/edC/GoO/jVSC+M7u1ubO6mtLqJoLm3dop4ZAVdHQ8WVgeh&#xA;BGLJdYX13YX1vfWchhu7WRJreZeqSRsGVh8iMVffn5cedLXzn5N07X4OKSXCcbyFT/dXEfwyp405&#xA;Cq1/ZIOLBkuKuxV2KuxV8V/85FfmEfNnnqWytJeej6GXtLTiaq8tR9YlHjydeIP8qg98WQeV4pfV&#xA;v/OMX5UfojTP8aavCBqeox00qNxvDauN5d+jzdvBP9YjFiS97xQ7FXYq7FXYq7FXYq7FXYq7FXzV&#xA;/wA5RflPQnz3o0HXimuwoPksdzQf8DJ9B/mOKQXzZiye2/8AOLn5hDQ/Ncnlm+l46drxUW1T8KXq&#xA;7R/8jV+D3PHFBfXeLF2KuxV5x+fX5hDyZ5EuHtpOGsarys9NoaMhZf3kw/4xJuD/ADFcUh8W3OnJ&#xA;b6Xb3MrEXNyxMcXb0gPtHbqTSntiyeg/kH+VZ87+afrN/GT5d0krLfkjaZzvHbg/5VKv/k/MYoJf&#xA;a6qqKEQBVUUVRsAB0AGLFvFXYq7FXYq7FXYq7FXYq7FXYqpXdpbXlrNaXUSz2twjRTwuKq6OOLKw&#xA;PUEHFXwv+cf5aXPkLzbLYqGfR7zlPpNwd+UVd42P88RPFvoPfFkGDwTzW88c8DtFNCwkikU0ZWU1&#xA;VgR0IOKX3p+UvnuLzt5HsNZLL9fC/V9TjWg43MQAfYdA+zqPA4sCzHFXEgCp6Yq+Kvzf85j8wPzJ&#xA;mMM3Ly/pPK3s2BohhiP72YH/AIufo38vHwxZgMKs9O1Tzf5ptdK0qH1Li8kW3soQKKkY7tSvFVWr&#xA;N4b4qS+6fIPkrS/Jnlaz0HTgCsC8riegDTTsB6kre7Hp4Cg7YsGQ4q7FXYq7FXYq7FXYq7FXYq7F&#xA;XYq7FWG/mv8Al1Y+fPKVxpMvGO/irPpd0R/dXCg8akb8H+y3tv1AxUPhHUtOvdN1C50++ha3vLSR&#xA;obiFxRkdDxZT9IxZvV/+cavzC/wz52Gj3j8dK8wFLZ+RoI7oE+g/+yLGM/6wPbFBfZOLF5V/zkZ+&#xA;YR8qeRXsrSTjq2vc7O2INGSHj/pEo/1VYKPdge2KQ+Sr5Y9K0pba3dpJNRVZJLoAqpjH7C7++/sd&#xA;8Wb6b/5xn/Kv/D2hf4r1WHjrOsRj6pG4+KCzajLt2abZj/k8RtviwJe34odirsVdirsVdirsVdir&#xA;sVdirsVdirsVdir53/5yh/Kr6zb/AOPNHiP1q2CprcSCvOJaKlxTxj2V/wDJof2TikF4JdafFqUf&#xA;6ahuUtQEBn6jjOlOlNx2p3+/AzfY35Jefx518h2d9O/LVbP/AEPVKkVM0Sj95/z1QhvnUdsLAvC/&#xA;+cjdVlv/AM47PTlVJo9Nsoo/Rk+wGkDzu+9fi4MvbsMUxeV/VbrzP5ustIspnuBeXMdta7CimVgr&#xA;EAAbDxPYYpL9AoYkhhSJPsRqEWvgooMWC/FXYq7FXYq7FXYq7FXYq7FXYq7FXYq7FXYql3mTSV1j&#xA;y7qmkMeK6jaT2hbwE8TR12/1sVfDdizpptxbahbRO2mFo5bBUHqq8VVZnDtSteVaDffvtgbA9S/5&#xA;xJ15f8XeYdLjUQQX1ol5HbgkqGt5Qm1e9LjfCxLBfPepDVPzw1+8JLpFezwcuvw2qfVhv4Uj2xTF&#xA;K/yR/wDJseWf+Yxf+ItigvvHFi7FXYq7FXYq7FXYq7FXYq7FXYq7FXYq7FXYq7FXwhrVsifmd5ts&#xA;mfre6lAHpSpFywqB8hXFmE0/5xv1U2H5u6OpbjHercWsm9K84WZB/wAjEXFBef32q3Nzq15qKyMk&#xA;15LLK7AkMfWYs1TX3xSyr8kf/JseWf8AmMX/AIi2KC+8cWLsVdirsVdirsVdirsVdirsVdirsVdi&#xA;rsVdirsVfBHnXUEsfzX80XTIZFXV9S+EGleVxKBvizCA/Li/On/mB5bvK8RDqdozmtPg9ZQ4r7qT&#xA;ihM/zV/LLWPInmW4spoZH0iRy2l6gVJSWE7qpcDj6iDZ18d+hGKhmH/ON35b6/q3nWw8zS20lvoW&#xA;ks0/1uRSqzS8WVI4ift0Y1YjYAeJGKl9h4sXYq7FXYq7FXYq7FXYq7FXYq7FXYq7FXYq7FXYq+If&#xA;z0/LfXvK/nXVL+S2kk0TU7mS7s79VLRD6w5cxO24V0ZitD164sgv/In8r9W83ebrK+kgkj8v6ZMl&#xA;ze3hBVHMTckhjY/aZ2WjU6LU+FVS/wD/2Q==</xmpGImg:image>
               </rdf:li>
            </rdf:Alt>
         </xmp:Thumbnails>
      </rdf:Description>
      <rdf:Description rdf:about=""
            xmlns:xmpMM="http://ns.adobe.com/xap/1.0/mm/"
            xmlns:stRef="http://ns.adobe.com/xap/1.0/sType/ResourceRef#"
            xmlns:stEvt="http://ns.adobe.com/xap/1.0/sType/ResourceEvent#">
         <xmpMM:InstanceID>xmp.iid:FD7F117407206811822A9DD448A483FF</xmpMM:InstanceID>
         <xmpMM:DocumentID>xmp.did:FD7F117407206811822A9DD448A483FF</xmpMM:DocumentID>
         <xmpMM:OriginalDocumentID>uuid:5D20892493BFDB11914A8590D31508C8</xmpMM:OriginalDocumentID>
         <xmpMM:RenditionClass>proof:pdf</xmpMM:RenditionClass>
         <xmpMM:DerivedFrom rdf:parseType="Resource">
            <stRef:instanceID>uuid:ba5dc92b-6d0a-484a-ab90-b9370a4a0965</stRef:instanceID>
            <stRef:documentID>xmp.did:0980117407206811822A897E387FE54C</stRef:documentID>
            <stRef:originalDocumentID>uuid:5D20892493BFDB11914A8590D31508C8</stRef:originalDocumentID>
            <stRef:renditionClass>proof:pdf</stRef:renditionClass>
         </xmpMM:DerivedFrom>
         <xmpMM:History>
            <rdf:Seq>
               <rdf:li rdf:parseType="Resource">
                  <stEvt:action>saved</stEvt:action>
                  <stEvt:instanceID>xmp.iid:FD7F117407206811822A9DD448A483FF</stEvt:instanceID>
                  <stEvt:when>2018-09-05T11:34:36-03:00</stEvt:when>
                  <stEvt:softwareAgent>Adobe Illustrator CS6 (Macintosh)</stEvt:softwareAgent>
                  <stEvt:changed>/</stEvt:changed>
               </rdf:li>
            </rdf:Seq>
         </xmpMM:History>
      </rdf:Description>
      <rdf:Description rdf:about=""
            xmlns:illustrator="http://ns.adobe.com/illustrator/1.0/">
         <illustrator:StartupProfile>Print</illustrator:StartupProfile>
      </rdf:Description>
      <rdf:Description rdf:about=""
            xmlns:xmpTPg="http://ns.adobe.com/xap/1.0/t/pg/"
            xmlns:stDim="http://ns.adobe.com/xap/1.0/sType/Dimensions#"
            xmlns:xmpG="http://ns.adobe.com/xap/1.0/g/">
         <xmpTPg:HasVisibleOverprint>False</xmpTPg:HasVisibleOverprint>
         <xmpTPg:HasVisibleTransparency>False</xmpTPg:HasVisibleTransparency>
         <xmpTPg:NPages>1</xmpTPg:NPages>
         <xmpTPg:MaxPageSize rdf:parseType="Resource">
            <stDim:w>21.000131</stDim:w>
            <stDim:h>29.700013</stDim:h>
            <stDim:unit>Centimeters</stDim:unit>
         </xmpTPg:MaxPageSize>
         <xmpTPg:PlateNames>
            <rdf:Seq>
               <rdf:li>Cyan</rdf:li>
               <rdf:li>Magenta</rdf:li>
               <rdf:li>Yellow</rdf:li>
               <rdf:li>Black</rdf:li>
            </rdf:Seq>
         </xmpTPg:PlateNames>
         <xmpTPg:SwatchGroups>
            <rdf:Seq>
               <rdf:li rdf:parseType="Resource">
                  <xmpG:groupName>Default Swatch Group</xmpG:groupName>
                  <xmpG:groupType>0</xmpG:groupType>
               </rdf:li>
            </rdf:Seq>
         </xmpTPg:SwatchGroups>
      </rdf:Description>
      <rdf:Description rdf:about=""
            xmlns:pdf="http://ns.adobe.com/pdf/1.3/">
         <pdf:Producer>Adobe PDF library 10.01</pdf:Producer>
      </rdf:Description>
   </rdf:RDF>
</x:xmpmeta>
                                                                                                    
                                                                                                    
                                                                                                    
                                                                                                    
                                                                                                    
                                                                                                    
                                                                                                    
                                                                                                    
                                                                                                    
                                                                                                    
                                                                                                    
                                                                                                    
                                                                                                    
                                                                                                    
                                                                                                    
                                                                                                    
                                                                                                    
                                                                                                    
                                                                                                    
                                                                                                    
                           
<?xpacket end="w"?>
	</metadata>
<g>
	<path fill="none" d="M-67.028,108.952c0.343,0.501,0.738,0.951,1.235,1.282C-66.228,109.834-66.646,109.395-67.028,108.952z"/>
	<path fill="#F6A7A4" d="M-21.931-64.562c-0.65-0.473-0.917-1.308-0.659-2.075l1.548-4.559c-2.265,1.49-3.045,4.97-3.054,5.012
		c-0.013,0.06-0.032,0.119-0.057,0.175l-11.958,26.957c0.104,0.139,0.203,0.271,0.298,0.397c0.294,0.392,0.214,0.947-0.177,1.24
		c-0.16,0.12-0.346,0.177-0.531,0.177c-0.269,0-0.535-0.122-0.709-0.354c-1.142-1.522-11.176-14.91-11.944-16.225
		c-0.881-1.51-0.688-3.96-0.663-4.234c0-0.008,0.216-4.326,0.216-6.136c0-0.283-0.031-0.454-0.059-0.548
		c-0.407,0.055-0.825-0.172-0.97-0.573c-0.162-0.449,0.05-0.941,0.493-1.119c0.359-0.144,0.958-0.189,1.468,0.156
		c0.557,0.377,0.839,1.078,0.839,2.084c0,0.251-0.004,0.549-0.011,0.872c1.299-0.447,1.563-2.028,1.61-2.712
		c-0.461-0.486-1.462-1.527-2.087-2.074c-0.47-0.411-0.985-0.513-1.185-0.537l-4.417,1.162c-0.097,0.025-2.238,0.605-2.238,2.526
		c0,2.59,0.475,8.085,0.479,8.141c0.003,0.037,0.244,2.922,1.518,4.621c1.44,1.922,13.74,19.326,14.273,20.081v0
		c0.007,0,1.589,1.721,3.552,1.605c1.572-0.088,2.254-0.776,3.188-2.285C-30.1-37.741-20.76-60.937-20.666-61.17
		c0.182-0.454,0.697-0.674,1.152-0.491c0.454,0.183,0.674,0.698,0.491,1.152c-0.042,0.104-0.19,0.474-0.418,1.034l2.476,7.314
		l-0.057-14.444l-2.723,2.032C-20.381-64.099-21.299-64.097-21.931-64.562z"/>
	<path fill="#F6A7A4" d="M21.932-64.559c-0.324,0.232-0.696,0.353-1.084,0.353c-0.396,0-0.775-0.125-1.097-0.362l-2.774-2.071
		l-0.023,14.513l2.487-7.35c-0.227-0.56-0.376-0.93-0.417-1.033c-0.183-0.454,0.037-0.97,0.491-1.152
		c0.455-0.183,0.97,0.038,1.152,0.491c0.094,0.234,9.433,23.43,12.499,28.383c0.935,1.509,1.617,2.197,3.189,2.286
		c1.999,0.1,3.592-1.659,3.608-1.678c0.466-0.667,12.777-18.085,14.218-20.008c1.273-1.699,1.515-4.584,1.517-4.613
		c0.005-0.063,0.48-5.559,0.48-8.148c0-1.943-2.207-2.518-2.229-2.523l-4.426-1.164c-0.2,0.024-0.712,0.124-1.185,0.537
		c-0.625,0.548-1.626,1.589-2.087,2.075c0.045,0.687,0.304,2.264,1.61,2.711c-0.007-0.323-0.011-0.621-0.011-0.873
		c0-1.007,0.282-1.708,0.839-2.085c0.509-0.345,1.107-0.3,1.467-0.155c0.454,0.182,0.675,0.698,0.493,1.152
		c-0.158,0.395-0.563,0.614-0.97,0.544c-0.027,0.096-0.057,0.266-0.057,0.544c0,1.811,0.215,6.129,0.217,6.172
		c0.022,0.238,0.215,2.688-0.664,4.198C48.408-52.5,38.374-39.113,37.232-37.59c-0.174,0.232-0.44,0.354-0.709,0.354
		c-0.185,0-0.372-0.058-0.531-0.177c-0.391-0.293-0.471-0.849-0.177-1.24c0.094-0.126,0.194-0.258,0.297-0.396L24.154-66.008
		c-0.025-0.056-0.044-0.115-0.057-0.175c-0.009-0.042-0.788-3.52-3.051-5.01l1.545,4.555C22.855-65.877,22.591-65.04,21.932-64.559z
		"/>
	<path fill="#F6A7A4" d="M-5.287-70.94H5.288c0.157,0,0.296,0.065,0.417,0.156l1.12-3.3l-6.418-4.539
		c-0.159-0.112-0.292-0.248-0.405-0.396c-0.111,0.147-0.243,0.282-0.399,0.394l-6.424,4.541l1.119,3.297
		C-5.582-70.878-5.444-70.94-5.287-70.94z"/>
	<path fill="#F6A7A4" d="M5.018-64.529c-0.02-0.013-0.044-0.018-0.063-0.032c-0.651-0.478-0.916-1.313-0.657-2.078l0.718-2.115
		c-0.996,1.097-2.785,2.622-5.062,2.622c-1.744,0-3.413-0.899-4.978-2.658l0.73,2.151c0.263,0.761-0.001,1.599-0.66,2.08
		c-0.019,0.014-0.041,0.018-0.06,0.031C-3.43-64.032-1.746-63.765,0-63.765C1.747-63.765,3.432-64.033,5.018-64.529z"/>
	<path fill="#F6A7A4" d="M-9.35-81.869l7.819-0.098c0.621-0.046,1.181,0.249,1.533,0.724c0.353-0.474,0.911-0.767,1.53-0.724
		l7.819,0.098L9.8-83.312H-9.799L-9.35-81.869z"/>
	<path fill="#F6A7A4" d="M0.236-59.294c3.795,0,7.373-2.116,9.787-5.654C7.126-63.087,3.691-61.993,0-61.993
		c-3.34,0-6.469-0.896-9.181-2.443C-6.786-61.226-3.375-59.294,0.236-59.294z"/>
	<path fill="#F6A7A4" d="M-28.842-3.523c-0.062-0.07-0.126-0.143-0.187-0.212l-5.808,27.265c-0.037,0.157-0.765,3.369,1.37,3.962
		c0.46,0.127,0.727,0.595,0.619,1.055c1.488,0.573,3.149,1.4,4.934,2.555l8.741-14.168L-28.842-3.523z"/>
	<path fill="#F6A7A4" d="M29.028-3.736c-0.126,0.143-0.257,0.291-0.389,0.441l2.406,9.026L29.028-3.736z"/>
	<path fill="#F6A7A4" d="M32.847,28.547c-0.108-0.46,0.159-0.929,0.619-1.056c2.151-0.597,1.383-3.906,1.375-3.94L31.937,9.916
		L15.548,7.329c-0.477,0.104-0.951,0.175-1.42,0.175c-0.273,0-0.543-0.029-0.813-0.068l14.6,23.666
		C29.698,29.946,31.359,29.12,32.847,28.547z"/>
	<path fill="#BF8382" d="M-18.877,16.452c0.047-0.176,0.138-0.328,0.273-0.442l5.289-8.573c-0.269,0.039-0.54,0.068-0.812,0.068
		c-5,0-10.529-6.276-14.334-10.596c-0.132-0.149-0.255-0.289-0.381-0.432l9.669,20.456L-18.877,16.452z"/>
	<path fill="#BF8382" d="M31.045,5.732l-2.406-9.026c-0.06,0.068-0.116,0.131-0.178,0.201c-3.448,3.914-8.31,9.42-12.914,10.422
		l16.389,2.587L31.045,5.732z"/>
	<path fill="#EC2C91" d="M12.68-67.021c0.01,0.119,0.001,0.24-0.053,0.355c-2.522,5.421-7.27,8.789-12.392,8.789
		c-5.058,0-9.741-3.316-12.274-8.56c-0.8-0.681-1.545-1.424-2.22-2.229l-1.35,1.008l0.076,19.282c0,0.099-0.02,0.193-0.057,0.279
		l3.133,9.254c0.02,0.033,1.23,2.781-0.739,5.982c-0.161,0.262-0.602,0.822-1.252,1.604l10.465,6.898
		c0.191-0.008,0.385,0.056,0.53,0.202c0.143,0.143,0.291,0.265,0.441,0.376c0.594,0.302,1.456,0.647,2.401,0.732
		c1.081-0.028,2.086-0.421,2.74-0.751c0.141-0.108,0.281-0.222,0.417-0.357c0.146-0.146,0.339-0.21,0.53-0.203l10.83-7.138
		c0.081-0.053,0.169-0.087,0.258-0.104c-0.49-0.598-0.833-1.039-0.969-1.26c-1.97-3.2-0.759-5.949-0.707-6.065l3.101-9.167
		c-0.037-0.086-0.059-0.181-0.059-0.281l0.031-19.321l-1.303-0.973C13.77-68.085,13.237-67.542,12.68-67.021z M-10.641-47.542
		c-1.256,0-2.275-1.02-2.275-2.276c0-1.256,1.02-2.275,2.275-2.275s2.275,1.018,2.275,2.275
		C-8.365-48.561-9.385-47.542-10.641-47.542z M0.269-43.459c-3.512,0-6.358-2.848-6.358-6.359c0-3.511,2.846-6.358,6.358-6.358
		c3.511,0,6.357,2.846,6.357,6.358C6.627-46.306,3.78-43.459,0.269-43.459z M10.643-47.542c-1.256,0-2.276-1.02-2.276-2.276
		c0-1.256,1.021-2.275,2.276-2.275s2.274,1.018,2.274,2.275C12.918-48.561,11.899-47.542,10.643-47.542z"/>
	<path fill="#8A8C8E" d="M2.796-22.532c-0.197,0.136-0.396,0.261-0.6,0.363l9.776,27.338c0.278,0.119,0.566,0.233,0.865,0.341
		c4.315,1.553,10.562-5.537,14.294-9.775c0.95-1.079,1.771-2.01,2.445-2.685c0.333-0.333,0.666-0.62,0.999-0.881L12.744-29.034
		l-9.058,5.97C3.438-22.889,3.135-22.707,2.796-22.532z"/>
	<path fill="#8A8C8E" d="M-29.578-6.949c0.444,0.444,0.958,1.008,1.524,1.645l17.402-21.753l-4.718-3.109
		c-4.472,5.243-14.438,16.279-18.649,20.928C-32.54-9.182-31.054-8.425-29.578-6.949z"/>
	<path fill="#8A8C8E" d="M-13.885,5.707c0.358-0.021,0.709-0.074,1.046-0.195c2.444-0.882,4.144-2.158,5.787-3.392
		c1.734-1.302,3.406-2.536,5.628-2.981v-20.808c-0.779-0.096-1.559-0.361-2.287-0.868c-0.343-0.177-0.65-0.361-0.902-0.54
		l-5.383-3.548L-13.885,5.707z"/>
	<path fill="#231F20" d="M-15.2-89.379c0.23-0.739,0.936-1.235,1.757-1.235c0.823,0,1.529,0.497,1.757,1.237l1.887,6.065H9.8
		l1.886-6.068c0.23-0.739,0.936-1.235,1.758-1.235s1.528,0.496,1.758,1.234l2.335,7.511l1.006-0.013
		c-0.256-3.731-1.612-7.156-3.752-9.964c1.44,0.462,2.965,0.705,4.504,0.705c3.599,0,6.796-1.312,8.343-3.422
		c1.394-1.9,1.531-4.506,0.389-7.339c-1.085-2.688-3.215-5.293-5.999-7.334c-3.079-2.257-6.619-3.552-9.714-3.552
		c-2.612,0-4.731,0.929-5.967,2.614c-2.104,2.871-1.884,8.125,0.814,12.404C4.954-98.693,2.536-99.207,0-99.207
		c-2.536,0-4.953,0.514-7.158,1.436c2.698-4.278,2.918-9.533,0.814-12.403c-1.236-1.686-3.355-2.614-5.967-2.614
		c-3.095,0-6.636,1.294-9.714,3.552c-2.784,2.041-4.915,4.646-5.999,7.334c-1.144,2.833-1.006,5.439,0.388,7.339
		c1.548,2.111,4.745,3.422,8.344,3.422c1.539,0,3.063-0.243,4.504-0.704c-2.14,2.808-3.497,6.232-3.752,9.963l1.008,0.013
		L-15.2-89.379z"/>
	<path fill="#231F20" d="M-12.038-66.438c2.533,5.244,7.216,8.56,12.274,8.56c5.122,0,9.87-3.368,12.392-8.789
		c0.054-0.116,0.063-0.237,0.053-0.355c0.557-0.52,1.09-1.063,1.58-1.647l-0.815-0.608l-6.301,4.705
		c-0.628,0.464-1.495,0.468-2.125,0.043C3.432-64.033,1.747-63.765,0-63.765c-1.746,0-3.43-0.268-5.014-0.763
		c-0.308,0.206-0.657,0.322-1.024,0.322c-0.4,0-0.781-0.127-1.102-0.367l-6.301-4.705l-0.817,0.61
		C-13.583-67.862-12.838-67.119-12.038-66.438z M0-61.993c3.691,0,7.126-1.094,10.023-2.955c-2.414,3.538-5.992,5.654-9.787,5.654
		c-3.611,0-7.022-1.931-9.417-5.142C-6.469-62.89-3.34-61.993,0-61.993z"/>
	<path fill="#FFFFFF" d="M-3.786-69.523c1.225,1.311,2.479,1.974,3.739,1.974c1.621,0,2.995-1.093,3.84-1.974H-3.786z"/>
	<path fill="#231F20" d="M-0.047-66.132c2.277,0,4.067-1.524,5.062-2.622l0.689-2.03c-0.121-0.091-0.26-0.156-0.417-0.156H-5.287
		c-0.156,0-0.295,0.062-0.415,0.153l0.678,1.998C-3.46-67.032-1.791-66.132-0.047-66.132z M-3.786-69.523h7.579
		c-0.845,0.881-2.219,1.974-3.84,1.974C-1.307-67.549-2.561-68.212-3.786-69.523z"/>
	<circle fill="#231F20" cx="0.269" cy="-49.817" r="6.358"/>
	<circle fill="#231F20" cx="-10.641" cy="-49.817" r="2.275"/>
	<circle fill="#231F20" cx="10.643" cy="-49.817" r="2.275"/>
	<path fill="#231F20" d="M68.24,91.83c-0.321-1.894-0.575-3.39-0.657-4.089c-0.351-2.984-2.525-6.691-2.596-6.809L45.909,44.607
		l1.728-2.985c0.001-0.002,0-0.004,0.001-0.006c0.059-0.104,0.101-0.221,0.113-0.348c0.001-0.014-0.004-0.025-0.004-0.039
		c0.002-0.038-0.008-0.073-0.011-0.111c-0.007-0.101-0.026-0.196-0.065-0.286c-0.008-0.019-0.004-0.04-0.014-0.059l-6.667-13
		c-0.128-0.25-0.368-0.425-0.646-0.47c-0.139-0.022-1.72-0.247-4.263,0.281c0.837-1.405,0.758-3.3,0.488-4.424l-1.552-7.287
		c0.124-0.021,0.247-0.059,0.357-0.135c0.114-0.079,2.768-1.999,0.121-7.291c-2.03-4.062,0.607-7.258,0.741-7.417
		c4.587-5.793,0.836-9.542,0.834-9.542c-8.492-9.351-21.456-23.799-22.366-25.279c-1.458-2.369-0.635-4.327-0.569-4.485
		l6.328-18.691c2.772,6.777,8.765,21.182,11.197,25.112c1.164,1.879,2.29,2.993,4.597,3.122c0.095,0.005,0.189,0.008,0.283,0.008
		c2.731,0,4.675-2.194,4.813-2.359c0.128-0.181,12.82-18.138,14.246-20.042c1.585-2.115,1.855-5.4,1.865-5.53
		c0.02-0.229,0.485-5.628,0.485-8.294c0-2.649-2.335-3.934-3.56-4.24l-4.555-1.198c-0.074-0.019-0.149-0.029-0.226-0.029
		c-0.135,0-1.346,0.027-2.438,0.983c-0.896,0.785-2.399,2.393-2.463,2.461c-0.146,0.157-0.231,0.363-0.237,0.578
		c-0.046,1.51,0.618,4.474,3.445,4.93c0.062,1.72,0.148,3.439,0.155,3.574c0.052,0.591,0.078,2.315-0.428,3.182
		c-0.523,0.896-6.664,9.148-10.316,14.033l-11.52-25.971c-0.185-0.789-1.514-5.774-5.527-6.799l0.765,2.252
		c2.263,1.491,3.042,4.968,3.051,5.01c0.013,0.06,0.032,0.119,0.057,0.175L36.112-39.05c-0.104,0.138-0.203,0.271-0.297,0.396
		c-0.294,0.392-0.214,0.947,0.177,1.24c0.16,0.12,0.346,0.177,0.531,0.177c0.269,0,0.535-0.122,0.709-0.354
		c1.142-1.522,11.176-14.91,11.944-16.226c0.879-1.51,0.687-3.959,0.664-4.198c-0.002-0.043-0.217-4.361-0.217-6.172
		c0-0.279,0.03-0.448,0.057-0.544c0.407,0.07,0.812-0.149,0.97-0.544c0.182-0.454-0.039-0.97-0.493-1.152
		c-0.36-0.145-0.958-0.189-1.467,0.155c-0.557,0.377-0.839,1.078-0.839,2.085c0,0.252,0.004,0.55,0.011,0.873
		c-1.306-0.447-1.565-2.024-1.61-2.711c0.461-0.486,1.462-1.527,2.087-2.075c0.472-0.414,0.985-0.513,1.185-0.537l4.426,1.164
		c0.022,0.006,2.229,0.58,2.229,2.523c0,2.589-0.475,8.085-0.48,8.148c-0.002,0.029-0.244,2.915-1.517,4.613
		c-1.441,1.923-13.752,19.341-14.218,20.008c-0.016,0.019-1.609,1.778-3.608,1.678c-1.572-0.088-2.255-0.776-3.189-2.286
		C30.1-37.741,20.761-60.937,20.667-61.17c-0.182-0.454-0.698-0.674-1.152-0.491c-0.454,0.182-0.674,0.698-0.491,1.152
		c0.042,0.104,0.19,0.473,0.417,1.033l-2.487,7.35l0.023-14.513l-1.415-1.057l-0.031,19.321c0,0.1,0.021,0.195,0.059,0.281
		l-3.101,9.167c-0.052,0.116-1.263,2.865,0.707,6.065c0.136,0.221,0.479,0.662,0.969,1.26c-0.089,0.017-0.178,0.051-0.258,0.104
		L3.076-24.36c-0.191-0.008-0.384,0.056-0.53,0.203c-0.136,0.136-0.276,0.25-0.417,0.357c-0.654,0.33-1.659,0.723-2.74,0.751
		c-0.946-0.084-1.808-0.43-2.401-0.732c-0.15-0.112-0.298-0.233-0.441-0.376c-0.146-0.146-0.339-0.21-0.53-0.202l-10.465-6.898
		c0.651-0.782,1.091-1.341,1.252-1.604c1.97-3.201,0.759-5.95,0.739-5.982l-3.133-9.254c0.037-0.086,0.057-0.18,0.057-0.279
		l-0.076-19.282l-1.413,1.055l0.057,14.444l-2.476-7.314c0.228-0.561,0.376-0.93,0.418-1.034c0.183-0.454-0.037-0.97-0.491-1.152
		c-0.455-0.183-0.97,0.038-1.152,0.491c-0.094,0.234-9.434,23.43-12.501,28.383c-0.934,1.509-1.616,2.197-3.188,2.285
		c-1.963,0.116-3.545-1.605-3.552-1.605v0c-0.533-0.754-12.833-18.159-14.273-20.081c-1.273-1.699-1.515-4.584-1.518-4.621
		c-0.005-0.055-0.479-5.551-0.479-8.141c0-1.92,2.141-2.5,2.238-2.526l4.417-1.162c0.2,0.024,0.715,0.126,1.185,0.537
		c0.625,0.547,1.625,1.587,2.087,2.074c-0.047,0.684-0.311,2.265-1.61,2.712c0.007-0.323,0.011-0.621,0.011-0.872
		c0-1.006-0.282-1.708-0.839-2.084c-0.509-0.345-1.109-0.3-1.468-0.156c-0.443,0.177-0.655,0.669-0.493,1.119
		c0.145,0.401,0.562,0.628,0.97,0.573c0.027,0.095,0.059,0.265,0.059,0.548c0,1.811-0.217,6.128-0.216,6.136
		c-0.025,0.274-0.218,2.725,0.663,4.234c0.769,1.315,10.802,14.703,11.944,16.225c0.174,0.232,0.44,0.354,0.709,0.354
		c0.185,0,0.372-0.058,0.531-0.177c0.391-0.293,0.471-0.849,0.177-1.24c-0.095-0.126-0.194-0.259-0.298-0.397l11.958-26.957
		c0.025-0.056,0.044-0.115,0.057-0.175c0.009-0.042,0.79-3.522,3.054-5.012l0.765-2.252c-4.015,1.023-5.346,6.011-5.531,6.8
		l-11.521,25.97c-3.653-4.885-9.793-13.136-10.316-14.032c-0.506-0.868-0.481-2.591-0.426-3.217
		c0.005-0.112,0.091-1.823,0.154-3.539c2.827-0.456,3.492-3.419,3.447-4.929c-0.007-0.215-0.091-0.421-0.238-0.578
		c-0.063-0.068-1.567-1.677-2.463-2.461c-1.092-0.956-2.303-0.983-2.437-0.983c-0.076,0-0.152,0.01-0.225,0.029l-4.546,1.196
		c-1.235,0.309-3.569,1.593-3.569,4.242c0,2.666,0.466,8.065,0.485,8.285c0.011,0.139,0.28,3.424,1.866,5.539
		c1.426,1.903,14.117,19.86,14.301,20.112c0.084,0.096,2.026,2.288,4.758,2.288c0.093,0,0.188-0.003,0.283-0.008
		c2.309-0.129,3.434-1.242,4.597-3.122c2.433-3.93,8.426-18.334,11.199-25.112l6.36,18.774c0.009,0.02,0.878,1.997-0.603,4.403
		c-0.91,1.479-13.874,15.928-22.326,25.237c-0.039,0.037-3.794,3.787,0.816,9.609c0.028,0.033,2.765,3.298,0.719,7.39
		c-2.646,5.293,0.007,7.212,0.121,7.292c0.111,0.077,0.233,0.115,0.356,0.134l-1.547,7.265c-0.273,1.139-0.354,3.039,0.482,4.445
		c-2.543-0.529-4.125-0.303-4.264-0.28c-0.278,0.045-0.518,0.22-0.646,0.47l-6.666,13c-0.01,0.019-0.006,0.042-0.014,0.062
		c-0.037,0.086-0.055,0.177-0.062,0.274c-0.003,0.042-0.015,0.08-0.012,0.122c0,0.012-0.004,0.022-0.003,0.034
		c0.012,0.125,0.052,0.24,0.109,0.342c0.003,0.005,0.001,0.01,0.004,0.015l1.728,2.985l-19.058,36.287
		c-0.092,0.157-2.265,3.863-2.617,6.847c-0.083,0.701-0.336,2.201-0.659,4.1c-1.894,11.177-2.252,14.914-1.532,15.995
		c0.156,0.234,0.311,0.507,0.478,0.798c0.902,1.578,2.25,3.937,5.475,3.937c0.107,0,0.216-0.002,0.327-0.008
		c1.769-0.084,3.365-0.835,4.494-2.115c1.057-1.197,1.622-2.756,1.513-4.171c-0.151-1.97-0.018-13.523,0-15.082
		c0.377-0.909,1.81-4.546,1.548-6.814c7.643-11.334,18.428-27.214,22.767-33.348c0.024-0.005,0.048-0.004,0.071-0.011l3.666-1.166
		c0.012-0.004,0.02-0.014,0.032-0.018c0.066-0.024,0.124-0.066,0.184-0.106c0.043-0.029,0.09-0.051,0.128-0.087
		c0.008-0.007,0.019-0.01,0.026-0.018c0.051-0.053,0.079-0.118,0.114-0.178c0.019-0.032,0.048-0.055,0.063-0.089l5.834-13.667
		c0.148-0.347,0.06-0.75-0.219-1.003c-1.089-0.99-2.148-1.838-3.176-2.586l8.967-14.534l35.228,0.422l8.706,14.112
		c-1.027,0.747-2.086,1.595-3.176,2.585c-0.279,0.254-0.367,0.657-0.219,1.003l5.833,13.667c0.015,0.034,0.044,0.057,0.063,0.089
		c0.035,0.061,0.063,0.125,0.114,0.178c0.007,0.008,0.018,0.01,0.026,0.018c0.038,0.037,0.084,0.058,0.128,0.087
		c0.06,0.041,0.118,0.082,0.184,0.106c0.012,0.004,0.02,0.014,0.032,0.018l3.667,1.166c0.023,0.007,0.047,0.005,0.07,0.011
		c4.338,6.134,15.124,22.015,22.767,33.348c-0.262,2.268,1.17,5.905,1.548,6.814c0.019,1.559,0.152,13.111,0,15.082
		c-0.109,1.414,0.457,2.973,1.513,4.17c1.129,1.28,2.726,2.031,4.495,2.115c0.111,0.005,0.22,0.008,0.327,0.008
		c3.224,0,4.573-2.358,5.475-3.937c0.167-0.291,0.322-0.564,0.478-0.798C70.495,106.755,70.136,103.015,68.24,91.83z M57.538,86.507
		c-0.096-0.264-0.027-0.561,0.177-0.755l2.837-2.708l-1.271,0.15c-0.295,0.038-0.591-0.125-0.722-0.398l-2.186-4.571
		c-0.169-0.353-0.02-0.776,0.333-0.945c0.353-0.169,0.776-0.019,0.945,0.333l1.967,4.114l2.875-0.339
		c0.301-0.034,0.594,0.126,0.724,0.402s0.069,0.604-0.152,0.814l-3.204,3.058l4.549,0.295c0.311,0.02,0.572,0.241,0.644,0.544
		c0.071,0.303-0.063,0.618-0.333,0.775l-3.676,2.145l1.47,0.791c0.221,0.119,0.363,0.347,0.372,0.598l0.396,10.931
		c0.014,0.391-0.291,0.72-0.682,0.734c-0.009,0-0.018,0-0.026,0c-0.379,0-0.694-0.3-0.708-0.683l-0.382-10.525L59.26,90.07
		c-0.226-0.122-0.368-0.355-0.373-0.612s0.13-0.495,0.352-0.625l2.764-1.612l-3.845-0.249
		C57.877,86.954,57.634,86.771,57.538,86.507z M-64.844,86.827c-0.202-0.155-0.305-0.407-0.27-0.659
		c0.035-0.252,0.203-0.466,0.439-0.561l3.22-1.287l-1.185-2.075c-0.102-0.178-0.122-0.391-0.054-0.585
		c0.067-0.193,0.215-0.348,0.405-0.424l1.748-0.701l7.629-14.083c0.187-0.344,0.618-0.472,0.96-0.286
		c0.344,0.187,0.472,0.617,0.286,0.96l-7.751,14.308c-0.079,0.146-0.206,0.259-0.359,0.32l-1.23,0.493l1.185,2.075
		c0.102,0.178,0.122,0.392,0.054,0.585c-0.067,0.194-0.215,0.349-0.406,0.425l-2.821,1.127l1.599,1.23
		c0.172,0.132,0.274,0.337,0.276,0.555c0.002,0.218-0.096,0.424-0.266,0.56l-1.743,1.395l-0.577,8.831
		c-0.024,0.375-0.336,0.662-0.707,0.662c-0.015,0-0.031,0-0.047-0.001c-0.391-0.025-0.687-0.363-0.661-0.753l0.598-9.142
		c0.013-0.198,0.109-0.382,0.264-0.507l1.281-1.025L-64.844,86.827z M-32.847,28.546c0.108-0.459-0.159-0.927-0.619-1.055
		c-2.135-0.593-1.407-3.805-1.37-3.962l5.808-27.265c0.061,0.069,0.125,0.142,0.187,0.212c0.126,0.144,0.25,0.283,0.381,0.432
		c3.805,4.319,9.334,10.596,14.334,10.596c0.272,0,0.543-0.029,0.812-0.068l-5.289,8.573c-0.135,0.115-0.226,0.267-0.273,0.442
		l-0.296,0.48l-8.741,14.168C-29.698,29.946-31.36,29.119-32.847,28.546z M-15.369-30.167l4.718,3.109L-28.053-5.304
		c-0.566-0.636-1.08-1.2-1.524-1.645c-1.477-1.477-2.962-2.233-4.44-2.29C-29.807-13.887-19.841-24.923-15.369-30.167z
		 M12.744-29.034L30.575-7.83c-0.333,0.261-0.667,0.548-0.999,0.881c-0.674,0.674-1.495,1.606-2.445,2.685
		c-3.732,4.238-9.979,11.328-14.294,9.775c-0.299-0.108-0.587-0.222-0.865-0.341L2.196-22.168c0.203-0.103,0.403-0.227,0.6-0.363
		c0.34-0.175,0.643-0.357,0.891-0.533L12.744-29.034z M-4.612-23.077c0.252,0.178,0.559,0.363,0.902,0.54
		c0.728,0.507,1.507,0.772,2.287,0.868v20.808C-3.645-0.417-5.318,0.817-7.052,2.12c-1.643,1.234-3.342,2.51-5.787,3.392
		c-0.337,0.122-0.688,0.174-1.046,0.195l3.889-32.332L-4.612-23.077z M13.314,7.436c0.27,0.039,0.54,0.068,0.813,0.068
		c0.469,0,0.944-0.071,1.42-0.175c4.604-1.002,9.466-6.508,12.914-10.422c0.062-0.07,0.118-0.133,0.178-0.201
		c0.132-0.15,0.263-0.298,0.389-0.441l2.017,9.468l0.892,4.184l2.905,13.635c0.008,0.034,0.775,3.343-1.375,3.94
		c-0.46,0.127-0.728,0.596-0.619,1.056c-1.488,0.573-3.149,1.399-4.933,2.554L13.314,7.436z M-67.028,108.952
		c0.382,0.443,0.8,0.883,1.235,1.282C-66.29,109.902-66.685,109.453-67.028,108.952z"/>
	<path fill="#645C5D" d="M-64.522,89.796l-0.598,9.142c-0.026,0.391,0.27,0.728,0.661,0.753c0.016,0.001,0.032,0.001,0.047,0.001
		c0.371,0,0.682-0.288,0.707-0.662l0.577-8.831l1.743-1.395c0.17-0.136,0.268-0.342,0.266-0.56
		c-0.002-0.218-0.104-0.422-0.276-0.555l-1.599-1.23l2.821-1.127c0.19-0.076,0.338-0.231,0.406-0.425
		c0.068-0.193,0.048-0.407-0.054-0.585l-1.185-2.075l1.23-0.493c0.153-0.062,0.281-0.175,0.359-0.32l7.751-14.308
		c0.187-0.344,0.059-0.774-0.286-0.96c-0.343-0.186-0.774-0.058-0.96,0.286l-7.629,14.083l-1.748,0.701
		c-0.19,0.076-0.338,0.231-0.405,0.424c-0.068,0.194-0.048,0.407,0.054,0.585l1.185,2.075l-3.22,1.287
		c-0.236,0.095-0.404,0.309-0.439,0.561c-0.035,0.252,0.068,0.503,0.27,0.659l1.868,1.438l-1.281,1.025
		C-64.413,89.414-64.509,89.598-64.522,89.796z"/>
	<path fill="#645C5D" d="M58.158,86.972l3.845,0.249l-2.764,1.612c-0.222,0.129-0.356,0.368-0.352,0.625s0.147,0.49,0.373,0.612
		l2.226,1.198l0.382,10.525c0.014,0.382,0.328,0.683,0.708,0.683c0.009,0,0.018,0,0.026,0c0.391-0.014,0.696-0.343,0.682-0.734
		L62.887,90.81c-0.009-0.251-0.151-0.479-0.372-0.598l-1.47-0.791l3.676-2.145c0.27-0.157,0.404-0.472,0.333-0.775
		c-0.072-0.304-0.333-0.524-0.644-0.544l-4.549-0.295l3.204-3.058c0.221-0.21,0.282-0.539,0.152-0.814s-0.423-0.436-0.724-0.402
		l-2.875,0.339l-1.967-4.114c-0.168-0.353-0.592-0.503-0.945-0.333c-0.353,0.168-0.502,0.592-0.333,0.945l2.186,4.571
		c0.131,0.273,0.427,0.436,0.722,0.398l1.271-0.15l-2.837,2.708c-0.204,0.194-0.273,0.491-0.177,0.755S57.877,86.954,58.158,86.972z
		"/>
	<path fill="#FFFFFF" d="M-17.793-74.152l-2.488,7.329l6.205-4.632c0.377-0.282,0.894-0.282,1.272,0l6.202,4.631l-2.487-7.328
		c-0.151-0.446,0.009-0.938,0.393-1.21l6.32-4.467l-7.739,0.097c-0.438-0.007-0.888-0.298-1.028-0.747l-2.299-7.389l-2.296,7.389
		c-0.14,0.449-0.55,0.74-1.028,0.748l-7.738-0.097l6.32,4.467C-17.801-75.09-17.641-74.598-17.793-74.152z"/>
	<path fill="#8A8C8E" d="M-21.042-71.195l-1.548,4.559c-0.257,0.767,0.009,1.602,0.659,2.075c0.632,0.465,1.55,0.463,2.188-0.011
		l2.723-2.032l1.413-1.055l1.35-1.008l0.817-0.61l6.301,4.705c0.32,0.24,0.702,0.367,1.102,0.367c0.367,0,0.716-0.116,1.024-0.322
		c0.019-0.013,0.042-0.017,0.06-0.031c0.659-0.481,0.923-1.319,0.66-2.08l-0.73-2.151l-0.678-1.998l-1.119-3.297l6.424-4.541
		c0.156-0.112,0.288-0.247,0.399-0.394c0.113,0.148,0.247,0.284,0.405,0.396l6.418,4.539l-1.12,3.3l-0.689,2.03l-0.718,2.115
		c-0.259,0.765,0.006,1.6,0.657,2.078c0.02,0.014,0.043,0.019,0.063,0.032c0.631,0.425,1.498,0.421,2.125-0.043l6.301-4.705
		l0.815,0.608l1.303,0.973l1.415,1.057l2.774,2.071c0.321,0.237,0.7,0.362,1.097,0.362c0.388,0,0.76-0.12,1.084-0.353
		c0.658-0.481,0.922-1.319,0.659-2.08l-1.545-4.555l-0.765-2.252l-0.216-0.638l6.425-4.542c0.655-0.468,0.93-1.299,0.681-2.072
		c-0.254-0.781-0.976-1.324-1.816-1.269l-6.812,0.085l-1.006,0.013l-2.335-7.511c-0.23-0.738-0.936-1.234-1.758-1.234
		s-1.528,0.496-1.758,1.235L9.8-83.312l-0.448,1.443l-7.819-0.098c-0.619-0.043-1.178,0.25-1.53,0.724
		c-0.352-0.475-0.913-0.77-1.533-0.724l-7.819,0.098l-0.449-1.443l-1.887-6.065c-0.228-0.74-0.934-1.237-1.757-1.237
		c-0.821,0-1.527,0.496-1.757,1.235l-2.334,7.511l-1.008-0.013l-6.812-0.085c-0.812-0.052-1.562,0.488-1.819,1.276
		c-0.246,0.769,0.032,1.599,0.691,2.067l6.421,4.539l-0.217,0.638L-21.042-71.195z M-16.767-79.733
		c0.478-0.008,0.889-0.298,1.028-0.748l2.296-7.389l2.299,7.389c0.14,0.449,0.591,0.74,1.028,0.747l7.739-0.097l-6.32,4.467
		c-0.384,0.272-0.544,0.764-0.393,1.21l2.487,7.328l-6.202-4.631c-0.378-0.282-0.895-0.282-1.272,0l-6.205,4.632l2.488-7.329
		c0.151-0.446-0.008-0.938-0.393-1.21l-6.32-4.467L-16.767-79.733z M15.741-80.48c0.14,0.45,0.556,0.741,1.028,0.748l7.74-0.097
		l-6.32,4.467c-0.384,0.272-0.544,0.764-0.393,1.209l2.486,7.328l-6.202-4.631c-0.378-0.282-0.895-0.282-1.272,0l-6.203,4.632
		l2.488-7.329c0.151-0.446-0.009-0.938-0.393-1.209L2.383-79.83l7.735,0.097c0.495-0.008,0.889-0.298,1.028-0.748l2.297-7.392
		L15.741-80.48z"/>
	<path fill="#FFFFFF" d="M11.147-80.48c-0.139,0.449-0.533,0.74-1.028,0.748L2.383-79.83L8.7-75.362
		c0.384,0.271,0.544,0.764,0.393,1.209l-2.488,7.329l6.203-4.632c0.378-0.282,0.895-0.282,1.272,0l6.202,4.631l-2.486-7.328
		c-0.151-0.445,0.009-0.938,0.393-1.209l6.32-4.467l-7.74,0.097c-0.472-0.007-0.889-0.298-1.028-0.748l-2.298-7.392L11.147-80.48z"
		/>
</g>
</svg>
