<?xml version="1.0" encoding="utf-8"?>
<!-- Generator: Adobe Illustrator 16.0.0, SVG Export Plug-In . SVG Version: 6.00 Build 0)  -->
<!DOCTYPE svg PUBLIC "-//W3C//DTD SVG 1.1//EN" "http://www.w3.org/Graphics/SVG/1.1/DTD/svg11.dtd" [
	<!ENTITY ns_extend "http://ns.adobe.com/Extensibility/1.0/">
	<!ENTITY ns_ai "http://ns.adobe.com/AdobeIllustrator/10.0/">
	<!ENTITY ns_graphs "http://ns.adobe.com/Graphs/1.0/">
	<!ENTITY ns_vars "http://ns.adobe.com/Variables/1.0/">
	<!ENTITY ns_imrep "http://ns.adobe.com/ImageReplacement/1.0/">
	<!ENTITY ns_sfw "http://ns.adobe.com/SaveForWeb/1.0/">
	<!ENTITY ns_custom "http://ns.adobe.com/GenericCustomNamespace/1.0/">
	<!ENTITY ns_adobe_xpath "http://ns.adobe.com/XPath/1.0/">
]>
<svg version="1.1" id="Layer_1" xmlns:x="&ns_extend;" xmlns:i="&ns_ai;" xmlns:graph="&ns_graphs;"
	 xmlns="http://www.w3.org/2000/svg" xmlns:xlink="http://www.w3.org/1999/xlink" x="0px" y="0px" width="595.279px"
	 height="841.89px" viewBox="0 0 595.279 841.89" enable-background="new 0 0 595.279 841.89" xml:space="preserve">
<metadata><?xpacket begin="﻿" id="W5M0MpCehiHzreSzNTczkc9d"?>
<x:xmpmeta xmlns:x="adobe:ns:meta/" x:xmptk="Adobe XMP Core 5.3-c011 66.145661, 2012/02/06-14:56:27        ">
   <rdf:RDF xmlns:rdf="http://www.w3.org/1999/02/22-rdf-syntax-ns#">
      <rdf:Description rdf:about=""
            xmlns:dc="http://purl.org/dc/elements/1.1/">
         <dc:format>image/svg+xml</dc:format>
         <dc:title>
            <rdf:Alt>
               <rdf:li xml:lang="x-default">Print</rdf:li>
            </rdf:Alt>
         </dc:title>
      </rdf:Description>
      <rdf:Description rdf:about=""
            xmlns:xmp="http://ns.adobe.com/xap/1.0/"
            xmlns:xmpGImg="http://ns.adobe.com/xap/1.0/g/img/">
         <xmp:MetadataDate>2018-09-05T11:32:02-03:00</xmp:MetadataDate>
         <xmp:ModifyDate>2018-09-05T11:32:02-03:00</xmp:ModifyDate>
         <xmp:CreateDate>2018-09-05T11:32:01-03:00</xmp:CreateDate>
         <xmp:CreatorTool>Adobe Illustrator CS6 (Macintosh)</xmp:CreatorTool>
         <xmp:Thumbnails>
            <rdf:Alt>
               <rdf:li rdf:parseType="Resource">
                  <xmpGImg:width>152</xmpGImg:width>
                  <xmpGImg:height>256</xmpGImg:height>
                  <xmpGImg:format>JPEG</xmpGImg:format>
                  <xmpGImg:image>/9j/4AAQSkZJRgABAgEASABIAAD/7QAsUGhvdG9zaG9wIDMuMAA4QklNA+0AAAAAABAASAAAAAEA&#xA;AQBIAAAAAQAB/+4ADkFkb2JlAGTAAAAAAf/bAIQABgQEBAUEBgUFBgkGBQYJCwgGBggLDAoKCwoK&#xA;DBAMDAwMDAwQDA4PEA8ODBMTFBQTExwbGxscHx8fHx8fHx8fHwEHBwcNDA0YEBAYGhURFRofHx8f&#xA;Hx8fHx8fHx8fHx8fHx8fHx8fHx8fHx8fHx8fHx8fHx8fHx8fHx8fHx8fHx8f/8AAEQgBAACYAwER&#xA;AAIRAQMRAf/EAaIAAAAHAQEBAQEAAAAAAAAAAAQFAwIGAQAHCAkKCwEAAgIDAQEBAQEAAAAAAAAA&#xA;AQACAwQFBgcICQoLEAACAQMDAgQCBgcDBAIGAnMBAgMRBAAFIRIxQVEGE2EicYEUMpGhBxWxQiPB&#xA;UtHhMxZi8CRygvElQzRTkqKyY3PCNUQnk6OzNhdUZHTD0uIIJoMJChgZhJRFRqS0VtNVKBry4/PE&#xA;1OT0ZXWFlaW1xdXl9WZ2hpamtsbW5vY3R1dnd4eXp7fH1+f3OEhYaHiImKi4yNjo+Ck5SVlpeYmZ&#xA;qbnJ2en5KjpKWmp6ipqqusra6voRAAICAQIDBQUEBQYECAMDbQEAAhEDBCESMUEFURNhIgZxgZEy&#xA;obHwFMHR4SNCFVJicvEzJDRDghaSUyWiY7LCB3PSNeJEgxdUkwgJChgZJjZFGidkdFU38qOzwygp&#xA;0+PzhJSktMTU5PRldYWVpbXF1eX1RlZmdoaWprbG1ub2R1dnd4eXp7fH1+f3OEhYaHiImKi4yNjo&#xA;+DlJWWl5iZmpucnZ6fkqOkpaanqKmqq6ytrq+v/aAAwDAQACEQMRAD8A9U4q7FXYq8r/ADP/ADE8&#xA;y/4htvy/8hIkvmu9j9a9vpAGisLciodqhlDEb/EDQU2JYYpYf5m/LDyH5ftY738yvzB1a61GQczG&#xA;LmhkNCP3VvwuJuIOwINPlirz68/6F4tlDR6D5ovkYsfrkhSNZAAXLAl1rRQT9kbb5V40LriFjz72&#xA;w45gWRsU10nSf+cbL24WB7zzB5WluF4x/XW9BW8G9QLcRjr1ZqZKE4y5G0ShKPMUzu/8hefPI9gP&#xA;M35c+aLvzDpcK+vcaHqEgu0uIAKsYHjorGn8iqx7E9Mmwep+QPO+l+dfK1pr+nVRJwUuLdjVoZ02&#xA;kiY+x6HuKHvihkWKuxV2KuxV2KuxV2KuxV2KuxV2KuxVL/MOu2GgaHfa1qD8LPT4XnmPchBXiv8A&#xA;lMdgPHFXzR5f8563oGl3mvwQrcfmP+Ykr3NmHFUsdNVmCTMDX4Sa+mvQqqk1pQ0anUQwwM5mohvw&#xA;YJZZiEeZXaT5Utre5fU9TlbVteuD6l1qd0fUkL/5HKvEDoM887R7bzagkA8OPuH6e/7nuND2TiwA&#xA;Ejin3n9Hd96RfmDZX/mOSLQ9AglvtVs+d1dRQAn04fSYEOw2DPWir1PTvmb2HkjpQc2YiGKdRF9Z&#xA;X08h1PT4Ot7fywnw447zG/uDItKuNG13RY1CJc26qIZoJkBZHQcWR0b7LDNTqoZtPmJJMZc7HW+o&#xA;Pc7nTTw6jCKqUeVFbomua7+WF5+ktGeW88pO/LVtBdi3pIx+Ka2LfZIrUjv323Xquxu3vFIxZvr6&#xA;Hv8AI+f3+/nzvavY3hjxMX09R3fs+77pV+X+q6f5S/NifTbGdX8m/mBCNW8vSLtGl03xNEBsEP2l&#xA;49fsDrnUvOPeMUOxV2KuxV2KuxV2KuxV2KuxV2KpJ5183ab5R8sX/mDUam3sk5LEpo0kjELHGvu7&#xA;kD264q+VPzL1jzhrvlu417zXqUyG6dBp+gW7mOzgDsGXmg/vHVVJq2/vkjGg7bJ2f4WDxJ/Uaofr&#xA;+DX5R6SV0qTWLhjJcXB+r27OSSkEJpxUnoC3b2GcJ7UasyyDEOUdz7z+z73d+z2mEcZyHnLYe4ft&#xA;+5P/ADBrl2tymi6Ool1i4WrOd0tojsZZP+NR3/Xq9DooGJzZtsMfnM/zR+n+0jY6zVSEvCxb5T8o&#xA;jvP6PxanlLWda/LsXVv+jW1/TL5zN9atlC34uGFAJ619SMt0b9mp+WHtDBh7U4Tx+BkgK4ZfRw/0&#xA;e4+XXb3uh1PZmXCbjeQHr1vz/WlV5Z+bV1S884+lAmo3bh7zQrVaRNABSnP9ucDflTc1zLxZtJLH&#xA;HSEy4I/Tklz4vd0h5d1e9y9PoNRpx4o3l1h3j/ivxuyPTNTsNY05Lq2Ikt5gVdGG4PRkdexHQjNP&#xA;qdPk0+ThltIfiw73Bnhnx8Ud4n8UXjWo6b+jvPUGjXM84063ukFoEkYNDHOwdTETXiVLA1HcZ6X2&#xA;ZqvHwQmeZG/vGxeG1Gljj1Jxn6eL7C99/L78wvMvlTzLYeWvM+oSav5e1eQW+larcmtxb3B2SKZz&#xA;u6v0BP6qjNhKNI7Q7POnPfE8i9+yLrXYq7FXYq7FXYq7FXYq7FXYq8f/AOcl2c+XvLFu+1lceYLR&#xA;LvsCvCQhW9up+jCObkaUA5Yg8uIfe8d/OlZD5atGH92LxeQ9zFJQ5ZPk9L27/dD+t+gobSvNNvof&#xA;5YWV7Coa4+O3gjPT1jI5JYDsKFvfOC1XZx1PaUoHaOxPuocvuZ6fXDBoIyH1bge+z/akA1qy8r+Z&#xA;rW6s9c/TzXypLrdxGjJAVmVHCrzo5kiLNWqimw2qyjo+0Oy8ebB4YFGI9Pl+w9XRaLtCeLNxk2JH&#xA;1ef46PYVZWUMpBUioI3BBzzIh9ASTzZrSaZZQR/Wo7Ka/njtI72YExwCQ/HO4UMSsa1PTNv2LoBq&#xA;c9S+iO5/V8fudZ2trTp8Vx+o7D9bzXT/ADHaeU/ONzbWOpvrGjPII768K8Vlk6STxDk1V5VKsftL&#xA;nadq9lQ1OKgKnH6f1e77nlOzu0ZYMlneMvq/X7135jOk3n+2SEguFtkND+0zVH4MMo9m4yGlF9ZG&#xA;vx77cjtoiWqoc6DP/wA0OK+TrmYHjPBLBJbMOokEyiq+/EnOknydv2wAdOb8vvfVVu0rQRtMoWUo&#xA;pkUdAxG4798peLX4q7FXYq7FXYq7FXYq7FXYqxb8zfJKec/J17oglFvdtxnsLk9I7mE8o2NN6E/C&#xA;1OxOKQafMfmzUWutBvvLHmhP0N5nswGMNyOEcskRqHik+wVk4kA177VGT4rD0WTXY9TpzCR4cg+R&#xA;I/W878s6lC9zYaVqKiXSmvVkkRzspkUxGvtuD9GazW4SIzy4/wC94CB8Nw6zSZQZRxz/ALvj+/Yv&#xA;W28leRdMhlvJtPgjhiBkkkmLyIAPaRmH0Zwse19bmIgJkk9wAP2APXnszSYgZmIAHfZ+9jeoa9qP&#xA;mQF9OvU0vSoH42yF3hlmK7CUskcvFEbonfOq7L7Bx4o8WWp5D37gfjvdLqu0jnNQkMcBy3IJ89gd&#xA;vJMNL1rTNXuF8u+Z47e6vo97S5pWK4FKck5AFHNNxtXtmp7R7MzaKRy6eREOoHT9Y+77XN0utxaj&#xA;9zn4ZS6Hof1FR86+U/J2jeW7+9hsUiunUJA3NyfUY0HBWYgU3OwyPZHamrz6iMJSuPXYcq8gjtPs&#xA;/TYcEpCNS6bn9bBvKUtrfebotT1u7ight3+syvMwXk0f92ijvuB9AztsOOMAIx2AdBo5CecTySoD&#xA;ffy5PavJuhXv5l+Z7CaG3kTyPo9wt1eX0qsi3s8RqkEQIBZQ32/AdaHjW2Urb+1O0Rm9MPpH2vpf&#xA;IOmdirsVdirsVdirsVdirsVdirsVYb+a+reT9F8o3Wr+ZdNtNUSAcbCyu4Y5vWuX/uokWRW6tuSB&#xA;sKntikPlvU/LMdl5CgS+hRL68vobi4RFWPi8z8eChaBeMbUoNh2zkcPaJy66con0RxyA+G9/P7Ke&#xA;ny6HwtHGMh6pTBPx6fJCXk+s2MFlp+pctT8vW93DPJJTlKsMZNYpV/bXcH6My+zZaaefxQODKRRH&#xA;QnvHn+PNr1HjY4xhP14YyB86HQ+T0nyl5s1Cwjnk8ja7bJY3RMs2l3MXrwxyNu0kcfOKSFj1Zfsn&#xA;rTOn4QeScnZ2DUHixTAvp+zoxHz/AKpps1rfNe6kdc8438kTpcIAZI3iYFBGsdVgRFrRR+Ncry8A&#xA;ieKq6215sODDiOOB4spI5c7B+z70g16LVtXMOpa64UCeGODT0P7qKOSVQ3I/tMR1Ocv2fkw4ZeFg&#xA;32JMusiB9348zLWwy5R4mXvFR6AX9/48mf6R/hjy7+ZdrqfmLS7O88va4q2lzPdwRTLaXakejODI&#xA;rcA1KMRTux6ZL2a1wni8In1Q5f1f2H9CO39GYZPEH0y+/wDb+t9RwxQxRJHCixxIAERAAoHYADbO&#xA;medX4q7FXYq7FXYq7FXYq7FXYq7FUDruuaXoWkXer6pOttp9lGZbiZuyjoAO7MdlA6nbFXzXd6pq&#xA;35g+YU8164jQ6VbEjy5pDdIoiaieUVoZH2Nf4AZx/tB2xV4MZ/rH/e/r+Xe9T2L2Vyy5B/VH6f1f&#xA;NI/N16t/r9lpMRDRaeRe3p6gSEFYU+e5b7s1vZuPwtPPKeeT0R938R/R73P1+TxM8cY5Q9Uvf/CP&#xA;0qF7OsFnPOx4rFGzk+HEE4MEOPJGPeQE5p8MDLuBVfK35feWL/yrpcuoWIkuZIhK8wZ43YSMXHIo&#xA;Vr8LAb9s9IERTh6Ps3FPDEzj6qQvm3y5pGh6p5euNNto7SIzTW8pWpLNJGAnJmJJPWlc1/auLi08&#xA;gO6/lux1Onhgy4jAULI+beq2X13Tri1rRpUIQ+DDdT9DAZxWkz+FljPuP2dXM1OLxMZj3sg0e4sf&#xA;NXldY76MSGRTBfwnqk0ezdOhr8QzB1UJ6LU3jNdYn+ifv7i5emnHV6epjykPMfi2afk/+Yd9oGqW&#xA;/wCX/micy20o4+WNWk/bUHa0lY/tLsE/4H+XO97M7RhqsfEPqH1DuP6u543tDQS086P0nkfx173u&#xA;ubF17sVdirsVdirsVdirE/Pf5p+RfI1s0vmLVIre49P1YtPQh7uVa8R6cIPI1bapoOu+xxViv5V/&#xA;nzF+YvmvUdKsPL11Y6RaWpurXWLlx+/HqJGFMISiFuTEUkbZTir1bFXzz+bfmN/OvnU+U7difLPl&#xA;yQSauVPw3N8OkJ8Vi3BHjX2zS9udpflsVR/vJcvLvP46u37H0Hj5Ll9Eef6ki8y+YodFtEjhQTaj&#xA;cfBY2Y/ab+ZgOiL3OcR2foTqJkyNY47yl+Opeu1usGGNRFzP0j8dAxawtTZW0s11N6tzMxnvblj9&#xA;pzux9lHQe2bTUZvFmBAVEbRHl+t12DF4cSZH1HeRY6bHXPON2Usg6aak8cNKUARlLmaSvsAQPfOs&#xA;7N7PjhjfOZ5n9Dp8hyaydR+gH8EvUrzzBpOktBpVukl5qAQR2ul2aGa4YKtAOC9Nh3zZ5tRjxRMp&#xA;kRiOp2d7m1mLABHqOg5opfys82+boY5fMlymg2EcqzW2mW6pcXQZQQryzE8EbfooPvnBdq+3OKJM&#xA;MEfEHedo/rP2Oj1OpyZ+fpiDYHX5obzH+UfmnRbaTUNE1BtdhiHObTLiNUuSoHxGCSPZ278Svyqc&#xA;1Gj7f0uolwZYeCTylE3H/OB5DzTDV5se98Y7j+tg+ma0NMuxrlnyl0q8ouqWwB5Iy/D6wXsydHHc&#xA;Zvc2l8WP5fJtlj9B6H+j7j0/Ac/DqfDl40N8cvrHd5/Dr+CzPWtK0/zJonppKCsgE1jeRmvCQCqS&#xA;KRmi0eqyaPPxVuNpDy6h3Oq08NVhq9juC9d/JT8wLrzV5clstXIXzLobiz1ZD1koP3VxTwlUf8ED&#xA;2pnp2LLHJATibiRb57lxShIxlzD0PLGt2KuxV2KuxV8+fmNff85KeYPNer+X9Bjt/KnlyyrNaa47&#xA;mMXEIIRa3YEvF358+CqpWlCfFZRgZGgLLH/Lv5Lfln5ZuXvNUlk86ayLh5lmuEMNnR0oUmjZ5frH&#xA;xlm5GnLJiDudN2JknvP0j7Wc2euawPqWm6Sw060gKw2On2K+hAgrRUCJ1FfGuT4QHdR7O0+KBuNi&#xA;tyd/x8Hov5k+bB5T8j6xr4I9azgP1UNuDcSERwgjuPUda+2UvFPmOz1NfK+i21gsbX3mXUAbueEm&#xA;pMsxq8k79lX7Ne9Ppzg9RiOu1Essjw4IHh4vd0j3k8/j8HtMOQaPDHHEcWaW9e/v8hyQdnYTfWZN&#xA;R1CX61qk4pJP+yi9o4x+yowZ9QDEY8Y4cQ5Dv8z5rhwEHjmeLIev6B5Jx5S8qy+dtfNkeS+XdNdW&#xA;1iZSQJpButojDx6yEdB4GmY2s1o7PweJ/l8g9A/mj+ef0Ou12o8SXhx+kc/1PQNS/J6a68wX17aa&#xA;/NpWkag0by6bZQRxyAxwrFRLgluAolaBM1ui9tMun00cQhxTF+onnvfL4/znEgZwsRlwg9362WeV&#xA;/JXlryxbmLR7JIZHH7+6b47iU1qTJK1Xap3pWngM5ntDtXUayXFlkZeXQe4IjADknma9k7FXiv5s&#xA;eSW0S+m83aVDz0u7auv2aCvpu231tF8D/uz/AILxp3XYHaQ1MBpsh/ex/u5d/wDQP+9+XvlhzHDK&#xA;/wCA8x+lhGmX155db19PU3mhTfvJbFDV4uW5kt69R/kZu8uOGrHDk9GcbCXf5S/X+DtsU5ab1Y/V&#xA;hPOPd5x/Uy3yh5ms9G/Mfy95o0+YPo/mM/ofUmWoUtKf3DsOzLIoDV6BaZsvZ7LPGZ6bJtKG49x5&#xA;/Dr8XA7cxwmI54bxlt8fx9z6hzp3nXYq7FUg81+fvJ/lNbc+YtUi083RYW6OGZ34U5EKgZqCo3pT&#xA;FWO3v57flmlk0tjrtpdXBA9OEyel17sZOFKd++EC3K0unGSVSkIjvLC9S1+/1qQXVzcetG/xxKpr&#xA;EFPTgAaUp3y4CntNNpseKNQHx7/ir+XtAu9a1BbWD4Yx8U81KhE8fn4DEmmOs1ccEOI8+g73rWm+&#xA;WNC0545bW0RZ41CrM3xP0pWp7nuRlJkXjs2uzZQRKWx6PMP+cmb2nl/y9pbGkF/q8T3XcNDbozuv&#xA;3kH6MxtXKQxSMfq4TXvrZr0oickeL6bF+54honO5jk1e4+K81NjNI3Xih2jjHsqUzjtfIRkMMfox&#xA;7D39T77eq0QMgcsvrnv+oI17XUdS1Gw0LTGEeoatKYYpm3EUaqXmlpUV4IpNMoxGGOE82TeGIWR3&#xA;nlEfEsNfqDCIjH6pfgvojyv5PtvLeiW2kaZayLbW67uykvI7bvK7U3Zzufw2zjtdpu0NXlOaeLIT&#xA;L+hKq6AbcnSxlCIqwya7sHGnQBELSx7soFT8e56e+dP2t7P5B2ZgEIyllx8wBZ9e8th3Gh7mjHmH&#xA;Gb5FLXtrhFLPE6qOpKkD8c4jN2bqcUeKePJGI6mMgPmQ5QnE8ip5hMmHee9D1UW1xr2i6te2esWs&#xA;a/VbUTk2MjA04y2zhozyrQsAD3zd9k6vHxDDlxwlikdzw+seYkN9mvIDzB3R3k7zXpvnDy/9ZEIj&#xA;mHK21XTZgC0MwHGWJ1PVfCo3H3ZR2n2fk0Wfhux9UJDqOhCYTEg8c85+UpfI+tpFHybyvqUh/Rsz&#xA;VP1aY1Y2rsf2T1jJ7bb0Jzs9Brh2ji4v+RGMeofzh/OHn3/2OXotT4R4JfQeXl5MN1lZLKHU7S3Y&#xA;pFPGupWyr0jubaVPUYDtyQ1+YzoOzpnIcc/4oEwPnEgkfKQTro8AnD+GQ4h/WBF/Y+29KvDe6ZZ3&#xA;hXibmCOYqO3qIGp+OdO86isVYL5y/N/yzoEkml2DHXPNDAi10OwBmlMnYSsgZYlHVuRrTehynPqM&#xA;eKBnkIjEdSmMSeTAIZbnQJ5/MvmaGTzD531TjHJbWgjMdlCQWS2iMrqscSn7bVJJ336ngdXj1vbU&#xA;rw/u9LE7GW3Ee+uZ8ug33t2+DQ5BHiESbYlqOk3up/Xta8walcWMt0GkntLaZBbW8Cj4IfjQq3FP&#xA;ttT4jXOw0nYmm0+GMZDiMf4upP8AbyHwDso9lwGPiykg9aOwZV/zjd5m8va6NT0ODRjHHp0KGG6m&#xA;cTB4HcrxdeICOxHLqa7+GbW+gdLqNdIgRhcYR5d/vL3Ow0zT9PjaOyt0gRzyYIKVPviS4mXPPIbm&#xA;SUTgani3/OTNuWsfKkznjbnVTaSuexuoHQeHZT3zG1kuHFKQ34QT8t3J0keLLEd5r57PJLXT5NOt&#xA;orCRg72qCIuBQHgKVAzhM2YZJmY2EjfzexxYjjiIH+HZE6Lqlvovnjy7rN2wSxhmltbmQ0CoLyMx&#xA;K7E9FV6VPhjkwHPpM2GP1mIkPPgN173W9qRPpl0BP2vqHSLy49Zbf7cZ8f2aDtmu9kO2tT48dN9e&#xA;M9/8NC9j3eXyp02oxRri6p18uueqE93NwGNXl5cXEhEh4qp2jHQZ4Z2z21qdZkPinhjE7Q6D9Z8z&#xA;9g2dpixRiNkPmlbUk82ylNLVAf7yRQR7AFv1gZnaCPrJ8mGTk8Bs/Oer6V591PzJokYk023dLPUL&#xA;NRT64kW0rD/ixP2G/hUH0bL2biyaPHp8xrJIGUZfzCeQ9x6/giGHDOQlkjyj9vf8nvZHlrzz5SIB&#xA;W90XVoeo2PX33V43H0MM88/wjs/U/wAzLjP494I+YbNpjyfNvn3QNS8q3d1pusTFzBayro91x2vI&#xA;Z3SOvLtJGtea/T03PqfYusx6mIyYh9chxj+YQCfkTy/ARkymUKmd4DbzsgfYH0b/AMrh0HTrKz0D&#xA;y7bTebNetbeGGW20yjW8bqgU+teH9zGtQd6nN/q9dh00eLLIQHn+gcz8HWRgZcksuNG/MbzbVvNu&#xA;s/obS3/6UGhsYyymnw3N41Xfb4WVPhPbOE7T9uhvHTR/zpfoj+v5OVDS96mp8u+WbNtK8q2UNmho&#xA;Jp4V3JG27mrSN/lMTmR2P7O6jWTGo7QMpD+GB/SP4R/R69fPf6Ls4fVIUO79aVQQXN5crDCrTXEz&#xA;UVRuzMc9EjERFDYB3E5xhGztEIy1/JbzVr+trH5tltrXynbSCU6baSO894yUKLNJxUJHX7QU/wAG&#xA;FE48UrPTl+O/8Dmb47X9pSzmhtD8c3s2n6TpWmxmLTrOCzjbjyS3jSIHiOK1CAVoooMLrEVirsVY&#xA;L+dnla48yflxqlpZqW1G0Vb+wp9r1rU+pRf8pkDKPc4CLSDRfP4vYtU06z1iGnC8jHqgfsyqKOv3&#xA;jPOsmA4cksR/hP2dHu4ZhlhHIP4h9vVd5a8tWnm3zpbaFfAvpdpbyahqESll9QAiKGPkpFPjfkfY&#xA;YdTrZaLSSzw/vJSEI+XUn5bOn7TnxSGPpzP6Hsv5a63fWMN/5Z1F/V1nQCtstw3WeyccrW5pTctG&#xA;ODbn41Nc0s9f+TkdXp4/4xHY9Mcr9YrrvvHyPIus4OL0noyyK8uY5jMrkuftV3B+eaPS9s6nDnOe&#xA;Mzxnne/F5H8bdKbZYokVS24lEszyBePM1K9d+/45R2hqhqM8sojw8Zuue/X5mymEaFKeYbJ5z+dn&#xA;mI6N5eDwt/pkoaG0QdTNNRUI/wBUBm+jOn9l9CM+ej9I3l7h+vk05jts8m0bT10/TYLUfaRayHxd&#xA;t2P351Gs1HjZTP5e7o9HpcHhYxH8WnHlDzbceR9Ya4IZ/LGoSA6pbKC31eQin1qNR9HqAdR8hlGu&#xA;0Ue0cQjy1EB6D/OH80/o/tdXrdN4Z44/SeY7vN69r/kPyV5ylstV1SD9JRxxA2bJcSiBo3PNXCxO&#xA;qNWvXuPHbOP0na+r0IlixngJO/pHFfLqHCljjLcpzbWuh6DYLBaw2+nWSGiRRKsScqV2VQKsafPM&#xA;QDUazLXqy5JfE/2fY2whe0QxvXvM8l3ytrMlLbo0nRnH8Fz1D2c9kIaas2o9WboOkf1y+wdO93mk&#xA;0Ih6pfV9yR21tPdTx29vGZZpTxRF3JJzuXPnMQBlI0A9a8o+UYNEg9aakuoyj95J1CA/sJ/E98pl&#xA;K3je0e0TnNDaA/FlkeRdY7FXYq7FXYq+ZfzE8pL5C82z/AU8meZpjLayqDwsr5t2iPZVelV9tv2T&#xA;mh7b7POWIywH7yHT+dHu/U7vsjXDGTjn9EvsPf8ArQ/5e6lF5e/Mo2+ossUGtWgtLeZqBfrMT841&#xA;5H/filgPFqDON7UwHU9n3j3linxEf0SKJ+HXycntLGYZgTyIpk/nTT/OGhedrLzraP8ApLRLcG31&#xA;O0jjAuobKWnqAemKzRRuvqqPtKf8mtNd2Zm0uo0ktJIeHlO8TfpMxy5/TIj0noR5utmJCXF0ei6b&#xA;qVhqdjDf6fcJdWdwvOGeIhlYexH3Hwzl8+CeKZhMGMhzBbwQeSJypXYq8E/Nu+/TH5jw2Cmtn5ft&#xA;0aVexup/jWv+qhBz0PsGH5fs8z/jzyP+lH4ps0eHxM1nlD7+iUZN6BUeWxsbCfVNTp9RgH2D1lc9&#xA;I1B61yWLHPJkGPH9Z+zzRknDHAzn9I+3yZf5M8h+d9H8jW+qy+bpvK63zvcWugm0ivxFA55RxRrc&#xA;MGRjXkabCu+9c63U+z2k1JEs0BOdby3iT5nhIeS08MmaZjjFD7A61sZI5nubu8n1K/kBEl7dNyk4&#xA;k14IookSV/YQAfM75ttHoMOmjw4oiA8v0971uk0ccI75dSj7a2nup47e3jMs0p4oi7kk5luTOYgD&#xA;KRoB615R8owaJB601JdRlH7yTqEB/YT+J75TKVvG9o9onOaG0B+LLI8i6x2KuxV2KuxV2Kpb5j8u&#xA;6P5j0W60bWLcXOn3icJYzsdjVWUjdWVhVSOhxV8ved/J935LlPl7zWHvfK85pofmHiSU6lYJyv2X&#xA;UDb8Nvs8/ruzckMnj6baf8Uekv29/f7+e90evhOHg5/p6Hu/Z+OXI9/Lz8xPNej+XLG+8328115W&#xA;uyyWOvbyT26K5RPrigcijU+GTr867cb212Lps+eUNKQNRH6sfIS2s8Hn3xcKGQgb/T+ObM7ry5e6&#xA;dO3mPyJLC6XlLi90TmBY33IA+rC61WCd1/bX4W25eOaLHrY5R4GtBHDtGdeuHlL+dHy5jo2GNbxT&#xA;3y15r0rzBbSPaF4bu2b077TrhfTubaT+SWM7j2PQ9jmu13Z+TTSHFvGX0yG8ZDvB/BDOMwU5zBZP&#xA;DZPy81PQPNd6t273+j3jteWuozyepM7mgME/Il2ZP5ujD3NB652Bmw9pRjKhE4RUoAVHrRFdD1Hw&#xA;dh2TEgyjW3O/0JylraoQUhRSOhVQKfcM7OOlxR5RiPgHe8IVamgHYdBloiByC0HVNKdsklVtbW4u&#xA;rhLe3jaWaQ8UjUVJOLDJkjAGUjQD1nyj5Rg0SD1pqS6jKP3knUID+wn8T3ymUreO7R7ROc0NoD8W&#xA;WR5F1jsVdirsVdirsVdirsVeW/8AORN9I3ki28uW1De+Z9QtdNhBAYqpkEjuAfDgB9OUanOMOKWS&#xA;XKESfkLZRFmk5s9JsLXSYdJjhU2EEC2yQOAymJF4BWFKH4Rvnz9k1M55TlJ9ZlxX53btgBVMEuPL&#xA;vmHyJcyaj5RifU/LTsXv/K5YtJDU1aWwZq79zF37duPRQ1uDtCIx6o8GflHL0PcMn/FfPrdRiYbx&#xA;5dyYC38veeLSDzN5Y1A2Ot249OLUolHqoRu1teQmnqJ4o/zU98xzPP2fI6fUQ48UucTy/rQl0PmP&#xA;imhPcc0z8sea5bxbyw1yKPTtd0plj1CAP+4cSAtFcQO3WKUA0rupBU9Mo1fZMuKMtMJZcWQXGhch&#xA;XOMgOsfkbBHNsxcU9q3CReYdT+v6gzIawRfBD4EDq30nPW/Zjsj8lpRGQ/eT9Uvf0HwH229Lo8Hh&#xA;w35nmlxt7wwG4hhM0SEiQJVn6V+FFDMxzoSWGo1+PFMQlzKa2S2Go2CogVZVUUdQK9Nm9we+RJIL&#xA;p9TnzabN4lmWOXy93ke7+1K5oZIZGjkFGXrkgXoMOaOSIlE2Ci9H1vUNIuTcWTKsjDi3JFaq9abi&#xA;o+jEi2Gp0sM0eGfJmGn/AJqSCi6jZBvGS3NP+Eev/EsgYOlzdgD+CXz/AF/sZNp/nfy1e0C3YgkP&#xA;+65x6Z+8/D+ORMS6rN2Xnx/w2PLf9qeI6OodGDK24YGoP0jIuAQRsW8UOxV2KuxVL7zzFoVm7Jc3&#xA;0Mcikho+YLgjxUVOGi5OPR5p7xiSEpufzG8sQ14SyXBHaONv+N+GHgLmQ7G1EuYA95/Vbzrzxq9v&#xA;5i80+W9YiDpaeXnuZhaSAVmlnRURiwY8fTK16GuYPafZ51WnlhEuDj2ur677WOfJzsHYUgblIfBF&#xA;zedNRb+6iijHvVj+sZzOH2A0ka455JfID7r+12UezIDmSUDN5l1qUmtyUHggVf1CubjB7KdnYzYx&#xA;An+kZS+wmvsb46HEOiRaZdjR/P8ApmpKRHDrZlsNVO9ZZDG09vIVH2pA8bLXr8VMwfa7szHPQHgi&#xA;B4VGNCqHIjyFfc6ztPTxgYyiKvY/eEu1vzpoevefdLvdISVo57E2s1zIOCSJIGuYCq15VjaCZGqN&#xA;icp9kNFm0cJY8pHqkaHcRQN+/wBJDi9nZwM4r+IV+lO87Z6hHaZqH1Vyj7wud/Y+ORkLdX2n2eM8&#xA;bj9Y+3yUtQiSwv4ZtPNI7jqkYHCPipq1eWwb4VCqlDua+Ii4XZoyZInFlieDzU7i5luJPUlNWoBt&#xA;tsMkBTutPp4YY8MOSlhb3YquihllcJEjSOeiqCxP0DFEpACyaelflvZa5ZxXUd7BJBZtxaFZQVPP&#xA;flRTuAR12yqZDy3bWXDMxMCDLrTNcg6J2KuxV2KvE9S8s+YLKWT6zZyuAxrOil0bf7XIV6++XiQe&#xA;7wa7DMDhkPdySoimx64XMdirsVdiqTea/Wi0c6hbxiS60qaDUYFP81pKspp80VhmNrMAzYZ4zylE&#xA;j5inA7Sx8WE1zG/yYTd6abPzsthabS2l/NFYb8AsAmTUIK1HV4J50Hjmh7JMssYSPMiMpecgDCQ+&#xA;EoRLzGnxyOYCP1Xt8N3pFrcGWNfUXhLxBZaMAex48gKgMCpI2qCM6YF7DDmEx/SHMK+FuXRQyzSL&#xA;FEjSSOaKiAsxPsBiiUhEWTQT6y8ieZ7qh+qegh/anYJ/wv2vwyJkHX5e1tPD+K/d+KT+y/Kp9jfX&#xA;wHikC1/4dqf8RyJm63L2+P4I/P8AH6WQWPkDyza0JtzcuP252Lf8KOKfhkTMuuy9r6ifXh934tPb&#xA;aztLVOFtBHAn8sahB9wAyLr55JTNyJPvVcWDsVdirsVdirsVQt5pOmXo/wBLtIpz4uisfoJFcNt2&#xA;PUZIfTIj4vJfzU0+08va95UNnCtvpGs3r6dqTVZissqqbYxliQtSG5V2p4Zhdp6rLh008mMAzhEn&#xA;fltueVdHZaftjOCBIiQ8x+pF3Hkh9zbXIPgsi0/EV/VnGaX/AIIUDtlxEecTf2GvvdzDtQfxD5JN&#xA;qeh3+m2st3dhEtIFLzXHNQiKu5ZiSKAZ0mh9qtDqZRhGdTlyjIEfb9P2uVHX4j1r3oBfihjnX4oZ&#xA;lDwyjdXRhVWVuhBG4Izf480J3wkSo0aN79zlRnGW4NqRtrUv6hgiMvMS+qY09TmqGNW505bIxXr0&#xA;yH5eHieJXrqvgTfLlz682HgQ4+Ohxd61rOI3K3C/BIDV+IUc6KVAY0rQcvHw8Bl6TiHFxdVfFsek&#xA;/lz5Z+rwfpi6X9/MtLVT+zGer/Nu3t88qnLo8v2zruI+FHkOfv7vgzjIOgdirsVdirsVdirsVdir&#xA;sVdirsVYX+cXlGfzT+X+pWFoK6nbhb3TCPtC5tjzUL/lOOSD54JAEUUgpN5C80ReaPKWnaypHqzx&#xA;hbpBT4J4/hlWnb4gSPameCdsdnnSameLoDt/VO4+z7Xa458QtJ/zsuxa/lfrslaF4o4QPH1Zkj/U&#xA;2Z3srj4+0cQ8yflEljnPoLKdGsUttDsLKRAVt7aGEow/kjC7g/LNVqNTI55ZYkiRmTY8zfRthYAp&#xA;57MyNNIyDijMSoHYE7Z9D4okRAO5AesiCALQFhrWk6je6xY2LzG70G6FhqiTxCICc8x+6+Ji6ViY&#xA;ciF+W4yQlbgaLtKOokQARTK/Jfl8azqwSUH6pbASXPXcV+FK/wCUfwBxkaR2nrfAx7fXLl+t7Cqq&#xA;qhVACgUAGwAGUvFE23irsVdirsVdirsVdirsVdirsVdirsVeIWVt/gb82tR8vsPT0Hzfy1TRT0SO&#xA;8X/emAdAK9flwGcJ7cdl+JhGoiPVj2l/VP6j95cvSz3pZ+en73yjY6d1/Seq2VpxNN+Tl6b/AOpn&#xA;KeyNR1Ush/yeKcv0fpcjP9NebPr+URWVxKeiRu33KTmk7NwjLqccDylOI+cg5WKNzA83kmt65o2g&#xA;6W2qaxc/VLISx26yenJJWaUMyJ+7VuPwxsatQbeOfQ5lTvdZroacAyBN9yO1i9bToJ/r859GxL8h&#xA;yLqGBo3AdyzCgp1OHbm2CeKEDkAAiRb1r8u9BudJ8uQtfR+nql9/pN7GTUxM4+CCv/FSUU02Lcm7&#xA;5STbxWr1Ms2QzPw9zJ8DjOxV2KuxV2KuxV2KuxV2KuxV2KuxV2KvPvzu8oXev+TzfaWCNf8AL8q6&#xA;ppLr9oyQfE8Yp15oNh/MBlebFHJAwkLjIEH3FMTRebeZfMtp5uj/AC0urY/utQ1aK8lhrXhJZr+8&#xA;Q9vgYkZ5XoNBLRnWxl/BiMb7xPkfjQc+U+Lh970vzHKItFuj3ZQg/wBkwH8c1XspiGTtHED3k/6W&#xA;JP3h2eijeWLz3baqqwVg6hgGAZd1YAg7jsc90Iegy4YZBUgD71HyJYnzr+Y6wismgeVXW71Bzus+&#xA;oVP1eKvcRsC59137ZXM9HmO2NbxHw4/TH7/2PofIOjdirsVdirsVdirsVdirsVdirsVdirsVdirs&#xA;VfNM/km48u/85CaZpkJ/519ze63ptuOkJuoDHMgp9kLNEtB0pTOW9rYxhocsx9cxCPynf6ZOTpzc&#xA;g9M84yFdJCgf3kqg/IAn+Gcd7B4xLXEn+HHI/bEfpeg7NF5Pg8z84ak+keUNS1UP6ciKLezPdrmb&#xA;4UCV2JQVkPsueo6rWiOWGGO+Se/9WA5yPv8ApHmfIub2nq/Bx7fUeT178mvIa+S/IllpsyAancj6&#xA;3qjdzcSgEoT/AMVqAn0V75kvFEs4xQ7FXYq7FXYq7FXYq7FXYq7FXYq7FXYq7FXYq8d1gm+/5yGY&#xA;0Pp6R5dVKncerPclqj5o/wCGcX7dZeHRxj/OyD7pfscrSj1MxuLeC5iaGdBJG3VTnlmm1WTBkGTH&#xA;IxnHkR+Ps6uyhMxNg0Xzz+dcd3rer6joemRmLTfKNtHcSQqSfVuboLIT3J4wVp4EHxz0/wBn9WeG&#xA;Go1EuPNqZcIPdGFgDlQ9XdzsFw9XllkkSTyfUflbzBY+YfLun63YyiW1v4ElRxtQkUdSN6MrAqR2&#xA;IzuHXppirsVdirsVdirsVdirsVdirsVdirsVdirsVdirxrzaW0D8+NOv5/h0/wA06WbCOU/ZF5bS&#xA;cwtfdOIHu2cl7Z6OWbRcUeeOQl8Nwfvv4OTppVJnGePOweXfmT5D1G3vrjzr5W5NqgVTq+ldYr2G&#xA;MUJAPSRUHbr23+113Yfa+OcBpNT/AHf8E+sCf0X8uu3LHy4z9QUP+ccPOdpba1eeU45T+iNVRtV8&#xA;vo53icGl1aj3WnIAdlJ/az1TRTmYcOT647Hz8/iN/s6ODMdz6FzMYOxV2KuxV2KuxV2KuxV2KuxV&#xA;2KuxV2KuxV2KsU/MvyHbedPLEumNIbbUIXF1pV8tQ0F3FUxuCN6Ho1Ox8aZGURIEEWCkGmG/lx5w&#xA;vNbsbnTNaj+q+adEk+q6zaEAEutQsygbcZAK7bV6bUzxX2k7EOhz+n+6nvH/AIn4fd8XZ4cnEPNm&#xA;Gc62vmz8ybK4/Lv8zbLXtLXhZy3A1eziFAvqKwW9gG2yyKQT7EDPYfZLtL8zphxf3mP0HzH8J+8f&#xA;Muvzwo+99dWV5bXtlb3tq4ktrqNJoJB0ZJFDKw+YOda4ytirsVdirsVdirsVdirsVdirsVdirsVd&#xA;irsVdiryT84/LGoaRqNv+ZnluLlqOlJ6fmCzTb65pwpzJ/y4gK18N/2QM1va3ZsNbglin15HuPQ/&#xA;jps2Y5mJtkGiazp+t6Ta6tp0nq2V5GJYX6Gh6gjsynYjsc8K1Wlngyyx5BU4mj+PudpGQIsPOf8A&#xA;nIrR4rryVBqbLRtLu42kkAqRBcfuZB8iWT7s6r2J1Rhqzj6ZIn5x3H2W0amNxtnP/OPWtyan+V2m&#xA;wTOHutIeXTLgg1ANu/7sD5QsmeuRNiw68vSMKHYq7FXYq7FXYq7FXYq7FXYq7FXYq7FXYq7FWmVX&#xA;Uo4DKwoyncEHqCMVeFJaN+V3n46LJVPJHmiYy6JIfsWV6x+O1P8AKj1+H6P8o5xHth2H4+P8xjH7&#xA;yA9X9KP64/d8HL0+WjRT781rH67+XHmGHjy42Uk4HvB++8R/vvOB9ns3h6/Ef6YH+m9P6XKyi4lj&#xA;n/OLWp1bzPph+FWax1SNP8q9t6ykdtiijPbdNK4e4kf6UkfodZJ73mQxdirsVdirsVdirsVdirsV&#xA;dirsVdirsVdirsVdirH/AD55L0vzl5Yu9B1EcUnHKC4ABeGdN45U91P3io74q808ga5e6pZap5J8&#xA;1rTzJoqtZakhJ/0m2deCXCk7sHQip9wf2s8f9puyJaDUjNi2xylcf6MhvX6R5bdHZYcnHGiwz/nH&#xA;NL7Q/wA3Nc8s6gaTWunS2yMf92fV7iNom+mKQke2eqaDUQz4Y5YfTMX7u8fP7XAnGjT6ezMYOxV2&#xA;KuxV2KuxV2KuxV2KuxV2KuxV2KuxV2KuxV2KvKvzp8p6jCbX8wvLUVfMPl8E3luo/wB7NP6yxPTc&#xA;lBVh7V70zA7T0WPVYJYsn0y69x6S+H9uzPHMxNhgPmDW9OsfM3lL849IJfRpStnr3EVZIZQYizqt&#xA;SXjDMh/ylUZyfsnqJ6bLk0Gb64G4+ffXl/EPeXJzx4gJB7Z5R/M7yH5vlkh8u6xFe3EQ5PblZIZe&#xA;I2LCOZY3KivUCmd24bJ8VdirsVdirsVdirsVdirsVdirsVdirsVdirsVdirsVeEzaZF+Xf5mHRio&#xA;HkvzmzS6fE4BittRFOcIBFAslRxHuo/ZOcP7XdkHJh8aH95h69TD9cefuvqXL0+Tej1XefbWy0Dz&#xA;v5G82W8EdsYtVXTb6eNQhMN8hjrIVpUIvP781nsJrpHJkwyJI4eIb8qNH52Pkz1UdgXumeluC7FX&#xA;Yq7FXYq7FXYq7FXYq7FXYq7FXYq7FXYq7FXYqxP80fJCecvJ15pKN6WoR0utKuK8TFdw1MTcuwP2&#xA;WPgTglEEUeSQXjfmHW5vOX5Iajczgw+YNEK/pGE7PFd2MimViv7PJAze1ads8u0mjPZvbMYf5Od8&#xA;PukDQ+Etvhbnylx430B5d1ZNZ8v6Zq8Yomo2kF0o8BNGslP+Gz1J16YYq7FXYq7FXYq7FXYq7FXY&#xA;q7FXYq7FXYq7FXYq7FXYq+ffzjsW8jeZtT8yRW0k3ljzfYz2euQRrVEvxCywyHsPWrT6WOaXtjsr&#xA;814co7ZMWSMgfKxxfr94DdiyVY73p35MW2o235WeW4dRRo7pbNao4IYRliYgQdx+7K5umks0xV2K&#xA;uxV2KuxV2KuxV2Kv/9k=</xmpGImg:image>
               </rdf:li>
            </rdf:Alt>
         </xmp:Thumbnails>
      </rdf:Description>
      <rdf:Description rdf:about=""
            xmlns:xmpMM="http://ns.adobe.com/xap/1.0/mm/"
            xmlns:stRef="http://ns.adobe.com/xap/1.0/sType/ResourceRef#"
            xmlns:stEvt="http://ns.adobe.com/xap/1.0/sType/ResourceEvent#">
         <xmpMM:InstanceID>xmp.iid:F77F117407206811822A9DD448A483FF</xmpMM:InstanceID>
         <xmpMM:DocumentID>xmp.did:F77F117407206811822A9DD448A483FF</xmpMM:DocumentID>
         <xmpMM:OriginalDocumentID>uuid:5D20892493BFDB11914A8590D31508C8</xmpMM:OriginalDocumentID>
         <xmpMM:RenditionClass>proof:pdf</xmpMM:RenditionClass>
         <xmpMM:DerivedFrom rdf:parseType="Resource">
            <stRef:instanceID>uuid:ba5dc92b-6d0a-484a-ab90-b9370a4a0965</stRef:instanceID>
            <stRef:documentID>xmp.did:0980117407206811822A897E387FE54C</stRef:documentID>
            <stRef:originalDocumentID>uuid:5D20892493BFDB11914A8590D31508C8</stRef:originalDocumentID>
            <stRef:renditionClass>proof:pdf</stRef:renditionClass>
         </xmpMM:DerivedFrom>
         <xmpMM:History>
            <rdf:Seq>
               <rdf:li rdf:parseType="Resource">
                  <stEvt:action>saved</stEvt:action>
                  <stEvt:instanceID>xmp.iid:F77F117407206811822A9DD448A483FF</stEvt:instanceID>
                  <stEvt:when>2018-09-05T11:32:02-03:00</stEvt:when>
                  <stEvt:softwareAgent>Adobe Illustrator CS6 (Macintosh)</stEvt:softwareAgent>
                  <stEvt:changed>/</stEvt:changed>
               </rdf:li>
            </rdf:Seq>
         </xmpMM:History>
      </rdf:Description>
      <rdf:Description rdf:about=""
            xmlns:illustrator="http://ns.adobe.com/illustrator/1.0/">
         <illustrator:StartupProfile>Print</illustrator:StartupProfile>
      </rdf:Description>
      <rdf:Description rdf:about=""
            xmlns:xmpTPg="http://ns.adobe.com/xap/1.0/t/pg/"
            xmlns:stDim="http://ns.adobe.com/xap/1.0/sType/Dimensions#"
            xmlns:xmpG="http://ns.adobe.com/xap/1.0/g/">
         <xmpTPg:HasVisibleOverprint>False</xmpTPg:HasVisibleOverprint>
         <xmpTPg:HasVisibleTransparency>False</xmpTPg:HasVisibleTransparency>
         <xmpTPg:NPages>1</xmpTPg:NPages>
         <xmpTPg:MaxPageSize rdf:parseType="Resource">
            <stDim:w>21.000131</stDim:w>
            <stDim:h>29.700013</stDim:h>
            <stDim:unit>Centimeters</stDim:unit>
         </xmpTPg:MaxPageSize>
         <xmpTPg:PlateNames>
            <rdf:Seq>
               <rdf:li>Cyan</rdf:li>
               <rdf:li>Magenta</rdf:li>
               <rdf:li>Yellow</rdf:li>
               <rdf:li>Black</rdf:li>
            </rdf:Seq>
         </xmpTPg:PlateNames>
         <xmpTPg:SwatchGroups>
            <rdf:Seq>
               <rdf:li rdf:parseType="Resource">
                  <xmpG:groupName>Default Swatch Group</xmpG:groupName>
                  <xmpG:groupType>0</xmpG:groupType>
               </rdf:li>
            </rdf:Seq>
         </xmpTPg:SwatchGroups>
      </rdf:Description>
      <rdf:Description rdf:about=""
            xmlns:pdf="http://ns.adobe.com/pdf/1.3/">
         <pdf:Producer>Adobe PDF library 10.01</pdf:Producer>
      </rdf:Description>
   </rdf:RDF>
</x:xmpmeta>
                                                                                                    
                                                                                                    
                                                                                                    
                                                                                                    
                                                                                                    
                                                                                                    
                                                                                                    
                                                                                                    
                                                                                                    
                                                                                                    
                                                                                                    
                                                                                                    
                                                                                                    
                                                                                                    
                                                                                                    
                                                                                                    
                                                                                                    
                                                                                                    
                                                                                                    
                                                                                                    
                           
<?xpacket end="w"?>
	</metadata>
<g>
	<path fill="none" d="M51.301-42.392l4.449-3.7c-0.007,0.001-0.013,0.002-0.021,0.002L51.301-42.392z"/>
	<path fill="none" d="M-26.215-102.725c3.534-6.458,10.393-10.85,18.26-10.85c7.919,0,14.814,4.449,18.328,10.977
		c0.673-0.213,1.364-0.352,2.065-0.406l-2.919-6.106c-0.015-0.027-0.025-0.055-0.036-0.084c-0.092-0.239-2.318-5.914-7.915-6.313
		c-5.114-0.366-8.097-0.463-9.299-0.489c-1.251,0.028-4.209,0.128-9.215,0.486c-5.628,0.402-7.894,6.255-7.915,6.314
		c-0.012,0.028-0.022,0.057-0.036,0.084l-2.922,6.11C-27.279-102.957-26.742-102.863-26.215-102.725z"/>
	<path fill="none" d="M29.056-25.995c-1.13,0-2.118-0.256-2.929-0.583c-0.957,1.587-2.039,3.092-3.325,4.596l2.233-0.135
		c0.035-0.002,0.069-0.003,0.104-0.003c0.447,0,0.885,0.177,1.206,0.486l6.205-5.161c-0.208,0.086-0.417,0.173-0.61,0.247
		C30.91-26.149,29.941-25.995,29.056-25.995z"/>
	<path fill="#F68B1F" d="M23.762-28.02c-0.021-0.02-0.041-0.041-0.062-0.063c-0.072-0.083-0.345-0.399-0.766-0.885
		c-1.816,2.793-3.84,5.25-5.81,7.328l3.157-0.19c1.731-1.848,3.106-3.654,4.275-5.578C24.087-27.725,23.801-27.984,23.762-28.02z"/>
	<path fill="#F68B1F" d="M-15.072-81.563c1.599-1.632,6.704-6.021,6.921-6.208c0.047-0.04,0.102-0.061,0.155-0.087
		c0.008-0.004,0.015-0.009,0.023-0.013c0.062-0.027,0.124-0.043,0.189-0.052c0.036-0.006,0.07-0.012,0.106-0.012
		c0.036,0,0.07,0.006,0.106,0.013c0.065,0.009,0.126,0.024,0.188,0.051c0.009,0.004,0.017,0.01,0.026,0.014
		c0.052,0.026,0.107,0.046,0.153,0.086c0.218,0.186,5.324,4.575,6.923,6.208c1.285,1.313,1.489,2.917,1.3,4.229
		c1.871-1.285,3.729-2.865,5.332-4.667c0.432-1.144,1.091-3.312,0.94-5.49c-1.098,0.354-2.307,0.545-3.615,0.545
		c-3.051,0-5.553-0.959-5.656-1c-0.167-0.064-0.26-0.244-0.215-0.418c1.132-4.457,3.395-6.475,4.39-7.176
		c-1.542-1.707-3.22-3.494-4.723-5.048l-4.684,3.579c-0.125,0.097-0.277,0.146-0.428,0.146c-0.149,0-0.299-0.047-0.425-0.141
		l-4.781-3.575c-1.525,1.579-3.231,3.395-4.791,5.124c1.05,0.777,3.182,2.814,4.269,7.091c0.044,0.173-0.049,0.354-0.215,0.417
		c-0.104,0.042-2.606,1.001-5.657,1.001c-1.233,0-2.378-0.167-3.425-0.483c-0.146,2.345,0.64,4.671,1.053,5.702
		c1.609,1.634,3.424,3.073,5.227,4.265C-16.545-78.75-16.317-80.292-15.072-81.563z"/>
	<path fill="#F68B1F" d="M-26.986-92.772c0,3.034,1.252,5.896,3.131,8.437c-0.008-0.045-0.019-0.086-0.027-0.131
		c-0.548-2.98-0.098-5.528,1.305-7.367c1.67-2.192,5.079-5.931,7.715-8.699c3.372-3.544,4.823-4.936,5.56-5.424
		c0.078-0.815,0.012-3.363-0.113-5.771C-19.227-110.978-26.986-102.773-26.986-92.772z"/>
	<path fill="#F68B1F" d="M10.222-80.857c-0.584-0.195-1.145-0.463-1.69-0.773c0.059,0.154,0.071,0.327,0.009,0.495
		c-1.662,4.521-0.592,9.683,3.182,15.342c3.757,5.636,9.081,10.019,11.194,11.642c7.117,5.462,5.198,13.363,5.179,13.442
		c-0.082,0.32-0.37,0.534-0.687,0.534c-0.037,0-0.075-0.008-0.112-0.014c-0.06,0.395-0.121,0.729-0.17,0.978
		c0.601,0.724,1.088,1.31,1.438,1.731c3.881-16.218-8.74-29.642-12.916-34.08C12.366-75.049,10.859-78.266,10.222-80.857z"/>
	<path fill="#F68B1F" d="M-28.92-15.76c0.35-0.825,0.673-1.522,0.943-2.071c-10.609-8.625-13.716-16.952-14.442-22.457
		c-0.059,0.036-0.117,0.072-0.187,0.09c-0.06,0.014-0.117,0.022-0.175,0.022c-0.316,0-0.604-0.213-0.688-0.533
		c-0.021-0.079-1.938-7.98,5.178-13.441c2.115-1.624,7.439-6.007,11.196-11.642c3.772-5.659,4.843-10.821,3.18-15.343
		c-0.057-0.156-0.045-0.315,0.003-0.461c-0.01-0.011-0.019-0.021-0.028-0.032c-0.532,0.303-1.08,0.563-1.649,0.756
		c-0.634,2.594-2.142,5.815-5.431,9.309c-9.719,10.328-14.275,20.554-13.541,30.395C-43.887-32.126-38.615-23.583-28.92-15.76z"/>
	<path fill="#F68B1F" d="M-6.066-105.958c0.735,0.488,2.187,1.879,5.56,5.424c2.635,2.769,6.044,6.507,7.715,8.699
		c1.324,1.738,1.789,4.113,1.376,6.883c1.516-2.395,2.489-5.044,2.489-7.82c0-9.817-7.473-17.918-17.028-18.922
		C-6.078-109.297-6.143-106.77-6.066-105.958z"/>
	<path fill="#E681AC" d="M-31.21-91.379c-0.295-4.632,0.795-7.854,1.555-9.489c-0.11-0.014-0.222-0.024-0.327-0.074
		c-0.07-0.034-0.12-0.089-0.179-0.135c-3.859,0.857-6.782,4.735-6.782,9.381c0,5.272,3.764,9.56,8.389,9.56h0.001
		c0.198,0,0.393-0.03,0.59-0.045C-29.031-83.192-30.848-85.712-31.21-91.379z"/>
	<path fill="#E681AC" d="M14.78-101.075c-0.059,0.045-0.108,0.101-0.177,0.134c-0.148,0.069-0.305,0.103-0.458,0.103
		c-0.032,0-0.063-0.01-0.095-0.013c0.743,1.723,1.675,4.815,1.399,9.14c-0.398,6.238-2.561,8.666-3.543,9.459
		c0.411,0.07,0.825,0.113,1.244,0.113c4.625,0,8.389-4.288,8.389-9.56C21.539-96.334,18.627-100.208,14.78-101.075z"/>
	<path fill="#FFF105" d="M-11.849-101.604l4.203,3.143l4.122-3.15c-1.604-1.635-2.873-2.862-3.286-3.159
		c-0.086-0.02-0.169-0.053-0.244-0.103c-0.366-0.242-0.657-0.452-0.315-6.899c-0.197-0.006-0.389-0.03-0.587-0.03
		c-0.014,0-0.028,0.002-0.042,0.002c0.343,6.476,0.053,6.687-0.314,6.928c-0.075,0.05-0.158,0.083-0.244,0.103
		C-8.971-104.471-10.242-103.242-11.849-101.604z"/>
	<path fill="#FFF105" d="M-25.985-17.837c-0.743,1.417-2.669,5.407-3.909,10.857c-0.243,1.07-0.464,2.243-0.647,3.489l18.965-2.997
		c-0.017-0.013-0.031-0.024-0.057-0.044L-25.985-17.837z"/>
	<path fill="#FFF105" d="M4.655,31.963l-0.137,0.202c-0.025,0.073-0.05,0.145-0.076,0.217L4.655,31.963z"/>
	<path fill="#FFF105" d="M-15.954,42.792c0.164,0.325,0.107,0.701-0.111,0.963l-0.543,5.181c-0.008,0.059-0.02,0.117-0.036,0.174
		c-0.068,0.222-1.638,5.604,3.301,12.046c3.333,4.35,24.82,36.099,25.733,37.449c0.016,0.023,0.029,0.048,0.044,0.073l8.489,15.605
		c0.025,0.045,0.047,0.093,0.062,0.143c0.353,1.047,1.031,1.977,1.309,1.931c0.639-0.106,0.639-1.896,0.639-2.569
		c-0.028-0.881-2.066-10.546-3.377-16.582c-0.388-0.422-1.846-1.736-4.425-0.931c-0.403,0.127-0.843-0.052-1.044-0.426
		c-0.197-0.369-4.883-9.093-6.044-13.504c-0.235-0.898-0.393-2.188-0.59-3.823C6.682,72.141,5.247,60.266-4.14,53.226
		c-0.234-0.177-0.366-0.457-0.354-0.75l0.115-2.526c0.006-0.125,0.038-0.248,0.096-0.36l3.453-6.809
		c0.224-0.902,0.803-2.729,1.586-5.078l-5.204,7.659c-0.179,0.263-0.426,0.472-0.713,0.604c-0.142,0.064-0.291,0.109-0.442,0.135
		c-0.092,0.014-0.186,0.022-0.276,0.022c-0.378,0-0.752-0.126-1.054-0.355l-1.52-1.166c-0.491-0.378-0.746-0.992-0.663-1.605
		l3.47-25.913c0.002-0.019,0.006-0.038,0.011-0.058c0.135-0.602,0.02-0.96-0.102-1.159c-0.272-0.45-0.927-0.682-1.425-0.797
		c-0.778-0.177-2.889-0.651-5.758-1.294l-3.042,28.999C-15.96,42.781-15.957,42.787-15.954,42.792z"/>
	<path fill="#FFF105" d="M6.043,92.405c2.25,3.508,4.422,6.9,6.374,9.95l-1.52-2.793C10.655,99.206,8.736,96.372,6.043,92.405z"/>
	<path fill="#FFF105" d="M-17.437,39.841l2.776-26.455c-4.438-0.994-10.185-2.28-15.73-3.52c0.508,2.845,1.36,5.799,2.694,8.782
		C-25.684,23.152-22.316,30.11-17.437,39.841z"/>
	<path fill="#BBB31D" d="M9.758,81.894c0.282,1.071,0.801,2.443,1.416,3.891c-0.721-6.719-2.464-21.667-11.512-36.01
		c-0.073-0.116-0.118-0.247-0.132-0.385c-0.011-0.102-0.144-1.44-0.265-2.874l-1.879,3.706l-0.086,1.873
		C6.954,59.614,8.42,71.75,9.213,78.31C9.402,79.876,9.552,81.114,9.758,81.894z"/>
	<path fill="#BBB31D" d="M7.343-47.693c-0.15-0.24-0.312-0.441-0.482-0.611L2.926-23.443l8.443-19.132
		C9.387-44.968,7.822-46.926,7.343-47.693z"/>
	<path fill="#FFF105" d="M62.54-41.206c-0.002,0,0.026,0.005,0.106,0.005c0.142,0,0.394-0.024,0.561-0.177
		c0.444-0.408,2.964-2.946,4.3-4.299c-0.015-0.104-0.031-0.207-0.031-0.315c0-0.141,0.016-0.279,0.041-0.413l-5.212,5.181
		l0.126,0.006C62.467-41.217,62.503-41.212,62.54-41.206z"/>
	<path fill="#FFF105" d="M69.586-45.58c0.185,0,0.339-0.188,0.339-0.412c0-0.224-0.154-0.412-0.339-0.412
		c-0.184,0-0.339,0.188-0.339,0.412C69.247-45.768,69.402-45.58,69.586-45.58z"/>
	<path fill="#E681AC" d="M-13.606-58.284c4.293-2.369,8.228-4.354,8.819-4.652c0.341-0.256,1.687-1.192,3.628-1.697
		c-1.021-3.109-1.431-6.81-1.576-8.571c-1.824,0.792-3.523,1.246-4.877,1.246c-0.142,0-0.276-0.005-0.407-0.014
		c-0.962-0.069-2.315-0.439-3.875-1.08c-0.238,2.778-1.078,9.682-3.703,12.445c-0.175,0.185-0.41,0.277-0.645,0.277
		c-0.219,0-0.438-0.081-0.609-0.244c-0.354-0.337-0.368-0.897-0.031-1.252c0.515-0.542,0.954-1.335,1.332-2.257
		c-0.567,0.381-1.229,0.943-1.918,1.769c-0.001,0.057,0.009,0.113-0.004,0.17c-0.221,0.961-0.652,3.543-0.36,5.274
		C-16.909-57.016-15.233-57.386-13.606-58.284z"/>
	<path fill="#E681AC" d="M-7.678-86.307c-0.282,0.244-0.679,0.588-1.145,0.994c0.417,0.241,1.284,0.559,2.358,0.06
		C-6.961-85.686-7.383-86.051-7.678-86.307z"/>
	<path fill="#E681AC" d="M-7.612-73.73c1.643,0,4.157-0.895,6.812-2.448c0.221-0.457,1.171-2.69-0.496-4.393
		c-0.195-0.199-0.448-0.444-0.74-0.719c-0.698,1.148-2.678,3.916-5.56,3.916c-1.966,0-3.906-1.311-5.779-3.866
		c-0.268,0.253-0.504,0.482-0.686,0.668c-1.48,1.513-0.881,3.471-0.583,4.192c2.732,1.583,5.258,2.533,6.75,2.64
		C-7.802-73.733-7.708-73.73-7.612-73.73z"/>
	<path fill="#E681AC" d="M-3.406-82.548c-0.717-0.646-1.49-1.331-2.205-1.958c-0.7,0.417-1.375,0.588-1.979,0.588
		c-0.898,0-1.623-0.344-2.058-0.674c-0.741,0.65-1.554,1.369-2.303,2.044H-3.406z"/>
	<path fill="#FFFFFF" d="M-7.595-78.437c2.075,0,3.67-1.931,4.419-3.047h-9.065C-10.676-79.461-9.115-78.437-7.595-78.437z"/>
	<path fill="#B26512" d="M-27.977-17.832c0.244-0.498,0.441-0.871,0.577-1.12l-2.442-1.923c-0.017-0.012-0.032-0.026-0.048-0.04
		c-6.752-6.125-1.438-14.493-0.325-16.083c-0.109-0.188-0.22-0.38-0.328-0.565c-1.9-3.261-1.745-6.023-1.277-7.767
		c0.476-1.778,1.362-2.886,1.519-3.07c0.361-0.465,8.579-11.017,10.758-14.13c1.876-2.679,3.894-3.628,4.773-3.934
		c0.699-2.658,1.045-5.641,1.161-7.363c-2.121-1.041-4.47-2.493-6.695-4.307c-0.528-0.43-1.118-0.944-1.731-1.522
		c2.503,12.139-12.258,24.225-15.392,26.63c-6.384,4.899-4.686,11.896-4.667,11.966c0.079,0.309-0.065,0.614-0.325,0.771
		C-41.693-34.784-38.586-26.457-27.977-17.832z"/>
	<path fill="#B26512" d="M27.234-40.198c-0.379-0.096-0.607-0.481-0.512-0.86c0.071-0.287,1.69-7.088-4.667-11.969
		C18.91-55.441,4.051-67.608,6.693-79.794c-0.638,0.652-1.252,1.221-1.798,1.695c-1.862,1.619-3.92,3.016-5.914,4.069
		c0.077,1.156,0.443,5.666,1.626,9.101c0.583-0.045,1.197-0.044,1.838,0.032c2.933,0.346,5.61,2.053,7.959,5.073
		c5.01,6.441,12.992,16.114,16.722,20.612c0.049-0.248,0.11-0.583,0.17-0.978C27.276-40.194,27.256-40.193,27.234-40.198z"/>
	<path fill="#B26512" d="M12.634-41.054L3.528-20.423c-0.059,0.134-0.152,0.239-0.259,0.324l2.514,2.889l1.611-3.017
		c0.279-0.532,0.812-0.875,1.422-0.912l8.309-0.501c1.97-2.078,3.994-4.535,5.81-7.328C21.107-31.084,16.424-36.521,12.634-41.054z"
		/>
	<path fill="#FFFFFF" d="M-8.576-45.414c-0.003,0-0.007,0-0.01,0l-6.953,0.088l-2.064-6.645c-0.163-0.522-1.031-0.522-1.193,0
		l-2.063,6.645l-6.954-0.088c-0.003,0-0.007,0-0.01,0c-0.271,0-0.512,0.174-0.596,0.432c-0.083,0.261,0.011,0.545,0.235,0.704
		l5.679,4.015l-2.236,6.587c-0.088,0.26,0.005,0.546,0.227,0.708c0.22,0.161,0.521,0.158,0.741-0.005l5.574-4.162l5.574,4.162
		c0.112,0.082,0.241,0.124,0.374,0.124c0.129,0,0.258-0.04,0.367-0.119c0.222-0.162,0.313-0.448,0.226-0.708l-2.236-6.587
		l5.681-4.015c0.223-0.159,0.317-0.444,0.234-0.704C-8.066-45.24-8.305-45.414-8.576-45.414z"/>
	<path fill="#231F20" d="M4.655,31.963l-0.212,0.419c0.025-0.073,0.05-0.145,0.076-0.217l-3.763,5.539
		c-0.783,2.349-1.362,4.176-1.586,5.078l-3.453,6.809c-0.058,0.112-0.09,0.235-0.096,0.36l-0.115,2.526
		c-0.012,0.293,0.12,0.573,0.354,0.75c9.387,7.04,10.822,18.915,11.593,25.296c0.197,1.634,0.354,2.925,0.59,3.823
		c1.161,4.411,5.847,13.135,6.044,13.504c0.201,0.374,0.641,0.553,1.044,0.426c2.579-0.805,4.037,0.509,4.425,0.931
		c1.311,6.036,3.349,15.701,3.377,16.582c0,0.673,0,2.463-0.639,2.569c-0.277,0.046-0.956-0.884-1.309-1.931
		c-0.016-0.05-0.037-0.098-0.062-0.143l-8.489-15.605c-0.015-0.025-0.028-0.05-0.044-0.073c-0.913-1.35-22.4-33.099-25.733-37.449
		c-4.938-6.442-3.369-11.824-3.301-12.046c0.017-0.057,0.028-0.115,0.036-0.174l0.543-5.181c0.218-0.263,0.275-0.638,0.111-0.963
		c-0.003-0.005-0.005-0.011-0.008-0.016l3.042-28.999c-0.553-0.124-1.134-0.254-1.74-0.39l-2.776,26.455
		c-4.879-9.731-8.247-16.689-10.26-21.192c-1.334-2.983-2.186-5.937-2.694-8.782c-0.625-0.14-1.247-0.279-1.865-0.417
		c0.511,3.2,1.43,6.541,2.941,9.922c2.19,4.899,5.968,12.671,11.535,23.732l-0.584,5.567c-0.236,0.844-1.613,6.746,3.611,13.562
		c2.328,3.038,14.019,20.195,20.795,30.172c2.693,3.967,4.612,6.801,4.854,7.157l1.52,2.793l6.915,12.708
		c0.237,0.678,1.193,3.068,2.931,3.068c0.105,0,0.214-0.009,0.324-0.026c2.117-0.353,2.117-3.03,2.117-4.316
		c0-1.183-2.885-14.511-3.463-17.17c-0.026-0.12-0.076-0.233-0.149-0.333c-0.084-0.116-1.982-2.649-5.68-1.906
		c-0.964-2.032-2.062-4.94-2.415-8.224l-0.017-0.159c-0.709-6.615-2.363-22.075-11.707-36.988c-0.086-0.888-0.419-4.373-0.434-5.598
		L12.5,20.417L4.655,31.963z M-2.701,52.095l0.086-1.873l1.879-3.706c0.121,1.434,0.254,2.772,0.265,2.874
		c0.014,0.138,0.059,0.269,0.132,0.385c9.048,14.344,10.791,29.292,11.512,36.01c-0.615-1.448-1.133-2.82-1.416-3.891
		c-0.206-0.78-0.355-2.018-0.545-3.584C8.42,71.75,6.954,59.614-2.701,52.095z"/>
	<path fill="#231F20" d="M-30.541-3.491c0.183-1.246,0.404-2.418,0.647-3.489c1.239-5.45,3.166-9.44,3.909-10.857l14.353,11.305
		c0.025,0.02,0.04,0.031,0.057,0.044c0.032,0.024,0.061,0.043,0.112,0.062c0.144,0.095,1.146,0.86,1.771,3.737
		c0.764,3.512,2.247,9.474,2.263,9.534c0.099,0.403,0.462,0.672,0.858,0.672c0.07,0,0.144-0.008,0.213-0.028
		c0.372-0.092,0.622-0.408,0.659-0.769c0.01-0.1,0.012-0.202-0.014-0.305c-0.015-0.06-1.492-5.997-2.25-9.482
		C-8.738-6.63-10.113-7.699-10.6-7.975l-18.122-14.273c-2.575-2.347-3.364-5.363-2.347-8.964c0.486-1.724,1.287-3.187,1.839-4.069
		c1.698,2.986,3.417,6.125,4.593,8.294l-1.369-1.082c-0.384-0.303-0.94-0.238-1.245,0.146c-0.302,0.383-0.236,0.941,0.146,1.244
		l19.982,15.793c0.028,0.021,0.058,0.042,0.088,0.061c0.026,0.016,2.623,1.63,3.482,4.495c0.899,3.001,2.53,10.203,2.705,10.979
		c0.009,0.04,0.018,0.077,0.019,0.081c0.093,0.412,0.458,0.692,0.863,0.692c0.064,0,0.13-0.007,0.195-0.022
		C0.45,5.351,0.625,5.219,0.747,5.051c0.144-0.199,0.212-0.45,0.155-0.709C0.897,4.319,0.882,4.251,0.861,4.16
		c-0.038-0.167-0.1-0.44-0.181-0.796C0.601,3.019,0.505,2.6,0.395,2.124c-0.062-0.269-0.129-0.557-0.2-0.857
		C0.047,0.631-0.116-0.06-0.288-0.776c-0.527-2.198-1.125-4.592-1.566-6.063c-0.047-0.157-0.116-0.295-0.17-0.446
		c-1.099-3.021-3.631-4.762-4.035-5.021L-21.5-24.508c0.026-0.18,0.013-0.368-0.079-0.541c-0.04-0.075-4.076-7.656-7.431-13.406
		c-3-5.147-0.061-8.655,0.062-8.799c0.012-0.014,0.022-0.028,0.033-0.041c0.29-0.373,6.04-7.754,9.254-12.066
		c-0.088,1.273-0.056,2.689,0.328,3.762c0.133,0.372,0.494,0.611,0.89,0.587c0.117-0.008,2.923-0.194,5.691-1.721
		c4.604-2.539,8.791-4.635,8.832-4.656c0.056-0.028,0.108-0.062,0.157-0.101c0.025-0.02,2.604-2.048,5.999-1.648
		c2.446,0.288,4.723,1.769,6.77,4.401c5.739,7.377,15.347,18.96,18.066,22.229c-0.266-0.155-0.601-0.175-0.886-0.012
		c-0.423,0.244-0.569,0.785-0.326,1.209c0.196,0.34,0.64,0.723,1.649,0.723c0.883,0,2.196-0.292,4.153-1.162
		c4.309-1.915,20.16-9.279,20.32-9.353c0.098-0.046,0.186-0.109,0.26-0.186l6.005-6.157l8.3,0.461
		c0.012,0.001,0.022,0.001,0.033,0.001c0.354,0.008,0.788,0.098,0.977,0.193c-0.004,0.027-0.008,0.047-0.011,0.061
		c-0.083,0.032-0.32,0.085-0.977,0.061c-2.798-0.103-4.218-0.147-4.218-0.147c-0.468-0.014-0.861,0.344-0.909,0.805
		c-0.011,0.097-0.292,2.381-3.84,2.907c-0.383,0.057-0.663,0.353-0.731,0.713c-0.018,0.095-0.03,0.192-0.015,0.293
		c0.071,0.484,0.522,0.818,1.006,0.746c3.557-0.526,4.753-2.515,5.15-3.669c0.681,0.023,1.848,0.063,3.489,0.124
		c0.987,0.037,1.755-0.045,2.289-0.559c0.358-0.346,0.54-0.834,0.54-1.452c0-0.83-0.709-1.809-2.704-1.845l-2.691-0.149
		l-5.995-0.333c-0.254-0.013-0.504,0.083-0.685,0.267l-6.171,6.33c-1.623,0.752-16.072,7.461-20.145,9.272
		c-0.234,0.104-0.439,0.186-0.646,0.271c4.084-17.133-9.019-31.069-13.356-35.678c-2.7-2.868-4.086-5.496-4.768-7.668
		c0.325,0.035,0.649,0.075,0.978,0.075c5.604,0,10.162-5.085,10.162-11.333c0-5.596-3.66-10.246-8.448-11.158l-3.411-7.131
		c-0.264-0.676-2.982-7.156-9.732-7.638c-4.272-0.305-7.045-0.424-8.582-0.471c-0.055-0.009-0.104-0.033-0.162-0.033
		c-0.032,0-0.267,0-0.711,0.01c-0.387-0.008-0.591-0.008-0.622-0.008c-0.05,0-0.092,0.021-0.14,0.028
		c-1.532,0.046-4.311,0.166-8.603,0.473c-6.75,0.483-9.469,6.963-9.735,7.639l-3.408,7.128c-4.8,0.9-8.473,5.556-8.473,11.163
		c0,6.248,4.557,11.331,10.161,11.331c0.335,0,0.667-0.04,0.999-0.077c-0.681,2.178-2.066,4.812-4.754,7.668
		c-10.075,10.705-14.791,21.384-14.018,31.741c0.724,9.683,6.352,18.764,16.717,26.997c-0.689,1.819-1.411,4.046-1.996,6.604
		c-0.294,1.285-0.559,2.706-0.765,4.232L-30.541-3.491z M-31.02-71.563c3.289-3.494,4.796-6.715,5.431-9.309
		c0.569-0.193,1.117-0.453,1.649-0.756c0.01,0.011,0.019,0.021,0.028,0.032c-0.048,0.146-0.06,0.306-0.003,0.461
		c1.663,4.522,0.593,9.684-3.18,15.343c-3.757,5.635-9.081,10.018-11.196,11.642c-7.115,5.461-5.198,13.362-5.178,13.441
		c0.083,0.32,0.371,0.533,0.688,0.533c0.058,0,0.115-0.008,0.175-0.022c0.07-0.018,0.128-0.054,0.187-0.09
		c0.259-0.157,0.404-0.462,0.325-0.771c-0.019-0.07-1.717-7.067,4.667-11.966c3.133-2.405,17.895-14.491,15.392-26.63
		c0.613,0.578,1.204,1.092,1.731,1.522c2.225,1.814,4.575,3.266,6.695,4.307c-0.116,1.722-0.462,4.705-1.161,7.363
		c-0.88,0.306-2.897,1.255-4.773,3.934c-2.179,3.113-10.396,13.665-10.758,14.13c-0.156,0.184-1.043,1.292-1.519,3.07
		c-0.468,1.744-0.623,4.506,1.277,7.767c0.108,0.185,0.218,0.377,0.328,0.565c-1.114,1.589-6.427,9.958,0.325,16.083
		c0.016,0.014,0.031,0.028,0.048,0.04l2.442,1.923c-0.136,0.249-0.333,0.622-0.577,1.12c-0.27,0.549-0.593,1.246-0.943,2.071
		c-9.696-7.823-14.967-16.366-15.641-25.408C-45.295-51.009-40.739-61.235-31.02-71.563z M-28.554-82.136
		c-4.625,0-8.389-4.288-8.389-9.56c0-4.646,2.923-8.523,6.782-9.381c0.059,0.046,0.108,0.101,0.179,0.135
		c0.104,0.05,0.216,0.06,0.327,0.074c-0.76,1.635-1.851,4.857-1.555,9.489c0.362,5.667,2.18,8.187,3.247,9.198
		C-28.16-82.166-28.355-82.136-28.554-82.136L-28.554-82.136z M13.15-82.138c-0.419,0-0.833-0.043-1.244-0.113
		c0.982-0.793,3.145-3.221,3.543-9.459c0.276-4.325-0.656-7.417-1.399-9.14c0.032,0.003,0.062,0.013,0.095,0.013
		c0.153,0,0.31-0.034,0.458-0.103c0.069-0.033,0.119-0.088,0.177-0.134c3.848,0.867,6.759,4.741,6.759,9.376
		C21.539-86.426,17.775-82.138,13.15-82.138z M28.565-37.481c-0.35-0.421-0.837-1.007-1.438-1.731
		c-3.73-4.498-11.712-14.17-16.722-20.612c-2.349-3.02-5.026-4.727-7.959-5.073c-0.642-0.076-1.255-0.077-1.838-0.032
		c-1.184-3.436-1.549-7.945-1.626-9.101c1.994-1.053,4.052-2.45,5.914-4.069c0.546-0.474,1.16-1.043,1.798-1.695
		C4.051-67.608,18.91-55.441,22.055-53.027c6.357,4.881,4.738,11.682,4.667,11.969c-0.096,0.379,0.133,0.764,0.512,0.86
		c0.021,0.005,0.042,0.004,0.063,0.008c0.038,0.006,0.075,0.014,0.112,0.014c0.316,0,0.604-0.214,0.687-0.534
		c0.02-0.079,1.938-7.98-5.179-13.442c-2.113-1.623-7.438-6.006-11.194-11.642C7.95-71.453,6.88-76.615,8.542-81.136
		c0.062-0.167,0.049-0.341-0.009-0.495c0.545,0.311,1.106,0.578,1.69,0.773c0.636,2.591,2.144,5.808,5.427,9.296
		C19.825-67.124,32.447-53.7,28.565-37.481z M-9.416-111.728c0.125,2.408,0.191,4.956,0.113,5.771
		c-0.736,0.488-2.188,1.88-5.56,5.424c-2.636,2.768-6.045,6.507-7.715,8.699c-1.402,1.839-1.853,4.387-1.305,7.367
		c0.008,0.045,0.019,0.086,0.027,0.131c-1.878-2.541-3.131-5.403-3.131-8.437C-26.986-102.773-19.227-110.978-9.416-111.728z
		 M11.074-92.772c0,2.776-0.974,5.425-2.489,7.82c0.413-2.77-0.052-5.145-1.376-6.883c-1.671-2.192-5.08-5.93-7.715-8.699
		c-3.373-3.545-4.824-4.936-5.56-5.424c-0.077-0.812-0.012-3.339,0.111-5.736C3.601-110.69,11.074-102.589,11.074-92.772z
		 M-17.473-62.144c0.013-0.058,0.003-0.113,0.004-0.17c0.689-0.826,1.352-1.388,1.918-1.769c-0.378,0.922-0.817,1.715-1.332,2.257
		c-0.337,0.355-0.323,0.915,0.031,1.252c0.172,0.163,0.391,0.244,0.609,0.244c0.234,0,0.47-0.092,0.645-0.277
		c2.625-2.763,3.465-9.667,3.703-12.445c1.56,0.64,2.913,1.011,3.875,1.08c0.131,0.009,0.266,0.014,0.407,0.014
		c1.354,0,3.053-0.454,4.877-1.246c0.145,1.761,0.556,5.462,1.576,8.571c-1.941,0.505-3.287,1.441-3.628,1.697
		c-0.592,0.298-4.526,2.283-8.819,4.652c-1.627,0.898-3.304,1.268-4.228,1.414C-18.125-58.601-17.694-61.183-17.473-62.144z
		 M-18.747-92.1c0-0.319,0.261-0.578,0.578-0.578c0.321,0,0.579,0.259,0.579,0.578c0,0.32-0.259,0.579-0.579,0.579
		C-18.487-91.521-18.747-91.78-18.747-92.1z M-18.616-90.945c0,0.604-0.488,1.092-1.092,1.092c-0.603,0-1.091-0.489-1.091-1.092
		s0.488-1.091,1.091-1.091C-19.105-92.036-18.616-91.548-18.616-90.945z M-21.614-81.727c-0.413-1.031-1.199-3.357-1.053-5.702
		c1.047,0.315,2.192,0.483,3.425,0.483c3.051,0,5.553-0.959,5.657-1.001c0.166-0.063,0.259-0.244,0.215-0.417
		c-1.087-4.277-3.219-6.314-4.269-7.091c1.56-1.729,3.266-3.545,4.791-5.124l4.781,3.575c0.126,0.094,0.275,0.141,0.425,0.141
		c0.15,0,0.303-0.049,0.428-0.146l4.684-3.579c1.503,1.555,3.182,3.341,4.723,5.048c-0.996,0.701-3.258,2.719-4.39,7.176
		c-0.045,0.174,0.048,0.354,0.215,0.418c0.104,0.041,2.605,1,5.656,1c1.309,0,2.517-0.191,3.615-0.545
		c0.15,2.178-0.509,4.346-0.94,5.49c-1.603,1.802-3.461,3.382-5.332,4.667c0.189-1.313-0.015-2.917-1.3-4.229
		c-1.599-1.633-6.705-6.022-6.923-6.208c-0.046-0.04-0.101-0.06-0.153-0.086c-0.009-0.004-0.017-0.01-0.026-0.014
		c-0.061-0.027-0.123-0.042-0.188-0.051c-0.036-0.006-0.07-0.012-0.106-0.013c-0.036,0-0.07,0.006-0.106,0.012
		c-0.065,0.009-0.127,0.025-0.189,0.052c-0.008,0.004-0.015,0.009-0.023,0.013c-0.053,0.026-0.108,0.047-0.155,0.087
		c-0.217,0.187-5.322,4.576-6.921,6.208c-1.246,1.271-1.474,2.813-1.315,4.102C-18.19-78.654-20.005-80.093-21.614-81.727z
		 M-8.314-104.872c0.368-0.241,0.658-0.452,0.314-6.928c0.014,0,0.028-0.002,0.042-0.002c0.198,0,0.391,0.024,0.587,0.03
		c-0.342,6.447-0.051,6.657,0.315,6.899c0.075,0.05,0.158,0.083,0.244,0.103c0.413,0.297,1.681,1.524,3.286,3.159l-4.122,3.15
		l-4.203-3.143c1.607-1.638,2.878-2.867,3.292-3.165C-8.472-104.789-8.389-104.822-8.314-104.872z M2.169-92.036
		c0-0.319,0.261-0.578,0.578-0.578c0.32,0,0.579,0.259,0.579,0.578c0,0.319-0.26,0.579-0.579,0.579
		C2.429-91.457,2.169-91.716,2.169-92.036z M2.3-90.881c0,0.603-0.488,1.092-1.092,1.092c-0.603,0-1.091-0.489-1.091-1.092
		s0.488-1.092,1.091-1.092C1.811-91.973,2.3-91.483,2.3-90.881z M-14.643-76.38c-0.298-0.722-0.897-2.679,0.583-4.192
		c0.182-0.186,0.418-0.415,0.686-0.668c1.873,2.556,3.813,3.866,5.779,3.866c2.882,0,4.862-2.768,5.56-3.916
		c0.292,0.275,0.545,0.52,0.74,0.719c1.667,1.702,0.717,3.936,0.496,4.393c-2.655,1.554-5.169,2.448-6.812,2.448
		c-0.097,0-0.19-0.003-0.281-0.01C-9.385-73.847-11.911-74.797-14.643-76.38z M-9.648-84.592c0.435,0.33,1.16,0.674,2.058,0.674
		c0.604,0,1.279-0.17,1.979-0.588c0.715,0.627,1.488,1.312,2.205,1.958h-8.545C-11.202-83.223-10.389-83.942-9.648-84.592z
		 M-8.823-85.313c0.466-0.406,0.863-0.75,1.145-0.994c0.296,0.256,0.718,0.621,1.213,1.053C-7.539-84.754-8.406-85.072-8.823-85.313
		z M-3.176-81.484c-0.749,1.116-2.344,3.047-4.419,3.047c-1.521,0-3.081-1.024-4.646-3.047H-3.176z M-24.899-109.111
		c0.014-0.027,0.024-0.056,0.036-0.084c0.021-0.059,2.287-5.912,7.915-6.314c5.006-0.357,7.964-0.458,9.215-0.486
		c1.202,0.026,4.185,0.123,9.299,0.489c5.597,0.399,7.823,6.074,7.915,6.313c0.011,0.029,0.021,0.057,0.036,0.084l2.919,6.106
		c-0.701,0.054-1.392,0.193-2.065,0.406c-3.514-6.528-10.409-10.977-18.328-10.977c-7.867,0-14.726,4.391-18.26,10.85
		c-0.527-0.139-1.063-0.232-1.606-0.276L-24.899-109.111z"/>
	<path fill="#231F20" d="M25.006-29.281c-3.136-3.62-8.103-9.408-11.729-13.767c-0.067-0.229-0.22-0.425-0.447-0.539
		c-2.009-2.424-3.543-4.339-3.983-5.045c-1.559-2.491-4.184-2.498-5.354-2.153c-0.47,0.139-0.739,0.631-0.601,1.1
		c0.139,0.469,0.631,0.737,1.101,0.6c0.02-0.005,1.635-0.458,2.868,0.781c0.169,0.17,0.332,0.371,0.482,0.611
		c0.479,0.767,2.045,2.725,4.026,5.118L2.926-23.443l-0.877,1.988c-0.327-0.265-0.799-0.28-1.128,0.006
		c-0.369,0.32-0.407,0.881-0.087,1.249l4.056,4.662l0.893-1.672l-2.514-2.889c0.106-0.085,0.2-0.19,0.259-0.324l9.106-20.631
		c3.79,4.533,8.473,9.969,10.301,12.085c0.42,0.486,0.693,0.802,0.766,0.885c0.021,0.022,0.04,0.043,0.062,0.063
		c0.038,0.036,0.325,0.295,0.795,0.611c-1.169,1.924-2.543,3.73-4.275,5.578l2.52-0.152c1.286-1.504,2.368-3.009,3.325-4.596
		c0.812,0.328,1.799,0.583,2.929,0.583c0.885,0,1.854-0.154,2.884-0.553c0.193-0.074,0.402-0.161,0.61-0.247l5.761-4.792
		c-2.39,1.278-5.114,2.659-7.006,3.387C27.86-26.876,25.309-29.012,25.006-29.281z"/>
	<path fill="#E681AC" d="M89.561-64.115c-0.066-0.545-0.392-1.031-0.864-1.3c-0.472-0.269-1.068-0.299-1.565-0.076l-17.271,7.746
		c-0.002,0.001-0.004,0.002-0.006,0.003s-0.005,0.002-0.008,0.003c-0.137,0.063-0.265,0.143-0.388,0.243l-5.523,4.594l2.691,0.149
		c1.995,0.036,2.704,1.015,2.704,1.845c0,0.618-0.182,1.106-0.54,1.452c-0.534,0.514-1.302,0.596-2.289,0.559
		c-1.642-0.061-2.809-0.101-3.489-0.124c-0.397,1.154-1.594,3.143-5.15,3.669c-0.483,0.072-0.935-0.262-1.006-0.746
		c-0.015-0.101-0.003-0.198,0.015-0.293c-0.294,0.024-0.569,0.04-0.824,0.05l-0.299,0.249l-4.449,3.7l-12.99,10.805l-5.761,4.792
		l-6.205,5.161c-0.321-0.309-0.759-0.486-1.206-0.486c-0.034,0-0.068,0.001-0.104,0.003l-2.233,0.135l-2.52,0.152l-3.157,0.19
		l-8.309,0.501c-0.61,0.037-1.143,0.38-1.422,0.912L5.783-17.21L4.89-15.538L1.13-8.496l-3.336,0.527l0.183,0.684
		c0.055,0.151,0.123,0.289,0.17,0.446c0.441,1.471,1.039,3.865,1.566,6.063l0.516,1.935L0.195,1.266
		c0.07,0.301,0.137,0.588,0.2,0.857l6.2,6.697c0.321,0.347,0.302,0.897-0.046,1.22c-0.354,0.323-0.9,0.304-1.225-0.046L0.747,5.051
		C0.625,5.219,0.45,5.351,0.231,5.4C0.166,5.415,0.1,5.422,0.036,5.422c-0.405,0-0.771-0.28-0.863-0.692
		c-0.001-0.004-0.009-0.041-0.019-0.081l-0.199,0.648l0.484,2.146c0.087,0.382-0.153,0.761-0.534,0.847
		c-0.054,0.011-0.106,0.017-0.158,0.017c-0.253,0-0.483-0.14-0.608-0.357l-0.387,1.256l-1.25-0.9c-0.003,0-0.007,0.001-0.011,0.001
		c-0.299,0-0.567-0.195-0.665-0.488l-1.526-1.099c-0.038,0.36-0.288,0.676-0.659,0.769c-0.069,0.02-0.143,0.028-0.213,0.028
		c-0.396,0-0.76-0.269-0.858-0.672c-0.016-0.06-1.499-6.021-2.263-9.534c-0.625-2.877-1.627-3.642-1.771-3.737
		c-0.052-0.019-0.081-0.038-0.112-0.062l-18.965,2.997l-1.83,0.289l-16.688,2.637c-0.823,0.128-1.44,0.827-1.464,1.664L-50.6,3.915
		c-0.022,0.826,0.547,1.557,1.354,1.738c0.173,0.039,8.064,1.802,16.991,3.797c0.618,0.138,1.239,0.277,1.865,0.417
		c5.545,1.24,11.292,2.526,15.73,3.52c0.606,0.136,1.188,0.266,1.74,0.39c2.869,0.643,4.979,1.117,5.758,1.294
		c0.498,0.115,1.152,0.347,1.425,0.797c0.121,0.199,0.236,0.557,0.102,1.159c-0.005,0.02-0.009,0.039-0.011,0.058l-3.47,25.913
		c-0.083,0.613,0.172,1.227,0.663,1.605l1.52,1.166c0.302,0.229,0.676,0.355,1.054,0.355c0.091,0,0.185-0.008,0.276-0.022
		c0.151-0.026,0.301-0.071,0.442-0.135c0.287-0.132,0.534-0.341,0.713-0.604l5.204-7.659l3.763-5.539l0.137-0.202L12.5,20.417
		L21.853,6.65l33.773-8.216c0.515-0.115,0.952-0.473,1.175-0.956c0.221-0.479,0.215-1.024-0.02-1.5L55.58-6.449
		c-0.217-0.431-0.605-0.754-1.07-0.889l-19.952-5.766l-0.267-0.276l26.315-26.156l1.698-1.688l5.212-5.181
		c0.167-0.899,0.868-1.596,1.748-1.737l3.514-3.493l2.894,1.214c0.215,0.089,0.439,0.133,0.669,0.133
		c0.513,0,0.993-0.222,1.315-0.606l6.031-7.06c0.431,0.157,0.966,0.287,1.555,0.287c0.978,0,1.878-0.366,2.604-1.056
		C89.96-60.72,89.579-63.979,89.561-64.115z M17.417-13.744c0.125-0.115,0.271-0.213,0.431-0.286
		c0.661-0.303,1.437-0.147,1.927,0.384l5.381,5.812c0.305,0.329,0.463,0.757,0.444,1.205c-0.019,0.443-0.209,0.856-0.54,1.159
		c-0.115,0.11-0.269,0.215-0.438,0.292c-0.651,0.299-1.423,0.146-1.917-0.379l-5.383-5.815c-0.308-0.335-0.466-0.764-0.445-1.212
		C16.894-13.027,17.084-13.441,17.417-13.744z M12.81-9.534l-0.097-0.105c-0.324-0.351-0.309-0.899,0.046-1.225
		c0.35-0.324,0.896-0.302,1.218,0.048l7.385,7.974c0.325,0.353,0.301,0.899-0.05,1.219c-0.348,0.328-0.896,0.303-1.223-0.045
		l-0.541-0.584c0.007,0.074,0.017,0.148,0.014,0.224c-0.02,0.456-0.21,0.868-0.538,1.168c-0.131,0.12-0.278,0.218-0.438,0.291
		c-0.656,0.301-1.432,0.147-1.924-0.383L11.28-6.767c-0.625-0.683-0.581-1.743,0.095-2.365C11.777-9.5,12.312-9.624,12.81-9.534z
		 M1.53,29.674c-0.216,0.408-0.55,0.723-0.967,0.914c-0.6,0.274-1.272,0.254-1.852-0.056c-0.489-0.263-0.853-0.701-1.012-1.236
		c-0.161-0.532-0.104-1.095,0.161-1.583c0.52-0.978,1.827-1.38,2.812-0.854C1.686,27.397,2.07,28.662,1.53,29.674z M4.253,19.07
		c0.489,0.26,0.85,0.696,1.012,1.228c0.161,0.534,0.105,1.098-0.159,1.591c-0.213,0.402-0.548,0.716-0.966,0.908
		c-0.596,0.272-1.27,0.254-1.849-0.055c-1.01-0.545-1.396-1.809-0.856-2.818C1.962,18.936,3.266,18.542,4.253,19.07z"/>
	<path fill="#FFFFFF" d="M0.674,26.859c-0.985-0.526-2.293-0.124-2.812,0.854c-0.265,0.488-0.322,1.051-0.161,1.583
		c0.159,0.535,0.522,0.973,1.012,1.236c0.579,0.31,1.252,0.33,1.852,0.056c0.417-0.191,0.751-0.506,0.967-0.914
		C2.07,28.662,1.686,27.397,0.674,26.859z M1.205,29.502c-0.445,0.836-1.484,1.15-2.315,0.703c-0.835-0.444-1.152-1.483-0.7-2.316
		c0.439-0.837,1.478-1.148,2.312-0.703C1.333,27.63,1.649,28.666,1.205,29.502z"/>
	<path fill="#FFFFFF" d="M1.434,19.924c-0.539,1.009-0.153,2.273,0.856,2.818c0.579,0.309,1.253,0.327,1.849,0.055
		c0.418-0.192,0.753-0.506,0.966-0.908c0.265-0.493,0.32-1.057,0.159-1.591c-0.162-0.532-0.522-0.968-1.012-1.228
		C3.266,18.542,1.962,18.936,1.434,19.924z M4.781,21.713c-0.444,0.832-1.482,1.146-2.313,0.702
		c-0.835-0.449-1.147-1.485-0.704-2.316c0.443-0.837,1.478-1.151,2.314-0.702C4.913,19.839,5.229,20.875,4.781,21.713z"/>
	<path fill="#884B68" d="M19.118-3.226c0.249,0.268,0.395,0.609,0.43,0.974l0.541,0.584c0.326,0.348,0.875,0.373,1.223,0.045
		c0.351-0.32,0.375-0.866,0.05-1.219l-7.385-7.974c-0.321-0.35-0.868-0.372-1.218-0.048c-0.354,0.326-0.37,0.874-0.046,1.225
		l0.097,0.105c0.344,0.062,0.67,0.223,0.92,0.487L19.118-3.226z M19.508-3.402c0.104-0.204,0.354-0.286,0.561-0.184
		c0.201,0.1,0.284,0.353,0.183,0.556c-0.104,0.205-0.353,0.286-0.56,0.183C19.489-2.947,19.406-3.196,19.508-3.402z M18.066-4.967
		c0.102-0.2,0.355-0.286,0.56-0.182c0.204,0.103,0.289,0.355,0.181,0.557c-0.104,0.203-0.353,0.285-0.555,0.184
		C18.047-4.512,17.967-4.76,18.066-4.967z M16.629-6.527c0.102-0.202,0.352-0.284,0.558-0.181c0.205,0.1,0.284,0.35,0.179,0.552
		c-0.099,0.207-0.349,0.288-0.555,0.187C16.607-6.073,16.524-6.324,16.629-6.527z M15.188-8.089c0.102-0.206,0.35-0.286,0.555-0.182
		c0.203,0.1,0.287,0.348,0.184,0.555c-0.099,0.206-0.35,0.283-0.556,0.182C15.166-7.636,15.083-7.885,15.188-8.089z M13.747-9.65
		c0.102-0.208,0.352-0.29,0.553-0.185c0.208,0.103,0.287,0.354,0.187,0.554c-0.104,0.208-0.354,0.288-0.558,0.188
		C13.724-9.197,13.643-9.446,13.747-9.65z"/>
	<path fill="#FFFFFF" d="M13.928-9.093c0.204,0.1,0.454,0.02,0.558-0.188c0.101-0.2,0.021-0.451-0.187-0.554
		c-0.201-0.105-0.451-0.023-0.553,0.185C13.643-9.446,13.724-9.197,13.928-9.093z"/>
	<path fill="#FFFFFF" d="M15.371-7.534c0.206,0.101,0.457,0.024,0.556-0.182c0.104-0.207,0.02-0.455-0.184-0.555
		c-0.205-0.104-0.453-0.024-0.555,0.182C15.083-7.885,15.166-7.636,15.371-7.534z"/>
	<path fill="#FFFFFF" d="M16.81-5.97c0.206,0.102,0.456,0.021,0.555-0.187c0.105-0.202,0.026-0.452-0.179-0.552
		c-0.206-0.103-0.456-0.021-0.558,0.181C16.524-6.324,16.607-6.073,16.81-5.97z"/>
	<path fill="#FFFFFF" d="M18.252-4.408c0.202,0.101,0.451,0.019,0.555-0.184c0.108-0.202,0.023-0.454-0.181-0.557
		c-0.204-0.104-0.458-0.018-0.56,0.182C17.967-4.76,18.047-4.512,18.252-4.408z"/>
	<path fill="#FFFFFF" d="M19.691-2.847c0.207,0.103,0.456,0.022,0.56-0.183c0.102-0.203,0.019-0.456-0.183-0.556
		c-0.207-0.102-0.456-0.02-0.561,0.184C19.406-3.196,19.489-2.947,19.691-2.847z"/>
	<path fill="#884B68" d="M0.974,3.391C1.182,3.492,1.263,3.74,1.16,3.947C1.099,4.067,0.985,4.138,0.861,4.16
		c0.021,0.092,0.036,0.159,0.041,0.182c0.057,0.259-0.011,0.51-0.155,0.709l4.577,4.944c0.324,0.35,0.871,0.369,1.225,0.046
		c0.348-0.323,0.367-0.873,0.046-1.22l-6.2-6.697C0.505,2.6,0.601,3.019,0.68,3.363C0.775,3.337,0.879,3.342,0.974,3.391z
		 M4.741,8.258c0.105-0.202,0.354-0.284,0.562-0.18c0.203,0.099,0.282,0.35,0.178,0.552c-0.101,0.206-0.35,0.288-0.555,0.187
		C4.724,8.713,4.641,8.462,4.741,8.258z M3.302,6.695c0.103-0.203,0.353-0.285,0.556-0.18c0.205,0.099,0.287,0.354,0.185,0.554
		C3.937,7.272,3.69,7.354,3.488,7.254C3.282,7.15,3.197,6.901,3.302,6.695z M1.863,5.135C1.965,4.93,2.214,4.85,2.417,4.95
		c0.207,0.104,0.287,0.354,0.182,0.558C2.498,5.713,2.247,5.796,2.044,5.694C1.839,5.59,1.755,5.338,1.863,5.135z"/>
	<path fill="#FFFFFF" d="M1.16,3.947C1.263,3.74,1.182,3.492,0.974,3.391C0.879,3.342,0.775,3.337,0.68,3.363
		c0.081,0.356,0.144,0.63,0.181,0.796C0.985,4.138,1.099,4.067,1.16,3.947z"/>
	<path fill="#FFFFFF" d="M2.044,5.694c0.203,0.102,0.454,0.019,0.555-0.186C2.704,5.304,2.624,5.054,2.417,4.95
		c-0.203-0.1-0.452-0.02-0.554,0.185C1.755,5.338,1.839,5.59,2.044,5.694z"/>
	<path fill="#FFFFFF" d="M3.488,7.254c0.202,0.1,0.449,0.018,0.554-0.185c0.103-0.2,0.021-0.455-0.185-0.554
		C3.654,6.41,3.404,6.492,3.302,6.695C3.197,6.901,3.282,7.15,3.488,7.254z"/>
	<path fill="#FFFFFF" d="M4.927,8.817C5.132,8.918,5.381,8.836,5.481,8.63c0.104-0.202,0.025-0.453-0.178-0.552
		c-0.208-0.104-0.457-0.022-0.562,0.18C4.641,8.462,4.724,8.713,4.927,8.817z"/>
	<path d="M69.223-61.019l1.481,0.667c0.272,0.122,0.581,0.121,0.851-0.002c0.011-0.006,0.022-0.011,0.033-0.016
		c0.275-0.138,0.477-0.396,0.54-0.7l0.238-1.106l1.222,0.55c0.271,0.122,0.58,0.12,0.848-0.002c0.012-0.006,0.021-0.012,0.035-0.018
		c0.274-0.138,0.473-0.395,0.538-0.696l0.24-1.105l1.216,0.549c0.271,0.121,0.581,0.12,0.851-0.002
		c0.012-0.006,0.021-0.012,0.034-0.017c0.275-0.138,0.474-0.394,0.54-0.697l0.239-1.105l1.22,0.55
		c0.271,0.121,0.579,0.12,0.848-0.003c0.013-0.006,0.023-0.011,0.034-0.017c0.275-0.139,0.476-0.396,0.54-0.698l0.24-1.106
		l1.219,0.552c0.271,0.12,0.581,0.12,0.85-0.003c0.012-0.005,0.023-0.012,0.034-0.018c0.277-0.141,0.476-0.397,0.54-0.7l0.236-1.106
		l1.224,0.552c0.272,0.121,0.581,0.121,0.85-0.002c0.013-0.005,0.023-0.013,0.035-0.019c0.276-0.14,0.477-0.396,0.539-0.7
		l0.327-1.534c0.104-0.488-0.159-0.98-0.622-1.165c-0.135-0.052-0.844-0.297-1.721,0.104c-0.481,0.221-0.917,0.594-1.295,1.107
		c-0.003,0.005-0.003,0.011-0.006,0.017c-0.265-0.077-0.853-0.185-1.575,0.147c-0.483,0.221-0.922,0.597-1.299,1.113
		c-0.005,0.006-0.003,0.013-0.009,0.018c-0.267-0.079-0.854-0.186-1.577,0.146c-0.481,0.22-0.919,0.594-1.296,1.11
		c-0.002,0.003-0.003,0.009-0.005,0.013c-0.267-0.078-0.856-0.184-1.582,0.147c-0.482,0.222-0.918,0.597-1.297,1.113
		c-0.003,0.004-0.003,0.01-0.006,0.014c-0.267-0.077-0.854-0.182-1.579,0.15c-0.479,0.22-0.917,0.593-1.296,1.107
		c-0.003,0.004-0.004,0.012-0.008,0.018c-0.266-0.077-0.854-0.184-1.578,0.148c-0.481,0.22-0.915,0.591-1.294,1.105
		c-0.184,0.25-0.243,0.566-0.165,0.867C68.732-61.394,68.943-61.147,69.223-61.019z"/>
	<path d="M0.501,27.186c-0.834-0.445-1.872-0.134-2.312,0.703c-0.452,0.833-0.135,1.872,0.7,2.316
		c0.831,0.447,1.87,0.133,2.315-0.703C1.649,28.666,1.333,27.63,0.501,27.186z"/>
	<path d="M1.763,20.099c-0.443,0.831-0.131,1.867,0.704,2.316c0.831,0.444,1.869,0.13,2.313-0.702
		c0.448-0.838,0.132-1.874-0.703-2.316C3.241,18.948,2.207,19.262,1.763,20.099z"/>
	<path fill="#C0C2C4" d="M22.704-5.557c0.494,0.525,1.266,0.678,1.917,0.379c0.17-0.077,0.323-0.182,0.438-0.292
		c0.331-0.303,0.521-0.716,0.54-1.159c0.019-0.448-0.14-0.876-0.444-1.205l-5.381-5.812c-0.49-0.532-1.266-0.687-1.927-0.384
		c-0.159,0.073-0.306,0.171-0.431,0.286c-0.333,0.303-0.522,0.717-0.541,1.16c-0.021,0.448,0.138,0.877,0.445,1.212L22.704-5.557z"
		/>
	<path fill="#C0C2C4" d="M11.28-6.767l5.382,5.814c0.492,0.53,1.268,0.684,1.924,0.383c0.159-0.073,0.307-0.171,0.438-0.291
		c0.328-0.3,0.519-0.712,0.538-1.168c0.003-0.076-0.006-0.149-0.014-0.224c-0.035-0.365-0.181-0.706-0.43-0.974L13.73-9.047
		c-0.25-0.265-0.576-0.425-0.92-0.487c-0.498-0.089-1.033,0.035-1.435,0.402C10.699-8.51,10.655-7.45,11.28-6.767z"/>
	<path fill="#231F20" d="M67.517-46.405c-0.025,0.134-0.041,0.272-0.041,0.413c0,0.108,0.016,0.211,0.031,0.315
		c-1.336,1.354-3.856,3.892-4.3,4.299c-0.167,0.153-0.419,0.177-0.561,0.177c-0.08,0-0.108-0.005-0.106-0.005
		c-0.037-0.006-0.073-0.011-0.109-0.012l-0.126-0.006l-1.698,1.688l1.693,0.085c0.075,0.009,0.197,0.021,0.351,0.021
		c0.447,0,1.163-0.101,1.755-0.642c0.494-0.453,3.102-3.085,4.075-4.068c0.323,0.207,0.699,0.332,1.106,0.332
		c1.164,0,2.109-0.979,2.109-2.184s-0.946-2.184-2.109-2.184c-0.11,0-0.216,0.017-0.321,0.034
		C68.385-48.001,67.684-47.304,67.517-46.405z M69.586-46.404c0.185,0,0.339,0.188,0.339,0.412c0,0.224-0.154,0.412-0.339,0.412
		c-0.184,0-0.339-0.188-0.339-0.412C69.247-46.216,69.402-46.404,69.586-46.404z"/>
	<path fill="#FFF105" d="M0.228,1.159l-0.516-1.935c0.171,0.716,0.334,1.407,0.483,2.042L0.228,1.159z"/>
	<path fill="#FFF105" d="M-3.551-6.33c-0.859-2.865-3.456-4.479-3.482-4.495c-0.03-0.019-0.06-0.039-0.088-0.061l-19.982-15.793
		c-0.383-0.303-0.448-0.861-0.146-1.244c0.305-0.384,0.861-0.449,1.245-0.146l1.369,1.082c-1.175-2.169-2.895-5.308-4.593-8.294
		c-0.552,0.883-1.354,2.346-1.839,4.069c-1.018,3.601-0.229,6.617,2.347,8.964L-10.6-7.975c0.487,0.276,1.862,1.345,2.637,4.909
		c0.758,3.485,2.235,9.422,2.25,9.482c0.025,0.103,0.024,0.205,0.014,0.305l1.526,1.099C-4.18,7.801-4.192,7.786-4.197,7.767
		l-2.258-9.185c-0.094-0.38,0.14-0.764,0.521-0.858c0.38-0.093,0.764,0.14,0.857,0.52L-2.82,7.43c0.094,0.38-0.14,0.764-0.521,0.857
		c-0.053,0.012-0.106,0.018-0.158,0.019l1.25,0.9l0.387-1.256c-0.035-0.06-0.065-0.124-0.081-0.195l-2.257-9.992
		c-0.087-0.381,0.153-0.761,0.534-0.847s0.763,0.154,0.849,0.536l1.771,7.845l0.199-0.648C-1.021,3.873-2.652-3.329-3.551-6.33z"/>
	<path fill="#231F20" d="M-2.82,7.43l-2.257-9.186c-0.094-0.38-0.478-0.613-0.857-0.52c-0.381,0.094-0.614,0.478-0.521,0.858
		l2.258,9.185c0.005,0.019,0.017,0.034,0.023,0.052c0.097,0.292,0.365,0.488,0.665,0.488c0.003,0,0.007-0.001,0.011-0.001
		c0.052,0,0.105-0.007,0.158-0.019C-2.959,8.194-2.726,7.81-2.82,7.43z"/>
	<path fill="#231F20" d="M-2.817-2.548C-2.903-2.93-3.284-3.17-3.665-3.084s-0.621,0.466-0.534,0.847l2.257,9.992
		C-1.927,7.826-1.896,7.89-1.862,7.95c0.125,0.217,0.355,0.357,0.608,0.357c0.052,0,0.104-0.006,0.158-0.017
		c0.381-0.086,0.621-0.465,0.534-0.847l-0.484-2.146L-2.817-2.548z"/>
	<path fill="#FFF105" d="M57.603-47.104c3.548-0.526,3.829-2.81,3.84-2.907c0.048-0.461,0.441-0.819,0.909-0.805
		c0,0,1.42,0.044,4.218,0.147c0.656,0.024,0.894-0.029,0.977-0.061c0.003-0.014,0.007-0.034,0.011-0.061
		c-0.188-0.095-0.623-0.185-0.977-0.193c-0.011,0-0.021,0-0.033-0.001l-8.3-0.461l-6.005,6.157c-0.074,0.077-0.162,0.14-0.26,0.186
		c-0.16,0.074-16.012,7.438-20.32,9.353c-1.957,0.87-3.271,1.162-4.153,1.162c-1.01,0-1.453-0.383-1.649-0.723
		c-0.243-0.424-0.097-0.965,0.326-1.209c0.286-0.164,0.621-0.144,0.886,0.012C24.354-39.776,14.745-51.36,9.007-58.737
		c-2.047-2.632-4.323-4.113-6.77-4.401c-3.395-0.4-5.974,1.628-5.999,1.648c-0.049,0.039-0.102,0.073-0.157,0.101
		c-0.041,0.021-4.229,2.117-8.832,4.656c-2.769,1.527-5.574,1.713-5.691,1.721c-0.396,0.024-0.757-0.215-0.89-0.587
		c-0.383-1.073-0.416-2.489-0.328-3.762c-3.214,4.312-8.964,11.693-9.254,12.066c-0.011,0.013-0.021,0.027-0.033,0.041
		c-0.123,0.144-3.062,3.652-0.062,8.799c3.354,5.75,7.391,13.331,7.431,13.406c0.092,0.173,0.105,0.36,0.079,0.541l15.441,12.203
		c0.404,0.258,2.936,2,4.035,5.021l-0.183-0.684L1.13-8.496l3.76-7.042l-4.056-4.662c-0.32-0.368-0.282-0.929,0.087-1.249
		c0.329-0.287,0.801-0.271,1.128-0.006l0.877-1.988l3.935-24.861c-1.232-1.238-2.848-0.786-2.868-0.781
		c-0.47,0.137-0.962-0.131-1.101-0.6c-0.139-0.469,0.131-0.961,0.601-1.1c1.17-0.345,3.795-0.338,5.354,2.153
		c0.44,0.706,1.974,2.621,3.983,5.045c0.228,0.114,0.38,0.311,0.447,0.539c3.626,4.359,8.593,10.147,11.729,13.767
		c0.304,0.269,2.854,2.405,6.3,1.081c1.892-0.728,4.616-2.109,7.006-3.387l12.99-10.805l4.428-3.698
		c0.007,0,0.013-0.001,0.021-0.002l0.299-0.249c0.254-0.01,0.529-0.026,0.824-0.05C56.94-46.751,57.22-47.047,57.603-47.104z
		 M-8.215-44.278l-5.681,4.015l2.236,6.587c0.088,0.26-0.004,0.546-0.226,0.708c-0.109,0.079-0.238,0.119-0.367,0.119
		c-0.133,0-0.262-0.042-0.374-0.124l-5.574-4.162l-5.574,4.162c-0.221,0.163-0.521,0.166-0.741,0.005
		c-0.222-0.162-0.314-0.448-0.227-0.708l2.236-6.587l-5.679-4.015c-0.225-0.159-0.318-0.443-0.235-0.704
		c0.084-0.258,0.325-0.432,0.596-0.432c0.003,0,0.007,0,0.01,0l6.954,0.088l2.063-6.645c0.162-0.522,1.03-0.522,1.193,0l2.064,6.645
		l6.953-0.088c0.003,0,0.007,0,0.01,0c0.271,0,0.511,0.174,0.596,0.432C-7.898-44.722-7.992-44.437-8.215-44.278z"/>
	<circle fill="#FFFFFF" cx="1.208" cy="-90.881" r="1.092"/>
	<circle fill="#FFFFFF" cx="2.747" cy="-92.036" r="0.579"/>
	<circle fill="#FFFFFF" cx="-19.708" cy="-90.945" r="1.092"/>
	<circle fill="#FFFFFF" cx="-18.169" cy="-92.099" r="0.578"/>
</g>
</svg>
