<?xml version="1.0" encoding="utf-8"?>
<!-- Generator: Adobe Illustrator 16.0.0, SVG Export Plug-In . SVG Version: 6.00 Build 0)  -->
<!DOCTYPE svg PUBLIC "-//W3C//DTD SVG 1.1//EN" "http://www.w3.org/Graphics/SVG/1.1/DTD/svg11.dtd" [
	<!ENTITY ns_extend "http://ns.adobe.com/Extensibility/1.0/">
	<!ENTITY ns_ai "http://ns.adobe.com/AdobeIllustrator/10.0/">
	<!ENTITY ns_graphs "http://ns.adobe.com/Graphs/1.0/">
	<!ENTITY ns_vars "http://ns.adobe.com/Variables/1.0/">
	<!ENTITY ns_imrep "http://ns.adobe.com/ImageReplacement/1.0/">
	<!ENTITY ns_sfw "http://ns.adobe.com/SaveForWeb/1.0/">
	<!ENTITY ns_custom "http://ns.adobe.com/GenericCustomNamespace/1.0/">
	<!ENTITY ns_adobe_xpath "http://ns.adobe.com/XPath/1.0/">
]>
<svg version="1.1" id="Layer_1" xmlns:x="&ns_extend;" xmlns:i="&ns_ai;" xmlns:graph="&ns_graphs;"
	 xmlns="http://www.w3.org/2000/svg" xmlns:xlink="http://www.w3.org/1999/xlink" x="0px" y="0px" width="595.279px"
	 height="841.89px" viewBox="0 0 595.279 841.89" enable-background="new 0 0 595.279 841.89" xml:space="preserve">
<metadata><?xpacket begin="﻿" id="W5M0MpCehiHzreSzNTczkc9d"?>
<x:xmpmeta xmlns:x="adobe:ns:meta/" x:xmptk="Adobe XMP Core 5.3-c011 66.145661, 2012/02/06-14:56:27        ">
   <rdf:RDF xmlns:rdf="http://www.w3.org/1999/02/22-rdf-syntax-ns#">
      <rdf:Description rdf:about=""
            xmlns:dc="http://purl.org/dc/elements/1.1/">
         <dc:format>image/svg+xml</dc:format>
         <dc:title>
            <rdf:Alt>
               <rdf:li xml:lang="x-default">Print</rdf:li>
            </rdf:Alt>
         </dc:title>
      </rdf:Description>
      <rdf:Description rdf:about=""
            xmlns:xmp="http://ns.adobe.com/xap/1.0/"
            xmlns:xmpGImg="http://ns.adobe.com/xap/1.0/g/img/">
         <xmp:MetadataDate>2018-09-05T11:39:22-03:00</xmp:MetadataDate>
         <xmp:ModifyDate>2018-09-05T11:39:22-03:00</xmp:ModifyDate>
         <xmp:CreateDate>2018-09-05T11:39:22-03:00</xmp:CreateDate>
         <xmp:CreatorTool>Adobe Illustrator CS6 (Macintosh)</xmp:CreatorTool>
         <xmp:Thumbnails>
            <rdf:Alt>
               <rdf:li rdf:parseType="Resource">
                  <xmpGImg:width>172</xmpGImg:width>
                  <xmpGImg:height>256</xmpGImg:height>
                  <xmpGImg:format>JPEG</xmpGImg:format>
                  <xmpGImg:image>/9j/4AAQSkZJRgABAgEASABIAAD/7QAsUGhvdG9zaG9wIDMuMAA4QklNA+0AAAAAABAASAAAAAEA&#xA;AQBIAAAAAQAB/+4ADkFkb2JlAGTAAAAAAf/bAIQABgQEBAUEBgUFBgkGBQYJCwgGBggLDAoKCwoK&#xA;DBAMDAwMDAwQDA4PEA8ODBMTFBQTExwbGxscHx8fHx8fHx8fHwEHBwcNDA0YEBAYGhURFRofHx8f&#xA;Hx8fHx8fHx8fHx8fHx8fHx8fHx8fHx8fHx8fHx8fHx8fHx8fHx8fHx8fHx8f/8AAEQgBAACsAwER&#xA;AAIRAQMRAf/EAaIAAAAHAQEBAQEAAAAAAAAAAAQFAwIGAQAHCAkKCwEAAgIDAQEBAQEAAAAAAAAA&#xA;AQACAwQFBgcICQoLEAACAQMDAgQCBgcDBAIGAnMBAgMRBAAFIRIxQVEGE2EicYEUMpGhBxWxQiPB&#xA;UtHhMxZi8CRygvElQzRTkqKyY3PCNUQnk6OzNhdUZHTD0uIIJoMJChgZhJRFRqS0VtNVKBry4/PE&#xA;1OT0ZXWFlaW1xdXl9WZ2hpamtsbW5vY3R1dnd4eXp7fH1+f3OEhYaHiImKi4yNjo+Ck5SVlpeYmZ&#xA;qbnJ2en5KjpKWmp6ipqqusra6voRAAICAQIDBQUEBQYECAMDbQEAAhEDBCESMUEFURNhIgZxgZEy&#xA;obHwFMHR4SNCFVJicvEzJDRDghaSUyWiY7LCB3PSNeJEgxdUkwgJChgZJjZFGidkdFU38qOzwygp&#xA;0+PzhJSktMTU5PRldYWVpbXF1eX1RlZmdoaWprbG1ub2R1dnd4eXp7fH1+f3OEhYaHiImKi4yNjo&#xA;+DlJWWl5iZmpucnZ6fkqOkpaanqKmqq6ytrq+v/aAAwDAQACEQMRAD8A9U4q7FXYq7FXYq7FXYqh&#xA;dU1TTtK0+fUdSuEtLG1QyXFxKQqIo7knFXiWv/nf5q152i8mW6aTpJ2TW7+P1LiUV+3b2zfAq+Bk&#xA;rUdhmx0vZmTKLPpi6DtL2iwaUmI9eQdByHvP9rzzzDc27fvPNvmK/wBSkk3EFxdShSfCO3hKgD2A&#xA;zZS0Glwj94b/AB3Dd5/H232lrDWCIHuH3mWzCrm0gN5Jc2mhTfo6OVFjtjYysJYSB6jtMfjVv5QM&#xA;1k5w47jD0d1cx7+b1+n7M1R037yc/HPUcgfurv2N7st0I6D65Xy5q19o18g3htbm4tpV7n9053Hj&#xA;tTNnDSaTNtDY/G/teRz9pdq6M3mFx8wK+ca+1n+h/mx+Ynlx1Gq8fNWkL/eEItvqMa+KFaRTUHZg&#xA;GPjmHqeyJw3h6h9rtOz/AGqw5SI5R4cu/wDh/Z+N3tXlPzf5f816RHquh3S3Nsx4yL9mSKQfajlQ&#xA;/Ejr4H5jahzUPVApzirsVdirsVdirsVdirsVdirsVdirsVdirsVdir5t8+ebZPP/AJjlijk5eTdH&#xA;mMdlCp+C9uozR7h6bNGh2jHQ9e9M3PZehGQ8c/pHLzeT9pe2jgHg4j+8kNz/ADR+s/YPekHmDVbi&#xA;0SCysFEmq37GKzRvsrQVeVv8mMb5uNdqvCjt9UuX63mPZ/saWvz8P8A+r9Xx+60Np1ppOi3vomG5&#xA;1fzBLH691PDbyXU/EmnKkYb00rsAM56UxE3I3IvtmDDp9FEQiKodAmLeZrVWKvZagjqaMrWNyCCO&#xA;oPwY/mIOT/KGLvQWqLomsyW9pqNjd2VzcV/R95cW01q/NRy/cyuq7gb0rg8SEzXVqnkwaj0SF35O&#xA;0O/v4r2fRNVYPe2yiS3uen1i3JoHp/Mp2bN7oNWZ3Cf1D7Q+Pe1Xs/8AkcvFD+7l9h/Uf1plYazq&#xA;HkvXl816QrPDsuvaamy3VsDu/Hp6sW7K38OuP2poRIeJEbjn5s/ZntowmMGQ+iX0+R7vcfvfTel6&#xA;lZapp1rqVhKJ7K8iSe3mXo0cihlP3HObfQUTirsVdirsVdirsVdirsVdirsVdirsVdirz/8APDzR&#xA;c6H5FngsXKarrcqaXYMp+JWuAfUk8RwiDGvY0yeOBnIRHMtWfNHFjlOXKIJ+TwrUZjoGgwQ6fEru&#xA;jQ2tsshITlIwQM5G/epzrc+T8vhHCOVAPl3ZulPaWt4ZmuMkn9iE8vfpC7826hLqkSR3WmW8Vugj&#xA;JMZ9ZmcyJyFfiCj9WaXJnllyXIUYin1z2c7EjoDOAPFvd+/+z7WVaTrWueUvNP8AiTSbVdRguIFt&#xA;NV0wsI3kjRuSSQuRQSJU7HYjbMbPhMtw7bXaOUzxR5vRE/5yJ8nelWXS9aiuB1tTYsz8vAFWZDXt&#xA;8WYnBLudT+XyfzT8mB+bfN2s+e9Z0+5msH0fQNId57O0nZWurid0KCSYKSsaopNFB77+2Rhwm7Ls&#xA;dFopCQlLamI+eJJrK40bU7WIS3iXX1SOKvHmLmNhxJoduSjMvxTjnGY3I/S0e0fZo1en8M7GRAv7&#xA;f0IrQ9TvrubULHUYoVu7GRY5DAS0TLIgdact+hoc3Wh1RzCQkBce58g9o+xB2fljGMrBH2j5d71D&#xA;/nHvXHgj1jyVOxI0mQXmlVO/1K6JJQe0UtR/ss5vW4PCymPTp7nvOx9d+Z00Zn6uUveP18/i9izE&#xA;dm7FXYq7FXYq7FXYq7FXYq7FXYq7FXYq+f8A839X/TP5n22mxtytPLFpzlHb67fUND/qwKp+nNv2&#xA;Ph4spl/NH2n8F5b2s1fh6cYxzyH7Bv8AfTGNX0u31Swks5yyq9CsiGjo6mqsp8QRnQ58IywMT1eC&#xA;0OtnpsscsPqikWmRXuiea1/SV6b0a1CIhdMgjAng+wlFJUVQ/Sc5/PpTgmLPEJdfN9e9mPaMa7JP&#xA;iHDLba793d59O5mWB7h2KuxViXmuOXWNa0/R7OcwSWR/SFxcKA/pMg4wfCaAksSaeGOPAc0xAGq3&#xA;v7nlPantoaLHGQ3lxCh+PK/sTTRdHGmxTF5muru6kM11dOAC7nboPsqAKAZvdLpRhjV2TzL492x2&#xA;tk12bxJ7dwTDQ9X/AMO/mF5d14t6drNKdJ1JtgPQvNo2c/yxzBWzW9tYbiJjps7/ANj9XU54T/EO&#xA;Ie8c/s+59N5zr3rsVdirsVdirsVdirsVdirsVdirsVedeffzo0Dy88ulaPTXPM5BWPT7c8o4X6cr&#xA;qUfDGq91ry+Va5ZiwyyS4Yiy0anVY8EOPIeGP4+bxzS7O7hFzdX8/wBa1XUJ3u9RuaUDzSmrcR2V&#xA;eijOv0WlGHHw9er5V2x2kdZnM+URtEeX7f2I7Mt1SC1jSbbVbF7S4qoajRyrs8ci7q6nsQcp1GCO&#xA;WBjJzNBrsmlyjJjO4+0dySwebrnRbpdL8xozuFLW+pQIzrLGvVnRRyVh+1Suc5mjLDLhn8D3vt3Y&#xA;ftHj1mLi5Ec/L3/oPVNl85+VWTmNUt6HehcA/cd8j40e9341eKr4glOqefo5HistAt3vb27JS3nd&#xA;GS3BH2m5MBz49TTb3yIyGZEYCyXXdods4tPiOQ/SOv45lNNC0YabBI0shuNQum9W9um6vIfDwVei&#xA;jOj0mlGGNc5HmXw3tntfJrsxnL6eg7v296Z5lOpQmqadBqWnz2M/93OpUkdVPVWHup3yrNiGSBie&#xA;RcnR6qWDLHJHnE/gfF6F+Xf52W9vBbeXvPko0/VYQIbbWpNrO8VRRWaU7RS0HxBqDv3pnH6nSzwy&#xA;qQ+PR9Z7P7Sw6uHFjO/WPUfjvexKyuodCGVhVWG4IPQg5jOe3irsVdirsVdirsVdirsVSbzb5v0H&#xA;ypo0ura1cCC2j+FEX4pZZD9mOJOru3h9J2xQTW5eDeZfPfnnzqXSaaTy55deoTTLVqXc8Z73M43W&#xA;o6onyNc3ek7IMvVk2Hd1eQ7U9qo4yYYBxS/ndPh3+/l70s07S9P023FvYwJBEOoUbk+LE7k/PN9i&#xA;wwxioig8NqtXlzy4skjI/jl3IvLXHdirsVY75ykjto9Lv+QSe2vofSY91kPGRfkUzVdrAeGJdRJ6&#xA;/wBis84ayh9Jjv8AAj+z4skNlZluRgjLdeRRa1+7NXwh9v8ADjd0GOWTC986apLJQfoyGG1t46gk&#xA;CUGR3AHSuwzN7MiDklL+aAPm+Xf8ELVSuGP+Gz9lf8UyHN4+ZOxV2KqVzbW91A0FzEs0LijxuAyk&#xA;fI5GcBIURYbMWWeOQlAmMh1DtA1fzh5MkEnla9M+nKayeXr52ktWBNT6Dk8oW8KGnjmk1XY4O+P5&#xA;PY9me1kgRHUCx/OHP4jr8PkXuX5ffmVoXnWxlezD2mqWdF1LSZ9p7dz/AMTQ/suNj7HbNBOBiaIo&#xA;vc4ssckRKJuJ5FluRZuxV2KuxV2KuxVTuLiC2t5bidxHBCjSSyNsFRBVmPyAxV8w6r5gu/PXmJ/M&#xA;99yGmQM0flyxYnjFADT6wyH/AHbLStewp4DOh7J0QrxJc+n63g/ajtgmR0+M7D6z3/0f1/LoiM3r&#xA;xTsVdiqlcXNvbRNNcSpDEv2pJGCqPmTkZTERZNBnixTyS4YAyl3DdJn856O5KWAn1KXpwtInkFfA&#xA;tQJ+OYM+08I5EyPkHf6T2V12Y/Rwjz/ULP2ISbyvqnmB1vtYf6l6To1jYKfUEaq6s7SkEBndRx9s&#xA;1GpySzm5bDoH0/sH2Xho8W5/eS5lmOL2DFb/AMpX8Wq3mu6TdcdRmZWW3kFIXjVArRP8ytQe345C&#xA;BnjnxwO7oO2OwcethKM+u48l6+b7W3AXV7S50uUbOZo2eKv+TLGGUj3zb4+1MZ+q4l8n1vsfrcJP&#xA;COOPy+/9BKbWOpWF/F6tlcR3Efdo2DU+dOmZ+PLCYuJBec1Gly4TWSJifMInLGh2KuxVAXR1TTNS&#xA;tvMugv6Wuab8SAfZuYf92W0oH2lcdPA9M1vaOiGWNj6x9vk9D7P9sHS5OCR/dS5+R/nfr8n0j5Q8&#xA;0ad5p8t2GvaeT9Wvo+fBvtRuCVkjb/KRwVPyzk31BOMVdirsVdirsVYB+fGoT2f5V62sDFZr1YbF&#xA;WH8t3OkL1/55u2GIs0xnIRBJ6PC31yysHNlFa3EtvYtbWtxcxIDDA1x8MCSMWXdgtdgc62euxYpj&#xA;Fvew9z5bi7F1Opwy1Nxr1S3O5rnW33pzmwdE7FVskiRxtI54ogLMx7ACpOAkAWUxiZEAcyxrSdPt&#xA;dYX/ABFroV7eQ102zmIMMUNaK5U/Czv13zmMuU5pccuXQdwfdvZ3sHFo8AJAMzzPf+zuH6WT/WbC&#xA;3t439SOK3baMggL47UxsB6ewB5L5by1hKCWVEMn2ORAr8sbSZAOe6tkmWF5VWV/sISKn6MbUyF04&#xA;3VsJ/q/qr65FRHUcvuxteIXTlurWSZoFkRpV+3GCCR8xja8QOzHdX0KxuGl1DQWjt9btfiDQ0Cy0&#xA;6xTKuzBqUyIuJ4obSDqO0+ysGrxShID8fp80y0bU4tT0y3voxxWdKlf5WGzL/sWBGdJp8wyQEh1f&#xA;AtdpJafNLFLnE/2H4hG5c4jsVSq48wwQXU0TWty1vaywW93fqgNvDLcryhWRuXJeXjxpmDk7Qxwy&#xA;+Gbv7N3dYOwdRl0/jx4eHfa/Vtz6V9r1H/nHW7aOy8z6J/uvT9T+sQLv8Md7CsnEe3JWP05zWux8&#xA;GaQ8/v3fROxc5y6THI/za+W36Hr2Yjs3Yq7FXYq7FXmf/ORELt+Ws1wATFZX1lcz0BNI0nUMTSuw&#xA;5VyzFIRmCehDRqcZninEc5RI+YeQ/V/+QS6fe0/5SXzh9Yr3e1tkkVAPFQ1t+OZUJeJqge+f6XWZ&#xA;cfgdmmPIxw18eH9aYZ2D5Q7FWOatJNrmony/aMVs46NrNyp6IekCn+Z/2vAZpu0dTxHwo/536n0D&#xA;2M9njmmNRkHpH0/r/V8+gT+60q0uLFLKnpQRBREEoOIQUUCvttmv4dqfXTjBFJWF0q/ppI9VRZ14&#xA;y7b8dm8f1ZHY7NdRPp7ltdH1WLpLHFpydNvijA+k/s47FHpl8GzJpV8DqzLKn1OgaPb4qbr+Jx2O&#xA;63E+rub9TSz/ALnuMvINxMW32/s1+73x25rcfqaSXS7IDWYxK31ssBFtsSat+K47DdNxHq70w0jT&#xA;LK2U3NsXK3KhlDU2U7gZIBnjgBuEkmQ+WdWMlT+gdTl+Pwtbl+/tHJ+BzJ0eo8GVH6JfYf1Pn3tl&#xA;7OeLHx8Q9Y5+Y7v1fLuZJnQPkjsVUdH006nZfmZpCJ6jXWh21/Gg6mexaV4qbV5cgKZyna8az33g&#xA;Pp3srkMtGB/NlIfp/SzD/nGa5a/fzXqqAtbXcunqk1CFaSK1/eqPdCwrmLrMoyZDIdQPuDsuydMc&#xA;GnGM/wAJl8uOVfY9wzGdi7FXYq7FXYqsnghnheCeNZYZVKSROAysrChVlOxBxV5T/wA5CWkNt5R0&#xA;Ca3iSG30/W7QkRqFVIpI5YSAFGy1kXbMjSSrLE/0g4PakOLS5B/Ql9zz7O2fHEn8w6tPapFY6eok&#xA;1e+Pp2kZ6KP2pX/yUG+YOu1XhRofXLl+t33s/wBiy12cR/ycfq/V+OQXwx6b5T8vvJKxcpWSeXrJ&#xA;PO53+bM3TNFtAWf7S+7Y4Y9LhobRiEksZda03V7PWNWlYJrLG3urWv7u2Lb2yj5bqx8TluTTTxCM&#xA;5fxc/LueT7G9p46rWzx/w/wnv7/2eVlO9T1OC1u5IdOijk1IcWuUCEuEYVDbUqDTrlRkLoc3sJ5A&#xA;JUPqXXs91Zi3NnYryuRyuVCE7mnwkj54SaZSJHIc0FceYdPt79rG3iiFisy2125WkfqyUqhf7FQD&#xA;vkDkANNR1EQa6XSPMk36SGm/UU/R3+p8PTlyr9nrk+tNt+rhrZCnVoF1aPSL+2RIJnKWUXAkkrvU&#xA;UqKcdycBkLosDlAkInryQnmRb7V9ZTSNNuWtBpkX1qadNgJ2FLeM07U+IjwyzFpzmkYg1wi/j0eZ&#xA;9qO3hoRADc8XL7/kPvCZaTf2/mDS7ix1GELdxVt9Tsz+y1PtL/kt9pTkKu4yG45vQaHWY9ZhE4m4&#xA;yH4/HRBaHdXOnXzeXdRcySRLz026b/d8A2oT/OnQ5tOztUT+7lzHLzH7HyT2v9nzpchzYx+7lz8j&#xA;3+4/f7wyHNs8Syj8ioDN5981XQ3jtbKxtX8OUrSS0/4FfxzlO15XnI7gH072VxmOjB/nSkf0foe2&#xA;WdjZWUAgsreO2gBZhFCixpyY8mPFQBUk1Oax6NWxV2KuxV2KuxV2KsX/ADP8ry+aPIes6LB/vXPB&#xA;zs+3+kQMJod+1ZEAritA83znB5ltB5cTV7olCqcZoaUcTr8LRBevLntTOxhrY+CMp7vt7nyXL2Rk&#xA;GsOmiN72/q9/yb8uaZPF62u6uAupXa1ZSfht4BusQJ6U6t75pJTlORnLmfsHc+3dh9k49DgERz6n&#xA;9J/Hl0Qdly8x6ourTqRpFk5GlQt0lkGxuWH4JmZ2fpvEl4kvpH0/r/U8J7ae0XETpsR/rfq+PXy2&#xA;6lN9a0yPU9LuLFzx9ZCEf+VxujfQwBzbajCMsDE9XgdBqzp80co/hP2dR8kr0+yt/MulW15cNJaa&#xA;3YlreW6gbhNHNEeLg9aq32uJ7HOY4OIb7SGz9B6aUNVijkB3rmPx1URonmRo5YNS8wSRxS/DAiel&#xA;G7tSgHMKGA/1aZHgl1kz8HJylNE2ehrbaBNok3oD1gRb27kGoO7Hfcknv45MQAjTOOECBh9iFg0L&#xA;zFa2n1O11145qfDZyenKyx9uEjDmKZDgkNgWsYcgFRn8OaPsdKtdCs7jWtTme61GOJjcXczc2CLU&#xA;hI9qKPkNzkhERHEebZDGMQM5by7y7ypZzxac17dil/qTm7ua9Rz+wnyRKDN92dg4Mdn6pbl8J9pe&#xA;0jqtXI3cY7D9P2/ZSlr1ld2l1Hr+mIWvLZeN5bL/AMfFv1Zf9deqnKu0NKZfvIfUOfmHY+yfb50e&#xA;UY5n93I/I/qP2HfvRWoWln5l0WC7sJ+Ey0uNOux9qOQdj7fsuM1F8QEonfo+xavTY9XhMZC4yC3R&#xA;9fjutPmlvB9Wu7DkmpQt/ut0FS3+qwFVOb/S6yOTHxHYx+ryfBu1uxsuk1PhUTxH0+fl7/x1ex/8&#xA;4/aDPZ+TZtcu4zHeeZLl9Q4t9pbYgJbL8vTXmP8AWzks+U5JmXeX0/RaYYMMcY/hFfHr9r07KnJd&#xA;irsVdirsVdirsVdir5d85+XtFm/ODXWsUZdOsZIbi4ta/uW1SeMPLIq+ykFv8snMrTgnY/SPvc/s&#xA;7Rwll8UgcQFX+hJtbuJNd1F9AtWZbGCjaxcIaVruLdT4t+14DNhgwHNPh/hH1fqdb7We0A0mLggf&#xA;3kuX48vv270+iijiiSKJQkcYCoi7AACgAzo4xAFDk+JzmZEyJsldhYpJ5PZbm41nUoaC0u7uluR9&#xA;lhCgjaQf6zA5zE5ieSUhyJ+7q+9+yelnh0UIz51+37Lr4Jnq+lWt4EmuJGjS3DFuNN16n9WRkHoc&#xA;kAd0FINIvpP0r6zqlpxDrSm6mq9fGuR2O7A8J9Xcr2dlYXt6NXgkcmv2DsOQHH59MIF7soxEjxIf&#xA;z1DLL5cnKRmVIpIZpolFS0Ucqs4p32FcGTl5OL2pjnPTyEDUqTK1ube6to7i3cSQSqGjdehBzqYT&#xA;EgCORfnLLiljkYyFSHNVyTWxpnPljVjcDbQNSkH1he1tctsJPZJP2vA5oNdp/Clxj6Jc/I/tfVPY&#xA;v2i4h+Xyn1Dl5j9Y+7foVbzJoekyazpWp3xdNLmu7W115YmKerZvMoqxAP2TT3pmuzggEjrzez7V&#xA;0cJ8OQgGUT+y31vFFFDEkMSCOKNQkaKKKqqKAADoAMwXUrsVdirsVdirsVdirsVYF+bX5pW3kjTI&#xA;orWNLzzFqFRptixPEBdmnm47iNPvY7DuQQLNMoQMjQeD+pqptS1tdrqHmXzRqCoLkqFU3d2QhIVR&#xA;8KRqK07UzM/u4bc3dGtPh2NkvRtQ/wCcdLjS7KGXybrDRaiqL9fttR5SWt5MAOcpZavC7nrxqMhp&#xA;tZkwn0nbueS7R7KwawfvB6ukhz/HvYdqNh540Qldd8rX0ar9q7sFF9b0/mLQ1ZAf8oZusXbUD9QI&#xA;+14/U+x+aO+KcZDz2P6R9zFta8yWuqGLRbCd4HuiV1CZ0eJ7eBftji4U8mrxGDWdoxnHhxn6ufkH&#xA;L9nfZfL+ZEtRHhjDcbg2e/a+X30ySz1DQbO1itbaaOOCFQkaCuwGYAIAoPsEJwiKHJVbWdHZSrXC&#xA;FWFCD0IOHiCfFih4rny3DA9vHJGsMn21qTWviTvgsMRKFUqW2paFbRCKCeNIx0UEn9eIkEjJAclQ&#xA;61pBBBuUIPUYeIJ8WLFV1LTPLmsenDPy0PUSzLGgZvq9wN+KKoLcZOwA65fo9WMMqkf3Z+w/tfO/&#xA;a/2eGesuAfvO7lfz7unlY7mTaePNOs0Xy/5Z1K/5fZuJYvqdt/yOuOC/dmVl7Zxj6QZfZ+Pk8lpv&#xA;ZHUS/vJRgPmfs2+1mmhfkJrGrFZvPWoItjUMdB0xmVH7gXFyeLt7qgHsc0+p7QyZtjtHuD1vZ3YW&#xA;n0p4ojin/OP6O77/ADYHrnlr9E3uveRNUuXe1skR9PvXoHexmHKEk9C0TDgfEjI4ZcUTEvZaTJ4u&#xA;MwkeT1H8nfzhk125/wALeY5UPmGFGayvlHpx38KdWC/szKN3QdtxtXMWcDE06vNiMDT1vItTsVdi&#xA;rsVdirsVQOva3p+haNe6xqMgisrCF55378UFaDxZuijucVfHWr67qXmbXrzzLqu17ft+6hqSLe2H&#xA;91Avsq9fE1OZeKFC3baXDwxs8yzn8gvLE+ueeTrjg/ony2HCMd0kv50KBRXY+lExY+BK5VmlZpxd&#xA;Zls0Oj6aylw3Yq+MPMOvP5l82a15jduS39y62fgtpAfSgA+aLyNO5zKwx2t2mjhUb70HlzmOxV2K&#xA;uxV2KqF8s/1ZpLdzHdQFZraRTQrLEQ6MD7MMhkjYac8OKBD7M8pa9F5g8r6VrcdAuo2sVwVHRWdA&#xA;XT/YtUZhOlTbFXhn/OS3la4C6b5ztULx2SnT9XC7lbaV+cMp/wAmOUkH/WyeOVFv0+TglbxOT6yr&#xA;wXdjMbe/tJFuLG6T7SSxnkjA/PMqceIOzzYxONPrX8svPEHnTyhaawoEd6K2+p2y/wC6rqKgkXvs&#xA;ahl/ySMwnTEUaZVih2KuxV2KuxV4L/zkr5rM8+meSrWT4HpqOshf99xtS2ian80gLkH+VTk8cbLk&#xA;abHxS8nlOgaBrfmnW49A0CMPeuOVxcN/dWsPQyykdKfsr1JzIyZK2HNztRqBAUOb608leUNL8o+W&#xA;7PQtNBMNsv72ZvtzTNvJK/8AlO2/t06DMR1KeYqlPm66ktPKmtXUf95b2FzKn+skLMP1Yq+NdOsr&#xA;m30ixeSNljkgjdHpsQ6gjfM6AqId5ijUB7lXJNjsVdirsVdiqtb2lxcvwgjaRu4A6fM9sNJAJfQn&#xA;/OOV5M/5evpk20miajd2PHrReYuFFfCk+2a+Qo06LLHhkR3PUcDWoahp9lqNjcWF9CtxZ3UbQ3ED&#xA;iqvG44sp+YOKvkbz35C1fyDrJsbtWm8v3MhXRtVO4KmpW3mIA4yqP+C6jMjFk6F2Ol1H8JZD+RXm&#xA;s+X/AD8NKnfjpnmVRDQn4UvogTC3/PReSbdTxyOaNG2vWY6PF3vp/KXCdirsVSfzV5v8veVdKbU9&#xA;dvFtLUHjGDVpJHPSOJFqzsfAD8MVeJ67/wA5N6zcySQeW9EitUcH6vc6nLWYr/vz6tF0pXoZDlgx&#xA;kuRDTSPk810Dy95q86+apbK0me91zUD9Z1jWbgVSCInj6jU2oPsxxr8umWE8Aoc3InIYRQ+ovqny&#xA;D5A0HyTog0zSkLPIfUvb6WhnuJe7yMP+FXoPvzHcAm2S4odiqB16wOo6HqOngVN5bTW9OlfVjKeI&#xA;8fHFXzD5PkS58qaZzAYC3WJlYV3i+Agj245ssRuAen0p4sUfc6+8rWU1WtybeTwG6fd2+jJGDOWE&#xA;Hkx6+0a/s6mWPlGP92J8S/T4fTkCKceUCOaUtqNktz9WaUCaoBXegLdAT0qfDIcYumk5Yg8N7plZ&#xA;6be3jUgiLL0LnZR9JyYDdGJPJkFj5TgSj3b+q3X012X6T1OTEG6OHvTyGCGFBHEgjQdFUUGSpvAA&#xA;5My/ICcpq/nWwJ2jurK7Uf8AMTblSfvhpmuzj1l5vXCspex5U4jsVS/X9A0jX9IudI1e2S70+7Th&#xA;NC/3ggjdWU7qw3BxV8n/AJi/lrrPknUks7t5brQrqUfoXWlNJFkWrpDKVpxmQLVW6NSo7gXQnfpL&#xA;nYcomOCTK/L3/ORnnPSIbez1ywttcVPhF1HL9Vu5FHcoVeN3UdaUr+OCWIhhPSSB2e1+RPzM8qed&#xA;rV30e4ZLyAA3emXA9O6hrT7cdTVd/tKSvvlTikEc2VYofKH5u+Q/zVjhvvN3nDU9PmdJEtdOigkm&#xA;YL9YkCLHaxMiLGAKuWY8tu5yUS245Vy5vPbaSC3uL64mbk0RSBD1JARSFUdyWbMiJAsl2EJCJlI9&#xA;Nn1F+QnkC98teXJ9U1eIw65rzJPPA32oLdARBA1ejAMWb3NO2Y0pWbdbkmZSt6fgYOxV2KuxV8ua&#xA;baDTdV8w6KBxXTNWvIYl6fuXkMsRA91kzP0x9L0HZs7x13FMcyHYNSOiRs7miKCWPsBvgQTTL/yr&#xA;/LrRte/Jd7bVYAJfNLz6jcTAAyRSPIRbSRt2MSKrL9PYnNUTZt5OcyTbz7Rmv7V7nQdWX0tb0V/q&#xA;t9H/ADUH7uZdhVJUowObDBk4o+b0Oiz+JDzCZ5c5jsVZD+Sc3pfmR5itth9Z0yznp0J9KWSOvv8A&#xA;b65r9SPU8/2kKy/B7jlDr3Yq7FWKfmf5JTzn5NvdGVxFe/DcadOw2juoTyjJ60B+y3+STikGjb49&#xA;1pLqCG4hvoGtNW0mUfWrWTZ45I2+IfJl6HoRmSZ8Ub6h2Usonj4uoZH+XfkPz1r2pX2o+UdSt7XV&#xA;tDuEKSTSSQzrHcAuhDKkiSRtxdGRsqyc6cXOakQX1bw85/4N4c7L/F/1OnqfvPqX1vj9rpz4cvbK&#xA;3GeJf85X+ZLhrry55XsSXuGdtQmiReb8jW3tuKD7TEtLxHjhBZwNG06/JD8iotGit/Mnmm3D6xtL&#xA;p2nS/ELQnf1ZezXDdf8AI+fRJWU7e4YGDsVdirsVdir56/MGy/Rv5vaunSPWrG01FB25w1tZKe59&#xA;NScytKdyHbdlT3MUFma7pKfNt21r5a1GZDST0GjjPfnJ+7WnvybbK8pqJcfVS4ccj5PpXytpA0by&#xA;zpOkABf0fZwWpA6VhiVD+IzWPLvOfzx8l3DwxeeNGhL6po8ZTVLZOt1p4PJxTu8P219q9dhk8c+E&#xA;236fOcc7DAbS7t7u1iurdxJBMoeNx3BFc2YNiw9PGQkLHJVwsk3/ACncRfm+4JoLrQZkHerRXcTA&#xA;e1FdswdV9Q9zou1B6x7nveYzrHYq7FXYq82/Nz8m9M872jX9lwsvM0EZW3uyP3c6/wC+bkAVZD0D&#xA;dV/DCCyjKni/5A6nqnlb8338uazE9pNfW8mny2032knh/fxcj0YcVZUYbMGGJLKZt9Y4GtJ5/J/l&#xA;efzHF5kn0yCXXIYxDDfuvKREUkjjXYMOR+ICtNq4qnGKuxV2KuxV2KuxV41+ftibfWvKOvKAEM9x&#xA;pVy3iLmP1IRX2eFvvy3AamHM0M+HKPNiWbJ6RAXtn+k9a8t6Nw9RNR1e0SdP+KIn9aY/8DHmPqT6&#xA;XXdpTrHXeX1DmA6BxAIoemKvnDzj5WPkTzf9ThTj5X16R5tIIHwW10fimtKjYK324/u3ocytPkr0&#xA;l2vZ2po8B68lmZru0b+X9ylv+cOiBnVPrWn30A5EDkR6cgVa9T8NcwtVzDpe1RvEvoXMV1LsVdir&#xA;sVdiqS6n5L8q6prdjrl/pkE+r6awezvitJUK141ZSOQUkkBqgHcb4qnWKuxV2KuxV2KuxV2KuxV5&#xA;9+fGlNf/AJY6pPEnK60kxapb+xtJBI5/5Fc8INMoSogvK4JkngjmT7Eqh1+TCozag29ZGViwmH5f&#xA;2f6R/N7RkI5Jo9heaiw8Gl42qE/8jGp/ZmHqjuA6ftWe4D6FzFdS7FUh88eT9N83+WrvQ7/4FnXl&#xA;b3Kj44J03imTp8SN77io6HFINPneyvb2xS/07zDxtdV0KQ2+psxoh4jkkyk0+CVKMubHFluNno9F&#xA;pdUJ47POPNAQ3EHmmG4MavbQW0iPpOpISk/qpv8AWIh8LIFanE98G2QHuX06gEEenof0vcfyf/MS&#xA;58yWFxo2uFU806MFS+A+FbmE7R3cY8H/AG6dG8KgZgyiYmi6DLiMJGJeiZFrdirsVdirsVdirsVd&#xA;irsVdirsVdirsVYl+bepjTfyy8zXR2P6OnhQmn250MK9dvtSDFQ8K8vWdxZaHY2lw4eaCFI2YVA+&#xA;EUA38Btm0xgiIBeqwRMYAHnSd/lHqk9j+ct3a3cHC31jTjb6dcE7vJa8Z3Ub7Diz1+WYWoB4nTdp&#xA;Rl4lnl0fQ+UOudirsVeDfnJpP6I/Max1oKBYeZbX6lctSo+uWm8XLt8cLcR/q5fp5VKu92HZ2Xhn&#xA;R5SeaeYLl11hzCxjMKqispodhXtTxzLlzdpkPqWaX5z1Dy/5l0rzQD6j6Y/p3vEUaaxlPGaJqUBo&#xA;DyWvRhXKM4sW4OtjxRvqH2JBPDcQRzwuJIZVDxSLuGVhVSPmMxHUr8VdirsVdirsVdirsVdirsVd&#xA;irsVdirzr/nIFz/yq3UoO11cWMDGtKBr2EmviCBSmEMoCy8X1vXzZ3EcEFHdSGnB8P5fmc2cpPT5&#xA;MlGgiV1SKDWvKuvQPRLTV7X1W7iG4b0Jl9jxkynUi424faIEsYkOhfUmYLonYq7FWM/mN5Lg84+U&#xA;7vR3cQ3fwz6ddEVMN3F8UUg+n4W/yScUg0bfJ11NqJ1C7t9VgNrq1pIYL+2O3CVNjT/JalVI7Zmw&#xA;nxB3WHN4gvqoyxrJG8biquCrA77EUyZFthFin0z+QfmJtZ/LXT4Zm5XmjFtLue3+81BEd/GBozmA&#xA;RTopRo09EwMXYq7FXYq7FXYq7FXYq7FXYq7FXYq87/5yBhd/yq1aeMEtZyWd1QCu0V3EWr8lqcQy&#xA;iaL5qkleV2kduTOeTN4k5sHfWtnu7lLRbWGpM9za+kK0IkFxGVK++1Mryn0lo1Mv3ZD7bzDdM7FX&#xA;Yq7FXjv59fljJqtofN+hwltc06P/AE+2jG95aJuRTvLEN17kfD/LkoS4TbbhymEreBW9xFcQpNE3&#xA;KNxVTmaDYt3MZCQsPTP+cePMI0vz3e6HK3G38wW4mtwT/wAfdmCSBXb44WYn/VzGzRo263WQqV97&#xA;6Tylw3Yq7FXYq7FXYq7FXYq7FXYq7FXYqlXmvRI9d8satozgEahaTWwJ7NJGVVvoJrir4w0yR5LC&#xA;AyV9UKElB2IdPhYEeNRmbjNxDu8ErgCmugQLdebfLVowqtzrFij/AOqJ1dv+FQ5DP9LTrD6Pi+z8&#xA;xXVOxV2KuxV2Kvl/86vy7/whr/6b02Ijy1rUp9WNR8NnevuVp+zHN1Xwao2FMuxTo05mlz8Jo8mC&#xA;RandaNf2Ou2grdaRcx3kag05LG1ZENK7OnJTluWNxcvVQ4oe59p6df2uo6fa6haP6lpeRJcW8g/a&#xA;jlUOjfSpzEdQiMVdirsVdirsVdirsVdirsVdirsVdir4383aX+iPPXmbS+PBINRllhTpSK6pcRj/&#xA;AIGXbMrAdnaaKVxpG/lrbfWfzQ8qRbkreSS0HWkNtLIev+rgz8gx1x2D67zGda7FXYq7FXYql/mH&#xA;QNL8waLeaNqkInsL6MxTp3oejKezKd1PY4q+P/MPlvUvKvmG88s6qfUmtvjtLkigubR6iOYe+3Fv&#xA;BgcysU7FF2umzcY4Tze7/wDON3mX6/5Lm0Cd+V55dnNuoJqxtZqy27HYdiyf7HMeQo067LDhkQ9Z&#xA;yLW7FXYq7FXYq7FXYq7FXYq7FXYq7FXzH+f+nCy/NFboD4NW02GUn/iy3keJh/wHDL8B3c7RS3pL&#xA;/wAmITN+bug9CLeC+nNfE25iBH/Iw4c/RlrjyfVmY7r3Yq7FXYq7FXYq89/Of8uD5x8uCfT1C+Yt&#xA;J5T6VIaD1Nv3lsx/llAoPBqHxwg0bZQmYmw8O/JXzYNE/MXT5Zaw2etg6TqEUlVMdwWrByU9GEw9&#xA;Pf8Amy3LuBIOVqakBMPrPKXDdirsVdirsVdirsVdirsVdirsVdirw7/nJ7TP9G8s62oA9C7msJW2&#xA;qVuovUUHvs1vt8/fJ4zUg36aVTDFPyBgE35qI9ATb6Vdy1Pas0Ee3v8AHlmfm3647h9OZQ4LsVdi&#xA;rsVdirsVdir5p/5yL/Lw6Rqo82aUDDY6vKseoiOoMGoV5Q3K8enqFaN/lb/tZOJ6d7dilzieRe0/&#xA;ld57tfOnlK11JWC6jCBb6tbbBorpABIKD9lvtL7HINRFFluKHYq7FXYq7FXYq7FXYq7FXYq7FXnH&#xA;/OQmmi8/KvVJgvKTTpLe+j9vRnTmf+RbNiDTKJo280/5xxX1PzG1OYDkkWjhQ3gZblDT/ZemPuy7&#xA;PzcrWn1D3PpLKXDdirsVdirsVdirsVY3+Y/lgeaPI+s6GBWa6tm+q12pcR/vIDX2lRcVD5X/AC88&#xA;96h5P1i38x2qNJZXCrFr2nr/ALtiU0ZgDT97Calfu6HL5x4hxBz82PjgJjn1fYemalY6pp1tqNhM&#xA;txZXcazW8ybqyOKqRlDgInFXYq7FXYq7FXYq7FXYq7FXYqk/nLTBqvlHW9MIr9dsLmAbV3khZQd/&#xA;AnFXgn/OLLvN5n1idyOTaVachXckyMagfRk5m69zfnN17n0nkGh2KuxV2KuxV2KuxV2Kvkb8zvLZ&#xA;8tfmNq+nBOFjqLfpTTv5THcE+si+HCYMKeFMyMEujsdFk2MWe/8AONXme7hvtS8lzEyWUUJ1PS/C&#xA;FDKsc8P+qZJFdR7tleSNFxtTj4JbPfMrcd2KuxV2KuxV2KuxV2KuxV2Kpd5lvPqXlzVbz/lms7ib&#xA;x/u4mbt8sVfMP/OOuqHTPzB0mF/hj1nTZbJj29SNRcx/TSNgPnlk40A5WeFRifJ9X5W4rsVdirsV&#xA;dirsVdirsVYj+Yn5ZaB55sreLUHltL2yZmsdQtiBLHzA5r8QZWRqDkpHbthBplGRBsJf+WX5Q6b5&#xA;Gnvb36/LquqXqLC93MiRBIUJYRoiVpUmrEneg6YmRPNM8hkbLPsDB2KuxV2KuxV2KuxV2KuxV2Ks&#xA;S/Nu5+r/AJYeaZKgctMuo6n/AItiaP8A42xUPlXRdRXR9c8v6sCQunahaSuR1MXqKkg+lGIzJyD0&#xA;Oz1EP3Q8qfa+YzrHYq7FXYq7FXYq7FXYq7FXYq7FXYq7FXYq7FXYq7FXYq7FXYqx78w/L9z5h8j6&#xA;5otrT63fWcsVsGPFTLxrGCewLgb4q+Q7PQdc1/U18o2lhMmuSuLe6tZUZfqoUgSSzEj4UQb179sy&#xA;J5AY07DLqInHXV9u5juvdirsVdirsVdirsVdirsVdirsVdir/9k=</xmpGImg:image>
               </rdf:li>
            </rdf:Alt>
         </xmp:Thumbnails>
      </rdf:Description>
      <rdf:Description rdf:about=""
            xmlns:xmpMM="http://ns.adobe.com/xap/1.0/mm/"
            xmlns:stRef="http://ns.adobe.com/xap/1.0/sType/ResourceRef#"
            xmlns:stEvt="http://ns.adobe.com/xap/1.0/sType/ResourceEvent#">
         <xmpMM:InstanceID>xmp.iid:62221B6208206811822A9DD448A483FF</xmpMM:InstanceID>
         <xmpMM:DocumentID>xmp.did:62221B6208206811822A9DD448A483FF</xmpMM:DocumentID>
         <xmpMM:OriginalDocumentID>uuid:5D20892493BFDB11914A8590D31508C8</xmpMM:OriginalDocumentID>
         <xmpMM:RenditionClass>proof:pdf</xmpMM:RenditionClass>
         <xmpMM:DerivedFrom rdf:parseType="Resource">
            <stRef:instanceID>uuid:ba5dc92b-6d0a-484a-ab90-b9370a4a0965</stRef:instanceID>
            <stRef:documentID>xmp.did:0980117407206811822A897E387FE54C</stRef:documentID>
            <stRef:originalDocumentID>uuid:5D20892493BFDB11914A8590D31508C8</stRef:originalDocumentID>
            <stRef:renditionClass>proof:pdf</stRef:renditionClass>
         </xmpMM:DerivedFrom>
         <xmpMM:History>
            <rdf:Seq>
               <rdf:li rdf:parseType="Resource">
                  <stEvt:action>saved</stEvt:action>
                  <stEvt:instanceID>xmp.iid:62221B6208206811822A9DD448A483FF</stEvt:instanceID>
                  <stEvt:when>2018-09-05T11:39:22-03:00</stEvt:when>
                  <stEvt:softwareAgent>Adobe Illustrator CS6 (Macintosh)</stEvt:softwareAgent>
                  <stEvt:changed>/</stEvt:changed>
               </rdf:li>
            </rdf:Seq>
         </xmpMM:History>
      </rdf:Description>
      <rdf:Description rdf:about=""
            xmlns:illustrator="http://ns.adobe.com/illustrator/1.0/">
         <illustrator:StartupProfile>Print</illustrator:StartupProfile>
      </rdf:Description>
      <rdf:Description rdf:about=""
            xmlns:xmpTPg="http://ns.adobe.com/xap/1.0/t/pg/"
            xmlns:stDim="http://ns.adobe.com/xap/1.0/sType/Dimensions#"
            xmlns:xmpG="http://ns.adobe.com/xap/1.0/g/">
         <xmpTPg:HasVisibleOverprint>False</xmpTPg:HasVisibleOverprint>
         <xmpTPg:HasVisibleTransparency>False</xmpTPg:HasVisibleTransparency>
         <xmpTPg:NPages>1</xmpTPg:NPages>
         <xmpTPg:MaxPageSize rdf:parseType="Resource">
            <stDim:w>21.000131</stDim:w>
            <stDim:h>29.700013</stDim:h>
            <stDim:unit>Centimeters</stDim:unit>
         </xmpTPg:MaxPageSize>
         <xmpTPg:PlateNames>
            <rdf:Seq>
               <rdf:li>Cyan</rdf:li>
               <rdf:li>Magenta</rdf:li>
               <rdf:li>Yellow</rdf:li>
               <rdf:li>Black</rdf:li>
            </rdf:Seq>
         </xmpTPg:PlateNames>
         <xmpTPg:SwatchGroups>
            <rdf:Seq>
               <rdf:li rdf:parseType="Resource">
                  <xmpG:groupName>Default Swatch Group</xmpG:groupName>
                  <xmpG:groupType>0</xmpG:groupType>
               </rdf:li>
            </rdf:Seq>
         </xmpTPg:SwatchGroups>
      </rdf:Description>
      <rdf:Description rdf:about=""
            xmlns:pdf="http://ns.adobe.com/pdf/1.3/">
         <pdf:Producer>Adobe PDF library 10.01</pdf:Producer>
      </rdf:Description>
   </rdf:RDF>
</x:xmpmeta>
                                                                                                    
                                                                                                    
                                                                                                    
                                                                                                    
                                                                                                    
                                                                                                    
                                                                                                    
                                                                                                    
                                                                                                    
                                                                                                    
                                                                                                    
                                                                                                    
                                                                                                    
                                                                                                    
                                                                                                    
                                                                                                    
                                                                                                    
                                                                                                    
                                                                                                    
                                                                                                    
                           
<?xpacket end="w"?>
	</metadata>
<g>
	<path fill="none" d="M16.656-112.021c-0.233,0.281-0.473,0.557-0.721,0.825l0.559-0.46L16.656-112.021z"/>
	<path fill="none" d="M-58.082-44.971c-0.372-0.509-0.842-1.169-1.372-1.95c0.415,0.673,0.864,1.338,1.345,1.996
		C-58.1-44.94-58.092-44.956-58.082-44.971z"/>
	<path fill="#01BCE7" d="M-57.534-45.79c3.102-4.343,20.941-28.006,22.5-30.073c0.263-0.992,1.622-5.542,5.033-8.332
		c2.646-2.165,6.075-2.922,9.391-3.653c2.824-0.623,5.492-1.211,7.095-2.626c3.435-3.031,4.833-4.6,5.292-8.166
		c-0.81-5.24-3.198-8.208-4.712-9.595c-4.01-2.849-6.97-7.001-8.205-11.808c-0.362,0.369-0.799,0.635-1.301,0.769
		c-0.231,0.062-0.469,0.092-0.709,0.092c-1.824,0-3.561-1.733-4.223-4.215c-0.758-2.847,0.219-5.496,2.224-6.031
		c0.23-0.062,0.469-0.093,0.709-0.093c1.052,0,2.067,0.589,2.872,1.553c1.291-8.996,8.521-16.174,17.727-17.701
		c0.294-2.362,1.791-4.114,3.659-4.114s3.365,1.752,3.659,4.114c9.235,1.532,16.482,8.752,17.738,17.79
		c0.814-1.015,1.86-1.636,2.942-1.636c0.24,0,0.479,0.031,0.709,0.093c1.013,0.27,1.818,1.12,2.209,2.333
		c0.353,1.095,0.357,2.408,0.013,3.697c-0.661,2.481-2.397,4.215-4.221,4.215c-0.24,0-0.479-0.031-0.709-0.093
		c-0.52-0.139-0.982-0.435-1.365-0.85c-0.76,3.006-2.193,5.757-4.137,8.098l-0.162,0.365l-0.559,0.46
		c-0.401,0.436-0.823,0.854-1.26,1.255c-0.021,0.252-0.137,0.493-0.358,0.651c-0.269,0.194-5.238,3.917-6.143,12.468
		c0.714,2.241,2.231,3.604,4.911,5.963l0.436,0.384c1.603,1.414,4.271,2.002,7.094,2.625c3.316,0.732,6.744,1.488,9.391,3.653
		c3.411,2.79,4.77,7.339,5.033,8.332c1.561,2.069,19.398,25.73,22.5,30.072c0.204,0.285,0.393,0.574,0.575,0.863
		c7.702-10.548,6.775-23.448,5.986-28.599c-0.456-2.965-0.666-4.97,0.5-5.927c1.008-0.829,2.456-0.302,2.931-0.13
		c2.367,0.861,3.028,4.813,3.612,8.301c0.236,1.409,0.559,3.338,0.881,3.688c0.042,0.032,0.071,0.04,0.071,0.04
		c0.229-0.051,0.739-0.807,1.024-1.536c0.107-1.179,0.931-11.524-2.442-17.689c-4.96-9.065-12.153-12.771-18.5-16.041
		c-3.829-1.973-7.446-3.836-9.854-6.63c-1.957-2.271-3.237-6.074-4.718-10.479c-4.119-12.244-9.759-29.013-34.963-30.64
		l-5.336,0.002c-25.146,1.625-30.788,18.394-34.907,30.638c-1.481,4.404-2.761,8.208-4.718,10.479
		c-2.409,2.793-6.024,4.656-9.853,6.628c-6.347,3.27-13.54,6.975-18.5,16.042c-3.372,6.163-2.549,16.504-2.442,17.688
		c0.306,0.778,0.811,1.478,1.04,1.535c0.001-0.004,0.028-0.017,0.071-0.051c0.307-0.337,0.63-2.266,0.866-3.674
		c0.583-3.488,1.245-7.441,3.613-8.302c0.475-0.172,1.92-0.698,2.929,0.13c1.168,0.958,0.97,2.872,0.503,5.91
		c-0.745,4.844-1.608,16.486,4.641,26.622c0.53,0.781,1,1.441,1.372,1.95C-57.909-45.246-57.728-45.519-57.534-45.79z"/>
	<path fill="#01BCE7" d="M-29.841-30.246c1.416-2.527,2.895-4.627,4.109-6.345c1.123-1.587,2.009-2.841,2.427-3.816
		c1.712-3.996,0.906-5.742,0.898-5.759l-7.879-17.371l-19.839,26.216c5.113,3.714,11.014,5.769,20.152,7.029
		C-29.925-30.286-29.886-30.26-29.841-30.246z"/>
	<path fill="#01BCE7" d="M22.43-46.21c-0.007,0.015-0.02,0.024-0.027,0.038c-0.436,1.511-0.789,4.185,1.085,6.472
		c0.48,0.586,0.993,1.134,1.535,1.715c1.62,1.732,3.458,3.702,5.348,7.629c7.885-1.135,14.517-3.482,19.753-6.97L30.289-63.538
		L22.43-46.21z"/>
	<path fill="#C07CB5" d="M-33.12-8.395c0.718,11.926,10.307,50.719,10.403,51.11c0.118,0.475-0.172,0.955-0.647,1.073
		c-0.071,0.018-0.143,0.026-0.213,0.026c-0.242,0-0.463-0.109-0.627-0.278c-0.654,4.014-1.529,10.982-1.079,17.553l7.627-10.868
		l9.774,12.27c0.072-7.013-1.787-14.146-2.961-17.932l-0.132,0.703c-0.081,0.425-0.452,0.722-0.87,0.722
		c-0.055,0-0.11-0.005-0.165-0.016c-0.481-0.091-0.797-0.554-0.707-1.035l7.317-38.788c0.056-0.41,0.422-2.816,1.363-4.953
		l-29.122-13.238C-33.195-10.866-33.196-9.66-33.12-8.395z"/>
	<polygon fill="#C07CB5" points="98.319,4.653 98.297,4.636 98.302,4.653 	"/>
	<path fill="#C07CB5" d="M-19.423,98.92c-0.652-3.389-1.333-6.847-2.009-10.199C-20.774,92.074-20.091,95.538-19.423,98.92z"/>
	<path fill="#C07CB5" d="M6.171,5.381l20.897,31.292c0,0.001,0,0.002,0.001,0.003c0.034,0.051,0.048,0.114,0.071,0.173
		c0.02,0.052,0.051,0.101,0.061,0.154c0,0.001,0.001,0.002,0.001,0.003c0.016,0.089,1.501,7.962,6.765,15.84l2.015-15.572
		l12.205,5.376c-4.127-8.012-10.53-13.944-10.609-14.017c-0.002-0.002-0.003-0.005-0.005-0.007
		c-0.083-0.078-0.153-0.171-0.202-0.276c-0.028-0.061-0.033-0.126-0.046-0.191c-0.01-0.048-0.032-0.091-0.034-0.141
		c-0.012-0.293-1.173-27.2-3.42-40.49L3.836,1.182C5.003,2.861,5.859,4.678,6.171,5.381z M31.791,36.846
		c0.109-0.004,2.149-0.123,3.718-3.26c0.219-0.438,0.753-0.613,1.188-0.396c0.438,0.219,0.615,0.751,0.396,1.188
		c-2.096,4.192-5.161,4.24-5.291,4.24c-0.489,0-0.886-0.396-0.886-0.886C30.918,37.247,31.308,36.853,31.791,36.846z"/>
	<path fill="#C07CB5" d="M-1.927,0.933c-0.452,0.774-0.826,1.765-1.114,2.743C-2.696,2.708-2.313,1.735-1.927,0.933z"/>
	<path fill="#C07CB5" d="M22.615-120.98c0.889,0.242,2.229-0.869,2.762-2.867c0.254-0.951,0.258-1.934,0.012-2.697
		c-0.119-0.37-0.404-1.012-0.979-1.165c-0.082-0.022-0.167-0.033-0.253-0.033c-0.853,0-2.025,1.084-2.51,2.9
		c-0.253,0.951-0.258,1.934-0.012,2.696C21.754-121.776,22.04-121.133,22.615-120.98z"/>
	<path fill="#C07CB5" d="M-24.44-127.748c-0.086,0-0.171,0.011-0.253,0.033c-0.882,0.235-1.497,1.879-0.969,3.863
		c0.533,1.998,1.872,3.101,2.764,2.867c0.882-0.235,1.497-1.879,0.969-3.863C-22.413-126.663-23.586-127.748-24.44-127.748z"/>
	<path fill="#C07CB5" d="M-3.019-143.934c-0.05,0-0.093-0.021-0.141-0.028c-9.521,1.393-16.848,9.316-16.848,18.881
		c0,5.76,2.666,10.92,6.856,14.429c0.264,0.167,0.733,0.491,1.314,1.005c3.276,2.308,7.297,3.687,11.655,3.687
		c10.932,0,19.825-8.578,19.825-19.121c0-9.565-7.328-17.489-16.848-18.881c-0.048,0.008-0.091,0.028-0.141,0.028
		c-0.147,0-0.281-0.045-0.403-0.109c-0.799-0.095-1.608-0.159-2.433-0.159s-1.634,0.064-2.433,0.159
		C-2.738-143.979-2.871-143.934-3.019-143.934z M0.348-135.702c1.55,0,3.003-0.125,4.286-0.235c1.031-0.089,2.005-0.172,2.843-0.172
		c1.104,0,4.037,0,4.037,3.42c0,4.398-5.247,7.976-11.697,7.976c-6.451,0-11.698-3.578-11.698-7.976c0-3.42,3.346-3.42,4.605-3.42
		c0.98,0,2.093,0.088,3.271,0.182C-2.605-135.816-1.158-135.702,0.348-135.702z"/>
	<path fill="#C07CB5" d="M65.541-29.218c-1.808-2.193-3.737-4.075-5.718-5.313c-0.248-0.155-0.403-0.423-0.416-0.714
		c-0.002-0.052-0.254-5.234-3.311-9.515c-3.215-4.5-22.387-29.921-22.58-30.178c-0.074-0.098-0.127-0.21-0.155-0.329
		c-0.011-0.048-1.186-4.864-4.478-7.556c-2.319-1.897-5.538-2.607-8.65-3.294c-3.054-0.674-5.939-1.311-7.885-3.028l-0.435-0.383
		c-1.603-1.411-2.902-2.561-3.881-3.83c0.019,0.695,0.06,1.412,0.134,2.159c0.049,0.487-0.307,0.921-0.793,0.969
		c-0.03,0.003-0.06,0.004-0.089,0.004c-0.45,0-0.835-0.341-0.88-0.798c-0.204-2.047-0.182-3.896-0.027-5.597
		c-0.173-0.615-0.303-1.281-0.382-2.026c-0.051-0.486,0.301-0.922,0.788-0.974c0.011-0.001,0.021,0.004,0.033,0.003
		c0.613-2.854,1.645-5.099,2.711-6.811c-2.921,1.429-6.219,2.24-9.71,2.24c-3.078,0-6.005-0.63-8.657-1.758
		c0.987,1.685,1.875,3.868,2.34,6.651c0.068,0.142,0.112,0.297,0.094,0.465c-0.003,0.033-0.009,0.063-0.012,0.097
		c0.315,2.206,0.371,4.764,0.012,7.729c-0.055,0.45-0.437,0.779-0.878,0.779c-0.036,0-0.071-0.002-0.107-0.006
		c-0.486-0.059-0.832-0.5-0.773-0.986c0.112-0.925,0.174-1.799,0.205-2.641c-0.96,1.566-2.376,2.941-4.384,4.713
		c-1.947,1.717-4.832,2.354-7.885,3.027c-3.113,0.687-6.332,1.397-8.65,3.294c-3.304,2.703-4.467,7.507-4.478,7.555
		c-0.028,0.12-0.081,0.232-0.155,0.33c-0.193,0.256-19.365,25.677-22.58,30.178c-3.068,4.297-3.31,9.461-3.312,9.513
		c-0.012,0.292-0.167,0.561-0.416,0.715c-1.218,0.761-2.417,1.765-3.58,2.935l5.943,4.463c1.038-3.556,2.167-6.205,2.218-6.324
		c0.028-0.066,0.064-0.128,0.107-0.186l24.331-32.152c0.188-0.25,0.493-0.382,0.805-0.346c0.311,0.035,0.58,0.23,0.708,0.515
		l8.473,18.684c0.101,0.175,1.205,2.41-0.861,7.232c-0.492,1.147-1.426,2.469-2.609,4.142c-1.042,1.475-2.288,3.247-3.512,5.333
		h25.816h3.738h26.677c0,0,0.025,0.035,0.044,0.06c-1.684-3.318-3.308-5.058-4.749-6.6c-0.563-0.602-1.094-1.171-1.611-1.802
		c-3.471-4.234-0.965-9.367-0.857-9.583c0.059-0.117,0.143-0.212,0.24-0.29l7.79-17.175c0.129-0.285,0.398-0.48,0.708-0.515
		c0.307-0.036,0.616,0.096,0.805,0.346l24.331,32.153c0.043,0.058,0.08,0.12,0.108,0.186c0.049,0.115,1.121,2.633,2.135,6.047
		l5.776-4.338L65.541-29.218z M17.296-77.691c1.489,0,2.696,1.208,2.696,2.697c0,1.489-1.207,2.696-2.696,2.696
		c-1.488,0-2.695-1.206-2.695-2.696C14.6-76.484,15.807-77.691,17.296-77.691z M13.037-70.464c1.489,0,2.696,1.207,2.696,2.696
		c0,1.489-1.207,2.696-2.696,2.696s-2.696-1.207-2.696-2.696C10.341-69.257,11.548-70.464,13.037-70.464z M11.473-60.434
		c0,1.489-1.207,2.696-2.697,2.696c-1.488,0-2.695-1.207-2.695-2.696c0-1.489,1.207-2.696,2.695-2.696
		C10.266-63.13,11.473-61.923,11.473-60.434z M8.776-77.691c1.49,0.001,2.697,1.208,2.697,2.697c0,1.489-1.207,2.696-2.697,2.696
		c-1.488,0-2.695-1.207-2.695-2.696C6.081-76.483,7.288-77.691,8.776-77.691z M7.212-67.768c0,1.489-1.207,2.696-2.695,2.696
		c-1.489,0-2.697-1.207-2.697-2.696c0-1.489,1.208-2.696,2.697-2.696C6.005-70.464,7.212-69.257,7.212-67.768z M0.256-77.691
		c1.489,0,2.696,1.208,2.696,2.697c0,1.489-1.207,2.696-2.696,2.696c-1.488,0-2.696-1.207-2.696-2.696
		C-2.441-76.483-1.233-77.691,0.256-77.691z M-1.307-67.768c0,1.489-1.207,2.696-2.697,2.696c-1.489,0-2.696-1.207-2.696-2.696
		c0-1.489,1.207-2.696,2.696-2.696C-2.514-70.464-1.307-69.257-1.307-67.768z M-5.568-60.434c0,1.489-1.207,2.696-2.696,2.696
		c-1.49,0-2.697-1.207-2.697-2.696c0-1.489,1.207-2.696,2.697-2.696C-6.775-63.13-5.568-61.923-5.568-60.434z M-8.264-77.691
		c1.489,0.001,2.696,1.208,2.696,2.697c0,1.489-1.207,2.696-2.696,2.696c-1.49,0-2.697-1.207-2.697-2.696
		C-10.961-76.483-9.754-77.691-8.264-77.691z M-9.828-67.768c0,1.489-1.207,2.696-2.696,2.696s-2.696-1.207-2.696-2.696
		c0-1.489,1.208-2.696,2.696-2.696C-11.035-70.464-9.828-69.257-9.828-67.768z M-14.088-60.434c0,1.489-1.208,2.696-2.696,2.696
		c-1.489,0-2.696-1.207-2.696-2.696c0-1.489,1.207-2.696,2.696-2.696S-14.088-61.923-14.088-60.434z M-16.784-77.691
		c1.489,0,2.696,1.208,2.696,2.697c0,1.489-1.207,2.696-2.696,2.696c-1.488,0-2.696-1.207-2.696-2.696
		C-19.481-76.483-18.273-77.691-16.784-77.691z M-28.001-74.994c0-1.489,1.207-2.697,2.697-2.697
		c1.489,0.001,2.696,1.208,2.696,2.697c0,1.489-1.207,2.696-2.696,2.696C-26.794-72.298-28.001-73.505-28.001-74.994z
		 M-23.741-67.768c0-1.489,1.207-2.696,2.696-2.696c1.49,0,2.697,1.207,2.697,2.696c0,1.489-1.207,2.696-2.697,2.696
		C-22.534-65.072-23.741-66.279-23.741-67.768z M-10.961-45.982c0-1.489,1.207-2.697,2.697-2.697c1.489,0,2.696,1.208,2.696,2.697
		c0,1.49-1.207,2.697-2.696,2.697C-9.754-43.285-10.961-44.492-10.961-45.982z M-4.004-35.736c-1.489,0-2.696-1.207-2.696-2.697
		c0-1.489,1.207-2.696,2.696-2.696s2.697,1.208,2.697,2.696C-1.307-36.943-2.515-35.736-4.004-35.736z M0.256-43.285
		c-1.488,0-2.695-1.207-2.695-2.697c0-1.489,1.207-2.697,2.695-2.697c1.489,0.001,2.697,1.208,2.697,2.697
		C2.953-44.492,1.745-43.285,0.256-43.285z M4.516-35.736c-1.49,0-2.697-1.207-2.697-2.697c0-1.489,1.207-2.696,2.697-2.696
		c1.488,0,2.695,1.208,2.695,2.696C7.212-36.943,6.005-35.736,4.516-35.736z M8.776-43.285c-1.488,0-2.695-1.207-2.695-2.697
		c0-1.489,1.207-2.697,2.695-2.697c1.49,0.001,2.697,1.208,2.697,2.697C11.473-44.492,10.266-43.285,8.776-43.285z M21.245-58.455
		c-1.314,2.216-3.299,3.913-5.6,4.919c0.052,0.209,0.088,0.425,0.088,0.65c0,1.49-1.207,2.697-2.696,2.697
		c-1.368,0-2.485-1.022-2.661-2.342c-1.096-0.039-2.162-0.226-3.184-0.543c0.004,0.063,0.019,0.124,0.019,0.188
		c0,1.49-1.207,2.697-2.695,2.697c-1.489,0-2.697-1.207-2.697-2.697c0-1.003,0.554-1.868,1.367-2.332
		c-0.903-0.731-1.712-1.589-2.389-2.576c-0.175,0.036-0.356,0.055-0.542,0.055c-0.611,0-1.168-0.211-1.62-0.554
		C-2.005-57.251-2.8-56.339-3.7-55.55c1.345,0.152,2.393,1.28,2.393,2.666c0,1.49-1.207,2.697-2.697,2.697
		c-1.489,0-2.696-1.207-2.696-2.697c0-0.276,0.054-0.538,0.131-0.789c-1.037,0.486-2.137,0.834-3.281,1.013
		c-0.116,1.383-1.261,2.473-2.674,2.473c-1.489,0-2.696-1.207-2.696-2.697c0-0.053,0.013-0.103,0.016-0.156
		c-2.693-0.812-5.059-2.53-6.648-4.957c-0.268-0.409-0.153-0.958,0.256-1.227c0.411-0.267,0.959-0.154,1.227,0.256
		c1.391,2.125,3.477,3.618,5.848,4.289c0.494-0.55,1.202-0.902,1.999-0.902c0.937,0,1.761,0.479,2.244,1.204
		c3.093-0.432,5.887-2.256,7.504-4.981c0.105-0.177,0.267-0.291,0.445-0.36c-0.063-0.229-0.108-0.466-0.108-0.716
		c0-1.489,1.207-2.696,2.695-2.696c1.489,0,2.697,1.207,2.697,2.696c0,0.658-0.245,1.252-0.637,1.721
		c1.932,2.761,5.047,4.414,8.423,4.435c0.473-0.778,1.32-1.302,2.297-1.302c0.61,0,1.167,0.21,1.618,0.552
		c1.745-0.703,3.282-1.876,4.43-3.401c-0.477,0.426-1.099,0.693-1.789,0.693c-1.488,0-2.695-1.207-2.695-2.696
		c0-1.489,1.207-2.696,2.695-2.696c1.489,0,2.696,1.207,2.696,2.696c0,0.351-0.072,0.684-0.193,0.991
		c0.27-0.343,0.75-0.456,1.136-0.225C21.356-59.418,21.495-58.875,21.245-58.455z M21.557-65.072c-1.49,0-2.697-1.207-2.697-2.696
		c0-1.489,1.207-2.696,2.697-2.696c1.487,0,2.694,1.207,2.694,2.696C24.252-66.279,23.045-65.072,21.557-65.072z M25.817-72.298
		c-1.489,0-2.696-1.207-2.696-2.696c0-1.489,1.207-2.697,2.696-2.697c1.49,0.001,2.697,1.208,2.697,2.697
		C28.514-73.505,27.307-72.298,25.817-72.298z"/>
	<path fill="#C07CB5" d="M1.641-145.894c-0.277-1.218-0.997-2.117-1.824-2.117s-1.547,0.899-1.824,2.117
		c0.602-0.049,1.209-0.08,1.824-0.08S1.039-145.943,1.641-145.894z"/>
	<path fill="#7A4C74" d="M-76.408-10.199c-1.2,3.124-5.615,7.086-8.865,7.086c-2.097,0-6.159,2.402-7.547,3.328l-5.5,4.439
		c0.391,0.034,0.895,0.004,1.516-0.166c1.702-0.463,3.416-1.161,4.201-1.496l0.394-1.369c0.136-0.47,0.625-0.743,1.097-0.606
		c0.47,0.135,0.742,0.626,0.606,1.096l-0.41,1.426c0.015,0.205-0.047,0.4-0.163,0.566l-2.919,10.146l4.54-5.074
		c-0.737-7.064,2.819-10.044,2.974-10.169c0.378-0.308,0.937-0.251,1.246,0.129c0.307,0.378,0.251,0.933-0.125,1.243
		c-0.136,0.114-3.079,2.674-2.292,8.982c0.032,0.254-0.048,0.51-0.219,0.701l-7.386,8.255c-0.025,0.028-0.058,0.048-0.086,0.073
		c-0.024,0.021-0.046,0.043-0.073,0.062c-0.011,0.007-0.02,0.019-0.031,0.026c-0.392,0.249-0.906,0.783-0.796,0.967
		c0.074,0.123,0.12,0.155,0.121,0.155c0.174-0.026,0.849-0.567,1.173-0.827c0.86-0.687,6.355-6.145,8.4-8.19
		c0.035-0.035,0.073-0.067,0.113-0.096c0.064-0.046,6.483-4.688,8.121-11.859c0.039-0.167,0.125-0.32,0.248-0.439l13.635-13.201
		c0.521-0.702,5.783-7.844,6.765-11.382c0.069-0.25,0.14-0.497,0.211-0.739l-5.943-4.463C-69.653-25.307-74.861-14.22-76.408-10.199
		z"/>
	<path fill="#7A4C74" d="M85.071,11.673l0.516,0.585l0.663,0.524c-0.446-0.444-0.771-0.769-0.898-0.896
		C85.293,11.843,85.191,11.766,85.071,11.673z"/>
	<path fill="#7A4C74" d="M91.113,1.017c0.472-0.135,0.961,0.137,1.097,0.606l0.394,1.37c0.787,0.336,2.504,1.033,4.2,1.496
		c0.614,0.167,1.108,0.196,1.498,0.165l-0.004-0.017l-5.54-4.47c-1.324-0.878-5.388-3.28-7.482-3.28
		c-3.249,0-7.664-3.962-8.864-7.086c-1.368-3.553-5.595-12.618-10.87-19.019l-2.387-2.528l-5.776,4.338
		c0.099,0.331,0.197,0.668,0.293,1.015c0.983,3.538,6.245,10.681,6.765,11.382L78.071-1.81c0.123,0.119,0.209,0.271,0.248,0.439
		c1.644,7.191,8.057,11.812,8.122,11.857c0.041,0.029,0.079,0.061,0.114,0.096c2.044,2.045,7.539,7.503,8.398,8.189
		c0.314,0.251,0.953,0.763,1.207,0.807c0.004-0.016,0.04-0.057,0.087-0.136c0.11-0.184-0.404-0.717-0.798-0.968
		c-0.01-0.006-0.018-0.017-0.028-0.023c-0.028-0.02-0.053-0.043-0.079-0.067c-0.027-0.023-0.058-0.042-0.081-0.068l-7.387-8.255
		c-0.171-0.191-0.25-0.447-0.219-0.701c0.8-6.391-2.254-8.954-2.285-8.979c-0.38-0.309-0.438-0.866-0.129-1.246
		c0.309-0.38,0.867-0.437,1.246-0.129c0.155,0.125,3.711,3.105,2.972,10.169l4.54,5.073L91.081,4.112
		c-0.12-0.168-0.182-0.368-0.166-0.577l-0.409-1.422C90.371,1.643,90.643,1.152,91.113,1.017z"/>
	<path fill="#7A4C74" d="M1.758-30.236h-3.738h-25.816c-2.618,4.459-5.123,10.404-5.361,18.191L-4.036,1.193
		c0.645-1.465,1.563-2.793,2.84-3.27c0.007-0.004,0.015-0.006,0.022-0.009c0.047-0.018,0.089-0.044,0.137-0.059
		c0.032-0.01,0.064-0.003,0.096-0.01c0.031-0.006,0.056-0.023,0.088-0.026c0.043-0.004,0.086,0.005,0.129,0.004
		c0.019,0.001,0.036-0.001,0.054,0.001c1.677-0.034,3.267,1.577,4.506,3.358L33.871-12.47c-0.186-1.095-0.377-2.109-0.577-2.997
		c-1.592-7.073-3.23-11.588-4.815-14.708c-0.019-0.025-0.044-0.06-0.044-0.06H1.758z"/>
	<path fill="#7A4C74" d="M-25.283,61.089c0.159,2.319,0.483,4.588,1.041,6.66c3.033,11.263,10.893,52.72,10.893,56.278
		c0,1.042-0.229,3.25-0.521,6.045c-0.6,5.756-1.715,16.47-0.506,18.217c1.663,2.402,3.229,2.658,3.295,2.667
		c0.038,0.005,0.068,0.027,0.104,0.037c0.109-0.106,0.237-0.196,0.396-0.234c0.049-0.014,1.569-0.468,2.912-3.062
		c0.977-1.886-1.497-12.37-2.826-18.002c-0.645-2.736-1.155-4.896-1.288-5.93c-0.454-3.528,2.05-45.648,3.62-57.208
		c0.181-1.333,0.267-2.697,0.281-4.065l-9.774-12.27L-25.283,61.089z"/>
	<path fill="#7A4C74" d="M33.969,52.848c0.7,1.049,1.465,2.097,2.305,3.127c7.371,9.04,31.482,43.668,32.935,46.917
		c0.426,0.951,1.119,3.062,1.997,5.735c1.804,5.497,5.163,15.729,6.979,16.828c2.499,1.514,4.034,1.106,4.098,1.089
		c0.149-0.041,0.297-0.03,0.439,0.003c0.031-0.033,0.051-0.073,0.088-0.102c0.039-0.033,1.242-1.068,1.408-3.985
		c0.119-2.119-6.419-10.675-9.932-15.271c-1.708-2.236-3.058-4.002-3.602-4.892c-1.851-3.025-16.774-42.49-20.069-53.694
		c-0.607-2.067-1.454-4.065-2.425-5.951l-12.205-5.376L33.969,52.848z"/>
	<circle fill="#7A4C74" cx="-25.304" cy="-74.994" r="2.697"/>
	<circle fill="#7A4C74" cx="-16.784" cy="-74.994" r="2.697"/>
	<circle fill="#7A4C74" cx="-8.264" cy="-74.994" r="2.697"/>
	<circle fill="#7A4C74" cx="0.256" cy="-74.994" r="2.697"/>
	<circle fill="#7A4C74" cx="8.776" cy="-74.994" r="2.697"/>
	<circle fill="#7A4C74" cx="17.296" cy="-74.994" r="2.697"/>
	<circle fill="#7A4C74" cx="25.817" cy="-74.994" r="2.697"/>
	<circle fill="#7A4C74" cx="-16.784" cy="-60.434" r="2.696"/>
	<circle fill="#7A4C74" cx="-8.264" cy="-60.434" r="2.696"/>
	<path fill="#7A4C74" d="M0.899-59.224c0.408-0.268,0.958-0.153,1.226,0.255c0.059,0.09,0.13,0.168,0.191,0.255
		c0.392-0.468,0.637-1.063,0.637-1.721c0-1.489-1.208-2.696-2.697-2.696c-1.488,0-2.695,1.207-2.695,2.696
		c0,0.25,0.045,0.486,0.108,0.716c0.245-0.096,0.524-0.095,0.769,0.05c0.42,0.25,0.56,0.793,0.31,1.214
		c-0.034,0.057-0.077,0.106-0.111,0.162c0.452,0.343,1.009,0.554,1.62,0.554c0.186,0,0.366-0.019,0.542-0.055
		c-0.049-0.07-0.106-0.133-0.153-0.205C0.375-58.407,0.49-58.956,0.899-59.224z"/>
	<circle fill="#7A4C74" cx="8.776" cy="-60.434" r="2.696"/>
	<path fill="#7A4C74" d="M19.799-59.443c0.122-0.307,0.193-0.64,0.193-0.991c0-1.489-1.207-2.696-2.696-2.696
		c-1.488,0-2.695,1.207-2.695,2.696c0,1.489,1.207,2.696,2.695,2.696c0.69,0,1.312-0.267,1.789-0.693
		c0.225-0.298,0.444-0.603,0.637-0.927C19.742-59.392,19.774-59.413,19.799-59.443z"/>
	<path fill="#7A4C74" d="M-15.205-53.041c-0.003,0.053-0.016,0.103-0.016,0.156c0,1.49,1.207,2.697,2.696,2.697
		c1.413,0,2.558-1.09,2.674-2.473c-0.607,0.094-1.222,0.157-1.845,0.157C-12.906-52.503-14.081-52.702-15.205-53.041z"/>
	<path fill="#7A4C74" d="M-10.281-54.377c-0.483-0.725-1.307-1.204-2.244-1.204c-0.796,0-1.505,0.352-1.999,0.902
		c0.909,0.257,1.855,0.404,2.828,0.404C-11.219-54.275-10.747-54.312-10.281-54.377z"/>
	<path fill="#7A4C74" d="M-6.7-52.885c0,1.49,1.207,2.697,2.696,2.697c1.49,0,2.697-1.207,2.697-2.697
		c0-1.385-1.048-2.514-2.393-2.666c-0.866,0.759-1.83,1.389-2.87,1.876C-6.647-53.423-6.7-53.161-6.7-52.885z"/>
	<path fill="#7A4C74" d="M1.819-52.885c0,1.49,1.208,2.697,2.697,2.697c1.488,0,2.695-1.207,2.695-2.697
		c0-0.064-0.015-0.125-0.019-0.188c-1.461-0.455-2.816-1.18-4.007-2.144C2.373-54.752,1.819-53.888,1.819-52.885z"/>
	<path fill="#7A4C74" d="M10.376-52.53c0.175,1.32,1.293,2.342,2.661,2.342c1.489,0,2.696-1.207,2.696-2.697
		c0-0.226-0.036-0.441-0.088-0.65c-1.51,0.661-3.152,1.032-4.842,1.032C10.659-52.503,10.519-52.525,10.376-52.53z"/>
	<path fill="#7A4C74" d="M14.655-55.029c-0.452-0.342-1.008-0.552-1.618-0.552c-0.977,0-1.824,0.524-2.297,1.302
		c0.021,0,0.042,0.004,0.064,0.004C12.14-54.275,13.445-54.542,14.655-55.029z"/>
	<circle fill="#7A4C74" cx="-8.264" cy="-45.982" r="2.697"/>
	<circle fill="#7A4C74" cx="0.257" cy="-45.982" r="2.696"/>
	<circle fill="#7A4C74" cx="8.776" cy="-45.982" r="2.697"/>
	<circle fill="#7A4C74" cx="-4.004" cy="-38.432" r="2.697"/>
	<circle fill="#7A4C74" cx="4.516" cy="-38.432" r="2.697"/>
	<circle fill="#7A4C74" cx="-21.045" cy="-67.768" r="2.697"/>
	<circle fill="#7A4C74" cx="-12.525" cy="-67.768" r="2.696"/>
	<circle fill="#7A4C74" cx="-4.004" cy="-67.768" r="2.697"/>
	<circle fill="#7A4C74" cx="4.515" cy="-67.768" r="2.696"/>
	<circle fill="#7A4C74" cx="13.037" cy="-67.768" r="2.696"/>
	<circle fill="#7A4C74" cx="21.557" cy="-67.768" r="2.696"/>
	<path fill="#FFFFFF" d="M-7.276-134.338c-2.625,0-2.834,0.715-2.834,1.649c0,3.421,4.453,6.204,9.927,6.204
		c5.473,0,9.926-2.783,9.926-6.204c0-1.217-0.342-1.649-2.266-1.649c-0.762,0-1.656,0.077-2.691,0.166
		c-1.318,0.113-2.812,0.242-4.438,0.242c-1.577,0-3.126-0.123-4.493-0.231C-5.286-134.252-6.365-134.338-7.276-134.338z"/>
	<path fill="#231F20" d="M-7.276-136.109c-1.26,0-4.605,0-4.605,3.42c0,4.398,5.248,7.976,11.698,7.976
		c6.45,0,11.697-3.578,11.697-7.976c0-3.42-2.933-3.42-4.037-3.42c-0.838,0-1.812,0.083-2.843,0.172
		c-1.282,0.11-2.736,0.235-4.286,0.235c-1.506,0-2.953-0.115-4.353-0.226C-5.182-136.021-6.295-136.109-7.276-136.109z
		 M4.786-134.172c1.035-0.089,1.93-0.166,2.691-0.166c1.923,0,2.266,0.432,2.266,1.649c0,3.421-4.453,6.204-9.926,6.204
		c-5.474,0-9.927-2.783-9.927-6.204c0-0.934,0.209-1.649,2.834-1.649c0.91,0,1.989,0.085,3.131,0.176
		c1.367,0.108,2.916,0.231,4.493,0.231C1.974-133.93,3.468-134.059,4.786-134.172z"/>
	<path fill="#231F20" d="M98.032,6.44c1.674,0,2.526-0.79,2.641-0.904c0.178-0.178,0.271-0.423,0.258-0.674
		c-0.014-0.251-0.133-0.484-0.329-0.642L93.804-1.26c-0.556-0.371-5.523-3.625-8.529-3.625c-2.442,0-6.254-3.462-7.21-5.951
		c-0.072-0.187-7.367-18.617-16.92-24.952c-0.104-1.15-0.52-4.22-2.082-7.421c8.632-11.201,7.626-25.106,6.784-30.604
		c-0.194-1.261-0.597-3.884-0.125-4.271c0.01-0.008,0.239-0.184,1.202,0.166c1.396,0.507,2.042,4.372,2.47,6.929
		c0.452,2.701,0.724,4.14,1.506,4.765c0.5,0.401,1.087,0.534,1.653,0.376c1.35-0.378,2.126-2.346,2.269-2.736
		c0.025-0.068,0.041-0.139,0.048-0.21c0.05-0.479,1.19-11.834-2.639-18.834c-5.221-9.541-12.996-13.546-19.243-16.765
		c-3.831-1.974-7.14-3.678-9.324-6.212c-1.73-2.007-2.958-5.658-4.381-9.886c-4.037-12.002-10.138-30.139-36.585-31.844
		l-5.451,0.002c-26.39,1.703-32.491,19.841-36.529,31.843c-1.422,4.228-2.65,7.878-4.381,9.886
		c-2.184,2.533-5.492,4.237-9.323,6.211c-6.247,3.218-14.022,7.224-19.244,16.766c-3.829,6.999-2.689,18.354-2.639,18.833
		c0.007,0.072,0.023,0.143,0.048,0.21c0.142,0.391,0.918,2.357,2.269,2.736c0.564,0.158,1.152,0.024,1.652-0.375
		c0.782-0.625,1.054-2.064,1.506-4.765c0.428-2.557,1.074-6.422,2.471-6.929c0.96-0.349,1.191-0.173,1.2-0.166
		c0.472,0.388,0.084,2.915-0.126,4.282c-0.844,5.484-1.852,19.386,6.788,30.594c-1.562,3.2-1.978,6.27-2.082,7.42
		c-9.559,6.339-16.847,24.765-16.919,24.952c-0.957,2.488-4.769,5.95-7.211,5.95c-3.006,0-7.973,3.254-8.594,3.672l-6.735,5.432
		c-0.196,0.158-0.315,0.391-0.329,0.642c-0.013,0.251,0.081,0.496,0.258,0.674c0.115,0.115,0.966,0.904,2.641,0.904
		c0.493,0,1.057-0.068,1.695-0.243c1.125-0.306,2.229-0.7,3.112-1.041l-3.461,12.031c-1.068,0.789-1.771,2.008-1.077,3.167
		c0.332,0.552,0.764,0.879,1.285,0.973c0.962,0.173,1.812-0.511,2.634-1.172c1.076-0.859,7.789-7.563,8.496-8.27
		c0.739-0.54,6.894-5.219,8.698-12.604l13.5-13.071c0.034-0.032,0.064-0.067,0.092-0.105c0.244-0.325,5.979-8.001,7.096-12.025
		c0.95-3.419,2.083-6.197,2.31-6.742l2.457-3.247c5.276,3.842,11.301,5.986,20.484,7.298c-2.578,5.08-4.695,11.719-4.177,20.322
		c0.608,10.104,7.223,38.119,9.61,47.98c-0.008,0.026-0.026,0.045-0.032,0.072c-0.152,0.692-3.705,17.072-0.643,28.445
		c1.083,4.021,2.785,11.903,4.521,20.511c0.676,3.352,1.357,6.81,2.009,10.199c2.338,12.148,4.301,23.35,4.301,25.107
		c0,0.95-0.237,3.226-0.511,5.861c-0.976,9.368-1.664,17.295-0.201,19.409c2.124,3.067,4.299,3.391,4.541,3.418
		c0.033,0.004,0.066,0.005,0.099,0.005c0.234,0,0.444-0.097,0.604-0.251c0.071,0.019,0.143,0.037,0.219,0.037
		c0.069,0,0.14-0.008,0.21-0.025c0.236-0.058,2.352-0.657,4.066-3.97c1.183-2.282-0.512-10.057-2.674-19.224
		c-0.608-2.58-1.134-4.807-1.255-5.749c-0.447-3.476,2.058-45.249,3.619-56.744c1.586-11.683-3.495-25.068-3.712-25.632
		c-0.015-0.039-0.044-0.065-0.064-0.101l6.532-34.631c0.099-0.717,0.307-1.727,0.61-2.755c0.288-0.978,0.662-1.969,1.114-2.743
		C-1.542,0.275-1.1-0.217-0.61-0.41c1.6,0.022,4.013,3.889,5.19,6.574c0.021,0.048,0.046,0.093,0.075,0.137L25.496,37.51
		c0.296,1.483,2.407,11.001,9.404,19.585c7.33,8.99,31.259,43.32,32.69,46.521c0.388,0.867,1.103,3.043,1.93,5.563
		c2.937,8.946,5.546,16.46,7.745,17.791c1.909,1.156,3.435,1.408,4.402,1.408c0.648,0,1.046-0.113,1.139-0.143
		c0.149-0.048,0.266-0.14,0.364-0.246c0.061,0.013,0.119,0.041,0.181,0.041c0.19,0,0.381-0.061,0.542-0.186
		c0.192-0.148,1.88-1.56,2.092-5.286c0.144-2.565-4.576-8.966-10.293-16.447c-1.611-2.108-3.002-3.929-3.498-4.74
		c-1.824-2.98-16.604-42.128-19.881-53.269c-3.072-10.461-11.638-18.971-13.267-20.52c-0.16-3.637-1.481-32.151-4.024-43.441
		c-1.277-5.672-2.593-9.763-3.894-12.828c7.97-1.207,14.711-3.635,20.067-7.226l2.459,3.25c0.227,0.545,1.357,3.317,2.309,6.742
		c1.119,4.024,6.853,11.701,7.096,12.025c0.028,0.038,0.059,0.073,0.093,0.105l13.5,13.071c1.663,6.803,7.007,11.301,8.418,12.391
		c0.121,0.093,0.223,0.17,0.281,0.213c0.127,0.127,0.452,0.452,0.898,0.896c2.041,2.033,6.713,6.669,7.596,7.374
		c0.737,0.591,1.497,1.199,2.333,1.199c0.1,0,0.2-0.009,0.302-0.027c0.521-0.093,0.953-0.421,1.284-0.973
		c0.697-1.159-0.008-2.379-1.079-3.169l-3.46-12.029c0.883,0.341,1.987,0.734,3.111,1.041C96.976,6.372,97.54,6.44,98.032,6.44z
		 M-59.454-46.921c-6.249-10.135-5.386-21.778-4.641-26.622c0.467-3.038,0.666-4.951-0.503-5.91
		c-1.009-0.828-2.455-0.303-2.929-0.13c-2.368,0.86-3.029,4.814-3.613,8.302c-0.236,1.409-0.559,3.337-0.866,3.674
		c-0.043,0.034-0.07,0.047-0.071,0.051c-0.229-0.057-0.733-0.756-1.04-1.535c-0.107-1.184-0.93-11.525,2.442-17.688
		c4.96-9.067,12.154-12.772,18.5-16.042c3.829-1.972,7.444-3.835,9.853-6.628c1.957-2.271,3.237-6.074,4.718-10.479
		c4.119-12.244,9.76-29.013,34.907-30.638l5.336-0.002c25.204,1.627,30.844,18.396,34.963,30.64
		c1.481,4.404,2.761,8.208,4.718,10.479c2.409,2.794,6.025,4.657,9.854,6.63c6.347,3.27,13.54,6.976,18.5,16.041
		c3.373,6.165,2.549,16.51,2.442,17.689c-0.285,0.729-0.795,1.485-1.024,1.536c0,0-0.029-0.008-0.071-0.04
		c-0.322-0.351-0.645-2.28-0.881-3.688c-0.583-3.488-1.245-7.44-3.612-8.301c-0.476-0.172-1.923-0.699-2.931,0.13
		c-1.166,0.957-0.956,2.961-0.5,5.927c0.79,5.151,1.716,18.051-5.986,28.599c-0.182-0.29-0.371-0.578-0.575-0.863
		c-3.102-4.342-20.939-28.003-22.5-30.072c-0.263-0.993-1.622-5.542-5.033-8.332c-2.646-2.165-6.075-2.921-9.391-3.653
		c-2.824-0.623-5.491-1.211-7.094-2.625l-0.436-0.384c-2.679-2.36-4.196-3.722-4.911-5.963c0.905-8.552,5.874-12.274,6.143-12.468
		c0.222-0.158,0.337-0.399,0.358-0.651c0.437-0.402,0.859-0.819,1.26-1.255c0.248-0.269,0.488-0.544,0.721-0.825
		c1.944-2.341,3.377-5.092,4.137-8.098c0.383,0.416,0.845,0.711,1.365,0.85c0.23,0.062,0.469,0.093,0.709,0.093
		c1.824,0,3.56-1.733,4.221-4.215c0.344-1.29,0.339-2.603-0.013-3.697c-0.391-1.213-1.196-2.063-2.209-2.333
		c-0.23-0.062-0.469-0.093-0.709-0.093c-1.082,0-2.127,0.621-2.942,1.636c-1.256-9.038-8.503-16.258-17.738-17.79
		c-0.294-2.362-1.791-4.114-3.659-4.114s-3.365,1.752-3.659,4.114c-9.205,1.527-16.436,8.705-17.727,17.701
		c-0.804-0.963-1.819-1.553-2.872-1.553c-0.24,0-0.479,0.031-0.709,0.093c-2.005,0.535-2.982,3.184-2.224,6.031
		c0.662,2.481,2.399,4.215,4.223,4.215c0.24,0,0.478-0.031,0.709-0.092c0.502-0.134,0.939-0.4,1.301-0.769
		c1.235,4.807,4.194,8.959,8.205,11.808c1.515,1.386,3.903,4.354,4.712,9.595c-0.459,3.565-1.857,5.135-5.292,8.166
		c-1.604,1.415-4.271,2.003-7.095,2.626c-3.315,0.731-6.744,1.488-9.391,3.653c-3.411,2.79-4.77,7.34-5.033,8.332
		c-1.559,2.067-19.398,25.729-22.5,30.073c-0.193,0.271-0.375,0.544-0.548,0.818c-0.009,0.016-0.018,0.031-0.027,0.046
		C-58.59-45.583-59.039-46.248-59.454-46.921z M-0.183-144.202c0.825,0,1.634,0.064,2.433,0.159
		c0.122,0.064,0.255,0.109,0.403,0.109c0.05,0,0.093-0.021,0.141-0.028c9.521,1.393,16.848,9.316,16.848,18.881
		c0,10.543-8.894,19.121-19.825,19.121c-4.358,0-8.379-1.379-11.655-3.687c-0.581-0.514-1.05-0.838-1.314-1.005
		c-4.19-3.508-6.856-8.669-6.856-14.429c0-9.565,7.328-17.489,16.848-18.881c0.048,0.008,0.091,0.028,0.141,0.028
		c0.147,0,0.281-0.045,0.403-0.109C-1.817-144.138-1.008-144.202-0.183-144.202z M-2.007-145.894
		c0.277-1.218,0.997-2.117,1.824-2.117s1.547,0.899,1.824,2.117c-0.602-0.049-1.209-0.08-1.824-0.08S-1.405-145.943-2.007-145.894z
		 M21.647-124.841c0.484-1.815,1.657-2.9,2.51-2.9c0.086,0,0.171,0.011,0.253,0.033c0.575,0.153,0.86,0.795,0.979,1.165
		c0.246,0.763,0.242,1.746-0.012,2.697c-0.532,1.998-1.873,3.109-2.762,2.867c-0.575-0.153-0.86-0.796-0.979-1.165
		C21.389-122.908,21.393-123.891,21.647-124.841z M-22.898-120.985c-0.892,0.234-2.231-0.869-2.764-2.867
		c-0.528-1.983,0.086-3.627,0.969-3.863c0.082-0.022,0.167-0.033,0.253-0.033c0.854,0,2.027,1.084,2.511,2.9
		C-21.401-122.864-22.016-121.22-22.898-120.985z M-50.125-37.322l19.839-26.216l7.879,17.371c0.008,0.017,0.814,1.763-0.898,5.759
		c-0.417,0.975-1.304,2.229-2.427,3.816c-1.214,1.718-2.693,3.818-4.109,6.345c-0.045-0.014-0.084-0.04-0.132-0.046
		C-39.111-31.553-45.012-33.607-50.125-37.322z M30.372-30.356c-1.891-3.927-3.729-5.897-5.348-7.629
		c-0.542-0.581-1.055-1.128-1.535-1.715c-1.875-2.287-1.521-4.96-1.085-6.472c0.007-0.014,0.021-0.023,0.027-0.038l7.859-17.328
		l19.835,26.211C44.889-33.839,38.257-31.492,30.372-30.356z M90.507,2.113l0.409,1.422c-0.017,0.208,0.046,0.408,0.166,0.577
		l2.917,10.138l-4.54-5.073c0.739-7.064-2.817-10.044-2.972-10.169C86.107-1.3,85.549-1.244,85.24-0.864
		c-0.309,0.38-0.251,0.938,0.129,1.246c0.031,0.025,3.085,2.588,2.285,8.979c-0.032,0.254,0.048,0.51,0.219,0.701l7.387,8.255
		c0.023,0.026,0.054,0.045,0.081,0.068c0.026,0.023,0.051,0.047,0.079,0.067c0.01,0.007,0.018,0.017,0.028,0.023
		c0.394,0.25,0.909,0.784,0.798,0.968c-0.047,0.079-0.083,0.12-0.087,0.136c-0.254-0.044-0.893-0.556-1.207-0.807
		c-0.859-0.687-6.354-6.145-8.398-8.189c-0.035-0.035-0.073-0.067-0.114-0.096c-0.064-0.045-6.478-4.666-8.122-11.857
		c-0.039-0.167-0.125-0.32-0.248-0.439L64.436-15.011c-0.521-0.702-5.782-7.844-6.765-11.382c-0.096-0.347-0.194-0.684-0.293-1.015
		c-1.014-3.415-2.085-5.933-2.135-6.047c-0.028-0.066-0.065-0.128-0.108-0.186L30.804-65.794c-0.188-0.25-0.498-0.381-0.805-0.346
		c-0.311,0.035-0.58,0.23-0.708,0.515l-7.79,17.175c-0.097,0.078-0.181,0.172-0.24,0.29c-0.108,0.216-2.614,5.349,0.857,9.583
		c0.517,0.631,1.048,1.2,1.611,1.802c1.441,1.542,3.065,3.282,4.749,6.6c1.584,3.12,3.223,7.635,4.815,14.708
		c0.2,0.888,0.392,1.902,0.577,2.997c2.247,13.29,3.408,40.197,3.42,40.49c0.002,0.05,0.024,0.093,0.034,0.141
		c0.013,0.064,0.018,0.13,0.046,0.191c0.048,0.105,0.118,0.198,0.202,0.276c0.002,0.002,0.003,0.005,0.005,0.007
		c0.079,0.073,6.482,6.005,10.609,14.017c0.971,1.886,1.818,3.884,2.425,5.951c3.295,11.204,18.218,50.668,20.069,53.694
		c0.543,0.889,1.893,2.655,3.602,4.892c3.513,4.596,10.051,13.152,9.932,15.271c-0.166,2.917-1.369,3.952-1.408,3.985
		c-0.037,0.029-0.057,0.069-0.088,0.102c-0.142-0.033-0.29-0.044-0.439-0.003c-0.064,0.018-1.599,0.425-4.098-1.089
		c-1.816-1.099-5.174-11.331-6.979-16.828c-0.877-2.673-1.571-4.784-1.997-5.735c-1.453-3.249-25.563-37.876-32.935-46.917
		c-0.84-1.03-1.604-2.079-2.305-3.127c-5.264-7.878-6.749-15.751-6.765-15.84c0-0.001-0.001-0.002-0.001-0.003
		c-0.01-0.054-0.041-0.103-0.061-0.154c-0.023-0.059-0.037-0.122-0.071-0.173c-0.001-0.001-0.001-0.002-0.001-0.003L6.171,5.381
		C5.859,4.678,5.003,2.861,3.836,1.182C2.597-0.599,1.008-2.209-0.67-2.176c-0.018-0.002-0.036,0-0.054-0.001
		C-0.767-2.176-0.81-2.185-0.853-2.181c-0.032,0.003-0.057,0.02-0.088,0.026c-0.032,0.006-0.064,0-0.096,0.01
		c-0.048,0.015-0.09,0.042-0.137,0.059C-1.182-2.083-1.19-2.081-1.197-2.077c-1.277,0.477-2.195,1.805-2.84,3.27
		c-0.94,2.137-1.307,4.543-1.363,4.953l-7.317,38.788c-0.091,0.48,0.226,0.944,0.707,1.035c0.055,0.01,0.11,0.016,0.165,0.016
		c0.417,0,0.789-0.297,0.87-0.722l0.132-0.703c1.175,3.785,3.034,10.918,2.961,17.932c-0.014,1.369-0.1,2.732-0.281,4.065
		c-1.569,11.56-4.074,53.68-3.62,57.208c0.133,1.033,0.643,3.194,1.288,5.93c1.329,5.632,3.802,16.117,2.826,18.002
		c-1.343,2.595-2.863,3.048-2.912,3.062c-0.159,0.039-0.287,0.128-0.396,0.234c-0.036-0.01-0.066-0.032-0.104-0.037
		c-0.066-0.01-1.632-0.266-3.295-2.667c-1.209-1.747-0.094-12.461,0.506-18.217c0.291-2.795,0.521-5.003,0.521-6.045
		c0-3.559-7.86-45.015-10.893-56.278c-0.558-2.071-0.881-4.34-1.041-6.66c-0.451-6.571,0.424-13.54,1.079-17.553
		c0.165,0.169,0.385,0.278,0.627,0.278c0.07,0,0.142-0.009,0.213-0.026c0.475-0.118,0.765-0.598,0.647-1.073
		c-0.097-0.391-9.685-39.184-10.403-51.11c-0.076-1.265-0.075-2.471-0.039-3.65c0.238-7.787,2.744-13.731,5.361-18.191
		c1.225-2.086,2.47-3.858,3.512-5.333c1.183-1.673,2.117-2.995,2.609-4.142c2.066-4.822,0.962-7.057,0.861-7.232l-8.473-18.684
		c-0.129-0.285-0.398-0.48-0.708-0.515c-0.312-0.036-0.617,0.096-0.805,0.346l-24.331,32.152c-0.043,0.057-0.08,0.12-0.107,0.186
		c-0.051,0.119-1.181,2.768-2.218,6.324c-0.071,0.242-0.142,0.489-0.211,0.739c-0.982,3.538-6.244,10.68-6.765,11.382L-78.069-1.811
		c-0.123,0.119-0.209,0.271-0.248,0.439c-1.638,7.171-8.057,11.813-8.121,11.859c-0.04,0.029-0.079,0.061-0.113,0.096
		c-2.045,2.045-7.54,7.503-8.4,8.19c-0.325,0.26-1,0.801-1.173,0.827c0,0-0.047-0.033-0.121-0.155
		c-0.11-0.184,0.405-0.718,0.796-0.967c0.011-0.007,0.02-0.019,0.031-0.026c0.026-0.019,0.049-0.041,0.073-0.062
		c0.029-0.025,0.061-0.044,0.086-0.073l7.386-8.255c0.171-0.191,0.25-0.446,0.219-0.701c-0.788-6.308,2.155-8.868,2.292-8.982
		c0.376-0.31,0.432-0.865,0.125-1.243c-0.309-0.38-0.868-0.437-1.246-0.129c-0.155,0.125-3.711,3.105-2.974,10.169l-4.54,5.074
		l2.919-10.146c0.116-0.166,0.178-0.361,0.163-0.566l0.41-1.426c0.135-0.47-0.136-0.961-0.606-1.096
		c-0.472-0.137-0.961,0.136-1.097,0.606l-0.394,1.369c-0.785,0.335-2.499,1.033-4.201,1.496c-0.622,0.17-1.125,0.199-1.516,0.166
		l5.5-4.439c1.388-0.926,5.45-3.328,7.547-3.328c3.25,0,7.665-3.962,8.865-7.086c1.547-4.021,6.755-15.108,13.007-21.397
		c1.163-1.17,2.362-2.174,3.58-2.935c0.248-0.155,0.404-0.423,0.416-0.715c0.002-0.052,0.244-5.216,3.312-9.513
		c3.215-4.501,22.387-29.922,22.58-30.178c0.074-0.098,0.127-0.21,0.155-0.33c0.011-0.048,1.174-4.853,4.478-7.555
		c2.319-1.897,5.538-2.607,8.65-3.294c3.054-0.673,5.938-1.31,7.885-3.027c2.008-1.771,3.424-3.146,4.384-4.713
		c-0.031,0.841-0.093,1.715-0.205,2.641c-0.059,0.485,0.287,0.927,0.773,0.986c0.036,0.004,0.072,0.006,0.107,0.006
		c0.442,0,0.824-0.33,0.878-0.779c0.359-2.965,0.303-5.523-0.012-7.729c0.003-0.033,0.009-0.063,0.012-0.097
		c0.018-0.168-0.026-0.323-0.094-0.465c-0.465-2.784-1.353-4.966-2.34-6.651c2.652,1.127,5.58,1.758,8.657,1.758
		c3.491,0,6.789-0.811,9.71-2.24c-1.067,1.712-2.098,3.958-2.711,6.811c-0.012,0.001-0.022-0.004-0.033-0.003
		c-0.487,0.051-0.839,0.487-0.788,0.974c0.079,0.745,0.208,1.412,0.382,2.026c-0.155,1.702-0.177,3.55,0.027,5.597
		c0.045,0.457,0.431,0.798,0.88,0.798c0.029,0,0.059-0.001,0.089-0.004c0.487-0.048,0.842-0.482,0.793-0.969
		c-0.074-0.747-0.115-1.463-0.134-2.159c0.979,1.269,2.279,2.418,3.881,3.83l0.435,0.383c1.946,1.717,4.831,2.354,7.885,3.028
		c3.112,0.687,6.331,1.396,8.65,3.294c3.292,2.692,4.467,7.508,4.478,7.556c0.028,0.119,0.082,0.231,0.155,0.329
		c0.193,0.256,19.365,25.677,22.58,30.178c3.057,4.28,3.309,9.462,3.311,9.515c0.013,0.292,0.168,0.56,0.416,0.714
		c1.981,1.238,3.911,3.12,5.718,5.313c5.275,6.401,9.502,15.466,10.87,19.019c1.2,3.124,5.615,7.086,8.864,7.086
		c2.094,0,6.158,2.402,7.482,3.28l5.54,4.47l0.021,0.017c-0.005,0-0.012,0-0.017,0c-0.39,0.031-0.884,0.002-1.498-0.165
		c-1.696-0.462-3.413-1.16-4.2-1.496l-0.394-1.37c-0.136-0.47-0.625-0.741-1.097-0.606C90.643,1.152,90.371,1.643,90.507,2.113z"/>
	<path fill="#231F20" d="M-1.563-59.668c-0.244-0.145-0.524-0.146-0.769-0.05c-0.178,0.069-0.34,0.183-0.445,0.36
		c-1.617,2.725-4.411,4.549-7.504,4.981c-0.466,0.065-0.938,0.103-1.415,0.103c-0.972,0-1.919-0.147-2.828-0.404
		c-2.372-0.671-4.457-2.164-5.848-4.289c-0.267-0.41-0.815-0.523-1.227-0.256c-0.409,0.268-0.524,0.817-0.256,1.227
		c1.589,2.427,3.955,4.145,6.648,4.957c1.125,0.339,2.3,0.537,3.51,0.537c0.623,0,1.237-0.063,1.845-0.157
		c1.144-0.179,2.244-0.527,3.281-1.013c1.04-0.487,2.004-1.118,2.87-1.876c0.9-0.789,1.695-1.701,2.335-2.742
		c0.035-0.056,0.078-0.105,0.111-0.162C-1.003-58.875-1.142-59.418-1.563-59.668z"/>
	<path fill="#231F20" d="M20.935-59.668c-0.386-0.231-0.867-0.119-1.136,0.225c-0.024,0.031-0.057,0.051-0.077,0.085
		c-0.193,0.325-0.412,0.629-0.637,0.927c-1.147,1.525-2.685,2.699-4.43,3.401c-1.21,0.487-2.515,0.754-3.852,0.754
		c-0.021,0-0.042-0.004-0.064-0.004c-3.376-0.021-6.491-1.674-8.423-4.435c-0.061-0.087-0.132-0.166-0.191-0.255
		c-0.268-0.408-0.818-0.522-1.226-0.255c-0.41,0.268-0.524,0.817-0.255,1.227c0.047,0.072,0.104,0.134,0.153,0.205
		c0.676,0.986,1.485,1.844,2.389,2.576c1.19,0.963,2.545,1.688,4.007,2.144c1.021,0.318,2.087,0.505,3.184,0.543
		c0.143,0.005,0.283,0.026,0.427,0.026c1.689,0,3.332-0.371,4.842-1.032c2.3-1.006,4.286-2.703,5.6-4.919
		C21.495-58.875,21.356-59.418,20.935-59.668z"/>
	<path fill="#231F20" d="M31.803,38.618c0.129,0,3.195-0.048,5.291-4.24c0.219-0.438,0.042-0.97-0.396-1.188
		c-0.436-0.217-0.969-0.041-1.188,0.396c-1.568,3.137-3.608,3.256-3.718,3.26c-0.483,0.006-0.874,0.4-0.874,0.886
		C30.918,38.221,31.314,38.618,31.803,38.618z"/>
</g>
</svg>
