<?xml version="1.0" encoding="utf-8"?>
<!-- Generator: Adobe Illustrator 16.0.0, SVG Export Plug-In . SVG Version: 6.00 Build 0)  -->
<!DOCTYPE svg PUBLIC "-//W3C//DTD SVG 1.1//EN" "http://www.w3.org/Graphics/SVG/1.1/DTD/svg11.dtd" [
	<!ENTITY ns_extend "http://ns.adobe.com/Extensibility/1.0/">
	<!ENTITY ns_ai "http://ns.adobe.com/AdobeIllustrator/10.0/">
	<!ENTITY ns_graphs "http://ns.adobe.com/Graphs/1.0/">
	<!ENTITY ns_vars "http://ns.adobe.com/Variables/1.0/">
	<!ENTITY ns_imrep "http://ns.adobe.com/ImageReplacement/1.0/">
	<!ENTITY ns_sfw "http://ns.adobe.com/SaveForWeb/1.0/">
	<!ENTITY ns_custom "http://ns.adobe.com/GenericCustomNamespace/1.0/">
	<!ENTITY ns_adobe_xpath "http://ns.adobe.com/XPath/1.0/">
]>
<svg version="1.1" id="Layer_1" xmlns:x="&ns_extend;" xmlns:i="&ns_ai;" xmlns:graph="&ns_graphs;"
	 xmlns="http://www.w3.org/2000/svg" xmlns:xlink="http://www.w3.org/1999/xlink" x="0px" y="0px" width="595.279px"
	 height="841.89px" viewBox="0 0 595.279 841.89" enable-background="new 0 0 595.279 841.89" xml:space="preserve">
<metadata><?xpacket begin="﻿" id="W5M0MpCehiHzreSzNTczkc9d"?>
<x:xmpmeta xmlns:x="adobe:ns:meta/" x:xmptk="Adobe XMP Core 5.3-c011 66.145661, 2012/02/06-14:56:27        ">
   <rdf:RDF xmlns:rdf="http://www.w3.org/1999/02/22-rdf-syntax-ns#">
      <rdf:Description rdf:about=""
            xmlns:dc="http://purl.org/dc/elements/1.1/">
         <dc:format>image/svg+xml</dc:format>
         <dc:title>
            <rdf:Alt>
               <rdf:li xml:lang="x-default">Print</rdf:li>
            </rdf:Alt>
         </dc:title>
      </rdf:Description>
      <rdf:Description rdf:about=""
            xmlns:xmp="http://ns.adobe.com/xap/1.0/"
            xmlns:xmpGImg="http://ns.adobe.com/xap/1.0/g/img/">
         <xmp:MetadataDate>2018-09-05T11:37:38-03:00</xmp:MetadataDate>
         <xmp:ModifyDate>2018-09-05T11:37:38-03:00</xmp:ModifyDate>
         <xmp:CreateDate>2018-09-05T11:37:38-03:00</xmp:CreateDate>
         <xmp:CreatorTool>Adobe Illustrator CS6 (Macintosh)</xmp:CreatorTool>
         <xmp:Thumbnails>
            <rdf:Alt>
               <rdf:li rdf:parseType="Resource">
                  <xmpGImg:width>132</xmpGImg:width>
                  <xmpGImg:height>256</xmpGImg:height>
                  <xmpGImg:format>JPEG</xmpGImg:format>
                  <xmpGImg:image>/9j/4AAQSkZJRgABAgEASABIAAD/7QAsUGhvdG9zaG9wIDMuMAA4QklNA+0AAAAAABAASAAAAAEA&#xA;AQBIAAAAAQAB/+4ADkFkb2JlAGTAAAAAAf/bAIQABgQEBAUEBgUFBgkGBQYJCwgGBggLDAoKCwoK&#xA;DBAMDAwMDAwQDA4PEA8ODBMTFBQTExwbGxscHx8fHx8fHx8fHwEHBwcNDA0YEBAYGhURFRofHx8f&#xA;Hx8fHx8fHx8fHx8fHx8fHx8fHx8fHx8fHx8fHx8fHx8fHx8fHx8fHx8fHx8f/8AAEQgBAACEAwER&#xA;AAIRAQMRAf/EAaIAAAAHAQEBAQEAAAAAAAAAAAQFAwIGAQAHCAkKCwEAAgIDAQEBAQEAAAAAAAAA&#xA;AQACAwQFBgcICQoLEAACAQMDAgQCBgcDBAIGAnMBAgMRBAAFIRIxQVEGE2EicYEUMpGhBxWxQiPB&#xA;UtHhMxZi8CRygvElQzRTkqKyY3PCNUQnk6OzNhdUZHTD0uIIJoMJChgZhJRFRqS0VtNVKBry4/PE&#xA;1OT0ZXWFlaW1xdXl9WZ2hpamtsbW5vY3R1dnd4eXp7fH1+f3OEhYaHiImKi4yNjo+Ck5SVlpeYmZ&#xA;qbnJ2en5KjpKWmp6ipqqusra6voRAAICAQIDBQUEBQYECAMDbQEAAhEDBCESMUEFURNhIgZxgZEy&#xA;obHwFMHR4SNCFVJicvEzJDRDghaSUyWiY7LCB3PSNeJEgxdUkwgJChgZJjZFGidkdFU38qOzwygp&#xA;0+PzhJSktMTU5PRldYWVpbXF1eX1RlZmdoaWprbG1ub2R1dnd4eXp7fH1+f3OEhYaHiImKi4yNjo&#xA;+DlJWWl5iZmpucnZ6fkqOkpaanqKmqq6ytrq+v/aAAwDAQACEQMRAD8A9U4q7FXYq7FXYq7FWE/m&#xA;F+Z9j5We30qytm1jzVqAP6P0aA/ERv8AvZm/3XEKdT1+gkQyZIwiZSNAKwCTyR5k80/6X5/1u4u/&#xA;V+IaDp8jW2nxA9EIQh5SP5ia/PrnOantuRNYxQ7zzW22/JL8sTGqLowQpUpIlxchwfHl6tTTtXMH&#xA;+VtR/O+wfqRZY55u/JS7eFLrQNVvLk2gqmjahcyvA6rv6Ucqsjx17b9e4zP0/bcjtk+Y6fBIkr+S&#xA;f8XwaSut+RdVu4pLWR7bU/KGtyPcW4nh/vYUkejRHcUIpXapG4zK/lOWGfBloxO4kO7vpbev/l7+&#xA;Zek+cIZ7YxPpnmGwPHVNEuDSaFv5l6epGezj6aZuYTEhYNgqzHJK7FXYq7FXYq7FXYq7FXYq7FWE&#xA;fmf+Yh8q2NvY6ZAL/wA1auxh0XTuoLftTS0IIijG5Pf2FSIZMkYRMpGgFYt5O8onR1n1HU5zqXmf&#xA;UyJdW1WTdnf/AH3HsOMSdFUAfqA4zXa6WeXdEcgglkuYCGMee/PmmeUtPSSZDdaldEpp+nRn95K4&#xA;7n+VFr8TZmaPRyzyobRHMolIRBlI0A8d1DWfOWuXButX1i4tgxJj0/T5Gt4Igegqh5OR4sTnQY8G&#xA;HGKjEHzO5eV1XtIRKsMRw98uvw2pdeXuv3FrZQR63f231BCsMkU7qzsWLCSY9ZGAoor+yKYxxYwS&#xA;eGJvy+5xo+0ucHeMCPj+tONE1jUfM80LJMmm/mh5eT1dL1BQFTUIFB5I4NFIcEhlPStRtyGVAnSS&#xA;4o74Jcx/NP4/HJ67S6qGeAnD6T9nk+gfy48+WnnPy8uoLEbTUrZzbavpz1D211Hs6EHfieqnw96j&#xA;N7GQIscnIZThV2KuxV2KuxV2KuxV2KpN5v8ANek+VPLt5ruqvxtbRKhF+3JIdkijHdnbYfjtiryr&#xA;yTourXt/ded/NC18x6wo9G3NStjZ9YraMHptu3evXflXku1df4suCP0R+0oJZnmnQlPmnzLpvlvQ&#xA;7rWNQakFuvwoCOUjnZI0r+0x/rl+nwSyzEI9Uh89R60+uaxca5q13DLq13tHbJIrC2hH2IUWu1O/&#xA;v13rnVjCMcBCI9I+3zeQ7d1GbITARkMUetHc9/u7vmmWQeXdiqU61dQWzw3kF6llrFgfrFjMWCuG&#xA;TelO6tShFN8shHiFEXE7F3vYeTNjygxjKWORqWxr3/B6T5N8721l5i0Pz5ZkQaP5pZNH82Wi7RwX&#xA;67QXDeFGO7H9g16tkNBI4pywS/h3j/Ve8fSObVDsVdirsVdirsVdirsVeG6hqP8Aysrz2bkH1PJH&#xA;lWYpYp/uu+1JdnmI6NHD0T7+jEZpu19b4ceCP1S+wftUs3zk2LRIAJJoB1OFXzt+ZHmS787atK2n&#xA;sH0LRnI0+JxWO7uEP7yRh3QgcF9vCpzq+z9ONPEcX1y5+Q7nV63taGnyRgev1eQ/H2fB6v5ak/5x&#xA;2876BHbXOk6Ro2pFAl3p0iRWF3FLShCSr6TyCu4ZSfffbNwHaxkCLBsPK/MWkWnlbzdJ5etdWi1n&#xA;TZkM+mXaTRSyogJDQT8CfjSnWm439hi6jEPqDynb/ZkYx8aAr+cP0oXULsWdjPdEV9FGcL4kDYZj&#xA;QjZp5vS4PFyxh/ONJ1rEf5d6F+TkVnE2n6/+YHmkRO8sZiu57d5nBKhhz9H0k/dgAir/AIbLYDyf&#xA;TsWOMIiMRUQjdT8oxaXf635LjAFj5g0db7T1H2V1HT1Abj0+3wDtnO49TxiObrCdH+rL8Uyt9Afl&#xA;p5ifzH5B0LWZG5z3dpH9ZfxnjHpzH/kYjZ0islxV2KuxVBHW9IXWV0Q3cQ1Z4DdrY8h6pgDcDJx/&#xA;l5bYqjcVdiry/wDODzheyPD5A8tyj/EOtoRfXC7/AFHTztLM9OjOp4oP48a0anURwwMpJVtC0TT9&#xA;D0i10nT4/TtLSMRxr3Pcs3izGpJ8c4bNllkmZS5lgj8qV51+Yes6rrl63kLyvIF1K5iL6zfVPC0t&#xA;SPsMV/bl+zTrQ+9RtdFijjHj5PpH0jvP7GQeVaMzRQNptxB9Uv8ATmNvd2hFCjpt4moPWub7Jv6g&#xA;bEuT5/21pZ4s5lLcT3B/R8ERdabp92Qbm3jlI6M6gn78jGZHIuBh1ebFtCUo+4pHE+nzaoNO0aH0&#xA;ADS91S3tnuDCh68ViVmYmlB2zI4Z8Nn1eT1XZ/Z2fMOPUykY9IE8/eP0IzVZ9P0LVobWO9vL/R71&#xA;aLLqNtLBLFKD8QJlRQ6Go6dP11whklG5R4ZDu6t3anY8ZQ48I4ckf5u1/Lr3J7+XnlWy1nz7bm2t&#xA;Y49O0JheXsqIArXH/HvFUeDfHT2OYmv1Bx4TZ9U9h7urLsOGY4zkyykeL6bJ5d/xelfmABb+bfI2&#xA;pDaSPUpbMHvxu4Sjf8R8c1Gi3xZY/wBG/k7wMq/5x4PD8uhaD+6sdRv7eEeCC4Zvo3c9M7CBuILI&#xA;vTMkh2KuxV8yofNGp+atV/NjQuV5f2OrTW1lpfKi3Ok2y/V2jSgPxuKkUr8W+5zW5u0Y484xy+mu&#xA;fmm3sOg/nX+Wmr2IuG1y10ydR/pFjqUqWk8Tj7SMkpXkQf5ajNiDa0kHmD87U1OSTR/y3tjrurN8&#xA;EmqurJptpX9uSVgPUI6hV6+/TKNRqoYY3MqhPKvlmy8sw3N5qd+L3XtScz6rq9yyq8z+C1Pwxp+y&#xA;uclrNXPUy5bDkGJNr9X/ADJ8iaSrG91u1DrWsUUgnk27cIubfhlePQZp8on7vvWmPS+a/O/m6tr5&#xA;S06TRtLk2k8xaknBuPc21ud2Pgx2/wBXMoabDg3ynil/Nj+k/j4pplPlHydpXlfT3trPnNc3Derf&#xA;38xLz3Ex6vIx+ZoO335hanVSzSs8hyHQIJeMfnFaXL/mPcXOnSCK7gsLd3oAQ5LOCrjv8AGdB2Uf&#xA;8H9XLiLq+1cmIYxHKOKMpV5jzDGdJ1Ow1XVI7PzRfNoWkChmkgjkkabcjgJFDCMHxIzMyxlGN4hx&#xA;y+5xuzey9LGXHA8cul9Pg9bll/KaG2s7vy/5ltfLt7pkfp2l9p9zGk/pn4jHLG/IzqTuQ6nf6c0+&#xA;DNrMcyTGUr7xt+x327HbuO988Xl1HpLXXme7vIza3PmzWIhFZWluTV0soFSNedd/hXr7Zm5tVKNS&#xA;zHhrcQjzPv8AJL1Tyb5Q0vypocWlaeCwUl7i4YDnNK32pHp9wHYbZz2q1Ms0+KX9jEpB+YzpJ5k8&#xA;kWZNHbVGu/klrCzud+w5b5laAVjyy/o181DLf+ceYmP5ZWl8wK/pO7vbwKewe5dRt8krnYRFABkX&#xA;pWSQ7FXYq8L/ACSEf/KsNFZCTyFwzsepc3UvKv05xfa3+MS+H3BB5sn1Dyz5c1KYT6jpVnezr9mW&#xA;4t4pWHyZ1JzEhqMkBUZEDyJW0bb21tbQrDbRJBCn2Y41CKPkFoMrlIyNk2UJNr/kbyn5gu4bvWdN&#xA;ivbmBfTikcsCEDFuJ4kAipPXMjDrMuIEQNAptU0ryX5S0lg+m6PZ20oNRMkKep/wZHL8cjk1WWf1&#xA;SJ+K2nWY6Eu8wa/pmgaRcarqcoitLZeTH9pj+yiDuzHYDLsOGWWQjHmVfP4vL7WNW1DzDqCendao&#xA;6skH++oI14xR/PiN86kQGOAxx5R+94ft7XRzZBCH0w6+fVj+vxLYh5QtY3FY18WP7P35fjHEV7OB&#xA;zyEevX9b3ryD+W+h6R5X0+DU9NtbrVuHr3c88EUkgmm+N1DMpNE+zt4ZzWs1855CYyIj0ovcs1RE&#xA;jRURQiKKKqigAHYAZrybQuwK86/N2xjtrL/E3rub2ztLjTtLs1WvK61LjAJFNftKhO1P7dt2XIyl&#xA;4YGxIJPlHf72Qez+S9AXy95S0fRBTlp9pDBIV6NIiD1G/wBk9TnXqnOKuxV2KvDvy+jOi6v5n8mz&#xA;fBNo+oy3Fmp/asr0+tAw8ftHl4Zy3bmGsgn0kPtClm2aNi7FXYq7FVC9vLSytJry7lWC1t0Mk0zm&#xA;iqqipJJyUIGRobkq8A8z+aLrzxrC3rq0XlyyY/oqzfYzONvrMq+/7IPQfTXqdNphp41/GeZ/QHm+&#xA;2+1vDBw4z6j9R7vL3/d9zMseNSvXdOu70WYt5DEYbhJXkVuLKFBoynxU75ZikBd9zteytdHTSlI8&#xA;+A173of5e/mVq0erweXPNEouTdnhpWrcQpdx0hnAoOZ/Zbuc1Ou7PjwnJj2rmP0h7Hs7tGGqjY2k&#xA;OY/HR61midg7FWGW0A86fmvp+mxAy6H5NYajqko3jbUCKWsNdxyj3f8A4IZ1PYulMYHIecuXu/ay&#xA;D27N4rsVdirsVeW/m/5Z1O0vLP8AMHy9C0+qaPGYNWsE63mmk8nUU6vEfjX+wDMbV6YZsZifwVV9&#xA;B13S9d0q31TTJhPZ3C8kYdQe6sP2WU7EZxGbDLHIxkNwxTDKldirsVeK/m5rtzrPmf8AwrHIU0nT&#xA;I4rjU41JHrTyjnFG/wDkKlGp4/IZ0XZeAQx+Kfqly8g6rtjXnTYvT9cth5d5Y+qqqhVACgUAGwAG&#xA;Zr5+SSbLeKHYqgtWs1vLX0Vk9K5UiW1lBoySx7qy032ycJUfJz+ztXLT5RkH0jn7j+NvN7Z+W/nA&#xA;eaPLcVzOAmqWp+rapB0KzxjdqfyuPiH3ds5rX6XwclD6TuPc+jRkJASG4O4Q/mzzXqk2pR+T/KEY&#xA;vPNl8p5P1hsITs1xcNQheNfhU/cdg2V2b2acx4pfR97IB6T+X/kbTfJnl2LSbNjPO7GfUL5/7y5u&#xA;ZP7yV+vXoB2GdaBWwSyTCrsVdirsVdiryDzX+WuveWNWufNH5exLNb3TGXWvKjEJFMafFLaH/dcn&#xA;+T37fy5hazQwzxo7S6FV3lXz3oHmRXjtJWt9Rgqt3pdyPSuoXGzK8bb7HuNs5PVaLJhPqG3f0QQy&#xA;LMNDsVeB+d7WTT/zL1mKUcY9TjgvbRj+0qxiKQV9nQ51GilxaeNfw2C8z7TYSYQmOUSR8/7Eqmvr&#xA;eG6gtpCVkuOXpGnwkr1FfHMkQJBPc8vj00545THKFX8Wd+U9I0a00tdd1oI63Ept9Ohm/uS9COcl&#xA;A+3JSNxQUrvtmt1OWcpcEOm573b9m6XFDH4+atzwwB+m+889unLbz2ZG+rakbGzGsabaJY1n/Sok&#xA;QiKKOJlEZjqXBZuXwAA8u1OuY3hRs8EpcW1fj7+52h1WQwj42OAh6uOxsAKqufPpz4une8v/ADM0&#xA;bTtG1jy/qtlJ/uLv3drVmrVBKlGQ13oKrud/urm10GWWSMoy+uLR+QEceWOLeGWAnHv9Juvt9/Td&#xA;LI9T1fQNWN5pmojSbXV/SstWvDH6qwIzgC6CVFWQEjMgYceaozF8O4Z+zuvseDLpvH9I/T831V5B&#xA;/L/y55O0swaUpnuboiW+1WZvUuLqQ785JO432A2HzJJ2IAAoPUsnwq7FXYq7FXYq7FXYqxLzn+Vv&#xA;k7zcwuNStDBqsdPQ1izb0LyMgUUiVftcewcEYCARRVhcvkL84fL5po2s2XmjT1+zb6qrW94F7Ks8&#xA;dVc/5T5q8/Y+Ge49J8v1LshJPNnn2w+HWfy/1VXH2jprRaipHivpFfuzXT7Bl/DIH37frWnmf5u+&#xA;eNN1YWESaLq+meZ9Nl9eK3v7X6u5tXFJQ68mbg3EUNO2Zeg0GXATxGPBIfb06OPqsUJ4zCZAjLb4&#xA;9PjfJj2owJq+kpNaN+9os9pJ3DruP6HMqB4JUXg9LkOk1Bjk+neMh5H8W9L8k3z+Zfy+sY7CSKG6&#xA;06Z/0jFNAtwyqS7MUiZJCW+KiigrQ5qNVEYs5MrqQ23p389HLwfBjX7uV7xErgbIIFGz094ITi41&#xA;Z9T0zTtOt4DC1y00dq0kEU3BrUqi+tD6bIityPIoo4fKuVDCISMiffuRz7jf382rJqfGxQxxjXFY&#xA;jcYn6dvVHhoX1oen3MP/ADetbe9t/LPlmaRZL9biCK4W3VV/eXLonGNUCqDQsQOPSmZ/ZAucpj6Z&#xA;cvg5+llw58eLYyhjlxVVC+HuruYtcaRe6deal5T1xa3+mMbeY0IEsLD91Mld6OlCM2GaJhKw6Ltf&#xA;Sy0ucZce0SbHkeo/Hue3/wDOPPnuW/0mbybqsvLV9AUfVJGNWnsCaRN84qhD7cffMyEuIW9fo9VH&#xA;PiGSPX7D3PYMk5LsVdirsVdirsVdirsVdirzz84/zP8A8GaRFaaaq3HmbVucemQEikYA+K4kBr8M&#xA;ddgftH6cEpACy1Zs0cUDORqIfOlraTCae8vrh77VLxud7fTEvJIx8Sew7DNdkymRfPe0e0p6mdna&#xA;I5D8dUt0r/cdqk+kttBLW4sfCh+2g+R3yc/VHi+bla3/AAjBHUD64+mf6JfFr9M6z5S1w3ujsI11&#xA;A1+1xUTDdgdiCHoNjsTgOKGaFT6Od2dkGbECZSjkw9Y8zDu+HyCO1b82vzLlsmL6rHajjRltYI1d&#xA;mOwAdg7Df+WmUY+ztPe0b95dxp+0ROYxxEpX1ND7nv8A+WP5J6Tog0/zJ5gafVPOBjE0813IZI7e&#xA;eUVcRJQDktacmqa7imbWMBEUBTtIYoQvhAF8/P3pd/zkR5Flu9Og87aVEX1TQ0K6hEg+KfTyav8A&#xA;TCauPbl7YJw4hTRrdJHUYjjPXl5F5NoyeZLaez88+Wbd7h9FPrylTRJrYrWeA7/FVOwqR88wIamO&#xA;KfBI1bznYAz4sssZieC6PlIfjp5F9W+XNf03zDodlremSerY38SzQt3APVWHZlaqsOxGbJ61McVd&#xA;irsVdirsVdirsVdir5G8267L5m/MHXtclbnbwTtpmlitQttasU5L/wAZHq/05h6mfR5H2l1R4o4h&#xA;y+o/o/HmhMxXlUr1+zlmtFuLba8s29aA+NPtL/shluKVGjyLs+y9RGGQwn/d5Bwy/Qfgqpp0nmnS&#xA;BHp8TzyzJ6sQiVnZHXuQv8rbHImYxSuRoNmmjl0uq4REyMeYAu4+73bscs7xbW7tJtSgYfo+9hOo&#xA;2xB5L6EymVWAqR9k5lY64tuR5PR6bCMOq4ehB4fx9j7ytrm3uraK5t5Flt50WSGVDVWRxyVlI6gg&#xA;1zJd8vdEdGR1DIwKsrCoIOxBBxV4ZpNk/kLzxc+SZ6jy/q5kv/KsrVKpU8p7Kp/kJqo8Pds5/trR&#xA;2PFj05/rUov8u78+RvPk/k24bh5b8xtJe+XGP2YLsbz2gJ6Bh8SD5d2OZ3Zms8bHv9Uef61e05sl&#xA;dirsVdirsVdirsVdir4i8osW0C2kY1dzKzsepJlbc5rs/wBZfPu3T/hc/wDN/wByE5yp1DsVT78o&#xA;dai0TzRd+XpuKWms1utOkIAInjH7yHl4EfEo7duuYXauE5MYyDnHY+7ve/7F1Qz4rP8AeRoS7z/N&#xA;/HfaX/nh5UGma/F5hgT/AHH6xSC/UD4UulWisf8AjKg+8HxyfZOo44eGfqhuPd+xye0cBnj4o/XD&#xA;cM5/5xq/MM8JPIWqTVmt1afQZHO7wbtJb1PUxfaX/Jr2XN7CXEG7R6kZsYl16vfcm5TDvzU8jN5u&#xA;8rvb2biDXbB1vdDvNgYrqLdRy/lf7Ldu/bIyiJAg8irzOq/mN5CDLWw8y6dLUfsyWeq2h+9asP8A&#xA;gT4jOT9Wi1H9H74/sXk9O/K7zx/i7ytFd3KehrVk7WWt2ZFGiu4fhk+Hsr/aX507Z1sZAixyKsvw&#xA;q7FXYq7FXYq7FXYq+OLzSJPL3mbXfLUyem+n3krWy/zWs7epA4r4owzC1Md7eK9pNMY5Rk/hkPtH&#xA;7F+YzzjsVQWqW9zJDHcWb+nqNlItzZSjqssR5L99MnAjkfpOxdn2Vrfy+YSP0naXu/Y9ktpNL/Mn&#xA;8uqSgRjUYOEyjc291Gd6A7/u5VqK9R885yQlpM/9U/Mf2Poj55ibW9H1NXRmtPMGhXPwyCvwzwN8&#xA;hyV6fIg51cMg2kPpk6En8pqP9rn+Ps+59m/lz54sPOvlOz1y1pHLIPTvrau8Nym0sZ79d1r1Ug5l&#xA;u/ZNirxf8w9PPkXz1D5ytxw8t+YnSz8xxj7EF10gvKDoG+y5+fUsM1vaej8bHt9UeX6lQmoXx8ge&#xA;fLfzhH8PlzXTHYeZ0H2IpK0t7z/Yk0c+Hu2YXYusseFLmOX6lD3JWVlDKQVIqCNwQc36t4q7FXYq&#xA;7FXYq7FXmv5v/lGvnGKHV9IlSy806ehW2uHH7u4i6/V56b8a/ZbtU+ORlEEUWnUaeGaBhMXEvnya&#xA;e80/Un0fXbSTStZh2ktJxTl/lRP9l1NNiDmDkwmPueG7Q7Fy4CSPVj7+73/r5IPzHI0WnpIHKBZ4&#xA;SzAkUHqCtSMGAWfg19kQE8piRZMJV76TXKnVJx+V2vf4f84Po8p46V5hPO3rssd8g3A/4yrt86Zi&#xA;dpYPExcY+qH3fse77C1vjYeA/XDb4dP1L/z38q/U9RtvNtqn7m542mrADYMNoZj9HwE/6vjkOyNR&#xA;xROI8xvH9Ic/X6bxcZA+obhKvya/MH/BPnAC8l4eXdbZINR5H4YZq0iud+gFeL/5Jr2Gb7DOxTi9&#xA;k6vij4cuY5e79j6+BBFR0y53CX+YNC03X9EvdG1OL1rG/iaGdO9G6Mp7Mp3U9jirxXyrbzS2es/l&#xA;p5qHr3ukIbYSsKfWtOkFLe4Qmu6rQV/ZNP2q5y3aeA4Moyw5E/b+39alG+UPzM1LyFpUXlzzvp1/&#xA;LY6axt7HzNbRfWLd7RT+5M/A80KJ8PQmgze6bXY8oFEcXd1Szpvzm/KxdOXUT5nsPq7dFEtZvH+4&#xA;A9YH/YZmIpX/AOVr/l3/AIY/xR+m4P0H6v1f61xkr61K+n6XH1edN+PGtN+mK0yzFXYq7FXYq7FX&#xA;m/562ui3nle1027060v9U1W6Sw0mS7qqW0kgZpLlpEKyIkMSM7cT23xSHlmufkHdSeSJb3yX5lTz&#xA;WqIyzW37qRJuO7fVpYnejr2Ria+PY1+GLvq4MuzsJyDIBwzB5jb5+/r1YB5Y1I32lJ6m1xb/ALmd&#xA;TseS9z06jMLNDhk8V2zo/AzkD6Zbj8e9E6tYteWbJGxjuYyJbaUGhSVN0YHtvkYSo78nH7O1h0+Y&#xA;T6cj7nsXlfV9M/MPyG8GoKDJcRNZ6vbqQHinXZiBvxNQHT6M53UYpaXPcem49342L6QCDuOTy3zN&#xA;+SPm7S4pP0Yya9p1CPTBEN2qf6pPF6D+VqnwzcaftXFM+r0S+xwMnZ8ePjgeCf2PRvyP/Pfy8PJX&#xA;6O836pHZXujBYoLi4Y8rm2NRGVA5M7x8eLUHSh75vXYpj5g/5yv/AC7sOSaTBeaxKPsOkYt4T82m&#xA;KyD/AJF4pp4d5i/OXzT5j84X2s6DYHTr3VLNLA28Be5mCxsWV43Cowfemy09soz6eGWuIXRtNM28&#xA;h+ePzR0mY6d5t0HWNTa4gWXS447Jjck8+PxmifD1qX3GavWdjxnRx1E9e5BCZr+Q2sfmB5jm1vX9&#xA;O/wZpixRpDZwi3lubluTF5JPTKiNtx9tSembHR6c4ocJlxLb0X/oXn8vv8Ef4R43X1T619e+veqv&#xA;1r6zw9Pny4enTh8PHhT2rvmUtvTcUOxV2KuxV2KvnH/nMW8uIrfypBG5RJW1Bn4kgnisCU2PdZWB&#xA;xSHmP5G/mTf+RfMkU90X/wALalKtrqlQTGjH7Mwp+3HWp8Vr7UUl6H+eHk6Hyx52t/MtggTRvNBM&#xA;d7x+xHfgcw9dh+/WrfMMcpzwuPudJ27pPGwcQ+qG/wAOv6/gxTNe8AwHUvM2rwahqMGmerYC6Rre&#xA;/ijJ/foNgXWlK079czo4IkDi3rl5Po/ZODwsEQZcQO48r6B76fzh8n2PlCxMuoi41ebT4m+qWwaa&#xA;VZmhBIcpUIVbryYHOZ/kzLLKajUOI8+63YHbc8njP5a/lVcecZ9YMt2bK00WxN5cyLH6jGQgmKDc&#xA;rxLBGPLelOmdaDaMeUTFjknf/ONflHy55o8+3dlr9il/aW+my3UUEhcKJVngQMQpXl8MjCh2wthf&#xA;YOkaBoWjQfV9I0+20+D/AH3axJCp+YQCuLFH4q7FXYq7FXYq7FXYq7FXkH/ORP5U+YvPmn6PNoJi&#xA;e80l7jlbSuI/US4EdSrH4eSmEbEjrikF595D/KdNd/5xx1KdCJtU1G4l1XTVANUewLQLFT+aQRyr&#xA;/sh4YrbIPy5uF/NL8hL7ytO4bW9FjFtbOSAweAepYSV/ZBC+kT1oreOKl5Zol+19p0csgKzrWO4Q&#xA;ggrImzAg9M1uWHDKnzXtPSfl88ofw8x7j+KSbzBF6WuRSVot1AVIPdoj2+hssgbh7i7PQTMtIQOe&#xA;OYPwP7UIkUECEoiooqTxAHucSSVlkyZZAEmRfRv5JeWjpf5Mapq0ycbzzBDd3r1+0IVjaOBflwXm&#xA;P9bM0Cg9nixiEREdA8w/5xF/8mTqX/bGn/6irbC2l9c4sXYq7FXYq7FXYq7FXYq7FXYq81/5x/8A&#xA;3Xki708/a03V9RtGr1qs5fcjY/b7YpLzLyC6fl3/AM5Gaz5ZkYW+j69zFoCQkQ9X/SbWlevGrQL7&#xA;nFWK+ftPj8u/nD5i02E1sL+ZLuMg1CT3UfrshoKKSxfiP5QMx9RCxfc897Q6PxMQyD6ofd+z9bH/&#xA;ADZGRbWtyKEwTrWv8sgKH9YyjB1HeHRdiyuU8f8APgfmNx+lAW2l3Ws6jY6JZ/71arcxWcRpUD1W&#xA;ALH2UVJyzDGy7TsrDx5gekd/1PfP+civPVr5N8jWnkjRH9K81C2W14qfih06JfSPTvKF9Me3LMt6&#xA;oML/ACR8t+a/y+tB+YuoaM99oWpWTRzC1kreWto0qyfWWtmUeohESt8L1C/F0xSX09peqafqunW+&#xA;padOl1Y3aCW3uIzVXRhUEYsUVirsVdirsVdirsVdirsVdirzT8paWXmn8xdF6GHXm1Hj4DUolkB+&#xA;n0/HFJeZf85geW+FzoPmaJTWRZNOuXHQFCZoPpPKT7sVCa6B5I0bzj/zjtFLolosXmEE6gZ6vJNL&#xA;qdkzIzO7szFpkUgCvEc9gMBDGcRIGJ5HZ5LdSJrHlmV4wC00JPA9pE3p9DLmBEcE3gMEDpNcIn+G&#xA;VfA9fkWSfkImmjzLf+dNVb0tH8pac1zLKd6XFypRVoftN6Yk4gb8qZmY41b2Og0vhCXnI/Icnl3n&#xA;rzhqPnDzTf8AmC/JEl3JWKGtRFCvwxxL7KoHzO/fLHYvTPyI/PLVtB1630PzJqEt35dvisEct1IX&#xA;NnJssbq7k8Yf2XWtAPiHQ1VIe6aKg8hefj5dHweVfNbS3Whp0S01FByubVeyxzL+8jG3xVUDFD0r&#xA;FDsVdirsVdirsVdirsVdirzTSK6Z/wA5Aa/amqp5g0S01EHoGeykNrT3IU/dild/zkP5eGtflRrH&#xA;FeU+mhNQh9vq7fvD/wAiWfFQwL/nD/zB6ui695fdt7W4jvYFPUrcJ6clPZTCv/BYqWMfmT5XHlP8&#xA;x9QsETjpOu8tT0wfsh3P+kwjt8L1YDspGYuphtby/tJpLjHMOcdj7un2/e801PzS1h5LfyRYwtAJ&#xA;NSmvNXmO5n4BUtYx34IFLEdzQ5kRNi3o9Pl8THGf86IPzZ55s/I/W9D/ACe0e8t9Nmuteubz63rM&#xA;UMbSTQxSREQxlVBbjH+3tszHtkm60F+Xn5SXXmL8pfN+rvb0vYZYpNGJBEhewWRrlAOtJEm4AfzD&#xA;2xW3qfkXVLr8z/yQNos5Pm7y26GzuSR6gvLL97ZTVNT+8T92zHqeWKHrnkrzNb+aPKml69AOK38C&#xA;ySRj9iUfBLHv/JIrL9GKE6xV2KuxV2KuxV2KuxV2KvM/zBppX5q/l/r32YrqW70W7boD9ai5Wy1/&#xA;4ygnFL0PVNPg1LTLvTrgVt72GS3mHWqSoUb8Dih8if8AONd/caB+cTaNcn03vIbrTp0OwEsH737+&#xA;UBA+eLIsg/5yc853z+fdL8vCCFbbSxDdRXPEmfncVEq8q09Nk47ca1HXIyFinH1OEZMUoHqCxPyt&#xA;pnluz/NTRdV8x/8AHEluFMjNT0o7lVpAZq/7r9QKW7eO2U6ediu50vs/rhPF4R+qH2j9j7QzIege&#xA;a/kZ+603zXp/T9H+Z9UtwvYKHRxx78fjxSXmn5a/8g+/5yI1vyif3Wk65zFmlaIKqbq1NT14oXiH&#xA;+UcVeqfl6p0Tzj5v8pMCtsLlNc0oGgH1fUgTMiAdFjuY3A+eKvQcUOxV2KuxV2KuxV2KuxV5z+f1&#xA;pcH8vJNXtV5Xvl28tNXtR0o1tKAxr2pG7HFIegWV3Be2cF5btzt7mNJoX8UkUMp+44ofHPnL/nT/&#xA;APnJKS8Hwwx6xb37kbViuyk0oH0SsMWSt/zlRpF/Z/mab24m9a31KzhltBxC+ksdYmiqPtUZOVf8&#xA;qmKh5Zc6/q9zA0E9y0kLUDIQtDT6MgIRHIOJi7PwY5cUYASe6f8AOPH54ahb6ynlbzVfyXNjfcIt&#xA;LvLly5gmUBEhLsa+nIAAPBvmcm5ZD1v8sz9T/MT8ydHO3DULTUVHiL+35kj6U3xQ82/5yz0a70/V&#xA;fLfnPTne3uoibNrmIlXSWFvXtmVh+1vJ92Khn/5DrLr+iDz/AKtqcmq+YdVh+ozu6RRJbQ2srgQR&#xA;xxBV+Jj6hPeoxUvVMUOxV2KuxV2KuxV2KuxVAa/pEGs6FqOkT7Q6jbTWsh8FmjKE/RyxViH5FavN&#xA;qH5Z6VDc7X2k+ppV5GeqPZOYlU/88whxSXg3/OW+lfV/P+nagq0S+05Ax8ZIJXU/8IyYpCd/85MW&#xA;x1vyD5I85IKmaFEncA7/AF23SdK16UMbffigPNfJn5W3fmryXd69o8Ul/qekXvpahpCGjzWkkaMj&#xA;w9P3itzqv7Q6bijAscokYkRNS6PYfym/5x38oan5Qg1PzXpV5DqlzLMRazyTWzxxLIVirGCrAlRX&#xA;fCkE1vzZzZoulf8AOQN3ACVg13y9FMpJPxT2Vx6XHfdiIt6nFKt/zkH5eGt/lRrSqvKfTlXUYT4f&#xA;Vm5SH/kTzxUPPf8AnD/zB6mk6/5fdt7aeK+gU9xMvpSU+RiT78VL6IxQ7FXYq7FXYq7FXYq7FXYq&#xA;8w8iEaB+bPnXyu3wW+q+l5j05PH1/wB1dt/yOA+7FLA/+cxdO5ad5Z1IL/czXVu7f8ZVjdQdv+Kj&#xA;TfFQnGlaE/nf/nFu0sYkMt7FYu1ko3YzafO6oq+7iHh9OK9WN/8AOHFy4n81W3VGWylG/QqZ1O3v&#xA;y/DFS+l8UPM/zK/3GfmR+XfmAfDG19c6PcP2b9IQ8YVPydSR74pei39lBfWNzZXC8re6ieGZfFJF&#xA;KsPuOKHyB/zjteT+WvzpOi3R4vcrd6VcVqB6kRMg2/17en04si+xsWLsVdirsVdirsVdirsVdiry&#xA;/wDNo/4f80+TvPi/BBYXh0rWHGw+pX44B3/yYn+L5nFIST/nLS0E35a2c4HxW2qQvWlfhaGZCK9t&#xA;2GKhHf8AOLV1635UQR1r9WvbmLpSlWEn/MzFSzzyv5B8q+V73VbzQ7MWk2syie+ozFSyliAikkIo&#xA;MjHiu2+KGQ4q87/P2xnm/La81C1Fb3Q7i21W19mtplLH6I2bFIZ5p99Bf2FtfW55W93Ek8J8UkUM&#xA;v4HFD46/Mkf4P/5yJl1JR6cMep2uqcjsGSYpNN9BZnU4sn2bixdirsVdirsVdirsVdirsVSXzr5Z&#xA;tvNHlPVNAuKBNQt2iR26JL9qKT/YSKrfRirwT8wfNNxrv/OOhg1Gq69omoQaVrULfbW5tWKcm8ea&#xA;gNXpWvhill//ADih/wCSvl/7adx/ybixUvZsUOxVBa3pcGr6Nf6Vcf3F/by2svf4ZkKH8GxVhn5E&#xA;6tNfflppltdGl/oxl0m8j/keycxov/IrhikvEf8AnL3SfR846NqgWi3tgYCexe2lYk/PjOuKQ+kv&#xA;ImqnV/JWg6mxq95p9tNIf8tolLj6GrixTzFXYq7FXYq7FXYq7FXYq7FXgH59/k15p1a5uNX8mp68&#xA;WrPC2u6OjJH6k9uGWG6TmVUni5VhWvfepopBej/kv5LvfJ/5eabo+oKE1I+pcXyKQwWWZy3CoJBK&#xA;LxU0NKjFSzjFDsVdirzHyJTQfzY86+WD8Fvqno+Y9OTx9f8AdXbf8jgBilhv/OYOmiTyx5f1Om9t&#xA;ey2wbw+sRc6f9O+Khm3/ADjpqP138oND5NyktvrFu/t6dxJwHU/sFcVL0rFDsVdirsVdirsVdirs&#xA;VdirsVdirsVdirsVeX/msx8v+cfJnnhTwtra7bR9Xbt9VvxRHc9likHL5nFIQX/OUtmJ/wAqJpSK&#xA;/VL22mHtUmL/AJm4qEF/ziXdmb8tLuEne11SdFWtSFaGFwadviY4qXtWKHYq7FXYq7FXYq7FXYq7&#xA;FXYq7FXYq7FXYqkHn3ytD5q8natoEtAb+3ZIXbosy/HC5/1ZFU4q8h85+aJPMn/OL+pXF6CNX076&#xA;pp+rRvT1EvLW+gik5eDOKN/ssU9VX/nEH/lCdZ/7aZ/6h48VL3jFDsVdirsVdirsVdirsVdirsVd&#xA;irsVdirsVdir5s/5yI8u+YPLVt5gvtHgM3lbzeLZtaRan6rf206SrPTeizhaE/zdT9kFSGZf84s+&#xA;XrzSvy0a7u4zG+r3st3ArAg+gESJDQ+JjZh4gjFS9hxQ/wD/2Q==</xmpGImg:image>
               </rdf:li>
            </rdf:Alt>
         </xmp:Thumbnails>
      </rdf:Description>
      <rdf:Description rdf:about=""
            xmlns:xmpMM="http://ns.adobe.com/xap/1.0/mm/"
            xmlns:stRef="http://ns.adobe.com/xap/1.0/sType/ResourceRef#"
            xmlns:stEvt="http://ns.adobe.com/xap/1.0/sType/ResourceEvent#">
         <xmpMM:InstanceID>xmp.iid:0080117407206811822A9DD448A483FF</xmpMM:InstanceID>
         <xmpMM:DocumentID>xmp.did:0080117407206811822A9DD448A483FF</xmpMM:DocumentID>
         <xmpMM:OriginalDocumentID>uuid:5D20892493BFDB11914A8590D31508C8</xmpMM:OriginalDocumentID>
         <xmpMM:RenditionClass>proof:pdf</xmpMM:RenditionClass>
         <xmpMM:DerivedFrom rdf:parseType="Resource">
            <stRef:instanceID>uuid:ba5dc92b-6d0a-484a-ab90-b9370a4a0965</stRef:instanceID>
            <stRef:documentID>xmp.did:0980117407206811822A897E387FE54C</stRef:documentID>
            <stRef:originalDocumentID>uuid:5D20892493BFDB11914A8590D31508C8</stRef:originalDocumentID>
            <stRef:renditionClass>proof:pdf</stRef:renditionClass>
         </xmpMM:DerivedFrom>
         <xmpMM:History>
            <rdf:Seq>
               <rdf:li rdf:parseType="Resource">
                  <stEvt:action>saved</stEvt:action>
                  <stEvt:instanceID>xmp.iid:0080117407206811822A9DD448A483FF</stEvt:instanceID>
                  <stEvt:when>2018-09-05T11:37:38-03:00</stEvt:when>
                  <stEvt:softwareAgent>Adobe Illustrator CS6 (Macintosh)</stEvt:softwareAgent>
                  <stEvt:changed>/</stEvt:changed>
               </rdf:li>
            </rdf:Seq>
         </xmpMM:History>
      </rdf:Description>
      <rdf:Description rdf:about=""
            xmlns:illustrator="http://ns.adobe.com/illustrator/1.0/">
         <illustrator:StartupProfile>Print</illustrator:StartupProfile>
      </rdf:Description>
      <rdf:Description rdf:about=""
            xmlns:xmpTPg="http://ns.adobe.com/xap/1.0/t/pg/"
            xmlns:stDim="http://ns.adobe.com/xap/1.0/sType/Dimensions#"
            xmlns:xmpG="http://ns.adobe.com/xap/1.0/g/">
         <xmpTPg:HasVisibleOverprint>False</xmpTPg:HasVisibleOverprint>
         <xmpTPg:HasVisibleTransparency>False</xmpTPg:HasVisibleTransparency>
         <xmpTPg:NPages>1</xmpTPg:NPages>
         <xmpTPg:MaxPageSize rdf:parseType="Resource">
            <stDim:w>21.000131</stDim:w>
            <stDim:h>29.700013</stDim:h>
            <stDim:unit>Centimeters</stDim:unit>
         </xmpTPg:MaxPageSize>
         <xmpTPg:PlateNames>
            <rdf:Seq>
               <rdf:li>Cyan</rdf:li>
               <rdf:li>Magenta</rdf:li>
               <rdf:li>Yellow</rdf:li>
               <rdf:li>Black</rdf:li>
            </rdf:Seq>
         </xmpTPg:PlateNames>
         <xmpTPg:SwatchGroups>
            <rdf:Seq>
               <rdf:li rdf:parseType="Resource">
                  <xmpG:groupName>Default Swatch Group</xmpG:groupName>
                  <xmpG:groupType>0</xmpG:groupType>
               </rdf:li>
            </rdf:Seq>
         </xmpTPg:SwatchGroups>
      </rdf:Description>
      <rdf:Description rdf:about=""
            xmlns:pdf="http://ns.adobe.com/pdf/1.3/">
         <pdf:Producer>Adobe PDF library 10.01</pdf:Producer>
      </rdf:Description>
   </rdf:RDF>
</x:xmpmeta>
                                                                                                    
                                                                                                    
                                                                                                    
                                                                                                    
                                                                                                    
                                                                                                    
                                                                                                    
                                                                                                    
                                                                                                    
                                                                                                    
                                                                                                    
                                                                                                    
                                                                                                    
                                                                                                    
                                                                                                    
                                                                                                    
                                                                                                    
                                                                                                    
                                                                                                    
                                                                                                    
                           
<?xpacket end="w"?>
	</metadata>
<g>
	<path fill="none" d="M42.901-0.212L13.986-47.825l0.327,2.525c0.097,0.571,0.717,5.378-4.933,6.662
		c-0.239,0.054-0.48,0.108-0.721,0.163c-0.026,0.097-0.061,0.193-0.122,0.28c-0.049,0.071-4.895,7.14-1.496,12.354
		c3.74,5.735,20.794,32.934,20.966,33.208c0.009,0.015,0.01,0.032,0.018,0.048l12.771-3.205l2.474-0.686
		C42.519,1.995,42.719,0.511,42.901-0.212z"/>
	<path fill="none" d="M28.554,12.472L17.721,44.217c-0.073,0.212-0.222,0.372-0.402,0.476l0.65,2.935l13.132-22.463V11.781
		l-2.544,0.66C28.555,12.452,28.558,12.462,28.554,12.472z"/>
	<path fill="none" d="M35.891,40.947l-0.245,4.403c-0.001,0.011-0.006,0.021-0.007,0.033c0.004,0.959-0.344,1.872-1.001,2.575
		c-0.177,0.189-0.372,0.355-0.578,0.501c0.024,0.705,0.056,1.437,0.1,2.218c0.529,9.382,2.351,21.625,5.131,34.471
		c2.718,12.557,6.048,24.268,9.375,32.974c2.385,6.238,4.195,9.474,5.448,11.153c1.549-7.125-0.355-26.019-4.746-46.309
		C44.912,62.39,39.716,47.627,35.891,40.947z"/>
	<polygon fill="none" points="19.281,52.364 18.766,51.222 18.967,52.124 19.216,52.474 	"/>
	<path fill="none" d="M56.179,127.561c-0.008,0.075-0.017,0.149-0.025,0.223l0.029-0.068L56.179,127.561z"/>
	<path fill="none" d="M-11.282,20.93c-0.7-1.602-1.332-3.009-1.863-4.193c-0.459-0.945-0.903-1.791-1.33-2.537l-0.245,4.408
		c0,0.012-0.006,0.022-0.007,0.034c0.004,0.958-0.343,1.87-1,2.573c-0.177,0.189-0.371,0.355-0.577,0.501
		c0.024,0.705,0.056,1.437,0.1,2.218c0.528,9.383,2.352,21.625,5.131,34.472c2.719,12.557,6.048,24.267,9.375,32.974
		c2.384,6.236,4.194,9.472,5.447,11.152c1.547-7.128-0.356-26.018-4.747-46.307C-4.305,40.948-8.022,28.873-11.282,20.93z"/>
	<path fill="#D7E16E" d="M-21.089-44.387c0.348-0.349,0.617-0.637,0.767-0.831c-1.197-2.303-2.129-4.114-2.682-5.219
		c-2.352-4.703-1.531-8.596-0.429-11.033c1.095-2.418,2.658-3.892,2.957-4.161c0.595-0.66,8.795-9.782,11.705-13.81
		c2.596-3.596,1.869-10.049,1.732-11.08c-2.021-2.237-3.203-4.279-3.686-5.207c-0.902,1.251-1.794,2.454-2.669,3.549
		c-8.091,10.116-21.524,10.784-24.927,10.784c-0.435,0-0.705-0.011-0.781-0.014c-0.492-0.023-0.872-0.441-0.851-0.934
		c0.022-0.492,0.437-0.872,0.934-0.851c0.185,0.008,15.693,0.572,24.23-10.101c2.152-2.691,4.398-5.968,6.776-9.439
		c7.421-10.832,15.833-23.112,24.354-20.677c0.476,0.136,0.748,0.629,0.613,1.104c-0.041,0.145-0.124,0.263-0.221,0.364
		c0.471,0.364,0.742,0.68,0.742,0.68l1.026-0.514c-0.116-0.304-0.071-0.662,0.16-0.921c0.084-0.096,0.868-0.931,2.236-0.931h0.021
		c1.333,0.008,2.693,0.801,4.039,2.356c0.238,0.274,0.562,0.621,0.936,1.024c2.239,2.417,6.414,6.915,9.354,13.645
		c3.612,8.265,4.21,17.296,1.777,26.84c-0.102,0.404-0.463,0.672-0.863,0.672c-0.073,0-0.146-0.009-0.22-0.028
		c-0.479-0.122-0.768-0.608-0.646-1.085c3.074-12.059,0.685-21.343-2.777-28.004c-0.867,7.307-3.44,16.38-10.487,21.909
		c-4.674,3.667-9.062,4.011-9.247,4.024c-0.413,0.018-0.821,0.026-1.222,0.026c-0.7,0-1.374-0.035-2.036-0.085
		c-0.001,0.003,0,0.006-0.002,0.009L6.219-75.01c-0.017,0.034-0.034,0.068-0.054,0.1c-0.006,0.012-0.321,0.539-0.589,1.306
		c1.021,0.264,5.251,1.62,7.929,6.528c0.709,1.299,3.487,6.013,7.24,12.328C33.203-63.669,35.913-71.79,35.94-71.871
		c0.011-0.034,0.023-0.07,0.04-0.102c2.929-6.401,4.499-12.826,4.669-19.1c0.146-5.482-0.769-10.869-2.72-16.012
		c-4.401-11.584-13.37-19.933-19.845-22.788c-1.835-0.81-3.987-0.884-5.679-0.756c4.117,2.081,5.522,4.89,5.618,5.088
		c0.21,0.445,0.021,0.978-0.423,1.189s-0.975,0.023-1.188-0.417c-0.146-0.297-3.716-7.259-17.389-6.207
		c-11.646,0.895-25.071,21.347-32.284,32.333c-1.505,2.294-2.695,4.104-3.589,5.32c-6.269,8.506-13.598,12.529-19.605,10.762
		c-4.43-1.303-6.499-4.727-7.416-7.034c-0.885,1.994-2.089,5.403-2.333,9.587c-0.522,8.996,3.412,17.15,11.699,24.236
		C-41.491-44.644-26.073-44.202-21.089-44.387z"/>
	<path fill="#259F48" d="M2.043-41.312c1.605-0.104,3.063-0.742,4.202-1.742l-4.202-4.203V-41.312z"/>
	<path fill="#259F48" d="M23.064,71.527c0.205,0.197,0.504,0.389,0.685,0.451c0.102-0.498,0.138-1.613,0.125-3.04l-3.007,0.126
		C21.738,70.047,22.528,70.931,23.064,71.527z"/>
	<path fill="#259F48" d="M-5.484-47.913c0.104,1.605,0.743,3.064,1.743,4.204l4.203-4.204H-5.484z"/>
	<path fill="#259F48" d="M2.699-47.913l4.202,4.203c1-1.139,1.637-2.598,1.742-4.203H2.699z"/>
	<path fill="#259F48" d="M17.265,52.687L9.323,16.874c-0.934-0.137-1.743-0.818-1.987-1.789c-0.322-1.288,0.462-2.595,1.748-2.918
		l2.3-0.534c-1.705-1.042-3.299-3.269-3.892-4.157C7.478,7.45,7.463,7.425,7.448,7.399c-0.215-0.406-17.943-33.789-26.5-50.178
		c-0.06,0.021-0.114,0.051-0.179,0.059c-0.055,0.006-0.443,0.05-1.101,0.089c-0.466,0.451-1.028,0.979-1.715,1.623
		c-2.061,1.929-4.625,4.328-6.062,6.245c-2.2,2.934-6.981,10.976-3.859,22.262c1.923,6.953,11.271,11.946,17.423,14.543
		c0.622,0.14,1.248,0.397,1.879,0.761c0.932,0.362,1.73,0.65,2.339,0.86c-0.212-0.448-0.405-0.854-0.557-1.168
		c-1.329-2.756-1.84-5.964-1.523-9.532c0.044-0.491,0.478-0.853,0.969-0.811c0.49,0.044,0.852,0.478,0.809,0.969
		c-0.287,3.244,0.167,6.136,1.354,8.599c3.22,6.687,20.75,44.949,21.165,45.854c0.179,0.361,2.605,5.288,2.605,7.944
		c0,0.651,0.002,1.397,0.022,2.161c0.263,0.696,0.526,1.444,0.785,2.242l6.837-0.288l-4.73-6.621
		C17.34,52.914,17.291,52.804,17.265,52.687z"/>
	<path fill="#259F48" d="M1.117-49.495v-5.943c-1.604,0.104-3.062,0.742-4.201,1.741L1.117-49.495z"/>
	<path fill="#259F48" d="M2.043-55.438v5.945l4.203-4.203C5.107-54.696,3.648-55.334,2.043-55.438z"/>
	<path fill="#259F48" d="M8.642-48.839c-0.104-1.604-0.742-3.063-1.741-4.202L2.7-48.839H8.642z"/>
	<path fill="#259F48" d="M1.117-41.312v-5.943l-4.202,4.202C-1.946-42.055-0.488-41.417,1.117-41.312z"/>
	<path fill="#259F48" d="M16.734-121.942c-0.222,0.231-0.553,0.344-0.881,0.25c-5.7-1.629-11.853,5.188-17.652,13.183
		c1.082-0.231,2.134-0.362,3.138-0.362c8.671,0,11.497,8.592,11.524,8.679c0.075,0.235,0.049,0.491-0.072,0.706
		c-0.121,0.216-0.326,0.372-0.564,0.431c-2.002,0.493-3.875,0.743-5.566,0.743H6.657c-5.214,0-7.965-2.357-9.353-4.332
		c-0.678-0.964-1.092-1.917-1.354-2.692c-0.841,1.208-1.672,2.42-2.49,3.614c-1.045,1.526-2.062,3.003-3.063,4.425
		c0.101,0.084,0.189,0.185,0.247,0.313c0.027,0.062,1.607,3.479,5.102,6.756c1.115,1.046,2.293,1.952,3.524,2.735l0.108-0.126
		c0,0-0.011-0.01-0.03-0.025c0.012,0.009,1.299,0.855,4.342-1.427c3.503-2.627,8.934-7.376,9.562-7.927
		c0.274-0.333,1.279-1.42,2.787-1.464c1.153-0.035,2.257,0.552,3.264,1.742c1.863,2.202,3.736,4.78,4.658,6.077
		c2.046-2.43,3.674-5.44,4.863-8.956c-0.93,0.69-2.004,1.054-3.208,1.054c-1.031,0-2.158-0.268-3.346-0.796
		c-0.38-0.17-0.594-0.579-0.515-0.986c0.07-0.356,1.757-8.72,6.955-8.72c0.667,0,1.358,0.157,2.062,0.439
		c0.066-0.582,0.126-1.17,0.176-1.769c0.012-0.138,0.06-0.262,0.125-0.374c-2.35-3.812-4.896-6.564-6.49-8.284
		c-0.384-0.415-0.716-0.773-0.972-1.069c-0.968-1.116-1.89-1.717-2.669-1.739c-0.595-0.014-0.943,0.33-0.957,0.345
		c-0.328,0.368-0.886,0.395-1.256,0.067c-0.109-0.097-0.178-0.218-0.227-0.346l-1.026,0.514
		C17.475-121.262,17.205-121.578,16.734-121.942z"/>
	<path fill="#259F48" d="M-3.74-53.041c-1,1.139-1.639,2.597-1.743,4.202h5.944L-3.74-53.041z"/>
	<path fill="#259F48" d="M30.384-35.11C21.768-49.512,13.287-63.75,11.939-66.221c-2.268-4.157-5.821-5.38-6.727-5.632
		c-0.031,0.588,0.039,1.199,0.299,1.769c0.204,0.449,0.006,0.979-0.443,1.183c-0.121,0.053-0.247,0.079-0.37,0.079
		c-0.339,0-0.664-0.194-0.814-0.522C3.193-70.866,3.38-72.479,3.74-73.72l-8.811-14.611c0.1,2.734-0.144,7.014-2.253,9.935
		c-3.061,4.238-11.502,13.602-11.859,13.999c-0.026,0.028-0.053,0.055-0.082,0.08c-0.246,0.214-6.016,5.336-2.143,13.082
		c1.896,3.793,8.247,15.873,14.659,28.015c0.919-1.099,2.908-2.94,5.886-2.988l-13.4-25.152c-0.231-0.435-0.067-0.976,0.368-1.207
		c0.434-0.232,0.977-0.068,1.207,0.368l7.862,14.757c0.701-0.141,4.164-0.838,8.249-1.713c-0.597,0.119-1.213,0.184-1.844,0.184
		c-5.187,0-9.404-4.219-9.404-9.404s4.219-9.404,9.404-9.404s9.404,4.219,9.404,9.404c0.001,4.513-3.195,8.29-7.442,9.195
		c1.762-0.378,3.63-0.787,5.441-1.198c4.285-0.974,3.602-4.462,3.573-4.609c-0.007-0.023-0.011-0.045-0.013-0.069l-0.853-6.58
		c-0.089-0.186-0.119-0.388-0.075-0.578L10.893-57.8c-0.063-0.489,0.281-0.936,0.771-1c0.487-0.063,0.938,0.281,1,0.77l0.755,5.831
		l12.04,19.827C25.991-33.447,27.298-34.984,30.384-35.11z"/>
	<path fill="#D7E16E" d="M16.091-96.676c-0.833,0.024-1.47,0.825-1.476,0.834c-0.036,0.048-0.078,0.094-0.124,0.134
		c-0.025,0.022-1.098,0.965-2.606,2.254l7.699-0.084c-0.532-0.681-1.087-1.372-1.643-2.028
		C17.302-96.32,16.687-96.697,16.091-96.676z"/>
	<path fill="#D7E16E" d="M9.435-91.384c-1.582,1.319-3.277,2.695-4.676,3.744c-1.073,0.804-2.006,1.295-2.809,1.586
		c3.246,1.478,6.823,2.161,10.716,1.996c0.22-0.02,4.196-0.419,8.35-3.715c0.594-0.472,1.158-0.988,1.703-1.533
		c-0.332-0.471-0.874-1.231-1.542-2.134c-1.653,2.421-3.54,3.648-5.627,3.648c-0.184,0-0.368-0.01-0.557-0.028
		C12.389-88.085,10.249-90.226,9.435-91.384z"/>
	<path fill="#FFFFFF" d="M15.369-89.225c1.621,0.069,3.141-0.907,4.532-2.887l-9.16,0.101C11.454-91.096,13.28-89.314,15.369-89.225
		z"/>
	<path fill="#046C2F" d="M4.613-75.792l3.049-6.75c-5.784-0.864-9.979-3.538-12.741-6.022c0.003,0.076,0.006,0.155,0.009,0.233
		L3.74-73.72C4.05-74.785,4.487-75.577,4.613-75.792z"/>
	<path fill="#046C2F" d="M6.305-37.953c-4.443,0.974-8.67,1.835-10.253,2.155L15.977,1.6c0.683,0.364,2.747,1.439,4.627,2.191
		c2.146,0.86,3.869,1.699,4.232,1.878c-4.403-7.016-16.252-25.88-19.29-30.536c-1.697-2.604-1.961-5.927-0.763-9.613
		C5.248-35.905,5.838-37.11,6.305-37.953z"/>
	<path fill="#046C2F" d="M26.216,7.868c-0.186-0.295-0.46-0.733-0.81-1.292c-0.001,0.009,0.002,0.018,0.001,0.026l-0.159,1.508
		L26.216,7.868z"/>
	<path fill="#046C2F" d="M15.365,18.115c-0.167,0.001-0.332-0.046-0.477-0.137c-0.227-0.142-0.375-0.379-0.409-0.644l-0.189-1.503
		l-3.193,0.792l5.574,25.145l9.825-28.791l-1.813,0.47l-0.116,1.1c-0.038,0.348-0.273,0.642-0.606,0.753l-8.313,2.771
		C15.555,18.1,15.459,18.115,15.365,18.115z"/>
	<path fill="#D7E16E" d="M-6.748-23.22C0.845-8.841,8.527,5.626,9.004,6.522c1.494,2.227,3.484,4.104,4.112,3.871
		c0.163-0.062,0.328-0.056,0.487-0.023l-0.116-0.918c-0.062-0.489,0.285-0.935,0.774-0.997c0.489-0.061,0.936,0.285,0.997,0.774
		l0.856,6.803l6.737-2.246l0.46-4.35c-0.024-0.153-0.004-0.3,0.046-0.438l0.208-1.961c-0.724-0.344-2.077-0.968-3.625-1.587
		c-2.381-0.954-4.944-2.347-5.053-2.405c-0.151-0.083-0.277-0.21-0.36-0.364l-15.39-28.889C-3.84-26.161-5.829-24.319-6.748-23.22z"
		/>
	<path fill="#D7E16E" d="M49.951-2.472C49.204-3.715,39.716-19.51,30.384-35.11c-3.086,0.126-4.392,1.664-4.924,2.738L44.633-0.799
		c0.146,0.239,0.171,0.533,0.067,0.792c-0.026,0.067-0.584,1.633,0.405,3.135l1.936-0.486c-0.17-0.234-0.238-0.538-0.128-0.829
		C47.085,1.351,47.6,1.117,48.06,1.29l4.146,1.549c0.301,0.114,0.52,0.38,0.569,0.699l0.352,2.238l6.102-1.627l0.791-2.965
		l-9.593-3.271C50.228-2.155,50.059-2.292,49.951-2.472z"/>
	<path fill="#D7E16E" d="M10.985-48.376c0-5.185-4.219-9.404-9.404-9.404s-9.404,4.219-9.404,9.404s4.218,9.404,9.404,9.404
		c0.631,0,1.247-0.065,1.844-0.184c0.04-0.009,0.079-0.017,0.119-0.025C7.79-40.086,10.986-43.863,10.985-48.376z M-3.74-53.041
		l4.201,4.202h-5.944C-5.379-50.444-4.741-51.902-3.74-53.041z M-5.484-47.913h5.946l-4.203,4.204
		C-4.741-44.849-5.379-46.308-5.484-47.913z M1.117-41.312c-1.605-0.104-3.063-0.742-4.202-1.742l4.202-4.202V-41.312z
		 M1.117-49.495l-4.201-4.202c1.139-0.999,2.597-1.637,4.201-1.741V-49.495z M8.642-48.839H2.7l4.202-4.202
		C7.901-51.902,8.538-50.443,8.642-48.839z M2.043-55.438c1.605,0.104,3.064,0.742,4.203,1.742l-4.203,4.203V-55.438z M2.043-41.312
		v-5.944l4.202,4.203C5.106-42.055,3.648-41.417,2.043-41.312z M2.699-47.913h5.943C8.538-46.308,7.9-44.849,6.901-43.71
		L2.699-47.913z"/>
	<path fill="#FFFFFF" d="M6.658-100.098H6.66c1.269,0,2.655-0.156,4.139-0.464c-0.9-1.991-3.6-6.523-9.459-6.523
		c-1.218,0.001-2.521,0.199-3.886,0.59C-2.085-104.684-0.236-100.098,6.658-100.098z"/>
	<path fill="#FFFFFF" d="M24.796-103.8c-0.565,1.176-0.927,2.369-1.119,3.1c0.697,0.246,1.347,0.37,1.938,0.37
		c3.581,0,4.621-4.796,4.875-6.463c-0.632-0.312-1.228-0.469-1.779-0.469C26.849-107.262,25.554-105.38,24.796-103.8z"/>
	<path fill="#231F20" d="M67.957-0.126c-0.155-0.623-0.545-1.148-1.096-1.478S65.662-2.03,65.04-1.873l-4.651,1.167
		c-0.059,0.015-0.104,0.05-0.156,0.074l-8.919-3.041C49.422-6.82,32.26-35.395,21.662-53.208
		c12.685-9.04,15.682-17.232,15.961-18.068c5.648-12.37,6.33-24.971,1.974-36.442c-4.583-12.064-13.991-20.788-20.791-23.788
		c-4.026-1.777-9.062-0.577-9.71-0.411c-2.638-0.757-5.987-1.163-10.21-0.838c-12.52,0.963-26.258,21.891-33.639,33.134
		c-1.492,2.272-2.669,4.065-3.535,5.241c-5.803,7.876-12.406,11.655-17.664,10.109c-5.703-1.679-6.782-7.613-6.824-7.863
		c-0.062-0.367-0.344-0.657-0.707-0.729c-0.364-0.074-0.736,0.087-0.933,0.403c-0.128,0.204-3.127,5.097-3.565,12.264
		c-0.405,6.61,1.402,16.449,12.314,25.781c8.504,7.272,17.945,10.066,24.368,11.128c3.344,0.554,6.202,0.71,8.303,0.723
		c-0.091,0.085-0.183,0.171-0.271,0.253c-2.112,1.976-4.74,4.435-6.271,6.476c-2.357,3.145-7.484,11.76-4.151,23.809
		c1.846,6.672,9.462,11.536,15.658,14.483c-3.245,1.592-4.513,6.614-4.185,16.324c0.01,0.28,0.055,0.55,0.122,0.81
		c0.027,0.284,0.066,0.547,0.131,0.763c0.357,1.186,1.284,1.876,2.551,1.917c0.303,0.078,0.615,0.133,0.942,0.133
		c0.043,0,0.085-0.001,0.128-0.002c0.093-0.003,0.181-0.026,0.272-0.036c0.022,0.542,0.049,1.098,0.082,1.668
		c0.532,9.474,2.368,21.814,5.169,34.75c2.735,12.642,6.093,24.445,9.452,33.234c3.631,9.494,6.648,14.108,9.227,14.108
		c0.156,0,0.311-0.016,0.46-0.048c1.452-0.314,2.384-2.009,2.846-5.18c0.393-2.687,0.458-6.403,0.195-11.047
		c-0.533-9.474-2.369-21.815-5.168-34.749c-1.51-6.974-3.208-13.689-4.992-19.787c0.222-0.024,0.443-0.062,0.659-0.125
		c1.67-0.493,2.727-2.054,2.673-3.719c4.161,9.054,7.659,16.689,7.738,16.861c0.004,0.01,0.008,0.019,0.012,0.028
		c0.471,0.939,1.462,3.123,2.021,5.003c-0.505-0.566-0.913-0.693-1.25-0.693c-0.082,0-0.164,0.008-0.245,0.026
		c-1.15,0.25-1.552,1.96-1.339,5.719c0.031,0.55,0.08,1.14,0.137,1.745l-0.349,0.015c-0.273,0.012-0.519,0.173-0.637,0.419
		c-0.119,0.247-0.093,0.54,0.069,0.76l1.264,1.729c0.293,2.078,0.695,4.33,1.197,6.646c0.889,4.111,1.982,7.953,3.077,10.819
		c1.645,4.304,2.685,4.856,3.409,4.856c0.082,0,0.164-0.009,0.243-0.027c1.151-0.249,1.552-1.958,1.341-5.718
		c-0.163-2.877-0.695-6.566-1.505-10.461l0.853-0.036c1.622,1.842,3.059,3.44,3.187,3.582c0.011,0.011,0.021,0.022,0.031,0.033
		c0.575,0.574,1.351,1.003,2.082,1.003c0.43,0,0.844-0.146,1.196-0.499c0.285-0.284,0.628-0.64,0.594-4.417l5.546-0.234
		c0.274-0.011,0.52-0.172,0.639-0.419c0.117-0.246,0.092-0.538-0.07-0.759l-5.601-7.658c-0.146-0.2-0.378-0.314-0.63-0.303
		l-1.276,0.054l-3.925-5.494c0.025-0.032,0.053-0.059,0.074-0.095l7.715-13.091c-0.042,1.42-0.04,2.96,0.018,4.66
		c0.01,0.282,0.056,0.553,0.123,0.815c0.027,0.281,0.067,0.542,0.131,0.755c0.355,1.186,1.281,1.875,2.545,1.918
		c0.304,0.079,0.618,0.134,0.947,0.134c0.044,0,0.086-0.001,0.129-0.002c0.092-0.003,0.18-0.026,0.271-0.036
		c0.022,0.542,0.049,1.097,0.081,1.667c0.534,9.474,2.369,21.814,5.169,34.75c2.736,12.641,6.095,24.445,9.454,33.234
		c3.628,9.493,6.648,14.108,9.227,14.108c0.155,0,0.31-0.016,0.461-0.048c1.452-0.315,2.382-2.009,2.845-5.18
		c0.391-2.687,0.458-6.404,0.196-11.047c-0.535-9.474-2.37-21.813-5.17-34.75c-1.509-6.973-3.208-13.688-4.992-19.786
		c0.222-0.024,0.442-0.062,0.659-0.125c1.981-0.584,3.121-2.672,2.537-4.656c-2.284-7.754-5.281-14.915-8.44-20.165
		c-2.929-4.871-5.669-7.594-8.333-8.28c0.37-0.819,0.595-1.932,0.673-3.374c0-0.016,0.005-0.032,0.005-0.048V10.337l14.769-3.833
		l0.083,0.528c0.039,0.25,0.182,0.471,0.395,0.61c0.146,0.095,0.316,0.144,0.487,0.144c0.076,0,0.153-0.011,0.228-0.03l7.559-2.016
		c0.309-0.083,0.551-0.324,0.634-0.633l0.273-1.02l5.118-1.296C67.497,2.468,68.281,1.159,67.957-0.126z M-54.503-55.772
		c-8.287-7.086-12.222-15.24-11.699-24.236c0.244-4.184,1.448-7.593,2.333-9.587c0.917,2.307,2.986,5.73,7.416,7.034
		c6.008,1.767,13.337-2.256,19.605-10.762c0.894-1.216,2.084-3.026,3.589-5.32c7.213-10.986,20.638-31.438,32.284-32.333
		c13.673-1.052,17.243,5.91,17.389,6.207c0.213,0.44,0.744,0.628,1.188,0.417s0.633-0.744,0.423-1.189
		c-0.096-0.199-1.501-3.007-5.618-5.088c1.692-0.127,3.844-0.054,5.679,0.756c6.475,2.855,15.443,11.204,19.845,22.788
		c1.951,5.143,2.866,10.53,2.72,16.012c-0.17,6.274-1.74,12.699-4.669,19.1c-0.017,0.032-0.029,0.068-0.04,0.102
		c-0.027,0.082-2.737,8.202-15.194,17.123c-3.753-6.315-6.531-11.028-7.24-12.328c-2.678-4.908-6.908-6.264-7.929-6.528
		c0.268-0.767,0.583-1.294,0.589-1.306c0.02-0.032,0.037-0.066,0.054-0.1l3.305-7.315c0.001-0.003,0.001-0.006,0.002-0.009
		c0.662,0.05,1.336,0.085,2.036,0.085c0.4,0,0.809-0.008,1.222-0.026c0.186-0.013,4.573-0.357,9.247-4.024
		c7.047-5.529,9.621-14.603,10.487-21.909c3.462,6.661,5.852,15.945,2.777,28.004c-0.122,0.477,0.167,0.963,0.646,1.085
		c0.073,0.019,0.146,0.028,0.22,0.028c0.4,0,0.762-0.268,0.863-0.672c2.433-9.544,1.835-18.575-1.777-26.84
		c-2.94-6.73-7.115-11.228-9.354-13.645c-0.374-0.403-0.697-0.75-0.936-1.024c-1.346-1.555-2.706-2.348-4.039-2.356h-0.021
		c-1.368,0-2.152,0.835-2.236,0.931c-0.231,0.26-0.275,0.617-0.16,0.921c0.049,0.128,0.118,0.249,0.227,0.346
		c0.37,0.328,0.928,0.301,1.256-0.067c0.014-0.015,0.362-0.359,0.957-0.345c0.779,0.022,1.701,0.623,2.669,1.739
		c0.256,0.296,0.588,0.654,0.972,1.069c1.595,1.719,4.141,4.472,6.49,8.284c-0.065,0.112-0.113,0.235-0.125,0.374
		c-0.049,0.599-0.109,1.188-0.176,1.769c-0.704-0.282-1.395-0.439-2.062-0.439c-5.198,0-6.885,8.364-6.955,8.72
		c-0.079,0.407,0.135,0.816,0.515,0.986c1.188,0.528,2.314,0.796,3.346,0.796c1.204,0,2.278-0.364,3.208-1.054
		c-1.189,3.516-2.817,6.526-4.863,8.956c-0.922-1.297-2.795-3.875-4.658-6.077c-1.007-1.19-2.11-1.777-3.264-1.742
		c-1.508,0.044-2.513,1.131-2.787,1.464c-0.628,0.551-6.059,5.3-9.562,7.927c-3.043,2.282-4.33,1.436-4.342,1.427
		c0.02,0.015,0.03,0.025,0.03,0.025l-0.108,0.126c-1.231-0.783-2.409-1.689-3.524-2.735c-3.494-3.277-5.074-6.694-5.102-6.756
		c-0.058-0.128-0.146-0.229-0.247-0.313c1-1.422,2.018-2.899,3.063-4.425c0.818-1.194,1.649-2.407,2.49-3.614
		c0.262,0.776,0.676,1.729,1.354,2.692c1.388,1.975,4.139,4.332,9.353,4.332h0.002c1.691,0,3.564-0.25,5.566-0.743
		c0.238-0.059,0.443-0.215,0.564-0.431c0.121-0.215,0.147-0.471,0.072-0.706c-0.027-0.087-2.854-8.679-11.524-8.679
		c-1.004,0-2.056,0.131-3.138,0.362c5.799-7.995,11.952-14.812,17.652-13.183c0.329,0.094,0.66-0.019,0.881-0.25
		c0.098-0.102,0.18-0.219,0.221-0.364c0.135-0.475-0.138-0.968-0.613-1.104c-8.521-2.435-16.933,9.845-24.354,20.677
		c-2.378,3.471-4.624,6.748-6.776,9.439c-8.537,10.673-24.046,10.109-24.23,10.101c-0.497-0.021-0.911,0.359-0.934,0.851
		c-0.021,0.493,0.358,0.911,0.851,0.934c0.076,0.003,0.347,0.014,0.781,0.014c3.402,0,16.836-0.668,24.927-10.784
		c0.875-1.095,1.767-2.298,2.669-3.549c0.483,0.927,1.665,2.97,3.686,5.207c0.136,1.03,0.864,7.484-1.732,11.08
		c-2.91,4.028-11.11,13.15-11.705,13.81c-0.299,0.269-1.862,1.743-2.957,4.161c-1.103,2.437-1.923,6.33,0.429,11.033
		c0.553,1.105,1.484,2.916,2.682,5.219c-0.149,0.194-0.418,0.482-0.767,0.831C-26.073-44.202-41.491-44.644-54.503-55.772z
		 M19.901-92.112c-1.391,1.98-2.911,2.957-4.532,2.887c-2.089-0.089-3.915-1.871-4.628-2.787L19.901-92.112z M11.885-93.454
		c1.508-1.289,2.582-2.232,2.606-2.254c0.046-0.04,0.088-0.086,0.124-0.134c0.006-0.009,0.643-0.81,1.476-0.834
		c0.597-0.021,1.211,0.356,1.85,1.11c0.556,0.656,1.111,1.348,1.643,2.028L11.885-93.454z M14.993-87.82
		c0.188,0.018,0.373,0.028,0.557,0.028c2.088,0,3.974-1.227,5.627-3.648c0.668,0.903,1.21,1.663,1.542,2.134
		c-0.544,0.544-1.108,1.061-1.703,1.533c-4.153,3.296-8.13,3.695-8.35,3.715c-3.893,0.165-7.471-0.519-10.716-1.996
		c0.803-0.291,1.736-0.782,2.809-1.586c1.398-1.049,3.094-2.425,4.676-3.744C10.249-90.226,12.389-88.085,14.993-87.82z
		 M30.49-106.793c-0.254,1.667-1.294,6.463-4.875,6.463c-0.592,0-1.241-0.124-1.938-0.37c0.192-0.731,0.554-1.924,1.119-3.1
		c0.759-1.58,2.054-3.462,3.915-3.462C29.262-107.262,29.858-107.105,30.49-106.793z M-2.546-106.495
		c1.365-0.391,2.668-0.589,3.886-0.59c5.859,0,8.559,4.532,9.459,6.523c-1.483,0.308-2.87,0.464-4.139,0.464H6.658
		C-0.236-100.098-2.085-104.684-2.546-106.495z M3.748,102.532c-1.253-1.68-3.063-4.916-5.447-11.152
		c-3.327-8.707-6.656-20.417-9.375-32.974c-2.779-12.847-4.603-25.089-5.131-34.472c-0.044-0.781-0.075-1.513-0.1-2.218
		c0.207-0.146,0.4-0.312,0.577-0.501c0.657-0.703,1.004-1.614,1-2.573c0.001-0.012,0.007-0.022,0.007-0.034l0.245-4.408
		c0.427,0.747,0.871,1.592,1.33,2.537c0.531,1.184,1.163,2.591,1.863,4.193c3.26,7.942,6.977,20.018,10.283,35.295
		C3.391,76.514,5.295,95.403,3.748,102.532z M-0.645,33.477c-0.183,0.054-0.369,0.081-0.557,0.081c-0.863,0-1.639-0.579-1.883-1.41
		C-7.155,18.331-12.123,10.841-14.44,8.566c-0.193-0.216-1.44-1.545-3.037-1.545c-0.376,0-0.74,0.074-1.084,0.221
		c-0.482,0.207-0.944,0.775-1.385,1.671c0.751-3.887,2.181-4.855,3.509-5.143c0.237-0.051,0.48-0.078,0.72-0.078
		c2.373,0,5.114,2.556,8.146,7.596c3.079,5.124,6.013,12.137,8.257,19.749C0.991,32.077,0.394,33.171-0.645,33.477z M23.749,71.978
		c-0.181-0.062-0.479-0.254-0.685-0.451c-0.537-0.596-1.327-1.48-2.197-2.462l3.007-0.126C23.886,70.365,23.85,71.48,23.749,71.978z
		 M22.139,59.633l-6.837,0.288c-0.259-0.798-0.522-1.546-0.785-2.242c-0.02-0.763-0.022-1.51-0.022-2.161
		c0-2.656-2.427-7.583-2.605-7.944C11.474,46.669-6.056,8.406-9.276,1.72c-1.188-2.463-1.642-5.354-1.354-8.599
		c0.043-0.491-0.318-0.925-0.809-0.969c-0.491-0.042-0.925,0.32-0.969,0.811c-0.316,3.568,0.194,6.776,1.523,9.532
		c0.151,0.315,0.344,0.721,0.557,1.168c-0.608-0.209-1.407-0.498-2.339-0.86c-0.631-0.364-1.257-0.621-1.879-0.761
		c-6.151-2.597-15.5-7.59-17.423-14.543c-3.122-11.286,1.659-19.328,3.859-22.262c1.437-1.917,4.001-4.316,6.062-6.245
		c0.688-0.643,1.25-1.172,1.715-1.623c0.658-0.04,1.046-0.083,1.101-0.089c0.065-0.008,0.12-0.039,0.179-0.059
		C-10.495-26.39,7.233,6.993,7.448,7.399c0.015,0.026,0.03,0.051,0.045,0.077c0.593,0.888,2.187,3.115,3.892,4.157l-2.3,0.534
		c-1.286,0.323-2.07,1.63-1.748,2.918c0.244,0.971,1.053,1.652,1.987,1.789l7.942,35.813c0.025,0.117,0.074,0.227,0.144,0.325
		L22.139,59.633z M5.547-24.867c3.037,4.656,14.886,23.52,19.29,30.536c-0.363-0.179-2.085-1.018-4.232-1.878
		c-1.88-0.752-3.944-1.827-4.627-2.191L-3.948-35.798c1.583-0.32,5.81-1.181,10.253-2.155c-0.467,0.843-1.057,2.047-1.521,3.473
		C3.586-30.794,3.849-27.471,5.547-24.867z M24.567,14.547l0.116-1.1l1.813-0.47l-9.825,28.791l-5.574-25.145l3.193-0.792
		l0.189,1.503c0.034,0.265,0.183,0.502,0.409,0.644c0.145,0.091,0.31,0.138,0.477,0.137c0.094,0,0.19-0.015,0.282-0.044l8.313-2.771
		C24.294,15.189,24.529,14.895,24.567,14.547z M25.406,6.577c0.35,0.558,0.625,0.996,0.81,1.292l-0.968,0.243l0.159-1.508
		C25.408,6.594,25.405,6.585,25.406,6.577z M18.766,51.222l0.514,1.143l-0.064,0.109l-0.25-0.35L18.766,51.222z M31.102,25.165
		L17.97,47.628l-0.65-2.935c0.18-0.104,0.329-0.264,0.402-0.476l10.833-31.745c0.003-0.01,0.001-0.021,0.004-0.031l2.544-0.66
		V25.165z M56.179,127.561l0.004,0.155l-0.029,0.068C56.163,127.71,56.171,127.636,56.179,127.561z M54.113,129.276
		c-1.253-1.68-3.063-4.916-5.448-11.153c-3.327-8.706-6.657-20.417-9.375-32.974c-2.78-12.846-4.602-25.089-5.131-34.471
		c-0.044-0.782-0.075-1.513-0.1-2.218c0.207-0.146,0.401-0.312,0.578-0.501c0.658-0.703,1.006-1.616,1.001-2.575
		c0.001-0.012,0.006-0.022,0.007-0.033l0.245-4.403c3.825,6.68,9.021,21.443,13.476,42.021
		C53.758,103.257,55.662,122.151,54.113,129.276z M42.795,38.033c3.08,5.123,6.014,12.138,8.255,19.749
		c0.307,1.039-0.29,2.133-1.328,2.438c-0.183,0.054-0.37,0.082-0.557,0.082c-0.862,0-1.638-0.58-1.882-1.411
		c-4.058-13.77-9.005-21.253-11.332-23.556c-0.001-0.001-0.001-0.004-0.003-0.005c-0.141-0.16-1.42-1.568-3.059-1.568
		c-0.21,0-0.415,0.029-0.616,0.075l1.978-3.357c0.133-0.016,0.265-0.042,0.397-0.042C37.022,30.438,39.762,32.993,42.795,38.033z
		 M40.797,4.209L28.026,7.414c-0.008-0.016-0.009-0.033-0.018-0.048C27.836,7.092,10.782-20.107,7.042-25.842
		c-3.398-5.214,1.447-12.283,1.496-12.354c0.061-0.087,0.096-0.183,0.122-0.28c0.241-0.054,0.482-0.108,0.721-0.163
		c5.649-1.284,5.029-6.091,4.933-6.662l-0.327-2.525L42.901-0.212c-0.183,0.723-0.382,2.207,0.369,3.736L40.797,4.209z
		 M59.229,4.149l-6.102,1.627l-0.352-2.238c-0.05-0.319-0.269-0.585-0.569-0.699L48.06,1.29c-0.46-0.173-0.976,0.061-1.147,0.524
		c-0.109,0.291-0.042,0.595,0.128,0.829l-1.936,0.486c-0.99-1.502-0.432-3.068-0.405-3.135c0.104-0.259,0.079-0.553-0.067-0.792
		L25.459-32.373l-12.04-19.827l-0.755-5.831c-0.062-0.489-0.513-0.833-1-0.77c-0.489,0.064-0.834,0.511-0.771,1l0.724,5.585
		c-0.043,0.19-0.014,0.392,0.075,0.578l0.853,6.58c0.002,0.024,0.006,0.046,0.013,0.069c0.028,0.147,0.712,3.635-3.573,4.609
		c-1.811,0.411-3.679,0.82-5.441,1.198c-0.04,0.008-0.079,0.017-0.119,0.025c-4.085,0.875-7.548,1.572-8.249,1.713L-12.687-52.2
		c-0.23-0.436-0.773-0.6-1.207-0.368c-0.436,0.231-0.6,0.772-0.368,1.207l13.4,25.152L14.528,2.68
		c0.083,0.154,0.209,0.281,0.36,0.364c0.108,0.058,2.672,1.451,5.053,2.405c1.548,0.619,2.901,1.243,3.625,1.587l-0.208,1.961
		c-0.05,0.138-0.07,0.285-0.046,0.438l-0.46,4.35l-6.737,2.246l-0.856-6.803c-0.062-0.489-0.508-0.835-0.997-0.774
		c-0.489,0.062-0.836,0.508-0.774,0.997l0.116,0.918c-0.159-0.033-0.324-0.038-0.487,0.023c-0.628,0.233-2.618-1.644-4.112-3.871
		C8.527,5.626,0.845-8.841-6.748-23.22c-6.413-12.142-12.763-24.222-14.659-28.015c-3.873-7.746,1.896-12.868,2.143-13.082
		c0.029-0.025,0.056-0.052,0.082-0.08c0.357-0.397,8.799-9.761,11.859-13.999c2.109-2.921,2.353-7.201,2.253-9.935
		c-0.003-0.079-0.006-0.157-0.009-0.233c2.763,2.485,6.958,5.158,12.741,6.022l-3.049,6.75C4.487-75.577,4.05-74.785,3.74-73.72
		c-0.36,1.241-0.547,2.854,0.144,4.375c0.15,0.329,0.476,0.522,0.814,0.522c0.123,0,0.249-0.026,0.37-0.079
		c0.449-0.204,0.647-0.734,0.443-1.183c-0.26-0.57-0.33-1.181-0.299-1.769c0.905,0.251,4.458,1.475,6.727,5.632
		c1.348,2.472,9.829,16.709,18.444,31.111C39.716-19.51,49.204-3.715,49.951-2.472c0.108,0.18,0.277,0.317,0.477,0.385l9.593,3.271
		L59.229,4.149z"/>
	<path fill="#FFFFFF" d="M34.252,30.48l-1.978,3.357c0.201-0.046,0.406-0.075,0.616-0.075c1.639,0,2.918,1.408,3.059,1.568
		c0.001,0.001,0.002,0.004,0.003,0.005c2.327,2.302,7.274,9.786,11.332,23.556c0.244,0.831,1.02,1.411,1.882,1.411
		c0.187,0,0.374-0.028,0.557-0.082c1.038-0.305,1.635-1.399,1.328-2.438c-2.241-7.611-5.175-14.626-8.255-19.749
		c-3.032-5.04-5.772-7.595-8.146-7.595C34.517,30.438,34.385,30.465,34.252,30.48z"/>
	<path fill="#FFFFFF" d="M-7.571,11.289c-3.032-5.04-5.773-7.596-8.146-7.596c-0.239,0-0.482,0.027-0.72,0.078
		c-1.328,0.288-2.757,1.255-3.509,5.143c0.44-0.896,0.902-1.464,1.385-1.671c0.344-0.147,0.708-0.221,1.084-0.221
		c1.597,0,2.844,1.329,3.037,1.545c2.316,2.275,7.285,9.765,11.355,23.582c0.244,0.831,1.02,1.41,1.883,1.41
		c0.188,0,0.374-0.027,0.557-0.081c1.039-0.306,1.636-1.4,1.331-2.439C-1.558,23.426-4.491,16.413-7.571,11.289z"/>
</g>
</svg>
