<?xml version="1.0" encoding="utf-8"?>
<!-- Generator: Adobe Illustrator 16.0.0, SVG Export Plug-In . SVG Version: 6.00 Build 0)  -->
<!DOCTYPE svg PUBLIC "-//W3C//DTD SVG 1.1//EN" "http://www.w3.org/Graphics/SVG/1.1/DTD/svg11.dtd" [
	<!ENTITY ns_extend "http://ns.adobe.com/Extensibility/1.0/">
	<!ENTITY ns_ai "http://ns.adobe.com/AdobeIllustrator/10.0/">
	<!ENTITY ns_graphs "http://ns.adobe.com/Graphs/1.0/">
	<!ENTITY ns_vars "http://ns.adobe.com/Variables/1.0/">
	<!ENTITY ns_imrep "http://ns.adobe.com/ImageReplacement/1.0/">
	<!ENTITY ns_sfw "http://ns.adobe.com/SaveForWeb/1.0/">
	<!ENTITY ns_custom "http://ns.adobe.com/GenericCustomNamespace/1.0/">
	<!ENTITY ns_adobe_xpath "http://ns.adobe.com/XPath/1.0/">
]>
<svg version="1.1" id="Layer_1" xmlns:x="&ns_extend;" xmlns:i="&ns_ai;" xmlns:graph="&ns_graphs;"
	 xmlns="http://www.w3.org/2000/svg" xmlns:xlink="http://www.w3.org/1999/xlink" x="0px" y="0px" width="595.279px"
	 height="841.89px" viewBox="0 0 595.279 841.89" enable-background="new 0 0 595.279 841.89" xml:space="preserve">
<metadata><?xpacket begin="﻿" id="W5M0MpCehiHzreSzNTczkc9d"?>
<x:xmpmeta xmlns:x="adobe:ns:meta/" x:xmptk="Adobe XMP Core 5.3-c011 66.145661, 2012/02/06-14:56:27        ">
   <rdf:RDF xmlns:rdf="http://www.w3.org/1999/02/22-rdf-syntax-ns#">
      <rdf:Description rdf:about=""
            xmlns:dc="http://purl.org/dc/elements/1.1/">
         <dc:format>image/svg+xml</dc:format>
         <dc:title>
            <rdf:Alt>
               <rdf:li xml:lang="x-default">Print</rdf:li>
            </rdf:Alt>
         </dc:title>
      </rdf:Description>
      <rdf:Description rdf:about=""
            xmlns:xmp="http://ns.adobe.com/xap/1.0/"
            xmlns:xmpGImg="http://ns.adobe.com/xap/1.0/g/img/">
         <xmp:MetadataDate>2018-09-05T11:33:14-03:00</xmp:MetadataDate>
         <xmp:ModifyDate>2018-09-05T11:33:14-03:00</xmp:ModifyDate>
         <xmp:CreateDate>2018-09-05T11:33:14-03:00</xmp:CreateDate>
         <xmp:CreatorTool>Adobe Illustrator CS6 (Macintosh)</xmp:CreatorTool>
         <xmp:Thumbnails>
            <rdf:Alt>
               <rdf:li rdf:parseType="Resource">
                  <xmpGImg:width>88</xmpGImg:width>
                  <xmpGImg:height>256</xmpGImg:height>
                  <xmpGImg:format>JPEG</xmpGImg:format>
                  <xmpGImg:image>/9j/4AAQSkZJRgABAgEASABIAAD/7QAsUGhvdG9zaG9wIDMuMAA4QklNA+0AAAAAABAASAAAAAEA&#xA;AQBIAAAAAQAB/+4ADkFkb2JlAGTAAAAAAf/bAIQABgQEBAUEBgUFBgkGBQYJCwgGBggLDAoKCwoK&#xA;DBAMDAwMDAwQDA4PEA8ODBMTFBQTExwbGxscHx8fHx8fHx8fHwEHBwcNDA0YEBAYGhURFRofHx8f&#xA;Hx8fHx8fHx8fHx8fHx8fHx8fHx8fHx8fHx8fHx8fHx8fHx8fHx8fHx8fHx8f/8AAEQgBAABYAwER&#xA;AAIRAQMRAf/EAaIAAAAHAQEBAQEAAAAAAAAAAAQFAwIGAQAHCAkKCwEAAgIDAQEBAQEAAAAAAAAA&#xA;AQACAwQFBgcICQoLEAACAQMDAgQCBgcDBAIGAnMBAgMRBAAFIRIxQVEGE2EicYEUMpGhBxWxQiPB&#xA;UtHhMxZi8CRygvElQzRTkqKyY3PCNUQnk6OzNhdUZHTD0uIIJoMJChgZhJRFRqS0VtNVKBry4/PE&#xA;1OT0ZXWFlaW1xdXl9WZ2hpamtsbW5vY3R1dnd4eXp7fH1+f3OEhYaHiImKi4yNjo+Ck5SVlpeYmZ&#xA;qbnJ2en5KjpKWmp6ipqqusra6voRAAICAQIDBQUEBQYECAMDbQEAAhEDBCESMUEFURNhIgZxgZEy&#xA;obHwFMHR4SNCFVJicvEzJDRDghaSUyWiY7LCB3PSNeJEgxdUkwgJChgZJjZFGidkdFU38qOzwygp&#xA;0+PzhJSktMTU5PRldYWVpbXF1eX1RlZmdoaWprbG1ub2R1dnd4eXp7fH1+f3OEhYaHiImKi4yNjo&#xA;+DlJWWl5iZmpucnZ6fkqOkpaanqKmqq6ytrq+v/aAAwDAQACEQMRAD8A9U4qtlliiieWV1jijUtJ&#xA;IxCqqqKkknYADFXg/mX/AJyL1e8u57byRp1u9jExjGtaiXKSkbM0MCFDxHYs2/hmdpez8uYXHaPe&#xA;XW63tbBpjwyNy7g868y+ZvzE1u0nfVfMd3ckIxSwtT9Stm22Vkg4Fx/rHNkexRGBN8UgOX4/Y6aP&#xA;tIZ5IxEeCBNE8z7+4fa9I/5xR025j0nzBqsUUlvouoT2yafC5cgyW8bi4kXkTWrSKvIfy07ZpM0o&#xA;GVwFR7npdPHJGAGQ8Ut9/jt9j3fKm52KuxV2KuxV2KuxV5P/AM5GeaHsPKEHly0k4ah5mm+qniaM&#xA;tpGA904/2NEPs2W4MJyTEB1LRqc4w45ZD/CP7HiNhouo6xrWj+VdDkW0ur+TiJyvJYbeBS8khUda&#xA;KvTv0zpe09SdPjjHHsf0B47sXRjVZZ5Mo4h95P4+5knm78hvzL0q9sV0u7fzTaS1aX0kg04xSqw4&#xA;CXlI1Yz1qD23zTDtPKSOMkgb1sPuD0R7GwCJ8OIjIirNy591nm9p/JvyPq/k3yaNL1a4Se9muZry&#xA;SOEkxQetT9zGxoSBx5dOpOYEpWSXaQjwgDnTOciydirsVdirsVdirsVfK35keYv8TfmZqt4j89P0&#xA;Ufomwodi0Z5XL+G8pIr4AZvuxMFk5D02H6XlvabVVGOIdfUfd0/HkzD/AJxx8vi81jXPN8y1jhpp&#xA;GmE1pRKSXLivi3BQR75gdpZ/EzE9BsPg7bsfS+Dp4g/VL1H4/se85gOzdirsVdirsVdirsVdirGP&#xA;zM82jyn5H1XW1I+tQwmOxSleVzMfThHHv8bAkeAOKvk0rNpWgBE5TXzAKv2maS5mP/BEl2zrj/gu&#xA;l/pV/si8FH/Dtd/RJ/2I/X95fW/5d+VY/KnkrSNBFPVtIF+tMDXlcSVknavvIzU9s5F71kWKuxV2&#xA;KuxV2KuxV2KuxV4B/wA5FeYP0h5k0XynC3K3sFOrako3BkNY7ZG8CBzanuM2PZeDxMw7o7/j4up7&#xA;b1Xg6aVfVL0j48/sYz+WPl//ABH+Z+l28i8rDQVOrXlRsZUPC1WvSvqHlTwBzN7bz3IYx03P4/HN&#xA;1vszpahLKeuw93X8eT6lzQvUOxV2KuxV2KuxV2KuxV2KvjmbWn8wa3rXmmc1bVruSSIn9m2hPpQJ&#xA;/sY0GdT2NhEcRmf4vuH4LxHtHqDPOMY/gH2nf9T1f/nFWOG78t+Ydd4j6zfaqbdmpRvSt4I2iUn2&#xA;9ds5zUZjkmZnqXsNLpxhxRxj+Ef2vb8pb3Yq7FXYq7FXYq7FXYq7FXxfpNnc6alzot2KXuj3M1jc&#xA;ihHxQuRUV7EUIzruyMolgA6xsfpeB9ocJhqTLpMA/ZX6Gf8A5Ca9H5e893Hl1qRaZ5jh9W0ToqXt&#xA;qtSo7D1Iq/MgZpe1tKMWS4ioyej7C1xz4akbnA/YeX6vg+kc1bu3Yq7FXYq7FXYq7FXYq7FXzh+e&#xA;3l39CfmDba7CnGw8yw+lckA0F9aigJpsPUip8yDm27H1HBl4Tyl9/R0XtBpPEwcY+rHv8Ov6/gwH&#xA;UnvbdYNS09uGpaXNHe2TgVpJA3MCnetKUzedp6fxMJrnHd5nsTV+DqBf0y9J+PL7X115X8wWXmLy&#xA;7p2uWR/0bUYEnRa1Klh8SGn7SNVT7jONfQ1HVvOnk/R3aPVtcsLCVesVzcwxP4/YZg34Yqw7UfzZ&#xA;vNav20b8tbBPMV8gH1rWJHKaVacxUepMN5Wpvwj3+kEYpp0f5Zed9XHq+bPPeo833ay0Lhp0CA9Y&#xA;+YVpJF92ocVtUb8kdMVVNp5p8zWk6Cgni1SQsT7h1ZfopitoebS/zn8pj19M1OHztpce8mm6gi2u&#xA;oBB1ENxH8Ejf8ZB9GKso8kfmDoHm+2mNiZLXUrNvT1LSLtfSu7aQbFZIzvSvRht9NRihk2KuxVhP&#xA;5x+T381eQdQsrZOWp2gF9pZAqwubb41VfeReSf7LDGRBscwiURIEHkXzVpt7HfWEN0n2ZVBI60PR&#xA;h9BzutNmGXGJjq+YazTHBlljP8J+zp9ip5ev/Mbi58m/p26sdBti15bafaMIWkjuHJkVpVpJwV/2&#xA;em+eb+0+oyaCXoiKkeZ6d36fk+s+ymPH2hjBnI8URuB1I5/oPxR+mfl5p3mHzNaeUdFs47dpU+s6&#xA;zqZQSSW9mDxbi8nI+pKTxX+maXsU6jUSOXLOXCOQ5An3CuX45O97ZGDTx8LHEcR5nmQPj3/jm+pf&#xA;LflvRvLejW2jaNbLa2FqvGONepP7Tu3VmY7knrnTvMpnirsVdirz78yvI19cSx+cvKQW2866QOcT&#xA;KKLfwKPjs7gCnMMooleh226hSybyV5s07zZ5ZsdesKrDdpV4W+1FKp4yRP7o4I/HFCd4qoX99aaf&#xA;Y3F9eSCG0tY3muJm6JHGpZmPyAxV8YWmqR3PmDU5ILRrHTdUnm1LSLdt+NvLK3w7CgpsePaubzsD&#xA;XRmZ4gb4T9vUfd9rzHtV2dKAhmI+ofZ0P3/Yu1SZ9PvLLWo6/wChycLkCu9vL8L7f5PXB7VdmjU6&#xA;Y19Q/A+37yx9jO1DptUIn6Zfg/Z9we9f845aSp8s6l5qkAa58xXsrxydxaWjNBCn0Mrn6c5vR6cY&#xA;cUYD+Efb1+17LWZzlyymep/s+x61mS4zFvOvnq08uxrBEguNTlXlHCTRUXpzkI7eA75sdD2fLObO&#xA;0HSdr9sw0g4QOLIen6S8p1Hzz5qv5GeXUZolJ2igYwoB4USlfpzosWgwwG0R8d3htR2zqspszI8o&#xA;7fc7TfPXmuwkDRajLKo6xzsZlI8KPWn0Y5dBhmN4j4bLp+2tViO0yfKW/wB71jyX54s/McLROot9&#xA;SiFZbeuzL05pXtXqO2c5rtBLAb5xPV7rsjtmGrjX05BzH6QxryFD/h780fOPlaMcNP1BYPMWnRDY&#xA;Kbj9zd0HgZlFKdM17u3pmKHk/wDzkVrEqeWNO8s27lJfMl6lvOQaH6pB++noRvvRB8icxtZqPBxS&#xA;n/NH29PtcnR4PFyxh3n+14x5108Q6fa6papSTSGDcF72xosi/QtD9Gcp7L9pywauyfr+/wDbuPi9&#xA;P7U9lR1OjMQPpH2fsNH4IadIrqydaCSKeM0HZlZc9xmI5MZ6iQ+9+fcZlhyg8pQl9oL6J/ISSB/y&#xA;h8ttB9gQSKd6/Gs8iv8A8ODnBPqZZ7JIscbSOaIgLMfAAVOECzTGRAFl846zqk+qapc6hOSZLiQv&#xA;Q78V/ZX5KtBnc4MQxwER0fIdXqZZ8sskucj+Pkzb8tpvIsenXQ1mayTUSzFkvniUi3Cr8SCU/ZqT&#xA;yI+ntmj7YzZIzABqNdHrvZjSYMmGRlESnxUbF7V0eL+YvzX8q2msa/a6fp8l3BHdBNFu4pwsJhVy&#xA;JGYFWJBH93Q5TDtrIKsAgfa5eX2UwS4uGRiTy7h8OvzZF5F852stzaa1prsPq8o9aI7OB+2jD/KU&#xA;0zcxyQ1WIgdfsLy08Gbs7UxMuhuxyI6p/wDnF5k1zQfzk0zWvLxEl3Y6Est7akfDc2jXj8rdj25b&#xA;svgQDnC6rVRwcPHylLh92x/U+s6XTSzCXD/DHi+79b27yx5j0zzJoFjrmlyepZX8QliJ+0p6MjU6&#xA;MjAqw8RmS4ryD89HaT8wvKsTqfTgsb6WFj05yNGjU9+IGaX2gNaWXvH3u57AF6qPuP3MYmijmieG&#xA;VQ0cilHU9CrChGefwmYkEcw97OIkCDyLzSwu7vTNXXQZqNFbyPArEfHxp6kD9tim2e4dgdsHNjx/&#xA;zZCvcf7bD4T7S9hRxTyyF8cTfkR/ZUvi98/5xs8wINN1fyjO9LnS7lryyU7crO7PL4R/kS8uX+sM&#xA;wtZh8LLKPnt7nadn6nxsEZ9a3945vZLqEzW00INDIjJX/WFMogaILk5I8USO8PmmaKSGV4pVKSRs&#xA;UdT1DKaEZ3gIIsPjk4mJIPMPFvzEuJ5vNl2kpJWARxxKey8A23zLE5yPakic8r6fqfTvZ7HGOjhX&#xA;WyffZ/sY1mvd2zj8oTdS+ZpLKHcXUNOHYuJFCH/hqfTm17HycOQ93Cb+DzftPg8TBGvq4wB8beoX&#xA;erp5j876/wCYoX9SwLx6bpcg3V4LJeDSIf5ZJKsM859qNUJTjjHTc/Hl+PN9Q9mdKYwlkPXYfDn+&#xA;PJmn/OPuptYa15j8os3+jKY9X01P5UnPp3CivRRIq0Huc33Y+qObTxkfqGx+H7HR9r6UYdRID6Tu&#xA;Pirf85EWL29z5T8yDaGzvJdPuz4JfRgIzeyvF+OS7WwHLppxHOr+W/6GPZWYY9RCR5XXz2Yfnmj6&#xA;OwfzhYQP5u0eeKv1kpI1wBsPTj+wx9+TkZ6F7Dcc58P8EZX+v9HzfO/b2UMeEy/ilGvtofp+SJi1&#xA;TV/L+r2nmfRCBqemVLRNXhcW5/vYHA6hh08D03z0btbR+JDjH1R+0PmHYPaPg5PDl9Ez8j+Ni+iP&#xA;LP55flnrulwXh1y002eROU1lfzJbyxP+0h9QqrUPQqd85N7ynlX5p+evy/GsG78u341e6ud7q1sl&#xA;Z0WT/fnrECKj9/irX55vdB2kYw4CDIjlTyHbHs+MmXxYyjCMvqvv7x7+54t5nW91zUYr+S2jtOXC&#xA;J1EgLULUDOzcEFK0J6DvmPr8eSZ8WURH7S7HsfJiwx8CEzM7kEih7h182r/yn+iLj6pqNjPFerRn&#xA;trqsEnA9GSvFXU9mBofHK4YsNAj1HqCeH8fNyMmfUcRjL0DoYx4/n/YmXkuK4UX9jpCNFqt25hub&#xA;/rHaWZG5jYHeV+RUeFK9QCNTr+08eiwyv65be8dw/SXa6LsrJrs8D/k4C+X8R/iPuH0jvJ7npthY&#xA;21hZw2dsvCCBQka9dh4+5755bnzSyzM5fVJ9Tw4Y4oCEeQTz8raJ+cVsymjSaLdJIB3VZ4WUH6c7&#xA;L2YJ8GQ/pfoDyHtKB4sf6v6Syjzp+Y35S+cdJ1fyVda7FbT3SyW8F3cRyxWwuYW+B0uHURH05VB+&#xA;1v2zpLeco83lXlXVJdQ0lTcEG8tXa1vCrB1M0JoxDKSDyFGqPHPN+1tH+XzmI+k7j3H9XJ9F7K1f&#xA;j4BI/UNj7wxnkdV1jVr8OyIT9RtJU2ISH7TKfeSpz1b2Q7M8LSWdpSHx33+zYfB8g9t+1fE1giKl&#xA;GBuuhrYfpPxb029mYS2V4K3tqPjIG0qH7Mi/63ceOdRps8jcJ/XH7R3h5DW6aArLi/up/wCxPWJ/&#xA;R5fNKdP8q29xpcEsqNZ3wLvG6gBlV3JVXU7HY981+DsuM8MeIcM/29Q7fVduTxaiQgePFt9wuj0+&#xA;7qpXNprVhs0cNyhHwOhMRNB0IIYV+nE48+HbhjIeXp/YgZdLqPVxThLz9X7ULc6heRxgixY8mCUZ&#xA;0AqxoBsWrucry6rJEb4/LmG/BocM5enLuN/pI5IzVdE8yXmn2q6hqUuoW2ngfV9KaSQxxR9Wjty7&#xA;OE222XwzHz9jZBjMokcfdX7d3K03tHhOUQkDwfziefv229/2PQvLK6P+hbaTSIlispUDKo+1XoeZ&#xA;6lgRQ1zxjtE5vGkMpuY/G3k+2dnjF4MTiFRP43800zBc1PvyRsmv/wAy9e1YCsGkafDpysRt6t1J&#xA;67cfcLFQ/PPQPZ7CYaYE/wARJ/R+h4P2gzceoIH8IA/T+lg1joUOlXes+TtRgWRtGvJUSKVQwktp&#xA;mMsEtD/Oj1zSdv454dQMsSRxjmO8bfdTuewskM2nOKQB4TyPcd/vtvWprTy/5cupLGFIAilbeKJe&#xA;IMsh4rQL35HNbosc9XqYxmTKzvfcN3Y6ycNLp5GAEaG1d5SPSbFbHTre1HWNBzPix3Y/STn0HpMP&#xA;hYox7h/a/Nev1PjZpT7zt7un2IrivLlQcqUr3pl9OJfRCXNvqMspMN4IIaU4iIM9fHkxI/4XMbNi&#xA;yyPpnwj+rbm6fPghGp4+OXfxEfYA0unyfVpIp7l7l2PJZJAgK+w4BclHDIRqUuI/D9DGepiZgxgI&#xA;R7hZ+9JLi2DkRyggxuGp/lIaj8cw8mISq+hv5Oxw5zC+H+KJHwKfaffwXkLPE1TGxjlXcFXXqN8z&#xA;cGaOQbdDR97q9VppYpDiH1Cx7iivJU3oXeq6UxIEUwurcH/fc4qQPYODnjvttofC1PGOR/tH318H&#xA;3L2G1/jaQRJ3H9h+6/inmt6tFpenyXTgySbJbwqKtJK2yIoG5LHOV0WklqMohH4+Q73rNbq44MZn&#xA;L4eZe2/k75KufKnkyGDUAP01qMj6hq5G9Lieh9P/AJ5oFTwqDTPTseMQiIjkBT5rkyGcjI8ykX5z&#xA;/lzqWqSW/m7yzEJPMOmxmK7sht9es68jEP8AixDunj08BmPrtHHUYzCXwPce9yNFrJafIJx/tDw/&#xA;zBqEOu+XJJNPDPd2E0c1xYMOM6GF/jjeM7gjfOV7LhPs/Wx8UbHa+nfz+H2vT9qyhr9FIYjv3de7&#xA;9KyyvrW9t1uLaQSRsOo6j2I7HPcsOaOSPFE2H571OmnhmYTFH8clfLXHdiqHvb62s4DNcSLGvRSx&#xA;AqT0G+U5s8ccbkacjTaaeaXDAEscu7uad0FsBNeXjBbVF3DM3Q7fsgb5pu0O0IYMRyE9PwXo+y+y&#xA;56jMMQHI7/qTODR38uaxDZPKZo9Sg9QynobqI/vKCnQq22aH2R7a/MzmDtZ/s/Tb0Ptt2H+XxY5R&#xA;/hH7D9vDXvVLu6m0rXLHVYLd7n1Q1lNBCKyServEB/z0GZntf2X+ZwitjfP8eXE4HsN2r+Xyyidx&#xA;V19h+3he5fln+UOqHVbfzZ52RBf23x6RoaESRWjH/dsrDaSbw7L16048/wBn9nY9LDhjzPM971mv&#xA;7QnqZ3LkOQ7nseZ7gOxVhPnb8ovI/mqZtQv4HsNVVTXWLCT6tcgAdXcAq9B3dTTIzhGQqQsebOGS&#xA;UTcTRfJ8WiRTapql/o+oz/VPrDx6bdyKgaeOMlfUmRAqtzO/Subrsrs+XBxwkYfzfx3PN9udq4xk&#xA;GOcBk6y8r7vPqr2/mOS3k+r6xF6Dg8RcpUwk7D4u6fTtm1x9oGB4cw4f6Q5fsdHl7JjkHHppcQ/m&#xA;n6h+v8c01n1KwgtmuZJ0EKjlyDA1HtTrmdPU44x4jIU6zHos058AieL3ff3MWeY3Uz6rfAoqg/Vo&#xA;n/3VGOhp/M3fNOD4l5svLoO4frL0RBxAafBz/iI6y/UGW+RtCdQdcvUK3FwvGzhb/dUB70/mfr8s&#xA;8s9qO2TqMpxx+iPP9Xw+/wBwfWvZfsUaXEJy+uX4v4/cl3nJp4J7281OS8WW0eGby+IURrJhyUTp&#xA;cOAXRypPHan0ZsvZrNghCJx14v8AF37fo933uB7SYM2WUo5L8I7Du3H3+9W1GFdS0Z/QbeWMS28i&#xA;kghxR0II36jPU9VjGfAa6ix94fGtFlOl1QMv4ZUfuL6u/LrzSnmryTo+ug1kvLdfrIHa4j/dzr9E&#xA;qNnFPpDI8Vdirz/89vME+i/lnqhtX9O91L09NtWrSjXbcHII6ERcyMMYmRAHMsZSEQZHkHzza20d&#xA;tbRW8YpHEoRR7AUzvcWMQiIjkA+W58xyzM5c5G0Dq1mGX1lWvaQU6jxynPjB3cjSZiDV79EjTTbB&#xA;HDrbxhhuCFG2a+OjxA2Ii3bS7QzyjwmRr8deaH1lrhUtmii9cLOjSREVVgu/Fv8AJNN8xO14Sni4&#xA;Re5rbnyc/sGcYZjKVbC9+XMM/g/MDyo9tHM98sTMoZoSrs6kj7NFU1I9s8en2FqhIgRvzsfrfaId&#xA;t6UxBMq8qP6k203T/Ofm5Ta+WtCm+rTqVbV9TRrayVWFCw5jnL8lU5tND7OTEhLLKq6Dn8+nwt1u&#xA;t9oYGJjjF31PL5frYxDo195d1LUfK2oOJLzRZzD6gBAkhcepDIAdwGRqjPWuxs/Fi4Tzj9xfF/aP&#xA;TcGcTHKY+0c/0PV/+cbde9C58weUZn2hkXVdOQmp9GeiTgeASUL/AMFmi7QweHmkOnMfF6jsnU+N&#xA;p4y6jY+8fr5vc8wnYuxV4p/zkxdMYfKWnEco59QmuiO3K2gIU/R6pzM7PhxZ4Dz+7d1/a2Tg0uQ/&#xA;0a+e36XlOds+atMoZSrCoOxBwEWkGjaQ3lsbeYr+yd0PtmFOPCadnjnxC1DINj0n/nHrzjBoPm2T&#xA;y3fcBp+uuZNOmYCsV8Fo0fLsJ0G3+UAB1zndfp/DnY+mT1/ZWr8XHR+qP3dH09mA7N87f85LaRNo&#xA;3mHSvN1nB6sepRfou+jX4QZ0PO3Ymh3ZSy/JczNDqzgnYF3tTr+0tBHU4+Enho3bFfJuqyaL+ZXl&#xA;bUYiR9bvF0m4UdHjvh6ag/6r0YZt+3MQ4Yz+DoPZjOeKePpXF+g/ePk+s85x692KvB/+cmI2/T3k&#xA;abbgramhPu8UNP8AiObDsr/GI/H7i6rtwf4JP/N/3QebZ2T507FUPeWqXEVCQrLuHPbK8kLDdhyG&#xA;JSe5ihjYLFJ6m3xEDauYkgByLnwJI3FIS4id0BicxTxsJIJlJDJIh5I6kU3BGY2pwDLAxc3R6k4c&#xA;gl06+59cflF5+Tzr5Ot9QmourWp+qavCNuNzGByYD+WQEOvzp2zlpRINHm9vGQkARyLzD/nIbzA+&#xA;p+bNJ8qRNWz0qMapqAHQ3ElUt0b3ReT/AOyzY9lafxMwJ5R3/U6ntzVeDpyB9U/T+v7Ej/KTy83m&#xA;P8zrV2HLTvLKDULo9jdSVS1TboRvJ/scye29RxTGMfw8/f8A2fe4Ps3pOHGcp5y2HuH6z9z6fzSP&#xA;SuxV49/zkvp7nyxousonL9FanEJz/LBco0TN/wAGUzI0uTgyxl3Fxddh8TBOA5mJ+fR48WUUqQKm&#xA;gr3OdyS+YAEpdq+py23pWtpH62oXNRBGfsqB1d/8lcw9XqTCowF5Jch+kux7P0Qy3PIeHFDmf0Dz&#xA;SlI7qLmlxcPcSFiZGY7cht8K9hmNihKI9UjI/jk5ufJCZ9ERCI5Dr8e8rstaHYq9Q/5xq1Ka18/6&#xA;rpgalrqenfWSu+89pMqLt/qTtvnPdpwAy2Ooet7GyGWCj/Ca/SxPzHriX/mrzZ5jmYPFNfzpDIN+&#xA;VtZ/uIfvVM2fZNYsEsh/FOl7fEs2px4Y932yP6hb3z8hfKMugeRIbu9Tjq2vOdSvqj4lEoHoxb7/&#xA;AARU27EnOfyZDORkeZerxYo44CEeURT0fINjsVSTzt5Zg80eUtV0CcgLqFu8SOdwkv2on/2Eiq30&#xA;Yq+PJ4Lu90QpKph1fTJCsitsUurUlXVt9q0/HOpiTqNKJD64ffH9bxE4jSa0xkP3WTb/ADZfqP3N&#xA;aCXuIrjXblKTXIIhT+SFNgBXxIrlmhuYlnl9UuXkB+1q7UrGY6WH0w3PnI9fkhySTU9csaXYq7FU&#xA;28geeIPLeq+YNQtUmudabTH03RoYU5qtxcOHad3qAixekvep6Zz+sJzZqgLrbZ63s8R0+nEsh4bN&#xA;7o7yH5OHmDzNoPlArzsoqX+tnahtoGDMrf8AGaUhfpzL7Rl4OGGAc6s/j3/c6/siH5jUZNSeV1H8&#xA;eUa+b7DAAAAFANgBmjeldirsVdir5X/5yD0N/KvnG91K2UpYeaLdpoSoqF1CMCOZQN93DK9fEnM7&#xA;SavwoTj/ADo/a63XaAZp459YS393P7x97E5Yls9HhtVqOCJGPoG9fuzqBDw8UYdwDw8sni55ZO8k&#xA;/j4JZlTkOxVCalK6WxjjNJpz6cZrShbq1aHZRucxNbl4YUPqlsHP7Nw8eSz9MNz+pOPL+o6M9m0V&#xA;gpjhtVBcshWo3+OvevE++ZXZ+owmBENhHnf3uF2tpNQMolk9RmdqN1/R+17z/wA44eV3g0C983Xc&#xA;ZW88wyf6IGrVLGAlIhQ9ObcnPiKHOW1Wc5chmer2+j0wwYo4x0H29XsOUOS7FXYq7FXjH/OTstrL&#xA;oHlzTXVTc3OrJNGx+0sdvDIZOPz5qMyNJj48sY+YcXXZfDwTl3RPz6PEdZkq0cYPQFiO2+wzsM53&#xA;p890o2JS3KHKcSAKnoMSaUAk0EieK91T9I38IH1DS7X1p2IJPpyTx2w6UoZZJVXrXjU5zWr1JyTs&#xA;cun483tOz9GMWOj9XM+/9n3su8u+X7nXr+x8o6e6teavcF79rVQY7W1d+Vw4Aqqqi7KD8szs2SOD&#xA;T+FGXFKXOujq9PhnqdX484GMIbRvr3H7b+T7PsLG1sLG3sbSMQ2lpEkFvEvRI41Coo+SimaV6JXx&#xA;V2KuxV2Kvnn/AJyE1D61+YehaZsyaZp014SP2Xu5RFv78YM2vY+Piz3/ADQT+j9Lo/aHLw6Uj+dI&#xA;D9P6Hk2oSepduQahfhH0f25v8huReVxCohD5BsSXzDqIRBZI1Hlp6rfyof65qe0tTQ8MdebvuxtF&#xA;Z8WQ2HL3vo7/AJxu/LGKx8nalqWuWKunmXgkdndIHrYxg8C6MP8AdrOWp4BTmlNXs9ICa3euaB5R&#xA;8reXhN+g9KtdN+sU9c20SRl+NePIqATSppgVN8VdirsVdirsVfKn5kaiL/8ANTzRd+pWCzNvYRf5&#xA;P1eEGX/kozZ0HYcaE5vK+007OPH7z9wH6WCMxZizGrMak+5zYunQ97dpbQGQ7sfhjTuzHoBlOozD&#xA;HG+vT3uTpNMc0+HkOp7gzr/nGvyz5U1vztqknmBIr3UbKCObTrScco3k5n1pVU7MYSFUA1617bcx&#xA;lJ4jfN7XAAIDhFR6e59aZW2OxV2KuxV2KuxV2Kvi/ULqSW88wXk3w3V5qt69wp6h2nYFaHpRR0zp&#xA;uy6Gn98njO3LOrF9ID9P60ozLcBJJLxp7syRD1HHKOyjrtXo0zU7dhmmnn8Sdjc8oD/ffj9D0mLT&#xA;DFi4ZbDnM/dAfp/amlhHd6a1rdabcyWmqWJ9S1voiVkWTqTXuG/aB2IzJnoInEI/xDq4OLtWUcxn&#xA;/BLp5frfYf5XedR5y8lWOtSKsd6Q0GoQr0S5hPGSnXZvtL7EZz5FPWAg7hleBXYq7FXYq7FXYq+f&#xA;fzY/JTzOfMF7r3lG2TULPVpPrGoaXzSKWK5P25ojIyq4k3LLWtentm6XWyw2OcS6/XdnQ1FG6mOv&#xA;kxDRPyL/ADN1y6Fvc2I8v6e201/ePHJIAeojgidmZv8AWKj3y/P2nKQqIpxdN2LGEuKZ4q6J7+Z/&#xA;5EaL5N8gWmsaAJbi+0eUPrN1ISXuLaYBJG4CoURMFKqOi8ia9cwdPlOOYk7PVYBmxmB6/e8rBBAI&#xA;3B3BzqwQRYeFlEg0eb2//nFfUJDH5t0rpDbXVrdqB053UTK5+Z+riucxrY8OaQ/G+72nZ0+LTwPl&#xA;Xy2e85iua7FXYq7FXYq7FXYq7FVC/sbTULG4sbyMTWl1G8NxC3R45FKsp+YOKvinW/L135Y8xan5&#xA;ZvDyk0ubhBKdvUtnHOCTbb4oyK++b/s3PxQ4Tzj9zy3bOm4MnGOUvvev/wDOK0afWvOUwryeSwQ+&#xA;FEjmI/4kc1mvP76Xw+53XZYrTx+P3l79mG57sVdirsVdirsVdirsVdirwf8A5yc8oEQad52tIxys&#xA;SLHVyOptpm/cyH/jHKeP+yHhmRpc3h5AenVxNbp/GxGPXmPe8w8gfmFrPkLWp9SsIFvtNvxEuq6e&#xA;fhd1i5BJIn7Ogc+x+7Njr9GZE5I/F1PZXaEYgYp7b7H39C+uNA1zT9e0Wy1nTnL2V/Ck8DMKNxcV&#xA;ow3ow6EeOaZ6FH4q7FXYq7FXYq7FXYq7FUDrui2Gt6Ne6RqCepZX8LwTr34uKVHgR1B7HFXxBr1h&#xA;qHl+TVtFvyRf6RJJayOKnlT+7kHU0dSGBzc49Teml3xFfN57NogNbH+bI8XxG5/Hm+1/KWiQ6F5X&#xA;0nRoSGj0+0ht+Y/aMaAM+38zVOaZ6FNsVdirsVdirsVdirsVdirsVfNH/OUHlC5h8yafrunWzzHz&#xA;BD+jLhIl5FryOgtydvtSI3Af6mW4svCCOkhTTlw8ZiesTf630ToNlc2Oh6dZXUnq3Nrawwzyj9qS&#xA;ONVZvpIypuR2KuxV2Kv/2Q==</xmpGImg:image>
               </rdf:li>
            </rdf:Alt>
         </xmp:Thumbnails>
      </rdf:Description>
      <rdf:Description rdf:about=""
            xmlns:xmpMM="http://ns.adobe.com/xap/1.0/mm/"
            xmlns:stRef="http://ns.adobe.com/xap/1.0/sType/ResourceRef#"
            xmlns:stEvt="http://ns.adobe.com/xap/1.0/sType/ResourceEvent#">
         <xmpMM:InstanceID>xmp.iid:F97F117407206811822A9DD448A483FF</xmpMM:InstanceID>
         <xmpMM:DocumentID>xmp.did:F97F117407206811822A9DD448A483FF</xmpMM:DocumentID>
         <xmpMM:OriginalDocumentID>uuid:5D20892493BFDB11914A8590D31508C8</xmpMM:OriginalDocumentID>
         <xmpMM:RenditionClass>proof:pdf</xmpMM:RenditionClass>
         <xmpMM:DerivedFrom rdf:parseType="Resource">
            <stRef:instanceID>uuid:ba5dc92b-6d0a-484a-ab90-b9370a4a0965</stRef:instanceID>
            <stRef:documentID>xmp.did:0980117407206811822A897E387FE54C</stRef:documentID>
            <stRef:originalDocumentID>uuid:5D20892493BFDB11914A8590D31508C8</stRef:originalDocumentID>
            <stRef:renditionClass>proof:pdf</stRef:renditionClass>
         </xmpMM:DerivedFrom>
         <xmpMM:History>
            <rdf:Seq>
               <rdf:li rdf:parseType="Resource">
                  <stEvt:action>saved</stEvt:action>
                  <stEvt:instanceID>xmp.iid:F97F117407206811822A9DD448A483FF</stEvt:instanceID>
                  <stEvt:when>2018-09-05T11:33:14-03:00</stEvt:when>
                  <stEvt:softwareAgent>Adobe Illustrator CS6 (Macintosh)</stEvt:softwareAgent>
                  <stEvt:changed>/</stEvt:changed>
               </rdf:li>
            </rdf:Seq>
         </xmpMM:History>
      </rdf:Description>
      <rdf:Description rdf:about=""
            xmlns:illustrator="http://ns.adobe.com/illustrator/1.0/">
         <illustrator:StartupProfile>Print</illustrator:StartupProfile>
      </rdf:Description>
      <rdf:Description rdf:about=""
            xmlns:xmpTPg="http://ns.adobe.com/xap/1.0/t/pg/"
            xmlns:stDim="http://ns.adobe.com/xap/1.0/sType/Dimensions#"
            xmlns:xmpG="http://ns.adobe.com/xap/1.0/g/">
         <xmpTPg:HasVisibleOverprint>False</xmpTPg:HasVisibleOverprint>
         <xmpTPg:HasVisibleTransparency>False</xmpTPg:HasVisibleTransparency>
         <xmpTPg:NPages>1</xmpTPg:NPages>
         <xmpTPg:MaxPageSize rdf:parseType="Resource">
            <stDim:w>21.000131</stDim:w>
            <stDim:h>29.700013</stDim:h>
            <stDim:unit>Centimeters</stDim:unit>
         </xmpTPg:MaxPageSize>
         <xmpTPg:PlateNames>
            <rdf:Seq>
               <rdf:li>Cyan</rdf:li>
               <rdf:li>Magenta</rdf:li>
               <rdf:li>Yellow</rdf:li>
               <rdf:li>Black</rdf:li>
            </rdf:Seq>
         </xmpTPg:PlateNames>
         <xmpTPg:SwatchGroups>
            <rdf:Seq>
               <rdf:li rdf:parseType="Resource">
                  <xmpG:groupName>Default Swatch Group</xmpG:groupName>
                  <xmpG:groupType>0</xmpG:groupType>
               </rdf:li>
            </rdf:Seq>
         </xmpTPg:SwatchGroups>
      </rdf:Description>
      <rdf:Description rdf:about=""
            xmlns:pdf="http://ns.adobe.com/pdf/1.3/">
         <pdf:Producer>Adobe PDF library 10.01</pdf:Producer>
      </rdf:Description>
   </rdf:RDF>
</x:xmpmeta>
                                                                                                    
                                                                                                    
                                                                                                    
                                                                                                    
                                                                                                    
                                                                                                    
                                                                                                    
                                                                                                    
                                                                                                    
                                                                                                    
                                                                                                    
                                                                                                    
                                                                                                    
                                                                                                    
                                                                                                    
                                                                                                    
                                                                                                    
                                                                                                    
                                                                                                    
                                                                                                    
                           
<?xpacket end="w"?>
	</metadata>
<g>
	<polygon fill="none" points="23.299,10.779 23.3,10.778 23.298,10.774 	"/>
	<path fill="none" d="M18.319,50.037c0.357-0.144,0.712-0.282,1.055-0.413c0.875-0.335,1.705-0.653,2.246-0.978
		c0.447-1.108,2.227-5.628,2.688-8.391c0.591-3.535,2.312-8.896,3.842-11.95c0.371-0.743,0.669-1.504,0.907-2.229
		c-0.066-0.078-0.128-0.162-0.166-0.264l-4.866-13.083c-2.044,1.939-8.286,5.118-15.77,4.645l8.989,15.45
		c0.162,0.256,1.562,2.514,2.291,5.878C20.15,41.542,20.366,45.672,18.319,50.037z"/>
	<path fill="none" d="M18.066,3.971c-0.33,0.965,2.231,2.044,3.608,2.622c0.028,0.012,0.054,0.023,0.082,0.035L20.377,2.92
		C19.49,3.206,18.215,3.655,18.066,3.971z"/>
	<path fill="#FFFFFF" d="M-16.527-58.61c-4.596,11.107-1.207,23.557,7.502,30.947c1.005,0.321,5.746,1.609,11.022-0.675
		c0.255-0.11,0.51-0.217,0.765-0.324c-5.529-4.851-7.65-12.849-4.681-20.024c3.731-9.016,14.064-13.3,23.079-9.57
		c9.015,3.731,13.3,14.063,9.57,23.079c-1.021,2.464-2.546,4.565-4.393,6.256l0.177,0.708c2.963-2.667,5.335-5.962,6.896-9.735
		c5.697-13.767-0.868-29.604-14.636-35.301C5.006-78.946-10.83-72.378-16.527-58.61z"/>
	<path fill="#FFFFFF" d="M22.34-47.379c-0.286-0.119-0.576-0.216-0.866-0.308c0.216-0.796-0.179-1.647-0.961-1.971
		c-0.851-0.352-1.822,0.052-2.175,0.901c-0.079,0.19-0.114,0.386-0.121,0.58c-0.645,0.007-1.284,0.076-1.909,0.199
		c-0.19-1.293-1.022-2.459-2.317-2.996c-1.961-0.81-4.207,0.121-5.019,2.08c-0.687,1.657-0.117,3.508,1.256,4.534
		c-0.647,0.785-1.192,1.677-1.602,2.667c-1.483,3.586-0.817,7.508,1.38,10.384l0,0c-2.196-2.875-2.863-6.797-1.38-10.383
		c0.409-0.99,0.954-1.882,1.602-2.668C10.48-44.17,10.75-44,11.053-43.875c1.96,0.812,4.204-0.12,5.017-2.08
		c0.275-0.664,0.335-1.359,0.238-2.022c0.625-0.123,1.264-0.192,1.909-0.199c-0.022,0.673,0.362,1.321,1.022,1.594
		c0.85,0.351,1.822-0.052,2.174-0.902c0.027-0.066,0.042-0.134,0.061-0.202C21.764-47.594,22.053-47.497,22.34-47.379
		c3.684,1.524,6.038,4.903,6.429,8.607C28.377-42.476,26.023-45.855,22.34-47.379z"/>
	<path fill="#2B93D1" d="M-23.222,94.261l13.297-55.864c-0.74,0.58-1.648,1.374-2.625,2.434c-2.139,2.325-4.994,6.385-6.454,12.52
		C-21.8,65.102-26.17,90.41-26.492,92.284c0.062,0.694,0.591,5.179,3.76,7.094C-23.295,97.463-23.222,94.261-23.222,94.261z"/>
	<path fill="#2B93D1" d="M36.335,20.227C35.899,19.007,25.656-9.708,24.685-13.9c-0.662-2.855-2.353-6.284-4.633-7.506
		c-1.021-0.548-2.068-0.61-3.195-0.188c-1.481,0.555-2.508,1.563-3.068,3l2.185,7.527c0.041-0.023,0.073-0.057,0.119-0.074
		c0.461-0.169,0.969,0.063,1.139,0.522L29.79,23.153c0.114-0.643,0.156-1.05,0.157-1.062c0.048-0.486,0.479-0.843,0.966-0.797
		c0.489,0.046,0.845,0.479,0.8,0.964c-0.014,0.145-0.354,3.589-1.979,6.838c-1.461,2.924-3.111,8.06-3.678,11.45
		c-0.562,3.35-2.805,8.796-2.898,9.025c-0.063,0.154-0.168,0.287-0.304,0.384c-0.705,0.503-1.744,0.9-2.847,1.321
		c-2.121,0.812-4.527,1.732-4.949,3.456c-0.662,2.72-3.064,6.976-3.959,8.505c0.228,0.208,0.452,0.348,0.547,0.335
		c0.01-0.004,0.045-0.025,0.1-0.087c0.797-0.919,2.583-4.091,3.203-5.235c0.098-0.177,0.253-0.317,0.439-0.395
		c0.823-0.342,2.647-0.477,3.665,1.458c0.228,0.433,0.062,0.969-0.372,1.196c-0.433,0.227-0.969,0.062-1.195-0.372
		c-0.354-0.671-0.83-0.753-1.162-0.709c-0.029,0.053-0.073,0.132-0.108,0.195c0.049,0.046,0.103,0.085,0.142,0.144
		c1.924,2.964,0.922,4.138-0.479,5.268c-0.637,0.514-1.238,1-1.539,1.919c-0.242,0.744-0.267,1.325-0.062,1.597
		c0.181,0.243,0.577,0.274,0.64,0.278l2.46-0.177l2.163-1.877c1.256-2.791,16.683-37.097,17.633-40.008
		c0.891-2.725-0.79-6.43-0.808-6.469C36.354,20.276,36.343,20.251,36.335,20.227z"/>
	<path fill="#2B93D1" d="M1.224,30.912c-0.67-2.043-5.546-0.021-5.546-0.021L-21.207,4.205c-0.88-0.493-1.775-0.991-2.657-1.479
		c-0.031,0.049-0.067,0.106-0.103,0.163l0.265,0.619l-0.6-0.078c-0.913,1.499-2.521,4.294-3.778,7.334
		c-1.892,4.573-5.672,19.558-0.512,33.796c1.03,2.838,3.17,7.944,6.368,15.183c0.525-2.525,1.033-4.85,1.498-6.802
		c0.19-0.801,0.404-1.567,0.635-2.304c-0.022-0.026-0.048-0.046-0.067-0.076c-1.663-2.607-3.27-6.465-3.337-6.627
		c-0.188-0.452,0.026-0.971,0.479-1.158c0.451-0.188,0.97,0.027,1.158,0.478c0.014,0.034,1.193,2.865,2.526,5.232
		c3.615-9.2,9.991-12.68,10.301-12.842c0.369-0.196,0.801-0.09,1.065,0.21C-4.436,34.117,1.793,32.648,1.224,30.912z"/>
	<polygon fill="#2B93D1" points="16.087,-8.615 16.009,-8.827 14.327,-6.131 	"/>
	<path fill="#2B93D1" d="M0.067-20.745c-0.887-0.271-1.768-0.569-2.632-0.927c-2.667-1.104-5.077-2.568-7.205-4.308
		c0.835,2.649,0.686,5.112-0.482,7.192c-0.221,0.395-0.7,0.555-1.108,0.386c-0.033-0.013-0.065-0.03-0.098-0.047
		c-0.427-0.24-0.578-0.781-0.339-1.206c2.742-4.881-2.479-10.834-2.533-10.894c-0.099-0.11-0.153-0.24-0.187-0.375
		c-3.911-5.192-6-11.618-5.817-18.191c-0.018-0.031-0.045-0.054-0.06-0.088c-0.143-0.336-13.951-33.013-15.323-36.3
		c-0.071,0.075-0.15,0.143-0.248,0.19c-0.235,0.116-0.5,0.116-0.727,0.022c-0.192-0.08-0.358-0.228-0.457-0.429
		c-0.971-1.98-0.111-3.833,0.096-4.229l14.548-37.679c0.177-0.457,0.689-0.684,1.146-0.507c0.322,0.122,0.521,0.418,0.553,0.742
		c0.316-0.097,0.659-0.182,1.061-0.233c0.633-0.081,1.311-0.057,1.967-0.034c1.934,0.068,3.16,0.015,3.893-1.285
		c0.24-0.427,0.784-0.577,1.207-0.337c0.426,0.24,0.577,0.78,0.336,1.206c-0.629,1.117-1.491,1.672-2.42,1.949
		c0.285,0.581,0.362,0.819,0.419,1.043c0.017,0.063,0.022,0.088,0.049,0.153c0.134,0.042,0.51-0.024,0.776-0.139l2.078-0.928
		c0.625-0.307,1.001-0.677,1.115-1.1c0.182-0.669-0.282-1.372-0.287-1.379c-0.031-0.047-0.062-0.101-0.084-0.152l-2.361-5.534
		c-0.192-0.45,0.018-0.97,0.467-1.162c0.451-0.192,0.971,0.018,1.162,0.467l1.168,2.737c1.117-1.337,1.441-3.927,1.083-4.532
		c-0.206-0.349-1.085-0.124-1.382-0.001c-0.028,0.012-0.062,0.023-0.092,0.031l-12.932,3.794c-0.116,0.037-3.143,1.024-5.028,4.98
		c-2.06,4.317-14.259,35.779-14.381,36.095c-0.008,0.019-0.015,0.036-0.021,0.053c-0.024,0.052-2.413,5.332-0.805,10.08
		c1.506,4.448,16.512,39.609,20.269,48.4c-0.015-3.653-1.616-5.892-1.639-5.923c-0.292-0.393-0.208-0.947,0.184-1.239
		c0.395-0.291,0.948-0.208,1.239,0.184c0.154,0.208,3.729,5.156,0.955,12.549c-1.562,4.161-6.571,18.469-6.621,18.613
		c-0.003,0.011-0.009,0.022-0.013,0.033c-0.087,0.223-2.081,5.566,3.891,8.788c5.294,2.854,12.513,7.021,13.084,7.353
		c0.098,0.045,0.21,0.107,0.357,0.188c6.076,3.31,8.854-0.728,9.768-2.055c1.78-2.589,3.245-4.708,5.069-5.82l5.238-7.404
		L0.067-20.745z M-15.289-17.1c-0.208,0.167-0.482,0.198-0.714,0.102c-0.105-0.044-0.205-0.115-0.282-0.212l-5.169-6.468
		c-0.245-0.305-0.194-0.751,0.11-0.996c0.305-0.245,0.751-0.195,0.997,0.111l5.169,6.468C-14.933-17.789-14.983-17.343-15.289-17.1z
		 M0.143-13.929l-8.229,0.924c-0.122,0.013-0.241-0.005-0.348-0.049c-0.23-0.095-0.404-0.311-0.436-0.576
		c-0.043-0.388,0.236-0.74,0.625-0.783l8.229-0.924c0.389-0.044,0.74,0.236,0.783,0.625C0.812-14.323,0.532-13.973,0.143-13.929z"/>
	<path fill="#ED7E1E" d="M-19.99-52.798c0.347-2.183,0.944-4.36,1.826-6.49c1.491-3.604,3.637-6.742,6.239-9.339
		c-2.242,0.091-7.562,0.683-13.088,3.939C-23.012-59.951-21.153-55.551-19.99-52.798z"/>
	<path fill="#ED7E1E" d="M-25.422,1.871c-0.329-0.18-0.654-0.356-0.972-0.527c-5.893-3.177-5.656-8.562-4.703-10.983
		c0.199-0.569,5.084-14.517,6.628-18.633c0.239-0.636,0.41-1.244,0.55-1.836c-0.174-0.092-0.326-0.231-0.41-0.427
		c-0.403-0.941-5.424-12.667-10.489-24.64c-0.802,1.234-1.545,2.551-2.217,3.932c-6.849,14.088-1.363,24.791,1.272,29.934
		c1.103,2.15,1.655,3.229,1.133,4.083c-1.248,2.039-4.065,0.819-5.932,0.011c-0.568-0.245-1.104-0.478-1.426-0.553
		c-1.393-0.321-1.723-0.397-2.156,1.105c-0.186,0.637,0.48,4.546,3.378,8.962c2.546,3.88,7.244,8.7,15.181,9.831
		C-25.525,2.034-25.472,1.951-25.422,1.871z"/>
	<path fill="#ED7E1E" d="M-23.967,2.889c-0.097,0.155-0.208,0.333-0.334,0.541l0.6,0.078L-23.967,2.889z"/>
	<path fill="#ED7E1E" d="M42.487-18.339c3.445-9.989,1.545-17.854-0.656-22.692c-1.557-3.421-3.458-5.833-4.601-7.106
		c-0.013,3.629-0.71,7.312-2.181,10.867c-2.646,6.396-7.435,11.555-13.57,14.665c2.617,1.779,4.281,5.503,4.931,8.307
		c0.335,1.446,1.87,6.075,3.717,11.463C35.993-6.214,40.053-11.282,42.487-18.339z"/>
	<path fill="#ED7E1E" d="M22.619,8.948c-0.05-0.011-0.101-0.013-0.149-0.033c-0.046-0.02-0.09-0.042-0.132-0.067
		c-0.26-0.162-0.789-0.385-1.35-0.621c-2.177-0.916-5.464-2.3-4.597-4.832c0.35-1.02,1.557-1.552,3.368-2.136l-2.925-7.864
		L5.902,8.827C5.877,8.862,5.85,8.896,5.82,8.928C5.761,8.989,5.031,9.78,4.536,11.025c0.021,0.028,0.051,0.047,0.07,0.078
		l2.556,4.393c8.854,1.064,15.47-3.533,15.92-4.344c0.053-0.097,0.103-0.188,0.144-0.275c0.019-0.039,0.051-0.063,0.074-0.098
		l-0.001-0.005L22.619,8.948z"/>
	<path fill="#206D9C" d="M-5.734-25.275c1.209,0.745,2.491,1.406,3.845,1.966c4.968,2.055,10.368,2.586,15.618,1.534
		c0.04-0.008,0.078,0.002,0.118,0c0.63-0.596,1.409-1.111,2.387-1.478c0.089-0.034,0.178-0.057,0.267-0.086
		c-2.962-1.977-4.983-5.14-5.693-6.365c-2.598,0.816-5.365,1.804-8.106,2.991C-0.492-25.33-3.474-25.119-5.734-25.275z"/>
	<path fill="#206D9C" d="M18.087-23.636c0.424-0.016,0.843,0.022,1.258,0.108c0.032-0.02,0.056-0.049,0.091-0.064
		c1.172-0.522,2.278-1.146,3.35-1.816L18.087-23.636z"/>
	<path fill="#206D9C" d="M24.25-28.707c-0.077,0.04-1.514,0.764-3.254,0.044c-0.502-0.208-1.029-0.536-1.557-1.036
		c-0.283-0.269-0.296-0.719-0.025-1.001c0.271-0.284,0.717-0.297,1.002-0.027c1.628,1.544,3.164,0.771,3.181,0.763
		c0.217-0.114,0.46-0.091,0.66,0.019l-0.72-2.88c-1.679,0.291-5.862,1.089-10.927,2.574l7.502,3.687l3.291-0.188
		c0.262-0.015,0.496,0.163,0.551,0.42c0.013,0.061,0.013,0.122,0.005,0.181c0.361-0.253,0.698-0.536,1.045-0.805l-0.499-1.995
		C24.441-28.854,24.361-28.765,24.25-28.707z"/>
	<path fill="#FFFFFF" d="M16.923-24.333l3.074-1.16c-0.079-0.001-0.159-0.02-0.229-0.054l-7.372-3.625
		C13.319-27.784,14.893-25.74,16.923-24.333z"/>
	<path fill="#206D9C" d="M0.068,85.815c-0.622,1.546-1.161,2.883-1.639,3.895c-0.926,1.967-2.682,3.889-4.48,5.509
		c7.889,16.995,14.871,31.735,14.939,31.883c0.006,0.012,0.013,0.026,0.019,0.039c0.739,1.786,3.024,7.359,3.46,9.166
		c0.096-0.176,0.205-0.404,0.327-0.698c0.942-2.279,0.819-2.925,0.085-5.599c-0.541-1.964,0.135-4.195,0.729-6.166
		c0.316-1.046,0.617-2.032,0.641-2.719c0.036-1.077-0.87-1.793-2.61-3.068c-0.586-0.429-1.248-0.913-1.928-1.476
		c-1.965-1.625-1.74-5.521-1.504-9.646c0.131-2.258,0.266-4.594-0.018-6.271C7.27,95.778,6.37,91.813,2.921,88.92
		c-1.358-1.14-2.205-2.417-2.72-3.433C0.157,85.595,0.111,85.709,0.068,85.815z"/>
	<path fill="#206D9C" d="M6.091,75.198c1.009-1.116,1.671-2.701,2.18-4.277c-1.62,1.501-3.083,3.776-4.381,6.269
		C4.496,76.764,5.243,76.135,6.091,75.198z"/>
	<path fill="#206D9C" d="M9.077,68.153c0.273-0.97,0.517-1.758,0.828-2.284l0.543-0.918c-0.106-0.067-0.206-0.13-0.3-0.205
		l-3.338,5.121C7.527,69.165,8.281,68.582,9.077,68.153z"/>
	<path fill="#206D9C" d="M13.561-17.901c-0.364,1.377-0.219,2.59-0.217,2.602c0.064,0.485-0.276,0.931-0.762,0.995
		c-0.484,0.064-0.93-0.276-0.994-0.761c-0.153-1.156-0.039-2.997,0.789-4.697c-4.135,0.575-8.318,0.236-12.311-0.983L7.964-7.953
		L2.725-0.549c1.006-0.613,2.119-0.924,3.458-0.83C6.669-1.345,7.037-0.92,7.003-0.432C6.969,0.057,6.546,0.424,6.057,0.39
		C3.419,0.203,1.942,2.169-0.884,6.275c-1.944,2.826-4.365,4.214-7.194,4.122c-1.285-0.042-2.445-0.394-3.35-0.768
		c-0.667-0.276-1.194-0.564-1.531-0.747c-0.122-0.066-0.214-0.119-0.274-0.146c-0.029-0.013-0.059-0.028-0.085-0.044
		c-0.054-0.031-3.781-2.186-7.888-4.487l16.885,26.687c0,0,4.876-2.022,5.546,0.021c0.569,1.736-5.661,3.205-9.189,4.942
		c0.045,0.051,0.097,0.095,0.13,0.158c0.229,0.431,0.063,0.966-0.366,1.195c-0.011,0.006-0.702,0.389-1.723,1.19l-13.297,55.864
		c0,0-0.073,3.203,0.49,5.118c0.385,0.232,0.801,0.435,1.267,0.58c2.961,0.924,5.551-0.221,6.832-0.982
		c1.836-1.094,2.844-2.463,3.004-3.272c0.513-2.602,6.79-11.327,7.571-12.406l13.322-20.44c0.17-0.282,3.35-5.586,4.072-8.543
		c0.32-1.307,1.223-2.247,2.344-2.975c0.014-0.125,0.049-0.25,0.12-0.365c5.369-8.685,0.004-17.121-0.052-17.205
		c-0.008-0.012-0.016-0.023-0.023-0.037L4.103,13.762c0.052,0.636,0.214,1.312,0.536,2.014c0.202,0.446,0.008,0.971-0.438,1.176
		c-0.232,0.106-0.488,0.103-0.709,0.012c-0.198-0.083-0.367-0.237-0.466-0.449c-2.104-4.584,1.005-8.258,1.462-8.759l9.838-13.887
		l1.681-2.696L15.572-10c-0.154-0.413,0.031-0.854,0.402-1.066l-2.185-7.527C13.702-18.372,13.625-18.143,13.561-17.901z"/>
	<path fill="#206D9C" d="M-2.585,84.279c-0.008,0.013-0.017,0.025-0.024,0.036c-2.64,3.642-6.948,10.045-7.28,11.729
		c-0.002,0.013-0.009,0.026-0.011,0.039c2.333-1.753,5.47-4.456,6.728-7.128c0.455-0.967,0.986-2.281,1.599-3.802
		c0.886-2.197,1.892-4.683,3.04-7.087L-2.585,84.279z"/>
	<path fill="#47B6E8" d="M30.731-35.177c3.729-9.016-0.556-19.348-9.57-23.079c-9.015-3.73-19.348,0.554-23.079,9.57
		c-2.969,7.175-0.848,15.173,4.681,20.024c2.453-1.029,4.913-1.907,7.244-2.646c-2.197-2.876-2.863-6.798-1.38-10.384
		c0.409-0.99,0.954-1.882,1.602-2.667c-1.373-1.026-1.942-2.877-1.256-4.534c0.812-1.959,3.058-2.89,5.019-2.08
		c1.295,0.537,2.126,1.703,2.317,2.996c0.625-0.124,1.264-0.192,1.909-0.199c0.006-0.194,0.042-0.39,0.121-0.58
		c0.353-0.849,1.324-1.253,2.175-0.901c0.783,0.324,1.178,1.175,0.961,1.971c0.29,0.092,0.58,0.189,0.866,0.308
		c3.684,1.524,6.038,4.903,6.429,8.607c0.178,1.684-0.049,3.435-0.742,5.109c-0.506,1.22-1.22,2.288-2.076,3.193l0.387,1.55
		C28.185-30.611,29.71-32.712,30.731-35.177z"/>
	<path fill="#231F20" d="M44.164-17.76c3.634-10.541,1.615-18.871-0.721-24.005c-2.533-5.57-5.904-8.612-6.046-8.738
		c-0.082-0.073-0.175-0.122-0.271-0.159c-0.881-10.396-7.387-19.966-17.675-24.223c-10.304-4.264-21.689-2.075-29.66,4.684
		c-0.139-0.112-0.303-0.196-0.495-0.207c-0.304-0.017-7.37-0.347-15.003,4.075c-3.848-9.111-7.955-18.839-8.442-20.017
		c-0.638-1.536-0.167-4.248,0.034-5.406c0.105-0.604,0.141-0.808,0.095-1.039c-0.003-0.016-0.014-0.027-0.018-0.042l12.433-32.199
		l0.11,0.055l-0.014,0.027c0.018-0.029,0.446-0.718,1.988-0.914c0.488-0.062,1.067-0.041,1.68-0.02
		c0.391,0.014,0.804,0.023,1.221,0.016c0.483,0.926,0.529,1.104,0.56,1.226c0.021,0.089,0.053,0.21,0.129,0.394
		c0.185,0.444,0.509,0.773,0.943,0.952c0.008,0.003,0.015,0.006,0.021,0.011c0.91,0.362,1.963-0.07,2.165-0.159l2.097-0.937
		c0.009-0.004,0.017-0.008,0.025-0.012c1.124-0.546,1.821-1.307,2.071-2.261c0.334-1.277-0.279-2.403-0.488-2.736l-0.42-0.984
		c2.093-1.713,2.736-5.706,1.863-7.177c-0.826-1.394-2.592-1.138-3.541-0.753l-12.894,3.782c-0.158,0.049-3.884,1.22-6.124,5.917
		c-2.074,4.353-13.799,34.581-14.424,36.193c-0.225,0.497-2.655,6.071-0.862,11.364c0.805,2.379,5.248,13.021,9.858,23.934
		c-1.098,1.569-2.104,3.281-2.988,5.099c-7.234,14.883-1.478,26.117,1.289,31.517c0.489,0.953,1.037,2.023,1.122,2.446
		c-0.566,0.545-2.477-0.282-3.64-0.785c-0.671-0.291-1.252-0.542-1.731-0.654c-1.417-0.327-3.355-0.775-4.257,2.338
		c-0.469,1.622,0.893,6.304,3.6,10.427c2.075,3.164,5.477,6.912,10.722,9.083c1.497,0.618,3.153,1.098,4.96,1.411
		c-0.934,1.616-2.141,3.872-3.155,6.324c-1.965,4.748-5.893,20.307-0.541,35.076c1.148,3.164,3.646,9.079,7.423,17.569
		c-2.603,12.931-5.387,29.149-5.422,29.357c-0.011,0.066-0.015,0.133-0.011,0.199c0.005,0.075,0.113,1.894,0.909,3.938
		c0.989,2.537,2.608,4.315,4.713,5.184c0.214,0.088,0.432,0.168,0.654,0.234c3.617,1.127,6.73-0.238,8.267-1.152
		c0.451-0.268,0.87-0.566,1.261-0.878c0.229,0.062,0.478,0.052,0.695-0.081c0.159-0.099,2.113-1.312,4.321-3.114
		c7.672,16.521,14.432,30.798,14.726,31.419c1.614,3.893,3.321,8.314,3.391,8.983c0.061,0.842,0.43,1.462,0.984,1.692
		c0.09,0.036,0.185,0.064,0.285,0.08c1.347,0.218,2.134-1.683,2.394-2.309c1.15-2.78,0.938-3.904,0.155-6.747
		c-0.404-1.47,0.193-3.443,0.72-5.182c0.353-1.16,0.685-2.254,0.714-3.173c0.069-2.065-1.509-3.22-3.334-4.557
		c-0.595-0.434-1.206-0.883-1.846-1.412c-1.274-1.053-1.055-4.839-0.863-8.18c0.136-2.355,0.276-4.791-0.039-6.666
		c-0.88-5.247-1.865-9.524-5.775-12.805c-2.276-1.909-2.847-4.312-2.853-4.336c-0.008-0.038-0.032-0.066-0.045-0.101
		c0.454-1.091,0.941-2.223,1.463-3.357c0.01-0.001,0.02,0.001,0.03-0.001c0.209-0.043,2.132-0.493,4.746-3.383
		c1.775-1.962,2.612-4.986,3.223-7.196c0.283-1.025,0.552-1.995,0.802-2.418l0.899-1.521c0.011-0.019,0.011-0.04,0.021-0.06
		c0.243-0.104,0.495-0.268,0.735-0.544c0.562-0.65,1.433-2.068,2.157-3.309c0.754,1.323,0.414,1.602-0.474,2.317
		c-0.696,0.562-1.65,1.329-2.113,2.75c-0.444,1.354-0.375,2.433,0.2,3.204c0.292,0.391,0.658,0.628,1.006,0.773
		c0.536,0.222,1.024,0.22,1.107,0.217c0.014-0.001,0.027-0.001,0.039-0.002l2.789-0.199c0.193-0.015,0.372-0.089,0.519-0.215
		l2.533-2.198c0.096-0.083,0.174-0.188,0.227-0.305c0.683-1.519,16.767-37.254,17.781-40.362c1.064-3.257-0.656-7.254-0.865-7.721
		c-0.252-0.708-4.076-11.436-7.275-20.72C37.132-4.72,41.541-10.159,44.164-17.76z M37.172,26.768
		c-0.95,2.911-16.377,37.217-17.633,40.008l-2.163,1.877l-2.46,0.177c-0.062-0.004-0.459-0.035-0.64-0.278
		c-0.204-0.272-0.18-0.853,0.062-1.597c0.301-0.919,0.902-1.405,1.539-1.919c1.401-1.13,2.403-2.304,0.479-5.268
		c-0.039-0.059-0.093-0.098-0.142-0.144c0.035-0.063,0.079-0.142,0.108-0.195c0.332-0.044,0.809,0.038,1.162,0.709
		c0.227,0.434,0.763,0.599,1.195,0.372c0.434-0.227,0.6-0.763,0.372-1.196c-1.018-1.935-2.842-1.8-3.665-1.458
		c-0.187,0.078-0.342,0.218-0.439,0.395c-0.62,1.144-2.406,4.316-3.203,5.235c-0.055,0.062-0.09,0.083-0.1,0.087
		c-0.095,0.013-0.319-0.127-0.547-0.335c0.895-1.529,3.297-5.785,3.959-8.505c0.422-1.724,2.828-2.644,4.949-3.456
		c1.103-0.421,2.142-0.818,2.847-1.321c0.136-0.097,0.24-0.23,0.304-0.384c0.094-0.229,2.337-5.675,2.898-9.025
		c0.566-3.39,2.217-8.526,3.678-11.45c1.625-3.249,1.965-6.693,1.979-6.838c0.045-0.485-0.311-0.918-0.8-0.964
		c-0.487-0.046-0.918,0.311-0.966,0.797c-0.001,0.012-0.043,0.419-0.157,1.062L17.231-10.618c-0.17-0.459-0.678-0.691-1.139-0.522
		c-0.045,0.017-0.078,0.051-0.119,0.074c-0.371,0.211-0.556,0.653-0.402,1.066l0.437,1.173l0.079,0.211l-1.76,2.484L4.489,7.756
		c-0.457,0.501-3.565,4.175-1.462,8.759c0.099,0.212,0.268,0.366,0.466,0.449c0.221,0.091,0.477,0.094,0.709-0.012
		c0.445-0.205,0.64-0.73,0.438-1.176c-0.322-0.702-0.484-1.378-0.536-2.014l11.621,19.971c0.008,0.014,0.016,0.025,0.023,0.037
		c0.056,0.084,5.421,8.52,0.052,17.205c-0.071,0.115-0.106,0.24-0.12,0.365c-1.122,0.728-2.024,1.667-2.344,2.975
		c-0.722,2.957-3.901,8.261-4.072,8.543l-13.322,20.44c-0.781,1.079-7.059,9.804-7.571,12.406c-0.16,0.809-1.168,2.178-3.004,3.272
		c-1.281,0.761-3.871,1.906-6.832,0.982c-0.466-0.145-0.882-0.347-1.267-0.58c-3.169-1.916-3.698-6.4-3.76-7.094
		c0.322-1.874,4.692-27.182,7.489-38.933c1.46-6.135,4.315-10.195,6.454-12.52c0.976-1.061,1.885-1.854,2.625-2.434
		c1.021-0.801,1.712-1.184,1.723-1.19c0.43-0.229,0.595-0.764,0.366-1.195c-0.033-0.063-0.084-0.107-0.13-0.158
		c-0.264-0.3-0.697-0.406-1.065-0.21c-0.31,0.162-6.686,3.642-10.301,12.842c-1.333-2.367-2.513-5.198-2.526-5.232
		c-0.188-0.451-0.707-0.666-1.158-0.478c-0.453,0.187-0.667,0.706-0.479,1.158c0.067,0.162,1.674,4.02,3.337,6.627
		c0.019,0.03,0.045,0.05,0.067,0.076c-0.231,0.737-0.444,1.503-0.635,2.304c-0.465,1.952-0.973,4.276-1.498,6.802
		c-3.197-7.238-5.338-12.344-6.368-15.183c-5.16-14.238-1.38-29.223,0.512-33.796c1.258-3.04,2.865-5.835,3.778-7.334
		c0.127-0.208,0.237-0.386,0.334-0.541c0.035-0.057,0.072-0.114,0.103-0.163c0.882,0.487,1.777,0.985,2.657,1.479
		c4.107,2.301,7.834,4.457,7.888,4.487c0.026,0.016,0.056,0.031,0.085,0.044c0.061,0.027,0.152,0.08,0.274,0.146
		c0.337,0.183,0.864,0.471,1.531,0.747c0.904,0.374,2.064,0.726,3.35,0.768c2.829,0.092,5.25-1.296,7.194-4.122
		C1.942,2.169,3.419,0.203,6.057,0.39c0.488,0.034,0.912-0.333,0.945-0.822C7.037-0.92,6.669-1.345,6.183-1.379
		c-1.339-0.095-2.452,0.217-3.458,0.83c-1.824,1.112-3.289,3.231-5.069,5.82c-0.914,1.327-3.691,5.365-9.768,2.055
		c-0.147-0.081-0.26-0.143-0.357-0.188c-0.571-0.332-7.79-4.499-13.084-7.353c-5.972-3.222-3.978-8.565-3.891-8.788
		c0.004-0.011,0.01-0.022,0.013-0.033c0.05-0.144,5.059-14.452,6.621-18.613c2.773-7.393-0.801-12.341-0.955-12.549
		c-0.291-0.392-0.845-0.475-1.239-0.184c-0.392,0.292-0.476,0.846-0.184,1.239c0.023,0.031,1.625,2.27,1.639,5.923
		c-3.757-8.791-18.763-43.952-20.269-48.4c-1.608-4.748,0.78-10.028,0.805-10.08c0.007-0.017,0.014-0.034,0.021-0.053
		c0.122-0.316,12.321-31.778,14.381-36.095c1.886-3.956,4.912-4.943,5.028-4.98l12.932-3.794c0.029-0.008,0.063-0.019,0.092-0.031
		c0.297-0.123,1.176-0.348,1.382,0.001c0.358,0.605,0.034,3.195-1.083,4.532l-1.168-2.737c-0.191-0.449-0.711-0.659-1.162-0.467
		c-0.449,0.192-0.659,0.712-0.467,1.162l2.361,5.534c0.021,0.051,0.053,0.105,0.084,0.152c0.005,0.007,0.469,0.71,0.287,1.379
		c-0.114,0.423-0.49,0.793-1.115,1.1l-2.078,0.928c-0.267,0.115-0.643,0.181-0.776,0.139c-0.026-0.065-0.032-0.09-0.049-0.153
		c-0.057-0.225-0.135-0.462-0.419-1.043c0.93-0.277,1.792-0.832,2.42-1.949c0.241-0.426,0.09-0.966-0.336-1.206
		c-0.423-0.24-0.967-0.09-1.207,0.337c-0.732,1.3-1.959,1.353-3.893,1.285c-0.656-0.023-1.334-0.047-1.967,0.034
		c-0.402,0.051-0.745,0.136-1.061,0.233c-0.032-0.323-0.231-0.62-0.553-0.742c-0.457-0.177-0.97,0.05-1.146,0.507l-14.548,37.679
		c-0.207,0.396-1.066,2.249-0.096,4.229c0.099,0.201,0.265,0.349,0.457,0.429c0.227,0.094,0.491,0.094,0.727-0.022
		c0.098-0.048,0.177-0.116,0.248-0.19c1.372,3.288,15.18,35.964,15.323,36.3c0.014,0.034,0.042,0.057,0.06,0.088
		c-0.184,6.573,1.906,12.999,5.817,18.191c0.034,0.134,0.088,0.264,0.187,0.375c0.054,0.06,5.275,6.013,2.533,10.894
		c-0.239,0.425-0.088,0.966,0.339,1.206c0.032,0.017,0.064,0.034,0.098,0.047c0.408,0.169,0.888,0.009,1.108-0.386
		c1.168-2.08,1.317-4.542,0.482-7.192c2.127,1.74,4.537,3.204,7.205,4.308c0.865,0.358,1.746,0.656,2.632,0.927
		c3.993,1.219,8.175,1.558,12.311,0.983c-0.827,1.701-0.942,3.542-0.789,4.697c0.064,0.485,0.51,0.825,0.994,0.761
		c0.485-0.064,0.826-0.51,0.762-0.995c-0.002-0.012-0.147-1.225,0.217-2.602c0.064-0.242,0.141-0.471,0.228-0.692
		c0.56-1.437,1.587-2.445,3.068-3c1.127-0.422,2.174-0.36,3.195,0.188c2.28,1.222,3.971,4.651,4.633,7.506
		c0.971,4.192,11.214,32.907,11.649,34.127c0.008,0.024,0.02,0.049,0.029,0.072C36.382,20.338,38.062,24.043,37.172,26.768z
		 M23.299,10.779c-0.023,0.034-0.055,0.059-0.074,0.098c-0.041,0.087-0.091,0.178-0.144,0.275c-0.45,0.811-7.065,5.408-15.92,4.344
		l-2.556-4.393c-0.019-0.031-0.048-0.05-0.07-0.078C5.031,9.78,5.761,8.989,5.82,8.928c0.03-0.032,0.057-0.066,0.082-0.101
		L16.835-6.605l2.925,7.864c-1.811,0.584-3.019,1.116-3.368,2.136c-0.867,2.532,2.42,3.916,4.597,4.832
		c0.561,0.236,1.09,0.459,1.35,0.621c0.042,0.025,0.086,0.047,0.132,0.067c0.048,0.02,0.1,0.021,0.149,0.033l0.679,1.826
		L23.299,10.779C23.3,10.779,23.3,10.779,23.299,10.779z M21.675,6.593c-1.377-0.578-3.938-1.657-3.608-2.622
		c0.148-0.316,1.424-0.765,2.311-1.051l1.379,3.708C21.728,6.616,21.703,6.604,21.675,6.593z M8.255,17.375
		c7.484,0.473,13.726-2.706,15.77-4.645l4.866,13.083c0.038,0.102,0.1,0.186,0.166,0.264c-0.238,0.724-0.536,1.485-0.907,2.229
		c-1.53,3.054-3.251,8.415-3.842,11.95c-0.462,2.763-2.241,7.283-2.688,8.391c-0.541,0.325-1.371,0.643-2.246,0.978
		c-0.342,0.131-0.697,0.269-1.055,0.413c2.047-4.364,1.831-8.495,1.216-11.334c-0.729-3.364-2.129-5.622-2.291-5.878L8.255,17.375z
		 M10.148,64.746c0.094,0.075,0.194,0.138,0.3,0.205l-0.543,0.918c-0.312,0.526-0.555,1.314-0.828,2.284
		c-0.795,0.428-1.55,1.012-2.268,1.713L10.148,64.746z M8.271,70.921c-0.509,1.576-1.171,3.161-2.18,4.277
		c-0.847,0.937-1.595,1.566-2.201,1.992C5.187,74.698,6.651,72.422,8.271,70.921z M2.921,88.92c3.449,2.893,4.35,6.858,5.169,11.744
		c0.283,1.677,0.148,4.013,0.018,6.271c-0.236,4.125-0.461,8.021,1.504,9.646c0.68,0.563,1.342,1.047,1.928,1.476
		c1.74,1.275,2.646,1.991,2.61,3.068c-0.023,0.687-0.324,1.673-0.641,2.719c-0.595,1.971-1.271,4.202-0.729,6.166
		c0.734,2.674,0.857,3.32-0.085,5.599c-0.122,0.294-0.231,0.522-0.327,0.698c-0.436-1.807-2.721-7.38-3.46-9.166
		c-0.006-0.013-0.013-0.027-0.019-0.039c-0.068-0.148-7.05-14.888-14.939-31.883c1.798-1.62,3.554-3.542,4.48-5.509
		c0.478-1.012,1.017-2.349,1.639-3.895c0.043-0.106,0.089-0.22,0.132-0.328C0.716,86.503,1.563,87.78,2.921,88.92z M-1.574,85.152
		c-0.612,1.521-1.144,2.835-1.599,3.802c-1.258,2.673-4.395,5.375-6.728,7.128c0.002-0.013,0.009-0.026,0.011-0.039
		c0.332-1.684,4.641-8.087,7.28-11.729c0.008-0.011,0.017-0.023,0.024-0.036l4.051-6.214C0.318,80.469-0.688,82.955-1.574,85.152z
		 M-40.765-7.701c-2.897-4.416-3.563-8.325-3.378-8.962c0.434-1.502,0.764-1.426,2.156-1.105c0.321,0.075,0.857,0.308,1.426,0.553
		c1.866,0.808,4.684,2.028,5.932-0.011c0.522-0.854-0.03-1.933-1.133-4.083c-2.636-5.143-8.121-15.846-1.272-29.934
		c0.672-1.38,1.415-2.697,2.217-3.932c5.065,11.972,10.086,23.699,10.489,24.64c0.084,0.195,0.235,0.335,0.41,0.427
		c-0.14,0.592-0.312,1.201-0.55,1.836c-1.544,4.116-6.429,18.064-6.628,18.633c-0.953,2.421-1.189,7.806,4.703,10.983
		c0.317,0.171,0.643,0.348,0.972,0.527c-0.05,0.08-0.103,0.163-0.162,0.258C-33.521,0.999-38.219-3.821-40.765-7.701z
		 M18.775-73.248c13.768,5.697,20.333,21.534,14.636,35.301c-1.561,3.773-3.933,7.068-6.896,9.735l-0.177-0.708l-0.387-1.55
		c0.856-0.905,1.57-1.973,2.076-3.193c0.692-1.674,0.919-3.425,0.742-5.109c-0.392-3.704-2.746-7.083-6.429-8.606
		c-0.286-0.119-0.576-0.216-0.866-0.308c-0.018,0.068-0.033,0.136-0.061,0.202c-0.352,0.85-1.324,1.253-2.174,0.902
		c-0.66-0.273-1.045-0.92-1.022-1.594c-0.645,0.007-1.283,0.076-1.909,0.199c0.098,0.663,0.037,1.358-0.238,2.022
		c-0.812,1.96-3.057,2.892-5.017,2.08C10.75-44,10.48-44.17,10.228-44.359c-0.647,0.786-1.192,1.678-1.602,2.668
		c-1.483,3.585-0.816,7.508,1.38,10.383l0,0c-2.331,0.739-4.791,1.617-7.244,2.646c-0.255,0.107-0.51,0.214-0.765,0.324
		c-5.276,2.284-10.017,0.996-11.022,0.675c-8.709-7.39-12.099-19.839-7.502-30.947C-10.83-72.378,5.006-78.946,18.775-73.248z
		 M19.344-23.528c-0.415-0.086-0.833-0.124-1.258-0.108l4.699-1.772c-1.072,0.67-2.178,1.294-3.35,1.816
		C19.4-23.577,19.377-23.548,19.344-23.528z M19.768-25.547c0.069,0.034,0.149,0.053,0.229,0.054l-3.074,1.16
		c-2.029-1.407-3.604-3.451-4.526-4.839L19.768-25.547z M23.959-26.151c0.008-0.059,0.008-0.12-0.005-0.181
		c-0.055-0.257-0.289-0.435-0.551-0.42l-3.291,0.188l-7.502-3.687c5.064-1.485,9.248-2.283,10.927-2.574l0.72,2.88
		c-0.2-0.109-0.443-0.132-0.66-0.019c-0.017,0.008-1.553,0.781-3.181-0.763c-0.285-0.27-0.731-0.257-1.002,0.027
		c-0.271,0.282-0.258,0.732,0.025,1.001c0.527,0.5,1.055,0.828,1.557,1.036c1.74,0.72,3.177-0.004,3.254-0.044
		c0.111-0.058,0.191-0.146,0.255-0.244l0.499,1.995C24.656-26.687,24.32-26.404,23.959-26.151z M16.501-23.339
		c-0.089,0.029-0.178,0.052-0.267,0.086c-0.978,0.367-1.757,0.882-2.387,1.478c-0.04,0.002-0.078-0.008-0.118,0
		c-5.25,1.052-10.65,0.521-15.618-1.534c-1.354-0.56-2.636-1.222-3.845-1.966c2.26,0.157,5.242-0.054,8.436-1.438
		c2.742-1.187,5.508-2.175,8.106-2.991C11.518-28.479,13.539-25.316,16.501-23.339z M-18.164-59.288
		c-0.881,2.13-1.479,4.307-1.826,6.49c-1.163-2.752-3.022-7.152-5.023-11.89c5.525-3.256,10.846-3.848,13.088-3.939
		C-14.527-66.03-16.673-62.892-18.164-59.288z M26.41-14.299c-0.65-2.803-2.314-6.528-4.931-8.307
		c6.135-3.11,10.923-8.269,13.57-14.665c1.471-3.555,2.168-7.238,2.181-10.867c1.143,1.273,3.044,3.685,4.601,7.106
		c2.201,4.838,4.102,12.703,0.656,22.692c-2.434,7.057-6.494,12.125-12.36,15.503C28.28-8.224,26.745-12.853,26.41-14.299z"/>
	<path fill="#231F20" d="M-20.347-24.563c-0.246-0.306-0.692-0.356-0.997-0.111c-0.305,0.245-0.355,0.691-0.11,0.996l5.169,6.468
		c0.077,0.097,0.177,0.168,0.282,0.212c0.231,0.096,0.506,0.065,0.714-0.102c0.307-0.243,0.356-0.689,0.111-0.995L-20.347-24.563z"
		/>
	<path fill="#231F20" d="M-0.015-15.337l-8.229,0.924c-0.389,0.043-0.668,0.395-0.625,0.783c0.031,0.265,0.205,0.481,0.436,0.576
		c0.106,0.044,0.226,0.062,0.348,0.049l8.229-0.924c0.389-0.044,0.669-0.394,0.625-0.783C0.725-15.101,0.374-15.381-0.015-15.337z"
		/>
</g>
</svg>
