<?xml version="1.0" encoding="utf-8"?>
<!-- Generator: Adobe Illustrator 16.0.0, SVG Export Plug-In . SVG Version: 6.00 Build 0)  -->
<!DOCTYPE svg PUBLIC "-//W3C//DTD SVG 1.1//EN" "http://www.w3.org/Graphics/SVG/1.1/DTD/svg11.dtd" [
	<!ENTITY ns_extend "http://ns.adobe.com/Extensibility/1.0/">
	<!ENTITY ns_ai "http://ns.adobe.com/AdobeIllustrator/10.0/">
	<!ENTITY ns_graphs "http://ns.adobe.com/Graphs/1.0/">
	<!ENTITY ns_vars "http://ns.adobe.com/Variables/1.0/">
	<!ENTITY ns_imrep "http://ns.adobe.com/ImageReplacement/1.0/">
	<!ENTITY ns_sfw "http://ns.adobe.com/SaveForWeb/1.0/">
	<!ENTITY ns_custom "http://ns.adobe.com/GenericCustomNamespace/1.0/">
	<!ENTITY ns_adobe_xpath "http://ns.adobe.com/XPath/1.0/">
]>
<svg version="1.1" id="Layer_1" xmlns:x="&ns_extend;" xmlns:i="&ns_ai;" xmlns:graph="&ns_graphs;"
	 xmlns="http://www.w3.org/2000/svg" xmlns:xlink="http://www.w3.org/1999/xlink" x="0px" y="0px" width="1700.791px"
	 height="850.39px" viewBox="0 0 1700.791 850.39" enable-background="new 0 0 1700.791 850.39" xml:space="preserve">
<metadata><?xpacket begin="﻿" id="W5M0MpCehiHzreSzNTczkc9d"?>
<x:xmpmeta xmlns:x="adobe:ns:meta/" x:xmptk="Adobe XMP Core 5.3-c011 66.145661, 2012/02/06-14:56:27        ">
   <rdf:RDF xmlns:rdf="http://www.w3.org/1999/02/22-rdf-syntax-ns#">
      <rdf:Description rdf:about=""
            xmlns:dc="http://purl.org/dc/elements/1.1/">
         <dc:format>image/svg+xml</dc:format>
         <dc:title>
            <rdf:Alt>
               <rdf:li xml:lang="x-default">Print</rdf:li>
            </rdf:Alt>
         </dc:title>
      </rdf:Description>
      <rdf:Description rdf:about=""
            xmlns:xmp="http://ns.adobe.com/xap/1.0/"
            xmlns:xmpGImg="http://ns.adobe.com/xap/1.0/g/img/">
         <xmp:MetadataDate>2018-09-03T12:02:36-03:00</xmp:MetadataDate>
         <xmp:ModifyDate>2018-09-03T12:02:36-03:00</xmp:ModifyDate>
         <xmp:CreateDate>2018-09-03T12:02:36-03:00</xmp:CreateDate>
         <xmp:CreatorTool>Adobe Illustrator CS6 (Macintosh)</xmp:CreatorTool>
         <xmp:Thumbnails>
            <rdf:Alt>
               <rdf:li rdf:parseType="Resource">
                  <xmpGImg:width>256</xmpGImg:width>
                  <xmpGImg:height>88</xmpGImg:height>
                  <xmpGImg:format>JPEG</xmpGImg:format>
                  <xmpGImg:image>/9j/4AAQSkZJRgABAgEASABIAAD/7QAsUGhvdG9zaG9wIDMuMAA4QklNA+0AAAAAABAASAAAAAEA&#xA;AQBIAAAAAQAB/+4ADkFkb2JlAGTAAAAAAf/bAIQABgQEBAUEBgUFBgkGBQYJCwgGBggLDAoKCwoK&#xA;DBAMDAwMDAwQDA4PEA8ODBMTFBQTExwbGxscHx8fHx8fHx8fHwEHBwcNDA0YEBAYGhURFRofHx8f&#xA;Hx8fHx8fHx8fHx8fHx8fHx8fHx8fHx8fHx8fHx8fHx8fHx8fHx8fHx8fHx8f/8AAEQgAWAEAAwER&#xA;AAIRAQMRAf/EAaIAAAAHAQEBAQEAAAAAAAAAAAQFAwIGAQAHCAkKCwEAAgIDAQEBAQEAAAAAAAAA&#xA;AQACAwQFBgcICQoLEAACAQMDAgQCBgcDBAIGAnMBAgMRBAAFIRIxQVEGE2EicYEUMpGhBxWxQiPB&#xA;UtHhMxZi8CRygvElQzRTkqKyY3PCNUQnk6OzNhdUZHTD0uIIJoMJChgZhJRFRqS0VtNVKBry4/PE&#xA;1OT0ZXWFlaW1xdXl9WZ2hpamtsbW5vY3R1dnd4eXp7fH1+f3OEhYaHiImKi4yNjo+Ck5SVlpeYmZ&#xA;qbnJ2en5KjpKWmp6ipqqusra6voRAAICAQIDBQUEBQYECAMDbQEAAhEDBCESMUEFURNhIgZxgZEy&#xA;obHwFMHR4SNCFVJicvEzJDRDghaSUyWiY7LCB3PSNeJEgxdUkwgJChgZJjZFGidkdFU38qOzwygp&#xA;0+PzhJSktMTU5PRldYWVpbXF1eX1RlZmdoaWprbG1ub2R1dnd4eXp7fH1+f3OEhYaHiImKi4yNjo&#xA;+DlJWWl5iZmpucnZ6fkqOkpaanqKmqq6ytrq+v/aAAwDAQACEQMRAD8A9U4q7FXYq7FXYq7FXYq7&#xA;FXYq7FXYq7FXYq7FXYq7FXYq7FXYq7FXYq7FXYq7FXYq7FXYq7FXYqg9W1FdOsJLtkMnCgCA0qWN&#xA;OuWYsfHKmjU5/CgZVbCr7zhq9zVY3FtGe0X2v+CO/wB1M2ENLAeboM3aWWfL0jyS201S/tLk3MMz&#xA;CU/bJPLl7NXrl0scZCiHFx6icJcQO71PNK9g7FXYq7FXYq7FXYq7FXYq7FXYq7FXYq7FXYq7FXYq&#xA;7FVL61bC4Ft6q/WCOQiqOVPGmS4TV9GHiR4uG/V3KuRZuxV2KrZJEjRpJGCIgqzHYADucIFolIAW&#xA;UJpmsWOpJI1q5PptxZWFD7Gnge2TyYpQ5tGDUwyg8PRG5W5DsVdirsVdiqS+cP8Ajgzf6yf8TGZG&#xA;l+sOB2n/AHJ+H3vPM2rzDsVeu5ontkLq08tvpl1PEeMscbMjUBoQNtjk8cQZAFp1EzHHIjmAwQeb&#xA;vMAIJuqgdjHHQ/cubP8ALY+550dpZ/532D9TPNNvo76xiuo9hItSvgw2YfQc1mSHDKno8GUZICQ6&#xA;onINrsVdirsVdiriQASdgNziqReX/MLaleXULgBVJktqdfTB4/F79Myc+DgALrtHrfFlIH4e5Pcx&#xA;nYuxV2KuxV2KuxV2KvMLSWU63DIXJkNwpLkmu7jvm5kBwH3PI45HxgevF+l6fmmeudirsVSXzgSN&#xA;Bn92Sv8AwYzI0v1hwO0v7k/D72P+RCf0tMO31dv+JpmVrPpHvdZ2R/en+r+kM6zWvROxV2KuxV2K&#xA;pL5w/wCODN/rJ/xMZkaX6w4Haf8Acn4fe88zavMOxV67mie2QOu/8ca9/wCML/qy3D9Y97j6v+6l&#xA;7i8wzcPIvQ/J/wDxwYf9Z/8AiZzVar6y9P2Z/cj4/enWY7nuxV2KuxV2KqF8/p2Nw/8AJE7fcpOS&#xA;gLkGvMagT5FhXkdiNYcfzQMD/wAEp/hmx1n0fF0HZJ/en+r+pnmax6N2KuxV2KuxV2KuxV5dZ/8A&#xA;HXg/5iE/4mM3MvoPueQxf3o/rfpeo5pnr3Yq4kAEk0A6nFXnup+Zrm9ivLVwGt5XDQGlCiqwIG3W&#xA;oGbXHpxEg9Xmc+vlkEon6SdkR5E/4683/MO3/E0yGs+ge9s7I/vT/V/SGdZrXonYq7FXYq7FUl84&#xA;f8cGb/WT/iYzI0v1hwO0/wC5Pw+955m1eYdir13NE9sgdd/4417/AMYX/VluH6x73H1f91L3F5hm&#xA;4eReh+T/APjgw/6z/wDEzmq1X1l6fsz+5Hx+9Osx3PdirsVdirsVQOuvw0a9PjC6/wDBCn8cswj1&#xA;j3uPqzWKXuLDfJjU1xBWnKNx89q5sNX9Douyz+++BegZq3pXYq7FXYq7FXYq7FXl1n/x14P+YhP+&#xA;JjNzL6D7nkMX96P636XqOaZ692KpV5ovvqmjTMppJN+6T5v1/wCFrl+nhxTDha/LwYj3nZ5vm2eW&#xA;TTy5q0emaj68qlopEMbkdVBINR4/ZynPj440HM0WoGLJZ5HZ6NBPFPEk0Lh4nFVYdCM1JBBovUQm&#xA;JCxyX4GTsVdirsVSXzh/xwZv9ZP+JjMjS/WHA7T/ALk/D73nmbV5h2Ksr8xea7xbmWytP3CxMUeX&#xA;9tiPD+UZhYNMKs7u51vaExIwjtXVCR+bbiXTLiyvV9RpI2SOcfaqRtyHf55M6YCQkGmPaMjjMJ72&#xA;ObH8ynWPQ/J//HBh/wBZ/wDiZzVar6y9P2Z/cj4/enWY7nuxV2KuxV2KpV5qfhoF2fEKv3uoy/TD&#xA;1hw+0DWGX46sQ8oNTX7cfzCQf8Ix/hmdqvoLpOzT++Hx+56JmqenYL5h8zag2oPBbSNbxWzsnwGh&#xA;ZlNCW9vbNlg08eGzvbzut18zMxieERKxfOuri3EZ4GUEH1uO5HcEdPuph/KQtA7Vy8NbX3pvpvne&#xA;0lol9GYH/wB+LVk+77Q/HKMmkI+ndzcHasTtMV9yz/Fhu9ZtbW0qlqZeMjkCsldh8hh/LcMCTzY/&#xA;yjx5Yxj9N/NUsvNJTWLqxvmAiE7pBLQDjRioVqdvfBPTegSj3MsXaFZZQny4jRRmv+ZLfTEMUdJb&#xA;xh8MfZa92/pleHAZ79G/Wa6OIUN5MF09i2p2zHqZkJ+lxmyn9J9zz2E3kj7x971PNK9g7FWIefpH&#xA;5Wcdfgo7U9/hGZ+iHN0nbBPpHvYjmc6R2Ksj8l6hdJqK2QetvKGJjO4BUVqvhmJq4Dhvq7TsvNIZ&#xA;OD+Es6zWvROxV2KuxV5xrmtajd3VxBJMTbrIyrEtAtFbbp1+nNthxRiAQN3ltXqpzkQT6bSnL3Cd&#xA;iq+aaWeZ5pW5SSMWdvEnc4AABQZSkZEk8yswsXYq9D8n/wDHBh/1n/4mc1Wq+svT9mf3I+P3p1mO&#xA;57sVdiry2/5W2p3SQuyiOZwprv8AC5ANRm5hvEX3PIZrhkkAeUj97OvLeuLqdpxkIF3CAJR/MOzj&#xA;59812ow8B8nodDq/Fjv9Q5/rUvOb8dDcfzyIv41/hh0g9bDtQ1h+IYp5WYjXrQjb4mH3owzN1H0F&#xA;03Z5/fR/HR6Hc3VvawtPcSCOJerH3zVxiSaD0+TJGAuRoPL9QlWa/uZlNVkld1I7hmJzcwFRAeRz&#xA;S4pyPeSh8k1OxVH6F/x2bL/jMn68qzfQfc5Ok/vY+8KerkHVr0g1Bnlof9mcOL6R7mOp/vZf1j96&#xA;FZmYksSSepO5yxpJtX09lS/tmYhVWVCzHYABhkZ/SWzCanH3h6nJNFFGZZHVI1FS7EAAfM5pQCdn&#xA;r5SAFnklcPmrRJbgwCfiegkYFUJ9mP8AHLjppgXTiR7QwmVX+pI/PpBlsiDUFXoR81zJ0XIuv7XO&#xA;8fixTM10zsVRelai+nX0d2iBylQVO1QRQ9MryY+ONN+nznFMSD0W01nTrmzF2sypEaB+ZClWP7LV&#xA;6HNVLFIGqenx6qE4cV7JPN5lmutF1C8tV9Brd41hY0YkM6ipBBGZA04EwDvbhS1xninKO3CRSWw+&#xA;e79YCssEck1PhkBKitOrL3+gjLTo43sXEj2vMCiASlF9ruq31RPcNwP+61+FPuHX6cvhhjHkHCza&#xA;vJk+o7IDLXGV7axurlJXgjLrAhklbYBVAJrv8sjKYHPq2QxSmCQOXNQyTW7FXYq7FU40bzNfaYBE&#xA;AJrWtfSbYivXi3bKMunjPfq52l108W3OPczbUNatbCyju5w5WWgRFFTVhy8QM10MRkaDv82qjjgJ&#xA;HqgbDzlpVy3CYm1cnb1N1P8Ash0+nLJ6WQ5buPh7Txz2PpTxHR1DowZW3DA1BHzzGIdgCDuHl+sf&#xA;8de+/wCYiX/iZzc4voHueR1P97L+sfvU9Pvp7G7juYDR0PTsR3B9jhnASFFjhzSxyEgnnmPzNZ6n&#xA;YR28EciSCQO/PjxoFIoCCa7nwzHwacwlZdhrdfHLARAN2lWgyxxaxaSSMFRZAWY9AMuzC4Fw9JID&#xA;LEnvRXmTXn1O54RkiziP7penI/zn+GQwYeAb823Xas5ZUPpH4tJsyHBdirsVbVmRgykqw6EGhGNJ&#xA;Brk1ih2KuxVVku7mWJIZJXeKIUjQklV+QyIiAbZyySIAJ2CmBUgeOSYhETQyrZW8rSFo5DII496L&#xA;xIr99cgCLIbJRIgDextDZNqdirsVdU0p28MVTiyu7ZPLmo2zyATyvGY4+5CspNPuyicT4kT0c7Fk&#xA;iME4k7khJ8vcF2KuxVXgvbqCKaKGQok44zAU+Jd9q/TkTAE2ejZDLKIIB581DJNbsVdirsVdirN/&#xA;Nf8AyjVt/rRf8QOa7Tf3heg7R/xcfD7mEZsXn2deRogulyy8j8cpBBPwjiB0H05rdYfVT0XZMaxk&#xA;+bENXYNqt6ymqmeUgjoRzOZ+L6R7nR6k/vJf1j96EybS7FXYq7FXYq7FXYq7FXYq7FXYq7FW1pyF&#xA;elf8+mKQiZ7iN7G1gWvOEyF/D4yKfqyAj6iW2cwYRHdaFybS7FXYq2DQg+Hjviriakk98VaxV2Ku&#xA;xV2KuxV2KuxV2KuxVWN5dG3+rGVjb1DCImqgjuB2yPCLvqz8SXDw36VHJMFYXl0Lf6sJWFvUsYgS&#xA;FJPiB1yPCLvq2eLLh4b9Kjkmt2KuxV2KuxV2KuxV2KuxV2KuxV2KuxV2KuxV2KuxV2KuxV2KuxV2&#xA;KuxV2KuxV2KuxV2KuxV2KuxV2KuxV2KuxV2KuxV2KuxV2KuxV2KuxV2KuxV2KuxV2KuxV2KuxV2K&#xA;uxV2KuxV2KuxV//Z</xmpGImg:image>
               </rdf:li>
            </rdf:Alt>
         </xmp:Thumbnails>
      </rdf:Description>
      <rdf:Description rdf:about=""
            xmlns:xmpMM="http://ns.adobe.com/xap/1.0/mm/"
            xmlns:stRef="http://ns.adobe.com/xap/1.0/sType/ResourceRef#"
            xmlns:stEvt="http://ns.adobe.com/xap/1.0/sType/ResourceEvent#">
         <xmpMM:InstanceID>xmp.iid:01801174072068118083F247D4510594</xmpMM:InstanceID>
         <xmpMM:DocumentID>xmp.did:01801174072068118083F247D4510594</xmpMM:DocumentID>
         <xmpMM:OriginalDocumentID>uuid:5D20892493BFDB11914A8590D31508C8</xmpMM:OriginalDocumentID>
         <xmpMM:RenditionClass>proof:pdf</xmpMM:RenditionClass>
         <xmpMM:DerivedFrom rdf:parseType="Resource">
            <stRef:instanceID>uuid:ba5dc92b-6d0a-484a-ab90-b9370a4a0965</stRef:instanceID>
            <stRef:documentID>xmp.did:0980117407206811822A897E387FE54C</stRef:documentID>
            <stRef:originalDocumentID>uuid:5D20892493BFDB11914A8590D31508C8</stRef:originalDocumentID>
            <stRef:renditionClass>proof:pdf</stRef:renditionClass>
         </xmpMM:DerivedFrom>
         <xmpMM:History>
            <rdf:Seq>
               <rdf:li rdf:parseType="Resource">
                  <stEvt:action>saved</stEvt:action>
                  <stEvt:instanceID>xmp.iid:01801174072068118083F247D4510594</stEvt:instanceID>
                  <stEvt:when>2018-09-03T12:02:36-03:00</stEvt:when>
                  <stEvt:softwareAgent>Adobe Illustrator CS6 (Macintosh)</stEvt:softwareAgent>
                  <stEvt:changed>/</stEvt:changed>
               </rdf:li>
            </rdf:Seq>
         </xmpMM:History>
      </rdf:Description>
      <rdf:Description rdf:about=""
            xmlns:illustrator="http://ns.adobe.com/illustrator/1.0/">
         <illustrator:StartupProfile>Print</illustrator:StartupProfile>
      </rdf:Description>
      <rdf:Description rdf:about=""
            xmlns:xmpTPg="http://ns.adobe.com/xap/1.0/t/pg/"
            xmlns:stDim="http://ns.adobe.com/xap/1.0/sType/Dimensions#"
            xmlns:xmpG="http://ns.adobe.com/xap/1.0/g/">
         <xmpTPg:HasVisibleOverprint>False</xmpTPg:HasVisibleOverprint>
         <xmpTPg:HasVisibleTransparency>False</xmpTPg:HasVisibleTransparency>
         <xmpTPg:NPages>1</xmpTPg:NPages>
         <xmpTPg:MaxPageSize rdf:parseType="Resource">
            <stDim:w>60.000127</stDim:w>
            <stDim:h>29.999874</stDim:h>
            <stDim:unit>Centimeters</stDim:unit>
         </xmpTPg:MaxPageSize>
         <xmpTPg:PlateNames>
            <rdf:Seq>
               <rdf:li>Cyan</rdf:li>
               <rdf:li>Magenta</rdf:li>
               <rdf:li>Yellow</rdf:li>
            </rdf:Seq>
         </xmpTPg:PlateNames>
         <xmpTPg:SwatchGroups>
            <rdf:Seq>
               <rdf:li rdf:parseType="Resource">
                  <xmpG:groupName>Default Swatch Group</xmpG:groupName>
                  <xmpG:groupType>0</xmpG:groupType>
               </rdf:li>
            </rdf:Seq>
         </xmpTPg:SwatchGroups>
      </rdf:Description>
      <rdf:Description rdf:about=""
            xmlns:pdf="http://ns.adobe.com/pdf/1.3/">
         <pdf:Producer>Adobe PDF library 10.01</pdf:Producer>
      </rdf:Description>
   </rdf:RDF>
</x:xmpmeta>
                                                                                                    
                                                                                                    
                                                                                                    
                                                                                                    
                                                                                                    
                                                                                                    
                                                                                                    
                                                                                                    
                                                                                                    
                                                                                                    
                                                                                                    
                                                                                                    
                                                                                                    
                                                                                                    
                                                                                                    
                                                                                                    
                                                                                                    
                                                                                                    
                                                                                                    
                                                                                                    
                           
<?xpacket end="w"?>
	</metadata>
<g>
	<path fill="#89CFE4" d="M738.87-246.986l-12.054-7.749c-0.488-0.315-1.117-0.385-1.659-0.188l-36.274,13.119
		c-0.743,0.268-1.242,0.98-1.242,1.77v157.936l-0.38,0.148v-52.061c0-0.62-0.305-1.199-0.814-1.55
		c-0.506-0.349-1.16-0.429-1.743-0.208l-10.824,4.147c-0.723,0.276-1.207,0.983-1.207,1.756v12.732l-27.785,10.142
		c-0.739,0.271-1.233,0.981-1.233,1.768v37.659l-1.304,0.532v-36.117c0-0.603-0.292-1.171-0.781-1.527
		c-0.489-0.35-1.134-0.447-1.696-0.257l-2.119,0.707l-16.645-6.435c-0.572-0.221-1.235-0.145-1.743,0.203
		c-0.513,0.35-0.819,0.931-0.819,1.552v35.197h-7.979v-30.36c0-0.725-0.424-1.393-1.076-1.7c-0.642-0.305-1.444-0.208-1.998,0.243
		l-5.065,4.146c-0.44,0.357-0.693,0.888-0.693,1.457v7.698l-2.623-3.333c-0.309-0.391-0.767-0.648-1.264-0.707
		c-0.496-0.055-0.998,0.087-1.387,0.394l-5.528,4.377c-0.179,0.143-0.331,0.312-0.443,0.501c-0.091-0.146-0.201-0.284-0.328-0.403
		l-17.041-15.893c-0.52-0.482-1.295-0.633-1.955-0.383l0.051-20.848c0-0.523-0.22-1.027-0.604-1.383l-24.857-23.04l0.022-53.113
		c0-0.431-0.15-0.853-0.42-1.185l-7.32-9.042c-0.337-0.418-0.838-0.67-1.366-0.696c-0.022-0.002-0.077-0.004-0.101-0.004
		c-0.5,0-0.99,0.208-1.343,0.569l-8.827,9.042c-0.342,0.353-0.533,0.818-0.535,1.309l-0.113,34.85l-9.274-8.58
		c-0.46-0.426-1.125-0.594-1.732-0.442c-0.618,0.154-1.11,0.606-1.32,1.207l-16.788,48.208c-0.071,0.2-0.106,0.407-0.106,0.619
		v74.315l-4.008,3.849l0.047-27.72l2.626-1.67c0.535-0.341,0.858-0.924,0.868-1.561l0.077-5.334
		c0.011-0.734-0.412-1.413-1.078-1.729l-22.929-10.852c-0.528-0.249-1.173-0.234-1.689,0.039l-23.833,12.683l-9.987-8.317V-204.12
		c0-0.502-0.195-0.975-0.552-1.331l-6.46-6.458c-0.353-0.355-0.827-0.551-1.327-0.551c-0.396,0-0.774,0.121-1.097,0.349
		l-9.042,6.459c-0.492,0.353-0.789,0.927-0.789,1.532v71.477l-21.898,18.94l-18.785-19.391c-0.522-0.536-1.37-0.711-2.055-0.435
		c-0.715,0.288-1.179,0.974-1.179,1.746v36.577l-7.865,6.556l-0.061-43.552c-0.001-0.73-0.431-1.4-1.093-1.705
		c-0.657-0.305-1.462-0.192-2.011,0.276l-4.564,3.899c-0.423,0.362-0.661,0.888-0.659,1.443l0.103,16.94l-0.152,0.127l-0.168-13.907
		c-0.008-0.724-0.419-1.366-1.074-1.679c-0.632-0.3-1.425-0.211-1.977,0.225l-6.248,4.951c-0.45,0.359-0.71,0.895-0.71,1.473v32.477
		l-0.11-0.056v-31.13c0-0.737-0.434-1.411-1.108-1.714l-27.124-12.271c-0.576-0.26-1.264-0.21-1.8,0.134
		c-0.538,0.35-0.859,0.939-0.859,1.581v7.429l-0.055-2.307c-0.019-0.735-0.468-1.396-1.143-1.684l-20.018-8.561
		c-0.671-0.287-1.481-0.148-2.013,0.345l-11.415,10.499c-0.373,0.341-0.594,0.829-0.607,1.337l-0.691,26.294l-5.286,0.108
		c-0.551,0.012-1.067,0.261-1.415,0.685l-23.037,27.927l-5.202-120.109c-0.013-0.251-0.073-0.495-0.18-0.721l-5.117-10.784
		c-0.309-0.649-0.974-1.073-1.7-1.074c-0.717,0-1.383,0.418-1.694,1.064l-5.197,10.782c-0.103,0.212-0.164,0.44-0.181,0.672
		l-8.693,110.888l-12.096-0.042l-27.896-36.385c-0.354-0.461-0.891-0.729-1.471-0.737l-16.127-0.182
		c-0.994,0-1.82,0.777-1.878,1.771l-0.184,3.11c-0.037,0.65,0.256,1.264,0.784,1.642l1.778,1.269l0.121,59.173l-19.374,7.703
		l0.306-20.192l1.539-0.77c0.642-0.32,1.039-0.966,1.039-1.683v-2.928c0-0.754-0.448-1.435-1.142-1.731l-27.812-11.892
		c-0.414-0.178-0.88-0.201-1.307-0.069l-10.541,3.288c-0.791,0.246-1.322,0.968-1.322,1.797v3.848c0,0.702,0.384,1.341,1.006,1.668
		l0.387,0.202v28.577l-14.542-6.27l0.189-30.824c0.004-0.683-0.362-1.315-0.956-1.65L75.27-89.582l0.145-97.743
		c0-0.326-0.082-0.646-0.241-0.93l-7.546-13.562c-0.337-0.605-0.976-0.979-1.665-0.979l-20.858,0.014
		c-1.049,0-1.905,0.854-1.905,1.904l-0.024,78.234l-20.034-12.987c-0.608-0.393-1.428-0.396-2.038-0.004L4.781-125.19
		c-0.542,0.348-0.864,0.941-0.864,1.584v11.188l-3.366,3.365C0.195-108.697,0-108.223,0-107.719L0.168-1.878
		C0.17-0.843,1.016,0,2.052,0h735.8c1.037,0,1.882-0.845,1.882-1.883v-243.52C739.734-246.046,739.41-246.639,738.87-246.986z
		 M15.069-93.713c-0.168,0-0.304-0.135-0.304-0.303l-0.035-28.799c0-0.168,0.137-0.306,0.305-0.306h0.002
		c0.167,0,0.305,0.137,0.305,0.305l0.033,28.8C15.375-93.851,15.238-93.713,15.069-93.713z M17.987-96.149
		c-0.001,0.168-0.137,0.305-0.303,0.305h-0.002c-0.167,0-0.305-0.138-0.303-0.307l0.081-28.735c0-0.168,0.136-0.302,0.303-0.302
		h0.001c0.168,0,0.305,0.136,0.304,0.305L17.987-96.149z M20.323-97.676c-0.171,0-0.306-0.136-0.307-0.304l-0.11-28.333
		c-0.001-0.167,0.136-0.303,0.305-0.303h0.001c0.167,0,0.304,0.136,0.304,0.302l0.112,28.332
		C20.628-97.813,20.491-97.676,20.323-97.676z M67.33-88.203c0,0.168-0.137,0.306-0.305,0.306c-0.168,0-0.306-0.137-0.306-0.306
		v-105.402c0-0.168,0.137-0.305,0.306-0.305c0.167,0,0.305,0.136,0.305,0.305V-88.203z M69.243-88.203
		c0,0.168-0.138,0.306-0.305,0.306c-0.168,0-0.307-0.137-0.307-0.306v-101.801c0-0.167,0.138-0.304,0.307-0.304
		c0.167,0,0.305,0.137,0.305,0.304V-88.203z M70.99-88.203c0,0.168-0.137,0.306-0.302,0.306c-0.171,0-0.309-0.137-0.309-0.306
		v-98.169c0-0.167,0.138-0.305,0.309-0.305c0.165,0,0.302,0.137,0.302,0.305V-88.203z M121.764-26.368
		c0,0.168-0.138,0.305-0.306,0.305c-0.168,0-0.304-0.136-0.304-0.305v-6.223c0-0.169,0.136-0.306,0.304-0.306
		c0.167,0,0.306,0.136,0.306,0.306V-26.368z M121.764-37.348c0,0.168-0.138,0.305-0.306,0.305c-0.168,0-0.304-0.136-0.304-0.305
		v-6.221c0-0.171,0.136-0.305,0.304-0.305c0.167,0,0.306,0.134,0.306,0.305V-37.348z M121.764-48.327
		c0,0.168-0.138,0.306-0.306,0.306c-0.168,0-0.304-0.137-0.304-0.306v-6.223c0-0.168,0.136-0.306,0.304-0.306
		c0.167,0,0.306,0.137,0.306,0.306V-48.327z M121.764-59.307c0,0.168-0.138,0.305-0.306,0.305c-0.168,0-0.304-0.136-0.304-0.305
		v-6.224c0-0.167,0.136-0.305,0.304-0.305c0.167,0,0.306,0.138,0.306,0.305V-59.307z M127.437-23.989
		c0,0.168-0.136,0.306-0.307,0.306c-0.167,0-0.305-0.137-0.305-0.306v-6.222c0-0.168,0.137-0.304,0.305-0.304
		c0.17,0,0.307,0.136,0.307,0.304V-23.989z M127.437-34.97c0,0.168-0.136,0.305-0.307,0.305c-0.167,0-0.305-0.136-0.305-0.305v-6.22
		c0-0.169,0.137-0.306,0.305-0.306c0.17,0,0.307,0.136,0.307,0.306V-34.97z M127.437-45.949c0,0.168-0.136,0.306-0.307,0.306
		c-0.167,0-0.305-0.137-0.305-0.306v-6.223c0-0.167,0.137-0.305,0.305-0.305c0.17,0,0.307,0.138,0.307,0.305V-45.949z
		 M127.437-56.928c0,0.168-0.136,0.305-0.307,0.305c-0.167,0-0.305-0.136-0.305-0.305v-6.224c0-0.168,0.137-0.304,0.305-0.304
		c0.17,0,0.307,0.136,0.307,0.304V-56.928z M133.11-21.609c0,0.167-0.135,0.304-0.305,0.304c-0.168,0-0.306-0.137-0.306-0.304
		v-6.224c0-0.168,0.137-0.304,0.306-0.304c0.169,0,0.305,0.136,0.305,0.304V-21.609z M133.11-32.59c0,0.167-0.135,0.306-0.305,0.306
		c-0.168,0-0.306-0.138-0.306-0.306v-6.221c0-0.17,0.137-0.306,0.306-0.306c0.169,0,0.305,0.136,0.305,0.306V-32.59z M133.11-43.569
		c0,0.167-0.135,0.305-0.305,0.305c-0.168,0-0.306-0.137-0.306-0.305v-6.222c0-0.169,0.137-0.307,0.306-0.307
		c0.169,0,0.305,0.137,0.305,0.307V-43.569z M133.11-54.55c0,0.169-0.135,0.306-0.305,0.306c-0.168,0-0.306-0.136-0.306-0.306
		v-6.223c0-0.168,0.137-0.303,0.306-0.303c0.169,0,0.305,0.135,0.305,0.303V-54.55z M138.782-19.23c0,0.168-0.136,0.304-0.304,0.304
		s-0.306-0.135-0.306-0.304v-6.223c0-0.168,0.137-0.303,0.306-0.303s0.304,0.135,0.304,0.303V-19.23z M138.782-30.211
		c0,0.169-0.136,0.307-0.304,0.307s-0.306-0.138-0.306-0.307v-6.221c0-0.169,0.137-0.306,0.306-0.306s0.304,0.136,0.304,0.306
		V-30.211z M138.782-41.19c0,0.167-0.136,0.303-0.304,0.303s-0.306-0.136-0.306-0.303v-6.223c0-0.168,0.137-0.307,0.306-0.307
		s0.304,0.138,0.304,0.307V-41.19z M138.782-52.171c0,0.168-0.136,0.306-0.304,0.306s-0.306-0.137-0.306-0.306v-6.221
		c0-0.169,0.137-0.305,0.306-0.305s0.304,0.136,0.304,0.305V-52.171z M142.221-63.183c-0.037,0-0.076-0.007-0.114-0.022
		l-23.424-9.516c-0.155-0.062-0.23-0.242-0.166-0.396c0.062-0.157,0.24-0.232,0.397-0.167l23.423,9.516
		c0.156,0.062,0.231,0.242,0.167,0.397C142.457-63.254,142.344-63.183,142.221-63.183z M181.595-60.468
		c0,0.161-0.13,0.292-0.292,0.292c-0.162,0-0.293-0.131-0.293-0.292v-17.094c0-0.161,0.132-0.292,0.293-0.292
		c0.162,0,0.292,0.132,0.292,0.292V-60.468z M181.595-85.854c0,0.16-0.13,0.293-0.292,0.293c-0.162,0-0.293-0.133-0.293-0.293
		v-17.094c0-0.162,0.132-0.292,0.293-0.292c0.162,0,0.292,0.13,0.292,0.292V-85.854z M183.345-57.682
		c0,0.161-0.128,0.292-0.29,0.292c-0.163,0-0.292-0.13-0.292-0.292v-17.312c0-0.162,0.128-0.292,0.292-0.292
		c0.161,0,0.29,0.129,0.29,0.292V-57.682z M183.345-83.069c0,0.162-0.128,0.292-0.29,0.292c-0.163,0-0.292-0.13-0.292-0.292v-17.312
		c0-0.16,0.128-0.291,0.292-0.291c0.161,0,0.29,0.131,0.29,0.291V-83.069z M187.709-50.996c0,0.161-0.131,0.292-0.292,0.292
		c-0.163,0-0.294-0.131-0.294-0.292V-68.09c0-0.161,0.131-0.292,0.294-0.292c0.161,0,0.292,0.131,0.292,0.292V-50.996z
		 M187.709-76.381c0,0.16-0.131,0.291-0.292,0.291c-0.163,0-0.294-0.13-0.294-0.291v-17.094c0-0.162,0.131-0.292,0.294-0.292
		c0.161,0,0.292,0.13,0.292,0.292V-76.381z M189.461-48.212c0,0.161-0.132,0.293-0.292,0.293c-0.162,0-0.293-0.132-0.293-0.293
		v-17.311c0-0.161,0.132-0.293,0.293-0.293c0.16,0,0.292,0.132,0.292,0.293V-48.212z M189.461-73.596
		c0,0.16-0.132,0.292-0.292,0.292c-0.162,0-0.293-0.132-0.293-0.292v-17.311c0-0.161,0.132-0.292,0.293-0.292
		c0.16,0,0.292,0.132,0.292,0.292V-73.596z M193.822-41.524c0,0.16-0.134,0.292-0.292,0.292c-0.162,0-0.292-0.132-0.292-0.292
		V-58.62c0-0.16,0.13-0.29,0.292-0.29c0.159,0,0.292,0.13,0.292,0.29V-41.524z M193.822-66.911c0,0.162-0.134,0.292-0.292,0.292
		c-0.162,0-0.292-0.13-0.292-0.292v-17.093c0-0.162,0.13-0.292,0.292-0.292c0.159,0,0.292,0.13,0.292,0.292V-66.911z
		 M195.573-38.738c0,0.161-0.13,0.292-0.293,0.292c-0.16,0-0.291-0.131-0.291-0.292v-17.313c0-0.161,0.131-0.291,0.291-0.291
		c0.163,0,0.293,0.13,0.293,0.291V-38.738z M195.573-64.126c0,0.161-0.13,0.293-0.293,0.293c-0.16,0-0.291-0.132-0.291-0.293
		v-17.312c0-0.16,0.131-0.291,0.291-0.291c0.163,0,0.293,0.131,0.293,0.291V-64.126z M239.353-188.612l-2.199-0.03l0.037-2.567
		l2.199,0.031L239.353-188.612z M258.094-56.001c0,0.168-0.137,0.305-0.307,0.305c-0.167,0-0.305-0.136-0.305-0.305v-2.393
		c0-0.169,0.138-0.306,0.305-0.306c0.169,0,0.307,0.136,0.307,0.306V-56.001z M258.094-60.339c0,0.168-0.137,0.306-0.307,0.306
		c-0.167,0-0.305-0.138-0.305-0.306v-2.392c0-0.168,0.138-0.305,0.305-0.305c0.169,0,0.307,0.136,0.307,0.305V-60.339z
		 M258.094-64.676c0,0.169-0.137,0.306-0.307,0.306c-0.167,0-0.305-0.136-0.305-0.306v-2.39c0-0.169,0.138-0.307,0.305-0.307
		c0.169,0,0.307,0.137,0.307,0.307V-64.676z M260.817-58.835c0,0.167-0.137,0.304-0.305,0.304c-0.168,0-0.307-0.137-0.307-0.304
		v-2.393c0-0.169,0.138-0.306,0.307-0.306c0.167,0,0.305,0.136,0.305,0.306V-58.835z M260.817-63.173
		c0,0.169-0.137,0.307-0.305,0.307c-0.168,0-0.307-0.137-0.307-0.307v-2.391c0-0.167,0.138-0.303,0.307-0.303
		c0.167,0,0.305,0.135,0.305,0.303V-63.173z M260.817-67.509c0,0.168-0.137,0.305-0.305,0.305c-0.168,0-0.307-0.136-0.307-0.305
		V-69.9c0-0.168,0.138-0.306,0.307-0.306c0.167,0,0.305,0.137,0.305,0.306V-67.509z M263.538-62.101
		c0,0.167-0.138,0.306-0.306,0.306c-0.168,0-0.305-0.139-0.305-0.306v-2.392c0-0.168,0.136-0.306,0.305-0.306
		c0.167,0,0.306,0.137,0.306,0.306V-62.101z M263.538-66.438c0,0.168-0.138,0.305-0.306,0.305c-0.168,0-0.305-0.136-0.305-0.305
		v-2.391c0-0.168,0.136-0.306,0.305-0.306c0.167,0,0.306,0.137,0.306,0.306V-66.438z M263.538-70.774
		c0,0.169-0.138,0.306-0.306,0.306c-0.168,0-0.305-0.136-0.305-0.306v-2.39c0-0.17,0.136-0.306,0.305-0.306
		c0.167,0,0.306,0.136,0.306,0.306V-70.774z M266.26-65.15c0,0.168-0.135,0.305-0.303,0.305s-0.306-0.136-0.306-0.305v-2.391
		c0-0.169,0.137-0.306,0.306-0.306s0.303,0.137,0.303,0.306V-65.15z M266.26-69.485c0,0.168-0.135,0.305-0.303,0.305
		s-0.306-0.136-0.306-0.305v-2.394c0-0.167,0.137-0.305,0.306-0.305s0.303,0.137,0.303,0.305V-69.485z M266.26-73.823
		c0,0.168-0.135,0.305-0.303,0.305s-0.306-0.136-0.306-0.305v-2.391c0-0.168,0.137-0.306,0.306-0.306s0.303,0.137,0.303,0.306
		V-73.823z M268.982-68.2c0,0.17-0.134,0.307-0.303,0.307c-0.168,0-0.307-0.137-0.307-0.307v-2.391c0-0.168,0.138-0.305,0.307-0.305
		c0.169,0,0.303,0.136,0.303,0.305V-68.2z M268.982-72.536c0,0.168-0.134,0.305-0.303,0.305c-0.168,0-0.307-0.136-0.307-0.305
		v-2.391c0-0.17,0.138-0.306,0.307-0.306c0.169,0,0.303,0.136,0.303,0.306V-72.536z M268.982-76.872
		c0,0.169-0.134,0.306-0.303,0.306c-0.168,0-0.307-0.136-0.307-0.306v-2.393c0-0.168,0.138-0.304,0.307-0.304
		c0.169,0,0.303,0.135,0.303,0.304V-76.872z M271.706-71.248c0,0.167-0.136,0.306-0.306,0.306c-0.167,0-0.305-0.138-0.305-0.306
		v-2.393c0-0.168,0.138-0.305,0.305-0.305c0.169,0,0.306,0.136,0.306,0.305V-71.248z M271.706-75.583
		c0,0.168-0.136,0.304-0.306,0.304c-0.167,0-0.305-0.136-0.305-0.304v-2.394c0-0.167,0.138-0.305,0.305-0.305
		c0.169,0,0.306,0.137,0.306,0.305V-75.583z M271.706-79.92c0,0.167-0.136,0.305-0.306,0.305c-0.167,0-0.305-0.137-0.305-0.305
		v-2.392c0-0.17,0.138-0.305,0.305-0.305c0.169,0,0.306,0.135,0.306,0.305V-79.92z M285.495-79.811c0,0.169-0.137,0.304-0.305,0.304
		c-0.168,0-0.305-0.135-0.305-0.304v-17.826c0-0.167,0.136-0.304,0.305-0.304c0.167,0,0.305,0.136,0.305,0.304V-79.811z
		 M285.495-105.198c0,0.171-0.137,0.305-0.305,0.305c-0.168,0-0.305-0.134-0.305-0.305v-17.824c0-0.168,0.136-0.304,0.305-0.304
		c0.167,0,0.305,0.136,0.305,0.304V-105.198z M287.243-81.924c0,0.167-0.137,0.305-0.306,0.305c-0.167,0-0.304-0.137-0.304-0.305
		v-17.312c0-0.168,0.137-0.306,0.304-0.306c0.168,0,0.306,0.137,0.306,0.306V-81.924z M287.243-107.311
		c0,0.168-0.137,0.305-0.306,0.305c-0.167,0-0.304-0.136-0.304-0.305v-17.311c0-0.168,0.137-0.306,0.304-0.306
		c0.168,0,0.306,0.137,0.306,0.306V-107.311z M292.357-85.659c0,0.169-0.137,0.306-0.308,0.306c-0.166,0-0.301-0.137-0.301-0.306
		v-17.311c0-0.168,0.135-0.305,0.301-0.305c0.171,0,0.308,0.136,0.308,0.305V-85.659z M292.357-111.046
		c0,0.17-0.137,0.307-0.308,0.307c-0.166,0-0.301-0.137-0.301-0.307v-17.31c0-0.168,0.135-0.303,0.301-0.303
		c0.171,0,0.308,0.135,0.308,0.303V-111.046z M294.268-87.368c0,0.17-0.137,0.307-0.304,0.307c-0.17,0-0.309-0.136-0.309-0.307
		v-17.091c0-0.17,0.138-0.305,0.309-0.305c0.167,0,0.304,0.135,0.304,0.305V-87.368z M294.268-112.751
		c0,0.168-0.137,0.305-0.304,0.305c-0.17,0-0.309-0.136-0.309-0.305v-17.095c0-0.169,0.138-0.305,0.309-0.305
		c0.167,0,0.304,0.136,0.304,0.305V-112.751z M322.643-105.667c0,0.167-0.136,0.304-0.304,0.304c-0.17,0-0.305-0.137-0.305-0.304
		v-2.392c0-0.169,0.134-0.305,0.305-0.305c0.167,0,0.304,0.135,0.304,0.305V-105.667z M322.643-110.004
		c0,0.168-0.136,0.305-0.304,0.305c-0.17,0-0.305-0.136-0.305-0.305v-2.391c0-0.169,0.134-0.306,0.305-0.306
		c0.167,0,0.304,0.137,0.304,0.306V-110.004z M322.643-114.341c0,0.169-0.136,0.306-0.304,0.306c-0.17,0-0.305-0.136-0.305-0.306
		v-2.392c0-0.168,0.134-0.305,0.305-0.305c0.167,0,0.304,0.136,0.304,0.305V-114.341z M322.643-118.678
		c0,0.171-0.136,0.307-0.304,0.307c-0.17,0-0.305-0.136-0.305-0.307v-2.391c0-0.168,0.134-0.305,0.305-0.305
		c0.167,0,0.304,0.136,0.304,0.305V-118.678z M322.643-123.013c0,0.168-0.136,0.305-0.304,0.305c-0.17,0-0.305-0.136-0.305-0.305
		v-2.393c0-0.167,0.134-0.304,0.305-0.304c0.167,0,0.304,0.137,0.304,0.304V-123.013z M325.685-104.215
		c0,0.168-0.138,0.304-0.307,0.304c-0.167,0-0.305-0.136-0.305-0.304v-2.392c0-0.168,0.138-0.305,0.305-0.305
		c0.168,0,0.307,0.136,0.307,0.305V-104.215z M325.685-108.553c0,0.169-0.138,0.307-0.307,0.307c-0.167,0-0.305-0.137-0.305-0.307
		v-2.39c0-0.168,0.138-0.306,0.305-0.306c0.168,0,0.307,0.137,0.307,0.306V-108.553z M325.685-112.888
		c0,0.169-0.138,0.306-0.307,0.306c-0.167,0-0.305-0.136-0.305-0.306v-2.392c0-0.168,0.138-0.304,0.305-0.304
		c0.168,0,0.307,0.136,0.307,0.304V-112.888z M325.685-117.224c0,0.168-0.138,0.305-0.307,0.305c-0.167,0-0.305-0.136-0.305-0.305
		v-2.392c0-0.168,0.138-0.305,0.305-0.305c0.168,0,0.307,0.136,0.307,0.305V-117.224z M325.685-121.561
		c0,0.17-0.138,0.306-0.307,0.306c-0.167,0-0.305-0.136-0.305-0.306v-2.393c0-0.168,0.138-0.304,0.305-0.304
		c0.168,0,0.307,0.136,0.307,0.304V-121.561z M328.725-102.761c0,0.168-0.136,0.305-0.305,0.305s-0.305-0.136-0.305-0.305v-2.393
		c0-0.168,0.136-0.304,0.305-0.304s0.305,0.136,0.305,0.304V-102.761z M328.725-107.099c0,0.17-0.136,0.307-0.305,0.307
		s-0.305-0.137-0.305-0.307v-2.391c0-0.168,0.136-0.305,0.305-0.305s0.305,0.136,0.305,0.305V-107.099z M328.725-111.435
		c0,0.168-0.136,0.305-0.305,0.305s-0.305-0.136-0.305-0.305v-2.393c0-0.167,0.136-0.306,0.305-0.306s0.305,0.139,0.305,0.306
		V-111.435z M328.725-115.77c0,0.167-0.136,0.303-0.305,0.303s-0.305-0.136-0.305-0.303v-2.393c0-0.169,0.136-0.306,0.305-0.306
		s0.305,0.136,0.305,0.306V-115.77z M328.725-120.107c0,0.168-0.136,0.304-0.305,0.304s-0.305-0.136-0.305-0.304v-2.392
		c0-0.168,0.136-0.305,0.305-0.305s0.305,0.136,0.305,0.305V-120.107z M331.766-101.309c0,0.168-0.138,0.306-0.307,0.306
		c-0.167,0-0.305-0.137-0.305-0.306v-2.391c0-0.169,0.138-0.306,0.305-0.306c0.168,0,0.307,0.136,0.307,0.306V-101.309z
		 M331.766-105.645c0,0.168-0.138,0.304-0.307,0.304c-0.167,0-0.305-0.136-0.305-0.304v-2.393c0-0.167,0.138-0.305,0.305-0.305
		c0.168,0,0.307,0.137,0.307,0.305V-105.645z M331.766-109.98c0,0.166-0.138,0.305-0.307,0.305c-0.167,0-0.305-0.139-0.305-0.305
		v-2.393c0-0.167,0.138-0.305,0.305-0.305c0.168,0,0.307,0.137,0.307,0.305V-109.98z M331.766-114.317
		c0,0.167-0.138,0.304-0.307,0.304c-0.167,0-0.305-0.136-0.305-0.304v-2.393c0-0.168,0.138-0.304,0.305-0.304
		c0.168,0,0.307,0.136,0.307,0.304V-114.317z M331.766-118.654c0,0.167-0.138,0.305-0.307,0.305c-0.167,0-0.305-0.137-0.305-0.305
		v-2.392c0-0.169,0.138-0.307,0.305-0.307c0.168,0,0.307,0.137,0.307,0.307V-118.654z M334.804-99.855
		c0,0.168-0.136,0.306-0.303,0.306c-0.168,0-0.305-0.138-0.305-0.306v-2.392c0-0.17,0.136-0.305,0.305-0.305
		c0.167,0,0.303,0.135,0.303,0.305V-99.855z M334.804-104.193c0,0.168-0.136,0.307-0.303,0.307c-0.168,0-0.305-0.138-0.305-0.307
		v-2.391c0-0.167,0.136-0.304,0.305-0.304c0.167,0,0.303,0.137,0.303,0.304V-104.193z M334.804-108.529
		c0,0.169-0.136,0.306-0.303,0.306c-0.168,0-0.305-0.137-0.305-0.306v-2.391c0-0.168,0.136-0.305,0.305-0.305
		c0.167,0,0.303,0.136,0.303,0.305V-108.529z M334.804-112.864c0,0.168-0.136,0.306-0.303,0.306c-0.168,0-0.305-0.138-0.305-0.306
		v-2.392c0-0.168,0.136-0.306,0.305-0.306c0.167,0,0.303,0.137,0.303,0.306V-112.864z M334.804-117.202
		c0,0.169-0.136,0.305-0.303,0.305c-0.168,0-0.305-0.135-0.305-0.305v-2.392c0-0.168,0.136-0.305,0.305-0.305
		c0.167,0,0.303,0.136,0.303,0.305V-117.202z M337.846-98.402c0,0.168-0.135,0.304-0.305,0.304c-0.17,0-0.306-0.136-0.306-0.304
		v-2.393c0-0.168,0.136-0.306,0.306-0.306c0.169,0,0.305,0.137,0.305,0.306V-98.402z M337.846-102.74
		c0,0.169-0.135,0.307-0.305,0.307c-0.17,0-0.306-0.138-0.306-0.307v-2.391c0-0.168,0.136-0.305,0.306-0.305
		c0.169,0,0.305,0.136,0.305,0.305V-102.74z M337.846-107.076c0,0.169-0.135,0.306-0.305,0.306c-0.17,0-0.306-0.136-0.306-0.306
		v-2.392c0-0.168,0.136-0.305,0.306-0.305c0.169,0,0.305,0.136,0.305,0.305V-107.076z M337.846-111.412
		c0,0.167-0.135,0.306-0.305,0.306c-0.17,0-0.306-0.138-0.306-0.306v-2.392c0-0.169,0.136-0.306,0.306-0.306
		c0.169,0,0.305,0.136,0.305,0.306V-111.412z M337.846-115.749c0,0.168-0.135,0.306-0.305,0.306c-0.17,0-0.306-0.137-0.306-0.306
		v-2.391c0-0.168,0.136-0.306,0.306-0.306c0.169,0,0.305,0.137,0.305,0.306V-115.749z M340.886-96.95
		c0,0.168-0.136,0.306-0.304,0.306c-0.167,0-0.306-0.137-0.306-0.306v-2.392c0-0.168,0.138-0.305,0.306-0.305
		c0.168,0,0.304,0.136,0.304,0.305V-96.95z M340.886-101.286c0,0.168-0.136,0.304-0.304,0.304c-0.167,0-0.306-0.136-0.306-0.304
		v-2.393c0-0.167,0.138-0.304,0.306-0.304c0.168,0,0.304,0.136,0.304,0.304V-101.286z M340.886-105.624
		c0,0.169-0.136,0.307-0.304,0.307c-0.167,0-0.306-0.137-0.306-0.307v-2.39c0-0.17,0.138-0.306,0.306-0.306
		c0.168,0,0.304,0.136,0.304,0.306V-105.624z M340.886-109.959c0,0.168-0.136,0.306-0.304,0.306c-0.167,0-0.306-0.137-0.306-0.306
		v-2.392c0-0.168,0.138-0.305,0.306-0.305c0.168,0,0.304,0.136,0.304,0.305V-109.959z M340.886-114.294
		c0,0.168-0.136,0.304-0.304,0.304c-0.167,0-0.306-0.136-0.306-0.304v-2.394c0-0.167,0.138-0.305,0.306-0.305
		c0.168,0,0.304,0.138,0.304,0.305V-114.294z M351.951-98.551c0,0.168-0.138,0.306-0.305,0.306c-0.168,0-0.305-0.138-0.305-0.306
		v-2.392c0-0.168,0.136-0.305,0.305-0.305c0.167,0,0.305,0.136,0.305,0.305V-98.551z M351.951-102.887
		c0,0.169-0.138,0.306-0.305,0.306c-0.168,0-0.305-0.137-0.305-0.306v-2.391c0-0.168,0.136-0.307,0.305-0.307
		c0.167,0,0.305,0.138,0.305,0.307V-102.887z M351.951-107.224c0,0.17-0.138,0.307-0.305,0.307c-0.168,0-0.305-0.136-0.305-0.307
		v-2.392c0-0.167,0.136-0.304,0.305-0.304c0.167,0,0.305,0.137,0.305,0.304V-107.224z M351.951-111.56
		c0,0.168-0.138,0.305-0.305,0.305c-0.168,0-0.305-0.136-0.305-0.305v-2.392c0-0.168,0.136-0.307,0.305-0.307
		c0.167,0,0.305,0.138,0.305,0.307V-111.56z M351.951-115.896c0,0.169-0.138,0.306-0.305,0.306c-0.168,0-0.305-0.137-0.305-0.306
		v-2.392c0-0.167,0.136-0.306,0.305-0.306c0.167,0,0.305,0.138,0.305,0.306V-115.896z M353.161-99.664
		c0,0.167-0.136,0.305-0.305,0.305c-0.167,0-0.307-0.137-0.307-0.305v-2.392c0-0.169,0.14-0.306,0.307-0.306
		c0.169,0,0.305,0.137,0.305,0.306V-99.664z M353.161-104c0,0.168-0.136,0.306-0.305,0.306c-0.167,0-0.307-0.137-0.307-0.306v-2.392
		c0-0.168,0.14-0.306,0.307-0.306c0.169,0,0.305,0.137,0.305,0.306V-104z M353.161-108.336c0,0.168-0.136,0.305-0.305,0.305
		c-0.167,0-0.307-0.137-0.307-0.305v-2.391c0-0.169,0.14-0.307,0.307-0.307c0.169,0,0.305,0.137,0.305,0.307V-108.336z
		 M353.161-112.672c0,0.168-0.136,0.304-0.305,0.304c-0.167,0-0.307-0.135-0.307-0.304v-2.391c0-0.168,0.14-0.305,0.307-0.305
		c0.169,0,0.305,0.136,0.305,0.305V-112.672z M353.161-117.009c0,0.168-0.136,0.305-0.305,0.305c-0.167,0-0.307-0.136-0.307-0.305
		v-2.393c0-0.168,0.14-0.305,0.307-0.305c0.169,0,0.305,0.136,0.305,0.305V-117.009z M361.752-107.665
		c0,0.17-0.136,0.307-0.305,0.307c-0.17,0-0.307-0.137-0.307-0.307v-2.391c0-0.168,0.136-0.305,0.307-0.305
		c0.168,0,0.305,0.136,0.305,0.305V-107.665z M361.752-112c0,0.168-0.136,0.305-0.305,0.305c-0.17,0-0.307-0.136-0.307-0.305v-2.39
		c0-0.17,0.136-0.307,0.307-0.307c0.168,0,0.305,0.137,0.305,0.307V-112z M361.752-116.337c0,0.168-0.136,0.305-0.305,0.305
		c-0.17,0-0.307-0.136-0.307-0.305v-2.393c0-0.167,0.136-0.305,0.307-0.305c0.168,0,0.305,0.137,0.305,0.305V-116.337z
		 M361.752-120.674c0,0.169-0.136,0.307-0.305,0.307c-0.17,0-0.307-0.138-0.307-0.307v-2.391c0-0.168,0.136-0.304,0.307-0.304
		c0.168,0,0.305,0.135,0.305,0.304V-120.674z M361.752-125.009c0,0.168-0.136,0.305-0.305,0.305c-0.17,0-0.307-0.136-0.307-0.305
		v-2.391c0-0.17,0.136-0.306,0.307-0.306c0.168,0,0.305,0.136,0.305,0.306V-125.009z M403.52-89.569
		c0,0.168-0.136,0.306-0.304,0.306c-0.169,0-0.306-0.137-0.306-0.306v-2.391c0-0.169,0.136-0.305,0.306-0.305
		c0.167,0,0.304,0.136,0.304,0.305V-89.569z M403.52-93.907c0,0.17-0.136,0.305-0.304,0.305c-0.169,0-0.306-0.135-0.306-0.305v-2.39
		c0-0.167,0.136-0.306,0.306-0.306c0.167,0,0.304,0.138,0.304,0.306V-93.907z M403.52-98.242c0,0.168-0.136,0.305-0.304,0.305
		c-0.169,0-0.306-0.136-0.306-0.305v-2.391c0-0.168,0.136-0.306,0.306-0.306c0.167,0,0.304,0.137,0.304,0.306V-98.242z
		 M403.52-102.58c0,0.169-0.136,0.307-0.304,0.307c-0.169,0-0.306-0.138-0.306-0.307v-2.39c0-0.167,0.136-0.304,0.306-0.304
		c0.167,0,0.304,0.137,0.304,0.304V-102.58z M403.52-106.915c0,0.168-0.136,0.306-0.304,0.306c-0.169,0-0.306-0.138-0.306-0.306
		v-2.391c0-0.169,0.136-0.306,0.306-0.306c0.167,0,0.304,0.136,0.304,0.306V-106.915z M407.031-92.703
		c0,0.169-0.137,0.305-0.303,0.305c-0.168,0-0.307-0.135-0.307-0.305v-2.392c0-0.168,0.139-0.305,0.307-0.305
		c0.166,0,0.303,0.136,0.303,0.305V-92.703z M407.031-97.039c0,0.169-0.137,0.306-0.303,0.306c-0.168,0-0.307-0.137-0.307-0.306
		v-2.391c0-0.169,0.139-0.305,0.307-0.305c0.166,0,0.303,0.135,0.303,0.305V-97.039z M407.031-101.375
		c0,0.169-0.137,0.306-0.303,0.306c-0.168,0-0.307-0.136-0.307-0.306v-2.39c0-0.168,0.139-0.307,0.307-0.307
		c0.166,0,0.303,0.138,0.303,0.307V-101.375z M407.031-105.712c0,0.169-0.137,0.305-0.303,0.305c-0.168,0-0.307-0.135-0.307-0.305
		v-2.392c0-0.168,0.139-0.306,0.307-0.306c0.166,0,0.303,0.137,0.303,0.306V-105.712z M407.031-110.05
		c0,0.171-0.137,0.306-0.303,0.306c-0.168,0-0.307-0.135-0.307-0.306v-2.392c0-0.166,0.139-0.304,0.307-0.304
		c0.166,0,0.303,0.138,0.303,0.304V-110.05z M410.931-96.25c0,0.168-0.138,0.305-0.306,0.305c-0.168,0-0.306-0.136-0.306-0.305
		v-2.391c0-0.168,0.137-0.306,0.306-0.306c0.167,0,0.306,0.137,0.306,0.306V-96.25z M410.931-100.586
		c0,0.167-0.138,0.305-0.306,0.305c-0.168,0-0.306-0.137-0.306-0.305v-2.393c0-0.167,0.137-0.305,0.306-0.305
		c0.167,0,0.306,0.138,0.306,0.305V-100.586z M410.931-104.924c0,0.17-0.138,0.307-0.306,0.307c-0.168,0-0.306-0.137-0.306-0.307
		v-2.391c0-0.168,0.137-0.305,0.306-0.305c0.167,0,0.306,0.136,0.306,0.305V-104.924z M410.931-109.259
		c0,0.168-0.138,0.306-0.306,0.306c-0.168,0-0.306-0.137-0.306-0.306v-2.391c0-0.168,0.137-0.306,0.306-0.306
		c0.167,0,0.306,0.137,0.306,0.306V-109.259z M410.931-113.596c0,0.169-0.138,0.306-0.306,0.306c-0.168,0-0.306-0.136-0.306-0.306
		v-2.393c0-0.168,0.137-0.305,0.306-0.305c0.167,0,0.306,0.136,0.306,0.305V-113.596z M414.639-99.582
		c0,0.168-0.14,0.305-0.306,0.305c-0.168,0-0.305-0.136-0.305-0.305v-2.391c0-0.168,0.136-0.306,0.305-0.306
		c0.166,0,0.306,0.137,0.306,0.306V-99.582z M414.639-103.918c0,0.168-0.14,0.306-0.306,0.306c-0.168,0-0.305-0.137-0.305-0.306
		v-2.392c0-0.169,0.136-0.307,0.305-0.307c0.166,0,0.306,0.137,0.306,0.307V-103.918z M414.639-108.255
		c0,0.169-0.14,0.305-0.306,0.305c-0.168,0-0.305-0.136-0.305-0.305v-2.391c0-0.168,0.136-0.306,0.305-0.306
		c0.166,0,0.306,0.137,0.306,0.306V-108.255z M414.639-112.591c0,0.168-0.14,0.305-0.306,0.305c-0.168,0-0.305-0.136-0.305-0.305
		v-2.392c0-0.168,0.136-0.305,0.305-0.305c0.166,0,0.306,0.137,0.306,0.305V-112.591z M414.639-116.928
		c0,0.168-0.14,0.306-0.306,0.306c-0.168,0-0.305-0.137-0.305-0.306v-2.392c0-0.168,0.136-0.305,0.305-0.305
		c0.166,0,0.306,0.136,0.306,0.305V-116.928z M418.536-103.129c0,0.168-0.136,0.306-0.306,0.306c-0.168,0-0.305-0.137-0.305-0.306
		v-2.39c0-0.17,0.136-0.307,0.305-0.307c0.169,0,0.306,0.137,0.306,0.307V-103.129z M418.536-107.466
		c0,0.168-0.136,0.305-0.306,0.305c-0.168,0-0.305-0.136-0.305-0.305v-2.391c0-0.168,0.136-0.305,0.305-0.305
		c0.169,0,0.306,0.136,0.306,0.305V-107.466z M418.536-111.802c0,0.167-0.136,0.305-0.306,0.305c-0.168,0-0.305-0.137-0.305-0.305
		v-2.393c0-0.169,0.136-0.306,0.305-0.306c0.169,0,0.306,0.136,0.306,0.306V-111.802z M418.536-116.137
		c0,0.167-0.136,0.303-0.306,0.303c-0.168,0-0.305-0.137-0.305-0.303v-2.394c0-0.168,0.136-0.303,0.305-0.303
		c0.169,0,0.306,0.135,0.306,0.303V-116.137z M418.536-120.475c0,0.168-0.136,0.305-0.306,0.305c-0.168,0-0.305-0.136-0.305-0.305
		v-2.393c0-0.168,0.136-0.305,0.305-0.305c0.169,0,0.306,0.137,0.306,0.305V-120.475z M430.561-97.745
		c0,0.167-0.136,0.305-0.306,0.305c-0.17,0-0.306-0.138-0.306-0.305v-107.179c0-0.169,0.136-0.305,0.306-0.305
		c0.169,0,0.306,0.135,0.306,0.305V-97.745z M432.473-96.302c0,0.17-0.136,0.308-0.305,0.308c-0.169,0-0.304-0.138-0.304-0.308
		v-106.96c0-0.167,0.135-0.305,0.304-0.305c0.168,0,0.305,0.137,0.305,0.305V-96.302z M473.659-57.566
		c0,0.318-0.257,0.577-0.575,0.577c-0.318,0-0.575-0.258-0.575-0.577v-4.512c0-0.32,0.256-0.577,0.575-0.577
		c0.317,0,0.575,0.257,0.575,0.577V-57.566z M473.659-65.748c0,0.317-0.257,0.575-0.575,0.575c-0.318,0-0.575-0.258-0.575-0.575
		v-4.514c0-0.318,0.256-0.576,0.575-0.576c0.317,0,0.575,0.257,0.575,0.576V-65.748z M473.659-73.932
		c0,0.318-0.257,0.576-0.575,0.576c-0.318,0-0.575-0.257-0.575-0.576v-4.513c0-0.319,0.256-0.576,0.575-0.576
		c0.317,0,0.575,0.257,0.575,0.576V-73.932z M473.659-82.115c0,0.318-0.257,0.575-0.575,0.575c-0.318,0-0.575-0.257-0.575-0.575
		v-4.512c0-0.319,0.256-0.578,0.575-0.578c0.317,0,0.575,0.258,0.575,0.578V-82.115z M479.399-63.007
		c0,0.317-0.258,0.576-0.577,0.576c-0.318,0-0.576-0.258-0.576-0.576v-4.513c0-0.32,0.258-0.575,0.576-0.575
		c0.318,0,0.577,0.255,0.577,0.575V-63.007z M479.399-71.19c0,0.318-0.258,0.575-0.577,0.575c-0.318,0-0.576-0.257-0.576-0.575
		v-4.514c0-0.316,0.258-0.576,0.576-0.576c0.318,0,0.577,0.259,0.577,0.576V-71.19z M479.399-79.373
		c0,0.317-0.258,0.576-0.577,0.576c-0.318,0-0.576-0.258-0.576-0.576v-4.515c0-0.316,0.258-0.574,0.576-0.574
		c0.318,0,0.577,0.258,0.577,0.574V-79.373z M485.136-52.083c0,0.32-0.258,0.576-0.576,0.576c-0.318,0-0.576-0.256-0.576-0.576
		v-4.513c0-0.317,0.257-0.574,0.576-0.574c0.318,0,0.576,0.257,0.576,0.574V-52.083z M485.136-60.266
		c0,0.318-0.258,0.577-0.576,0.577c-0.318,0-0.576-0.258-0.576-0.577v-4.513c0-0.317,0.257-0.575,0.576-0.575
		c0.318,0,0.576,0.257,0.576,0.575V-60.266z M485.136-68.449c0,0.318-0.258,0.576-0.576,0.576c-0.318,0-0.576-0.258-0.576-0.576
		v-4.512c0-0.318,0.257-0.577,0.576-0.577c0.318,0,0.576,0.259,0.576,0.577V-68.449z M485.136-76.631
		c0,0.319-0.258,0.576-0.576,0.576c-0.318,0-0.576-0.257-0.576-0.576v-4.513c0-0.317,0.257-0.577,0.576-0.577
		c0.318,0,0.576,0.259,0.576,0.577V-76.631z M521.107-114.616c0,0.168-0.136,0.304-0.306,0.304c-0.168,0-0.305-0.136-0.305-0.304
		v-2.393c0-0.167,0.136-0.304,0.305-0.304c0.169,0,0.306,0.136,0.306,0.304V-114.616z M521.107-118.954
		c0,0.169-0.136,0.307-0.306,0.307c-0.168,0-0.305-0.137-0.305-0.307v-2.39c0-0.17,0.136-0.306,0.305-0.306
		c0.169,0,0.306,0.136,0.306,0.306V-118.954z M521.107-123.29c0,0.168-0.136,0.306-0.306,0.306c-0.168,0-0.305-0.137-0.305-0.306
		v-2.392c0-0.17,0.136-0.306,0.305-0.306c0.169,0,0.306,0.135,0.306,0.306V-123.29z M521.107-127.626
		c0,0.168-0.136,0.306-0.306,0.306c-0.168,0-0.305-0.137-0.305-0.306v-2.39c0-0.169,0.136-0.307,0.305-0.307
		c0.169,0,0.306,0.137,0.306,0.307V-127.626z M521.107-131.962c0,0.168-0.136,0.304-0.306,0.304c-0.168,0-0.305-0.135-0.305-0.304
		v-2.393c0-0.167,0.136-0.304,0.305-0.304c0.169,0,0.306,0.137,0.306,0.304V-131.962z M521.107-145.754
		c0,0.169-0.136,0.305-0.306,0.305c-0.168,0-0.305-0.136-0.305-0.305v-2.39c0-0.169,0.136-0.306,0.305-0.306
		c0.169,0,0.306,0.136,0.306,0.306V-145.754z M521.107-150.091c0,0.169-0.136,0.307-0.306,0.307c-0.168,0-0.305-0.137-0.305-0.307
		v-2.389c0-0.17,0.136-0.307,0.305-0.307c0.169,0,0.306,0.137,0.306,0.307V-150.091z M521.107-154.425
		c0,0.168-0.136,0.303-0.306,0.303c-0.168,0-0.305-0.134-0.305-0.303v-2.394c0-0.168,0.136-0.305,0.305-0.305
		c0.169,0,0.306,0.136,0.306,0.305V-154.425z M521.107-158.763c0,0.168-0.136,0.305-0.306,0.305c-0.168,0-0.305-0.137-0.305-0.305
		v-2.391c0-0.168,0.136-0.305,0.305-0.305c0.169,0,0.306,0.136,0.306,0.305V-158.763z M521.107-163.099
		c0,0.167-0.136,0.306-0.306,0.306c-0.168,0-0.305-0.138-0.305-0.306v-2.391c0-0.17,0.136-0.306,0.305-0.306
		c0.169,0,0.306,0.136,0.306,0.306V-163.099z M525.006-111.069c0,0.168-0.139,0.305-0.306,0.305c-0.167,0-0.304-0.136-0.304-0.305
		v-2.392c0-0.168,0.137-0.306,0.304-0.306c0.167,0,0.306,0.137,0.306,0.306V-111.069z M525.006-115.406
		c0,0.17-0.139,0.306-0.306,0.306c-0.167,0-0.304-0.136-0.304-0.306v-2.39c0-0.169,0.137-0.306,0.304-0.306
		c0.167,0,0.306,0.136,0.306,0.306V-115.406z M525.006-119.743c0,0.169-0.139,0.307-0.306,0.307c-0.167,0-0.304-0.137-0.304-0.307
		v-2.39c0-0.17,0.137-0.306,0.304-0.306c0.167,0,0.306,0.136,0.306,0.306V-119.743z M525.006-124.078
		c0,0.168-0.139,0.305-0.306,0.305c-0.167,0-0.304-0.136-0.304-0.305v-2.393c0-0.167,0.137-0.303,0.304-0.303
		c0.167,0,0.306,0.136,0.306,0.303V-124.078z M525.006-128.414c0,0.167-0.139,0.304-0.306,0.304c-0.167,0-0.304-0.138-0.304-0.304
		v-2.394c0-0.168,0.137-0.304,0.304-0.304c0.167,0,0.306,0.135,0.306,0.304V-128.414z M525.006-142.206
		c0,0.167-0.139,0.304-0.306,0.304c-0.167,0-0.304-0.136-0.304-0.304v-2.392c0-0.169,0.137-0.305,0.304-0.305
		c0.167,0,0.306,0.136,0.306,0.305V-142.206z M525.006-146.542c0,0.168-0.139,0.305-0.306,0.305c-0.167,0-0.304-0.136-0.304-0.305
		v-2.392c0-0.168,0.137-0.306,0.304-0.306c0.167,0,0.306,0.137,0.306,0.306V-146.542z M525.006-150.879
		c0,0.167-0.139,0.305-0.306,0.305c-0.167,0-0.304-0.137-0.304-0.305v-2.392c0-0.168,0.137-0.305,0.304-0.305
		c0.167,0,0.306,0.136,0.306,0.305V-150.879z M525.006-155.215c0,0.168-0.139,0.306-0.306,0.306c-0.167,0-0.304-0.137-0.304-0.306
		v-2.391c0-0.169,0.137-0.305,0.304-0.305c0.167,0,0.306,0.136,0.306,0.305V-155.215z M525.006-159.552
		c0,0.169-0.139,0.306-0.306,0.306c-0.167,0-0.304-0.136-0.304-0.306v-2.392c0-0.167,0.137-0.306,0.304-0.306
		c0.167,0,0.306,0.138,0.306,0.306V-159.552z M528.715-107.737c0,0.168-0.137,0.306-0.305,0.306c-0.168,0-0.307-0.137-0.307-0.306
		v-2.39c0-0.171,0.138-0.307,0.307-0.307c0.167,0,0.305,0.136,0.305,0.307V-107.737z M528.715-112.074
		c0,0.168-0.137,0.304-0.305,0.304c-0.168,0-0.307-0.136-0.307-0.304v-2.392c0-0.168,0.138-0.304,0.307-0.304
		c0.167,0,0.305,0.136,0.305,0.304V-112.074z M528.715-116.409c0,0.168-0.137,0.304-0.305,0.304c-0.168,0-0.307-0.136-0.307-0.304
		v-2.392c0-0.168,0.138-0.305,0.307-0.305c0.167,0,0.305,0.136,0.305,0.305V-116.409z M528.715-120.746
		c0,0.167-0.137,0.304-0.305,0.304c-0.168,0-0.307-0.136-0.307-0.304v-2.391c0-0.17,0.138-0.305,0.307-0.305
		c0.167,0,0.305,0.135,0.305,0.305V-120.746z M528.715-125.083c0,0.168-0.137,0.304-0.305,0.304c-0.168,0-0.307-0.136-0.307-0.304
		v-2.392c0-0.168,0.138-0.304,0.307-0.304c0.167,0,0.305,0.136,0.305,0.304V-125.083z M528.715-138.874
		c0,0.168-0.137,0.305-0.305,0.305c-0.168,0-0.307-0.136-0.307-0.305v-2.392c0-0.167,0.138-0.305,0.307-0.305
		c0.167,0,0.305,0.137,0.305,0.305V-138.874z M528.715-143.21c0,0.169-0.137,0.306-0.305,0.306c-0.168,0-0.307-0.136-0.307-0.306
		v-2.393c0-0.168,0.138-0.305,0.307-0.305c0.167,0,0.305,0.136,0.305,0.305V-143.21z M528.715-147.547
		c0,0.169-0.137,0.306-0.305,0.306c-0.168,0-0.307-0.137-0.307-0.306v-2.392c0-0.167,0.138-0.305,0.307-0.305
		c0.167,0,0.305,0.137,0.305,0.305V-147.547z M528.715-151.882c0,0.168-0.137,0.305-0.305,0.305c-0.168,0-0.307-0.136-0.307-0.305
		v-2.393c0-0.169,0.138-0.305,0.307-0.305c0.167,0,0.305,0.136,0.305,0.305V-151.882z M528.715-156.22
		c0,0.169-0.137,0.305-0.305,0.305c-0.168,0-0.307-0.135-0.307-0.305v-2.393c0-0.167,0.138-0.305,0.307-0.305
		c0.167,0,0.305,0.137,0.305,0.305V-156.22z M532.612-104.189c0,0.168-0.136,0.306-0.305,0.306s-0.305-0.137-0.305-0.306v-2.393
		c0-0.168,0.136-0.305,0.305-0.305s0.305,0.136,0.305,0.305V-104.189z M532.612-108.524c0,0.168-0.136,0.304-0.305,0.304
		s-0.305-0.136-0.305-0.304v-2.394c0-0.169,0.136-0.305,0.305-0.305s0.305,0.136,0.305,0.305V-108.524z M532.612-112.861
		c0,0.167-0.136,0.304-0.305,0.304s-0.305-0.136-0.305-0.304v-2.393c0-0.168,0.136-0.305,0.305-0.305s0.305,0.136,0.305,0.305
		V-112.861z M532.612-117.198c0,0.168-0.136,0.304-0.305,0.304s-0.305-0.136-0.305-0.304v-2.393c0-0.169,0.136-0.306,0.305-0.306
		s0.305,0.136,0.305,0.306V-117.198z M532.612-121.536c0,0.168-0.136,0.306-0.305,0.306s-0.305-0.137-0.305-0.306v-2.391
		c0-0.169,0.136-0.305,0.305-0.305s0.305,0.136,0.305,0.305V-121.536z M532.612-135.326c0,0.168-0.136,0.305-0.305,0.305
		s-0.305-0.136-0.305-0.305v-2.392c0-0.168,0.136-0.306,0.305-0.306s0.305,0.137,0.305,0.306V-135.326z M532.612-139.662
		c0,0.169-0.136,0.305-0.305,0.305s-0.305-0.136-0.305-0.305v-2.392c0-0.167,0.136-0.305,0.305-0.305s0.305,0.137,0.305,0.305
		V-139.662z M532.612-144c0,0.168-0.136,0.305-0.305,0.305s-0.305-0.136-0.305-0.305v-2.391c0-0.168,0.136-0.305,0.305-0.305
		s0.305,0.137,0.305,0.305V-144z M532.612-148.335c0,0.168-0.136,0.307-0.305,0.307s-0.305-0.138-0.305-0.307v-2.392
		c0-0.168,0.136-0.305,0.305-0.305s0.305,0.136,0.305,0.305V-148.335z M532.612-152.673c0,0.168-0.136,0.307-0.305,0.307
		s-0.305-0.138-0.305-0.307v-2.392c0-0.168,0.136-0.304,0.305-0.304s0.305,0.136,0.305,0.304V-152.673z M536.124-101.057
		c0,0.17-0.138,0.306-0.307,0.306s-0.302-0.135-0.302-0.306v-2.392c0-0.168,0.134-0.305,0.302-0.305s0.307,0.136,0.307,0.305
		V-101.057z M536.124-105.393c0,0.169-0.138,0.305-0.307,0.305s-0.302-0.136-0.302-0.305v-2.391c0-0.168,0.134-0.306,0.302-0.306
		s0.307,0.137,0.307,0.306V-105.393z M536.124-109.728c0,0.168-0.138,0.305-0.307,0.305s-0.302-0.136-0.302-0.305v-2.391
		c0-0.17,0.134-0.307,0.302-0.307s0.307,0.137,0.307,0.307V-109.728z M536.124-114.065c0,0.168-0.138,0.305-0.307,0.305
		s-0.302-0.136-0.302-0.305v-2.391c0-0.169,0.134-0.306,0.302-0.306s0.307,0.136,0.307,0.306V-114.065z M536.124-118.401
		c0,0.169-0.138,0.306-0.307,0.306s-0.302-0.137-0.302-0.306v-2.391c0-0.168,0.134-0.306,0.302-0.306s0.307,0.137,0.307,0.306
		V-118.401z M536.124-132.193c0,0.168-0.138,0.306-0.307,0.306s-0.302-0.137-0.302-0.306v-2.392c0-0.168,0.134-0.306,0.302-0.306
		s0.307,0.137,0.307,0.306V-132.193z M536.124-136.529c0,0.168-0.138,0.306-0.307,0.306s-0.302-0.138-0.302-0.306v-2.392
		c0-0.167,0.134-0.306,0.302-0.306s0.307,0.139,0.307,0.306V-136.529z M536.124-140.865c0,0.168-0.138,0.305-0.307,0.305
		s-0.302-0.136-0.302-0.305v-2.391c0-0.169,0.134-0.306,0.302-0.306s0.307,0.136,0.307,0.306V-140.865z M536.124-145.203
		c0,0.17-0.138,0.307-0.307,0.307s-0.302-0.136-0.302-0.307v-2.39c0-0.17,0.134-0.306,0.302-0.306s0.307,0.136,0.307,0.306V-145.203
		z M536.124-149.538c0,0.168-0.138,0.304-0.307,0.304s-0.302-0.136-0.302-0.304v-2.392c0-0.168,0.134-0.306,0.302-0.306
		s0.307,0.137,0.307,0.306V-149.538z M538.078-166.639c0,0.168-0.136,0.305-0.306,0.305c-0.167,0-0.305-0.136-0.305-0.305v-2.39
		c0-0.169,0.137-0.306,0.305-0.306c0.169,0,0.306,0.136,0.306,0.306V-166.639z M538.078-170.974c0,0.167-0.136,0.305-0.306,0.305
		c-0.167,0-0.305-0.137-0.305-0.305v-2.391c0-0.169,0.137-0.307,0.305-0.307c0.169,0,0.306,0.138,0.306,0.307V-170.974z
		 M538.078-175.312c0,0.168-0.136,0.304-0.306,0.304c-0.167,0-0.305-0.136-0.305-0.304v-2.392c0-0.166,0.137-0.305,0.305-0.305
		c0.169,0,0.306,0.139,0.306,0.305V-175.312z M538.078-179.647c0,0.169-0.136,0.305-0.306,0.305c-0.167,0-0.305-0.136-0.305-0.305
		v-2.391c0-0.168,0.137-0.306,0.305-0.306c0.169,0,0.306,0.137,0.306,0.306V-179.647z M538.078-183.985
		c0,0.168-0.136,0.307-0.306,0.307c-0.167,0-0.305-0.138-0.305-0.307v-2.389c0-0.171,0.137-0.307,0.305-0.307
		c0.169,0,0.306,0.136,0.306,0.307V-183.985z M538.078-189.42c0,0.169-0.136,0.305-0.306,0.305c-0.167,0-0.305-0.135-0.305-0.305
		v-2.392c0-0.168,0.137-0.306,0.305-0.306c0.169,0,0.306,0.137,0.306,0.306V-189.42z M538.078-193.757
		c0,0.17-0.136,0.306-0.306,0.306c-0.167,0-0.305-0.136-0.305-0.306v-2.391c0-0.168,0.137-0.306,0.305-0.306
		c0.169,0,0.306,0.137,0.306,0.306V-193.757z M538.078-198.093c0,0.168-0.136,0.305-0.306,0.305c-0.167,0-0.305-0.136-0.305-0.305
		v-2.391c0-0.167,0.137-0.305,0.305-0.305c0.169,0,0.306,0.138,0.306,0.305V-198.093z M538.078-202.43
		c0,0.169-0.136,0.306-0.306,0.306c-0.167,0-0.305-0.136-0.305-0.306v-2.391c0-0.168,0.137-0.306,0.305-0.306
		c0.169,0,0.306,0.137,0.306,0.306V-202.43z M538.078-206.767c0,0.17-0.136,0.307-0.306,0.307c-0.167,0-0.305-0.137-0.305-0.307
		v-2.39c0-0.168,0.137-0.306,0.305-0.306c0.169,0,0.306,0.137,0.306,0.306V-206.767z M541.545-163.09
		c0,0.168-0.137,0.305-0.306,0.305c-0.167,0-0.304-0.136-0.304-0.305v-2.391c0-0.17,0.137-0.306,0.304-0.306
		c0.168,0,0.306,0.136,0.306,0.306V-163.09z M541.545-167.426c0,0.167-0.137,0.303-0.306,0.303c-0.167,0-0.304-0.136-0.304-0.303
		v-2.394c0-0.168,0.137-0.305,0.304-0.305c0.168,0,0.306,0.136,0.306,0.305V-167.426z M541.545-171.764
		c0,0.167-0.137,0.306-0.306,0.306c-0.167,0-0.304-0.138-0.304-0.306v-2.391c0-0.17,0.137-0.306,0.304-0.306
		c0.168,0,0.306,0.136,0.306,0.306V-171.764z M541.545-176.1c0,0.168-0.137,0.307-0.306,0.307c-0.167,0-0.304-0.138-0.304-0.307
		v-2.392c0-0.168,0.137-0.304,0.304-0.304c0.168,0,0.306,0.136,0.306,0.304V-176.1z M541.545-180.437
		c0,0.167-0.137,0.306-0.306,0.306c-0.167,0-0.304-0.138-0.304-0.306v-2.39c0-0.169,0.137-0.307,0.304-0.307
		c0.168,0,0.306,0.137,0.306,0.307V-180.437z M541.545-185.873c0,0.17-0.137,0.306-0.306,0.306c-0.167,0-0.304-0.136-0.304-0.306
		v-2.392c0-0.168,0.137-0.304,0.304-0.304c0.168,0,0.306,0.136,0.306,0.304V-185.873z M541.545-190.208
		c0,0.168-0.137,0.303-0.306,0.303c-0.167,0-0.304-0.135-0.304-0.303v-2.391c0-0.169,0.137-0.307,0.304-0.307
		c0.168,0,0.306,0.138,0.306,0.307V-190.208z M541.545-194.545c0,0.168-0.137,0.306-0.306,0.306c-0.167,0-0.304-0.138-0.304-0.306
		v-2.393c0-0.167,0.137-0.305,0.304-0.305c0.168,0,0.306,0.137,0.306,0.305V-194.545z M541.545-198.882
		c0,0.168-0.137,0.305-0.306,0.305c-0.167,0-0.304-0.136-0.304-0.305v-2.391c0-0.169,0.137-0.305,0.304-0.305
		c0.168,0,0.306,0.135,0.306,0.305V-198.882z M541.545-203.218c0,0.169-0.137,0.306-0.306,0.306c-0.167,0-0.304-0.136-0.304-0.306
		v-2.392c0-0.168,0.137-0.304,0.304-0.304c0.168,0,0.306,0.136,0.306,0.304V-203.218z M548.409-89.971
		c0,0.167-0.136,0.305-0.305,0.305s-0.305-0.137-0.305-0.305v-2.393c0-0.169,0.136-0.306,0.305-0.306s0.305,0.136,0.305,0.306
		V-89.971z M548.409-94.309c0,0.17-0.136,0.307-0.305,0.307s-0.305-0.137-0.305-0.307v-2.39c0-0.169,0.136-0.306,0.305-0.306
		s0.305,0.136,0.305,0.306V-94.309z M548.409-98.644c0,0.168-0.136,0.305-0.305,0.305s-0.305-0.136-0.305-0.305v-2.391
		c0-0.168,0.136-0.306,0.305-0.306s0.305,0.137,0.305,0.306V-98.644z M548.409-102.98c0,0.169-0.136,0.306-0.305,0.306
		s-0.305-0.136-0.305-0.306v-2.393c0-0.167,0.136-0.305,0.305-0.305s0.305,0.137,0.305,0.305V-102.98z M548.409-107.316
		c0,0.168-0.136,0.303-0.305,0.303s-0.305-0.135-0.305-0.303v-2.393c0-0.168,0.136-0.305,0.305-0.305s0.305,0.136,0.305,0.305
		V-107.316z M548.409-121.108c0,0.168-0.136,0.304-0.305,0.304s-0.305-0.135-0.305-0.304v-2.391c0-0.169,0.136-0.306,0.305-0.306
		s0.305,0.137,0.305,0.306V-121.108z M548.409-125.445c0,0.17-0.136,0.308-0.305,0.308s-0.305-0.137-0.305-0.308v-2.392
		c0-0.167,0.136-0.305,0.305-0.305s0.305,0.138,0.305,0.305V-125.445z M548.409-129.779c0,0.167-0.136,0.302-0.305,0.302
		s-0.305-0.136-0.305-0.302v-2.394c0-0.168,0.136-0.305,0.305-0.305s0.305,0.136,0.305,0.305V-129.779z M548.409-134.117
		c0,0.168-0.136,0.305-0.305,0.305s-0.305-0.136-0.305-0.305v-2.392c0-0.169,0.136-0.306,0.305-0.306s0.305,0.137,0.305,0.306
		V-134.117z M548.409-138.453c0,0.167-0.136,0.306-0.305,0.306s-0.305-0.139-0.305-0.306v-2.393c0-0.168,0.136-0.305,0.305-0.305
		s0.305,0.136,0.305,0.305V-138.453z M552.307-86.424c0,0.169-0.138,0.306-0.306,0.306c-0.166,0-0.304-0.137-0.304-0.306v-2.391
		c0-0.168,0.138-0.306,0.304-0.306c0.168,0,0.306,0.137,0.306,0.306V-86.424z M552.307-90.759c0,0.168-0.138,0.305-0.306,0.305
		c-0.166,0-0.304-0.136-0.304-0.305v-2.394c0-0.167,0.138-0.304,0.304-0.304c0.168,0,0.306,0.137,0.306,0.304V-90.759z
		 M552.307-95.097c0,0.168-0.138,0.305-0.306,0.305c-0.166,0-0.304-0.136-0.304-0.305v-2.391c0-0.169,0.138-0.307,0.304-0.307
		c0.168,0,0.306,0.137,0.306,0.307V-95.097z M552.307-99.433c0,0.167-0.138,0.305-0.306,0.305c-0.166,0-0.304-0.137-0.304-0.305
		v-2.391c0-0.169,0.138-0.305,0.304-0.305c0.168,0,0.306,0.135,0.306,0.305V-99.433z M552.307-103.768
		c0,0.167-0.138,0.304-0.306,0.304c-0.166,0-0.304-0.137-0.304-0.304v-2.393c0-0.169,0.138-0.304,0.304-0.304
		c0.168,0,0.306,0.135,0.306,0.304V-103.768z M552.307-117.56c0,0.167-0.138,0.303-0.306,0.303c-0.166,0-0.304-0.136-0.304-0.303
		v-2.393c0-0.168,0.138-0.305,0.304-0.305c0.168,0,0.306,0.136,0.306,0.305V-117.56z M552.307-121.896
		c0,0.168-0.138,0.305-0.306,0.305c-0.166,0-0.304-0.136-0.304-0.305v-2.391c0-0.168,0.138-0.305,0.304-0.305
		c0.168,0,0.306,0.136,0.306,0.305V-121.896z M552.307-126.234c0,0.168-0.138,0.307-0.306,0.307c-0.166,0-0.304-0.138-0.304-0.307
		v-2.392c0-0.168,0.138-0.304,0.304-0.304c0.168,0,0.306,0.136,0.306,0.304V-126.234z M552.307-130.569
		c0,0.168-0.138,0.304-0.306,0.304c-0.166,0-0.304-0.136-0.304-0.304v-2.392c0-0.169,0.138-0.305,0.304-0.305
		c0.168,0,0.306,0.135,0.306,0.305V-130.569z M552.307-134.906c0,0.17-0.138,0.306-0.306,0.306c-0.166,0-0.304-0.136-0.304-0.306
		v-2.393c0-0.168,0.138-0.304,0.304-0.304c0.168,0,0.306,0.136,0.306,0.304V-134.906z M556.016-83.09
		c0,0.167-0.136,0.305-0.305,0.305c-0.17,0-0.304-0.137-0.304-0.305v-2.394c0-0.167,0.134-0.305,0.304-0.305
		c0.168,0,0.305,0.138,0.305,0.305V-83.09z M556.016-87.428c0,0.168-0.136,0.305-0.305,0.305c-0.17,0-0.304-0.136-0.304-0.305
		v-2.391c0-0.17,0.134-0.306,0.304-0.306c0.168,0,0.305,0.136,0.305,0.306V-87.428z M556.016-91.765
		c0,0.169-0.136,0.306-0.305,0.306c-0.17,0-0.304-0.136-0.304-0.306v-2.392c0-0.169,0.134-0.303,0.304-0.303
		c0.168,0,0.305,0.134,0.305,0.303V-91.765z M556.016-96.102c0,0.171-0.136,0.307-0.305,0.307c-0.17,0-0.304-0.136-0.304-0.307
		v-2.391c0-0.168,0.134-0.305,0.304-0.305c0.168,0,0.305,0.136,0.305,0.305V-96.102z M556.016-100.437
		c0,0.168-0.136,0.305-0.305,0.305c-0.17,0-0.304-0.136-0.304-0.305v-2.391c0-0.168,0.134-0.306,0.304-0.306
		c0.168,0,0.305,0.137,0.305,0.306V-100.437z M556.016-114.229c0,0.168-0.136,0.306-0.305,0.306c-0.17,0-0.304-0.137-0.304-0.306
		v-2.392c0-0.168,0.134-0.306,0.304-0.306c0.168,0,0.305,0.137,0.305,0.306V-114.229z M556.016-118.564
		c0,0.167-0.136,0.306-0.305,0.306c-0.17,0-0.304-0.138-0.304-0.306v-2.391c0-0.169,0.134-0.306,0.304-0.306
		c0.168,0,0.305,0.136,0.305,0.306V-118.564z M556.016-122.901c0,0.168-0.136,0.305-0.305,0.305c-0.17,0-0.304-0.136-0.304-0.305
		v-2.392c0-0.168,0.134-0.305,0.304-0.305c0.168,0,0.305,0.137,0.305,0.305V-122.901z M556.016-127.238
		c0,0.17-0.136,0.307-0.305,0.307c-0.17,0-0.304-0.136-0.304-0.307v-2.392c0-0.168,0.134-0.305,0.304-0.305
		c0.168,0,0.305,0.136,0.305,0.305V-127.238z M556.016-131.574c0,0.169-0.136,0.307-0.305,0.307c-0.17,0-0.304-0.138-0.304-0.307
		v-2.391c0-0.168,0.134-0.306,0.304-0.306c0.168,0,0.305,0.137,0.305,0.306V-131.574z M559.914-79.543
		c0,0.168-0.136,0.306-0.304,0.306c-0.169,0-0.308-0.137-0.308-0.306v-2.391c0-0.17,0.138-0.306,0.308-0.306
		c0.167,0,0.304,0.136,0.304,0.306V-79.543z M559.914-83.879c0,0.167-0.136,0.304-0.304,0.304c-0.169,0-0.308-0.137-0.308-0.304
		v-2.394c0-0.168,0.138-0.305,0.308-0.305c0.167,0,0.304,0.136,0.304,0.305V-83.879z M559.914-88.217
		c0,0.169-0.136,0.305-0.304,0.305c-0.169,0-0.308-0.136-0.308-0.305v-2.391c0-0.169,0.138-0.306,0.308-0.306
		c0.167,0,0.304,0.136,0.304,0.306V-88.217z M559.914-92.554c0,0.169-0.136,0.307-0.304,0.307c-0.169,0-0.308-0.137-0.308-0.307
		v-2.392c0-0.168,0.138-0.303,0.308-0.303c0.167,0,0.304,0.135,0.304,0.303V-92.554z M559.914-96.89
		c0,0.168-0.136,0.307-0.304,0.307c-0.169,0-0.308-0.138-0.308-0.307v-2.392c0-0.168,0.138-0.307,0.308-0.307
		c0.167,0,0.304,0.138,0.304,0.307V-96.89z M559.914-110.681c0,0.168-0.136,0.305-0.304,0.305c-0.169,0-0.308-0.136-0.308-0.305
		v-2.391c0-0.168,0.138-0.305,0.308-0.305c0.167,0,0.304,0.136,0.304,0.305V-110.681z M559.914-115.017
		c0,0.169-0.136,0.306-0.304,0.306c-0.169,0-0.308-0.136-0.308-0.306v-2.39c0-0.169,0.138-0.307,0.308-0.307
		c0.167,0,0.304,0.138,0.304,0.307V-115.017z M559.914-119.354c0,0.169-0.136,0.306-0.304,0.306c-0.169,0-0.308-0.136-0.308-0.306
		v-2.391c0-0.168,0.138-0.306,0.308-0.306c0.167,0,0.304,0.137,0.304,0.306V-119.354z M559.914-123.689
		c0,0.168-0.136,0.305-0.304,0.305c-0.169,0-0.308-0.136-0.308-0.305v-2.394c0-0.166,0.138-0.305,0.308-0.305
		c0.167,0,0.304,0.139,0.304,0.305V-123.689z M559.914-128.027c0,0.169-0.136,0.307-0.304,0.307c-0.169,0-0.308-0.137-0.308-0.307
		v-2.392c0-0.168,0.138-0.304,0.308-0.304c0.167,0,0.304,0.136,0.304,0.304V-128.027z M563.426-76.409
		c0,0.167-0.137,0.302-0.306,0.302s-0.303-0.135-0.303-0.302v-2.394c0-0.168,0.135-0.305,0.303-0.305s0.306,0.136,0.306,0.305
		V-76.409z M563.426-80.747c0,0.168-0.137,0.305-0.306,0.305s-0.303-0.136-0.303-0.305v-2.391c0-0.169,0.135-0.307,0.303-0.307
		s0.306,0.138,0.306,0.307V-80.747z M563.426-85.082c0,0.168-0.137,0.305-0.306,0.305s-0.303-0.136-0.303-0.305v-2.392
		c0-0.168,0.135-0.307,0.303-0.307s0.306,0.138,0.306,0.307V-85.082z M563.426-89.42c0,0.17-0.137,0.307-0.306,0.307
		s-0.303-0.137-0.303-0.307v-2.393c0-0.167,0.135-0.303,0.303-0.303s0.306,0.136,0.306,0.303V-89.42z M563.426-93.755
		c0,0.167-0.137,0.305-0.306,0.305s-0.303-0.137-0.303-0.305v-2.393c0-0.168,0.135-0.304,0.303-0.304s0.306,0.136,0.306,0.304
		V-93.755z M563.426-107.547c0,0.17-0.137,0.306-0.306,0.306s-0.303-0.136-0.303-0.306v-2.392c0-0.167,0.135-0.305,0.303-0.305
		s0.306,0.137,0.306,0.305V-107.547z M563.426-111.883c0,0.167-0.137,0.306-0.306,0.306s-0.303-0.138-0.303-0.306v-2.393
		c0-0.169,0.135-0.304,0.303-0.304s0.306,0.135,0.306,0.304V-111.883z M563.426-116.222c0,0.171-0.137,0.307-0.306,0.307
		s-0.303-0.136-0.303-0.307v-2.39c0-0.169,0.135-0.306,0.303-0.306s0.306,0.136,0.306,0.306V-116.222z M563.426-120.557
		c0,0.169-0.137,0.306-0.306,0.306s-0.303-0.136-0.303-0.306v-2.391c0-0.17,0.135-0.305,0.303-0.305s0.306,0.135,0.306,0.305
		V-120.557z M563.426-124.893c0,0.168-0.137,0.306-0.306,0.306s-0.303-0.137-0.303-0.306v-2.392c0-0.168,0.135-0.304,0.303-0.304
		s0.306,0.136,0.306,0.304V-124.893z M576.252-82.375c0,0.169-0.136,0.307-0.304,0.307c-0.167,0-0.305-0.137-0.305-0.307v-2.391
		c0-0.168,0.138-0.305,0.305-0.305c0.168,0,0.304,0.136,0.304,0.305V-82.375z M576.252-86.711c0,0.167-0.136,0.305-0.304,0.305
		c-0.167,0-0.305-0.137-0.305-0.305v-2.393c0-0.169,0.138-0.306,0.305-0.306c0.168,0,0.304,0.136,0.304,0.306V-86.711z
		 M576.252-91.049c0,0.169-0.136,0.307-0.304,0.307c-0.167,0-0.305-0.138-0.305-0.307v-2.391c0-0.168,0.138-0.305,0.305-0.305
		c0.168,0,0.304,0.136,0.304,0.305V-91.049z M576.252-95.384c0,0.168-0.136,0.305-0.304,0.305c-0.167,0-0.305-0.136-0.305-0.305
		v-2.391c0-0.168,0.138-0.306,0.305-0.306c0.168,0,0.304,0.137,0.304,0.306V-95.384z M578.336-80.217
		c0,0.168-0.138,0.305-0.306,0.305c-0.166,0-0.303-0.136-0.303-0.305v-2.392c0-0.169,0.137-0.307,0.303-0.307
		c0.168,0,0.306,0.137,0.306,0.307V-80.217z M578.336-84.553c0,0.168-0.138,0.305-0.306,0.305c-0.166,0-0.303-0.136-0.303-0.305
		v-2.394c0-0.167,0.137-0.303,0.303-0.303c0.168,0,0.306,0.135,0.306,0.303V-84.553z M578.336-88.891
		c0,0.168-0.138,0.306-0.306,0.306c-0.166,0-0.303-0.137-0.303-0.306v-2.391c0-0.168,0.137-0.305,0.303-0.305
		c0.168,0,0.306,0.136,0.306,0.305V-88.891z M578.336-93.226c0,0.168-0.138,0.305-0.306,0.305c-0.166,0-0.303-0.136-0.303-0.305
		v-2.394c0-0.167,0.137-0.303,0.303-0.303c0.168,0,0.306,0.137,0.306,0.303V-93.226z M582.501-75.901
		c0,0.167-0.136,0.305-0.307,0.305c-0.167,0-0.303-0.137-0.303-0.305v-2.391c0-0.168,0.137-0.307,0.303-0.307
		c0.171,0,0.307,0.139,0.307,0.307V-75.901z M582.501-80.239c0,0.169-0.136,0.307-0.307,0.307c-0.167,0-0.303-0.137-0.303-0.307
		v-2.392c0-0.168,0.137-0.306,0.303-0.306c0.171,0,0.307,0.137,0.307,0.306V-80.239z M582.501-84.574
		c0,0.168-0.136,0.304-0.307,0.304c-0.167,0-0.303-0.136-0.303-0.304v-2.392c0-0.169,0.137-0.305,0.303-0.305
		c0.171,0,0.307,0.135,0.307,0.305V-84.574z M582.501-88.91c0,0.169-0.136,0.305-0.307,0.305c-0.167,0-0.303-0.136-0.303-0.305
		v-2.394c0-0.167,0.137-0.305,0.303-0.305c0.171,0,0.307,0.138,0.307,0.305V-88.91z M584.584-73.744
		c0,0.168-0.136,0.306-0.305,0.306c-0.168,0-0.305-0.137-0.305-0.306v-2.391c0-0.169,0.136-0.307,0.305-0.307
		c0.169,0,0.305,0.137,0.305,0.307V-73.744z M584.584-78.081c0,0.17-0.136,0.305-0.305,0.305c-0.168,0-0.305-0.135-0.305-0.305
		v-2.391c0-0.168,0.136-0.305,0.305-0.305c0.169,0,0.305,0.136,0.305,0.305V-78.081z M584.584-82.417
		c0,0.168-0.136,0.306-0.305,0.306c-0.168,0-0.305-0.137-0.305-0.306v-2.39c0-0.169,0.136-0.307,0.305-0.307
		c0.169,0,0.305,0.138,0.305,0.307V-82.417z M584.584-86.753c0,0.167-0.136,0.303-0.305,0.303c-0.168,0-0.305-0.136-0.305-0.303
		v-2.393c0-0.168,0.136-0.305,0.305-0.305c0.169,0,0.305,0.136,0.305,0.305V-86.753z M595.197-68.598
		c0,0.168-0.137,0.305-0.305,0.305c-0.171,0-0.307-0.136-0.307-0.305v-2.393c0-0.167,0.136-0.304,0.307-0.304
		c0.167,0,0.305,0.137,0.305,0.304V-68.598z M595.197-72.934c0,0.168-0.137,0.304-0.305,0.304c-0.171,0-0.307-0.136-0.307-0.304
		v-2.39c0-0.171,0.136-0.307,0.307-0.307c0.167,0,0.305,0.136,0.305,0.307V-72.934z M595.197-77.271
		c0,0.168-0.137,0.305-0.305,0.305c-0.171,0-0.307-0.136-0.307-0.305v-2.391c0-0.168,0.136-0.307,0.307-0.307
		c0.167,0,0.305,0.138,0.305,0.307V-77.271z M595.197-81.606c0,0.168-0.137,0.305-0.305,0.305c-0.171,0-0.307-0.136-0.307-0.305
		v-2.393c0-0.168,0.136-0.303,0.307-0.303c0.167,0,0.305,0.135,0.305,0.303V-81.606z M595.197-85.944
		c0,0.169-0.137,0.306-0.305,0.306c-0.171,0-0.307-0.137-0.307-0.306v-2.391c0-0.169,0.136-0.303,0.307-0.303
		c0.167,0,0.305,0.134,0.305,0.303V-85.944z M599.318-79.466c0-0.167,0.137-0.302,0.306-0.302s0.304,0.135,0.304,0.302v2.393
		c0,0.168-0.136,0.306-0.304,0.306s-0.306-0.137-0.306-0.306V-79.466z M599.318-75.127c0-0.169,0.137-0.306,0.306-0.306
		s0.304,0.136,0.304,0.306v2.391c0,0.168-0.136,0.304-0.304,0.304s-0.306-0.136-0.306-0.304V-75.127z M602.884-66.036
		c0,0.074-0.034,0.138-0.079,0.192c-0.011,0.012-0.019,0.021-0.03,0.032c-0.011,0.009-0.017,0.022-0.028,0.03l-2.954,1.971
		c-0.053,0.034-0.11,0.051-0.169,0.051c-0.05,0-0.1-0.011-0.145-0.037c-0.102-0.052-0.161-0.156-0.161-0.268v-2.391
		c0-0.104,0.051-0.199,0.135-0.255l2.958-1.971c0.05-0.034,0.107-0.048,0.165-0.049c0.001,0,0.003-0.001,0.004-0.001
		c0.005,0,0.01,0.005,0.016,0.006c0.043,0.003,0.086,0.008,0.126,0.029c0.019,0.01,0.028,0.028,0.044,0.041
		c0.015,0.013,0.026,0.021,0.039,0.037c0.045,0.054,0.079,0.117,0.079,0.191V-66.036z M602.884-74.709
		c0,0.168-0.137,0.307-0.305,0.307c-0.168,0-0.306-0.139-0.306-0.307v-2.39c0-0.169,0.137-0.306,0.306-0.306
		c0.167,0,0.305,0.136,0.305,0.306V-74.709z M602.884-79.044c0,0.168-0.137,0.306-0.305,0.306c-0.168,0-0.306-0.137-0.306-0.306
		v-2.391c0-0.168,0.137-0.305,0.306-0.305c0.167,0,0.305,0.136,0.305,0.305V-79.044z M651.805-79.896
		c0,0.168-0.136,0.306-0.304,0.306c-0.169,0-0.305-0.137-0.305-0.306v-2.39c0-0.168,0.136-0.307,0.305-0.307
		c0.168,0,0.304,0.138,0.304,0.307V-79.896z M651.805-84.232c0,0.169-0.136,0.306-0.304,0.306c-0.169,0-0.305-0.136-0.305-0.306
		v-2.39c0-0.169,0.136-0.307,0.305-0.307c0.168,0,0.304,0.138,0.304,0.307V-84.232z M651.805-88.567
		c0,0.168-0.136,0.306-0.304,0.306c-0.169,0-0.305-0.138-0.305-0.306v-2.393c0-0.167,0.136-0.305,0.305-0.305
		c0.168,0,0.304,0.137,0.304,0.305V-88.567z M651.805-92.904c0,0.168-0.136,0.305-0.304,0.305c-0.169,0-0.305-0.136-0.305-0.305
		v-2.39c0-0.169,0.136-0.307,0.305-0.307c0.168,0,0.304,0.137,0.304,0.307V-92.904z M651.805-97.241
		c0,0.168-0.136,0.306-0.304,0.306c-0.169,0-0.305-0.137-0.305-0.306v-2.392c0-0.168,0.136-0.306,0.305-0.306
		c0.168,0,0.304,0.137,0.304,0.306V-97.241z M655.251-81.2c0,0.168-0.135,0.305-0.304,0.305c-0.169,0-0.306-0.136-0.306-0.305
		v-2.392c0-0.169,0.136-0.307,0.306-0.307c0.168,0,0.304,0.137,0.304,0.307V-81.2z M655.251-85.538c0,0.17-0.135,0.305-0.304,0.305
		c-0.169,0-0.306-0.135-0.306-0.305v-2.39c0-0.167,0.136-0.306,0.306-0.306c0.168,0,0.304,0.138,0.304,0.306V-85.538z
		 M655.251-89.874c0,0.171-0.135,0.305-0.304,0.305c-0.169,0-0.306-0.134-0.306-0.305v-2.391c0-0.169,0.136-0.306,0.306-0.306
		c0.168,0,0.304,0.137,0.304,0.306V-89.874z M655.251-94.21c0,0.169-0.135,0.306-0.304,0.306c-0.169,0-0.306-0.136-0.306-0.306
		v-2.393c0-0.166,0.136-0.305,0.306-0.305c0.168,0,0.304,0.139,0.304,0.305V-94.21z M655.251-98.547
		c0,0.169-0.135,0.306-0.304,0.306c-0.169,0-0.306-0.137-0.306-0.306v-2.392c0-0.167,0.136-0.304,0.306-0.304
		c0.168,0,0.304,0.136,0.304,0.304V-98.547z M658.696-82.507c0,0.168-0.134,0.307-0.302,0.307s-0.306-0.139-0.306-0.307v-2.39
		c0-0.169,0.137-0.306,0.306-0.306s0.302,0.136,0.302,0.306V-82.507z M658.696-86.843c0,0.167-0.134,0.305-0.302,0.305
		s-0.306-0.137-0.306-0.305v-2.391c0-0.168,0.137-0.306,0.306-0.306s0.302,0.137,0.302,0.306V-86.843z M658.696-91.181
		c0,0.169-0.134,0.307-0.302,0.307s-0.306-0.138-0.306-0.307v-2.391c0-0.168,0.137-0.303,0.306-0.303s0.302,0.135,0.302,0.303
		V-91.181z M658.696-95.515c0,0.168-0.134,0.303-0.302,0.303s-0.306-0.135-0.306-0.303v-2.394c0-0.167,0.137-0.305,0.306-0.305
		s0.302,0.137,0.302,0.305V-95.515z M658.696-99.854c0,0.169-0.134,0.307-0.302,0.307s-0.306-0.137-0.306-0.307v-2.391
		c0-0.169,0.137-0.306,0.306-0.306s0.302,0.136,0.302,0.306V-99.854z M662.144-83.812c0,0.168-0.136,0.305-0.303,0.305
		c-0.167,0-0.304-0.136-0.304-0.305v-2.392c0-0.169,0.136-0.306,0.304-0.306c0.167,0,0.303,0.137,0.303,0.306V-83.812z
		 M662.144-88.149c0,0.17-0.136,0.305-0.303,0.305c-0.167,0-0.304-0.134-0.304-0.305v-2.391c0-0.169,0.136-0.306,0.304-0.306
		c0.167,0,0.303,0.136,0.303,0.306V-88.149z M662.144-92.485c0,0.169-0.136,0.305-0.303,0.305c-0.167,0-0.304-0.136-0.304-0.305
		v-2.392c0-0.167,0.136-0.305,0.304-0.305c0.167,0,0.303,0.137,0.303,0.305V-92.485z M662.144-96.821
		c0,0.168-0.136,0.302-0.303,0.302c-0.167,0-0.304-0.134-0.304-0.302v-2.394c0-0.166,0.136-0.304,0.304-0.304
		c0.167,0,0.303,0.138,0.303,0.304V-96.821z M662.144-101.158c0,0.169-0.136,0.306-0.303,0.306c-0.167,0-0.304-0.136-0.304-0.306
		v-2.392c0-0.168,0.136-0.305,0.304-0.305c0.167,0,0.303,0.136,0.303,0.305V-101.158z M669.13-86.35
		c0,0.168-0.135,0.305-0.304,0.305c-0.167,0-0.306-0.136-0.306-0.305v-2.391c0-0.169,0.138-0.306,0.306-0.306
		c0.168,0,0.304,0.137,0.304,0.306V-86.35z M669.13-90.688c0,0.169-0.135,0.307-0.304,0.307c-0.167,0-0.306-0.138-0.306-0.307
		v-2.389c0-0.17,0.138-0.307,0.306-0.307c0.168,0,0.304,0.136,0.304,0.307V-90.688z M669.13-95.023c0,0.168-0.135,0.305-0.304,0.305
		c-0.167,0-0.306-0.136-0.306-0.305v-2.392c0-0.168,0.138-0.304,0.306-0.304c0.168,0,0.304,0.136,0.304,0.304V-95.023z
		 M669.13-99.359c0,0.167-0.135,0.305-0.304,0.305c-0.167,0-0.306-0.137-0.306-0.305v-2.393c0-0.167,0.138-0.304,0.306-0.304
		c0.168,0,0.304,0.137,0.304,0.304V-99.359z M669.13-103.697c0,0.168-0.135,0.305-0.304,0.305c-0.167,0-0.306-0.136-0.306-0.305
		v-2.391c0-0.168,0.138-0.305,0.306-0.305c0.168,0,0.304,0.136,0.304,0.305V-103.697z M672.578-87.657
		c0,0.168-0.135,0.305-0.305,0.305c-0.168,0-0.305-0.136-0.305-0.305v-2.391c0-0.168,0.136-0.305,0.305-0.305
		c0.169,0,0.305,0.136,0.305,0.305V-87.657z M672.578-91.993c0,0.168-0.135,0.305-0.305,0.305c-0.168,0-0.305-0.136-0.305-0.305
		v-2.391c0-0.169,0.136-0.305,0.305-0.305c0.169,0,0.305,0.136,0.305,0.305V-91.993z M672.578-96.329
		c0,0.168-0.135,0.306-0.305,0.306c-0.168,0-0.305-0.137-0.305-0.306v-2.393c0-0.167,0.136-0.305,0.305-0.305
		c0.169,0,0.305,0.137,0.305,0.305V-96.329z M672.578-100.666c0,0.169-0.135,0.305-0.305,0.305c-0.168,0-0.305-0.136-0.305-0.305
		v-2.391c0-0.168,0.136-0.305,0.305-0.305c0.169,0,0.305,0.136,0.305,0.305V-100.666z M672.578-105.001
		c0,0.168-0.135,0.306-0.305,0.306c-0.168,0-0.305-0.137-0.305-0.306v-2.392c0-0.168,0.136-0.305,0.305-0.305
		c0.169,0,0.305,0.137,0.305,0.305V-105.001z M676.024-88.962c0,0.168-0.136,0.305-0.306,0.305c-0.168,0-0.305-0.136-0.305-0.305
		v-2.391c0-0.17,0.136-0.305,0.305-0.305c0.169,0,0.306,0.135,0.306,0.305V-88.962z M676.024-93.3c0,0.17-0.136,0.305-0.306,0.305
		c-0.168,0-0.305-0.135-0.305-0.305v-2.391c0-0.168,0.136-0.303,0.305-0.303c0.169,0,0.306,0.135,0.306,0.303V-93.3z
		 M676.024-97.636c0,0.169-0.136,0.306-0.306,0.306c-0.168,0-0.305-0.136-0.305-0.306v-2.39c0-0.168,0.136-0.307,0.305-0.307
		c0.169,0,0.306,0.138,0.306,0.307V-97.636z M676.024-101.972c0,0.167-0.136,0.306-0.306,0.306c-0.168,0-0.305-0.138-0.305-0.306
		v-2.392c0-0.167,0.136-0.306,0.305-0.306c0.169,0,0.306,0.139,0.306,0.306V-101.972z M676.024-106.309
		c0,0.169-0.136,0.306-0.306,0.306c-0.168,0-0.305-0.137-0.305-0.306v-2.391c0-0.168,0.136-0.305,0.305-0.305
		c0.169,0,0.306,0.136,0.306,0.305V-106.309z M679.471-90.269c0,0.168-0.137,0.307-0.305,0.307c-0.168,0-0.305-0.139-0.305-0.307
		v-2.392c0-0.167,0.136-0.305,0.305-0.305c0.167,0,0.305,0.137,0.305,0.305V-90.269z M679.471-94.604
		c0,0.169-0.137,0.305-0.305,0.305c-0.168,0-0.305-0.136-0.305-0.305v-2.391c0-0.168,0.136-0.306,0.305-0.306
		c0.167,0,0.305,0.137,0.305,0.306V-94.604z M679.471-98.942c0,0.17-0.137,0.304-0.305,0.304c-0.168,0-0.305-0.134-0.305-0.304
		v-2.392c0-0.166,0.136-0.304,0.305-0.304c0.167,0,0.305,0.138,0.305,0.304V-98.942z M679.471-103.277
		c0,0.168-0.137,0.306-0.305,0.306c-0.168,0-0.305-0.137-0.305-0.306v-2.39c0-0.17,0.136-0.308,0.305-0.308
		c0.167,0,0.305,0.137,0.305,0.308V-103.277z M679.471-107.613c0,0.169-0.137,0.305-0.305,0.305c-0.168,0-0.305-0.136-0.305-0.305
		v-2.392c0-0.167,0.136-0.306,0.305-0.306c0.167,0,0.305,0.138,0.305,0.306V-107.613z M712.997-243.187
		c0-0.168,0.139-0.305,0.305-0.305c0.171,0,0.31,0.136,0.31,0.305v124.273c0,0.167-0.139,0.306-0.31,0.306
		c-0.166,0-0.305-0.138-0.305-0.306V-243.187z M709.625-241.751c0-0.169,0.138-0.306,0.305-0.306c0.171,0,0.307,0.136,0.307,0.306
		v124.273c0,0.168-0.136,0.304-0.307,0.304c-0.167,0-0.305-0.136-0.305-0.304V-241.751z M706.253-240.749
		c0-0.17,0.138-0.306,0.305-0.306c0.171,0,0.305,0.136,0.305,0.306v124.272c0,0.169-0.134,0.306-0.305,0.306
		c-0.167,0-0.305-0.137-0.305-0.306V-240.749z M693.375-111.817c0,0.168-0.137,0.307-0.307,0.307c-0.168,0-0.304-0.138-0.304-0.307
		V-236.09c0-0.168,0.136-0.305,0.304-0.305c0.17,0,0.307,0.137,0.307,0.305V-111.817z M696.746-112.819
		c0,0.169-0.136,0.305-0.305,0.305c-0.167,0-0.305-0.136-0.305-0.305v-124.273c0-0.168,0.138-0.307,0.305-0.307
		c0.169,0,0.305,0.138,0.305,0.307V-112.819z M700.118-114.039c0,0.168-0.136,0.305-0.303,0.305c-0.17,0-0.307-0.136-0.307-0.305
		v-124.272c0-0.168,0.137-0.305,0.307-0.305c0.167,0,0.303,0.137,0.303,0.305V-114.039z M703.49-115.257
		c0,0.169-0.136,0.305-0.305,0.305c-0.167,0-0.305-0.135-0.305-0.305V-239.53c0-0.169,0.138-0.306,0.305-0.306
		c0.169,0,0.305,0.137,0.305,0.306V-115.257z M713.688-89.482l-7.573,2.748c-0.033,0.011-0.069,0.018-0.104,0.018
		c-0.062,0-0.123-0.018-0.175-0.056c-0.083-0.056-0.13-0.15-0.13-0.25l0.01-10.051c0-0.129,0.081-0.243,0.202-0.287l7.443-2.66
		c0.093-0.033,0.197-0.019,0.277,0.038c0.079,0.057,0.129,0.148,0.131,0.249l0.117,9.961
		C713.889-89.645,713.808-89.529,713.688-89.482z M716.979-120.133c0,0.17-0.137,0.308-0.305,0.308
		c-0.167,0-0.304-0.138-0.304-0.308v-124.272c0-0.169,0.137-0.305,0.304-0.305c0.168,0,0.305,0.136,0.305,0.305V-120.133z
		 M720.352-121.566c0,0.168-0.136,0.305-0.303,0.305c-0.17,0-0.307-0.136-0.307-0.305v-124.273c0-0.169,0.137-0.306,0.307-0.306
		c0.167,0,0.303,0.137,0.303,0.306V-121.566z M723.725-122.354c0,0.169-0.137,0.305-0.305,0.305c-0.169,0-0.306-0.136-0.306-0.305
		v-124.272c0-0.168,0.137-0.305,0.306-0.305c0.168,0,0.305,0.137,0.305,0.305V-122.354z M728.056-123.916
		c0,0.168-0.139,0.305-0.308,0.305c-0.166,0-0.304-0.136-0.304-0.305v-124.273c0-0.168,0.138-0.305,0.304-0.305
		c0.169,0,0.308,0.137,0.308,0.305V-123.916z M729.968-122.479c0,0.167-0.136,0.304-0.306,0.304c-0.166,0-0.304-0.136-0.304-0.304
		v-124.273c0-0.168,0.138-0.304,0.304-0.304c0.17,0,0.306,0.136,0.306,0.304V-122.479z M731.716-121.367
		c0,0.168-0.134,0.305-0.305,0.305c-0.169,0-0.305-0.136-0.305-0.305V-245.64c0-0.169,0.136-0.304,0.305-0.304
		c0.171,0,0.305,0.134,0.305,0.304V-121.367z M733.532-120.252c0,0.168-0.138,0.305-0.307,0.305c-0.166,0-0.304-0.136-0.304-0.305
		v-124.272c0-0.168,0.138-0.304,0.304-0.304c0.169,0,0.307,0.135,0.307,0.304V-120.252z M735.392-118.991
		c0,0.168-0.137,0.304-0.307,0.304c-0.169,0-0.304-0.136-0.304-0.304v-124.271c0-0.168,0.135-0.305,0.304-0.305
		c0.17,0,0.307,0.137,0.307,0.305V-118.991z"/>
</g>
</svg>
