<?xml version="1.0" encoding="utf-8"?>
<!-- Generator: Adobe Illustrator 16.0.0, SVG Export Plug-In . SVG Version: 6.00 Build 0)  -->
<!DOCTYPE svg PUBLIC "-//W3C//DTD SVG 1.1//EN" "http://www.w3.org/Graphics/SVG/1.1/DTD/svg11.dtd" [
	<!ENTITY ns_extend "http://ns.adobe.com/Extensibility/1.0/">
	<!ENTITY ns_ai "http://ns.adobe.com/AdobeIllustrator/10.0/">
	<!ENTITY ns_graphs "http://ns.adobe.com/Graphs/1.0/">
	<!ENTITY ns_vars "http://ns.adobe.com/Variables/1.0/">
	<!ENTITY ns_imrep "http://ns.adobe.com/ImageReplacement/1.0/">
	<!ENTITY ns_sfw "http://ns.adobe.com/SaveForWeb/1.0/">
	<!ENTITY ns_custom "http://ns.adobe.com/GenericCustomNamespace/1.0/">
	<!ENTITY ns_adobe_xpath "http://ns.adobe.com/XPath/1.0/">
]>
<svg version="1.1" id="Layer_1" xmlns:x="&ns_extend;" xmlns:i="&ns_ai;" xmlns:graph="&ns_graphs;"
	 xmlns="http://www.w3.org/2000/svg" xmlns:xlink="http://www.w3.org/1999/xlink" x="0px" y="0px" width="1700.791px"
	 height="850.39px" viewBox="0 0 1700.791 850.39" enable-background="new 0 0 1700.791 850.39" xml:space="preserve">
<metadata><?xpacket begin="﻿" id="W5M0MpCehiHzreSzNTczkc9d"?>
<x:xmpmeta xmlns:x="adobe:ns:meta/" x:xmptk="Adobe XMP Core 5.3-c011 66.145661, 2012/02/06-14:56:27        ">
   <rdf:RDF xmlns:rdf="http://www.w3.org/1999/02/22-rdf-syntax-ns#">
      <rdf:Description rdf:about=""
            xmlns:dc="http://purl.org/dc/elements/1.1/">
         <dc:format>image/svg+xml</dc:format>
         <dc:title>
            <rdf:Alt>
               <rdf:li xml:lang="x-default">Print</rdf:li>
            </rdf:Alt>
         </dc:title>
      </rdf:Description>
      <rdf:Description rdf:about=""
            xmlns:xmp="http://ns.adobe.com/xap/1.0/"
            xmlns:xmpGImg="http://ns.adobe.com/xap/1.0/g/img/">
         <xmp:MetadataDate>2018-09-03T12:02:36-03:00</xmp:MetadataDate>
         <xmp:ModifyDate>2018-09-03T12:02:36-03:00</xmp:ModifyDate>
         <xmp:CreateDate>2018-09-03T12:02:36-03:00</xmp:CreateDate>
         <xmp:CreatorTool>Adobe Illustrator CS6 (Macintosh)</xmp:CreatorTool>
         <xmp:Thumbnails>
            <rdf:Alt>
               <rdf:li rdf:parseType="Resource">
                  <xmpGImg:width>256</xmpGImg:width>
                  <xmpGImg:height>40</xmpGImg:height>
                  <xmpGImg:format>JPEG</xmpGImg:format>
                  <xmpGImg:image>/9j/4AAQSkZJRgABAgEASABIAAD/7QAsUGhvdG9zaG9wIDMuMAA4QklNA+0AAAAAABAASAAAAAEA&#xA;AQBIAAAAAQAB/+4ADkFkb2JlAGTAAAAAAf/bAIQABgQEBAUEBgUFBgkGBQYJCwgGBggLDAoKCwoK&#xA;DBAMDAwMDAwQDA4PEA8ODBMTFBQTExwbGxscHx8fHx8fHx8fHwEHBwcNDA0YEBAYGhURFRofHx8f&#xA;Hx8fHx8fHx8fHx8fHx8fHx8fHx8fHx8fHx8fHx8fHx8fHx8fHx8fHx8fHx8f/8AAEQgAKAEAAwER&#xA;AAIRAQMRAf/EAaIAAAAHAQEBAQEAAAAAAAAAAAQFAwIGAQAHCAkKCwEAAgIDAQEBAQEAAAAAAAAA&#xA;AQACAwQFBgcICQoLEAACAQMDAgQCBgcDBAIGAnMBAgMRBAAFIRIxQVEGE2EicYEUMpGhBxWxQiPB&#xA;UtHhMxZi8CRygvElQzRTkqKyY3PCNUQnk6OzNhdUZHTD0uIIJoMJChgZhJRFRqS0VtNVKBry4/PE&#xA;1OT0ZXWFlaW1xdXl9WZ2hpamtsbW5vY3R1dnd4eXp7fH1+f3OEhYaHiImKi4yNjo+Ck5SVlpeYmZ&#xA;qbnJ2en5KjpKWmp6ipqqusra6voRAAICAQIDBQUEBQYECAMDbQEAAhEDBCESMUEFURNhIgZxgZEy&#xA;obHwFMHR4SNCFVJicvEzJDRDghaSUyWiY7LCB3PSNeJEgxdUkwgJChgZJjZFGidkdFU38qOzwygp&#xA;0+PzhJSktMTU5PRldYWVpbXF1eX1RlZmdoaWprbG1ub2R1dnd4eXp7fH1+f3OEhYaHiImKi4yNjo&#xA;+DlJWWl5iZmpucnZ6fkqOkpaanqKmqq6ytrq+v/aAAwDAQACEQMRAD8A9U4q7FXYq7FXYq7FXYq7&#xA;FXYq7FXYq7FXYq7FXYq7FXYq7FXYq7FXYq8w/NP85Y/Klw2j6VALnWwFaV5gfQhVxyFQCpdiOwNB&#xA;49szdNpOPc8nUdodp+CeGIuf2Bk/5c+eIvOXlwaqtubWaKVra6hJ5KJUVXJQ91IkHX5e+UZ8Phyp&#xA;zNFqxnx8VV0ZRlLluxViHnv8z/LvkxreHUUnuLq6UvHb26qWCA05sXZABXYZfh08snJwtXr4YKEr&#xA;JPc8v/M7859J8xeVzpmhpcwG5Ia4kkIidVRhWNkQvyDA1rypmbp9IYSuTqNf2pHLj4YXu818peeP&#xA;MflS7e40e59MSKVlt5Bzheo2LITTkvUH+FczMuGMxu6rT6vJhNxL6t8keYv8R+VNN1oqEku4qzKO&#xA;glRjHJT25oaZo82PgkQ9jpc3i44z708ytyHYq7FXYq7FXYq7FXYqoy3lnC4SWeONz0V3VSfoJwgF&#xA;iZAcyrYGTsVY3538/wCgeTrFLjU3Z556i1s4gDLIV6kAkAKK7sf15dhwSyHZxdVrIYBcvk8/0z/n&#xA;JXRJr0RahpE9naswH1mOVZyoP7TJxjNB7E5lS7PlWxdZj7cgTUokD5vXrO8tb20hu7SVZ7WdBJDM&#xA;hqrKwqCDmAQQaLu4yEhY5FWwMnYq7FXYq7FXYq0zKilmIVVFWY7AAdSTiqB0XXdJ1u0a70u4W6tU&#xA;leEzIGCl4zRuJYDkK/tDY9jkpwMTRa8WaOQXE2Et/MK4u7fyVq81pJJFOlueMsJCuoJAZgxrxAWt&#xA;W6gbjfJ4ADMW062RGKRHOnlPk7UfOMmq+VUvr2+nkupGjVnkKhIoPTlkWSMCkhMLFW57ryrUkLxz&#xA;ssYVKgHT6aeUyhZkb/RXz2YH+cWsafq35g6ldWEnqwL6cBehWrwoI3oGAOzKcytLAxxgF13aWWM8&#xA;8jHkkHlzzNqmg6naXtnK/G1nWc23N1ikKkVDqpFeQFDlmTGJCi42DPLHIEdC9/8APH51foPQNEu7&#xA;GyU6prMCXos7luQitnWqsxjIrzP2d/GoB2zV4dJxSIJ2D0mr7U8OESB6pC6PcmP5T/mmPOkd3bXs&#xA;UVrq1qfUEMXLg8BoOa8ixqrGjfMZHU6bw6I5NvZ3aHj2DtIfc8i/Pyx1e289yy3ksk1lcxpJprOS&#xA;VSOgEkadhxkBNB4175naKQMNubpe14SGazyPJh3lTXIdG1qO5uoBdafKr2+oWp/3bbTDjIo/ygPi&#xA;X/KAzIyw4hQ5uDp8ohOyLjyPuU7fQbvU9ak03QYpNTJkcWxiRuTxhiFkYEDgCtCeVKd8JmALlsgY&#xA;TOfDD1PrbyH5dk8u+UNL0aVg01rF+/K7j1ZGMkgB7gO5pmizZOOZL2ekw+FijA9E+ypyXYq7FXYq&#xA;7FXYq7FXhP5w/m35q0jzUdG0KdtOhso19eRoY2MzyANVfVR/gUbAjqa+2bPS6WMo3Le3ne0u0ckM&#xA;nBA8Nfb83kupT+aPM2pjUrtLjUL7UH9KOVIifVeJFBSNY1CkqtKhRtmdERgKGwDppnJllxG5GSfW&#xA;f5xfmLaXVu8mrSTR2zJytpFTi6x0qj/Dy+IChNa5UdLjI5ORHtPPEj1cn0nqnnC00zyb/ii7tZ1t&#xA;xbw3D2gUeuvrcQEIYqKqX+LfNRHETPhD1WTUiGLxCDVXXXd8vfmN50fzf5ml1YRvBbCOOG1t3YMY&#xA;0RdxUbbuWb6c3WDF4caeR1uq8fJxdOjF8ucR7F+Tv5uW2h2Ft5Y1C1nuBNd8bKeIqQguGUcCjFdh&#xA;IS1Qe/TNfqtKZHiHc7zsztIY4jHIE77fF9DZqnpnkOsf85FaTp2o3dgNGuJZLSeSBmMqKrem5QsN&#xA;m8Mz4aAkA26TL21GMjHhOxR2l/8AORHkS64reJd6ex+00kQkQfIxM7H/AIHIy0MxyotmPtrCedx/&#xA;Hky/S/zC8kapT6lrdo7t9mN5VikNf+K5OD/hmPLBOPMFzsetwz5SDIFZWUMpBUioI3BBypyVlzc2&#xA;9rbyXNzKsNvCpeWaQhUVVFSzE7ADCBewRKQAs8nh3mvz/d+e9Qm0TRZjZeVbZWbUr9gQbhUIG4BV&#xA;xAGZefH4glWYUFM2WLAMQ4jvL8fa8/qNYdRIwhtjHM9/7O/y3ZD5X1RfLtxxSIwaeo9O7s9iyRwK&#xA;AWPHZp7RCOZH99BxkFSpynJHj9/4+/7Ds5OnyeEf6PUe79Mev86NF6bcXsENjJfVMtvHE09YQZCy&#xA;KvL4AtSxI6AdcwwN6dsZAC+j5s1/85/N1pql7DoT/ou0lupLoCSGKSZhMAV5+oJUA40I4/ec3ENJ&#xA;AgcW7yubtTKJEQ9Iu/Niv5kKq+fvMAUAD6/cGg8TIScu0/8Adj3OHrv76f8AWLG8ucV7freuflTr&#xA;X5Z6faX95G3mLS9HjisiqyrKlzFbLSLkF4spkWhB28PHNbCGWOQkD0mT0GXLpsmnAkfXGG3PnXJN&#xA;/wAtPNP5QeV/L9oY9Qig1e6toW1SV0meT1uAZ0rwICq5IAXb59chqMeWcuW3Ru0Oo0uGA3qRAvmm&#xA;fm/zh+THmzSzp+ravGyqeUFxHHMssT/zIxjP0gihyGLFmgbAbdTqdLmjwyl9/wCp5VD5I/LAXwM3&#xA;npHsA1WRLOZZiv8AKGPJQfeh+WZpzZK+jf3unGl0975dvcWWeTvPGh6J+YdrpdteWt5oFzaR2Fnf&#xA;W8H1Uo/PkpnBA5OX+Fm6GobbfKMuGUsdkeq7c3TauGPOIggwIoECvmnnl/8AMibzR+b6WVhOw0Gy&#xA;t7iOBFJCTuAOUzAfaFR8Feg37nK56fgxWfqLkYdcc2qqJ9AB+Pm9czAd07FXYq8o/wChkvI3/LDq&#xA;f/Iq3/6r5nfkJ94/HwdN/LmHul9n61sv/OSfksL+60/Umau4ZIFFPmJmx/k+feEHtzF3S+z9al/0&#xA;Mr5U/wCrXf8A/JH/AJrw/wAny7wj+XMf82X2LZP+clvLAUmPSr1m7BjEo+8M36sf5Pl3hT25j/my&#xA;+xhn5j/m35a836VFbrojxX0Msbx3cpjZljU1eMMByo3hmRg0ssZ57OBre0ceaNcO/eral+cnl2XW&#xA;PLN1p2iyWVjoEk7/AFRDGoZZouACBQAKHfBHSSqQJsyZT7TgZQMY0IXssk/NbybP+YMHmiXQWWGK&#xA;0aJ4gsLSNc86pPvxXkqfDy64fy0xj4b6oPaGI5xkMOnlz70P51/O7UvM6y6SkK6b5euDwuAsaXNy&#xA;8YNd/UKoDUAjjQj+bDh0Yhvzkx1Xassvp+mB+JecX6aasx+oSzSwkmnrxpGwFfh+w8gPv0zLjfV1&#xA;cxG/TaGyTBNNMuNOsuF8lzcR6rbMstoot4pIRKjcl5GSTcbD9j6MhIE7dG7HKMd7PEOWw/W9c8s/&#xA;85JSx25i8yacZ5lA4XNlxUt/rxuQAfdT9GYGTQfzS7rB24QKyC/c8c1u+jv9Zv7+NSkd3czTorU5&#xA;BZHLgGnffNhAUAHR5Z8UzLvKCyTW7FXqnkT88m8qeWLfQ/0L9dNu0jLcG69MH1HL04ek/Tl/NmFm&#xA;0fHLiuncaTtbwcYhw3Xn+xIPPn5seZfOCi2uONlpinkLGAnixHQysd3I+72rlmHTRx78y42r7RyZ&#xA;9jtHuWaF+Ycej6ZDZ2+mASQ8mE4lCkzAVjmK+mRyUs6P/PEeDdA2GeDiN3+Px9qMWt4I0I/jv/HM&#xA;bJifzaCkejpRhCEegUufijWMcoOJMR+K3kLemTX90TEwYb5D8r5/j9v37tv8o90ft+XTp08vSbTr&#xA;R/8AnICbTtOn0/8AQayWrg/Vo1uSgg5r8aJWJ/3fOpRD9gfDUgClc9DZu2/F2wYxMeHb38vs5d3d&#xA;yeW6pf8A1+9a54enyWNeFeX93GqdaDrxrmbGNCnUZJ8RtW8xaw2ta7f6s0Qga+necwg8gpc1pWgr&#xA;TBjhwxA7mWbL4kzLvKXZNqdirsVdirsVdiqJ0/UtR025F1p11NZ3IBUT28jRSAHqOSEHfIyiDsWc&#xA;JyibiSD5JxF+YfnyKvHzDqJr15XUr/8AEmOQOCH80Nw1uYfxy+ZRKfmn+YaKFGv3ZA/mcMfvIJyP&#xA;5bH3BmO0M/8APKLT85vzMRwy65ISP5ordh9zRkYPymPuZjtPUfzvu/Uhv+VU/mL/ANWG6+5f64fz&#xA;OPvYfyfn/ml3/KqfzF/6sN19y/1x/M4+9f5Pz/zSuj/KX8xpGCroNwCf5uCj72YDH8zj70js7P8A&#xA;zSq/8qc/Mv8A6scv/IyH/mvB+ax96f5M1H837nf8qc/Mv/qxy/8AIyH/AJrx/NY+9f5M1H837nf8&#xA;qc/Mv/qxy/8AIyH/AJrx/NY+9f5M1H837nf8qc/Mv/qxy/8AIyH/AJrx/NY+9f5M1H837nf8qc/M&#xA;v/qxy/8AIyH/AJrx/NY+9f5M1H837nf8qc/Mv/qxy/8AIyH/AJrx/NY+9f5M1H837nf8qc/Mv/qx&#xA;y/8AIyH/AJrx/NY+9f5M1H837nf8qc/Mv/qxy/8AIyH/AJrx/NY+9f5M1H837nf8qc/Mv/qxy/8A&#xA;IyH/AJrx/NY+9f5M1H837nf8qc/Mv/qxy/8AIyH/AJrx/NY+9f5M1H837nf8qc/Mv/qxy/8AIyH/&#xA;AJrx/NY+9f5M1H837nf8qc/Mv/qxy/8AIyH/AJrx/NY+9f5M1H837nf8qc/Mv/qxy/8AIyH/AJrx&#xA;/NY+9f5M1H837nf8qc/Mv/qxy/8AIyD/AJrx/NY+9P8AJmo/m/cr/wDKj/zQ/wCrL/09Wn/VbB+c&#xA;xd/3sv5K1H837R+t3/Kj/wA0P+rL/wBPVp/1Wx/OYu/71/krUfzftH63f8qP/ND/AKsv/T1af9Vs&#xA;fzmLv+9f5K1H837R+t3/ACo/80P+rL/09Wn/AFWx/OYu/wC9f5K1H837R+t3/Kj/AM0P+rL/ANPV&#xA;p/1Wx/OYu/71/krUfzftH63f8qP/ADQ/6sv/AE9Wn/VbH85i7/vX+StR/N+0frd/yo/80P8Aqy/9&#xA;PVp/1Wx/OYu/71/krUfzftH63f8AKj/zQ/6sv/T1af8AVbH85i7/AL1/krUfzftH63f8qP8AzQ/6&#xA;sv8A09Wn/VbH85i7/vX+StR/N+0frd/yo/8AND/qy/8AT1af9VsfzmLv+9f5K1H837R+t3/Kj/zQ&#xA;/wCrL/09Wn/VbH85i7/vX+StR/N+0frd/wAqP/ND/qy/9PVp/wBVsfzmLv8AvX+StR/N+0frd/yo&#xA;/wDND/qy/wDT1af9VsfzmLv+9f5K1H837R+t3/Kj/wA0P+rL/wBPVp/1Wx/OYu/71/krUfzftH61&#xA;ZPyJ/MxlBOmxoT+y1zBUfc5GD87j70jsnUfzftD/AP/Z</xmpGImg:image>
               </rdf:li>
            </rdf:Alt>
         </xmp:Thumbnails>
      </rdf:Description>
      <rdf:Description rdf:about=""
            xmlns:xmpMM="http://ns.adobe.com/xap/1.0/mm/"
            xmlns:stRef="http://ns.adobe.com/xap/1.0/sType/ResourceRef#"
            xmlns:stEvt="http://ns.adobe.com/xap/1.0/sType/ResourceEvent#">
         <xmpMM:InstanceID>xmp.iid:01801174072068118083F247D4510594</xmpMM:InstanceID>
         <xmpMM:DocumentID>xmp.did:01801174072068118083F247D4510594</xmpMM:DocumentID>
         <xmpMM:OriginalDocumentID>uuid:5D20892493BFDB11914A8590D31508C8</xmpMM:OriginalDocumentID>
         <xmpMM:RenditionClass>proof:pdf</xmpMM:RenditionClass>
         <xmpMM:DerivedFrom rdf:parseType="Resource">
            <stRef:instanceID>uuid:ba5dc92b-6d0a-484a-ab90-b9370a4a0965</stRef:instanceID>
            <stRef:documentID>xmp.did:0980117407206811822A897E387FE54C</stRef:documentID>
            <stRef:originalDocumentID>uuid:5D20892493BFDB11914A8590D31508C8</stRef:originalDocumentID>
            <stRef:renditionClass>proof:pdf</stRef:renditionClass>
         </xmpMM:DerivedFrom>
         <xmpMM:History>
            <rdf:Seq>
               <rdf:li rdf:parseType="Resource">
                  <stEvt:action>saved</stEvt:action>
                  <stEvt:instanceID>xmp.iid:01801174072068118083F247D4510594</stEvt:instanceID>
                  <stEvt:when>2018-09-03T12:02:36-03:00</stEvt:when>
                  <stEvt:softwareAgent>Adobe Illustrator CS6 (Macintosh)</stEvt:softwareAgent>
                  <stEvt:changed>/</stEvt:changed>
               </rdf:li>
            </rdf:Seq>
         </xmpMM:History>
      </rdf:Description>
      <rdf:Description rdf:about=""
            xmlns:illustrator="http://ns.adobe.com/illustrator/1.0/">
         <illustrator:StartupProfile>Print</illustrator:StartupProfile>
      </rdf:Description>
      <rdf:Description rdf:about=""
            xmlns:xmpTPg="http://ns.adobe.com/xap/1.0/t/pg/"
            xmlns:stDim="http://ns.adobe.com/xap/1.0/sType/Dimensions#"
            xmlns:xmpG="http://ns.adobe.com/xap/1.0/g/">
         <xmpTPg:HasVisibleOverprint>False</xmpTPg:HasVisibleOverprint>
         <xmpTPg:HasVisibleTransparency>False</xmpTPg:HasVisibleTransparency>
         <xmpTPg:NPages>1</xmpTPg:NPages>
         <xmpTPg:MaxPageSize rdf:parseType="Resource">
            <stDim:w>60.000127</stDim:w>
            <stDim:h>29.999874</stDim:h>
            <stDim:unit>Centimeters</stDim:unit>
         </xmpTPg:MaxPageSize>
         <xmpTPg:PlateNames>
            <rdf:Seq>
               <rdf:li>Cyan</rdf:li>
               <rdf:li>Magenta</rdf:li>
               <rdf:li>Yellow</rdf:li>
               <rdf:li>Black</rdf:li>
            </rdf:Seq>
         </xmpTPg:PlateNames>
         <xmpTPg:SwatchGroups>
            <rdf:Seq>
               <rdf:li rdf:parseType="Resource">
                  <xmpG:groupName>Default Swatch Group</xmpG:groupName>
                  <xmpG:groupType>0</xmpG:groupType>
               </rdf:li>
            </rdf:Seq>
         </xmpTPg:SwatchGroups>
      </rdf:Description>
      <rdf:Description rdf:about=""
            xmlns:pdf="http://ns.adobe.com/pdf/1.3/">
         <pdf:Producer>Adobe PDF library 10.01</pdf:Producer>
      </rdf:Description>
   </rdf:RDF>
</x:xmpmeta>
                                                                                                    
                                                                                                    
                                                                                                    
                                                                                                    
                                                                                                    
                                                                                                    
                                                                                                    
                                                                                                    
                                                                                                    
                                                                                                    
                                                                                                    
                                                                                                    
                                                                                                    
                                                                                                    
                                                                                                    
                                                                                                    
                                                                                                    
                                                                                                    
                                                                                                    
                                                                                                    
                           
<?xpacket end="w"?>
	</metadata>
<path fill="#006D88" d="M1106.059-51.275c0-0.658-0.391-1.256-0.994-1.521L990.702-57.5v-33.914c0-0.729-0.467-1.366-1.161-1.585
	c-0.162-0.051-0.33-0.077-0.498-0.077c-0.543,0-1.052,0.267-1.361,0.709l-18.848,26.923c-0.195,0.281-0.3,0.609-0.3,0.953v7.17
	l-17.036-28.159l0.965-11.242c0.896-0.445,1.766-0.958,2.592-1.526c1.074-0.739,2.004-1.443,2.838-2.152
	c7.451-2.446,12.201-6.853,14.939-13.853c4.475-11.437,2.545-22.575,1.616-27.929l-0.069-0.416
	c-0.345-1.99-1.769-8.672-5.703-11.086c-1.379-0.847-2.902-1.042-4.431-0.569c-1.577,0.487-2.807,1.457-3.631,2.85
	c-2.987-5.653-7.842-10.116-13.578-12.413c-2.733-1.096-5.596-1.65-8.508-1.65c-2.455,0-4.18,0.401-4.754,0.556
	c-1.082,0.128-7.674,1.149-10.861,7.187c-1.194,2.266-1.387,6.266-0.51,10.289c-0.084,0.118-0.162,0.238-0.235,0.36
	c-0.494,0.809-0.804,1.692-0.871,2.491c-0.144,1.689,0.776,2.441,1.178,2.687c0.596,0.362,1.313,0.442,2.049,0.224
	c0.557,1.091,1.215,2.369,1.957,3.751c-0.346,0.111-0.727,0.248-1.131,0.416c-2.43-2.635-4.518-4.47-5.826-5.536
	c0.643-1.495,0.461-2.928-0.527-3.721c-0.426-0.342-0.955-0.522-1.53-0.522c-1.154,0-2.441,0.745-3.441,1.992
	c-1.543,1.925-1.693,4.101-0.354,5.174c0.426,0.342,0.957,0.522,1.53,0.522c0.734,0,1.517-0.294,2.254-0.841
	c0.867,0.709,2.097,1.776,3.543,3.209c-0.627-0.535-1.561-0.839-2.692-0.839c-0.4,0-0.812,0.039-1.221,0.115
	c-0.931,0.175-1.796,0.538-2.433,1.022c-0.156,0.118-0.299,0.243-0.426,0.374c-2.621-3.439-5.926-5.519-10.289-6.49
	c-3.201-0.715-6.193-1.077-8.889-1.077c-7.449,0-12.688,2.735-15.146,7.912c-2.578,5.425-1.035,11.116,0.676,15.175
	c-0.629-0.647-1.262-1.312-1.893-1.995c-2.051-2.212-3.566-3.197-4.912-3.197c-0.42,0-0.818,0.099-1.182,0.295
	c-1.416,0.764-1.803,2.639-1.119,5.423c2.828,11.518,6.908,18.709,9.832,22.714c6.57,9,17.961,19.727,34.9,19.727
	c0.186,0,0.368,0,0.559-0.004c0.031,0,0.062-0.002,0.094-0.004c0.162-0.012,4.053-0.309,8.402-2.053
	c2.584-1.037,4.813-2.387,6.635-4.015l9.766,4.242l6.634,10.912l-114.638,0.02c-0.004-3.855-0.008-13.881-0.008-14.781
	c0-0.171,0.15-0.347,0.229-0.421l7.854-5.001c0.381,0.09,0.771,0.135,1.162,0.135c2.684,0,4.891-2.081,5.094-4.714
	c1.613-0.887,2.625-2.578,2.625-4.467c0-1.852-1.024-3.562-2.61-4.455c0-0.012,0-0.024,0-0.036c0-2.243-1.48-4.203-3.56-4.867
	c-0.069-1.579-0.873-3.048-2.192-3.962c0.049-1.842-0.9-3.568-2.531-4.521c-0.781-0.455-1.67-0.696-2.574-0.696
	c-0.912,0-1.809,0.246-2.59,0.703c-0.01-0.006-0.021-0.013-0.031-0.02c-0.787-0.46-1.68-0.703-2.582-0.703
	c-0.877,0-1.746,0.232-2.508,0.664c-0.762-0.432-1.629-0.664-2.506-0.664c-0.902,0-1.795,0.243-2.58,0.703
	c-0.012,0.006-0.021,0.014-0.033,0.02c-0.778-0.457-1.678-0.703-2.59-0.703c-0.904,0-1.793,0.241-2.574,0.696
	c-1.631,0.953-2.579,2.681-2.53,4.521c-1.318,0.913-2.123,2.382-2.193,3.963c-2.078,0.664-3.559,2.624-3.559,4.867
	c0,0.012,0,0.024,0,0.036c-1.586,0.894-2.611,2.604-2.611,4.455c0,1.889,1.014,3.58,2.627,4.467
	c0.201,2.634,2.408,4.714,5.094,4.714c0.531,0,1.053-0.081,1.556-0.243l7.631,4.857c0.078,0.072,0.227,0.244,0.227,0.418v15.016
	h-26.688v-35.988h1.244c0.686,0,1.309-0.432,1.553-1.071c0.242-0.642,0.062-1.377-0.449-1.832l-12.52-11.128v-7.973
	c0-0.916-0.746-1.66-1.662-1.66h-14.32v-12.144c0-0.511-0.229-0.986-0.633-1.304l-13.803-10.897
	c-0.582-0.458-1.465-0.461-2.052-0.008l-19.612,15.257c-0.408,0.316-0.644,0.795-0.644,1.312v29.572l-6.459,3.875
	c-0.496,0.298-0.805,0.844-0.805,1.424v2.905c0,0.451,0.188,0.891,0.514,1.201c0.31,0.297,0.718,0.46,1.148,0.46
	c0.022,0,0.047-0.001,0.076-0.002l0.973-0.045l0.188,51.937h-5.957v-40.415c0-0.916-0.744-1.661-1.66-1.661h-10.533
	c-0.338,0-0.666,0.102-0.943,0.295l-10.99,7.593l-0.123-29.311c0.003-0.021,0.005-0.043,0.005-0.062
	c0.053-0.704,0.086-1.397,0.102-2.07c0.9-0.02,1.627-0.757,1.627-1.66c0-0.793-0.557-1.458-1.301-1.622
	c0.744-4.171,2.762-8.922,7.998-10.043c1.752-0.376,3.58-0.039,5.082,0.933c1.514,0.979,2.557,2.49,2.934,4.253
	c0.283,1.323,0.035,2.679-0.7,3.815c-0.734,1.137-1.869,1.918-3.193,2.201c-0.965,0.206-1.973,0.021-2.801-0.515
	c-0.836-0.541-1.41-1.373-1.617-2.346c-0.148-0.69-0.021-1.397,0.365-1.991c0.385-0.593,0.977-1.001,1.666-1.149
	c0.434-0.093,0.807-0.35,1.047-0.722c0.242-0.373,0.323-0.816,0.229-1.251c-0.162-0.761-0.846-1.312-1.625-1.312
	c-0.115,0-0.231,0.013-0.348,0.036c-1.56,0.335-2.896,1.256-3.761,2.595c-0.866,1.338-1.159,2.933-0.825,4.492
	c0.395,1.84,1.479,3.416,3.062,4.438c0.148,0.098,0.303,0.188,0.457,0.273l-2.121,1.479c-0.6,0.419-0.854,1.168-0.635,1.863
	l2.381,7.537c0.088,0.279,0.25,0.532,0.467,0.729l2.082,1.894c0.308,0.278,0.703,0.433,1.117,0.433s0.812-0.153,1.117-0.432
	l2.084-1.895c0.217-0.196,0.377-0.449,0.467-0.729l2.379-7.536c0.221-0.697-0.033-1.446-0.633-1.863l-2.014-1.404
	c1.395-0.659,2.582-1.694,3.44-3.021c1.218-1.881,1.629-4.125,1.158-6.316c-0.562-2.631-2.117-4.885-4.377-6.347
	c-1.637-1.059-3.521-1.618-5.453-1.618c-0.711,0-1.426,0.076-2.129,0.228c-3.978,0.852-7.01,3.374-8.891,7.354
	c-1.341-3.773-3.689-6.381-6.681-7.316c-0.563-0.177-1.143-0.266-1.715-0.266c-1.094,0-2.15,0.315-3.143,0.939
	c-2.119,1.331-3.66,3.998-4.121,7.134c-0.523,3.578,0.686,7.078,2.897,8.85l-2.561,1.785c-0.599,0.419-0.854,1.168-0.633,1.863
	l2.379,7.536c0.088,0.279,0.25,0.531,0.467,0.729l2.084,1.894c0.305,0.278,0.703,0.433,1.117,0.433s0.811-0.153,1.117-0.432
	l2.082-1.895c0.219-0.198,0.379-0.45,0.467-0.729l2.381-7.537c0.219-0.696-0.035-1.445-0.635-1.862l-2.382-1.663
	c1.263-1.016,2.134-2.671,2.423-4.637c0.471-3.201-0.998-6.185-3.412-6.94c-0.162-0.051-0.328-0.075-0.498-0.075
	c-0.729,0-1.367,0.469-1.584,1.166c-0.133,0.423-0.092,0.873,0.112,1.267c0.205,0.393,0.554,0.683,0.976,0.814
	c0.709,0.222,1.352,1.704,1.119,3.286c-0.179,1.209-0.711,2.228-1.392,2.654c-0.295,0.186-0.557,0.229-0.846,0.138
	c-1.857-0.582-2.752-3.715-2.395-6.162c0.321-2.188,1.293-3.981,2.602-4.804c0.68-0.428,1.395-0.535,2.098-0.314
	c4.205,1.313,5.259,7.159,5.521,10.046c-0.865,0.057-1.553,0.778-1.553,1.658c0,0.893,0.709,1.622,1.594,1.659
	c-0.035,0.637-0.053,1.284-0.053,1.937c-0.004,0.047-0.006,0.094-0.004,0.134L698.039-77l-10.396,7.186
	c-0.6,0.414-0.856,1.162-0.641,1.861c0.219,0.697,0.854,1.166,1.586,1.166h2.334v23.061l-17.441-0.01l-42.756-55.212l2.197-2.669
	c0.396-0.481,0.489-1.139,0.244-1.711c-0.248-0.574-0.787-0.958-1.412-1.002l-2.236-0.156c-0.467-0.035-0.912,0.127-1.25,0.44
	c-0.514,0.479-51.631,47.951-61.518,54.306c-9.103,5.852-22.207,6.02-23.673,6.02h-0.123l-15.448,0.02l-0.329-15.703
	c-0.018-0.779-0.562-1.436-1.328-1.592l-78.088-15.979c-0.128-0.027-0.242-0.031-0.317-0.033c-0.012,0-0.022-0.002-0.036,0
	l-27.238,0.361c-0.903,0.014-1.64,0.758-1.64,1.66v34.672l-15.693,0.145c-5.951-3.713-17.453-10.189-31.831-14.861
	c0.605-0.123,1.16-0.25,1.663-0.377c2.191-0.561,4.433-1.389,4.433-3.297c0-0.49-0.151-0.939-0.452-1.34v-8.896l1.078-1.615
	c0.492-0.74,0.318-1.732-0.396-2.26c-0.385-0.283-4.111-2.775-18.444-4.512c-0.964-9.432-5.043-18.17-11.536-24.68
	c-6.881-6.898-15.859-10.697-25.282-10.697c-9.48,0-18.501,3.84-25.397,10.812c-6.481,6.553-10.527,15.329-11.444,24.786
	c-12.92,1.725-16.354,4.027-16.709,4.289c-0.715,0.527-0.889,1.521-0.396,2.26l1.077,1.615v8.896c-0.301,0.4-0.452,0.85-0.452,1.34
	c0,1.908,2.24,2.736,4.434,3.297c0.515,0.131,1.086,0.26,1.71,0.387c-13.76,4.479-24.842,10.57-30.596,14.062h-14.496V-55.84
	c0-0.172,0.148-0.346,0.229-0.422l7.855-5c0.381,0.09,0.77,0.135,1.161,0.135c2.685,0,4.892-2.08,5.093-4.715
	c1.614-0.887,2.626-2.576,2.626-4.467c0-1.852-1.024-3.562-2.61-4.455c0-0.014,0-0.023,0-0.035c0-2.244-1.479-4.203-3.56-4.867
	c-0.069-1.58-0.873-3.048-2.192-3.963c0.048-1.841-0.899-3.568-2.532-4.521c-0.778-0.456-1.67-0.696-2.572-0.696
	c-0.912,0-1.811,0.247-2.59,0.704c-0.012-0.008-0.021-0.014-0.031-0.02c-0.787-0.46-1.681-0.703-2.582-0.703
	c-0.876,0-1.745,0.232-2.507,0.664c-0.763-0.432-1.632-0.664-2.508-0.664c-0.901,0-1.795,0.243-2.581,0.702
	c-0.011,0.007-0.021,0.013-0.031,0.021c-0.78-0.457-1.678-0.704-2.591-0.704c-0.903,0-1.794,0.24-2.573,0.696
	c-0.908,0.53-1.604,1.303-2.035,2.198c-0.627-1.099-1.652-1.952-2.888-2.348c-0.07-1.58-0.874-3.049-2.193-3.962
	c0.048-1.843-0.899-3.568-2.532-4.521c-0.778-0.456-1.669-0.696-2.571-0.696c-0.913,0-1.812,0.246-2.592,0.702
	c-0.011-0.006-0.021-0.012-0.03-0.019c-0.787-0.46-1.681-0.703-2.582-0.703c-0.876,0-1.745,0.233-2.508,0.664
	c-0.762-0.431-1.631-0.664-2.507-0.664c-0.901,0-1.795,0.243-2.581,0.703c-0.011,0.007-0.021,0.013-0.031,0.019
	c-0.78-0.457-1.679-0.702-2.592-0.702c-0.902,0-1.793,0.24-2.572,0.696c-1.631,0.953-2.58,2.681-2.531,4.521
	c-1.319,0.912-2.123,2.381-2.193,3.961c-1.007,0.319-1.887,0.946-2.521,1.783c-0.224-0.189-0.463-0.359-0.714-0.508
	c-0.78-0.456-1.67-0.695-2.573-0.695c-0.912,0-1.81,0.246-2.59,0.703c-0.011-0.008-0.021-0.014-0.031-0.02
	c-0.787-0.46-1.681-0.703-2.582-0.703c-0.876,0-1.745,0.232-2.507,0.664c-0.762-0.432-1.631-0.664-2.508-0.664
	c-0.901,0-1.794,0.243-2.58,0.702c-0.011,0.007-0.022,0.013-0.033,0.021c-0.78-0.457-1.678-0.703-2.59-0.703
	c-0.903,0-1.794,0.239-2.573,0.695c-1.631,0.953-2.58,2.682-2.531,4.522c-1.318,0.912-2.123,2.381-2.192,3.961
	c-2.079,0.664-3.56,2.625-3.56,4.867c0,0.012,0,0.025,0,0.037c-1.587,0.893-2.61,2.604-2.61,4.455c0,1.889,1.012,3.578,2.626,4.467
	c0.202,2.633,2.409,4.713,5.093,4.713c0.532,0,1.054-0.082,1.557-0.242l7.625,4.855c0.08,0.074,0.231,0.252,0.231,0.422
	c0,0.867-0.021,9.518-0.028,13.211L1.661-39.34C0.745-39.34,0-38.594,0-37.678v36.016C0-0.746,0.745,0,1.661,0l1102.764-2.418
	c0.442,0,0.86-0.174,1.174-0.486c0.311-0.311,0.488-0.738,0.488-1.176L1106.059-51.275z M922.332-135.867
	c-0.163,0.114-0.325,0.23-0.483,0.352c-0.006-0.125-0.021-0.232-0.037-0.316c-0.078-0.426-0.262-0.803-0.535-1.119
	C921.617-136.61,921.971-136.248,922.332-135.867 M180.3-60.002c2.685,0,4.892-2.08,5.093-4.713c1.056-0.58,1.856-1.502,2.282-2.607
	l3.414,2.174c0.081,0.074,0.23,0.25,0.23,0.42c0,0.934,0.01,17.52,0.015,22.889h-20.391c0.034-3.734,0.109-11.988,0.109-12.875
	c0-0.17,0.148-0.346,0.229-0.42l7.855-5.002C179.518-60.047,179.907-60.002,180.3-60.002 M199.579-64.473
	c0-0.172,0.15-0.348,0.229-0.422l5.078-3.232c0.45,0.967,1.194,1.766,2.143,2.285c0.202,2.635,2.409,4.715,5.093,4.715
	c0.532,0,1.055-0.082,1.558-0.244l7.631,4.857c0.078,0.07,0.226,0.244,0.226,0.42v14.803h-21.725
	C199.747-47.486,199.579-63.561,199.579-64.473 M294.601-40.602h-29.686c2.666-1.855,7.3-4.566,14.455-7.209l1.6,2.598
	c0.3,0.486,0.842,0.791,1.414,0.791h9.95L294.601-40.602z M381.043-40.232l-29.818-0.338l2.286-3.852h9.95
	c0.571,0,1.114-0.305,1.414-0.791l1.536-2.498c3.237,1.213,6.235,2.547,8.924,3.975C377.756-42.451,379.631-41.25,381.043-40.232
	 M661.277-43.742l-36.746-47.68l4.51-5.479l41.169,53.164L661.277-43.742z M618.346-83.908l4.5-5.467l35.166,45.63l-8.465-0.004
	L618.346-83.908z M612.15-76.379l4.512-5.482l29.609,38.111l-8.926-0.006L612.15-76.379z M605.949-68.846l4.517-5.486l23.61,30.574
	l-8.93-0.006L605.949-68.846z M599.762-61.328l4.5-5.467l17.627,23.031l-8.631-0.006L599.762-61.328z M593.582-53.82l4.494-5.459
	l11.918,15.508l-8.612-0.004L593.582-53.82z M591.893-51.781l6.215,8.004l-1.424-0.002c-0.019-0.002-0.039,0.002-0.06,0.002
	c-0.036,0.002-0.067,0.002-0.086,0.004c-0.104,0.006-0.271,0.014-0.489,0.014c-1.261,0-4.326-0.266-5.562-2.74
	C589.391-48.689,591.459-51.275,591.893-51.781 M698.031-69.746c-0.916,0-1.662,0.744-1.662,1.66s0.746,1.662,1.662,1.662h0.053
	l0.095,22.701h-0.789l-3.146-0.156v-24.57c0-0.574-0.293-1.082-0.735-1.379l4.549-3.145l0.012,3.227H698.031L698.031-69.746z
	 M933.134-98.884c-0.127,0.104-0.252,0.211-0.377,0.317c-0.129-0.06-0.252-0.126-0.373-0.196c-1.894-1.121-3.789-3.264-5.554-6.229
	C928.779-102.905,930.937-100.762,933.134-98.884 M941.9-115.206c2.201,3.36,4.484,7.479,4.457,10.205
	c-0.867,0.176-1.688,0.371-2.482,0.59C943.46-108.4,942.712-112.078,941.9-115.206 M934.966-124.674l0.426,0.552
	c0.18,0.407,0.643,1.479,1.228,3.077c-0.938-1.898-1.912-3.66-2.894-5.284C934.134-125.773,934.546-125.221,934.966-124.674
	 M928.135-134.945c0.543,0.944,1.096,1.868,1.655,2.772c-0.413-0.552-0.819-1.076-1.215-1.572c-0.285-0.355-0.578-0.716-0.875-1.075
	C927.859-134.869,928.005-134.91,928.135-134.945 M938.744-102.492c-1.571-0.92-3.104-1.935-4.561-3.021
	c-7.697-8.609-11.535-17.514-13.412-23.567c0.227-0.646,0.541-1.214,0.955-1.729c0.805-0.996,1.762-1.854,2.854-2.559
	c0.476,0.558,0.941,1.123,1.396,1.691c4.646,5.832,10.697,15.543,13.391,28.891C939.158-102.688,938.949-102.591,938.744-102.492
	 M884.925-112.416c1.039,1.812,2.082,3.457,3.088,4.929c-2.195-2.53-4.152-5.052-5.797-7.306
	C883.559-113.553,884.503-112.761,884.925-112.416 M936.509-90.96c1.955-1.012,3.756-2.215,5.358-3.583
	c1.267,0.091,3.937,0.119,7.144-0.826l-0.797,9.281l-5.494,3.02l-8.451-3.672C935.228-88.038,935.98-89.452,936.509-90.96
	 M712.923-108.553l2.512,1.752l-1.877,5.945l-0.635,0.575l-0.634-0.575l-1.877-5.945L712.923-108.553z M687.654-106.801l2.512-1.752
	l2.511,1.752l-1.877,5.944l-0.634,0.576l-0.633-0.576L687.654-106.801z"/>
</svg>
